  0
SECTION
  2
HEADER
  9
$ACADVER
  1
AC1009
  9
$DWGCODEPAGE
  3
ansi_1252
  9
$INSBASE
 10
0.0
 20
0.0
 30
0.0
  9
$EXTMIN
 10
42.71773066157289
 20
19.23332608691499
 30
0.0
  9
$EXTMAX
 10
2344.265553956838
 20
1108.207079136708
 30
0.0
  9
$LIMMIN
 10
0.0
 20
0.0
  9
$LIMMAX
 10
12.0
 20
9.0
  9
$ORTHOMODE
 70
     0
  9
$REGENMODE
 70
     1
  9
$FILLMODE
 70
     1
  9
$QTEXTMODE
 70
     0
  9
$MIRRTEXT
 70
     1
  9
$DRAGMODE
 70
     2
  9
$LTSCALE
 40
1.0
  9
$OSMODE
 70
    37
  9
$ATTMODE
 70
     1
  9
$TEXTSIZE
 40
0.2
  9
$TRACEWID
 40
0.05
  9
$TEXTSTYLE
  7
STANDARD
  9
$CLAYER
  8
0
  9
$CELTYPE
  6
BYLAYER
  9
$CECOLOR
 62
   256
  9
$DIMSCALE
 40
1.0
  9
$DIMASZ
 40
0.18
  9
$DIMEXO
 40
0.0625
  9
$DIMDLI
 40
0.38
  9
$DIMRND
 40
0.0
  9
$DIMDLE
 40
0.0
  9
$DIMEXE
 40
0.18
  9
$DIMTP
 40
0.0
  9
$DIMTM
 40
0.0
  9
$DIMTXT
 40
0.18
  9
$DIMCEN
 40
0.09
  9
$DIMTSZ
 40
0.0
  9
$DIMTOL
 70
     0
  9
$DIMLIM
 70
     0
  9
$DIMTIH
 70
     1
  9
$DIMTOH
 70
     1
  9
$DIMSE1
 70
     0
  9
$DIMSE2
 70
     0
  9
$DIMTAD
 70
     0
  9
$DIMZIN
 70
     0
  9
$DIMBLK
  1

  9
$DIMASO
 70
     1
  9
$DIMSHO
 70
     1
  9
$DIMPOST
  1

  9
$DIMAPOST
  1

  9
$DIMALT
 70
     0
  9
$DIMALTD
 70
     2
  9
$DIMALTF
 40
25.4
  9
$DIMLFAC
 40
1.0
  9
$DIMTOFL
 70
     0
  9
$DIMTVP
 40
0.0
  9
$DIMTIX
 70
     0
  9
$DIMSOXD
 70
     0
  9
$DIMSAH
 70
     0
  9
$DIMBLK1
  1

  9
$DIMBLK2
  1

  9
$DIMSTYLE
  2
STANDARD
  9
$DIMCLRD
 70
     0
  9
$DIMCLRE
 70
     0
  9
$DIMCLRT
 70
     0
  9
$DIMTFAC
 40
1.0
  9
$DIMGAP
 40
0.09
  9
$LUNITS
 70
     2
  9
$LUPREC
 70
     4
  9
$SKETCHINC
 40
0.1
  9
$FILLETRAD
 40
0.5
  9
$AUNITS
 70
     0
  9
$AUPREC
 70
     0
  9
$MENU
  1
.
  9
$ELEVATION
 40
0.0
  9
$PELEVATION
 40
0.0
  9
$THICKNESS
 40
0.0
  9
$LIMCHECK
 70
     0
  9
$CHAMFERA
 40
0.0
  9
$CHAMFERB
 40
0.0
  9
$SKPOLY
 70
     0
  9
$TDCREATE
 40
2454910.5
  9
$TDUPDATE
 40
2457374.434704491
  9
$TDINDWG
 40
0.0000000116
  9
$TDUSRTIMER
 40
0.0000000116
  9
$USRTIMER
 70
     1
  9
$ANGBASE
 50
0.0
  9
$ANGDIR
 70
     0
  9
$PDMODE
 70
     0
  9
$PDSIZE
 40
0.0
  9
$PLINEWID
 40
0.0
  9
$COORDS
 70
     1
  9
$SPLFRAME
 70
     0
  9
$SPLINETYPE
 70
     6
  9
$SPLINESEGS
 70
     8
  9
$ATTDIA
 70
     0
  9
$ATTREQ
 70
     1
  9
$HANDLING
 70
     1
  9
$HANDSEED
  5
219
  9
$SURFTAB1
 70
     6
  9
$SURFTAB2
 70
     6
  9
$SURFTYPE
 70
     6
  9
$SURFU
 70
     6
  9
$SURFV
 70
     6
  9
$UCSNAME
  2

  9
$UCSORG
 10
0.0
 20
0.0
 30
0.0
  9
$UCSXDIR
 10
1.0
 20
0.0
 30
0.0
  9
$UCSYDIR
 10
0.0
 20
1.0
 30
0.0
  9
$PUCSNAME
  2

  9
$PUCSORG
 10
0.0
 20
0.0
 30
0.0
  9
$PUCSXDIR
 10
1.0
 20
0.0
 30
0.0
  9
$PUCSYDIR
 10
0.0
 20
1.0
 30
0.0
  9
$USERI1
 70
     0
  9
$USERI2
 70
     0
  9
$USERI3
 70
     0
  9
$USERI4
 70
     0
  9
$USERI5
 70
     0
  9
$USERR1
 40
0.0
  9
$USERR2
 40
0.0
  9
$USERR3
 40
0.0
  9
$USERR4
 40
0.0
  9
$USERR5
 40
0.0
  9
$WORLDVIEW
 70
     1
  9
$SHADEDGE
 70
     3
  9
$SHADEDIF
 70
    70
  9
$TILEMODE
 70
     1
  9
$MAXACTVP
 70
    64
  9
$PLIMCHECK
 70
     0
  9
$PEXTMIN
 10
1.000000000000000E+20
 20
1.000000000000000E+20
 30
1.000000000000000E+20
  9
$PEXTMAX
 10
-1.000000000000000E+20
 20
-1.000000000000000E+20
 30
-1.000000000000000E+20
  9
$PLIMMIN
 10
0.0
 20
0.0
  9
$PLIMMAX
 10
12.0
 20
9.0
  9
$UNITMODE
 70
     0
  9
$VISRETAIN
 70
     1
  9
$PLINEGEN
 70
     0
  9
$PSLTSCALE
 70
     1
  0
ENDSEC
  0
SECTION
  2
TABLES
  0
TABLE
  2
VPORT
 70
     1
  0
VPORT
  2
*ACTIVE
 70
     0
 10
0.0
 20
0.0
 11
1.0
 21
1.0
 12
10.42990654205607
 22
4.5
 13
0.0
 23
0.0
 14
0.5
 24
0.5
 15
0.5
 25
0.5
 16
0.0
 26
0.0
 36
1.0
 17
0.0
 27
0.0
 37
0.0
 40
9.0
 41
1.972972972850329
 42
50.0
 43
0.0
 44
0.0
 50
0.0
 51
0.0
 71
     0
 72
   100
 73
     1
 74
     3
 75
     0
 76
     0
 77
     0
 78
     0
  0
ENDTAB
  0
TABLE
  2
LTYPE
 70
     2
  0
LTYPE
  2
CONTINUOUS
 70
     0
  3
Solid line
 72
    65
 73
     0
 40
0.0
  0
LTYPE
  2
CONTINUOUS2
 70
     0
  3
Solid Line
 72
    65
 73
     0
 40
0.0
  0
ENDTAB
  0
TABLE
  2
LAYER
 70
     2
  0
LAYER
  2
0
 70
     0
 62
     7
  6
CONTINUOUS
  0
LAYER
  2
6MM_MDF_BOTTOM_CUTOUT_NO_D
 70
     0
 62
    18
  6
CONTINUOUS
  0
ENDTAB
  0
TABLE
  2
STYLE
 70
     1
  0
STYLE
  2
STANDARD
 70
     0
 40
0.0
 41
1.0
 50
0.0
 71
     0
 42
0.2
  3
txt
  4

  0
ENDTAB
  0
TABLE
  2
VIEW
 70
     0
  0
ENDTAB
  0
TABLE
  2
UCS
 70
     0
  0
ENDTAB
  0
TABLE
  2
APPID
 70
     1
  0
APPID
  2
ACAD
 70
     0
  0
ENDTAB
  0
TABLE
  2
DIMSTYLE
 70
     1
  0
DIMSTYLE
  2
STANDARD
 70
     0
  3

  4

  5

  6

  7

 40
1.0
 41
0.18
 42
0.0625
 43
0.38
 44
0.18
 45
0.0
 46
0.0
 47
0.0
 48
0.0
140
0.18
141
0.09
142
0.0
143
25.4
144
1.0
145
0.0
146
1.0
147
0.09
 71
     0
 72
     0
 73
     1
 74
     1
 75
     0
 76
     0
 77
     0
 78
     0
170
     0
171
     2
172
     0
173
     0
174
     0
175
     0
176
     0
177
     0
178
     0
  0
ENDTAB
  0
ENDSEC
  0
SECTION
  2
BLOCKS
  0
BLOCK
  8
0
  2
$MODEL_SPACE
 70
     0
 10
0.0
 20
0.0
 30
0.0
  3
$MODEL_SPACE
  1

  0
ENDBLK
  5
21
  8
0
  0
BLOCK
 67
     1
  8
0
  2
$PAPER_SPACE
 70
     0
 10
0.0
 20
0.0
 30
0.0
  3
$PAPER_SPACE
  1

  0
ENDBLK
  5
1D
 67
     1
  8
0
  0
ENDSEC
  0
SECTION
  2
ENTITIES
  0
POLYLINE
  5
6C
  8
6MM_MDF_BOTTOM_CUTOUT_NO_D
 66
     1
 10
0.0
 20
0.0
 30
0.0
 70
     1
  0
VERTEX
  5
79
  8
6MM_MDF_BOTTOM_CUTOUT_NO_D
 10
771.0223695652185
 20
1108.207079136708
 30
0.0
  0
VERTEX
  5
7A
  8
6MM_MDF_BOTTOM_CUTOUT_NO_D
 10
771.0223695652178
 20
1096.20707913668
 30
0.0
  0
VERTEX
  5
7B
  8
6MM_MDF_BOTTOM_CUTOUT_NO_D
 10
791.0223695652185
 20
1096.207079136678
 30
0.0
  0
VERTEX
  5
7C
  8
6MM_MDF_BOTTOM_CUTOUT_NO_D
 10
791.0223695652194
 20
1031.707079136695
 30
0.0
  0
VERTEX
  5
7D
  8
6MM_MDF_BOTTOM_CUTOUT_NO_D
 10
803.0223695652194
 20
1031.707079136689
 30
0.0
  0
VERTEX
  5
7E
  8
6MM_MDF_BOTTOM_CUTOUT_NO_D
 10
803.0223695652185
 20
967.2070791366982
 30
0.0
  0
VERTEX
  5
7F
  8
6MM_MDF_BOTTOM_CUTOUT_NO_D
 10
791.0223695652184
 20
967.2070791366891
 30
0.0
  0
VERTEX
  5
80
  8
6MM_MDF_BOTTOM_CUTOUT_NO_D
 10
791.0223695652161
 20
882.7070791366904
 30
0.0
  0
VERTEX
  5
81
  8
6MM_MDF_BOTTOM_CUTOUT_NO_D
 10
803.0223695652164
 20
882.7070791366871
 30
0.0
  0
VERTEX
  5
82
  8
6MM_MDF_BOTTOM_CUTOUT_NO_D
 10
803.0223695652041
 20
793.7070791367162
 30
0.0
  0
VERTEX
  5
83
  8
6MM_MDF_BOTTOM_CUTOUT_NO_D
 10
791.022369565205
 20
793.7070791367157
 30
0.0
  0
VERTEX
  5
84
  8
6MM_MDF_BOTTOM_CUTOUT_NO_D
 10
791.022369565205
 20
709.2070791367114
 30
0.0
  0
VERTEX
  5
85
  8
6MM_MDF_BOTTOM_CUTOUT_NO_D
 10
803.0223695652062
 20
709.2070791367044
 30
0.0
  0
VERTEX
  5
86
  8
6MM_MDF_BOTTOM_CUTOUT_NO_D
 10
803.0223695652074
 20
644.7070791367137
 30
0.0
  0
VERTEX
  5
87
  8
6MM_MDF_BOTTOM_CUTOUT_NO_D
 10
791.0223695652072
 20
644.7070791367103
 30
0.0
  0
VERTEX
  5
88
  8
6MM_MDF_BOTTOM_CUTOUT_NO_D
 10
791.0223695652063
 20
580.2070791367082
 30
0.0
  0
VERTEX
  5
89
  8
6MM_MDF_BOTTOM_CUTOUT_NO_D
 10
771.0223695652163
 20
580.2070791367069
 30
0.0
  0
VERTEX
  5
8A
  8
6MM_MDF_BOTTOM_CUTOUT_NO_D
 10
771.0223695652184
 20
568.2070791366937
 30
0.0
  0
VERTEX
  5
8B
  8
6MM_MDF_BOTTOM_CUTOUT_NO_D
 10
703.5223695652123
 20
568.2070791367082
 30
0.0
  0
VERTEX
  5
8C
  8
6MM_MDF_BOTTOM_CUTOUT_NO_D
 10
703.5223695652128
 20
580.2070791367081
 30
0.0
  0
VERTEX
  5
8D
  8
6MM_MDF_BOTTOM_CUTOUT_NO_D
 10
610.0223695652193
 20
580.2070791367119
 30
0.0
  0
VERTEX
  5
8E
  8
6MM_MDF_BOTTOM_CUTOUT_NO_D
 10
610.0223695652153
 20
568.2070791367119
 30
0.0
  0
VERTEX
  5
8F
  8
6MM_MDF_BOTTOM_CUTOUT_NO_D
 10
516.5223695652162
 20
568.2070791367119
 30
0.0
  0
VERTEX
  5
90
  8
6MM_MDF_BOTTOM_CUTOUT_NO_D
 10
516.5223695652159
 20
580.2070791367112
 30
0.0
  0
VERTEX
  5
91
  8
6MM_MDF_BOTTOM_CUTOUT_NO_D
 10
469.7723695652133
 20
580.2070791367047
 30
0.0
  0
VERTEX
  5
92
  8
6MM_MDF_BOTTOM_CUTOUT_NO_D
 10
469.7723695652162
 20
568.2070791367082
 30
0.0
  0
VERTEX
  5
93
  8
6MM_MDF_BOTTOM_CUTOUT_NO_D
 10
376.2723695652062
 20
568.2070791366846
 30
0.0
  0
VERTEX
  5
94
  8
6MM_MDF_BOTTOM_CUTOUT_NO_D
 10
376.2723695652047
 20
580.2070791366828
 30
0.0
  0
VERTEX
  5
95
  8
6MM_MDF_BOTTOM_CUTOUT_NO_D
 10
329.5223695652033
 20
580.2070791366881
 30
0.0
  0
VERTEX
  5
96
  8
6MM_MDF_BOTTOM_CUTOUT_NO_D
 10
329.5223695652053
 20
568.2070791366882
 30
0.0
  0
VERTEX
  5
97
  8
6MM_MDF_BOTTOM_CUTOUT_NO_D
 10
236.0223695652064
 20
568.2070791366882
 30
0.0
  0
VERTEX
  5
98
  8
6MM_MDF_BOTTOM_CUTOUT_NO_D
 10
236.0223695652077
 20
580.2070791366883
 30
0.0
  0
VERTEX
  5
99
  8
6MM_MDF_BOTTOM_CUTOUT_NO_D
 10
142.5223695652047
 20
580.2070791366843
 30
0.0
  0
VERTEX
  5
9A
  8
6MM_MDF_BOTTOM_CUTOUT_NO_D
 10
142.5223695652094
 20
568.2070791366846
 30
0.0
  0
VERTEX
  5
9B
  8
6MM_MDF_BOTTOM_CUTOUT_NO_D
 10
75.0223695652162
 20
568.2070791366718
 30
0.0
  0
VERTEX
  5
9C
  8
6MM_MDF_BOTTOM_CUTOUT_NO_D
 10
75.02236956521632
 20
580.2070791366847
 30
0.0
  0
VERTEX
  5
9D
  8
6MM_MDF_BOTTOM_CUTOUT_NO_D
 10
55.0223695652162
 20
580.2070791366846
 30
0.0
  0
VERTEX
  5
9E
  8
6MM_MDF_BOTTOM_CUTOUT_NO_D
 10
55.02236956521429
 20
644.7070791366916
 30
0.0
  0
VERTEX
  5
9F
  8
6MM_MDF_BOTTOM_CUTOUT_NO_D
 10
43.02236956521438
 20
644.7070791366918
 30
0.0
  0
VERTEX
  5
A0
  8
6MM_MDF_BOTTOM_CUTOUT_NO_D
 10
43.02236956521642
 20
709.2070791366828
 30
0.0
  0
VERTEX
  5
A1
  8
6MM_MDF_BOTTOM_CUTOUT_NO_D
 10
55.02236956521645
 20
709.207079136683
 30
0.0
  0
VERTEX
  5
A2
  8
6MM_MDF_BOTTOM_CUTOUT_NO_D
 10
55.02236956521727
 20
793.707079136694
 30
0.0
  0
VERTEX
  5
A3
  8
6MM_MDF_BOTTOM_CUTOUT_NO_D
 10
43.02236956521722
 20
793.7070791366937
 30
0.0
  0
VERTEX
  5
A4
  8
6MM_MDF_BOTTOM_CUTOUT_NO_D
 10
43.02236956523018
 20
882.7070791366646
 30
0.0
  0
VERTEX
  5
A5
  8
6MM_MDF_BOTTOM_CUTOUT_NO_D
 10
55.02236956523019
 20
882.707079136665
 30
0.0
  0
VERTEX
  5
A6
  8
6MM_MDF_BOTTOM_CUTOUT_NO_D
 10
55.02236956522916
 20
967.2070791366762
 30
0.0
  0
VERTEX
  5
A7
  8
6MM_MDF_BOTTOM_CUTOUT_NO_D
 10
43.02236956522927
 20
967.2070791366755
 30
0.0
  0
VERTEX
  5
A8
  8
6MM_MDF_BOTTOM_CUTOUT_NO_D
 10
43.02236956522745
 20
1031.707079136666
 30
0.0
  0
VERTEX
  5
A9
  8
6MM_MDF_BOTTOM_CUTOUT_NO_D
 10
55.02236956522731
 20
1031.707079136666
 30
0.0
  0
VERTEX
  5
AA
  8
6MM_MDF_BOTTOM_CUTOUT_NO_D
 10
55.02236956522927
 20
1096.207079136672
 30
0.0
  0
VERTEX
  5
AB
  8
6MM_MDF_BOTTOM_CUTOUT_NO_D
 10
75.02236956521678
 20
1096.207079136672
 30
0.0
  0
VERTEX
  5
AC
  8
6MM_MDF_BOTTOM_CUTOUT_NO_D
 10
75.02236956521836
 20
1108.207079136685
 30
0.0
  0
VERTEX
  5
AD
  8
6MM_MDF_BOTTOM_CUTOUT_NO_D
 10
142.5223695652224
 20
1108.207079136672
 30
0.0
  0
VERTEX
  5
AE
  8
6MM_MDF_BOTTOM_CUTOUT_NO_D
 10
142.522369565219
 20
1096.207079136672
 30
0.0
  0
VERTEX
  5
AF
  8
6MM_MDF_BOTTOM_CUTOUT_NO_D
 10
236.022369565223
 20
1096.207079136669
 30
0.0
  0
VERTEX
  5
B0
  8
6MM_MDF_BOTTOM_CUTOUT_NO_D
 10
236.0223695652194
 20
1108.207079136669
 30
0.0
  0
VERTEX
  5
B1
  8
6MM_MDF_BOTTOM_CUTOUT_NO_D
 10
329.5223695652184
 20
1108.207079136669
 30
0.0
  0
VERTEX
  5
B2
  8
6MM_MDF_BOTTOM_CUTOUT_NO_D
 10
329.5223695652173
 20
1096.207079136669
 30
0.0
  0
VERTEX
  5
B3
  8
6MM_MDF_BOTTOM_CUTOUT_NO_D
 10
376.2723695652203
 20
1096.207079136676
 30
0.0
  0
VERTEX
  5
B4
  8
6MM_MDF_BOTTOM_CUTOUT_NO_D
 10
376.2723695652195
 20
1108.207079136672
 30
0.0
  0
VERTEX
  5
B5
  8
6MM_MDF_BOTTOM_CUTOUT_NO_D
 10
469.7723695652284
 20
1108.207079136695
 30
0.0
  0
VERTEX
  5
B6
  8
6MM_MDF_BOTTOM_CUTOUT_NO_D
 10
469.7723695652333
 20
1096.2070791367
 30
0.0
  0
VERTEX
  5
B7
  8
6MM_MDF_BOTTOM_CUTOUT_NO_D
 10
516.5223695652309
 20
1096.207079136693
 30
0.0
  0
VERTEX
  5
B8
  8
6MM_MDF_BOTTOM_CUTOUT_NO_D
 10
516.5223695652285
 20
1108.207079136692
 30
0.0
  0
VERTEX
  5
B9
  8
6MM_MDF_BOTTOM_CUTOUT_NO_D
 10
610.0223695652272
 20
1108.207079136692
 30
0.0
  0
VERTEX
  5
BA
  8
6MM_MDF_BOTTOM_CUTOUT_NO_D
 10
610.0223695652206
 20
1096.207079136692
 30
0.0
  0
VERTEX
  5
BB
  8
6MM_MDF_BOTTOM_CUTOUT_NO_D
 10
703.5223695652359
 20
1096.207079136696
 30
0.0
  0
VERTEX
  5
BC
  8
6MM_MDF_BOTTOM_CUTOUT_NO_D
 10
703.5223695652254
 20
1108.207079136695
 30
0.0
  0
SEQEND
  5
213
  8
6MM_MDF_BOTTOM_CUTOUT_NO_D
  0
POLYLINE
  5
6D
  8
6MM_MDF_BOTTOM_CUTOUT_NO_D
 66
     1
 10
0.0
 20
0.0
 30
0.0
 70
     1
  0
VERTEX
  5
BD
  8
6MM_MDF_BOTTOM_CUTOUT_NO_D
 10
770.717730661577
 20
559.2333260869514
 30
0.0
  0
VERTEX
  5
BE
  8
6MM_MDF_BOTTOM_CUTOUT_NO_D
 10
770.7177306615763
 20
547.2333260869227
 30
0.0
  0
VERTEX
  5
BF
  8
6MM_MDF_BOTTOM_CUTOUT_NO_D
 10
790.717730661577
 20
547.2333260869214
 30
0.0
  0
VERTEX
  5
C0
  8
6MM_MDF_BOTTOM_CUTOUT_NO_D
 10
790.7177306615779
 20
482.7333260869386
 30
0.0
  0
VERTEX
  5
C1
  8
6MM_MDF_BOTTOM_CUTOUT_NO_D
 10
802.7177306615779
 20
482.7333260869323
 30
0.0
  0
VERTEX
  5
C2
  8
6MM_MDF_BOTTOM_CUTOUT_NO_D
 10
802.717730661577
 20
418.2333260869414
 30
0.0
  0
VERTEX
  5
C3
  8
6MM_MDF_BOTTOM_CUTOUT_NO_D
 10
790.7177306615769
 20
418.2333260869323
 30
0.0
  0
VERTEX
  5
C4
  8
6MM_MDF_BOTTOM_CUTOUT_NO_D
 10
790.7177306615746
 20
333.7333260869335
 30
0.0
  0
VERTEX
  5
C5
  8
6MM_MDF_BOTTOM_CUTOUT_NO_D
 10
802.7177306615749
 20
333.7333260869302
 30
0.0
  0
VERTEX
  5
C6
  8
6MM_MDF_BOTTOM_CUTOUT_NO_D
 10
802.7177306615627
 20
244.7333260869593
 30
0.0
  0
VERTEX
  5
C7
  8
6MM_MDF_BOTTOM_CUTOUT_NO_D
 10
790.7177306615636
 20
244.7333260869589
 30
0.0
  0
VERTEX
  5
C8
  8
6MM_MDF_BOTTOM_CUTOUT_NO_D
 10
790.7177306615636
 20
160.2333260869545
 30
0.0
  0
VERTEX
  5
C9
  8
6MM_MDF_BOTTOM_CUTOUT_NO_D
 10
802.7177306615647
 20
160.2333260869475
 30
0.0
  0
VERTEX
  5
CA
  8
6MM_MDF_BOTTOM_CUTOUT_NO_D
 10
802.717730661566
 20
95.73332608695682
 30
0.0
  0
VERTEX
  5
CB
  8
6MM_MDF_BOTTOM_CUTOUT_NO_D
 10
790.7177306615657
 20
95.73332608695341
 30
0.0
  0
VERTEX
  5
CC
  8
6MM_MDF_BOTTOM_CUTOUT_NO_D
 10
790.7177306615648
 20
31.23332608695137
 30
0.0
  0
VERTEX
  5
CD
  8
6MM_MDF_BOTTOM_CUTOUT_NO_D
 10
770.7177306615748
 20
31.23332608695
 30
0.0
  0
VERTEX
  5
CE
  8
6MM_MDF_BOTTOM_CUTOUT_NO_D
 10
770.7177306615769
 20
19.23332608693681
 30
0.0
  0
VERTEX
  5
CF
  8
6MM_MDF_BOTTOM_CUTOUT_NO_D
 10
703.2177306615708
 20
19.23332608695137
 30
0.0
  0
VERTEX
  5
D0
  8
6MM_MDF_BOTTOM_CUTOUT_NO_D
 10
703.2177306615713
 20
31.23332608695125
 30
0.0
  0
VERTEX
  5
D1
  8
6MM_MDF_BOTTOM_CUTOUT_NO_D
 10
609.7177306615778
 20
31.233326086955
 30
0.0
  0
VERTEX
  5
D2
  8
6MM_MDF_BOTTOM_CUTOUT_NO_D
 10
609.7177306615738
 20
19.233326086955
 30
0.0
  0
VERTEX
  5
D3
  8
6MM_MDF_BOTTOM_CUTOUT_NO_D
 10
516.2177306615747
 20
19.233326086955
 30
0.0
  0
VERTEX
  5
D4
  8
6MM_MDF_BOTTOM_CUTOUT_NO_D
 10
516.2177306615744
 20
31.23332608695432
 30
0.0
  0
VERTEX
  5
D5
  8
6MM_MDF_BOTTOM_CUTOUT_NO_D
 10
469.4677306615718
 20
31.23332608694784
 30
0.0
  0
VERTEX
  5
D6
  8
6MM_MDF_BOTTOM_CUTOUT_NO_D
 10
469.4677306615747
 20
19.23332608695137
 30
0.0
  0
VERTEX
  5
D7
  8
6MM_MDF_BOTTOM_CUTOUT_NO_D
 10
375.9677306615648
 20
19.23332608692772
 30
0.0
  0
VERTEX
  5
D8
  8
6MM_MDF_BOTTOM_CUTOUT_NO_D
 10
375.9677306615632
 20
31.2333260869259
 30
0.0
  0
VERTEX
  5
D9
  8
6MM_MDF_BOTTOM_CUTOUT_NO_D
 10
329.2177306615619
 20
31.23332608693124
 30
0.0
  0
VERTEX
  5
DA
  8
6MM_MDF_BOTTOM_CUTOUT_NO_D
 10
329.2177306615638
 20
19.23332608693136
 30
0.0
  0
VERTEX
  5
DB
  8
6MM_MDF_BOTTOM_CUTOUT_NO_D
 10
235.7177306615649
 20
19.23332608693136
 30
0.0
  0
VERTEX
  5
DC
  8
6MM_MDF_BOTTOM_CUTOUT_NO_D
 10
235.7177306615662
 20
31.23332608693147
 30
0.0
  0
VERTEX
  5
DD
  8
6MM_MDF_BOTTOM_CUTOUT_NO_D
 10
142.2177306615632
 20
31.23332608692749
 30
0.0
  0
VERTEX
  5
DE
  8
6MM_MDF_BOTTOM_CUTOUT_NO_D
 10
142.2177306615679
 20
19.23332608692772
 30
0.0
  0
VERTEX
  5
DF
  8
6MM_MDF_BOTTOM_CUTOUT_NO_D
 10
74.7177306615747
 20
19.23332608691499
 30
0.0
  0
VERTEX
  5
E0
  8
6MM_MDF_BOTTOM_CUTOUT_NO_D
 10
74.71773066157483
 20
31.23332608692783
 30
0.0
  0
VERTEX
  5
E1
  8
6MM_MDF_BOTTOM_CUTOUT_NO_D
 10
54.71773066157471
 20
31.23332608692772
 30
0.0
  0
VERTEX
  5
E2
  8
6MM_MDF_BOTTOM_CUTOUT_NO_D
 10
54.7177306615728
 20
95.73332608693477
 30
0.0
  0
VERTEX
  5
E3
  8
6MM_MDF_BOTTOM_CUTOUT_NO_D
 10
42.71773066157289
 20
95.733326086935
 30
0.0
  0
VERTEX
  5
E4
  8
6MM_MDF_BOTTOM_CUTOUT_NO_D
 10
42.71773066157493
 20
160.2333260869259
 30
0.0
  0
VERTEX
  5
E5
  8
6MM_MDF_BOTTOM_CUTOUT_NO_D
 10
54.71773066157496
 20
160.2333260869261
 30
0.0
  0
VERTEX
  5
E6
  8
6MM_MDF_BOTTOM_CUTOUT_NO_D
 10
54.71773066157578
 20
244.7333260869372
 30
0.0
  0
VERTEX
  5
E7
  8
6MM_MDF_BOTTOM_CUTOUT_NO_D
 10
42.71773066157573
 20
244.7333260869368
 30
0.0
  0
VERTEX
  5
E8
  8
6MM_MDF_BOTTOM_CUTOUT_NO_D
 10
42.71773066158869
 20
333.7333260869077
 30
0.0
  0
VERTEX
  5
E9
  8
6MM_MDF_BOTTOM_CUTOUT_NO_D
 10
54.7177306615887
 20
333.7333260869082
 30
0.0
  0
VERTEX
  5
EA
  8
6MM_MDF_BOTTOM_CUTOUT_NO_D
 10
54.71773066158767
 20
418.2333260869193
 30
0.0
  0
VERTEX
  5
EB
  8
6MM_MDF_BOTTOM_CUTOUT_NO_D
 10
42.71773066158778
 20
418.2333260869186
 30
0.0
  0
VERTEX
  5
EC
  8
6MM_MDF_BOTTOM_CUTOUT_NO_D
 10
42.71773066158596
 20
482.7333260869095
 30
0.0
  0
VERTEX
  5
ED
  8
6MM_MDF_BOTTOM_CUTOUT_NO_D
 10
54.71773066158582
 20
482.7333260869095
 30
0.0
  0
VERTEX
  5
EE
  8
6MM_MDF_BOTTOM_CUTOUT_NO_D
 10
54.71773066158778
 20
547.233326086915
 30
0.0
  0
VERTEX
  5
EF
  8
6MM_MDF_BOTTOM_CUTOUT_NO_D
 10
74.71773066157529
 20
547.233326086915
 30
0.0
  0
VERTEX
  5
F0
  8
6MM_MDF_BOTTOM_CUTOUT_NO_D
 10
74.71773066157687
 20
559.2333260869277
 30
0.0
  0
VERTEX
  5
F1
  8
6MM_MDF_BOTTOM_CUTOUT_NO_D
 10
142.217730661581
 20
559.233326086915
 30
0.0
  0
VERTEX
  5
F2
  8
6MM_MDF_BOTTOM_CUTOUT_NO_D
 10
142.2177306615775
 20
547.2333260869154
 30
0.0
  0
VERTEX
  5
F3
  8
6MM_MDF_BOTTOM_CUTOUT_NO_D
 10
235.7177306615815
 20
547.2333260869123
 30
0.0
  0
VERTEX
  5
F4
  8
6MM_MDF_BOTTOM_CUTOUT_NO_D
 10
235.7177306615779
 20
559.2333260869123
 30
0.0
  0
VERTEX
  5
F5
  8
6MM_MDF_BOTTOM_CUTOUT_NO_D
 10
329.2177306615769
 20
559.2333260869123
 30
0.0
  0
VERTEX
  5
F6
  8
6MM_MDF_BOTTOM_CUTOUT_NO_D
 10
329.2177306615758
 20
547.2333260869123
 30
0.0
  0
VERTEX
  5
F7
  8
6MM_MDF_BOTTOM_CUTOUT_NO_D
 10
375.9677306615789
 20
547.2333260869189
 30
0.0
  0
VERTEX
  5
F8
  8
6MM_MDF_BOTTOM_CUTOUT_NO_D
 10
375.9677306615781
 20
559.233326086915
 30
0.0
  0
VERTEX
  5
F9
  8
6MM_MDF_BOTTOM_CUTOUT_NO_D
 10
469.4677306615869
 20
559.2333260869386
 30
0.0
  0
VERTEX
  5
FA
  8
6MM_MDF_BOTTOM_CUTOUT_NO_D
 10
469.4677306615918
 20
547.2333260869427
 30
0.0
  0
VERTEX
  5
FB
  8
6MM_MDF_BOTTOM_CUTOUT_NO_D
 10
516.2177306615894
 20
547.2333260869359
 30
0.0
  0
VERTEX
  5
FC
  8
6MM_MDF_BOTTOM_CUTOUT_NO_D
 10
516.217730661587
 20
559.233326086935
 30
0.0
  0
VERTEX
  5
FD
  8
6MM_MDF_BOTTOM_CUTOUT_NO_D
 10
609.7177306615857
 20
559.233326086935
 30
0.0
  0
VERTEX
  5
FE
  8
6MM_MDF_BOTTOM_CUTOUT_NO_D
 10
609.7177306615791
 20
547.2333260869352
 30
0.0
  0
VERTEX
  5
FF
  8
6MM_MDF_BOTTOM_CUTOUT_NO_D
 10
703.2177306615944
 20
547.2333260869391
 30
0.0
  0
VERTEX
  5
100
  8
6MM_MDF_BOTTOM_CUTOUT_NO_D
 10
703.2177306615839
 20
559.2333260869386
 30
0.0
  0
SEQEND
  5
214
  8
6MM_MDF_BOTTOM_CUTOUT_NO_D
  0
POLYLINE
  5
6E
  8
6MM_MDF_BOTTOM_CUTOUT_NO_D
 66
     1
 10
0.0
 20
0.0
 30
0.0
 70
     1
  0
VERTEX
  5
101
  8
6MM_MDF_BOTTOM_CUTOUT_NO_D
 10
1538.58785611511
 20
559.2333260869741
 30
0.0
  0
VERTEX
  5
102
  8
6MM_MDF_BOTTOM_CUTOUT_NO_D
 10
1538.587856115109
 20
547.2333260869455
 30
0.0
  0
VERTEX
  5
103
  8
6MM_MDF_BOTTOM_CUTOUT_NO_D
 10
1558.58785611511
 20
547.2333260869441
 30
0.0
  0
VERTEX
  5
104
  8
6MM_MDF_BOTTOM_CUTOUT_NO_D
 10
1558.587856115111
 20
482.7333260869614
 30
0.0
  0
VERTEX
  5
105
  8
6MM_MDF_BOTTOM_CUTOUT_NO_D
 10
1570.587856115111
 20
482.733326086955
 30
0.0
  0
VERTEX
  5
106
  8
6MM_MDF_BOTTOM_CUTOUT_NO_D
 10
1570.58785611511
 20
418.2333260869641
 30
0.0
  0
VERTEX
  5
107
  8
6MM_MDF_BOTTOM_CUTOUT_NO_D
 10
1558.587856115109
 20
418.233326086955
 30
0.0
  0
VERTEX
  5
108
  8
6MM_MDF_BOTTOM_CUTOUT_NO_D
 10
1558.587856115107
 20
333.7333260869563
 30
0.0
  0
VERTEX
  5
109
  8
6MM_MDF_BOTTOM_CUTOUT_NO_D
 10
1570.587856115107
 20
333.733326086953
 30
0.0
  0
VERTEX
  5
10A
  8
6MM_MDF_BOTTOM_CUTOUT_NO_D
 10
1570.587856115095
 20
244.7333260869821
 30
0.0
  0
VERTEX
  5
10B
  8
6MM_MDF_BOTTOM_CUTOUT_NO_D
 10
1558.587856115096
 20
244.7333260869816
 30
0.0
  0
VERTEX
  5
10C
  8
6MM_MDF_BOTTOM_CUTOUT_NO_D
 10
1558.587856115096
 20
160.2333260869773
 30
0.0
  0
VERTEX
  5
10D
  8
6MM_MDF_BOTTOM_CUTOUT_NO_D
 10
1570.587856115097
 20
160.2333260869702
 30
0.0
  0
VERTEX
  5
10E
  8
6MM_MDF_BOTTOM_CUTOUT_NO_D
 10
1570.587856115098
 20
95.73332608697956
 30
0.0
  0
VERTEX
  5
10F
  8
6MM_MDF_BOTTOM_CUTOUT_NO_D
 10
1558.587856115098
 20
95.73332608697615
 30
0.0
  0
VERTEX
  5
110
  8
6MM_MDF_BOTTOM_CUTOUT_NO_D
 10
1558.587856115097
 20
31.2333260869741
 30
0.0
  0
VERTEX
  5
111
  8
6MM_MDF_BOTTOM_CUTOUT_NO_D
 10
1538.587856115107
 20
31.23332608697274
 30
0.0
  0
VERTEX
  5
112
  8
6MM_MDF_BOTTOM_CUTOUT_NO_D
 10
1538.587856115109
 20
19.23332608695955
 30
0.0
  0
VERTEX
  5
113
  8
6MM_MDF_BOTTOM_CUTOUT_NO_D
 10
1471.087856115103
 20
19.2333260869741
 30
0.0
  0
VERTEX
  5
114
  8
6MM_MDF_BOTTOM_CUTOUT_NO_D
 10
1471.087856115104
 20
31.23332608697399
 30
0.0
  0
VERTEX
  5
115
  8
6MM_MDF_BOTTOM_CUTOUT_NO_D
 10
1377.58785611511
 20
31.23332608697774
 30
0.0
  0
VERTEX
  5
116
  8
6MM_MDF_BOTTOM_CUTOUT_NO_D
 10
1377.587856115106
 20
19.23332608697774
 30
0.0
  0
VERTEX
  5
117
  8
6MM_MDF_BOTTOM_CUTOUT_NO_D
 10
1284.087856115107
 20
19.23332608697774
 30
0.0
  0
VERTEX
  5
118
  8
6MM_MDF_BOTTOM_CUTOUT_NO_D
 10
1284.087856115107
 20
31.23332608697706
 30
0.0
  0
VERTEX
  5
119
  8
6MM_MDF_BOTTOM_CUTOUT_NO_D
 10
1237.337856115104
 20
31.23332608697058
 30
0.0
  0
VERTEX
  5
11A
  8
6MM_MDF_BOTTOM_CUTOUT_NO_D
 10
1237.337856115107
 20
19.2333260869741
 30
0.0
  0
VERTEX
  5
11B
  8
6MM_MDF_BOTTOM_CUTOUT_NO_D
 10
1143.837856115097
 20
19.23332608695046
 30
0.0
  0
VERTEX
  5
11C
  8
6MM_MDF_BOTTOM_CUTOUT_NO_D
 10
1143.837856115096
 20
31.23332608694864
 30
0.0
  0
VERTEX
  5
11D
  8
6MM_MDF_BOTTOM_CUTOUT_NO_D
 10
1097.087856115094
 20
31.23332608695398
 30
0.0
  0
VERTEX
  5
11E
  8
6MM_MDF_BOTTOM_CUTOUT_NO_D
 10
1097.087856115096
 20
19.23332608695409
 30
0.0
  0
VERTEX
  5
11F
  8
6MM_MDF_BOTTOM_CUTOUT_NO_D
 10
1003.587856115097
 20
19.23332608695409
 30
0.0
  0
VERTEX
  5
120
  8
6MM_MDF_BOTTOM_CUTOUT_NO_D
 10
1003.587856115099
 20
31.23332608695421
 30
0.0
  0
VERTEX
  5
121
  8
6MM_MDF_BOTTOM_CUTOUT_NO_D
 10
910.0878561150957
 20
31.23332608695023
 30
0.0
  0
VERTEX
  5
122
  8
6MM_MDF_BOTTOM_CUTOUT_NO_D
 10
910.0878561151004
 20
19.23332608695046
 30
0.0
  0
VERTEX
  5
123
  8
6MM_MDF_BOTTOM_CUTOUT_NO_D
 10
842.5878561151072
 20
19.23332608693772
 30
0.0
  0
VERTEX
  5
124
  8
6MM_MDF_BOTTOM_CUTOUT_NO_D
 10
842.5878561151073
 20
31.23332608695057
 30
0.0
  0
VERTEX
  5
125
  8
6MM_MDF_BOTTOM_CUTOUT_NO_D
 10
822.5878561151072
 20
31.23332608695046
 30
0.0
  0
VERTEX
  5
126
  8
6MM_MDF_BOTTOM_CUTOUT_NO_D
 10
822.5878561151053
 20
95.7333260869575
 30
0.0
  0
VERTEX
  5
127
  8
6MM_MDF_BOTTOM_CUTOUT_NO_D
 10
810.5878561151054
 20
95.73332608695773
 30
0.0
  0
VERTEX
  5
128
  8
6MM_MDF_BOTTOM_CUTOUT_NO_D
 10
810.5878561151075
 20
160.2333260869486
 30
0.0
  0
VERTEX
  5
129
  8
6MM_MDF_BOTTOM_CUTOUT_NO_D
 10
822.5878561151075
 20
160.2333260869489
 30
0.0
  0
VERTEX
  5
12A
  8
6MM_MDF_BOTTOM_CUTOUT_NO_D
 10
822.5878561151083
 20
244.7333260869599
 30
0.0
  0
VERTEX
  5
12B
  8
6MM_MDF_BOTTOM_CUTOUT_NO_D
 10
810.5878561151083
 20
244.7333260869596
 30
0.0
  0
VERTEX
  5
12C
  8
6MM_MDF_BOTTOM_CUTOUT_NO_D
 10
810.5878561151212
 20
333.7333260869304
 30
0.0
  0
VERTEX
  5
12D
  8
6MM_MDF_BOTTOM_CUTOUT_NO_D
 10
822.5878561151212
 20
333.7333260869309
 30
0.0
  0
VERTEX
  5
12E
  8
6MM_MDF_BOTTOM_CUTOUT_NO_D
 10
822.5878561151202
 20
418.233326086942
 30
0.0
  0
VERTEX
  5
12F
  8
6MM_MDF_BOTTOM_CUTOUT_NO_D
 10
810.5878561151203
 20
418.2333260869414
 30
0.0
  0
VERTEX
  5
130
  8
6MM_MDF_BOTTOM_CUTOUT_NO_D
 10
810.5878561151185
 20
482.7333260869323
 30
0.0
  0
VERTEX
  5
131
  8
6MM_MDF_BOTTOM_CUTOUT_NO_D
 10
822.5878561151184
 20
482.7333260869323
 30
0.0
  0
VERTEX
  5
132
  8
6MM_MDF_BOTTOM_CUTOUT_NO_D
 10
822.5878561151203
 20
547.2333260869377
 30
0.0
  0
VERTEX
  5
133
  8
6MM_MDF_BOTTOM_CUTOUT_NO_D
 10
842.5878561151078
 20
547.2333260869377
 30
0.0
  0
VERTEX
  5
134
  8
6MM_MDF_BOTTOM_CUTOUT_NO_D
 10
842.5878561151094
 20
559.2333260869505
 30
0.0
  0
VERTEX
  5
135
  8
6MM_MDF_BOTTOM_CUTOUT_NO_D
 10
910.0878561151135
 20
559.2333260869377
 30
0.0
  0
VERTEX
  5
136
  8
6MM_MDF_BOTTOM_CUTOUT_NO_D
 10
910.0878561151101
 20
547.2333260869382
 30
0.0
  0
VERTEX
  5
137
  8
6MM_MDF_BOTTOM_CUTOUT_NO_D
 10
1003.587856115114
 20
547.233326086935
 30
0.0
  0
VERTEX
  5
138
  8
6MM_MDF_BOTTOM_CUTOUT_NO_D
 10
1003.587856115111
 20
559.233326086935
 30
0.0
  0
VERTEX
  5
139
  8
6MM_MDF_BOTTOM_CUTOUT_NO_D
 10
1097.087856115109
 20
559.233326086935
 30
0.0
  0
VERTEX
  5
13A
  8
6MM_MDF_BOTTOM_CUTOUT_NO_D
 10
1097.087856115108
 20
547.233326086935
 30
0.0
  0
VERTEX
  5
13B
  8
6MM_MDF_BOTTOM_CUTOUT_NO_D
 10
1143.837856115111
 20
547.2333260869416
 30
0.0
  0
VERTEX
  5
13C
  8
6MM_MDF_BOTTOM_CUTOUT_NO_D
 10
1143.837856115111
 20
559.2333260869377
 30
0.0
  0
VERTEX
  5
13D
  8
6MM_MDF_BOTTOM_CUTOUT_NO_D
 10
1237.337856115119
 20
559.2333260869614
 30
0.0
  0
VERTEX
  5
13E
  8
6MM_MDF_BOTTOM_CUTOUT_NO_D
 10
1237.337856115124
 20
547.2333260869655
 30
0.0
  0
VERTEX
  5
13F
  8
6MM_MDF_BOTTOM_CUTOUT_NO_D
 10
1284.087856115122
 20
547.2333260869586
 30
0.0
  0
VERTEX
  5
140
  8
6MM_MDF_BOTTOM_CUTOUT_NO_D
 10
1284.08785611512
 20
559.2333260869577
 30
0.0
  0
VERTEX
  5
141
  8
6MM_MDF_BOTTOM_CUTOUT_NO_D
 10
1377.587856115118
 20
559.2333260869577
 30
0.0
  0
VERTEX
  5
142
  8
6MM_MDF_BOTTOM_CUTOUT_NO_D
 10
1377.587856115112
 20
547.233326086958
 30
0.0
  0
VERTEX
  5
143
  8
6MM_MDF_BOTTOM_CUTOUT_NO_D
 10
1471.087856115127
 20
547.2333260869618
 30
0.0
  0
VERTEX
  5
144
  8
6MM_MDF_BOTTOM_CUTOUT_NO_D
 10
1471.087856115116
 20
559.2333260869614
 30
0.0
  0
SEQEND
  5
215
  8
6MM_MDF_BOTTOM_CUTOUT_NO_D
  0
POLYLINE
  5
6F
  8
6MM_MDF_BOTTOM_CUTOUT_NO_D
 66
     1
 10
0.0
 20
0.0
 30
0.0
 70
     1
  0
VERTEX
  5
145
  8
6MM_MDF_BOTTOM_CUTOUT_NO_D
 10
1538.587856115109
 20
1108.207079136708
 30
0.0
  0
VERTEX
  5
146
  8
6MM_MDF_BOTTOM_CUTOUT_NO_D
 10
1538.587856115109
 20
1096.207079136679
 30
0.0
  0
VERTEX
  5
147
  8
6MM_MDF_BOTTOM_CUTOUT_NO_D
 10
1558.587856115109
 20
1096.207079136678
 30
0.0
  0
VERTEX
  5
148
  8
6MM_MDF_BOTTOM_CUTOUT_NO_D
 10
1558.58785611511
 20
1031.707079136695
 30
0.0
  0
VERTEX
  5
149
  8
6MM_MDF_BOTTOM_CUTOUT_NO_D
 10
1570.58785611511
 20
1031.707079136689
 30
0.0
  0
VERTEX
  5
14A
  8
6MM_MDF_BOTTOM_CUTOUT_NO_D
 10
1570.587856115109
 20
967.2070791366978
 30
0.0
  0
VERTEX
  5
14B
  8
6MM_MDF_BOTTOM_CUTOUT_NO_D
 10
1558.587856115109
 20
967.2070791366887
 30
0.0
  0
VERTEX
  5
14C
  8
6MM_MDF_BOTTOM_CUTOUT_NO_D
 10
1558.587856115107
 20
882.7070791366899
 30
0.0
  0
VERTEX
  5
14D
  8
6MM_MDF_BOTTOM_CUTOUT_NO_D
 10
1570.587856115108
 20
882.7070791366866
 30
0.0
  0
VERTEX
  5
14E
  8
6MM_MDF_BOTTOM_CUTOUT_NO_D
 10
1570.587856115095
 20
793.7070791367157
 30
0.0
  0
VERTEX
  5
14F
  8
6MM_MDF_BOTTOM_CUTOUT_NO_D
 10
1558.587856115096
 20
793.7070791367153
 30
0.0
  0
VERTEX
  5
150
  8
6MM_MDF_BOTTOM_CUTOUT_NO_D
 10
1558.587856115096
 20
709.207079136711
 30
0.0
  0
VERTEX
  5
151
  8
6MM_MDF_BOTTOM_CUTOUT_NO_D
 10
1570.587856115097
 20
709.2070791367039
 30
0.0
  0
VERTEX
  5
152
  8
6MM_MDF_BOTTOM_CUTOUT_NO_D
 10
1570.587856115098
 20
644.7070791367132
 30
0.0
  0
VERTEX
  5
153
  8
6MM_MDF_BOTTOM_CUTOUT_NO_D
 10
1558.587856115098
 20
644.7070791367098
 30
0.0
  0
VERTEX
  5
154
  8
6MM_MDF_BOTTOM_CUTOUT_NO_D
 10
1558.587856115097
 20
580.2070791367078
 30
0.0
  0
VERTEX
  5
155
  8
6MM_MDF_BOTTOM_CUTOUT_NO_D
 10
1538.587856115107
 20
580.2070791367064
 30
0.0
  0
VERTEX
  5
156
  8
6MM_MDF_BOTTOM_CUTOUT_NO_D
 10
1538.587856115109
 20
568.2070791366932
 30
0.0
  0
VERTEX
  5
157
  8
6MM_MDF_BOTTOM_CUTOUT_NO_D
 10
1471.087856115103
 20
568.2070791367078
 30
0.0
  0
VERTEX
  5
158
  8
6MM_MDF_BOTTOM_CUTOUT_NO_D
 10
1471.087856115104
 20
580.2070791367076
 30
0.0
  0
VERTEX
  5
159
  8
6MM_MDF_BOTTOM_CUTOUT_NO_D
 10
1377.58785611511
 20
580.2070791367114
 30
0.0
  0
VERTEX
  5
15A
  8
6MM_MDF_BOTTOM_CUTOUT_NO_D
 10
1377.587856115106
 20
568.2070791367114
 30
0.0
  0
VERTEX
  5
15B
  8
6MM_MDF_BOTTOM_CUTOUT_NO_D
 10
1284.087856115107
 20
568.2070791367114
 30
0.0
  0
VERTEX
  5
15C
  8
6MM_MDF_BOTTOM_CUTOUT_NO_D
 10
1284.087856115107
 20
580.2070791367107
 30
0.0
  0
VERTEX
  5
15D
  8
6MM_MDF_BOTTOM_CUTOUT_NO_D
 10
1237.337856115104
 20
580.2070791367042
 30
0.0
  0
VERTEX
  5
15E
  8
6MM_MDF_BOTTOM_CUTOUT_NO_D
 10
1237.337856115107
 20
568.2070791367078
 30
0.0
  0
VERTEX
  5
15F
  8
6MM_MDF_BOTTOM_CUTOUT_NO_D
 10
1143.837856115097
 20
568.2070791366841
 30
0.0
  0
VERTEX
  5
160
  8
6MM_MDF_BOTTOM_CUTOUT_NO_D
 10
1143.837856115096
 20
580.2070791366823
 30
0.0
  0
VERTEX
  5
161
  8
6MM_MDF_BOTTOM_CUTOUT_NO_D
 10
1097.087856115094
 20
580.2070791366876
 30
0.0
  0
VERTEX
  5
162
  8
6MM_MDF_BOTTOM_CUTOUT_NO_D
 10
1097.087856115096
 20
568.2070791366878
 30
0.0
  0
VERTEX
  5
163
  8
6MM_MDF_BOTTOM_CUTOUT_NO_D
 10
1003.587856115097
 20
568.2070791366878
 30
0.0
  0
VERTEX
  5
164
  8
6MM_MDF_BOTTOM_CUTOUT_NO_D
 10
1003.587856115099
 20
580.2070791366879
 30
0.0
  0
VERTEX
  5
165
  8
6MM_MDF_BOTTOM_CUTOUT_NO_D
 10
910.0878561150957
 20
580.2070791366839
 30
0.0
  0
VERTEX
  5
166
  8
6MM_MDF_BOTTOM_CUTOUT_NO_D
 10
910.0878561151004
 20
568.2070791366841
 30
0.0
  0
VERTEX
  5
167
  8
6MM_MDF_BOTTOM_CUTOUT_NO_D
 10
842.5878561151072
 20
568.2070791366714
 30
0.0
  0
VERTEX
  5
168
  8
6MM_MDF_BOTTOM_CUTOUT_NO_D
 10
842.5878561151073
 20
580.2070791366842
 30
0.0
  0
VERTEX
  5
169
  8
6MM_MDF_BOTTOM_CUTOUT_NO_D
 10
822.5878561151072
 20
580.2070791366841
 30
0.0
  0
VERTEX
  5
16A
  8
6MM_MDF_BOTTOM_CUTOUT_NO_D
 10
822.5878561151053
 20
644.7070791366912
 30
0.0
  0
VERTEX
  5
16B
  8
6MM_MDF_BOTTOM_CUTOUT_NO_D
 10
810.5878561151054
 20
644.7070791366914
 30
0.0
  0
VERTEX
  5
16C
  8
6MM_MDF_BOTTOM_CUTOUT_NO_D
 10
810.5878561151075
 20
709.2070791366823
 30
0.0
  0
VERTEX
  5
16D
  8
6MM_MDF_BOTTOM_CUTOUT_NO_D
 10
822.5878561151075
 20
709.2070791366825
 30
0.0
  0
VERTEX
  5
16E
  8
6MM_MDF_BOTTOM_CUTOUT_NO_D
 10
822.5878561151083
 20
793.7070791366936
 30
0.0
  0
VERTEX
  5
16F
  8
6MM_MDF_BOTTOM_CUTOUT_NO_D
 10
810.5878561151083
 20
793.7070791366932
 30
0.0
  0
VERTEX
  5
170
  8
6MM_MDF_BOTTOM_CUTOUT_NO_D
 10
810.5878561151212
 20
882.7070791366641
 30
0.0
  0
VERTEX
  5
171
  8
6MM_MDF_BOTTOM_CUTOUT_NO_D
 10
822.5878561151212
 20
882.7070791366646
 30
0.0
  0
VERTEX
  5
172
  8
6MM_MDF_BOTTOM_CUTOUT_NO_D
 10
822.5878561151202
 20
967.2070791366757
 30
0.0
  0
VERTEX
  5
173
  8
6MM_MDF_BOTTOM_CUTOUT_NO_D
 10
810.5878561151203
 20
967.207079136675
 30
0.0
  0
VERTEX
  5
174
  8
6MM_MDF_BOTTOM_CUTOUT_NO_D
 10
810.5878561151185
 20
1031.707079136666
 30
0.0
  0
VERTEX
  5
175
  8
6MM_MDF_BOTTOM_CUTOUT_NO_D
 10
822.5878561151184
 20
1031.707079136666
 30
0.0
  0
VERTEX
  5
176
  8
6MM_MDF_BOTTOM_CUTOUT_NO_D
 10
822.5878561151203
 20
1096.207079136671
 30
0.0
  0
VERTEX
  5
177
  8
6MM_MDF_BOTTOM_CUTOUT_NO_D
 10
842.5878561151078
 20
1096.207079136671
 30
0.0
  0
VERTEX
  5
178
  8
6MM_MDF_BOTTOM_CUTOUT_NO_D
 10
842.5878561151094
 20
1108.207079136684
 30
0.0
  0
VERTEX
  5
179
  8
6MM_MDF_BOTTOM_CUTOUT_NO_D
 10
910.0878561151135
 20
1108.207079136671
 30
0.0
  0
VERTEX
  5
17A
  8
6MM_MDF_BOTTOM_CUTOUT_NO_D
 10
910.0878561151101
 20
1096.207079136672
 30
0.0
  0
VERTEX
  5
17B
  8
6MM_MDF_BOTTOM_CUTOUT_NO_D
 10
1003.587856115114
 20
1096.207079136669
 30
0.0
  0
VERTEX
  5
17C
  8
6MM_MDF_BOTTOM_CUTOUT_NO_D
 10
1003.587856115111
 20
1108.207079136669
 30
0.0
  0
VERTEX
  5
17D
  8
6MM_MDF_BOTTOM_CUTOUT_NO_D
 10
1097.087856115109
 20
1108.207079136669
 30
0.0
  0
VERTEX
  5
17E
  8
6MM_MDF_BOTTOM_CUTOUT_NO_D
 10
1097.087856115108
 20
1096.207079136669
 30
0.0
  0
VERTEX
  5
17F
  8
6MM_MDF_BOTTOM_CUTOUT_NO_D
 10
1143.837856115111
 20
1096.207079136675
 30
0.0
  0
VERTEX
  5
180
  8
6MM_MDF_BOTTOM_CUTOUT_NO_D
 10
1143.837856115111
 20
1108.207079136671
 30
0.0
  0
VERTEX
  5
181
  8
6MM_MDF_BOTTOM_CUTOUT_NO_D
 10
1237.337856115119
 20
1108.207079136695
 30
0.0
  0
VERTEX
  5
182
  8
6MM_MDF_BOTTOM_CUTOUT_NO_D
 10
1237.337856115124
 20
1096.207079136699
 30
0.0
  0
VERTEX
  5
183
  8
6MM_MDF_BOTTOM_CUTOUT_NO_D
 10
1284.087856115122
 20
1096.207079136692
 30
0.0
  0
VERTEX
  5
184
  8
6MM_MDF_BOTTOM_CUTOUT_NO_D
 10
1284.087856115119
 20
1108.207079136691
 30
0.0
  0
VERTEX
  5
185
  8
6MM_MDF_BOTTOM_CUTOUT_NO_D
 10
1377.587856115118
 20
1108.207079136691
 30
0.0
  0
VERTEX
  5
186
  8
6MM_MDF_BOTTOM_CUTOUT_NO_D
 10
1377.587856115112
 20
1096.207079136692
 30
0.0
  0
VERTEX
  5
187
  8
6MM_MDF_BOTTOM_CUTOUT_NO_D
 10
1471.087856115127
 20
1096.207079136695
 30
0.0
  0
VERTEX
  5
188
  8
6MM_MDF_BOTTOM_CUTOUT_NO_D
 10
1471.087856115116
 20
1108.207079136695
 30
0.0
  0
SEQEND
  5
216
  8
6MM_MDF_BOTTOM_CUTOUT_NO_D
  0
POLYLINE
  5
70
  8
6MM_MDF_BOTTOM_CUTOUT_NO_D
 66
     1
 10
0.0
 20
0.0
 30
0.0
 70
     1
  0
VERTEX
  5
189
  8
6MM_MDF_BOTTOM_CUTOUT_NO_D
 10
2312.265553956837
 20
559.2333260869746
 30
0.0
  0
VERTEX
  5
18A
  8
6MM_MDF_BOTTOM_CUTOUT_NO_D
 10
2312.265553956836
 20
547.2333260869459
 30
0.0
  0
VERTEX
  5
18B
  8
6MM_MDF_BOTTOM_CUTOUT_NO_D
 10
2332.265553956837
 20
547.2333260869445
 30
0.0
  0
VERTEX
  5
18C
  8
6MM_MDF_BOTTOM_CUTOUT_NO_D
 10
2332.265553956838
 20
482.7333260869618
 30
0.0
  0
VERTEX
  5
18D
  8
6MM_MDF_BOTTOM_CUTOUT_NO_D
 10
2344.265553956838
 20
482.7333260869555
 30
0.0
  0
VERTEX
  5
18E
  8
6MM_MDF_BOTTOM_CUTOUT_NO_D
 10
2344.265553956837
 20
418.2333260869646
 30
0.0
  0
VERTEX
  5
18F
  8
6MM_MDF_BOTTOM_CUTOUT_NO_D
 10
2332.265553956837
 20
418.2333260869555
 30
0.0
  0
VERTEX
  5
190
  8
6MM_MDF_BOTTOM_CUTOUT_NO_D
 10
2332.265553956834
 20
333.7333260869567
 30
0.0
  0
VERTEX
  5
191
  8
6MM_MDF_BOTTOM_CUTOUT_NO_D
 10
2344.265553956835
 20
333.7333260869534
 30
0.0
  0
VERTEX
  5
192
  8
6MM_MDF_BOTTOM_CUTOUT_NO_D
 10
2344.265553956822
 20
244.7333260869825
 30
0.0
  0
VERTEX
  5
193
  8
6MM_MDF_BOTTOM_CUTOUT_NO_D
 10
2332.265553956823
 20
244.7333260869821
 30
0.0
  0
VERTEX
  5
194
  8
6MM_MDF_BOTTOM_CUTOUT_NO_D
 10
2332.265553956823
 20
160.2333260869777
 30
0.0
  0
VERTEX
  5
195
  8
6MM_MDF_BOTTOM_CUTOUT_NO_D
 10
2344.265553956825
 20
160.2333260869707
 30
0.0
  0
VERTEX
  5
196
  8
6MM_MDF_BOTTOM_CUTOUT_NO_D
 10
2344.265553956826
 20
95.73332608698001
 30
0.0
  0
VERTEX
  5
197
  8
6MM_MDF_BOTTOM_CUTOUT_NO_D
 10
2332.265553956825
 20
95.7333260869766
 30
0.0
  0
VERTEX
  5
198
  8
6MM_MDF_BOTTOM_CUTOUT_NO_D
 10
2332.265553956825
 20
31.23332608697456
 30
0.0
  0
VERTEX
  5
199
  8
6MM_MDF_BOTTOM_CUTOUT_NO_D
 10
2312.265553956835
 20
31.23332608697319
 30
0.0
  0
VERTEX
  5
19A
  8
6MM_MDF_BOTTOM_CUTOUT_NO_D
 10
2312.265553956837
 20
19.23332608696001
 30
0.0
  0
VERTEX
  5
19B
  8
6MM_MDF_BOTTOM_CUTOUT_NO_D
 10
2244.76555395683
 20
19.23332608697456
 30
0.0
  0
VERTEX
  5
19C
  8
6MM_MDF_BOTTOM_CUTOUT_NO_D
 10
2244.765553956831
 20
31.23332608697444
 30
0.0
  0
VERTEX
  5
19D
  8
6MM_MDF_BOTTOM_CUTOUT_NO_D
 10
2151.265553956838
 20
31.2333260869782
 30
0.0
  0
VERTEX
  5
19E
  8
6MM_MDF_BOTTOM_CUTOUT_NO_D
 10
2151.265553956834
 20
19.2333260869782
 30
0.0
  0
VERTEX
  5
19F
  8
6MM_MDF_BOTTOM_CUTOUT_NO_D
 10
2057.765553956835
 20
19.2333260869782
 30
0.0
  0
VERTEX
  5
1A0
  8
6MM_MDF_BOTTOM_CUTOUT_NO_D
 10
2057.765553956834
 20
31.23332608697751
 30
0.0
  0
VERTEX
  5
1A1
  8
6MM_MDF_BOTTOM_CUTOUT_NO_D
 10
2011.015553956832
 20
31.23332608697103
 30
0.0
  0
VERTEX
  5
1A2
  8
6MM_MDF_BOTTOM_CUTOUT_NO_D
 10
2011.015553956835
 20
19.23332608697456
 30
0.0
  0
VERTEX
  5
1A3
  8
6MM_MDF_BOTTOM_CUTOUT_NO_D
 10
1917.515553956825
 20
19.23332608695091
 30
0.0
  0
VERTEX
  5
1A4
  8
6MM_MDF_BOTTOM_CUTOUT_NO_D
 10
1917.515553956823
 20
31.23332608694909
 30
0.0
  0
VERTEX
  5
1A5
  8
6MM_MDF_BOTTOM_CUTOUT_NO_D
 10
1870.765553956822
 20
31.23332608695443
 30
0.0
  0
VERTEX
  5
1A6
  8
6MM_MDF_BOTTOM_CUTOUT_NO_D
 10
1870.765553956824
 20
19.23332608695455
 30
0.0
  0
VERTEX
  5
1A7
  8
6MM_MDF_BOTTOM_CUTOUT_NO_D
 10
1777.265553956825
 20
19.23332608695455
 30
0.0
  0
VERTEX
  5
1A8
  8
6MM_MDF_BOTTOM_CUTOUT_NO_D
 10
1777.265553956826
 20
31.23332608695466
 30
0.0
  0
VERTEX
  5
1A9
  8
6MM_MDF_BOTTOM_CUTOUT_NO_D
 10
1683.765553956823
 20
31.23332608695068
 30
0.0
  0
VERTEX
  5
1AA
  8
6MM_MDF_BOTTOM_CUTOUT_NO_D
 10
1683.765553956828
 20
19.23332608695091
 30
0.0
  0
VERTEX
  5
1AB
  8
6MM_MDF_BOTTOM_CUTOUT_NO_D
 10
1616.265553956835
 20
19.23332608693818
 30
0.0
  0
VERTEX
  5
1AC
  8
6MM_MDF_BOTTOM_CUTOUT_NO_D
 10
1616.265553956835
 20
31.23332608695102
 30
0.0
  0
VERTEX
  5
1AD
  8
6MM_MDF_BOTTOM_CUTOUT_NO_D
 10
1596.265553956835
 20
31.23332608695091
 30
0.0
  0
VERTEX
  5
1AE
  8
6MM_MDF_BOTTOM_CUTOUT_NO_D
 10
1596.265553956832
 20
95.73332608695796
 30
0.0
  0
VERTEX
  5
1AF
  8
6MM_MDF_BOTTOM_CUTOUT_NO_D
 10
1584.265553956833
 20
95.73332608695819
 30
0.0
  0
VERTEX
  5
1B0
  8
6MM_MDF_BOTTOM_CUTOUT_NO_D
 10
1584.265553956835
 20
160.2333260869491
 30
0.0
  0
VERTEX
  5
1B1
  8
6MM_MDF_BOTTOM_CUTOUT_NO_D
 10
1596.265553956835
 20
160.2333260869493
 30
0.0
  0
VERTEX
  5
1B2
  8
6MM_MDF_BOTTOM_CUTOUT_NO_D
 10
1596.265553956835
 20
244.7333260869603
 30
0.0
  0
VERTEX
  5
1B3
  8
6MM_MDF_BOTTOM_CUTOUT_NO_D
 10
1584.265553956835
 20
244.73332608696
 30
0.0
  0
VERTEX
  5
1B4
  8
6MM_MDF_BOTTOM_CUTOUT_NO_D
 10
1584.265553956848
 20
333.7333260869309
 30
0.0
  0
VERTEX
  5
1B5
  8
6MM_MDF_BOTTOM_CUTOUT_NO_D
 10
1596.265553956848
 20
333.7333260869314
 30
0.0
  0
VERTEX
  5
1B6
  8
6MM_MDF_BOTTOM_CUTOUT_NO_D
 10
1596.265553956847
 20
418.2333260869425
 30
0.0
  0
VERTEX
  5
1B7
  8
6MM_MDF_BOTTOM_CUTOUT_NO_D
 10
1584.265553956847
 20
418.2333260869418
 30
0.0
  0
VERTEX
  5
1B8
  8
6MM_MDF_BOTTOM_CUTOUT_NO_D
 10
1584.265553956846
 20
482.7333260869327
 30
0.0
  0
VERTEX
  5
1B9
  8
6MM_MDF_BOTTOM_CUTOUT_NO_D
 10
1596.265553956845
 20
482.7333260869327
 30
0.0
  0
VERTEX
  5
1BA
  8
6MM_MDF_BOTTOM_CUTOUT_NO_D
 10
1596.265553956847
 20
547.2333260869382
 30
0.0
  0
VERTEX
  5
1BB
  8
6MM_MDF_BOTTOM_CUTOUT_NO_D
 10
1616.265553956835
 20
547.2333260869382
 30
0.0
  0
VERTEX
  5
1BC
  8
6MM_MDF_BOTTOM_CUTOUT_NO_D
 10
1616.265553956837
 20
559.2333260869509
 30
0.0
  0
VERTEX
  5
1BD
  8
6MM_MDF_BOTTOM_CUTOUT_NO_D
 10
1683.765553956841
 20
559.2333260869382
 30
0.0
  0
VERTEX
  5
1BE
  8
6MM_MDF_BOTTOM_CUTOUT_NO_D
 10
1683.765553956837
 20
547.2333260869386
 30
0.0
  0
VERTEX
  5
1BF
  8
6MM_MDF_BOTTOM_CUTOUT_NO_D
 10
1777.265553956841
 20
547.2333260869354
 30
0.0
  0
VERTEX
  5
1C0
  8
6MM_MDF_BOTTOM_CUTOUT_NO_D
 10
1777.265553956838
 20
559.2333260869354
 30
0.0
  0
VERTEX
  5
1C1
  8
6MM_MDF_BOTTOM_CUTOUT_NO_D
 10
1870.765553956837
 20
559.2333260869354
 30
0.0
  0
VERTEX
  5
1C2
  8
6MM_MDF_BOTTOM_CUTOUT_NO_D
 10
1870.765553956835
 20
547.2333260869354
 30
0.0
  0
VERTEX
  5
1C3
  8
6MM_MDF_BOTTOM_CUTOUT_NO_D
 10
1917.515553956839
 20
547.233326086942
 30
0.0
  0
VERTEX
  5
1C4
  8
6MM_MDF_BOTTOM_CUTOUT_NO_D
 10
1917.515553956838
 20
559.2333260869382
 30
0.0
  0
VERTEX
  5
1C5
  8
6MM_MDF_BOTTOM_CUTOUT_NO_D
 10
2011.015553956847
 20
559.2333260869618
 30
0.0
  0
VERTEX
  5
1C6
  8
6MM_MDF_BOTTOM_CUTOUT_NO_D
 10
2011.015553956852
 20
547.2333260869659
 30
0.0
  0
VERTEX
  5
1C7
  8
6MM_MDF_BOTTOM_CUTOUT_NO_D
 10
2057.765553956849
 20
547.2333260869591
 30
0.0
  0
VERTEX
  5
1C8
  8
6MM_MDF_BOTTOM_CUTOUT_NO_D
 10
2057.765553956847
 20
559.2333260869582
 30
0.0
  0
VERTEX
  5
1C9
  8
6MM_MDF_BOTTOM_CUTOUT_NO_D
 10
2151.265553956845
 20
559.2333260869582
 30
0.0
  0
VERTEX
  5
1CA
  8
6MM_MDF_BOTTOM_CUTOUT_NO_D
 10
2151.265553956839
 20
547.2333260869584
 30
0.0
  0
VERTEX
  5
1CB
  8
6MM_MDF_BOTTOM_CUTOUT_NO_D
 10
2244.765553956854
 20
547.2333260869623
 30
0.0
  0
VERTEX
  5
1CC
  8
6MM_MDF_BOTTOM_CUTOUT_NO_D
 10
2244.765553956844
 20
559.2333260869618
 30
0.0
  0
SEQEND
  5
217
  8
6MM_MDF_BOTTOM_CUTOUT_NO_D
  0
POLYLINE
  5
71
  8
6MM_MDF_BOTTOM_CUTOUT_NO_D
 66
     1
 10
0.0
 20
0.0
 30
0.0
 70
     1
  0
VERTEX
  5
1CD
  8
6MM_MDF_BOTTOM_CUTOUT_NO_D
 10
2312.265553956837
 20
1108.207079136708
 30
0.0
  0
VERTEX
  5
1CE
  8
6MM_MDF_BOTTOM_CUTOUT_NO_D
 10
2312.265553956836
 20
1096.20707913668
 30
0.0
  0
VERTEX
  5
1CF
  8
6MM_MDF_BOTTOM_CUTOUT_NO_D
 10
2332.265553956837
 20
1096.207079136678
 30
0.0
  0
VERTEX
  5
1D0
  8
6MM_MDF_BOTTOM_CUTOUT_NO_D
 10
2332.265553956838
 20
1031.707079136695
 30
0.0
  0
VERTEX
  5
1D1
  8
6MM_MDF_BOTTOM_CUTOUT_NO_D
 10
2344.265553956838
 20
1031.707079136689
 30
0.0
  0
VERTEX
  5
1D2
  8
6MM_MDF_BOTTOM_CUTOUT_NO_D
 10
2344.265553956837
 20
967.2070791366982
 30
0.0
  0
VERTEX
  5
1D3
  8
6MM_MDF_BOTTOM_CUTOUT_NO_D
 10
2332.265553956837
 20
967.2070791366891
 30
0.0
  0
VERTEX
  5
1D4
  8
6MM_MDF_BOTTOM_CUTOUT_NO_D
 10
2332.265553956834
 20
882.7070791366904
 30
0.0
  0
VERTEX
  5
1D5
  8
6MM_MDF_BOTTOM_CUTOUT_NO_D
 10
2344.265553956835
 20
882.7070791366871
 30
0.0
  0
VERTEX
  5
1D6
  8
6MM_MDF_BOTTOM_CUTOUT_NO_D
 10
2344.265553956822
 20
793.7070791367162
 30
0.0
  0
VERTEX
  5
1D7
  8
6MM_MDF_BOTTOM_CUTOUT_NO_D
 10
2332.265553956823
 20
793.7070791367157
 30
0.0
  0
VERTEX
  5
1D8
  8
6MM_MDF_BOTTOM_CUTOUT_NO_D
 10
2332.265553956823
 20
709.2070791367114
 30
0.0
  0
VERTEX
  5
1D9
  8
6MM_MDF_BOTTOM_CUTOUT_NO_D
 10
2344.265553956824
 20
709.2070791367044
 30
0.0
  0
VERTEX
  5
1DA
  8
6MM_MDF_BOTTOM_CUTOUT_NO_D
 10
2344.265553956826
 20
644.7070791367137
 30
0.0
  0
VERTEX
  5
1DB
  8
6MM_MDF_BOTTOM_CUTOUT_NO_D
 10
2332.265553956825
 20
644.7070791367103
 30
0.0
  0
VERTEX
  5
1DC
  8
6MM_MDF_BOTTOM_CUTOUT_NO_D
 10
2332.265553956825
 20
580.2070791367082
 30
0.0
  0
VERTEX
  5
1DD
  8
6MM_MDF_BOTTOM_CUTOUT_NO_D
 10
2312.265553956835
 20
580.2070791367069
 30
0.0
  0
VERTEX
  5
1DE
  8
6MM_MDF_BOTTOM_CUTOUT_NO_D
 10
2312.265553956837
 20
568.2070791366937
 30
0.0
  0
VERTEX
  5
1DF
  8
6MM_MDF_BOTTOM_CUTOUT_NO_D
 10
2244.76555395683
 20
568.2070791367082
 30
0.0
  0
VERTEX
  5
1E0
  8
6MM_MDF_BOTTOM_CUTOUT_NO_D
 10
2244.765553956831
 20
580.2070791367081
 30
0.0
  0
VERTEX
  5
1E1
  8
6MM_MDF_BOTTOM_CUTOUT_NO_D
 10
2151.265553956838
 20
580.2070791367119
 30
0.0
  0
VERTEX
  5
1E2
  8
6MM_MDF_BOTTOM_CUTOUT_NO_D
 10
2151.265553956833
 20
568.2070791367119
 30
0.0
  0
VERTEX
  5
1E3
  8
6MM_MDF_BOTTOM_CUTOUT_NO_D
 10
2057.765553956834
 20
568.2070791367119
 30
0.0
  0
VERTEX
  5
1E4
  8
6MM_MDF_BOTTOM_CUTOUT_NO_D
 10
2057.765553956834
 20
580.2070791367112
 30
0.0
  0
VERTEX
  5
1E5
  8
6MM_MDF_BOTTOM_CUTOUT_NO_D
 10
2011.015553956832
 20
580.2070791367047
 30
0.0
  0
VERTEX
  5
1E6
  8
6MM_MDF_BOTTOM_CUTOUT_NO_D
 10
2011.015553956834
 20
568.2070791367082
 30
0.0
  0
VERTEX
  5
1E7
  8
6MM_MDF_BOTTOM_CUTOUT_NO_D
 10
1917.515553956825
 20
568.2070791366846
 30
0.0
  0
VERTEX
  5
1E8
  8
6MM_MDF_BOTTOM_CUTOUT_NO_D
 10
1917.515553956823
 20
580.2070791366828
 30
0.0
  0
VERTEX
  5
1E9
  8
6MM_MDF_BOTTOM_CUTOUT_NO_D
 10
1870.765553956822
 20
580.2070791366881
 30
0.0
  0
VERTEX
  5
1EA
  8
6MM_MDF_BOTTOM_CUTOUT_NO_D
 10
1870.765553956824
 20
568.2070791366882
 30
0.0
  0
VERTEX
  5
1EB
  8
6MM_MDF_BOTTOM_CUTOUT_NO_D
 10
1777.265553956825
 20
568.2070791366882
 30
0.0
  0
VERTEX
  5
1EC
  8
6MM_MDF_BOTTOM_CUTOUT_NO_D
 10
1777.265553956826
 20
580.2070791366883
 30
0.0
  0
VERTEX
  5
1ED
  8
6MM_MDF_BOTTOM_CUTOUT_NO_D
 10
1683.765553956823
 20
580.2070791366843
 30
0.0
  0
VERTEX
  5
1EE
  8
6MM_MDF_BOTTOM_CUTOUT_NO_D
 10
1683.765553956828
 20
568.2070791366846
 30
0.0
  0
VERTEX
  5
1EF
  8
6MM_MDF_BOTTOM_CUTOUT_NO_D
 10
1616.265553956835
 20
568.2070791366718
 30
0.0
  0
VERTEX
  5
1F0
  8
6MM_MDF_BOTTOM_CUTOUT_NO_D
 10
1616.265553956835
 20
580.2070791366847
 30
0.0
  0
VERTEX
  5
1F1
  8
6MM_MDF_BOTTOM_CUTOUT_NO_D
 10
1596.265553956835
 20
580.2070791366846
 30
0.0
  0
VERTEX
  5
1F2
  8
6MM_MDF_BOTTOM_CUTOUT_NO_D
 10
1596.265553956832
 20
644.7070791366916
 30
0.0
  0
VERTEX
  5
1F3
  8
6MM_MDF_BOTTOM_CUTOUT_NO_D
 10
1584.265553956833
 20
644.7070791366918
 30
0.0
  0
VERTEX
  5
1F4
  8
6MM_MDF_BOTTOM_CUTOUT_NO_D
 10
1584.265553956835
 20
709.2070791366828
 30
0.0
  0
VERTEX
  5
1F5
  8
6MM_MDF_BOTTOM_CUTOUT_NO_D
 10
1596.265553956835
 20
709.207079136683
 30
0.0
  0
VERTEX
  5
1F6
  8
6MM_MDF_BOTTOM_CUTOUT_NO_D
 10
1596.265553956835
 20
793.707079136694
 30
0.0
  0
VERTEX
  5
1F7
  8
6MM_MDF_BOTTOM_CUTOUT_NO_D
 10
1584.265553956835
 20
793.7070791366937
 30
0.0
  0
VERTEX
  5
1F8
  8
6MM_MDF_BOTTOM_CUTOUT_NO_D
 10
1584.265553956848
 20
882.7070791366646
 30
0.0
  0
VERTEX
  5
1F9
  8
6MM_MDF_BOTTOM_CUTOUT_NO_D
 10
1596.265553956848
 20
882.707079136665
 30
0.0
  0
VERTEX
  5
1FA
  8
6MM_MDF_BOTTOM_CUTOUT_NO_D
 10
1596.265553956847
 20
967.2070791366762
 30
0.0
  0
VERTEX
  5
1FB
  8
6MM_MDF_BOTTOM_CUTOUT_NO_D
 10
1584.265553956847
 20
967.2070791366755
 30
0.0
  0
VERTEX
  5
1FC
  8
6MM_MDF_BOTTOM_CUTOUT_NO_D
 10
1584.265553956846
 20
1031.707079136666
 30
0.0
  0
VERTEX
  5
1FD
  8
6MM_MDF_BOTTOM_CUTOUT_NO_D
 10
1596.265553956845
 20
1031.707079136666
 30
0.0
  0
VERTEX
  5
1FE
  8
6MM_MDF_BOTTOM_CUTOUT_NO_D
 10
1596.265553956847
 20
1096.207079136672
 30
0.0
  0
VERTEX
  5
1FF
  8
6MM_MDF_BOTTOM_CUTOUT_NO_D
 10
1616.265553956835
 20
1096.207079136672
 30
0.0
  0
VERTEX
  5
200
  8
6MM_MDF_BOTTOM_CUTOUT_NO_D
 10
1616.265553956837
 20
1108.207079136685
 30
0.0
  0
VERTEX
  5
201
  8
6MM_MDF_BOTTOM_CUTOUT_NO_D
 10
1683.765553956841
 20
1108.207079136672
 30
0.0
  0
VERTEX
  5
202
  8
6MM_MDF_BOTTOM_CUTOUT_NO_D
 10
1683.765553956837
 20
1096.207079136672
 30
0.0
  0
VERTEX
  5
203
  8
6MM_MDF_BOTTOM_CUTOUT_NO_D
 10
1777.265553956841
 20
1096.207079136669
 30
0.0
  0
VERTEX
  5
204
  8
6MM_MDF_BOTTOM_CUTOUT_NO_D
 10
1777.265553956838
 20
1108.207079136669
 30
0.0
  0
VERTEX
  5
205
  8
6MM_MDF_BOTTOM_CUTOUT_NO_D
 10
1870.765553956837
 20
1108.207079136669
 30
0.0
  0
VERTEX
  5
206
  8
6MM_MDF_BOTTOM_CUTOUT_NO_D
 10
1870.765553956835
 20
1096.207079136669
 30
0.0
  0
VERTEX
  5
207
  8
6MM_MDF_BOTTOM_CUTOUT_NO_D
 10
1917.515553956839
 20
1096.207079136676
 30
0.0
  0
VERTEX
  5
208
  8
6MM_MDF_BOTTOM_CUTOUT_NO_D
 10
1917.515553956838
 20
1108.207079136672
 30
0.0
  0
VERTEX
  5
209
  8
6MM_MDF_BOTTOM_CUTOUT_NO_D
 10
2011.015553956847
 20
1108.207079136695
 30
0.0
  0
VERTEX
  5
20A
  8
6MM_MDF_BOTTOM_CUTOUT_NO_D
 10
2011.015553956852
 20
1096.2070791367
 30
0.0
  0
VERTEX
  5
20B
  8
6MM_MDF_BOTTOM_CUTOUT_NO_D
 10
2057.765553956849
 20
1096.207079136693
 30
0.0
  0
VERTEX
  5
20C
  8
6MM_MDF_BOTTOM_CUTOUT_NO_D
 10
2057.765553956847
 20
1108.207079136692
 30
0.0
  0
VERTEX
  5
20D
  8
6MM_MDF_BOTTOM_CUTOUT_NO_D
 10
2151.265553956845
 20
1108.207079136692
 30
0.0
  0
VERTEX
  5
20E
  8
6MM_MDF_BOTTOM_CUTOUT_NO_D
 10
2151.265553956839
 20
1096.207079136692
 30
0.0
  0
VERTEX
  5
20F
  8
6MM_MDF_BOTTOM_CUTOUT_NO_D
 10
2244.765553956854
 20
1096.207079136696
 30
0.0
  0
VERTEX
  5
210
  8
6MM_MDF_BOTTOM_CUTOUT_NO_D
 10
2244.765553956844
 20
1108.207079136695
 30
0.0
  0
SEQEND
  5
218
  8
6MM_MDF_BOTTOM_CUTOUT_NO_D
  0
ENDSEC
  0
EOF
