  0
SECTION
  2
HEADER
  9
$ACADVER
  1
AC1009
  9
$DWGCODEPAGE
  3
ansi_1252
  9
$INSBASE
 10
0.0
 20
0.0
 30
0.0
  9
$EXTMIN
 10
42.71773066157306
 20
19.23332608691506
 30
0.0
  9
$EXTMAX
 10
2344.265553956838
 20
1108.207079136708
 30
0.0
  9
$LIMMIN
 10
0.0
 20
0.0
  9
$LIMMAX
 10
12.0
 20
9.0
  9
$ORTHOMODE
 70
     0
  9
$REGENMODE
 70
     1
  9
$FILLMODE
 70
     1
  9
$QTEXTMODE
 70
     0
  9
$MIRRTEXT
 70
     1
  9
$DRAGMODE
 70
     2
  9
$LTSCALE
 40
1.0
  9
$OSMODE
 70
    37
  9
$ATTMODE
 70
     1
  9
$TEXTSIZE
 40
0.2
  9
$TRACEWID
 40
0.05
  9
$TEXTSTYLE
  7
STANDARD
  9
$CLAYER
  8
0
  9
$CELTYPE
  6
BYLAYER
  9
$CECOLOR
 62
   256
  9
$DIMSCALE
 40
1.0
  9
$DIMASZ
 40
0.18
  9
$DIMEXO
 40
0.0625
  9
$DIMDLI
 40
0.38
  9
$DIMRND
 40
0.0
  9
$DIMDLE
 40
0.0
  9
$DIMEXE
 40
0.18
  9
$DIMTP
 40
0.0
  9
$DIMTM
 40
0.0
  9
$DIMTXT
 40
0.18
  9
$DIMCEN
 40
0.09
  9
$DIMTSZ
 40
0.0
  9
$DIMTOL
 70
     0
  9
$DIMLIM
 70
     0
  9
$DIMTIH
 70
     1
  9
$DIMTOH
 70
     1
  9
$DIMSE1
 70
     0
  9
$DIMSE2
 70
     0
  9
$DIMTAD
 70
     0
  9
$DIMZIN
 70
     0
  9
$DIMBLK
  1

  9
$DIMASO
 70
     1
  9
$DIMSHO
 70
     1
  9
$DIMPOST
  1

  9
$DIMAPOST
  1

  9
$DIMALT
 70
     0
  9
$DIMALTD
 70
     2
  9
$DIMALTF
 40
25.4
  9
$DIMLFAC
 40
1.0
  9
$DIMTOFL
 70
     0
  9
$DIMTVP
 40
0.0
  9
$DIMTIX
 70
     0
  9
$DIMSOXD
 70
     0
  9
$DIMSAH
 70
     0
  9
$DIMBLK1
  1

  9
$DIMBLK2
  1

  9
$DIMSTYLE
  2
STANDARD
  9
$DIMCLRD
 70
     0
  9
$DIMCLRE
 70
     0
  9
$DIMCLRT
 70
     0
  9
$DIMTFAC
 40
1.0
  9
$DIMGAP
 40
0.09
  9
$LUNITS
 70
     2
  9
$LUPREC
 70
     4
  9
$SKETCHINC
 40
0.1
  9
$FILLETRAD
 40
0.5
  9
$AUNITS
 70
     0
  9
$AUPREC
 70
     0
  9
$MENU
  1
.
  9
$ELEVATION
 40
0.0
  9
$PELEVATION
 40
0.0
  9
$THICKNESS
 40
0.0
  9
$LIMCHECK
 70
     0
  9
$CHAMFERA
 40
0.0
  9
$CHAMFERB
 40
0.0
  9
$SKPOLY
 70
     0
  9
$TDCREATE
 40
2454910.5
  9
$TDUPDATE
 40
2457374.429623784
  9
$TDINDWG
 40
0.0000000116
  9
$TDUSRTIMER
 40
0.0000000116
  9
$USRTIMER
 70
     1
  9
$ANGBASE
 50
0.0
  9
$ANGDIR
 70
     0
  9
$PDMODE
 70
     0
  9
$PDSIZE
 40
0.0
  9
$PLINEWID
 40
0.0
  9
$COORDS
 70
     1
  9
$SPLFRAME
 70
     0
  9
$SPLINETYPE
 70
     6
  9
$SPLINESEGS
 70
     8
  9
$ATTDIA
 70
     0
  9
$ATTREQ
 70
     1
  9
$HANDLING
 70
     1
  9
$HANDSEED
  5
36A
  9
$SURFTAB1
 70
     6
  9
$SURFTAB2
 70
     6
  9
$SURFTYPE
 70
     6
  9
$SURFU
 70
     6
  9
$SURFV
 70
     6
  9
$UCSNAME
  2

  9
$UCSORG
 10
0.0
 20
0.0
 30
0.0
  9
$UCSXDIR
 10
1.0
 20
0.0
 30
0.0
  9
$UCSYDIR
 10
0.0
 20
1.0
 30
0.0
  9
$PUCSNAME
  2

  9
$PUCSORG
 10
0.0
 20
0.0
 30
0.0
  9
$PUCSXDIR
 10
1.0
 20
0.0
 30
0.0
  9
$PUCSYDIR
 10
0.0
 20
1.0
 30
0.0
  9
$USERI1
 70
     0
  9
$USERI2
 70
     0
  9
$USERI3
 70
     0
  9
$USERI4
 70
     0
  9
$USERI5
 70
     0
  9
$USERR1
 40
0.0
  9
$USERR2
 40
0.0
  9
$USERR3
 40
0.0
  9
$USERR4
 40
0.0
  9
$USERR5
 40
0.0
  9
$WORLDVIEW
 70
     1
  9
$SHADEDGE
 70
     3
  9
$SHADEDIF
 70
    70
  9
$TILEMODE
 70
     1
  9
$MAXACTVP
 70
    64
  9
$PLIMCHECK
 70
     0
  9
$PEXTMIN
 10
1.000000000000000E+20
 20
1.000000000000000E+20
 30
1.000000000000000E+20
  9
$PEXTMAX
 10
-1.000000000000000E+20
 20
-1.000000000000000E+20
 30
-1.000000000000000E+20
  9
$PLIMMIN
 10
0.0
 20
0.0
  9
$PLIMMAX
 10
12.0
 20
9.0
  9
$UNITMODE
 70
     0
  9
$VISRETAIN
 70
     1
  9
$PLINEGEN
 70
     0
  9
$PSLTSCALE
 70
     1
  0
ENDSEC
  0
SECTION
  2
TABLES
  0
TABLE
  2
VPORT
 70
     1
  0
VPORT
  2
*ACTIVE
 70
     0
 10
0.0
 20
0.0
 11
1.0
 21
1.0
 12
10.42990654205607
 22
4.5
 13
0.0
 23
0.0
 14
0.5
 24
0.5
 15
0.5
 25
0.5
 16
0.0
 26
0.0
 36
1.0
 17
0.0
 27
0.0
 37
0.0
 40
9.0
 41
1.972972972850329
 42
50.0
 43
0.0
 44
0.0
 50
0.0
 51
0.0
 71
     0
 72
   100
 73
     1
 74
     3
 75
     0
 76
     0
 77
     0
 78
     0
  0
ENDTAB
  0
TABLE
  2
LTYPE
 70
     2
  0
LTYPE
  2
CONTINUOUS
 70
     0
  3
Solid line
 72
    65
 73
     0
 40
0.0
  0
LTYPE
  2
CONTINUOUS2
 70
     0
  3
Solid Line
 72
    65
 73
     0
 40
0.0
  0
ENDTAB
  0
TABLE
  2
LAYER
 70
     3
  0
LAYER
  2
0
 70
     0
 62
     7
  6
CONTINUOUS
  0
LAYER
  2
6MM_MDF_BOTOM_HOLDDOWN
 70
     0
 62
    18
  6
CONTINUOUS
  0
LAYER
  2
6MM_MDF_BOTTOM_CUTOUT
 70
     0
 62
    18
  6
CONTINUOUS
  0
ENDTAB
  0
TABLE
  2
STYLE
 70
     1
  0
STYLE
  2
STANDARD
 70
     0
 40
0.0
 41
1.0
 50
0.0
 71
     0
 42
0.2
  3
txt
  4

  0
ENDTAB
  0
TABLE
  2
VIEW
 70
     0
  0
ENDTAB
  0
TABLE
  2
UCS
 70
     0
  0
ENDTAB
  0
TABLE
  2
APPID
 70
     1
  0
APPID
  2
ACAD
 70
     0
  0
ENDTAB
  0
TABLE
  2
DIMSTYLE
 70
     1
  0
DIMSTYLE
  2
STANDARD
 70
     0
  3

  4

  5

  6

  7

 40
1.0
 41
0.18
 42
0.0625
 43
0.38
 44
0.18
 45
0.0
 46
0.0
 47
0.0
 48
0.0
140
0.18
141
0.09
142
0.0
143
25.4
144
1.0
145
0.0
146
1.0
147
0.09
 71
     0
 72
     0
 73
     1
 74
     1
 75
     0
 76
     0
 77
     0
 78
     0
170
     0
171
     2
172
     0
173
     0
174
     0
175
     0
176
     0
177
     0
178
     0
  0
ENDTAB
  0
ENDSEC
  0
SECTION
  2
BLOCKS
  0
BLOCK
  8
0
  2
$MODEL_SPACE
 70
     0
 10
0.0
 20
0.0
 30
0.0
  3
$MODEL_SPACE
  1

  0
ENDBLK
  5
21
  8
0
  0
BLOCK
 67
     1
  8
0
  2
$PAPER_SPACE
 70
     0
 10
0.0
 20
0.0
 30
0.0
  3
$PAPER_SPACE
  1

  0
ENDBLK
  5
1D
 67
     1
  8
0
  0
ENDSEC
  0
SECTION
  2
ENTITIES
  0
POLYLINE
  5
6C
  8
6MM_MDF_BOTOM_HOLDDOWN
 66
     1
 10
0.0
 20
0.0
 30
0.0
 70
     1
  0
VERTEX
  5
92
  8
6MM_MDF_BOTOM_HOLDDOWN
 10
748.8511079136688
 20
1063.539
 30
0.0
 42
0.4142135623730951
  0
VERTEX
  5
93
  8
6MM_MDF_BOTOM_HOLDDOWN
 10
744.3511079136688
 20
1059.039
 30
0.0
 42
0.4142135623730951
  0
VERTEX
  5
94
  8
6MM_MDF_BOTOM_HOLDDOWN
 10
748.8511079136688
 20
1054.539
 30
0.0
 42
0.4142135623730951
  0
VERTEX
  5
95
  8
6MM_MDF_BOTOM_HOLDDOWN
 10
753.3511079136688
 20
1059.039
 30
0.0
 42
0.4142135623730951
  0
SEQEND
  5
34C
  8
6MM_MDF_BOTOM_HOLDDOWN
  0
POLYLINE
  5
6D
  8
6MM_MDF_BOTOM_HOLDDOWN
 66
     1
 10
0.0
 20
0.0
 30
0.0
 70
     1
  0
VERTEX
  5
96
  8
6MM_MDF_BOTOM_HOLDDOWN
 10
87.51777613113586
 20
1063.539
 30
0.0
 42
0.4142135623730951
  0
VERTEX
  5
97
  8
6MM_MDF_BOTOM_HOLDDOWN
 10
83.01777613113586
 20
1059.039
 30
0.0
 42
0.4142135623730951
  0
VERTEX
  5
98
  8
6MM_MDF_BOTOM_HOLDDOWN
 10
87.51777613113586
 20
1054.539
 30
0.0
 42
0.4142135623730951
  0
VERTEX
  5
99
  8
6MM_MDF_BOTOM_HOLDDOWN
 10
92.01777613113586
 20
1059.039
 30
0.0
 42
0.4142135623730951
  0
SEQEND
  5
34D
  8
6MM_MDF_BOTOM_HOLDDOWN
  0
POLYLINE
  5
6E
  8
6MM_MDF_BOTOM_HOLDDOWN
 66
     1
 10
0.0
 20
0.0
 30
0.0
 70
     1
  0
VERTEX
  5
9A
  8
6MM_MDF_BOTOM_HOLDDOWN
 10
748.8511079136688
 20
621.7012661872583
 30
0.0
 42
0.4142135623730951
  0
VERTEX
  5
9B
  8
6MM_MDF_BOTOM_HOLDDOWN
 10
744.3511079136688
 20
617.2012661872583
 30
0.0
 42
0.4142135623730951
  0
VERTEX
  5
9C
  8
6MM_MDF_BOTOM_HOLDDOWN
 10
748.8511079136688
 20
612.7012661872583
 30
0.0
 42
0.4142135623730951
  0
VERTEX
  5
9D
  8
6MM_MDF_BOTOM_HOLDDOWN
 10
753.3511079136688
 20
617.2012661872583
 30
0.0
 42
0.4142135623730951
  0
SEQEND
  5
34E
  8
6MM_MDF_BOTOM_HOLDDOWN
  0
POLYLINE
  5
6F
  8
6MM_MDF_BOTOM_HOLDDOWN
 66
     1
 10
0.0
 20
0.0
 30
0.0
 70
     1
  0
VERTEX
  5
9E
  8
6MM_MDF_BOTOM_HOLDDOWN
 10
87.51777613113586
 20
621.7012661872583
 30
0.0
 42
0.4142135623730951
  0
VERTEX
  5
9F
  8
6MM_MDF_BOTOM_HOLDDOWN
 10
83.01777613113586
 20
617.2012661872583
 30
0.0
 42
0.4142135623730951
  0
VERTEX
  5
A0
  8
6MM_MDF_BOTOM_HOLDDOWN
 10
87.51777613113586
 20
612.7012661872583
 30
0.0
 42
0.4142135623730951
  0
VERTEX
  5
A1
  8
6MM_MDF_BOTOM_HOLDDOWN
 10
92.01777613113586
 20
617.2012661872583
 30
0.0
 42
0.4142135623730951
  0
SEQEND
  5
34F
  8
6MM_MDF_BOTOM_HOLDDOWN
  0
POLYLINE
  5
70
  8
6MM_MDF_BOTOM_HOLDDOWN
 66
     1
 10
0.0
 20
0.0
 30
0.0
 70
     1
  0
VERTEX
  5
A2
  8
6MM_MDF_BOTOM_HOLDDOWN
 10
1521.471385315726
 20
1063.539
 30
0.0
 42
0.4142135623730951
  0
VERTEX
  5
A3
  8
6MM_MDF_BOTOM_HOLDDOWN
 10
1516.971385315726
 20
1059.039
 30
0.0
 42
0.4142135623730951
  0
VERTEX
  5
A4
  8
6MM_MDF_BOTOM_HOLDDOWN
 10
1521.471385315726
 20
1054.539
 30
0.0
 42
0.4142135623730951
  0
VERTEX
  5
A5
  8
6MM_MDF_BOTOM_HOLDDOWN
 10
1525.971385315726
 20
1059.039
 30
0.0
 42
0.4142135623730951
  0
SEQEND
  5
350
  8
6MM_MDF_BOTOM_HOLDDOWN
  0
POLYLINE
  5
71
  8
6MM_MDF_BOTOM_HOLDDOWN
 66
     1
 10
0.0
 20
0.0
 30
0.0
 70
     1
  0
VERTEX
  5
A6
  8
6MM_MDF_BOTOM_HOLDDOWN
 10
860.1380535331933
 20
1063.539
 30
0.0
 42
0.4142135623730951
  0
VERTEX
  5
A7
  8
6MM_MDF_BOTOM_HOLDDOWN
 10
855.6380535331933
 20
1059.039
 30
0.0
 42
0.4142135623730951
  0
VERTEX
  5
A8
  8
6MM_MDF_BOTOM_HOLDDOWN
 10
860.1380535331933
 20
1054.539
 30
0.0
 42
0.4142135623730951
  0
VERTEX
  5
A9
  8
6MM_MDF_BOTOM_HOLDDOWN
 10
864.6380535331933
 20
1059.039
 30
0.0
 42
0.4142135623730951
  0
SEQEND
  5
351
  8
6MM_MDF_BOTOM_HOLDDOWN
  0
POLYLINE
  5
72
  8
6MM_MDF_BOTOM_HOLDDOWN
 66
     1
 10
0.0
 20
0.0
 30
0.0
 70
     1
  0
VERTEX
  5
AA
  8
6MM_MDF_BOTOM_HOLDDOWN
 10
1521.471385315726
 20
621.7012661872583
 30
0.0
 42
0.4142135623730951
  0
VERTEX
  5
AB
  8
6MM_MDF_BOTOM_HOLDDOWN
 10
1516.971385315726
 20
617.2012661872583
 30
0.0
 42
0.4142135623730951
  0
VERTEX
  5
AC
  8
6MM_MDF_BOTOM_HOLDDOWN
 10
1521.471385315726
 20
612.7012661872583
 30
0.0
 42
0.4142135623730951
  0
VERTEX
  5
AD
  8
6MM_MDF_BOTOM_HOLDDOWN
 10
1525.971385315726
 20
617.2012661872583
 30
0.0
 42
0.4142135623730951
  0
SEQEND
  5
352
  8
6MM_MDF_BOTOM_HOLDDOWN
  0
POLYLINE
  5
73
  8
6MM_MDF_BOTOM_HOLDDOWN
 66
     1
 10
0.0
 20
0.0
 30
0.0
 70
     1
  0
VERTEX
  5
AE
  8
6MM_MDF_BOTOM_HOLDDOWN
 10
860.1380535331933
 20
621.7012661872583
 30
0.0
 42
0.4142135623730951
  0
VERTEX
  5
AF
  8
6MM_MDF_BOTOM_HOLDDOWN
 10
855.6380535331933
 20
617.2012661872583
 30
0.0
 42
0.4142135623730951
  0
VERTEX
  5
B0
  8
6MM_MDF_BOTOM_HOLDDOWN
 10
860.1380535331933
 20
612.7012661872583
 30
0.0
 42
0.4142135623730951
  0
VERTEX
  5
B1
  8
6MM_MDF_BOTOM_HOLDDOWN
 10
864.6380535331933
 20
617.2012661872583
 30
0.0
 42
0.4142135623730951
  0
SEQEND
  5
353
  8
6MM_MDF_BOTOM_HOLDDOWN
  0
POLYLINE
  5
74
  8
6MM_MDF_BOTOM_HOLDDOWN
 66
     1
 10
0.0
 20
0.0
 30
0.0
 70
     1
  0
VERTEX
  5
B2
  8
6MM_MDF_BOTOM_HOLDDOWN
 10
2297.413831358891
 20
1063.539
 30
0.0
 42
0.4142135623730951
  0
VERTEX
  5
B3
  8
6MM_MDF_BOTOM_HOLDDOWN
 10
2292.913831358891
 20
1059.039
 30
0.0
 42
0.4142135623730951
  0
VERTEX
  5
B4
  8
6MM_MDF_BOTOM_HOLDDOWN
 10
2297.413831358891
 20
1054.539
 30
0.0
 42
0.4142135623730951
  0
VERTEX
  5
B5
  8
6MM_MDF_BOTOM_HOLDDOWN
 10
2301.913831358891
 20
1059.039
 30
0.0
 42
0.4142135623730951
  0
SEQEND
  5
354
  8
6MM_MDF_BOTOM_HOLDDOWN
  0
POLYLINE
  5
75
  8
6MM_MDF_BOTOM_HOLDDOWN
 66
     1
 10
0.0
 20
0.0
 30
0.0
 70
     1
  0
VERTEX
  5
B6
  8
6MM_MDF_BOTOM_HOLDDOWN
 10
1636.080499576358
 20
1063.539
 30
0.0
 42
0.4142135623730951
  0
VERTEX
  5
B7
  8
6MM_MDF_BOTOM_HOLDDOWN
 10
1631.580499576358
 20
1059.039
 30
0.0
 42
0.4142135623730951
  0
VERTEX
  5
B8
  8
6MM_MDF_BOTOM_HOLDDOWN
 10
1636.080499576358
 20
1054.539
 30
0.0
 42
0.4142135623730951
  0
VERTEX
  5
B9
  8
6MM_MDF_BOTOM_HOLDDOWN
 10
1640.580499576358
 20
1059.039
 30
0.0
 42
0.4142135623730951
  0
SEQEND
  5
355
  8
6MM_MDF_BOTOM_HOLDDOWN
  0
POLYLINE
  5
76
  8
6MM_MDF_BOTOM_HOLDDOWN
 66
     1
 10
0.0
 20
0.0
 30
0.0
 70
     1
  0
VERTEX
  5
BA
  8
6MM_MDF_BOTOM_HOLDDOWN
 10
2297.413831358891
 20
621.7012661872583
 30
0.0
 42
0.4142135623730951
  0
VERTEX
  5
BB
  8
6MM_MDF_BOTOM_HOLDDOWN
 10
2292.913831358891
 20
617.2012661872583
 30
0.0
 42
0.4142135623730951
  0
VERTEX
  5
BC
  8
6MM_MDF_BOTOM_HOLDDOWN
 10
2297.413831358891
 20
612.7012661872583
 30
0.0
 42
0.4142135623730951
  0
VERTEX
  5
BD
  8
6MM_MDF_BOTOM_HOLDDOWN
 10
2301.913831358891
 20
617.2012661872583
 30
0.0
 42
0.4142135623730951
  0
SEQEND
  5
356
  8
6MM_MDF_BOTOM_HOLDDOWN
  0
POLYLINE
  5
77
  8
6MM_MDF_BOTOM_HOLDDOWN
 66
     1
 10
0.0
 20
0.0
 30
0.0
 70
     1
  0
VERTEX
  5
BE
  8
6MM_MDF_BOTOM_HOLDDOWN
 10
1636.080499576358
 20
621.7012661872583
 30
0.0
 42
0.4142135623730951
  0
VERTEX
  5
BF
  8
6MM_MDF_BOTOM_HOLDDOWN
 10
1631.580499576358
 20
617.2012661872583
 30
0.0
 42
0.4142135623730951
  0
VERTEX
  5
C0
  8
6MM_MDF_BOTOM_HOLDDOWN
 10
1636.080499576358
 20
612.7012661872583
 30
0.0
 42
0.4142135623730951
  0
VERTEX
  5
C1
  8
6MM_MDF_BOTOM_HOLDDOWN
 10
1640.580499576358
 20
617.2012661872583
 30
0.0
 42
0.4142135623730951
  0
SEQEND
  5
357
  8
6MM_MDF_BOTOM_HOLDDOWN
  0
POLYLINE
  5
78
  8
6MM_MDF_BOTOM_HOLDDOWN
 66
     1
 10
0.0
 20
0.0
 30
0.0
 70
     1
  0
VERTEX
  5
C2
  8
6MM_MDF_BOTOM_HOLDDOWN
 10
748.5464690100273
 20
510.7778309351249
 30
0.0
 42
0.4142135623730951
  0
VERTEX
  5
C3
  8
6MM_MDF_BOTOM_HOLDDOWN
 10
744.0464690100273
 20
506.2778309351249
 30
0.0
 42
0.4142135623730951
  0
VERTEX
  5
C4
  8
6MM_MDF_BOTOM_HOLDDOWN
 10
748.5464690100273
 20
501.7778309351249
 30
0.0
 42
0.4142135623730951
  0
VERTEX
  5
C5
  8
6MM_MDF_BOTOM_HOLDDOWN
 10
753.0464690100273
 20
506.2778309351249
 30
0.0
 42
0.4142135623730951
  0
SEQEND
  5
358
  8
6MM_MDF_BOTOM_HOLDDOWN
  0
POLYLINE
  5
79
  8
6MM_MDF_BOTOM_HOLDDOWN
 66
     1
 10
0.0
 20
0.0
 30
0.0
 70
     1
  0
VERTEX
  5
C6
  8
6MM_MDF_BOTOM_HOLDDOWN
 10
87.21313722749457
 20
510.7778309351249
 30
0.0
 42
0.4142135623730951
  0
VERTEX
  5
C7
  8
6MM_MDF_BOTOM_HOLDDOWN
 10
82.71313722749456
 20
506.2778309351249
 30
0.0
 42
0.4142135623730951
  0
VERTEX
  5
C8
  8
6MM_MDF_BOTOM_HOLDDOWN
 10
87.21313722749457
 20
501.7778309351249
 30
0.0
 42
0.4142135623730951
  0
VERTEX
  5
C9
  8
6MM_MDF_BOTOM_HOLDDOWN
 10
91.71313722749457
 20
506.2778309351249
 30
0.0
 42
0.4142135623730951
  0
SEQEND
  5
359
  8
6MM_MDF_BOTOM_HOLDDOWN
  0
POLYLINE
  5
7A
  8
6MM_MDF_BOTOM_HOLDDOWN
 66
     1
 10
0.0
 20
0.0
 30
0.0
 70
     1
  0
VERTEX
  5
CA
  8
6MM_MDF_BOTOM_HOLDDOWN
 10
748.5464690100273
 20
68.94009712238329
 30
0.0
 42
0.4142135623730951
  0
VERTEX
  5
CB
  8
6MM_MDF_BOTOM_HOLDDOWN
 10
744.0464690100273
 20
64.44009712238329
 30
0.0
 42
0.4142135623730951
  0
VERTEX
  5
CC
  8
6MM_MDF_BOTOM_HOLDDOWN
 10
748.5464690100273
 20
59.94009712238329
 30
0.0
 42
0.4142135623730951
  0
VERTEX
  5
CD
  8
6MM_MDF_BOTOM_HOLDDOWN
 10
753.0464690100273
 20
64.44009712238329
 30
0.0
 42
0.4142135623730951
  0
SEQEND
  5
35A
  8
6MM_MDF_BOTOM_HOLDDOWN
  0
POLYLINE
  5
7B
  8
6MM_MDF_BOTOM_HOLDDOWN
 66
     1
 10
0.0
 20
0.0
 30
0.0
 70
     1
  0
VERTEX
  5
CE
  8
6MM_MDF_BOTOM_HOLDDOWN
 10
87.21313722749457
 20
68.94009712238329
 30
0.0
 42
0.4142135623730951
  0
VERTEX
  5
CF
  8
6MM_MDF_BOTOM_HOLDDOWN
 10
82.71313722749456
 20
64.44009712238329
 30
0.0
 42
0.4142135623730951
  0
VERTEX
  5
D0
  8
6MM_MDF_BOTOM_HOLDDOWN
 10
87.21313722749457
 20
59.94009712238329
 30
0.0
 42
0.4142135623730951
  0
VERTEX
  5
D1
  8
6MM_MDF_BOTOM_HOLDDOWN
 10
91.71313722749457
 20
64.44009712238329
 30
0.0
 42
0.4142135623730951
  0
SEQEND
  5
35B
  8
6MM_MDF_BOTOM_HOLDDOWN
  0
POLYLINE
  5
7C
  8
6MM_MDF_BOTOM_HOLDDOWN
 66
     1
 10
0.0
 20
0.0
 30
0.0
 70
     1
  0
VERTEX
  5
D2
  8
6MM_MDF_BOTOM_HOLDDOWN
 10
1521.471385315726
 20
510.7778309351477
 30
0.0
 42
0.4142135623730951
  0
VERTEX
  5
D3
  8
6MM_MDF_BOTOM_HOLDDOWN
 10
1516.971385315726
 20
506.2778309351477
 30
0.0
 42
0.4142135623730951
  0
VERTEX
  5
D4
  8
6MM_MDF_BOTOM_HOLDDOWN
 10
1521.471385315726
 20
501.7778309351477
 30
0.0
 42
0.4142135623730951
  0
VERTEX
  5
D5
  8
6MM_MDF_BOTOM_HOLDDOWN
 10
1525.971385315726
 20
506.2778309351477
 30
0.0
 42
0.4142135623730951
  0
SEQEND
  5
35C
  8
6MM_MDF_BOTOM_HOLDDOWN
  0
POLYLINE
  5
7D
  8
6MM_MDF_BOTOM_HOLDDOWN
 66
     1
 10
0.0
 20
0.0
 30
0.0
 70
     1
  0
VERTEX
  5
D6
  8
6MM_MDF_BOTOM_HOLDDOWN
 10
860.1380535331933
 20
510.7778309351477
 30
0.0
 42
0.4142135623730951
  0
VERTEX
  5
D7
  8
6MM_MDF_BOTOM_HOLDDOWN
 10
855.6380535331933
 20
506.2778309351477
 30
0.0
 42
0.4142135623730951
  0
VERTEX
  5
D8
  8
6MM_MDF_BOTOM_HOLDDOWN
 10
860.1380535331933
 20
501.7778309351477
 30
0.0
 42
0.4142135623730951
  0
VERTEX
  5
D9
  8
6MM_MDF_BOTOM_HOLDDOWN
 10
864.6380535331933
 20
506.2778309351477
 30
0.0
 42
0.4142135623730951
  0
SEQEND
  5
35D
  8
6MM_MDF_BOTOM_HOLDDOWN
  0
POLYLINE
  5
7E
  8
6MM_MDF_BOTOM_HOLDDOWN
 66
     1
 10
0.0
 20
0.0
 30
0.0
 70
     1
  0
VERTEX
  5
DA
  8
6MM_MDF_BOTOM_HOLDDOWN
 10
1521.471385315726
 20
68.94009712240597
 30
0.0
 42
0.4142135623730951
  0
VERTEX
  5
DB
  8
6MM_MDF_BOTOM_HOLDDOWN
 10
1516.971385315726
 20
64.44009712240597
 30
0.0
 42
0.4142135623730951
  0
VERTEX
  5
DC
  8
6MM_MDF_BOTOM_HOLDDOWN
 10
1521.471385315726
 20
59.94009712240597
 30
0.0
 42
0.4142135623730951
  0
VERTEX
  5
DD
  8
6MM_MDF_BOTOM_HOLDDOWN
 10
1525.971385315726
 20
64.44009712240597
 30
0.0
 42
0.4142135623730951
  0
SEQEND
  5
35E
  8
6MM_MDF_BOTOM_HOLDDOWN
  0
POLYLINE
  5
7F
  8
6MM_MDF_BOTOM_HOLDDOWN
 66
     1
 10
0.0
 20
0.0
 30
0.0
 70
     1
  0
VERTEX
  5
DE
  8
6MM_MDF_BOTOM_HOLDDOWN
 10
860.1380535331933
 20
68.94009712240597
 30
0.0
 42
0.4142135623730951
  0
VERTEX
  5
DF
  8
6MM_MDF_BOTOM_HOLDDOWN
 10
855.6380535331933
 20
64.44009712240597
 30
0.0
 42
0.4142135623730951
  0
VERTEX
  5
E0
  8
6MM_MDF_BOTOM_HOLDDOWN
 10
860.1380535331933
 20
59.94009712240597
 30
0.0
 42
0.4142135623730951
  0
VERTEX
  5
E1
  8
6MM_MDF_BOTOM_HOLDDOWN
 10
864.6380535331933
 20
64.44009712240597
 30
0.0
 42
0.4142135623730951
  0
SEQEND
  5
35F
  8
6MM_MDF_BOTOM_HOLDDOWN
  0
POLYLINE
  5
80
  8
6MM_MDF_BOTOM_HOLDDOWN
 66
     1
 10
0.0
 20
0.0
 30
0.0
 70
     1
  0
VERTEX
  5
E2
  8
6MM_MDF_BOTOM_HOLDDOWN
 10
2297.413831358891
 20
510.7778309351477
 30
0.0
 42
0.4142135623730951
  0
VERTEX
  5
E3
  8
6MM_MDF_BOTOM_HOLDDOWN
 10
2292.913831358891
 20
506.2778309351477
 30
0.0
 42
0.4142135623730951
  0
VERTEX
  5
E4
  8
6MM_MDF_BOTOM_HOLDDOWN
 10
2297.413831358891
 20
501.7778309351477
 30
0.0
 42
0.4142135623730951
  0
VERTEX
  5
E5
  8
6MM_MDF_BOTOM_HOLDDOWN
 10
2301.913831358891
 20
506.2778309351477
 30
0.0
 42
0.4142135623730951
  0
SEQEND
  5
360
  8
6MM_MDF_BOTOM_HOLDDOWN
  0
POLYLINE
  5
81
  8
6MM_MDF_BOTOM_HOLDDOWN
 66
     1
 10
0.0
 20
0.0
 30
0.0
 70
     1
  0
VERTEX
  5
E6
  8
6MM_MDF_BOTOM_HOLDDOWN
 10
1636.080499576358
 20
510.7778309351477
 30
0.0
 42
0.4142135623730951
  0
VERTEX
  5
E7
  8
6MM_MDF_BOTOM_HOLDDOWN
 10
1631.580499576358
 20
506.2778309351477
 30
0.0
 42
0.4142135623730951
  0
VERTEX
  5
E8
  8
6MM_MDF_BOTOM_HOLDDOWN
 10
1636.080499576358
 20
501.7778309351477
 30
0.0
 42
0.4142135623730951
  0
VERTEX
  5
E9
  8
6MM_MDF_BOTOM_HOLDDOWN
 10
1640.580499576358
 20
506.2778309351477
 30
0.0
 42
0.4142135623730951
  0
SEQEND
  5
361
  8
6MM_MDF_BOTOM_HOLDDOWN
  0
POLYLINE
  5
82
  8
6MM_MDF_BOTOM_HOLDDOWN
 66
     1
 10
0.0
 20
0.0
 30
0.0
 70
     1
  0
VERTEX
  5
EA
  8
6MM_MDF_BOTOM_HOLDDOWN
 10
2297.413831358891
 20
68.94009712240597
 30
0.0
 42
0.4142135623730951
  0
VERTEX
  5
EB
  8
6MM_MDF_BOTOM_HOLDDOWN
 10
2292.913831358891
 20
64.44009712240597
 30
0.0
 42
0.4142135623730951
  0
VERTEX
  5
EC
  8
6MM_MDF_BOTOM_HOLDDOWN
 10
2297.413831358891
 20
59.94009712240597
 30
0.0
 42
0.4142135623730951
  0
VERTEX
  5
ED
  8
6MM_MDF_BOTOM_HOLDDOWN
 10
2301.913831358891
 20
64.44009712240597
 30
0.0
 42
0.4142135623730951
  0
SEQEND
  5
362
  8
6MM_MDF_BOTOM_HOLDDOWN
  0
POLYLINE
  5
83
  8
6MM_MDF_BOTOM_HOLDDOWN
 66
     1
 10
0.0
 20
0.0
 30
0.0
 70
     1
  0
VERTEX
  5
EE
  8
6MM_MDF_BOTOM_HOLDDOWN
 10
1636.080499576358
 20
68.94009712240597
 30
0.0
 42
0.4142135623730951
  0
VERTEX
  5
EF
  8
6MM_MDF_BOTOM_HOLDDOWN
 10
1631.580499576358
 20
64.44009712240597
 30
0.0
 42
0.4142135623730951
  0
VERTEX
  5
F0
  8
6MM_MDF_BOTOM_HOLDDOWN
 10
1636.080499576358
 20
59.94009712240597
 30
0.0
 42
0.4142135623730951
  0
VERTEX
  5
F1
  8
6MM_MDF_BOTOM_HOLDDOWN
 10
1640.580499576358
 20
64.44009712240597
 30
0.0
 42
0.4142135623730951
  0
SEQEND
  5
363
  8
6MM_MDF_BOTOM_HOLDDOWN
  0
POLYLINE
  5
85
  8
6MM_MDF_BOTTOM_CUTOUT
 66
     1
 10
0.0
 20
0.0
 30
0.0
 70
     1
  0
VERTEX
  5
F2
  8
6MM_MDF_BOTTOM_CUTOUT
 10
770.717730661577
 20
559.2333260869514
 30
0.0
  0
VERTEX
  5
F3
  8
6MM_MDF_BOTTOM_CUTOUT
 10
770.717730661577
 20
551.4759667740407
 30
0.0
 42
1.0
  0
VERTEX
  5
F4
  8
6MM_MDF_BOTTOM_CUTOUT
 10
774.9603713486963
 20
547.2333260869214
 30
0.0
  0
VERTEX
  5
F5
  8
6MM_MDF_BOTTOM_CUTOUT
 10
790.717730661577
 20
547.2333260869214
 30
0.0
  0
VERTEX
  5
F6
  8
6MM_MDF_BOTTOM_CUTOUT
 10
790.7177306615778
 20
486.9759667740514
 30
0.0
 42
1.0
  0
VERTEX
  5
F7
  8
6MM_MDF_BOTTOM_CUTOUT
 10
794.9603713486971
 20
482.7333260869323
 30
0.0
  0
VERTEX
  5
F8
  8
6MM_MDF_BOTTOM_CUTOUT
 10
802.7177306615779
 20
482.7333260869323
 30
0.0
  0
VERTEX
  5
F9
  8
6MM_MDF_BOTTOM_CUTOUT
 10
802.717730661577
 20
418.2333260869414
 30
0.0
  0
VERTEX
  5
FA
  8
6MM_MDF_BOTTOM_CUTOUT
 10
794.9603713486962
 20
418.2333260869414
 30
0.0
 42
1.0
  0
VERTEX
  5
FB
  8
6MM_MDF_BOTTOM_CUTOUT
 10
790.7177306615769
 20
413.990685399822
 30
0.0
  0
VERTEX
  5
FC
  8
6MM_MDF_BOTTOM_CUTOUT
 10
790.717730661575
 20
337.9759667740495
 30
0.0
 42
1.0
  0
VERTEX
  5
FD
  8
6MM_MDF_BOTTOM_CUTOUT
 10
794.9603713486944
 20
333.7333260869302
 30
0.0
  0
VERTEX
  5
FE
  8
6MM_MDF_BOTTOM_CUTOUT
 10
802.7177306615749
 20
333.7333260869302
 30
0.0
  0
VERTEX
  5
FF
  8
6MM_MDF_BOTTOM_CUTOUT
 10
802.7177306615627
 20
244.7333260869594
 30
0.0
  0
VERTEX
  5
100
  8
6MM_MDF_BOTTOM_CUTOUT
 10
794.960371348682
 20
244.7333260869594
 30
0.0
 42
1.0
  0
VERTEX
  5
101
  8
6MM_MDF_BOTTOM_CUTOUT
 10
790.7177306615627
 20
240.4906853998401
 30
0.0
  0
VERTEX
  5
102
  8
6MM_MDF_BOTTOM_CUTOUT
 10
790.7177306615638
 20
164.4759667740668
 30
0.0
 42
1.0
  0
VERTEX
  5
103
  8
6MM_MDF_BOTTOM_CUTOUT
 10
794.9603713486831
 20
160.2333260869476
 30
0.0
  0
VERTEX
  5
104
  8
6MM_MDF_BOTTOM_CUTOUT
 10
802.7177306615647
 20
160.2333260869476
 30
0.0
  0
VERTEX
  5
105
  8
6MM_MDF_BOTTOM_CUTOUT
 10
802.717730661566
 20
95.73332608695691
 30
0.0
  0
VERTEX
  5
106
  8
6MM_MDF_BOTTOM_CUTOUT
 10
794.9603713486852
 20
95.73332608695691
 30
0.0
 42
1.0
  0
VERTEX
  5
107
  8
6MM_MDF_BOTTOM_CUTOUT
 10
790.7177306615658
 20
91.4906853998377
 30
0.0
  0
VERTEX
  5
108
  8
6MM_MDF_BOTTOM_CUTOUT
 10
790.7177306615648
 20
31.23332608695144
 30
0.0
  0
VERTEX
  5
109
  8
6MM_MDF_BOTTOM_CUTOUT
 10
774.9603713486962
 20
31.23332608695141
 30
0.0
 42
1.0
  0
VERTEX
  5
10A
  8
6MM_MDF_BOTTOM_CUTOUT
 10
770.7177306615769
 20
26.9906853998321
 30
0.0
  0
VERTEX
  5
10B
  8
6MM_MDF_BOTTOM_CUTOUT
 10
770.7177306615769
 20
19.23332608693686
 30
0.0
  0
VERTEX
  5
10C
  8
6MM_MDF_BOTTOM_CUTOUT
 10
703.2177306615708
 20
19.23332608695144
 30
0.0
  0
VERTEX
  5
10D
  8
6MM_MDF_BOTTOM_CUTOUT
 10
703.2177306615729
 20
26.99068539983133
 30
0.0
 42
1.0
  0
VERTEX
  5
10E
  8
6MM_MDF_BOTTOM_CUTOUT
 10
698.9750899744538
 20
31.23332608695156
 30
0.0
  0
VERTEX
  5
10F
  8
6MM_MDF_BOTTOM_CUTOUT
 10
613.9603713486933
 20
31.23332608695494
 30
0.0
 42
1.0
  0
VERTEX
  5
110
  8
6MM_MDF_BOTTOM_CUTOUT
 10
609.7177306615738
 20
26.99068539983562
 30
0.0
  0
VERTEX
  5
111
  8
6MM_MDF_BOTTOM_CUTOUT
 10
609.7177306615738
 20
19.23332608695505
 30
0.0
  0
VERTEX
  5
112
  8
6MM_MDF_BOTTOM_CUTOUT
 10
516.2177306615747
 20
19.23332608695508
 30
0.0
  0
VERTEX
  5
113
  8
6MM_MDF_BOTTOM_CUTOUT
 10
516.2177306615747
 20
26.99068539983508
 30
0.0
 42
1.0
  0
VERTEX
  5
114
  8
6MM_MDF_BOTTOM_CUTOUT
 10
511.9750899744549
 20
31.2333260869544
 30
0.0
  0
VERTEX
  5
115
  8
6MM_MDF_BOTTOM_CUTOUT
 10
473.7103713486933
 20
31.23332608694846
 30
0.0
 42
1.0
  0
VERTEX
  5
116
  8
6MM_MDF_BOTTOM_CUTOUT
 10
469.4677306615747
 20
26.99068539982914
 30
0.0
  0
VERTEX
  5
117
  8
6MM_MDF_BOTTOM_CUTOUT
 10
469.4677306615747
 20
19.23332608695141
 30
0.0
  0
VERTEX
  5
118
  8
6MM_MDF_BOTTOM_CUTOUT
 10
375.9677306615648
 20
19.2333260869278
 30
0.0
  0
VERTEX
  5
119
  8
6MM_MDF_BOTTOM_CUTOUT
 10
375.9677306615647
 20
26.99068539980723
 30
0.0
 42
1.0
  0
VERTEX
  5
11A
  8
6MM_MDF_BOTTOM_CUTOUT
 10
371.725089974446
 20
31.23332608692643
 30
0.0
  0
VERTEX
  5
11B
  8
6MM_MDF_BOTTOM_CUTOUT
 10
333.4603713486836
 20
31.23332608693098
 30
0.0
 42
1.0
  0
VERTEX
  5
11C
  8
6MM_MDF_BOTTOM_CUTOUT
 10
329.2177306615638
 20
26.99068539981166
 30
0.0
  0
VERTEX
  5
11D
  8
6MM_MDF_BOTTOM_CUTOUT
 10
329.2177306615638
 20
19.23332608693143
 30
0.0
  0
VERTEX
  5
11E
  8
6MM_MDF_BOTTOM_CUTOUT
 10
235.7177306615651
 20
19.23332608693141
 30
0.0
  0
VERTEX
  5
11F
  8
6MM_MDF_BOTTOM_CUTOUT
 10
235.717730661565
 20
26.99068539981197
 30
0.0
 42
1.0
  0
VERTEX
  5
120
  8
6MM_MDF_BOTTOM_CUTOUT
 10
231.4750899744456
 20
31.23332608693129
 30
0.0
  0
VERTEX
  5
121
  8
6MM_MDF_BOTTOM_CUTOUT
 10
146.4603713486851
 20
31.23332608692788
 30
0.0
 42
1.0
  0
VERTEX
  5
122
  8
6MM_MDF_BOTTOM_CUTOUT
 10
142.217730661566
 20
26.99068539980765
 30
0.0
  0
VERTEX
  5
123
  8
6MM_MDF_BOTTOM_CUTOUT
 10
142.2177306615681
 20
19.23332608692777
 30
0.0
  0
VERTEX
  5
124
  8
6MM_MDF_BOTTOM_CUTOUT
 10
74.71773066157489
 20
19.23332608691506
 30
0.0
  0
VERTEX
  5
125
  8
6MM_MDF_BOTTOM_CUTOUT
 10
74.71773066157489
 20
26.99068539980848
 30
0.0
 42
1.0
  0
VERTEX
  5
126
  8
6MM_MDF_BOTTOM_CUTOUT
 10
70.47508997445557
 20
31.2333260869278
 30
0.0
  0
VERTEX
  5
127
  8
6MM_MDF_BOTTOM_CUTOUT
 10
54.71773066157488
 20
31.2333260869278
 30
0.0
  0
VERTEX
  5
128
  8
6MM_MDF_BOTTOM_CUTOUT
 10
54.71773066157306
 20
91.49068539981599
 30
0.0
 42
1.0
  0
VERTEX
  5
129
  8
6MM_MDF_BOTTOM_CUTOUT
 10
50.47508997445374
 20
95.73332608693508
 30
0.0
  0
VERTEX
  5
12A
  8
6MM_MDF_BOTTOM_CUTOUT
 10
42.71773066157306
 20
95.73332608693508
 30
0.0
  0
VERTEX
  5
12B
  8
6MM_MDF_BOTTOM_CUTOUT
 10
42.7177306615751
 20
160.233326086926
 30
0.0
  0
VERTEX
  5
12C
  8
6MM_MDF_BOTTOM_CUTOUT
 10
50.47508997445578
 20
160.233326086926
 30
0.0
 42
1.0
  0
VERTEX
  5
12D
  8
6MM_MDF_BOTTOM_CUTOUT
 10
54.71773066157511
 20
164.4759667740452
 30
0.0
  0
VERTEX
  5
12E
  8
6MM_MDF_BOTTOM_CUTOUT
 10
54.71773066157591
 20
240.4906853998176
 30
0.0
 42
1.0
  0
VERTEX
  5
12F
  8
6MM_MDF_BOTTOM_CUTOUT
 10
50.47508997445658
 20
244.7333260869369
 30
0.0
  0
VERTEX
  5
130
  8
6MM_MDF_BOTTOM_CUTOUT
 10
42.7177306615759
 20
244.7333260869369
 30
0.0
  0
VERTEX
  5
131
  8
6MM_MDF_BOTTOM_CUTOUT
 10
42.71773066158886
 20
333.7333260869077
 30
0.0
  0
VERTEX
  5
132
  8
6MM_MDF_BOTTOM_CUTOUT
 10
50.47508997446954
 20
333.7333260869077
 30
0.0
 42
1.0
  0
VERTEX
  5
133
  8
6MM_MDF_BOTTOM_CUTOUT
 10
54.71773066158887
 20
337.975966774027
 30
0.0
  0
VERTEX
  5
134
  8
6MM_MDF_BOTTOM_CUTOUT
 10
54.71773066158796
 20
413.9906853997994
 30
0.0
 42
1.0
  0
VERTEX
  5
135
  8
6MM_MDF_BOTTOM_CUTOUT
 10
50.47508997446863
 20
418.2333260869186
 30
0.0
  0
VERTEX
  5
136
  8
6MM_MDF_BOTTOM_CUTOUT
 10
42.71773066158795
 20
418.2333260869186
 30
0.0
  0
VERTEX
  5
137
  8
6MM_MDF_BOTTOM_CUTOUT
 10
42.71773066158613
 20
482.7333260869095
 30
0.0
  0
VERTEX
  5
138
  8
6MM_MDF_BOTTOM_CUTOUT
 10
50.47508997446681
 20
482.7333260869095
 30
0.0
 42
1.0
  0
VERTEX
  5
139
  8
6MM_MDF_BOTTOM_CUTOUT
 10
54.71773066158614
 20
486.9759667740286
 30
0.0
  0
VERTEX
  5
13A
  8
6MM_MDF_BOTTOM_CUTOUT
 10
54.71773066158796
 20
547.2333260869149
 30
0.0
  0
VERTEX
  5
13B
  8
6MM_MDF_BOTTOM_CUTOUT
 10
70.47508997445637
 20
547.2333260869149
 30
0.0
 42
1.0
  0
VERTEX
  5
13C
  8
6MM_MDF_BOTTOM_CUTOUT
 10
74.71773066157569
 20
551.4759667740335
 30
0.0
  0
VERTEX
  5
13D
  8
6MM_MDF_BOTTOM_CUTOUT
 10
74.71773066157705
 20
559.2333260869276
 30
0.0
  0
VERTEX
  5
13E
  8
6MM_MDF_BOTTOM_CUTOUT
 10
142.2177306615812
 20
559.2333260869149
 30
0.0
  0
VERTEX
  5
13F
  8
6MM_MDF_BOTTOM_CUTOUT
 10
142.2177306615791
 20
551.4759667740351
 30
0.0
 42
1.0
  0
VERTEX
  5
140
  8
6MM_MDF_BOTTOM_CUTOUT
 10
146.4603713486982
 20
547.2333260869149
 30
0.0
  0
VERTEX
  5
141
  8
6MM_MDF_BOTTOM_CUTOUT
 10
231.4750899744587
 20
547.2333260869121
 30
0.0
 42
1.0
  0
VERTEX
  5
142
  8
6MM_MDF_BOTTOM_CUTOUT
 10
235.7177306615781
 20
551.4759667740317
 30
0.0
  0
VERTEX
  5
143
  8
6MM_MDF_BOTTOM_CUTOUT
 10
235.7177306615781
 20
559.2333260869121
 30
0.0
  0
VERTEX
  5
144
  8
6MM_MDF_BOTTOM_CUTOUT
 10
329.2177306615769
 20
559.2333260869121
 30
0.0
  0
VERTEX
  5
145
  8
6MM_MDF_BOTTOM_CUTOUT
 10
329.2177306615769
 20
551.4759667740321
 30
0.0
 42
1.0
  0
VERTEX
  5
146
  8
6MM_MDF_BOTTOM_CUTOUT
 10
333.4603713486969
 20
547.2333260869126
 30
0.0
  0
VERTEX
  5
147
  8
6MM_MDF_BOTTOM_CUTOUT
 10
371.7250899744593
 20
547.233326086918
 30
0.0
 42
1.0
  0
VERTEX
  5
148
  8
6MM_MDF_BOTTOM_CUTOUT
 10
375.9677306615781
 20
551.4759667740371
 30
0.0
  0
VERTEX
  5
149
  8
6MM_MDF_BOTTOM_CUTOUT
 10
375.9677306615781
 20
559.2333260869149
 30
0.0
  0
VERTEX
  5
14A
  8
6MM_MDF_BOTTOM_CUTOUT
 10
469.4677306615869
 20
559.2333260869386
 30
0.0
  0
VERTEX
  5
14B
  8
6MM_MDF_BOTTOM_CUTOUT
 10
469.4677306615869
 20
551.47596677406
 30
0.0
 42
1.0
  0
VERTEX
  5
14C
  8
6MM_MDF_BOTTOM_CUTOUT
 10
473.7103713487056
 20
547.2333260869409
 30
0.0
  0
VERTEX
  5
14D
  8
6MM_MDF_BOTTOM_CUTOUT
 10
511.9750899744672
 20
547.2333260869354
 30
0.0
 42
1.0
  0
VERTEX
  5
14E
  8
6MM_MDF_BOTTOM_CUTOUT
 10
516.217730661587
 20
551.475966774055
 30
0.0
  0
VERTEX
  5
14F
  8
6MM_MDF_BOTTOM_CUTOUT
 10
516.217730661587
 20
559.233326086935
 30
0.0
  0
VERTEX
  5
150
  8
6MM_MDF_BOTTOM_CUTOUT
 10
609.7177306615857
 20
559.233326086935
 30
0.0
  0
VERTEX
  5
151
  8
6MM_MDF_BOTTOM_CUTOUT
 10
609.7177306615857
 20
551.4759667740545
 30
0.0
 42
1.0
  0
VERTEX
  5
152
  8
6MM_MDF_BOTTOM_CUTOUT
 10
613.9603713487053
 20
547.233326086935
 30
0.0
  0
VERTEX
  5
153
  8
6MM_MDF_BOTTOM_CUTOUT
 10
698.975089974466
 20
547.2333260869386
 30
0.0
 42
1.0
  0
VERTEX
  5
154
  8
6MM_MDF_BOTTOM_CUTOUT
 10
703.217730661585
 20
551.4759667740584
 30
0.0
  0
VERTEX
  5
155
  8
6MM_MDF_BOTTOM_CUTOUT
 10
703.2177306615839
 20
559.2333260869386
 30
0.0
  0
SEQEND
  5
364
  8
6MM_MDF_BOTTOM_CUTOUT
  0
POLYLINE
  5
86
  8
6MM_MDF_BOTTOM_CUTOUT
 66
     1
 10
0.0
 20
0.0
 30
0.0
 70
     1
  0
VERTEX
  5
156
  8
6MM_MDF_BOTTOM_CUTOUT
 10
771.0223695652185
 20
1108.207079136708
 30
0.0
  0
VERTEX
  5
157
  8
6MM_MDF_BOTTOM_CUTOUT
 10
771.0223695652185
 20
1100.449719823798
 30
0.0
 42
1.0
  0
VERTEX
  5
158
  8
6MM_MDF_BOTTOM_CUTOUT
 10
775.2650102523378
 20
1096.207079136678
 30
0.0
  0
VERTEX
  5
159
  8
6MM_MDF_BOTTOM_CUTOUT
 10
791.0223695652185
 20
1096.207079136678
 30
0.0
  0
VERTEX
  5
15A
  8
6MM_MDF_BOTTOM_CUTOUT
 10
791.0223695652193
 20
1035.949719823808
 30
0.0
 42
1.0
  0
VERTEX
  5
15B
  8
6MM_MDF_BOTTOM_CUTOUT
 10
795.2650102523386
 20
1031.707079136689
 30
0.0
  0
VERTEX
  5
15C
  8
6MM_MDF_BOTTOM_CUTOUT
 10
803.0223695652194
 20
1031.707079136689
 30
0.0
  0
VERTEX
  5
15D
  8
6MM_MDF_BOTTOM_CUTOUT
 10
803.0223695652185
 20
967.2070791366982
 30
0.0
  0
VERTEX
  5
15E
  8
6MM_MDF_BOTTOM_CUTOUT
 10
795.2650102523377
 20
967.2070791366982
 30
0.0
 42
1.0
  0
VERTEX
  5
15F
  8
6MM_MDF_BOTTOM_CUTOUT
 10
791.0223695652184
 20
962.9644384495789
 30
0.0
  0
VERTEX
  5
160
  8
6MM_MDF_BOTTOM_CUTOUT
 10
791.0223695652165
 20
886.9497198238064
 30
0.0
 42
1.0
  0
VERTEX
  5
161
  8
6MM_MDF_BOTTOM_CUTOUT
 10
795.2650102523359
 20
882.7070791366871
 30
0.0
  0
VERTEX
  5
162
  8
6MM_MDF_BOTTOM_CUTOUT
 10
803.0223695652164
 20
882.7070791366871
 30
0.0
  0
VERTEX
  5
163
  8
6MM_MDF_BOTTOM_CUTOUT
 10
803.0223695652041
 20
793.7070791367162
 30
0.0
  0
VERTEX
  5
164
  8
6MM_MDF_BOTTOM_CUTOUT
 10
795.2650102523235
 20
793.7070791367162
 30
0.0
 42
1.0
  0
VERTEX
  5
165
  8
6MM_MDF_BOTTOM_CUTOUT
 10
791.0223695652041
 20
789.4644384495969
 30
0.0
  0
VERTEX
  5
166
  8
6MM_MDF_BOTTOM_CUTOUT
 10
791.0223695652053
 20
713.4497198238236
 30
0.0
 42
1.0
  0
VERTEX
  5
167
  8
6MM_MDF_BOTTOM_CUTOUT
 10
795.2650102523246
 20
709.2070791367044
 30
0.0
  0
VERTEX
  5
168
  8
6MM_MDF_BOTTOM_CUTOUT
 10
803.0223695652062
 20
709.2070791367044
 30
0.0
  0
VERTEX
  5
169
  8
6MM_MDF_BOTTOM_CUTOUT
 10
803.0223695652074
 20
644.7070791367137
 30
0.0
  0
VERTEX
  5
16A
  8
6MM_MDF_BOTTOM_CUTOUT
 10
795.2650102523266
 20
644.7070791367137
 30
0.0
 42
1.0
  0
VERTEX
  5
16B
  8
6MM_MDF_BOTTOM_CUTOUT
 10
791.0223695652073
 20
640.4644384495945
 30
0.0
  0
VERTEX
  5
16C
  8
6MM_MDF_BOTTOM_CUTOUT
 10
791.0223695652063
 20
580.2070791367082
 30
0.0
  0
VERTEX
  5
16D
  8
6MM_MDF_BOTTOM_CUTOUT
 10
775.2650102523377
 20
580.2070791367082
 30
0.0
 42
1.0
  0
VERTEX
  5
16E
  8
6MM_MDF_BOTTOM_CUTOUT
 10
771.0223695652184
 20
575.9644384495889
 30
0.0
  0
VERTEX
  5
16F
  8
6MM_MDF_BOTTOM_CUTOUT
 10
771.0223695652184
 20
568.2070791366937
 30
0.0
  0
VERTEX
  5
170
  8
6MM_MDF_BOTTOM_CUTOUT
 10
703.5223695652123
 20
568.2070791367082
 30
0.0
  0
VERTEX
  5
171
  8
6MM_MDF_BOTTOM_CUTOUT
 10
703.5223695652144
 20
575.9644384495881
 30
0.0
 42
1.0
  0
VERTEX
  5
172
  8
6MM_MDF_BOTTOM_CUTOUT
 10
699.2797288780953
 20
580.2070791367083
 30
0.0
  0
VERTEX
  5
173
  8
6MM_MDF_BOTTOM_CUTOUT
 10
614.2650102523348
 20
580.2070791367117
 30
0.0
 42
1.0
  0
VERTEX
  5
174
  8
6MM_MDF_BOTTOM_CUTOUT
 10
610.0223695652153
 20
575.9644384495924
 30
0.0
  0
VERTEX
  5
175
  8
6MM_MDF_BOTTOM_CUTOUT
 10
610.0223695652153
 20
568.2070791367119
 30
0.0
  0
VERTEX
  5
176
  8
6MM_MDF_BOTTOM_CUTOUT
 10
516.5223695652162
 20
568.2070791367119
 30
0.0
  0
VERTEX
  5
177
  8
6MM_MDF_BOTTOM_CUTOUT
 10
516.5223695652162
 20
575.9644384495919
 30
0.0
 42
1.0
  0
VERTEX
  5
178
  8
6MM_MDF_BOTTOM_CUTOUT
 10
512.2797288780964
 20
580.2070791367112
 30
0.0
  0
VERTEX
  5
179
  8
6MM_MDF_BOTTOM_CUTOUT
 10
474.0150102523348
 20
580.2070791367053
 30
0.0
 42
1.0
  0
VERTEX
  5
17A
  8
6MM_MDF_BOTTOM_CUTOUT
 10
469.7723695652162
 20
575.9644384495859
 30
0.0
  0
VERTEX
  5
17B
  8
6MM_MDF_BOTTOM_CUTOUT
 10
469.7723695652162
 20
568.2070791367082
 30
0.0
  0
VERTEX
  5
17C
  8
6MM_MDF_BOTTOM_CUTOUT
 10
376.2723695652062
 20
568.2070791366846
 30
0.0
  0
VERTEX
  5
17D
  8
6MM_MDF_BOTTOM_CUTOUT
 10
376.2723695652062
 20
575.964438449564
 30
0.0
 42
1.0
  0
VERTEX
  5
17E
  8
6MM_MDF_BOTTOM_CUTOUT
 10
372.0297288780874
 20
580.2070791366832
 30
0.0
  0
VERTEX
  5
17F
  8
6MM_MDF_BOTTOM_CUTOUT
 10
333.7650102523251
 20
580.2070791366878
 30
0.0
 42
1.0
  0
VERTEX
  5
180
  8
6MM_MDF_BOTTOM_CUTOUT
 10
329.5223695652053
 20
575.9644384495684
 30
0.0
  0
VERTEX
  5
181
  8
6MM_MDF_BOTTOM_CUTOUT
 10
329.5223695652053
 20
568.2070791366882
 30
0.0
  0
VERTEX
  5
182
  8
6MM_MDF_BOTTOM_CUTOUT
 10
236.0223695652064
 20
568.2070791366882
 30
0.0
  0
VERTEX
  5
183
  8
6MM_MDF_BOTTOM_CUTOUT
 10
236.0223695652063
 20
575.9644384495688
 30
0.0
 42
1.0
  0
VERTEX
  5
184
  8
6MM_MDF_BOTTOM_CUTOUT
 10
231.7797288780869
 20
580.2070791366881
 30
0.0
  0
VERTEX
  5
185
  8
6MM_MDF_BOTTOM_CUTOUT
 10
146.7650102523264
 20
580.2070791366847
 30
0.0
 42
1.0
  0
VERTEX
  5
186
  8
6MM_MDF_BOTTOM_CUTOUT
 10
142.5223695652073
 20
575.9644384495645
 30
0.0
  0
VERTEX
  5
187
  8
6MM_MDF_BOTTOM_CUTOUT
 10
142.5223695652094
 20
568.2070791366846
 30
0.0
  0
VERTEX
  5
188
  8
6MM_MDF_BOTTOM_CUTOUT
 10
75.0223695652162
 20
568.2070791366718
 30
0.0
  0
VERTEX
  5
189
  8
6MM_MDF_BOTTOM_CUTOUT
 10
75.0223695652162
 20
575.9644384495653
 30
0.0
 42
1.0
  0
VERTEX
  5
18A
  8
6MM_MDF_BOTTOM_CUTOUT
 10
70.77972887809688
 20
580.2070791366846
 30
0.0
  0
VERTEX
  5
18B
  8
6MM_MDF_BOTTOM_CUTOUT
 10
55.0223695652162
 20
580.2070791366846
 30
0.0
  0
VERTEX
  5
18C
  8
6MM_MDF_BOTTOM_CUTOUT
 10
55.02236956521438
 20
640.4644384495728
 30
0.0
 42
1.0
  0
VERTEX
  5
18D
  8
6MM_MDF_BOTTOM_CUTOUT
 10
50.77972887809506
 20
644.7070791366918
 30
0.0
  0
VERTEX
  5
18E
  8
6MM_MDF_BOTTOM_CUTOUT
 10
43.02236956521438
 20
644.7070791366918
 30
0.0
  0
VERTEX
  5
18F
  8
6MM_MDF_BOTTOM_CUTOUT
 10
43.02236956521642
 20
709.2070791366828
 30
0.0
  0
VERTEX
  5
190
  8
6MM_MDF_BOTTOM_CUTOUT
 10
50.7797288780971
 20
709.2070791366828
 30
0.0
 42
1.0
  0
VERTEX
  5
191
  8
6MM_MDF_BOTTOM_CUTOUT
 10
55.02236956521642
 20
713.449719823802
 30
0.0
  0
VERTEX
  5
192
  8
6MM_MDF_BOTTOM_CUTOUT
 10
55.02236956521722
 20
789.4644384495743
 30
0.0
 42
1.0
  0
VERTEX
  5
193
  8
6MM_MDF_BOTTOM_CUTOUT
 10
50.7797288780979
 20
793.7070791366937
 30
0.0
  0
VERTEX
  5
194
  8
6MM_MDF_BOTTOM_CUTOUT
 10
43.02236956521722
 20
793.7070791366937
 30
0.0
  0
VERTEX
  5
195
  8
6MM_MDF_BOTTOM_CUTOUT
 10
43.02236956523018
 20
882.7070791366646
 30
0.0
  0
VERTEX
  5
196
  8
6MM_MDF_BOTTOM_CUTOUT
 10
50.77972887811086
 20
882.7070791366646
 30
0.0
 42
1.0
  0
VERTEX
  5
197
  8
6MM_MDF_BOTTOM_CUTOUT
 10
55.02236956523018
 20
886.9497198237839
 30
0.0
  0
VERTEX
  5
198
  8
6MM_MDF_BOTTOM_CUTOUT
 10
55.02236956522927
 20
962.9644384495563
 30
0.0
 42
1.0
  0
VERTEX
  5
199
  8
6MM_MDF_BOTTOM_CUTOUT
 10
50.77972887810995
 20
967.2070791366755
 30
0.0
  0
VERTEX
  5
19A
  8
6MM_MDF_BOTTOM_CUTOUT
 10
43.02236956522927
 20
967.2070791366755
 30
0.0
  0
VERTEX
  5
19B
  8
6MM_MDF_BOTTOM_CUTOUT
 10
43.02236956522745
 20
1031.707079136666
 30
0.0
  0
VERTEX
  5
19C
  8
6MM_MDF_BOTTOM_CUTOUT
 10
50.77972887810813
 20
1031.707079136666
 30
0.0
 42
1.0
  0
VERTEX
  5
19D
  8
6MM_MDF_BOTTOM_CUTOUT
 10
55.02236956522745
 20
1035.949719823785
 30
0.0
  0
VERTEX
  5
19E
  8
6MM_MDF_BOTTOM_CUTOUT
 10
55.02236956522927
 20
1096.207079136672
 30
0.0
  0
VERTEX
  5
19F
  8
6MM_MDF_BOTTOM_CUTOUT
 10
70.77972887809767
 20
1096.207079136672
 30
0.0
 42
1.0
  0
VERTEX
  5
1A0
  8
6MM_MDF_BOTTOM_CUTOUT
 10
75.02236956521699
 20
1100.44971982379
 30
0.0
  0
VERTEX
  5
1A1
  8
6MM_MDF_BOTTOM_CUTOUT
 10
75.02236956521836
 20
1108.207079136685
 30
0.0
  0
VERTEX
  5
1A2
  8
6MM_MDF_BOTTOM_CUTOUT
 10
142.5223695652224
 20
1108.207079136672
 30
0.0
  0
VERTEX
  5
1A3
  8
6MM_MDF_BOTTOM_CUTOUT
 10
142.5223695652204
 20
1100.449719823792
 30
0.0
 42
1.0
  0
VERTEX
  5
1A4
  8
6MM_MDF_BOTTOM_CUTOUT
 10
146.7650102523395
 20
1096.207079136672
 30
0.0
  0
VERTEX
  5
1A5
  8
6MM_MDF_BOTTOM_CUTOUT
 10
231.7797288781
 20
1096.207079136669
 30
0.0
 42
1.0
  0
VERTEX
  5
1A6
  8
6MM_MDF_BOTTOM_CUTOUT
 10
236.0223695652194
 20
1100.449719823789
 30
0.0
  0
VERTEX
  5
1A7
  8
6MM_MDF_BOTTOM_CUTOUT
 10
236.0223695652194
 20
1108.207079136669
 30
0.0
  0
VERTEX
  5
1A8
  8
6MM_MDF_BOTTOM_CUTOUT
 10
329.5223695652184
 20
1108.207079136669
 30
0.0
  0
VERTEX
  5
1A9
  8
6MM_MDF_BOTTOM_CUTOUT
 10
329.5223695652184
 20
1100.449719823789
 30
0.0
 42
1.0
  0
VERTEX
  5
1AA
  8
6MM_MDF_BOTTOM_CUTOUT
 10
333.7650102523384
 20
1096.20707913667
 30
0.0
  0
VERTEX
  5
1AB
  8
6MM_MDF_BOTTOM_CUTOUT
 10
372.0297288781008
 20
1096.207079136675
 30
0.0
 42
1.0
  0
VERTEX
  5
1AC
  8
6MM_MDF_BOTTOM_CUTOUT
 10
376.2723695652195
 20
1100.449719823794
 30
0.0
  0
VERTEX
  5
1AD
  8
6MM_MDF_BOTTOM_CUTOUT
 10
376.2723695652195
 20
1108.207079136672
 30
0.0
  0
VERTEX
  5
1AE
  8
6MM_MDF_BOTTOM_CUTOUT
 10
469.7723695652284
 20
1108.207079136695
 30
0.0
  0
VERTEX
  5
1AF
  8
6MM_MDF_BOTTOM_CUTOUT
 10
469.7723695652284
 20
1100.449719823817
 30
0.0
 42
1.0
  0
VERTEX
  5
1B0
  8
6MM_MDF_BOTTOM_CUTOUT
 10
474.0150102523471
 20
1096.207079136698
 30
0.0
  0
VERTEX
  5
1B1
  8
6MM_MDF_BOTTOM_CUTOUT
 10
512.2797288781087
 20
1096.207079136692
 30
0.0
 42
1.0
  0
VERTEX
  5
1B2
  8
6MM_MDF_BOTTOM_CUTOUT
 10
516.5223695652285
 20
1100.449719823812
 30
0.0
  0
VERTEX
  5
1B3
  8
6MM_MDF_BOTTOM_CUTOUT
 10
516.5223695652285
 20
1108.207079136692
 30
0.0
  0
VERTEX
  5
1B4
  8
6MM_MDF_BOTTOM_CUTOUT
 10
610.0223695652272
 20
1108.207079136692
 30
0.0
  0
VERTEX
  5
1B5
  8
6MM_MDF_BOTTOM_CUTOUT
 10
610.0223695652272
 20
1100.449719823811
 30
0.0
 42
1.0
  0
VERTEX
  5
1B6
  8
6MM_MDF_BOTTOM_CUTOUT
 10
614.2650102523468
 20
1096.207079136692
 30
0.0
  0
VERTEX
  5
1B7
  8
6MM_MDF_BOTTOM_CUTOUT
 10
699.2797288781074
 20
1096.207079136695
 30
0.0
 42
1.0
  0
VERTEX
  5
1B8
  8
6MM_MDF_BOTTOM_CUTOUT
 10
703.5223695652265
 20
1100.449719823815
 30
0.0
  0
VERTEX
  5
1B9
  8
6MM_MDF_BOTTOM_CUTOUT
 10
703.5223695652254
 20
1108.207079136695
 30
0.0
  0
SEQEND
  5
365
  8
6MM_MDF_BOTTOM_CUTOUT
  0
POLYLINE
  5
87
  8
6MM_MDF_BOTTOM_CUTOUT
 66
     1
 10
0.0
 20
0.0
 30
0.0
 70
     1
  0
VERTEX
  5
1BA
  8
6MM_MDF_BOTTOM_CUTOUT
 10
1538.58785611511
 20
1108.207079136708
 30
0.0
  0
VERTEX
  5
1BB
  8
6MM_MDF_BOTTOM_CUTOUT
 10
1538.58785611511
 20
1100.449719823798
 30
0.0
 42
1.0
  0
VERTEX
  5
1BC
  8
6MM_MDF_BOTTOM_CUTOUT
 10
1542.830496802229
 20
1096.207079136678
 30
0.0
  0
VERTEX
  5
1BD
  8
6MM_MDF_BOTTOM_CUTOUT
 10
1558.58785611511
 20
1096.207079136678
 30
0.0
  0
VERTEX
  5
1BE
  8
6MM_MDF_BOTTOM_CUTOUT
 10
1558.58785611511
 20
1035.949719823808
 30
0.0
 42
1.0
  0
VERTEX
  5
1BF
  8
6MM_MDF_BOTTOM_CUTOUT
 10
1562.83049680223
 20
1031.707079136689
 30
0.0
  0
VERTEX
  5
1C0
  8
6MM_MDF_BOTTOM_CUTOUT
 10
1570.587856115111
 20
1031.707079136689
 30
0.0
  0
VERTEX
  5
1C1
  8
6MM_MDF_BOTTOM_CUTOUT
 10
1570.58785611511
 20
967.2070791366982
 30
0.0
  0
VERTEX
  5
1C2
  8
6MM_MDF_BOTTOM_CUTOUT
 10
1562.830496802229
 20
967.2070791366982
 30
0.0
 42
1.0
  0
VERTEX
  5
1C3
  8
6MM_MDF_BOTTOM_CUTOUT
 10
1558.587856115109
 20
962.9644384495789
 30
0.0
  0
VERTEX
  5
1C4
  8
6MM_MDF_BOTTOM_CUTOUT
 10
1558.587856115108
 20
886.9497198238064
 30
0.0
 42
1.0
  0
VERTEX
  5
1C5
  8
6MM_MDF_BOTTOM_CUTOUT
 10
1562.830496802227
 20
882.7070791366871
 30
0.0
  0
VERTEX
  5
1C6
  8
6MM_MDF_BOTTOM_CUTOUT
 10
1570.587856115108
 20
882.7070791366871
 30
0.0
  0
VERTEX
  5
1C7
  8
6MM_MDF_BOTTOM_CUTOUT
 10
1570.587856115095
 20
793.7070791367162
 30
0.0
  0
VERTEX
  5
1C8
  8
6MM_MDF_BOTTOM_CUTOUT
 10
1562.830496802215
 20
793.7070791367162
 30
0.0
 42
1.0
  0
VERTEX
  5
1C9
  8
6MM_MDF_BOTTOM_CUTOUT
 10
1558.587856115095
 20
789.4644384495969
 30
0.0
  0
VERTEX
  5
1CA
  8
6MM_MDF_BOTTOM_CUTOUT
 10
1558.587856115096
 20
713.4497198238236
 30
0.0
 42
1.0
  0
VERTEX
  5
1CB
  8
6MM_MDF_BOTTOM_CUTOUT
 10
1562.830496802216
 20
709.2070791367044
 30
0.0
  0
VERTEX
  5
1CC
  8
6MM_MDF_BOTTOM_CUTOUT
 10
1570.587856115097
 20
709.2070791367044
 30
0.0
  0
VERTEX
  5
1CD
  8
6MM_MDF_BOTTOM_CUTOUT
 10
1570.587856115098
 20
644.7070791367137
 30
0.0
  0
VERTEX
  5
1CE
  8
6MM_MDF_BOTTOM_CUTOUT
 10
1562.830496802218
 20
644.7070791367137
 30
0.0
 42
1.0
  0
VERTEX
  5
1CF
  8
6MM_MDF_BOTTOM_CUTOUT
 10
1558.587856115098
 20
640.4644384495945
 30
0.0
  0
VERTEX
  5
1D0
  8
6MM_MDF_BOTTOM_CUTOUT
 10
1558.587856115098
 20
580.2070791367082
 30
0.0
  0
VERTEX
  5
1D1
  8
6MM_MDF_BOTTOM_CUTOUT
 10
1542.830496802229
 20
580.2070791367082
 30
0.0
 42
1.0
  0
VERTEX
  5
1D2
  8
6MM_MDF_BOTTOM_CUTOUT
 10
1538.587856115109
 20
575.9644384495889
 30
0.0
  0
VERTEX
  5
1D3
  8
6MM_MDF_BOTTOM_CUTOUT
 10
1538.587856115109
 20
568.2070791366937
 30
0.0
  0
VERTEX
  5
1D4
  8
6MM_MDF_BOTTOM_CUTOUT
 10
1471.087856115103
 20
568.2070791367082
 30
0.0
  0
VERTEX
  5
1D5
  8
6MM_MDF_BOTTOM_CUTOUT
 10
1471.087856115106
 20
575.9644384495881
 30
0.0
 42
1.0
  0
VERTEX
  5
1D6
  8
6MM_MDF_BOTTOM_CUTOUT
 10
1466.845215427986
 20
580.2070791367083
 30
0.0
  0
VERTEX
  5
1D7
  8
6MM_MDF_BOTTOM_CUTOUT
 10
1381.830496802226
 20
580.2070791367117
 30
0.0
 42
1.0
  0
VERTEX
  5
1D8
  8
6MM_MDF_BOTTOM_CUTOUT
 10
1377.587856115106
 20
575.9644384495924
 30
0.0
  0
VERTEX
  5
1D9
  8
6MM_MDF_BOTTOM_CUTOUT
 10
1377.587856115106
 20
568.2070791367119
 30
0.0
  0
VERTEX
  5
1DA
  8
6MM_MDF_BOTTOM_CUTOUT
 10
1284.087856115107
 20
568.2070791367119
 30
0.0
  0
VERTEX
  5
1DB
  8
6MM_MDF_BOTTOM_CUTOUT
 10
1284.087856115107
 20
575.9644384495919
 30
0.0
 42
1.0
  0
VERTEX
  5
1DC
  8
6MM_MDF_BOTTOM_CUTOUT
 10
1279.845215427988
 20
580.2070791367112
 30
0.0
  0
VERTEX
  5
1DD
  8
6MM_MDF_BOTTOM_CUTOUT
 10
1241.580496802226
 20
580.2070791367053
 30
0.0
 42
1.0
  0
VERTEX
  5
1DE
  8
6MM_MDF_BOTTOM_CUTOUT
 10
1237.337856115107
 20
575.9644384495859
 30
0.0
  0
VERTEX
  5
1DF
  8
6MM_MDF_BOTTOM_CUTOUT
 10
1237.337856115107
 20
568.2070791367082
 30
0.0
  0
VERTEX
  5
1E0
  8
6MM_MDF_BOTTOM_CUTOUT
 10
1143.837856115097
 20
568.2070791366846
 30
0.0
  0
VERTEX
  5
1E1
  8
6MM_MDF_BOTTOM_CUTOUT
 10
1143.837856115097
 20
575.964438449564
 30
0.0
 42
1.0
  0
VERTEX
  5
1E2
  8
6MM_MDF_BOTTOM_CUTOUT
 10
1139.595215427978
 20
580.2070791366832
 30
0.0
  0
VERTEX
  5
1E3
  8
6MM_MDF_BOTTOM_CUTOUT
 10
1101.330496802216
 20
580.2070791366878
 30
0.0
 42
1.0
  0
VERTEX
  5
1E4
  8
6MM_MDF_BOTTOM_CUTOUT
 10
1097.087856115096
 20
575.9644384495684
 30
0.0
  0
VERTEX
  5
1E5
  8
6MM_MDF_BOTTOM_CUTOUT
 10
1097.087856115096
 20
568.2070791366882
 30
0.0
  0
VERTEX
  5
1E6
  8
6MM_MDF_BOTTOM_CUTOUT
 10
1003.587856115098
 20
568.2070791366882
 30
0.0
  0
VERTEX
  5
1E7
  8
6MM_MDF_BOTTOM_CUTOUT
 10
1003.587856115097
 20
575.9644384495688
 30
0.0
 42
1.0
  0
VERTEX
  5
1E8
  8
6MM_MDF_BOTTOM_CUTOUT
 10
999.345215427978
 20
580.2070791366881
 30
0.0
  0
VERTEX
  5
1E9
  8
6MM_MDF_BOTTOM_CUTOUT
 10
914.3304968022176
 20
580.2070791366847
 30
0.0
 42
1.0
  0
VERTEX
  5
1EA
  8
6MM_MDF_BOTTOM_CUTOUT
 10
910.0878561150985
 20
575.9644384495645
 30
0.0
  0
VERTEX
  5
1EB
  8
6MM_MDF_BOTTOM_CUTOUT
 10
910.0878561151005
 20
568.2070791366846
 30
0.0
  0
VERTEX
  5
1EC
  8
6MM_MDF_BOTTOM_CUTOUT
 10
842.5878561151073
 20
568.2070791366718
 30
0.0
  0
VERTEX
  5
1ED
  8
6MM_MDF_BOTTOM_CUTOUT
 10
842.5878561151073
 20
575.9644384495653
 30
0.0
 42
1.0
  0
VERTEX
  5
1EE
  8
6MM_MDF_BOTTOM_CUTOUT
 10
838.345215427988
 20
580.2070791366846
 30
0.0
  0
VERTEX
  5
1EF
  8
6MM_MDF_BOTTOM_CUTOUT
 10
822.5878561151073
 20
580.2070791366846
 30
0.0
  0
VERTEX
  5
1F0
  8
6MM_MDF_BOTTOM_CUTOUT
 10
822.5878561151055
 20
640.4644384495728
 30
0.0
 42
1.0
  0
VERTEX
  5
1F1
  8
6MM_MDF_BOTTOM_CUTOUT
 10
818.3452154279862
 20
644.7070791366918
 30
0.0
  0
VERTEX
  5
1F2
  8
6MM_MDF_BOTTOM_CUTOUT
 10
810.5878561151055
 20
644.7070791366918
 30
0.0
  0
VERTEX
  5
1F3
  8
6MM_MDF_BOTTOM_CUTOUT
 10
810.5878561151076
 20
709.2070791366828
 30
0.0
  0
VERTEX
  5
1F4
  8
6MM_MDF_BOTTOM_CUTOUT
 10
818.3452154279883
 20
709.2070791366828
 30
0.0
 42
1.0
  0
VERTEX
  5
1F5
  8
6MM_MDF_BOTTOM_CUTOUT
 10
822.5878561151076
 20
713.449719823802
 30
0.0
  0
VERTEX
  5
1F6
  8
6MM_MDF_BOTTOM_CUTOUT
 10
822.5878561151084
 20
789.4644384495743
 30
0.0
 42
1.0
  0
VERTEX
  5
1F7
  8
6MM_MDF_BOTTOM_CUTOUT
 10
818.345215427989
 20
793.7070791366937
 30
0.0
  0
VERTEX
  5
1F8
  8
6MM_MDF_BOTTOM_CUTOUT
 10
810.5878561151084
 20
793.7070791366937
 30
0.0
  0
VERTEX
  5
1F9
  8
6MM_MDF_BOTTOM_CUTOUT
 10
810.5878561151213
 20
882.7070791366646
 30
0.0
  0
VERTEX
  5
1FA
  8
6MM_MDF_BOTTOM_CUTOUT
 10
818.345215428002
 20
882.7070791366646
 30
0.0
 42
1.0
  0
VERTEX
  5
1FB
  8
6MM_MDF_BOTTOM_CUTOUT
 10
822.5878561151213
 20
886.9497198237839
 30
0.0
  0
VERTEX
  5
1FC
  8
6MM_MDF_BOTTOM_CUTOUT
 10
822.5878561151204
 20
962.9644384495563
 30
0.0
 42
1.0
  0
VERTEX
  5
1FD
  8
6MM_MDF_BOTTOM_CUTOUT
 10
818.3452154280011
 20
967.2070791366755
 30
0.0
  0
VERTEX
  5
1FE
  8
6MM_MDF_BOTTOM_CUTOUT
 10
810.5878561151204
 20
967.2070791366755
 30
0.0
  0
VERTEX
  5
1FF
  8
6MM_MDF_BOTTOM_CUTOUT
 10
810.5878561151186
 20
1031.707079136666
 30
0.0
  0
VERTEX
  5
200
  8
6MM_MDF_BOTTOM_CUTOUT
 10
818.3452154279993
 20
1031.707079136666
 30
0.0
 42
1.0
  0
VERTEX
  5
201
  8
6MM_MDF_BOTTOM_CUTOUT
 10
822.5878561151186
 20
1035.949719823785
 30
0.0
  0
VERTEX
  5
202
  8
6MM_MDF_BOTTOM_CUTOUT
 10
822.5878561151204
 20
1096.207079136672
 30
0.0
  0
VERTEX
  5
203
  8
6MM_MDF_BOTTOM_CUTOUT
 10
838.3452154279888
 20
1096.207079136672
 30
0.0
 42
1.0
  0
VERTEX
  5
204
  8
6MM_MDF_BOTTOM_CUTOUT
 10
842.5878561151081
 20
1100.44971982379
 30
0.0
  0
VERTEX
  5
205
  8
6MM_MDF_BOTTOM_CUTOUT
 10
842.5878561151095
 20
1108.207079136685
 30
0.0
  0
VERTEX
  5
206
  8
6MM_MDF_BOTTOM_CUTOUT
 10
910.0878561151136
 20
1108.207079136672
 30
0.0
  0
VERTEX
  5
207
  8
6MM_MDF_BOTTOM_CUTOUT
 10
910.0878561151115
 20
1100.449719823792
 30
0.0
 42
1.0
  0
VERTEX
  5
208
  8
6MM_MDF_BOTTOM_CUTOUT
 10
914.3304968022306
 20
1096.207079136672
 30
0.0
  0
VERTEX
  5
209
  8
6MM_MDF_BOTTOM_CUTOUT
 10
999.3452154279912
 20
1096.207079136669
 30
0.0
 42
1.0
  0
VERTEX
  5
20A
  8
6MM_MDF_BOTTOM_CUTOUT
 10
1003.587856115111
 20
1100.449719823789
 30
0.0
  0
VERTEX
  5
20B
  8
6MM_MDF_BOTTOM_CUTOUT
 10
1003.587856115111
 20
1108.207079136669
 30
0.0
  0
VERTEX
  5
20C
  8
6MM_MDF_BOTTOM_CUTOUT
 10
1097.08785611511
 20
1108.207079136669
 30
0.0
  0
VERTEX
  5
20D
  8
6MM_MDF_BOTTOM_CUTOUT
 10
1097.08785611511
 20
1100.449719823789
 30
0.0
 42
1.0
  0
VERTEX
  5
20E
  8
6MM_MDF_BOTTOM_CUTOUT
 10
1101.33049680223
 20
1096.20707913667
 30
0.0
  0
VERTEX
  5
20F
  8
6MM_MDF_BOTTOM_CUTOUT
 10
1139.595215427992
 20
1096.207079136675
 30
0.0
 42
1.0
  0
VERTEX
  5
210
  8
6MM_MDF_BOTTOM_CUTOUT
 10
1143.837856115111
 20
1100.449719823794
 30
0.0
  0
VERTEX
  5
211
  8
6MM_MDF_BOTTOM_CUTOUT
 10
1143.837856115111
 20
1108.207079136672
 30
0.0
  0
VERTEX
  5
212
  8
6MM_MDF_BOTTOM_CUTOUT
 10
1237.33785611512
 20
1108.207079136695
 30
0.0
  0
VERTEX
  5
213
  8
6MM_MDF_BOTTOM_CUTOUT
 10
1237.33785611512
 20
1100.449719823817
 30
0.0
 42
1.0
  0
VERTEX
  5
214
  8
6MM_MDF_BOTTOM_CUTOUT
 10
1241.580496802238
 20
1096.207079136698
 30
0.0
  0
VERTEX
  5
215
  8
6MM_MDF_BOTTOM_CUTOUT
 10
1279.845215428
 20
1096.207079136692
 30
0.0
 42
1.0
  0
VERTEX
  5
216
  8
6MM_MDF_BOTTOM_CUTOUT
 10
1284.08785611512
 20
1100.449719823812
 30
0.0
  0
VERTEX
  5
217
  8
6MM_MDF_BOTTOM_CUTOUT
 10
1284.08785611512
 20
1108.207079136692
 30
0.0
  0
VERTEX
  5
218
  8
6MM_MDF_BOTTOM_CUTOUT
 10
1377.587856115118
 20
1108.207079136692
 30
0.0
  0
VERTEX
  5
219
  8
6MM_MDF_BOTTOM_CUTOUT
 10
1377.587856115118
 20
1100.449719823811
 30
0.0
 42
1.0
  0
VERTEX
  5
21A
  8
6MM_MDF_BOTTOM_CUTOUT
 10
1381.830496802238
 20
1096.207079136692
 30
0.0
  0
VERTEX
  5
21B
  8
6MM_MDF_BOTTOM_CUTOUT
 10
1466.845215427998
 20
1096.207079136695
 30
0.0
 42
1.0
  0
VERTEX
  5
21C
  8
6MM_MDF_BOTTOM_CUTOUT
 10
1471.087856115118
 20
1100.449719823815
 30
0.0
  0
VERTEX
  5
21D
  8
6MM_MDF_BOTTOM_CUTOUT
 10
1471.087856115117
 20
1108.207079136695
 30
0.0
  0
SEQEND
  5
366
  8
6MM_MDF_BOTTOM_CUTOUT
  0
POLYLINE
  5
88
  8
6MM_MDF_BOTTOM_CUTOUT
 66
     1
 10
0.0
 20
0.0
 30
0.0
 70
     1
  0
VERTEX
  5
21E
  8
6MM_MDF_BOTTOM_CUTOUT
 10
1538.58785611511
 20
559.2333260869741
 30
0.0
  0
VERTEX
  5
21F
  8
6MM_MDF_BOTTOM_CUTOUT
 10
1538.58785611511
 20
551.4759667740634
 30
0.0
 42
1.0
  0
VERTEX
  5
220
  8
6MM_MDF_BOTTOM_CUTOUT
 10
1542.830496802229
 20
547.2333260869441
 30
0.0
  0
VERTEX
  5
221
  8
6MM_MDF_BOTTOM_CUTOUT
 10
1558.58785611511
 20
547.2333260869441
 30
0.0
  0
VERTEX
  5
222
  8
6MM_MDF_BOTTOM_CUTOUT
 10
1558.58785611511
 20
486.9759667740741
 30
0.0
 42
1.0
  0
VERTEX
  5
223
  8
6MM_MDF_BOTTOM_CUTOUT
 10
1562.83049680223
 20
482.733326086955
 30
0.0
  0
VERTEX
  5
224
  8
6MM_MDF_BOTTOM_CUTOUT
 10
1570.587856115111
 20
482.733326086955
 30
0.0
  0
VERTEX
  5
225
  8
6MM_MDF_BOTTOM_CUTOUT
 10
1570.58785611511
 20
418.2333260869641
 30
0.0
  0
VERTEX
  5
226
  8
6MM_MDF_BOTTOM_CUTOUT
 10
1562.830496802229
 20
418.2333260869641
 30
0.0
 42
1.0
  0
VERTEX
  5
227
  8
6MM_MDF_BOTTOM_CUTOUT
 10
1558.587856115109
 20
413.9906853998448
 30
0.0
  0
VERTEX
  5
228
  8
6MM_MDF_BOTTOM_CUTOUT
 10
1558.587856115108
 20
337.9759667740723
 30
0.0
 42
1.0
  0
VERTEX
  5
229
  8
6MM_MDF_BOTTOM_CUTOUT
 10
1562.830496802227
 20
333.733326086953
 30
0.0
  0
VERTEX
  5
22A
  8
6MM_MDF_BOTTOM_CUTOUT
 10
1570.587856115108
 20
333.733326086953
 30
0.0
  0
VERTEX
  5
22B
  8
6MM_MDF_BOTTOM_CUTOUT
 10
1570.587856115095
 20
244.7333260869821
 30
0.0
  0
VERTEX
  5
22C
  8
6MM_MDF_BOTTOM_CUTOUT
 10
1562.830496802215
 20
244.7333260869821
 30
0.0
 42
1.0
  0
VERTEX
  5
22D
  8
6MM_MDF_BOTTOM_CUTOUT
 10
1558.587856115095
 20
240.4906853998628
 30
0.0
  0
VERTEX
  5
22E
  8
6MM_MDF_BOTTOM_CUTOUT
 10
1558.587856115096
 20
164.4759667740895
 30
0.0
 42
1.0
  0
VERTEX
  5
22F
  8
6MM_MDF_BOTTOM_CUTOUT
 10
1562.830496802216
 20
160.2333260869703
 30
0.0
  0
VERTEX
  5
230
  8
6MM_MDF_BOTTOM_CUTOUT
 10
1570.587856115097
 20
160.2333260869703
 30
0.0
  0
VERTEX
  5
231
  8
6MM_MDF_BOTTOM_CUTOUT
 10
1570.587856115098
 20
95.73332608697959
 30
0.0
  0
VERTEX
  5
232
  8
6MM_MDF_BOTTOM_CUTOUT
 10
1562.830496802218
 20
95.73332608697959
 30
0.0
 42
1.0
  0
VERTEX
  5
233
  8
6MM_MDF_BOTTOM_CUTOUT
 10
1558.587856115098
 20
91.49068539986038
 30
0.0
  0
VERTEX
  5
234
  8
6MM_MDF_BOTTOM_CUTOUT
 10
1558.587856115098
 20
31.23332608697413
 30
0.0
  0
VERTEX
  5
235
  8
6MM_MDF_BOTTOM_CUTOUT
 10
1542.830496802229
 20
31.2333260869741
 30
0.0
 42
1.0
  0
VERTEX
  5
236
  8
6MM_MDF_BOTTOM_CUTOUT
 10
1538.587856115109
 20
26.99068539985478
 30
0.0
  0
VERTEX
  5
237
  8
6MM_MDF_BOTTOM_CUTOUT
 10
1538.587856115109
 20
19.23332608695955
 30
0.0
  0
VERTEX
  5
238
  8
6MM_MDF_BOTTOM_CUTOUT
 10
1471.087856115103
 20
19.23332608697413
 30
0.0
  0
VERTEX
  5
239
  8
6MM_MDF_BOTTOM_CUTOUT
 10
1471.087856115106
 20
26.99068539985402
 30
0.0
 42
1.0
  0
VERTEX
  5
23A
  8
6MM_MDF_BOTTOM_CUTOUT
 10
1466.845215427986
 20
31.23332608697424
 30
0.0
  0
VERTEX
  5
23B
  8
6MM_MDF_BOTTOM_CUTOUT
 10
1381.830496802226
 20
31.23332608697763
 30
0.0
 42
1.0
  0
VERTEX
  5
23C
  8
6MM_MDF_BOTTOM_CUTOUT
 10
1377.587856115106
 20
26.99068539985831
 30
0.0
  0
VERTEX
  5
23D
  8
6MM_MDF_BOTTOM_CUTOUT
 10
1377.587856115106
 20
19.23332608697774
 30
0.0
  0
VERTEX
  5
23E
  8
6MM_MDF_BOTTOM_CUTOUT
 10
1284.087856115107
 20
19.23332608697777
 30
0.0
  0
VERTEX
  5
23F
  8
6MM_MDF_BOTTOM_CUTOUT
 10
1284.087856115107
 20
26.99068539985777
 30
0.0
 42
1.0
  0
VERTEX
  5
240
  8
6MM_MDF_BOTTOM_CUTOUT
 10
1279.845215427988
 20
31.23332608697709
 30
0.0
  0
VERTEX
  5
241
  8
6MM_MDF_BOTTOM_CUTOUT
 10
1241.580496802226
 20
31.23332608697115
 30
0.0
 42
1.0
  0
VERTEX
  5
242
  8
6MM_MDF_BOTTOM_CUTOUT
 10
1237.337856115107
 20
26.99068539985183
 30
0.0
  0
VERTEX
  5
243
  8
6MM_MDF_BOTTOM_CUTOUT
 10
1237.337856115107
 20
19.2333260869741
 30
0.0
  0
VERTEX
  5
244
  8
6MM_MDF_BOTTOM_CUTOUT
 10
1143.837856115097
 20
19.23332608695048
 30
0.0
  0
VERTEX
  5
245
  8
6MM_MDF_BOTTOM_CUTOUT
 10
1143.837856115097
 20
26.99068539982991
 30
0.0
 42
1.0
  0
VERTEX
  5
246
  8
6MM_MDF_BOTTOM_CUTOUT
 10
1139.595215427978
 20
31.23332608694912
 30
0.0
  0
VERTEX
  5
247
  8
6MM_MDF_BOTTOM_CUTOUT
 10
1101.330496802216
 20
31.23332608695367
 30
0.0
 42
1.0
  0
VERTEX
  5
248
  8
6MM_MDF_BOTTOM_CUTOUT
 10
1097.087856115096
 20
26.99068539983435
 30
0.0
  0
VERTEX
  5
249
  8
6MM_MDF_BOTTOM_CUTOUT
 10
1097.087856115096
 20
19.23332608695412
 30
0.0
  0
VERTEX
  5
24A
  8
6MM_MDF_BOTTOM_CUTOUT
 10
1003.587856115098
 20
19.23332608695409
 30
0.0
  0
VERTEX
  5
24B
  8
6MM_MDF_BOTTOM_CUTOUT
 10
1003.587856115097
 20
26.99068539983466
 30
0.0
 42
1.0
  0
VERTEX
  5
24C
  8
6MM_MDF_BOTTOM_CUTOUT
 10
999.345215427978
 20
31.23332608695398
 30
0.0
  0
VERTEX
  5
24D
  8
6MM_MDF_BOTTOM_CUTOUT
 10
914.3304968022176
 20
31.23332608695057
 30
0.0
 42
1.0
  0
VERTEX
  5
24E
  8
6MM_MDF_BOTTOM_CUTOUT
 10
910.0878561150985
 20
26.99068539983034
 30
0.0
  0
VERTEX
  5
24F
  8
6MM_MDF_BOTTOM_CUTOUT
 10
910.0878561151005
 20
19.23332608695046
 30
0.0
  0
VERTEX
  5
250
  8
6MM_MDF_BOTTOM_CUTOUT
 10
842.5878561151073
 20
19.23332608693775
 30
0.0
  0
VERTEX
  5
251
  8
6MM_MDF_BOTTOM_CUTOUT
 10
842.5878561151073
 20
26.99068539983116
 30
0.0
 42
1.0
  0
VERTEX
  5
252
  8
6MM_MDF_BOTTOM_CUTOUT
 10
838.345215427988
 20
31.23332608695048
 30
0.0
  0
VERTEX
  5
253
  8
6MM_MDF_BOTTOM_CUTOUT
 10
822.5878561151073
 20
31.23332608695048
 30
0.0
  0
VERTEX
  5
254
  8
6MM_MDF_BOTTOM_CUTOUT
 10
822.5878561151055
 20
91.49068539983867
 30
0.0
 42
1.0
  0
VERTEX
  5
255
  8
6MM_MDF_BOTTOM_CUTOUT
 10
818.3452154279862
 20
95.73332608695776
 30
0.0
  0
VERTEX
  5
256
  8
6MM_MDF_BOTTOM_CUTOUT
 10
810.5878561151055
 20
95.73332608695776
 30
0.0
  0
VERTEX
  5
257
  8
6MM_MDF_BOTTOM_CUTOUT
 10
810.5878561151076
 20
160.2333260869487
 30
0.0
  0
VERTEX
  5
258
  8
6MM_MDF_BOTTOM_CUTOUT
 10
818.3452154279883
 20
160.2333260869487
 30
0.0
 42
1.0
  0
VERTEX
  5
259
  8
6MM_MDF_BOTTOM_CUTOUT
 10
822.5878561151076
 20
164.4759667740679
 30
0.0
  0
VERTEX
  5
25A
  8
6MM_MDF_BOTTOM_CUTOUT
 10
822.5878561151084
 20
240.4906853998403
 30
0.0
 42
1.0
  0
VERTEX
  5
25B
  8
6MM_MDF_BOTTOM_CUTOUT
 10
818.345215427989
 20
244.7333260869596
 30
0.0
  0
VERTEX
  5
25C
  8
6MM_MDF_BOTTOM_CUTOUT
 10
810.5878561151084
 20
244.7333260869596
 30
0.0
  0
VERTEX
  5
25D
  8
6MM_MDF_BOTTOM_CUTOUT
 10
810.5878561151213
 20
333.7333260869304
 30
0.0
  0
VERTEX
  5
25E
  8
6MM_MDF_BOTTOM_CUTOUT
 10
818.345215428002
 20
333.7333260869304
 30
0.0
 42
1.0
  0
VERTEX
  5
25F
  8
6MM_MDF_BOTTOM_CUTOUT
 10
822.5878561151213
 20
337.9759667740498
 30
0.0
  0
VERTEX
  5
260
  8
6MM_MDF_BOTTOM_CUTOUT
 10
822.5878561151204
 20
413.9906853998222
 30
0.0
 42
1.0
  0
VERTEX
  5
261
  8
6MM_MDF_BOTTOM_CUTOUT
 10
818.3452154280011
 20
418.2333260869414
 30
0.0
  0
VERTEX
  5
262
  8
6MM_MDF_BOTTOM_CUTOUT
 10
810.5878561151204
 20
418.2333260869414
 30
0.0
  0
VERTEX
  5
263
  8
6MM_MDF_BOTTOM_CUTOUT
 10
810.5878561151186
 20
482.7333260869323
 30
0.0
  0
VERTEX
  5
264
  8
6MM_MDF_BOTTOM_CUTOUT
 10
818.3452154279993
 20
482.7333260869323
 30
0.0
 42
1.0
  0
VERTEX
  5
265
  8
6MM_MDF_BOTTOM_CUTOUT
 10
822.5878561151186
 20
486.9759667740514
 30
0.0
  0
VERTEX
  5
266
  8
6MM_MDF_BOTTOM_CUTOUT
 10
822.5878561151204
 20
547.2333260869376
 30
0.0
  0
VERTEX
  5
267
  8
6MM_MDF_BOTTOM_CUTOUT
 10
838.3452154279888
 20
547.2333260869376
 30
0.0
 42
1.0
  0
VERTEX
  5
268
  8
6MM_MDF_BOTTOM_CUTOUT
 10
842.5878561151081
 20
551.4759667740562
 30
0.0
  0
VERTEX
  5
269
  8
6MM_MDF_BOTTOM_CUTOUT
 10
842.5878561151095
 20
559.2333260869503
 30
0.0
  0
VERTEX
  5
26A
  8
6MM_MDF_BOTTOM_CUTOUT
 10
910.0878561151136
 20
559.2333260869376
 30
0.0
  0
VERTEX
  5
26B
  8
6MM_MDF_BOTTOM_CUTOUT
 10
910.0878561151115
 20
551.4759667740578
 30
0.0
 42
1.0
  0
VERTEX
  5
26C
  8
6MM_MDF_BOTTOM_CUTOUT
 10
914.3304968022306
 20
547.2333260869376
 30
0.0
  0
VERTEX
  5
26D
  8
6MM_MDF_BOTTOM_CUTOUT
 10
999.3452154279912
 20
547.2333260869349
 30
0.0
 42
1.0
  0
VERTEX
  5
26E
  8
6MM_MDF_BOTTOM_CUTOUT
 10
1003.587856115111
 20
551.4759667740544
 30
0.0
  0
VERTEX
  5
26F
  8
6MM_MDF_BOTTOM_CUTOUT
 10
1003.587856115111
 20
559.2333260869349
 30
0.0
  0
VERTEX
  5
270
  8
6MM_MDF_BOTTOM_CUTOUT
 10
1097.08785611511
 20
559.2333260869349
 30
0.0
  0
VERTEX
  5
271
  8
6MM_MDF_BOTTOM_CUTOUT
 10
1097.08785611511
 20
551.4759667740549
 30
0.0
 42
1.0
  0
VERTEX
  5
272
  8
6MM_MDF_BOTTOM_CUTOUT
 10
1101.33049680223
 20
547.2333260869353
 30
0.0
  0
VERTEX
  5
273
  8
6MM_MDF_BOTTOM_CUTOUT
 10
1139.595215427992
 20
547.2333260869408
 30
0.0
 42
1.0
  0
VERTEX
  5
274
  8
6MM_MDF_BOTTOM_CUTOUT
 10
1143.837856115111
 20
551.4759667740599
 30
0.0
  0
VERTEX
  5
275
  8
6MM_MDF_BOTTOM_CUTOUT
 10
1143.837856115111
 20
559.2333260869376
 30
0.0
  0
VERTEX
  5
276
  8
6MM_MDF_BOTTOM_CUTOUT
 10
1237.33785611512
 20
559.2333260869614
 30
0.0
  0
VERTEX
  5
277
  8
6MM_MDF_BOTTOM_CUTOUT
 10
1237.33785611512
 20
551.4759667740827
 30
0.0
 42
1.0
  0
VERTEX
  5
278
  8
6MM_MDF_BOTTOM_CUTOUT
 10
1241.580496802238
 20
547.2333260869636
 30
0.0
  0
VERTEX
  5
279
  8
6MM_MDF_BOTTOM_CUTOUT
 10
1279.845215428
 20
547.2333260869582
 30
0.0
 42
1.0
  0
VERTEX
  5
27A
  8
6MM_MDF_BOTTOM_CUTOUT
 10
1284.08785611512
 20
551.4759667740777
 30
0.0
  0
VERTEX
  5
27B
  8
6MM_MDF_BOTTOM_CUTOUT
 10
1284.08785611512
 20
559.2333260869577
 30
0.0
  0
VERTEX
  5
27C
  8
6MM_MDF_BOTTOM_CUTOUT
 10
1377.587856115118
 20
559.2333260869577
 30
0.0
  0
VERTEX
  5
27D
  8
6MM_MDF_BOTTOM_CUTOUT
 10
1377.587856115118
 20
551.4759667740773
 30
0.0
 42
1.0
  0
VERTEX
  5
27E
  8
6MM_MDF_BOTTOM_CUTOUT
 10
1381.830496802238
 20
547.2333260869577
 30
0.0
  0
VERTEX
  5
27F
  8
6MM_MDF_BOTTOM_CUTOUT
 10
1466.845215427998
 20
547.2333260869614
 30
0.0
 42
1.0
  0
VERTEX
  5
280
  8
6MM_MDF_BOTTOM_CUTOUT
 10
1471.087856115118
 20
551.4759667740811
 30
0.0
  0
VERTEX
  5
281
  8
6MM_MDF_BOTTOM_CUTOUT
 10
1471.087856115117
 20
559.2333260869614
 30
0.0
  0
SEQEND
  5
367
  8
6MM_MDF_BOTTOM_CUTOUT
  0
POLYLINE
  5
89
  8
6MM_MDF_BOTTOM_CUTOUT
 66
     1
 10
0.0
 20
0.0
 30
0.0
 70
     1
  0
VERTEX
  5
282
  8
6MM_MDF_BOTTOM_CUTOUT
 10
2312.265553956837
 20
1108.207079136708
 30
0.0
  0
VERTEX
  5
283
  8
6MM_MDF_BOTTOM_CUTOUT
 10
2312.265553956837
 20
1100.449719823798
 30
0.0
 42
1.0
  0
VERTEX
  5
284
  8
6MM_MDF_BOTTOM_CUTOUT
 10
2316.508194643956
 20
1096.207079136678
 30
0.0
  0
VERTEX
  5
285
  8
6MM_MDF_BOTTOM_CUTOUT
 10
2332.265553956837
 20
1096.207079136678
 30
0.0
  0
VERTEX
  5
286
  8
6MM_MDF_BOTTOM_CUTOUT
 10
2332.265553956837
 20
1035.949719823808
 30
0.0
 42
1.0
  0
VERTEX
  5
287
  8
6MM_MDF_BOTTOM_CUTOUT
 10
2336.508194643957
 20
1031.707079136689
 30
0.0
  0
VERTEX
  5
288
  8
6MM_MDF_BOTTOM_CUTOUT
 10
2344.265553956838
 20
1031.707079136689
 30
0.0
  0
VERTEX
  5
289
  8
6MM_MDF_BOTTOM_CUTOUT
 10
2344.265553956837
 20
967.2070791366982
 30
0.0
  0
VERTEX
  5
28A
  8
6MM_MDF_BOTTOM_CUTOUT
 10
2336.508194643956
 20
967.2070791366982
 30
0.0
 42
1.0
  0
VERTEX
  5
28B
  8
6MM_MDF_BOTTOM_CUTOUT
 10
2332.265553956836
 20
962.9644384495789
 30
0.0
  0
VERTEX
  5
28C
  8
6MM_MDF_BOTTOM_CUTOUT
 10
2332.265553956835
 20
886.9497198238064
 30
0.0
 42
1.0
  0
VERTEX
  5
28D
  8
6MM_MDF_BOTTOM_CUTOUT
 10
2336.508194643954
 20
882.7070791366871
 30
0.0
  0
VERTEX
  5
28E
  8
6MM_MDF_BOTTOM_CUTOUT
 10
2344.265553956835
 20
882.7070791366871
 30
0.0
  0
VERTEX
  5
28F
  8
6MM_MDF_BOTTOM_CUTOUT
 10
2344.265553956822
 20
793.7070791367162
 30
0.0
  0
VERTEX
  5
290
  8
6MM_MDF_BOTTOM_CUTOUT
 10
2336.508194643942
 20
793.7070791367162
 30
0.0
 42
1.0
  0
VERTEX
  5
291
  8
6MM_MDF_BOTTOM_CUTOUT
 10
2332.265553956822
 20
789.4644384495969
 30
0.0
  0
VERTEX
  5
292
  8
6MM_MDF_BOTTOM_CUTOUT
 10
2332.265553956824
 20
713.4497198238236
 30
0.0
 42
1.0
  0
VERTEX
  5
293
  8
6MM_MDF_BOTTOM_CUTOUT
 10
2336.508194643943
 20
709.2070791367044
 30
0.0
  0
VERTEX
  5
294
  8
6MM_MDF_BOTTOM_CUTOUT
 10
2344.265553956825
 20
709.2070791367044
 30
0.0
  0
VERTEX
  5
295
  8
6MM_MDF_BOTTOM_CUTOUT
 10
2344.265553956825
 20
644.7070791367137
 30
0.0
  0
VERTEX
  5
296
  8
6MM_MDF_BOTTOM_CUTOUT
 10
2336.508194643945
 20
644.7070791367137
 30
0.0
 42
1.0
  0
VERTEX
  5
297
  8
6MM_MDF_BOTTOM_CUTOUT
 10
2332.265553956825
 20
640.4644384495945
 30
0.0
  0
VERTEX
  5
298
  8
6MM_MDF_BOTTOM_CUTOUT
 10
2332.265553956825
 20
580.2070791367082
 30
0.0
  0
VERTEX
  5
299
  8
6MM_MDF_BOTTOM_CUTOUT
 10
2316.508194643956
 20
580.2070791367082
 30
0.0
 42
1.0
  0
VERTEX
  5
29A
  8
6MM_MDF_BOTTOM_CUTOUT
 10
2312.265553956836
 20
575.9644384495889
 30
0.0
  0
VERTEX
  5
29B
  8
6MM_MDF_BOTTOM_CUTOUT
 10
2312.265553956836
 20
568.2070791366937
 30
0.0
  0
VERTEX
  5
29C
  8
6MM_MDF_BOTTOM_CUTOUT
 10
2244.76555395683
 20
568.2070791367082
 30
0.0
  0
VERTEX
  5
29D
  8
6MM_MDF_BOTTOM_CUTOUT
 10
2244.765553956833
 20
575.9644384495881
 30
0.0
 42
1.0
  0
VERTEX
  5
29E
  8
6MM_MDF_BOTTOM_CUTOUT
 10
2240.522913269714
 20
580.2070791367083
 30
0.0
  0
VERTEX
  5
29F
  8
6MM_MDF_BOTTOM_CUTOUT
 10
2155.508194643953
 20
580.2070791367117
 30
0.0
 42
1.0
  0
VERTEX
  5
2A0
  8
6MM_MDF_BOTTOM_CUTOUT
 10
2151.265553956834
 20
575.9644384495924
 30
0.0
  0
VERTEX
  5
2A1
  8
6MM_MDF_BOTTOM_CUTOUT
 10
2151.265553956834
 20
568.2070791367119
 30
0.0
  0
VERTEX
  5
2A2
  8
6MM_MDF_BOTTOM_CUTOUT
 10
2057.765553956835
 20
568.2070791367119
 30
0.0
  0
VERTEX
  5
2A3
  8
6MM_MDF_BOTTOM_CUTOUT
 10
2057.765553956835
 20
575.9644384495919
 30
0.0
 42
1.0
  0
VERTEX
  5
2A4
  8
6MM_MDF_BOTTOM_CUTOUT
 10
2053.522913269715
 20
580.2070791367112
 30
0.0
  0
VERTEX
  5
2A5
  8
6MM_MDF_BOTTOM_CUTOUT
 10
2015.258194643953
 20
580.2070791367053
 30
0.0
 42
1.0
  0
VERTEX
  5
2A6
  8
6MM_MDF_BOTTOM_CUTOUT
 10
2011.015553956835
 20
575.9644384495859
 30
0.0
  0
VERTEX
  5
2A7
  8
6MM_MDF_BOTTOM_CUTOUT
 10
2011.015553956835
 20
568.2070791367082
 30
0.0
  0
VERTEX
  5
2A8
  8
6MM_MDF_BOTTOM_CUTOUT
 10
1917.515553956825
 20
568.2070791366846
 30
0.0
  0
VERTEX
  5
2A9
  8
6MM_MDF_BOTTOM_CUTOUT
 10
1917.515553956825
 20
575.964438449564
 30
0.0
 42
1.0
  0
VERTEX
  5
2AA
  8
6MM_MDF_BOTTOM_CUTOUT
 10
1913.272913269705
 20
580.2070791366832
 30
0.0
  0
VERTEX
  5
2AB
  8
6MM_MDF_BOTTOM_CUTOUT
 10
1875.008194643943
 20
580.2070791366878
 30
0.0
 42
1.0
  0
VERTEX
  5
2AC
  8
6MM_MDF_BOTTOM_CUTOUT
 10
1870.765553956824
 20
575.9644384495684
 30
0.0
  0
VERTEX
  5
2AD
  8
6MM_MDF_BOTTOM_CUTOUT
 10
1870.765553956824
 20
568.2070791366882
 30
0.0
  0
VERTEX
  5
2AE
  8
6MM_MDF_BOTTOM_CUTOUT
 10
1777.265553956825
 20
568.2070791366882
 30
0.0
  0
VERTEX
  5
2AF
  8
6MM_MDF_BOTTOM_CUTOUT
 10
1777.265553956825
 20
575.9644384495688
 30
0.0
 42
1.0
  0
VERTEX
  5
2B0
  8
6MM_MDF_BOTTOM_CUTOUT
 10
1773.022913269705
 20
580.2070791366881
 30
0.0
  0
VERTEX
  5
2B1
  8
6MM_MDF_BOTTOM_CUTOUT
 10
1688.008194643945
 20
580.2070791366847
 30
0.0
 42
1.0
  0
VERTEX
  5
2B2
  8
6MM_MDF_BOTTOM_CUTOUT
 10
1683.765553956825
 20
575.9644384495645
 30
0.0
  0
VERTEX
  5
2B3
  8
6MM_MDF_BOTTOM_CUTOUT
 10
1683.765553956828
 20
568.2070791366846
 30
0.0
  0
VERTEX
  5
2B4
  8
6MM_MDF_BOTTOM_CUTOUT
 10
1616.265553956835
 20
568.2070791366718
 30
0.0
  0
VERTEX
  5
2B5
  8
6MM_MDF_BOTTOM_CUTOUT
 10
1616.265553956835
 20
575.9644384495653
 30
0.0
 42
1.0
  0
VERTEX
  5
2B6
  8
6MM_MDF_BOTTOM_CUTOUT
 10
1612.022913269715
 20
580.2070791366846
 30
0.0
  0
VERTEX
  5
2B7
  8
6MM_MDF_BOTTOM_CUTOUT
 10
1596.265553956835
 20
580.2070791366846
 30
0.0
  0
VERTEX
  5
2B8
  8
6MM_MDF_BOTTOM_CUTOUT
 10
1596.265553956833
 20
640.4644384495728
 30
0.0
 42
1.0
  0
VERTEX
  5
2B9
  8
6MM_MDF_BOTTOM_CUTOUT
 10
1592.022913269713
 20
644.7070791366918
 30
0.0
  0
VERTEX
  5
2BA
  8
6MM_MDF_BOTTOM_CUTOUT
 10
1584.265553956833
 20
644.7070791366918
 30
0.0
  0
VERTEX
  5
2BB
  8
6MM_MDF_BOTTOM_CUTOUT
 10
1584.265553956835
 20
709.2070791366828
 30
0.0
  0
VERTEX
  5
2BC
  8
6MM_MDF_BOTTOM_CUTOUT
 10
1592.022913269715
 20
709.2070791366828
 30
0.0
 42
1.0
  0
VERTEX
  5
2BD
  8
6MM_MDF_BOTTOM_CUTOUT
 10
1596.265553956835
 20
713.449719823802
 30
0.0
  0
VERTEX
  5
2BE
  8
6MM_MDF_BOTTOM_CUTOUT
 10
1596.265553956835
 20
789.4644384495743
 30
0.0
 42
1.0
  0
VERTEX
  5
2BF
  8
6MM_MDF_BOTTOM_CUTOUT
 10
1592.022913269716
 20
793.7070791366937
 30
0.0
  0
VERTEX
  5
2C0
  8
6MM_MDF_BOTTOM_CUTOUT
 10
1584.265553956835
 20
793.7070791366937
 30
0.0
  0
VERTEX
  5
2C1
  8
6MM_MDF_BOTTOM_CUTOUT
 10
1584.265553956848
 20
882.7070791366646
 30
0.0
  0
VERTEX
  5
2C2
  8
6MM_MDF_BOTTOM_CUTOUT
 10
1592.022913269729
 20
882.7070791366646
 30
0.0
 42
1.0
  0
VERTEX
  5
2C3
  8
6MM_MDF_BOTTOM_CUTOUT
 10
1596.265553956848
 20
886.9497198237839
 30
0.0
  0
VERTEX
  5
2C4
  8
6MM_MDF_BOTTOM_CUTOUT
 10
1596.265553956847
 20
962.9644384495563
 30
0.0
 42
1.0
  0
VERTEX
  5
2C5
  8
6MM_MDF_BOTTOM_CUTOUT
 10
1592.022913269728
 20
967.2070791366755
 30
0.0
  0
VERTEX
  5
2C6
  8
6MM_MDF_BOTTOM_CUTOUT
 10
1584.265553956847
 20
967.2070791366755
 30
0.0
  0
VERTEX
  5
2C7
  8
6MM_MDF_BOTTOM_CUTOUT
 10
1584.265553956846
 20
1031.707079136666
 30
0.0
  0
VERTEX
  5
2C8
  8
6MM_MDF_BOTTOM_CUTOUT
 10
1592.022913269726
 20
1031.707079136666
 30
0.0
 42
1.0
  0
VERTEX
  5
2C9
  8
6MM_MDF_BOTTOM_CUTOUT
 10
1596.265553956846
 20
1035.949719823785
 30
0.0
  0
VERTEX
  5
2CA
  8
6MM_MDF_BOTTOM_CUTOUT
 10
1596.265553956847
 20
1096.207079136672
 30
0.0
  0
VERTEX
  5
2CB
  8
6MM_MDF_BOTTOM_CUTOUT
 10
1612.022913269716
 20
1096.207079136672
 30
0.0
 42
1.0
  0
VERTEX
  5
2CC
  8
6MM_MDF_BOTTOM_CUTOUT
 10
1616.265553956835
 20
1100.44971982379
 30
0.0
  0
VERTEX
  5
2CD
  8
6MM_MDF_BOTTOM_CUTOUT
 10
1616.265553956837
 20
1108.207079136685
 30
0.0
  0
VERTEX
  5
2CE
  8
6MM_MDF_BOTTOM_CUTOUT
 10
1683.765553956841
 20
1108.207079136672
 30
0.0
  0
VERTEX
  5
2CF
  8
6MM_MDF_BOTTOM_CUTOUT
 10
1683.765553956839
 20
1100.449719823792
 30
0.0
 42
1.0
  0
VERTEX
  5
2D0
  8
6MM_MDF_BOTTOM_CUTOUT
 10
1688.008194643958
 20
1096.207079136672
 30
0.0
  0
VERTEX
  5
2D1
  8
6MM_MDF_BOTTOM_CUTOUT
 10
1773.022913269718
 20
1096.207079136669
 30
0.0
 42
1.0
  0
VERTEX
  5
2D2
  8
6MM_MDF_BOTTOM_CUTOUT
 10
1777.265553956838
 20
1100.449719823789
 30
0.0
  0
VERTEX
  5
2D3
  8
6MM_MDF_BOTTOM_CUTOUT
 10
1777.265553956838
 20
1108.207079136669
 30
0.0
  0
VERTEX
  5
2D4
  8
6MM_MDF_BOTTOM_CUTOUT
 10
1870.765553956837
 20
1108.207079136669
 30
0.0
  0
VERTEX
  5
2D5
  8
6MM_MDF_BOTTOM_CUTOUT
 10
1870.765553956837
 20
1100.449719823789
 30
0.0
 42
1.0
  0
VERTEX
  5
2D6
  8
6MM_MDF_BOTTOM_CUTOUT
 10
1875.008194643957
 20
1096.20707913667
 30
0.0
  0
VERTEX
  5
2D7
  8
6MM_MDF_BOTTOM_CUTOUT
 10
1913.272913269719
 20
1096.207079136675
 30
0.0
 42
1.0
  0
VERTEX
  5
2D8
  8
6MM_MDF_BOTTOM_CUTOUT
 10
1917.515553956838
 20
1100.449719823794
 30
0.0
  0
VERTEX
  5
2D9
  8
6MM_MDF_BOTTOM_CUTOUT
 10
1917.515553956838
 20
1108.207079136672
 30
0.0
  0
VERTEX
  5
2DA
  8
6MM_MDF_BOTTOM_CUTOUT
 10
2011.015553956847
 20
1108.207079136695
 30
0.0
  0
VERTEX
  5
2DB
  8
6MM_MDF_BOTTOM_CUTOUT
 10
2011.015553956847
 20
1100.449719823817
 30
0.0
 42
1.0
  0
VERTEX
  5
2DC
  8
6MM_MDF_BOTTOM_CUTOUT
 10
2015.258194643965
 20
1096.207079136698
 30
0.0
  0
VERTEX
  5
2DD
  8
6MM_MDF_BOTTOM_CUTOUT
 10
2053.522913269727
 20
1096.207079136692
 30
0.0
 42
1.0
  0
VERTEX
  5
2DE
  8
6MM_MDF_BOTTOM_CUTOUT
 10
2057.765553956847
 20
1100.449719823812
 30
0.0
  0
VERTEX
  5
2DF
  8
6MM_MDF_BOTTOM_CUTOUT
 10
2057.765553956847
 20
1108.207079136692
 30
0.0
  0
VERTEX
  5
2E0
  8
6MM_MDF_BOTTOM_CUTOUT
 10
2151.265553956845
 20
1108.207079136692
 30
0.0
  0
VERTEX
  5
2E1
  8
6MM_MDF_BOTTOM_CUTOUT
 10
2151.265553956845
 20
1100.449719823811
 30
0.0
 42
1.0
  0
VERTEX
  5
2E2
  8
6MM_MDF_BOTTOM_CUTOUT
 10
2155.508194643965
 20
1096.207079136692
 30
0.0
  0
VERTEX
  5
2E3
  8
6MM_MDF_BOTTOM_CUTOUT
 10
2240.522913269725
 20
1096.207079136695
 30
0.0
 42
1.0
  0
VERTEX
  5
2E4
  8
6MM_MDF_BOTTOM_CUTOUT
 10
2244.765553956845
 20
1100.449719823815
 30
0.0
  0
VERTEX
  5
2E5
  8
6MM_MDF_BOTTOM_CUTOUT
 10
2244.765553956844
 20
1108.207079136695
 30
0.0
  0
SEQEND
  5
368
  8
6MM_MDF_BOTTOM_CUTOUT
  0
POLYLINE
  5
8A
  8
6MM_MDF_BOTTOM_CUTOUT
 66
     1
 10
0.0
 20
0.0
 30
0.0
 70
     1
  0
VERTEX
  5
2E6
  8
6MM_MDF_BOTTOM_CUTOUT
 10
2312.265553956837
 20
559.2333260869741
 30
0.0
  0
VERTEX
  5
2E7
  8
6MM_MDF_BOTTOM_CUTOUT
 10
2312.265553956837
 20
551.4759667740634
 30
0.0
 42
1.0
  0
VERTEX
  5
2E8
  8
6MM_MDF_BOTTOM_CUTOUT
 10
2316.508194643956
 20
547.2333260869441
 30
0.0
  0
VERTEX
  5
2E9
  8
6MM_MDF_BOTTOM_CUTOUT
 10
2332.265553956837
 20
547.2333260869441
 30
0.0
  0
VERTEX
  5
2EA
  8
6MM_MDF_BOTTOM_CUTOUT
 10
2332.265553956837
 20
486.9759667740741
 30
0.0
 42
1.0
  0
VERTEX
  5
2EB
  8
6MM_MDF_BOTTOM_CUTOUT
 10
2336.508194643957
 20
482.733326086955
 30
0.0
  0
VERTEX
  5
2EC
  8
6MM_MDF_BOTTOM_CUTOUT
 10
2344.265553956838
 20
482.733326086955
 30
0.0
  0
VERTEX
  5
2ED
  8
6MM_MDF_BOTTOM_CUTOUT
 10
2344.265553956837
 20
418.2333260869641
 30
0.0
  0
VERTEX
  5
2EE
  8
6MM_MDF_BOTTOM_CUTOUT
 10
2336.508194643956
 20
418.2333260869641
 30
0.0
 42
1.0
  0
VERTEX
  5
2EF
  8
6MM_MDF_BOTTOM_CUTOUT
 10
2332.265553956836
 20
413.9906853998448
 30
0.0
  0
VERTEX
  5
2F0
  8
6MM_MDF_BOTTOM_CUTOUT
 10
2332.265553956835
 20
337.9759667740723
 30
0.0
 42
1.0
  0
VERTEX
  5
2F1
  8
6MM_MDF_BOTTOM_CUTOUT
 10
2336.508194643954
 20
333.733326086953
 30
0.0
  0
VERTEX
  5
2F2
  8
6MM_MDF_BOTTOM_CUTOUT
 10
2344.265553956835
 20
333.733326086953
 30
0.0
  0
VERTEX
  5
2F3
  8
6MM_MDF_BOTTOM_CUTOUT
 10
2344.265553956822
 20
244.7333260869821
 30
0.0
  0
VERTEX
  5
2F4
  8
6MM_MDF_BOTTOM_CUTOUT
 10
2336.508194643942
 20
244.7333260869821
 30
0.0
 42
1.0
  0
VERTEX
  5
2F5
  8
6MM_MDF_BOTTOM_CUTOUT
 10
2332.265553956822
 20
240.4906853998628
 30
0.0
  0
VERTEX
  5
2F6
  8
6MM_MDF_BOTTOM_CUTOUT
 10
2332.265553956824
 20
164.4759667740895
 30
0.0
 42
1.0
  0
VERTEX
  5
2F7
  8
6MM_MDF_BOTTOM_CUTOUT
 10
2336.508194643943
 20
160.2333260869703
 30
0.0
  0
VERTEX
  5
2F8
  8
6MM_MDF_BOTTOM_CUTOUT
 10
2344.265553956825
 20
160.2333260869703
 30
0.0
  0
VERTEX
  5
2F9
  8
6MM_MDF_BOTTOM_CUTOUT
 10
2344.265553956825
 20
95.73332608697959
 30
0.0
  0
VERTEX
  5
2FA
  8
6MM_MDF_BOTTOM_CUTOUT
 10
2336.508194643945
 20
95.73332608697959
 30
0.0
 42
1.0
  0
VERTEX
  5
2FB
  8
6MM_MDF_BOTTOM_CUTOUT
 10
2332.265553956825
 20
91.49068539986038
 30
0.0
  0
VERTEX
  5
2FC
  8
6MM_MDF_BOTTOM_CUTOUT
 10
2332.265553956825
 20
31.23332608697413
 30
0.0
  0
VERTEX
  5
2FD
  8
6MM_MDF_BOTTOM_CUTOUT
 10
2316.508194643956
 20
31.2333260869741
 30
0.0
 42
1.0
  0
VERTEX
  5
2FE
  8
6MM_MDF_BOTTOM_CUTOUT
 10
2312.265553956836
 20
26.99068539985478
 30
0.0
  0
VERTEX
  5
2FF
  8
6MM_MDF_BOTTOM_CUTOUT
 10
2312.265553956836
 20
19.23332608695955
 30
0.0
  0
VERTEX
  5
300
  8
6MM_MDF_BOTTOM_CUTOUT
 10
2244.76555395683
 20
19.23332608697413
 30
0.0
  0
VERTEX
  5
301
  8
6MM_MDF_BOTTOM_CUTOUT
 10
2244.765553956833
 20
26.99068539985402
 30
0.0
 42
1.0
  0
VERTEX
  5
302
  8
6MM_MDF_BOTTOM_CUTOUT
 10
2240.522913269714
 20
31.23332608697424
 30
0.0
  0
VERTEX
  5
303
  8
6MM_MDF_BOTTOM_CUTOUT
 10
2155.508194643953
 20
31.23332608697763
 30
0.0
 42
1.0
  0
VERTEX
  5
304
  8
6MM_MDF_BOTTOM_CUTOUT
 10
2151.265553956834
 20
26.99068539985831
 30
0.0
  0
VERTEX
  5
305
  8
6MM_MDF_BOTTOM_CUTOUT
 10
2151.265553956834
 20
19.23332608697774
 30
0.0
  0
VERTEX
  5
306
  8
6MM_MDF_BOTTOM_CUTOUT
 10
2057.765553956835
 20
19.23332608697777
 30
0.0
  0
VERTEX
  5
307
  8
6MM_MDF_BOTTOM_CUTOUT
 10
2057.765553956835
 20
26.99068539985777
 30
0.0
 42
1.0
  0
VERTEX
  5
308
  8
6MM_MDF_BOTTOM_CUTOUT
 10
2053.522913269715
 20
31.23332608697709
 30
0.0
  0
VERTEX
  5
309
  8
6MM_MDF_BOTTOM_CUTOUT
 10
2015.258194643953
 20
31.23332608697115
 30
0.0
 42
1.0
  0
VERTEX
  5
30A
  8
6MM_MDF_BOTTOM_CUTOUT
 10
2011.015553956835
 20
26.99068539985183
 30
0.0
  0
VERTEX
  5
30B
  8
6MM_MDF_BOTTOM_CUTOUT
 10
2011.015553956835
 20
19.2333260869741
 30
0.0
  0
VERTEX
  5
30C
  8
6MM_MDF_BOTTOM_CUTOUT
 10
1917.515553956825
 20
19.23332608695048
 30
0.0
  0
VERTEX
  5
30D
  8
6MM_MDF_BOTTOM_CUTOUT
 10
1917.515553956825
 20
26.99068539982991
 30
0.0
 42
1.0
  0
VERTEX
  5
30E
  8
6MM_MDF_BOTTOM_CUTOUT
 10
1913.272913269705
 20
31.23332608694912
 30
0.0
  0
VERTEX
  5
30F
  8
6MM_MDF_BOTTOM_CUTOUT
 10
1875.008194643943
 20
31.23332608695367
 30
0.0
 42
1.0
  0
VERTEX
  5
310
  8
6MM_MDF_BOTTOM_CUTOUT
 10
1870.765553956824
 20
26.99068539983435
 30
0.0
  0
VERTEX
  5
311
  8
6MM_MDF_BOTTOM_CUTOUT
 10
1870.765553956824
 20
19.23332608695412
 30
0.0
  0
VERTEX
  5
312
  8
6MM_MDF_BOTTOM_CUTOUT
 10
1777.265553956825
 20
19.23332608695409
 30
0.0
  0
VERTEX
  5
313
  8
6MM_MDF_BOTTOM_CUTOUT
 10
1777.265553956825
 20
26.99068539983466
 30
0.0
 42
1.0
  0
VERTEX
  5
314
  8
6MM_MDF_BOTTOM_CUTOUT
 10
1773.022913269705
 20
31.23332608695398
 30
0.0
  0
VERTEX
  5
315
  8
6MM_MDF_BOTTOM_CUTOUT
 10
1688.008194643945
 20
31.23332608695057
 30
0.0
 42
1.0
  0
VERTEX
  5
316
  8
6MM_MDF_BOTTOM_CUTOUT
 10
1683.765553956825
 20
26.99068539983034
 30
0.0
  0
VERTEX
  5
317
  8
6MM_MDF_BOTTOM_CUTOUT
 10
1683.765553956828
 20
19.23332608695046
 30
0.0
  0
VERTEX
  5
318
  8
6MM_MDF_BOTTOM_CUTOUT
 10
1616.265553956835
 20
19.23332608693775
 30
0.0
  0
VERTEX
  5
319
  8
6MM_MDF_BOTTOM_CUTOUT
 10
1616.265553956835
 20
26.99068539983116
 30
0.0
 42
1.0
  0
VERTEX
  5
31A
  8
6MM_MDF_BOTTOM_CUTOUT
 10
1612.022913269715
 20
31.23332608695048
 30
0.0
  0
VERTEX
  5
31B
  8
6MM_MDF_BOTTOM_CUTOUT
 10
1596.265553956835
 20
31.23332608695048
 30
0.0
  0
VERTEX
  5
31C
  8
6MM_MDF_BOTTOM_CUTOUT
 10
1596.265553956833
 20
91.49068539983867
 30
0.0
 42
1.0
  0
VERTEX
  5
31D
  8
6MM_MDF_BOTTOM_CUTOUT
 10
1592.022913269713
 20
95.73332608695776
 30
0.0
  0
VERTEX
  5
31E
  8
6MM_MDF_BOTTOM_CUTOUT
 10
1584.265553956833
 20
95.73332608695776
 30
0.0
  0
VERTEX
  5
31F
  8
6MM_MDF_BOTTOM_CUTOUT
 10
1584.265553956835
 20
160.2333260869487
 30
0.0
  0
VERTEX
  5
320
  8
6MM_MDF_BOTTOM_CUTOUT
 10
1592.022913269715
 20
160.2333260869487
 30
0.0
 42
1.0
  0
VERTEX
  5
321
  8
6MM_MDF_BOTTOM_CUTOUT
 10
1596.265553956835
 20
164.4759667740679
 30
0.0
  0
VERTEX
  5
322
  8
6MM_MDF_BOTTOM_CUTOUT
 10
1596.265553956835
 20
240.4906853998403
 30
0.0
 42
1.0
  0
VERTEX
  5
323
  8
6MM_MDF_BOTTOM_CUTOUT
 10
1592.022913269716
 20
244.7333260869596
 30
0.0
  0
VERTEX
  5
324
  8
6MM_MDF_BOTTOM_CUTOUT
 10
1584.265553956835
 20
244.7333260869596
 30
0.0
  0
VERTEX
  5
325
  8
6MM_MDF_BOTTOM_CUTOUT
 10
1584.265553956848
 20
333.7333260869304
 30
0.0
  0
VERTEX
  5
326
  8
6MM_MDF_BOTTOM_CUTOUT
 10
1592.022913269729
 20
333.7333260869304
 30
0.0
 42
1.0
  0
VERTEX
  5
327
  8
6MM_MDF_BOTTOM_CUTOUT
 10
1596.265553956848
 20
337.9759667740498
 30
0.0
  0
VERTEX
  5
328
  8
6MM_MDF_BOTTOM_CUTOUT
 10
1596.265553956847
 20
413.9906853998222
 30
0.0
 42
1.0
  0
VERTEX
  5
329
  8
6MM_MDF_BOTTOM_CUTOUT
 10
1592.022913269728
 20
418.2333260869414
 30
0.0
  0
VERTEX
  5
32A
  8
6MM_MDF_BOTTOM_CUTOUT
 10
1584.265553956847
 20
418.2333260869414
 30
0.0
  0
VERTEX
  5
32B
  8
6MM_MDF_BOTTOM_CUTOUT
 10
1584.265553956846
 20
482.7333260869323
 30
0.0
  0
VERTEX
  5
32C
  8
6MM_MDF_BOTTOM_CUTOUT
 10
1592.022913269726
 20
482.7333260869323
 30
0.0
 42
1.0
  0
VERTEX
  5
32D
  8
6MM_MDF_BOTTOM_CUTOUT
 10
1596.265553956846
 20
486.9759667740514
 30
0.0
  0
VERTEX
  5
32E
  8
6MM_MDF_BOTTOM_CUTOUT
 10
1596.265553956847
 20
547.2333260869376
 30
0.0
  0
VERTEX
  5
32F
  8
6MM_MDF_BOTTOM_CUTOUT
 10
1612.022913269716
 20
547.2333260869376
 30
0.0
 42
1.0
  0
VERTEX
  5
330
  8
6MM_MDF_BOTTOM_CUTOUT
 10
1616.265553956835
 20
551.4759667740562
 30
0.0
  0
VERTEX
  5
331
  8
6MM_MDF_BOTTOM_CUTOUT
 10
1616.265553956837
 20
559.2333260869503
 30
0.0
  0
VERTEX
  5
332
  8
6MM_MDF_BOTTOM_CUTOUT
 10
1683.765553956841
 20
559.2333260869376
 30
0.0
  0
VERTEX
  5
333
  8
6MM_MDF_BOTTOM_CUTOUT
 10
1683.765553956839
 20
551.4759667740578
 30
0.0
 42
1.0
  0
VERTEX
  5
334
  8
6MM_MDF_BOTTOM_CUTOUT
 10
1688.008194643958
 20
547.2333260869376
 30
0.0
  0
VERTEX
  5
335
  8
6MM_MDF_BOTTOM_CUTOUT
 10
1773.022913269718
 20
547.2333260869349
 30
0.0
 42
1.0
  0
VERTEX
  5
336
  8
6MM_MDF_BOTTOM_CUTOUT
 10
1777.265553956838
 20
551.4759667740544
 30
0.0
  0
VERTEX
  5
337
  8
6MM_MDF_BOTTOM_CUTOUT
 10
1777.265553956838
 20
559.2333260869349
 30
0.0
  0
VERTEX
  5
338
  8
6MM_MDF_BOTTOM_CUTOUT
 10
1870.765553956837
 20
559.2333260869349
 30
0.0
  0
VERTEX
  5
339
  8
6MM_MDF_BOTTOM_CUTOUT
 10
1870.765553956837
 20
551.4759667740549
 30
0.0
 42
1.0
  0
VERTEX
  5
33A
  8
6MM_MDF_BOTTOM_CUTOUT
 10
1875.008194643957
 20
547.2333260869353
 30
0.0
  0
VERTEX
  5
33B
  8
6MM_MDF_BOTTOM_CUTOUT
 10
1913.272913269719
 20
547.2333260869408
 30
0.0
 42
1.0
  0
VERTEX
  5
33C
  8
6MM_MDF_BOTTOM_CUTOUT
 10
1917.515553956838
 20
551.4759667740599
 30
0.0
  0
VERTEX
  5
33D
  8
6MM_MDF_BOTTOM_CUTOUT
 10
1917.515553956838
 20
559.2333260869376
 30
0.0
  0
VERTEX
  5
33E
  8
6MM_MDF_BOTTOM_CUTOUT
 10
2011.015553956847
 20
559.2333260869614
 30
0.0
  0
VERTEX
  5
33F
  8
6MM_MDF_BOTTOM_CUTOUT
 10
2011.015553956847
 20
551.4759667740827
 30
0.0
 42
1.0
  0
VERTEX
  5
340
  8
6MM_MDF_BOTTOM_CUTOUT
 10
2015.258194643965
 20
547.2333260869636
 30
0.0
  0
VERTEX
  5
341
  8
6MM_MDF_BOTTOM_CUTOUT
 10
2053.522913269727
 20
547.2333260869582
 30
0.0
 42
1.0
  0
VERTEX
  5
342
  8
6MM_MDF_BOTTOM_CUTOUT
 10
2057.765553956847
 20
551.4759667740777
 30
0.0
  0
VERTEX
  5
343
  8
6MM_MDF_BOTTOM_CUTOUT
 10
2057.765553956847
 20
559.2333260869577
 30
0.0
  0
VERTEX
  5
344
  8
6MM_MDF_BOTTOM_CUTOUT
 10
2151.265553956845
 20
559.2333260869577
 30
0.0
  0
VERTEX
  5
345
  8
6MM_MDF_BOTTOM_CUTOUT
 10
2151.265553956845
 20
551.4759667740773
 30
0.0
 42
1.0
  0
VERTEX
  5
346
  8
6MM_MDF_BOTTOM_CUTOUT
 10
2155.508194643965
 20
547.2333260869577
 30
0.0
  0
VERTEX
  5
347
  8
6MM_MDF_BOTTOM_CUTOUT
 10
2240.522913269725
 20
547.2333260869614
 30
0.0
 42
1.0
  0
VERTEX
  5
348
  8
6MM_MDF_BOTTOM_CUTOUT
 10
2244.765553956845
 20
551.4759667740811
 30
0.0
  0
VERTEX
  5
349
  8
6MM_MDF_BOTTOM_CUTOUT
 10
2244.765553956844
 20
559.2333260869614
 30
0.0
  0
SEQEND
  5
369
  8
6MM_MDF_BOTTOM_CUTOUT
  0
ENDSEC
  0
EOF
