<?xml version="1.0" encoding="UTF-8" standalone="no"?>
<!-- Created with Inkscape (http://www.inkscape.org/) -->

<svg
   xmlns:dc="http://purl.org/dc/elements/1.1/"
   xmlns:cc="http://creativecommons.org/ns#"
   xmlns:rdf="http://www.w3.org/1999/02/22-rdf-syntax-ns#"
   xmlns:svg="http://www.w3.org/2000/svg"
   xmlns="http://www.w3.org/2000/svg"
   xmlns:sodipodi="http://sodipodi.sourceforge.net/DTD/sodipodi-0.dtd"
   xmlns:inkscape="http://www.inkscape.org/namespaces/inkscape"
   id="svg3004"
   version="1.1"
   inkscape:version="0.91 r13725"
   width="380"
   height="380"
   xml:space="preserve"
   sodipodi:docname="hatsystems_logo.svg"><metadata
     id="metadata3010"><rdf:RDF><cc:Work
         rdf:about=""><dc:format>image/svg+xml</dc:format><dc:type
           rdf:resource="http://purl.org/dc/dcmitype/StillImage" /><dc:title></dc:title></cc:Work></rdf:RDF></metadata><defs
     id="defs3008"><clipPath
       clipPathUnits="userSpaceOnUse"
       id="clipPath3018"><path
         d="m 0,425.2 425.2,0 L 425.2,0 0,0 0,425.2 Z"
         id="path3020"
         inkscape:connector-curvature="0" /></clipPath></defs><sodipodi:namedview
     pagecolor="#ffffff"
     bordercolor="#666666"
     borderopacity="1"
     objecttolerance="10"
     gridtolerance="10"
     guidetolerance="10"
     inkscape:pageopacity="0"
     inkscape:pageshadow="2"
     inkscape:window-width="1280"
     inkscape:window-height="713"
     id="namedview3006"
     showgrid="false"
     fit-margin-top="0"
     fit-margin-left="0"
     fit-margin-right="0"
     fit-margin-bottom="0"
     inkscape:zoom="1.2771825"
     inkscape:cx="139.31284"
     inkscape:cy="151.31214"
     inkscape:window-x="0"
     inkscape:window-y="27"
     inkscape:window-maximized="1"
     inkscape:current-layer="g3012"
     units="px" /><g
     id="g3012"
     inkscape:groupmode="layer"
     inkscape:label="hatsystems_logo"
     transform="matrix(1.25,0,0,-1.25,-72.311375,469.76575)"><g
       id="g3126"
       transform="translate(121.7241,108.21877)"><path
         d="m 0,0 c -6.824,1.154 -12.541,2.697 -18.131,4.295 -10.431,2.982 -17.807,6.55 -23.444,10.489 -5.636,3.946 -9.591,8.279 -13.151,13.078 -0.413,0.56 -0.715,1.178 -0.932,1.926 -0.214,0.744 -0.334,1.62 -0.333,2.625 -0.005,1.483 0.274,3.246 0.803,5.165 1.254,3.404 4.075,8.058 10.243,13.595 11.203,10.054 19.022,11.89 23.662,14.66 -0.213,-1.059 -0.413,-2.02 -0.59,-2.83 -0.181,-0.833 -0.341,-1.514 -0.455,-1.94 -0.365,-1.374 -0.659,-2.938 -0.66,-4.642 0,-1.203 0.151,-2.479 0.534,-3.769 0.57,-1.936 1.684,-3.881 3.409,-5.605 1.724,-1.73 4.028,-3.254 7.021,-4.565 5.022,-2.196 15.145,-6.105 29.302,-9.475 14.156,-3.369 32.339,-6.195 53.44,-6.195 0.57,0 1.142,0.002 1.716,0.006 17.131,0.124 32.616,0.399 45.503,0.783 4.818,0.143 9.271,0.301 13.313,0.473 C 106.954,17.394 90.509,10.596 79.993,6.756 74.524,4.758 70.686,3.48 68.233,2.706 67.007,2.319 66.127,2.059 65.564,1.896 65.284,1.816 64.771,1.674 64.771,1.674 60.072,0.727 56.024,0.062 52.766,-0.283 41.864,-1.444 32.68,-1.926 24.781,-1.926 14.768,-1.925 6.824,-1.154 0,0 m -11.371,93.394 c 0,0 10.47,-8.04 22.419,-10.43 0,0 51.555,-9.901 103.451,-6.827 51.895,3.071 80.234,10.241 91.159,14.679 10.925,4.439 -6.356,-11.504 -91.5,-17.03 C 66.813,70.713 11.504,79.664 11.504,79.664 L 6.655,41.834 c 0.515,-0.06 -18.269,2.882 -24.924,13.657 l 6.898,37.903 z m 9.68,39.842 c 1.457,7.444 2.9,14.327 4.229,20.136 1.326,5.803 2.546,10.553 3.51,13.616 0.931,2.958 2.086,5.438 3.472,7.631 1.621,2.558 3.573,4.746 5.938,6.8 -0.167,-0.233 -0.325,-0.482 -0.469,-0.756 -0.301,-0.578 -0.563,-1.298 -0.567,-2.179 0,-0.1 0.004,-0.209 0.013,-0.324 0.043,-0.553 0.132,-1.161 0.318,-1.8 0.319,-1.123 0.987,-2.332 2.018,-3.305 0.771,-0.736 1.712,-1.347 2.812,-1.85 1.656,-0.754 3.678,-1.29 6.277,-1.663 2.599,-0.369 5.781,-0.567 9.752,-0.568 0.507,0 1.027,0.004 1.559,0.01 0.197,-0.017 0.394,-0.013 0.595,0.011 3.411,0.057 7.342,0.245 11.907,0.592 14.301,1.087 24.466,2.729 34.433,4.468 9.972,1.739 19.734,3.57 33.505,5.1 13.763,1.53 29.451,2.454 42.75,3.264 6.652,0.405 12.707,0.781 17.657,1.195 2.477,0.207 4.676,0.423 6.552,0.66 1.881,0.24 3.421,0.492 4.682,0.817 0.852,0.221 1.601,0.429 2.263,0.633 0.498,0.153 0.947,0.305 1.363,0.464 0.627,0.246 1.166,0.476 1.765,0.89 0.298,0.214 0.627,0.48 0.962,0.934 0.165,0.227 0.328,0.508 0.451,0.846 0.125,0.336 0.203,0.734 0.202,1.136 0.002,0.376 -0.07,0.738 -0.179,1.061 0.374,-0.035 0.731,-0.062 1.079,-0.077 0.471,-0.02 0.924,-0.042 1.366,-0.066 1.234,-1.637 2.434,-3.301 3.583,-5.002 3.841,-5.686 7.222,-11.704 10.096,-18 -0.019,-0.066 -0.038,-0.138 -0.056,-0.208 0.858,-1.89 1.672,-3.805 2.437,-5.743 0.012,-0.243 0.028,-0.495 0.047,-0.76 0.108,-1.393 0.296,-3.081 0.546,-5.012 0.872,-6.737 2.494,-16.42 3.903,-24.466 1.408,-8.041 2.6,-14.417 2.601,-14.427 l 0.492,-2.632 1.21,-0.236 c -0.051,-3.767 -0.261,-7.494 -0.64,-11.172 -1.174,-0.327 -2.437,-0.739 -3.85,-1.23 -0.1,-0.033 -0.209,-0.073 -0.31,-0.108 -1.982,13.781 -8.718,58.669 -13.099,63.847 -3.295,3.894 -5.574,10.827 -20.109,12.216 -8.333,0.797 -25.012,2.136 -46.408,-7.879 -20.812,-9.741 -38.952,0.223 -60.09,-11.38 C 55.876,146.095 53.279,129.95 50.452,116.755 48.047,105.534 50.413,89.889 51.175,83.72 47.541,84.167 43.824,84.693 39.994,85.319 23.902,87.942 13.933,89.063 6.856,91.06 3.313,92.055 0.5,93.234 -2.186,94.926 c -1.838,1.159 -3.638,2.585 -5.542,4.387 1.845,11.471 3.953,23.271 6.037,33.923 m 22.167,44.999 c 0.296,0.327 0.842,0.808 1.545,1.325 1.233,0.912 2.939,1.952 4.77,2.959 0.168,0.093 0.339,0.184 0.509,0.276 0.098,-3.39 3.24,-6.241 12.528,-7.103 -0.41,-0.126 -0.783,-0.239 -1.117,-0.338 -0.669,-0.199 -1.183,-0.344 -1.525,-0.438 -0.026,-0.008 -0.044,-0.013 -0.068,-0.02 -0.516,-0.006 -1.019,-0.01 -1.506,-0.01 -3.831,0 -6.791,0.199 -9.023,0.525 -1.674,0.243 -2.937,0.559 -3.842,0.886 -0.68,0.245 -1.157,0.494 -1.478,0.708 -0.484,0.331 -0.623,0.543 -0.731,0.737 -0.057,0.109 -0.103,0.239 -0.14,0.404 0.024,0.029 0.049,0.057 0.078,0.089 m 46.288,1.812 c 7.825,3.763 16.465,6.872 24.675,9.141 8.206,2.271 15.999,3.7 22.053,4.141 3.962,0.29 8.567,0.66 13.795,0.66 9.051,-0.006 19.957,-1.111 32.431,-5.686 -13.231,-0.804 -28.877,-1.73 -42.76,-3.271 -13.982,-1.553 -23.952,-3.423 -33.868,-5.152 -7.575,-1.321 -15.13,-2.563 -24.538,-3.553 2.581,1.1 5.331,2.335 8.212,3.72 m 37.837,22.077 c 2.13,0.083 4.289,0.122 6.467,0.122 17.987,0.003 37.266,-2.688 53.077,-5.445 6.118,-1.067 11.709,-2.139 16.536,-3.069 -0.285,-1.533 0.665,-3.04 2.199,-3.411 0.279,-0.068 0.544,-0.132 0.812,-0.197 -2.816,-0.353 -6.588,-0.674 -10.986,-0.986 -17.78,8.862 -33.331,10.771 -45.419,10.763 -5.504,0 -10.296,-0.388 -14.228,-0.675 -4.247,-0.313 -9.121,-1.053 -14.328,-2.166 l -0.955,4.771 c 2.227,0.104 4.5,0.202 6.825,0.293 M 199.045,42.328 c -0.359,-0.487 -0.73,-0.967 -1.096,-1.449 -8.378,-2.904 -18.179,-6.08 -29.686,-9.749 -12.516,-3.991 -24.641,-7.783 -36.115,-11.27 1.706,0.746 3.446,1.512 5.23,2.3 5.031,2.225 9.466,4.287 14.018,6.425 6.83,3.206 13.923,6.582 23.79,10.978 8.018,3.573 17.876,7.822 30.887,13.19 -2.116,-3.567 -4.395,-7.028 -6.842,-10.358 -0.062,-0.022 -0.124,-0.044 -0.186,-0.067 m 0.63,174.849 c -25.835,25.842 -61.569,41.838 -101,41.836 -39.432,0.002 -75.166,-15.994 -101.002,-41.836 -25.842,-25.836 -41.838,-61.57 -41.836,-101.002 -0.001,-12.169 1.527,-23.986 4.393,-35.269 0.604,0.469 1.209,0.93 1.813,1.372 1.033,0.756 2.056,1.459 3.072,2.139 -2.425,10.197 -3.716,20.829 -3.716,31.758 0,75.694 61.582,137.276 137.276,137.276 75.694,0 137.275,-61.582 137.275,-137.276 0,-75.694 -61.581,-137.275 -137.275,-137.275 -19.956,0 -38.92,4.298 -56.044,11.991 3.473,0.254 7.114,0.577 10.97,0.987 1.897,0.202 3.98,0.495 6.226,0.867 12.227,-3.857 25.233,-5.946 38.715,-5.96 l 0.133,-10e-4 c 71.346,0 129.391,58.044 129.391,129.391 0,71.347 -58.045,129.392 -129.391,129.392 l -0.133,-0.002 c -71.286,-0.072 -129.258,-58.087 -129.258,-129.39 0,-9.406 1.018,-18.58 2.934,-27.422 2.095,1.163 3.961,2.108 5.452,2.828 2.853,19.152 6.707,40.93 10.147,57.448 1.224,5.871 2.394,11.076 3.464,15.311 0.613,2.424 1.191,4.527 1.751,6.311 1.305,4.161 3.081,7.859 5.3,11.11 2.214,3.254 4.852,6.037 7.757,8.476 1.938,1.628 3.995,3.11 6.157,4.517 2.882,1.875 5.949,3.619 9.215,5.392 3.811,2.066 8.216,3.717 13.277,5.123 5.061,1.402 10.783,2.551 17.227,3.516 12.883,1.925 28.661,3.114 47.567,3.85 2.239,0.087 4.494,0.128 6.76,0.128 11.502,-0.001 23.262,-1.046 34.3,-2.485 11.036,-1.439 21.349,-3.278 29.879,-4.887 5.683,-1.074 10.581,-2.047 14.306,-2.725 1.71,-0.312 3.172,-0.56 4.305,-0.726 0.666,-0.702 1.305,-1.428 1.956,-2.146 -0.164,0.029 -0.325,0.058 -0.494,0.089 -3.837,0.699 -8.827,1.691 -14.606,2.782 -8.671,1.637 -19.129,3.501 -30.292,4.957 -11.166,1.455 -23.036,2.506 -34.578,2.507 -2.273,0 -4.533,-0.041 -6.773,-0.128 -19.214,-0.747 -35.211,-1.958 -48.166,-3.895 -6.479,-0.969 -12.199,-2.121 -17.199,-3.506 -4.999,-1.389 -9.282,-3.005 -12.889,-4.961 -6.582,-3.579 -12.26,-6.963 -16.972,-11.358 -2.349,-2.196 -4.441,-4.648 -6.211,-7.448 -1.773,-2.799 -3.218,-5.938 -4.33,-9.481 -1.079,-3.438 -2.32,-8.3 -3.675,-14.222 -2.959,-12.942 -6.43,-30.88 -9.398,-48.663 l -0.138,0.148 -0.827,-6.041 c -0.62,-3.854 -1.211,-7.675 -1.761,-11.407 -1.787,-0.822 -4.575,-2.181 -7.837,-4.036 -5.596,-3.192 -12.569,-7.805 -18.207,-13.831 -4.409,-4.73 -9.416,-11.166 -13.425,-18.008 -2.003,-3.423 -3.754,-6.945 -5.033,-10.448 -1.273,-3.506 -2.096,-6.995 -2.102,-10.431 0,-1.622 0.19,-3.236 0.641,-4.804 0.448,-1.565 1.165,-3.08 2.173,-4.439 3.87,-5.232 8.5,-10.331 14.969,-14.848 6.467,-4.521 14.717,-8.444 25.795,-11.607 5.662,-1.619 11.729,-3.262 18.982,-4.488 7.253,-1.229 15.68,-2.037 26.096,-2.036 2.053,0 4.185,0.031 6.402,0.096 20.104,-10.8 43.083,-16.95 67.492,-16.949 39.431,-0.002 75.165,15.993 101,41.836 25.843,25.836 41.839,61.57 41.836,101.001 0.003,39.432 -15.993,75.166 -41.836,101.002"
         style="fill:#000000;fill-opacity:1;fill-rule:nonzero;stroke:none"
         id="path3128"
         inkscape:connector-curvature="0" /></g></g></svg>