  0
SECTION
  2
HEADER
  9
$ACADVER
  1
AC1009
  9
$DWGCODEPAGE
  3
ansi_1252
  9
$INSBASE
 10
0.0
 20
0.0
 30
0.0
  9
$EXTMIN
 10
9.87044835671577
 20
22.869796765866
 30
0.0
  9
$EXTMAX
 10
2367.209695834726
 20
1178.349036083376
 30
0.0
  9
$LIMMIN
 10
0.0
 20
0.0
  9
$LIMMAX
 10
12.0
 20
9.0
  9
$ORTHOMODE
 70
     0
  9
$REGENMODE
 70
     1
  9
$FILLMODE
 70
     1
  9
$QTEXTMODE
 70
     0
  9
$MIRRTEXT
 70
     1
  9
$DRAGMODE
 70
     2
  9
$LTSCALE
 40
1.0
  9
$OSMODE
 70
    37
  9
$ATTMODE
 70
     1
  9
$TEXTSIZE
 40
0.2
  9
$TRACEWID
 40
0.05
  9
$TEXTSTYLE
  7
STANDARD
  9
$CLAYER
  8
0
  9
$CELTYPE
  6
BYLAYER
  9
$CECOLOR
 62
   256
  9
$DIMSCALE
 40
1.0
  9
$DIMASZ
 40
0.18
  9
$DIMEXO
 40
0.0625
  9
$DIMDLI
 40
0.38
  9
$DIMRND
 40
0.0
  9
$DIMDLE
 40
0.0
  9
$DIMEXE
 40
0.18
  9
$DIMTP
 40
0.0
  9
$DIMTM
 40
0.0
  9
$DIMTXT
 40
0.18
  9
$DIMCEN
 40
0.09
  9
$DIMTSZ
 40
0.0
  9
$DIMTOL
 70
     0
  9
$DIMLIM
 70
     0
  9
$DIMTIH
 70
     1
  9
$DIMTOH
 70
     1
  9
$DIMSE1
 70
     0
  9
$DIMSE2
 70
     0
  9
$DIMTAD
 70
     0
  9
$DIMZIN
 70
     0
  9
$DIMBLK
  1

  9
$DIMASO
 70
     1
  9
$DIMSHO
 70
     1
  9
$DIMPOST
  1

  9
$DIMAPOST
  1

  9
$DIMALT
 70
     0
  9
$DIMALTD
 70
     2
  9
$DIMALTF
 40
25.4
  9
$DIMLFAC
 40
1.0
  9
$DIMTOFL
 70
     0
  9
$DIMTVP
 40
0.0
  9
$DIMTIX
 70
     0
  9
$DIMSOXD
 70
     0
  9
$DIMSAH
 70
     0
  9
$DIMBLK1
  1

  9
$DIMBLK2
  1

  9
$DIMSTYLE
  2
STANDARD
  9
$DIMCLRD
 70
     0
  9
$DIMCLRE
 70
     0
  9
$DIMCLRT
 70
     0
  9
$DIMTFAC
 40
1.0
  9
$DIMGAP
 40
0.09
  9
$LUNITS
 70
     2
  9
$LUPREC
 70
     4
  9
$SKETCHINC
 40
0.1
  9
$FILLETRAD
 40
0.5
  9
$AUNITS
 70
     0
  9
$AUPREC
 70
     0
  9
$MENU
  1
.
  9
$ELEVATION
 40
0.0
  9
$PELEVATION
 40
0.0
  9
$THICKNESS
 40
0.0
  9
$LIMCHECK
 70
     0
  9
$CHAMFERA
 40
0.0
  9
$CHAMFERB
 40
0.0
  9
$SKPOLY
 70
     0
  9
$TDCREATE
 40
2454910.5
  9
$TDUPDATE
 40
2457374.570722187
  9
$TDINDWG
 40
0.0000000116
  9
$TDUSRTIMER
 40
0.0000000116
  9
$USRTIMER
 70
     1
  9
$ANGBASE
 50
0.0
  9
$ANGDIR
 70
     0
  9
$PDMODE
 70
     0
  9
$PDSIZE
 40
0.0
  9
$PLINEWID
 40
0.0
  9
$COORDS
 70
     1
  9
$SPLFRAME
 70
     0
  9
$SPLINETYPE
 70
     6
  9
$SPLINESEGS
 70
     8
  9
$ATTDIA
 70
     0
  9
$ATTREQ
 70
     1
  9
$HANDLING
 70
     1
  9
$HANDSEED
  5
6F1
  9
$SURFTAB1
 70
     6
  9
$SURFTAB2
 70
     6
  9
$SURFTYPE
 70
     6
  9
$SURFU
 70
     6
  9
$SURFV
 70
     6
  9
$UCSNAME
  2

  9
$UCSORG
 10
0.0
 20
0.0
 30
0.0
  9
$UCSXDIR
 10
1.0
 20
0.0
 30
0.0
  9
$UCSYDIR
 10
0.0
 20
1.0
 30
0.0
  9
$PUCSNAME
  2

  9
$PUCSORG
 10
0.0
 20
0.0
 30
0.0
  9
$PUCSXDIR
 10
1.0
 20
0.0
 30
0.0
  9
$PUCSYDIR
 10
0.0
 20
1.0
 30
0.0
  9
$USERI1
 70
     0
  9
$USERI2
 70
     0
  9
$USERI3
 70
     0
  9
$USERI4
 70
     0
  9
$USERI5
 70
     0
  9
$USERR1
 40
0.0
  9
$USERR2
 40
0.0
  9
$USERR3
 40
0.0
  9
$USERR4
 40
0.0
  9
$USERR5
 40
0.0
  9
$WORLDVIEW
 70
     1
  9
$SHADEDGE
 70
     3
  9
$SHADEDIF
 70
    70
  9
$TILEMODE
 70
     1
  9
$MAXACTVP
 70
    64
  9
$PLIMCHECK
 70
     0
  9
$PEXTMIN
 10
1.000000000000000E+20
 20
1.000000000000000E+20
 30
1.000000000000000E+20
  9
$PEXTMAX
 10
-1.000000000000000E+20
 20
-1.000000000000000E+20
 30
-1.000000000000000E+20
  9
$PLIMMIN
 10
0.0
 20
0.0
  9
$PLIMMAX
 10
12.0
 20
9.0
  9
$UNITMODE
 70
     0
  9
$VISRETAIN
 70
     1
  9
$PLINEGEN
 70
     0
  9
$PSLTSCALE
 70
     1
  0
ENDSEC
  0
SECTION
  2
TABLES
  0
TABLE
  2
VPORT
 70
     1
  0
VPORT
  2
*ACTIVE
 70
     0
 10
0.0
 20
0.0
 11
1.0
 21
1.0
 12
10.42990654205607
 22
4.5
 13
0.0
 23
0.0
 14
0.5
 24
0.5
 15
0.5
 25
0.5
 16
0.0
 26
0.0
 36
1.0
 17
0.0
 27
0.0
 37
0.0
 40
9.0
 41
1.972972972850329
 42
50.0
 43
0.0
 44
0.0
 50
0.0
 51
0.0
 71
     0
 72
   100
 73
     1
 74
     3
 75
     0
 76
     0
 77
     0
 78
     0
  0
ENDTAB
  0
TABLE
  2
LTYPE
 70
     2
  0
LTYPE
  2
CONTINUOUS
 70
     0
  3
Solid line
 72
    65
 73
     0
 40
0.0
  0
LTYPE
  2
CONTINUOUS2
 70
     0
  3
Solid Line
 72
    65
 73
     0
 40
0.0
  0
ENDTAB
  0
TABLE
  2
LAYER
 70
     2
  0
LAYER
  2
0
 70
     0
 62
     7
  6
CONTINUOUS
  0
LAYER
  2
SSS
 70
     0
 62
    18
  6
CONTINUOUS
  0
ENDTAB
  0
TABLE
  2
STYLE
 70
     1
  0
STYLE
  2
STANDARD
 70
     0
 40
0.0
 41
1.0
 50
0.0
 71
     0
 42
0.2
  3
txt
  4

  0
ENDTAB
  0
TABLE
  2
VIEW
 70
     0
  0
ENDTAB
  0
TABLE
  2
UCS
 70
     0
  0
ENDTAB
  0
TABLE
  2
APPID
 70
     1
  0
APPID
  2
ACAD
 70
     0
  0
ENDTAB
  0
TABLE
  2
DIMSTYLE
 70
     1
  0
DIMSTYLE
  2
STANDARD
 70
     0
  3

  4

  5

  6

  7

 40
1.0
 41
0.18
 42
0.0625
 43
0.38
 44
0.18
 45
0.0
 46
0.0
 47
0.0
 48
0.0
140
0.18
141
0.09
142
0.0
143
25.4
144
1.0
145
0.0
146
1.0
147
0.09
 71
     0
 72
     0
 73
     1
 74
     1
 75
     0
 76
     0
 77
     0
 78
     0
170
     0
171
     2
172
     0
173
     0
174
     0
175
     0
176
     0
177
     0
178
     0
  0
ENDTAB
  0
ENDSEC
  0
SECTION
  2
BLOCKS
  0
BLOCK
  8
0
  2
$MODEL_SPACE
 70
     0
 10
0.0
 20
0.0
 30
0.0
  3
$MODEL_SPACE
  1

  0
ENDBLK
  5
21
  8
0
  0
BLOCK
 67
     1
  8
0
  2
$PAPER_SPACE
 70
     0
 10
0.0
 20
0.0
 30
0.0
  3
$PAPER_SPACE
  1

  0
ENDBLK
  5
1D
 67
     1
  8
0
  0
ENDSEC
  0
SECTION
  2
ENTITIES
  0
POLYLINE
  5
70
  8
SSS
 66
     1
 10
0.0
 20
0.0
 30
0.0
 70
     1
  0
VERTEX
  5
11F
  8
SSS
 10
9.87044835671577
 20
711.2581309131856
 30
0.0
  0
VERTEX
  5
120
  8
SSS
 10
9.87044835671577
 20
718.2581309131856
 30
0.0
  0
VERTEX
  5
121
  8
SSS
 10
775.8704483567158
 20
718.2581309131858
 30
0.0
  0
VERTEX
  5
122
  8
SSS
 10
775.8704483567158
 20
711.2581309131858
 30
0.0
  0
SEQEND
  5
649
  8
SSS
  0
POLYLINE
  5
71
  8
SSS
 66
     1
 10
0.0
 20
0.0
 30
0.0
 70
     1
  0
VERTEX
  5
123
  8
SSS
 10
12.87044835671577
 20
705.695630913192
 30
0.0
  0
VERTEX
  5
124
  8
SSS
 10
12.87044835671577
 20
736.3806309131896
 30
0.0
  0
VERTEX
  5
125
  8
SSS
 10
24.8704483567171
 20
736.3806309131897
 30
0.0
  0
VERTEX
  5
126
  8
SSS
 10
24.87044835671696
 20
754.5056309131904
 30
0.0
  0
VERTEX
  5
127
  8
SSS
 10
12.87044835671577
 20
754.5056309131905
 30
0.0
  0
VERTEX
  5
128
  8
SSS
 10
12.87044835671577
 20
772.6306309131915
 30
0.0
  0
VERTEX
  5
129
  8
SSS
 10
24.87044835671692
 20
772.6306309131917
 30
0.0
  0
VERTEX
  5
12A
  8
SSS
 10
24.87044835671698
 20
808.8806309131908
 30
0.0
  0
VERTEX
  5
12B
  8
SSS
 10
12.87044835671577
 20
808.8806309131908
 30
0.0
  0
VERTEX
  5
12C
  8
SSS
 10
12.87044835671577
 20
827.0056309131908
 30
0.0
  0
VERTEX
  5
12D
  8
SSS
 10
24.87044835671699
 20
827.0056309131908
 30
0.0
  0
VERTEX
  5
12E
  8
SSS
 10
24.87044835671675
 20
845.1306309131897
 30
0.0
  0
VERTEX
  5
12F
  8
SSS
 10
12.87044835671577
 20
845.1306309131899
 30
0.0
  0
VERTEX
  5
130
  8
SSS
 10
12.87044835671577
 20
863.2556309131908
 30
0.0
  0
VERTEX
  5
131
  8
SSS
 10
772.8704483567158
 20
863.2556309131908
 30
0.0
  0
VERTEX
  5
132
  8
SSS
 10
772.8704483567158
 20
845.1306309131899
 30
0.0
  0
VERTEX
  5
133
  8
SSS
 10
760.8704483567064
 20
845.1306309131845
 30
0.0
  0
VERTEX
  5
134
  8
SSS
 10
760.8704483567197
 20
827.0056309131924
 30
0.0
  0
VERTEX
  5
135
  8
SSS
 10
772.8704483567158
 20
827.0056309131908
 30
0.0
  0
VERTEX
  5
136
  8
SSS
 10
772.8704483567158
 20
808.8806309131908
 30
0.0
  0
VERTEX
  5
137
  8
SSS
 10
760.8704483567149
 20
808.8806309131852
 30
0.0
  0
VERTEX
  5
138
  8
SSS
 10
760.8704483567151
 20
772.6306309131859
 30
0.0
  0
VERTEX
  5
139
  8
SSS
 10
772.8704483567158
 20
772.6306309131917
 30
0.0
  0
VERTEX
  5
13A
  8
SSS
 10
772.8704483567158
 20
754.5056309131908
 30
0.0
  0
VERTEX
  5
13B
  8
SSS
 10
760.8704483567078
 20
754.5056309131937
 30
0.0
  0
VERTEX
  5
13C
  8
SSS
 10
760.8704483567142
 20
736.3806309131866
 30
0.0
  0
VERTEX
  5
13D
  8
SSS
 10
772.8704483567158
 20
736.3806309131899
 30
0.0
  0
VERTEX
  5
13E
  8
SSS
 10
772.8704483567158
 20
705.6956309131922
 30
0.0
  0
SEQEND
  5
64A
  8
SSS
  0
POLYLINE
  5
72
  8
SSS
 66
     1
 10
0.0
 20
0.0
 30
0.0
 70
     1
  0
VERTEX
  5
13F
  8
SSS
 10
670.370448356716
 20
850.6556309131931
 30
0.0
  0
VERTEX
  5
140
  8
SSS
 10
743.8704483567153
 20
850.6556309131931
 30
0.0
  0
VERTEX
  5
141
  8
SSS
 10
743.8704483567153
 20
856.855630913193
 30
0.0
  0
VERTEX
  5
142
  8
SSS
 10
670.370448356716
 20
856.855630913193
 30
0.0
  0
SEQEND
  5
64B
  8
SSS
  0
POLYLINE
  5
73
  8
SSS
 66
     1
 10
0.0
 20
0.0
 30
0.0
 70
     1
  0
VERTEX
  5
143
  8
SSS
 10
483.3704483567162
 20
850.6556309131931
 30
0.0
  0
VERTEX
  5
144
  8
SSS
 10
582.8704483567158
 20
850.6556309131931
 30
0.0
  0
VERTEX
  5
145
  8
SSS
 10
582.8704483567158
 20
856.855630913193
 30
0.0
  0
VERTEX
  5
146
  8
SSS
 10
483.3704483567162
 20
856.855630913193
 30
0.0
  0
SEQEND
  5
64C
  8
SSS
  0
POLYLINE
  5
74
  8
SSS
 66
     1
 10
0.0
 20
0.0
 30
0.0
 70
     1
  0
VERTEX
  5
147
  8
SSS
 10
343.1204483567135
 20
850.6556309131931
 30
0.0
  0
VERTEX
  5
148
  8
SSS
 10
442.6204483567153
 20
850.6556309131931
 30
0.0
  0
VERTEX
  5
149
  8
SSS
 10
442.6204483567153
 20
856.855630913193
 30
0.0
  0
VERTEX
  5
14A
  8
SSS
 10
343.1204483567135
 20
856.855630913193
 30
0.0
  0
SEQEND
  5
64D
  8
SSS
  0
POLYLINE
  5
75
  8
SSS
 66
     1
 10
0.0
 20
0.0
 30
0.0
 70
     1
  0
VERTEX
  5
14B
  8
SSS
 10
202.870448356714
 20
850.6556309131931
 30
0.0
  0
VERTEX
  5
14C
  8
SSS
 10
302.3704483567144
 20
850.6556309131931
 30
0.0
  0
VERTEX
  5
14D
  8
SSS
 10
302.3704483567144
 20
856.855630913193
 30
0.0
  0
VERTEX
  5
14E
  8
SSS
 10
202.870448356714
 20
856.855630913193
 30
0.0
  0
SEQEND
  5
64E
  8
SSS
  0
POLYLINE
  5
76
  8
SSS
 66
     1
 10
0.0
 20
0.0
 30
0.0
 70
     1
  0
VERTEX
  5
14F
  8
SSS
 10
41.87044835671531
 20
850.6556309131932
 30
0.0
  0
VERTEX
  5
150
  8
SSS
 10
115.3704483567144
 20
850.6556309131932
 30
0.0
  0
VERTEX
  5
151
  8
SSS
 10
115.3704483567144
 20
856.8556309131928
 30
0.0
  0
VERTEX
  5
152
  8
SSS
 10
41.87044835671531
 20
856.8556309131928
 30
0.0
  0
SEQEND
  5
64F
  8
SSS
  0
POLYLINE
  5
77
  8
SSS
 66
     1
 10
0.0
 20
0.0
 30
0.0
 70
     1
  0
VERTEX
  5
153
  8
SSS
 10
244.7541025986877
 20
1087.149036083002
 30
0.0
  0
VERTEX
  5
154
  8
SSS
 10
324.7541025986868
 20
1087.149036083019
 30
0.0
 42
-0.453768226591751
  0
VERTEX
  5
155
  8
SSS
 10
344.7541025986795
 20
1069.649036083018
 30
0.0
 42
-0.4537682265917541
  0
VERTEX
  5
156
  8
SSS
 10
324.7541025986823
 20
1052.149036083019
 30
0.0
  0
VERTEX
  5
157
  8
SSS
 10
244.7541025986832
 20
1052.149036083001
 30
0.0
 42
-0.4537682265919399
  0
VERTEX
  5
158
  8
SSS
 10
224.7541025986777
 20
1069.649036083001
 30
0.0
 42
-0.4537682265919429
  0
SEQEND
  5
650
  8
SSS
  0
POLYLINE
  5
78
  8
SSS
 66
     1
 10
0.0
 20
0.0
 30
0.0
 70
     1
  0
VERTEX
  5
159
  8
SSS
 10
284.7541025986486
 20
1135.986355397588
 30
0.0
 42
0.4142135623730951
  0
VERTEX
  5
15A
  8
SSS
 10
273.309722914649
 20
1124.541975713588
 30
0.0
 42
0.4142135623730951
  0
VERTEX
  5
15B
  8
SSS
 10
284.7541025986486
 20
1113.097596029588
 30
0.0
 42
0.4142135623730951
  0
VERTEX
  5
15C
  8
SSS
 10
296.1984822826482
 20
1124.541975713588
 30
0.0
 42
0.4142135623730951
  0
SEQEND
  5
651
  8
SSS
  0
POLYLINE
  5
79
  8
SSS
 66
     1
 10
0.0
 20
0.0
 30
0.0
 70
     1
  0
VERTEX
  5
15D
  8
SSS
 10
14.75410259865623
 20
1154.024036082952
 30
0.0
  0
VERTEX
  5
15E
  8
SSS
 10
26.75410259865648
 20
1154.024036082956
 30
0.0
  0
VERTEX
  5
15F
  8
SSS
 10
26.75410259865077
 20
1172.149036082954
 30
0.0
  0
VERTEX
  5
160
  8
SSS
 10
32.75410259865077
 20
1172.149036082958
 30
0.0
  0
VERTEX
  5
161
  8
SSS
 10
40.42694725484637
 20
1178.34903608296
 30
0.0
  0
VERTEX
  5
162
  8
SSS
 10
529.0813123281062
 20
1178.349036083053
 30
0.0
  0
VERTEX
  5
163
  8
SSS
 10
536.7541025986513
 20
1172.149036083055
 30
0.0
  0
VERTEX
  5
164
  8
SSS
 10
542.7541025986532
 20
1172.14903608306
 30
0.0
  0
VERTEX
  5
165
  8
SSS
 10
542.7541025986579
 20
1154.024036083064
 30
0.0
  0
VERTEX
  5
166
  8
SSS
 10
554.7541025986532
 20
1154.02403608306
 30
0.0
  0
VERTEX
  5
167
  8
SSS
 10
554.7541025986832
 20
1135.899036083059
 30
0.0
  0
VERTEX
  5
168
  8
SSS
 10
542.7541025986923
 20
1135.899036083051
 30
0.0
  0
VERTEX
  5
169
  8
SSS
 10
542.7541025986849
 20
1117.774036083044
 30
0.0
  0
VERTEX
  5
16A
  8
SSS
 10
554.7541025986895
 20
1117.77403608306
 30
0.0
  0
VERTEX
  5
16B
  8
SSS
 10
554.754102598685
 20
1081.524036083059
 30
0.0
  0
VERTEX
  5
16C
  8
SSS
 10
542.7541025986973
 20
1081.524036083061
 30
0.0
  0
VERTEX
  5
16D
  8
SSS
 10
542.7541025986901
 20
1063.399036083058
 30
0.0
  0
VERTEX
  5
16E
  8
SSS
 10
554.7541025986877
 20
1063.399036083059
 30
0.0
  0
VERTEX
  5
16F
  8
SSS
 10
554.7541025987041
 20
1045.27403608306
 30
0.0
  0
VERTEX
  5
170
  8
SSS
 10
542.7541025987055
 20
1045.274036083062
 30
0.0
  0
VERTEX
  5
171
  8
SSS
 10
542.7541025987041
 20
1027.151536083064
 30
0.0
  0
VERTEX
  5
172
  8
SSS
 10
26.75410259869932
 20
1027.151536082959
 30
0.0
  0
VERTEX
  5
173
  8
SSS
 10
26.75410259869923
 20
1045.274036082955
 30
0.0
  0
VERTEX
  5
174
  8
SSS
 10
14.75410259869932
 20
1045.274036082953
 30
0.0
  0
VERTEX
  5
175
  8
SSS
 10
14.75410259869989
 20
1063.399036082953
 30
0.0
  0
VERTEX
  5
176
  8
SSS
 10
26.75410259869987
 20
1063.399036082958
 30
0.0
  0
VERTEX
  5
177
  8
SSS
 10
26.75410259868445
 20
1081.524036082956
 30
0.0
  0
VERTEX
  5
178
  8
SSS
 10
14.75410259868715
 20
1081.524036082953
 30
0.0
  0
VERTEX
  5
179
  8
SSS
 10
14.75410259868261
 20
1117.774036082951
 30
0.0
  0
VERTEX
  5
17A
  8
SSS
 10
26.75410259868261
 20
1117.774036082956
 30
0.0
  0
VERTEX
  5
17B
  8
SSS
 10
26.75410259867419
 20
1135.899036082955
 30
0.0
  0
VERTEX
  5
17C
  8
SSS
 10
14.75410259867351
 20
1135.899036082951
 30
0.0
  0
SEQEND
  5
652
  8
SSS
  0
POLYLINE
  5
7A
  8
SSS
 66
     1
 10
0.0
 20
0.0
 30
0.0
 70
     1
  0
VERTEX
  5
17D
  8
SSS
 10
410.7541025986644
 20
1159.05003608323
 30
0.0
  0
VERTEX
  5
17E
  8
SSS
 10
410.7541025986708
 20
1165.250036082848
 30
0.0
  0
VERTEX
  5
17F
  8
SSS
 10
481.254102598669
 20
1165.25003608286
 30
0.0
  0
VERTEX
  5
180
  8
SSS
 10
481.2541025986544
 20
1159.050036083243
 30
0.0
  0
SEQEND
  5
653
  8
SSS
  0
POLYLINE
  5
7B
  8
SSS
 66
     1
 10
0.0
 20
0.0
 30
0.0
 70
     1
  0
VERTEX
  5
181
  8
SSS
 10
237.2541025986681
 20
1165.250036082809
 30
0.0
  0
VERTEX
  5
182
  8
SSS
 10
237.2541025986535
 20
1159.050036083193
 30
0.0
  0
VERTEX
  5
183
  8
SSS
 10
332.2541025986526
 20
1159.050036083218
 30
0.0
  0
VERTEX
  5
184
  8
SSS
 10
332.2541025986671
 20
1165.250036082834
 30
0.0
  0
SEQEND
  5
654
  8
SSS
  0
POLYLINE
  5
7C
  8
SSS
 66
     1
 10
0.0
 20
0.0
 30
0.0
 70
     1
  0
VERTEX
  5
185
  8
SSS
 10
88.25410259866896
 20
1165.250036082784
 30
0.0
  0
VERTEX
  5
186
  8
SSS
 10
88.25410259865987
 20
1159.050036083169
 30
0.0
  0
VERTEX
  5
187
  8
SSS
 10
158.754102598659
 20
1159.050036083181
 30
0.0
  0
VERTEX
  5
188
  8
SSS
 10
158.7541025986671
 20
1165.250036082796
 30
0.0
  0
SEQEND
  5
655
  8
SSS
  0
POLYLINE
  5
7D
  8
SSS
 66
     1
 10
0.0
 20
0.0
 30
0.0
 70
     1
  0
VERTEX
  5
189
  8
SSS
 10
184.7541025986509
 20
1094.54197571361
 30
0.0
  0
VERTEX
  5
18A
  8
SSS
 10
384.7541025986892
 20
1094.54197571361
 30
0.0
  0
VERTEX
  5
18B
  8
SSS
 10
384.7541025986892
 20
1154.54197571357
 30
0.0
  0
VERTEX
  5
18C
  8
SSS
 10
184.7541025986509
 20
1154.54197571357
 30
0.0
  0
SEQEND
  5
656
  8
SSS
  0
POLYLINE
  5
7E
  8
SSS
 66
     1
 10
0.0
 20
0.0
 30
0.0
 70
     1
  0
VERTEX
  5
18D
  8
SSS
 10
244.7538417291464
 20
929.5531309132336
 30
0.0
  0
VERTEX
  5
18E
  8
SSS
 10
324.7538417291455
 20
929.5531309132507
 30
0.0
 42
-0.453768226591751
  0
VERTEX
  5
18F
  8
SSS
 10
344.7538417291382
 20
912.0531309132498
 30
0.0
 42
-0.4537682265917541
  0
VERTEX
  5
190
  8
SSS
 10
324.753841729141
 20
894.5531309132505
 30
0.0
  0
VERTEX
  5
191
  8
SSS
 10
244.7538417291419
 20
894.5531309132325
 30
0.0
 42
-0.4537682265919399
  0
VERTEX
  5
192
  8
SSS
 10
224.7538417291364
 20
912.0531309132325
 30
0.0
 42
-0.4537682265919429
  0
SEQEND
  5
657
  8
SSS
  0
POLYLINE
  5
7F
  8
SSS
 66
     1
 10
0.0
 20
0.0
 30
0.0
 70
     1
  0
VERTEX
  5
193
  8
SSS
 10
284.7538417291073
 20
978.3904502278197
 30
0.0
 42
0.4142135623730951
  0
VERTEX
  5
194
  8
SSS
 10
273.3094620451077
 20
966.9460705438196
 30
0.0
 42
0.4142135623730951
  0
VERTEX
  5
195
  8
SSS
 10
284.7538417291073
 20
955.5016908598197
 30
0.0
 42
0.4142135623730951
  0
VERTEX
  5
196
  8
SSS
 10
296.1982214131069
 20
966.9460705438196
 30
0.0
 42
0.4142135623730951
  0
SEQEND
  5
658
  8
SSS
  0
POLYLINE
  5
80
  8
SSS
 66
     1
 10
0.0
 20
0.0
 30
0.0
 70
     1
  0
VERTEX
  5
197
  8
SSS
 10
14.75384172911492
 20
996.4281309131836
 30
0.0
  0
VERTEX
  5
198
  8
SSS
 10
26.75384172911517
 20
996.4281309131875
 30
0.0
  0
VERTEX
  5
199
  8
SSS
 10
26.75384172910947
 20
1014.553130913185
 30
0.0
  0
VERTEX
  5
19A
  8
SSS
 10
32.75384172910947
 20
1014.55313091319
 30
0.0
  0
VERTEX
  5
19B
  8
SSS
 10
40.42668638530506
 20
1020.753130913192
 30
0.0
  0
VERTEX
  5
19C
  8
SSS
 10
529.0810514585648
 20
1020.753130913284
 30
0.0
  0
VERTEX
  5
19D
  8
SSS
 10
536.75384172911
 20
1014.553130913286
 30
0.0
  0
VERTEX
  5
19E
  8
SSS
 10
542.7538417291119
 20
1014.553130913291
 30
0.0
  0
VERTEX
  5
19F
  8
SSS
 10
542.7538417291166
 20
996.428130913296
 30
0.0
  0
VERTEX
  5
1A0
  8
SSS
 10
554.7538417291119
 20
996.4281309132914
 30
0.0
  0
VERTEX
  5
1A1
  8
SSS
 10
554.7538417291419
 20
978.3031309132905
 30
0.0
  0
VERTEX
  5
1A2
  8
SSS
 10
542.753841729151
 20
978.3031309132825
 30
0.0
  0
VERTEX
  5
1A3
  8
SSS
 10
542.7538417291436
 20
960.1781309132753
 30
0.0
  0
VERTEX
  5
1A4
  8
SSS
 10
554.7538417291482
 20
960.1781309132914
 30
0.0
  0
VERTEX
  5
1A5
  8
SSS
 10
554.7538417291437
 20
923.9281309132905
 30
0.0
  0
VERTEX
  5
1A6
  8
SSS
 10
542.753841729156
 20
923.928130913293
 30
0.0
  0
VERTEX
  5
1A7
  8
SSS
 10
542.7538417291488
 20
905.8031309132891
 30
0.0
  0
VERTEX
  5
1A8
  8
SSS
 10
554.7538417291464
 20
905.8031309132905
 30
0.0
  0
VERTEX
  5
1A9
  8
SSS
 10
554.7538417291628
 20
887.6781309132914
 30
0.0
  0
VERTEX
  5
1AA
  8
SSS
 10
542.7538417291642
 20
887.6781309132937
 30
0.0
  0
VERTEX
  5
1AB
  8
SSS
 10
542.7538417291628
 20
869.5556309132955
 30
0.0
  0
VERTEX
  5
1AC
  8
SSS
 10
26.75384172915801
 20
869.5556309131907
 30
0.0
  0
VERTEX
  5
1AD
  8
SSS
 10
26.75384172915792
 20
887.6781309131868
 30
0.0
  0
VERTEX
  5
1AE
  8
SSS
 10
14.75384172915801
 20
887.6781309131845
 30
0.0
  0
VERTEX
  5
1AF
  8
SSS
 10
14.75384172915858
 20
905.8031309131845
 30
0.0
  0
VERTEX
  5
1B0
  8
SSS
 10
26.75384172915856
 20
905.8031309131895
 30
0.0
  0
VERTEX
  5
1B1
  8
SSS
 10
26.75384172914314
 20
923.9281309131877
 30
0.0
  0
VERTEX
  5
1B2
  8
SSS
 10
14.75384172914585
 20
923.9281309131845
 30
0.0
  0
VERTEX
  5
1B3
  8
SSS
 10
14.7538417291413
 20
960.1781309131827
 30
0.0
  0
VERTEX
  5
1B4
  8
SSS
 10
26.7538417291413
 20
960.1781309131879
 30
0.0
  0
VERTEX
  5
1B5
  8
SSS
 10
26.75384172913288
 20
978.3031309131861
 30
0.0
  0
VERTEX
  5
1B6
  8
SSS
 10
14.7538417291322
 20
978.3031309131827
 30
0.0
  0
SEQEND
  5
659
  8
SSS
  0
POLYLINE
  5
81
  8
SSS
 66
     1
 10
0.0
 20
0.0
 30
0.0
 70
     1
  0
VERTEX
  5
1B7
  8
SSS
 10
410.7538417291231
 20
1001.454130913462
 30
0.0
  0
VERTEX
  5
1B8
  8
SSS
 10
410.7538417291295
 20
1007.654130913079
 30
0.0
  0
VERTEX
  5
1B9
  8
SSS
 10
481.2538417291277
 20
1007.654130913092
 30
0.0
  0
VERTEX
  5
1BA
  8
SSS
 10
481.2538417291131
 20
1001.454130913474
 30
0.0
  0
SEQEND
  5
65A
  8
SSS
  0
POLYLINE
  5
82
  8
SSS
 66
     1
 10
0.0
 20
0.0
 30
0.0
 70
     1
  0
VERTEX
  5
1BB
  8
SSS
 10
237.2538417291267
 20
1007.65413091304
 30
0.0
  0
VERTEX
  5
1BC
  8
SSS
 10
237.2538417291122
 20
1001.454130913425
 30
0.0
  0
VERTEX
  5
1BD
  8
SSS
 10
332.2538417291113
 20
1001.454130913449
 30
0.0
  0
VERTEX
  5
1BE
  8
SSS
 10
332.2538417291258
 20
1007.654130913066
 30
0.0
  0
SEQEND
  5
65B
  8
SSS
  0
POLYLINE
  5
83
  8
SSS
 66
     1
 10
0.0
 20
0.0
 30
0.0
 70
     1
  0
VERTEX
  5
1BF
  8
SSS
 10
88.25384172912766
 20
1007.654130913016
 30
0.0
  0
VERTEX
  5
1C0
  8
SSS
 10
88.25384172911856
 20
1001.4541309134
 30
0.0
  0
VERTEX
  5
1C1
  8
SSS
 10
158.7538417291177
 20
1001.454130913412
 30
0.0
  0
VERTEX
  5
1C2
  8
SSS
 10
158.7538417291258
 20
1007.654130913028
 30
0.0
  0
SEQEND
  5
65C
  8
SSS
  0
POLYLINE
  5
84
  8
SSS
 66
     1
 10
0.0
 20
0.0
 30
0.0
 70
     1
  0
VERTEX
  5
1C3
  8
SSS
 10
184.7538417291096
 20
936.9460705438416
 30
0.0
  0
VERTEX
  5
1C4
  8
SSS
 10
384.7538417291479
 20
936.9460705438416
 30
0.0
  0
VERTEX
  5
1C5
  8
SSS
 10
384.7538417291479
 20
996.9460705438019
 30
0.0
  0
VERTEX
  5
1C6
  8
SSS
 10
184.7538417291096
 20
996.9460705438019
 30
0.0
  0
SEQEND
  5
65D
  8
SSS
  0
POLYLINE
  5
85
  8
SSS
 66
     1
 10
0.0
 20
0.0
 30
0.0
 70
     1
  0
VERTEX
  5
1C7
  8
SSS
 10
791.0541025986845
 20
1087.14903608311
 30
0.0
  0
VERTEX
  5
1C8
  8
SSS
 10
871.0541025986836
 20
1087.149036083127
 30
0.0
 42
-0.453768226591751
  0
VERTEX
  5
1C9
  8
SSS
 10
891.0541025986763
 20
1069.649036083126
 30
0.0
 42
-0.4537682265917541
  0
VERTEX
  5
1CA
  8
SSS
 10
871.054102598679
 20
1052.149036083127
 30
0.0
  0
VERTEX
  5
1CB
  8
SSS
 10
791.05410259868
 20
1052.149036083109
 30
0.0
 42
-0.4537682265919399
  0
VERTEX
  5
1CC
  8
SSS
 10
771.0541025986745
 20
1069.649036083109
 30
0.0
 42
-0.4537682265919429
  0
SEQEND
  5
65E
  8
SSS
  0
POLYLINE
  5
86
  8
SSS
 66
     1
 10
0.0
 20
0.0
 30
0.0
 70
     1
  0
VERTEX
  5
1CD
  8
SSS
 10
831.0541025986454
 20
1135.986355397696
 30
0.0
 42
0.4142135623730951
  0
VERTEX
  5
1CE
  8
SSS
 10
819.6097229146458
 20
1124.541975713696
 30
0.0
 42
0.4142135623730951
  0
VERTEX
  5
1CF
  8
SSS
 10
831.0541025986454
 20
1113.097596029696
 30
0.0
 42
0.4142135623730951
  0
VERTEX
  5
1D0
  8
SSS
 10
842.498482282645
 20
1124.541975713696
 30
0.0
 42
0.4142135623730951
  0
SEQEND
  5
65F
  8
SSS
  0
POLYLINE
  5
87
  8
SSS
 66
     1
 10
0.0
 20
0.0
 30
0.0
 70
     1
  0
VERTEX
  5
1D1
  8
SSS
 10
561.054102598653
 20
1154.02403608306
 30
0.0
  0
VERTEX
  5
1D2
  8
SSS
 10
573.0541025986532
 20
1154.024036083064
 30
0.0
  0
VERTEX
  5
1D3
  8
SSS
 10
573.0541025986475
 20
1172.149036083062
 30
0.0
  0
VERTEX
  5
1D4
  8
SSS
 10
579.0541025986475
 20
1172.149036083066
 30
0.0
  0
VERTEX
  5
1D5
  8
SSS
 10
586.7269472548431
 20
1178.349036083068
 30
0.0
  0
VERTEX
  5
1D6
  8
SSS
 10
1075.381312328103
 20
1178.349036083161
 30
0.0
  0
VERTEX
  5
1D7
  8
SSS
 10
1083.054102598648
 20
1172.149036083163
 30
0.0
  0
VERTEX
  5
1D8
  8
SSS
 10
1089.05410259865
 20
1172.149036083168
 30
0.0
  0
VERTEX
  5
1D9
  8
SSS
 10
1089.054102598655
 20
1154.024036083172
 30
0.0
  0
VERTEX
  5
1DA
  8
SSS
 10
1101.05410259865
 20
1154.024036083168
 30
0.0
  0
VERTEX
  5
1DB
  8
SSS
 10
1101.05410259868
 20
1135.899036083167
 30
0.0
  0
VERTEX
  5
1DC
  8
SSS
 10
1089.054102598689
 20
1135.899036083159
 30
0.0
  0
VERTEX
  5
1DD
  8
SSS
 10
1089.054102598682
 20
1117.774036083151
 30
0.0
  0
VERTEX
  5
1DE
  8
SSS
 10
1101.054102598686
 20
1117.774036083168
 30
0.0
  0
VERTEX
  5
1DF
  8
SSS
 10
1101.054102598682
 20
1081.524036083167
 30
0.0
  0
VERTEX
  5
1E0
  8
SSS
 10
1089.054102598694
 20
1081.524036083169
 30
0.0
  0
VERTEX
  5
1E1
  8
SSS
 10
1089.054102598687
 20
1063.399036083165
 30
0.0
  0
VERTEX
  5
1E2
  8
SSS
 10
1101.054102598684
 20
1063.399036083167
 30
0.0
  0
VERTEX
  5
1E3
  8
SSS
 10
1101.054102598701
 20
1045.274036083168
 30
0.0
  0
VERTEX
  5
1E4
  8
SSS
 10
1089.054102598702
 20
1045.27403608317
 30
0.0
  0
VERTEX
  5
1E5
  8
SSS
 10
1089.054102598701
 20
1027.151536083172
 30
0.0
  0
VERTEX
  5
1E6
  8
SSS
 10
573.0541025986961
 20
1027.151536083067
 30
0.0
  0
VERTEX
  5
1E7
  8
SSS
 10
573.054102598696
 20
1045.274036083063
 30
0.0
  0
VERTEX
  5
1E8
  8
SSS
 10
561.0541025986961
 20
1045.274036083061
 30
0.0
  0
VERTEX
  5
1E9
  8
SSS
 10
561.0541025986967
 20
1063.399036083061
 30
0.0
  0
VERTEX
  5
1EA
  8
SSS
 10
573.0541025986967
 20
1063.399036083066
 30
0.0
  0
VERTEX
  5
1EB
  8
SSS
 10
573.0541025986812
 20
1081.524036083064
 30
0.0
  0
VERTEX
  5
1EC
  8
SSS
 10
561.0541025986839
 20
1081.524036083061
 30
0.0
  0
VERTEX
  5
1ED
  8
SSS
 10
561.0541025986794
 20
1117.774036083059
 30
0.0
  0
VERTEX
  5
1EE
  8
SSS
 10
573.0541025986794
 20
1117.774036083064
 30
0.0
  0
VERTEX
  5
1EF
  8
SSS
 10
573.054102598671
 20
1135.899036083062
 30
0.0
  0
VERTEX
  5
1F0
  8
SSS
 10
561.0541025986703
 20
1135.899036083059
 30
0.0
  0
SEQEND
  5
660
  8
SSS
  0
POLYLINE
  5
88
  8
SSS
 66
     1
 10
0.0
 20
0.0
 30
0.0
 70
     1
  0
VERTEX
  5
1F1
  8
SSS
 10
957.0541025986612
 20
1159.050036083338
 30
0.0
  0
VERTEX
  5
1F2
  8
SSS
 10
957.0541025986676
 20
1165.250036082956
 30
0.0
  0
VERTEX
  5
1F3
  8
SSS
 10
1027.554102598666
 20
1165.250036082968
 30
0.0
  0
VERTEX
  5
1F4
  8
SSS
 10
1027.554102598651
 20
1159.050036083351
 30
0.0
  0
SEQEND
  5
661
  8
SSS
  0
POLYLINE
  5
89
  8
SSS
 66
     1
 10
0.0
 20
0.0
 30
0.0
 70
     1
  0
VERTEX
  5
1F5
  8
SSS
 10
783.5541025986648
 20
1165.250036082916
 30
0.0
  0
VERTEX
  5
1F6
  8
SSS
 10
783.5541025986503
 20
1159.050036083301
 30
0.0
  0
VERTEX
  5
1F7
  8
SSS
 10
878.5541025986494
 20
1159.050036083326
 30
0.0
  0
VERTEX
  5
1F8
  8
SSS
 10
878.5541025986639
 20
1165.250036082942
 30
0.0
  0
SEQEND
  5
662
  8
SSS
  0
POLYLINE
  5
8A
  8
SSS
 66
     1
 10
0.0
 20
0.0
 30
0.0
 70
     1
  0
VERTEX
  5
1F9
  8
SSS
 10
634.5541025986657
 20
1165.250036082892
 30
0.0
  0
VERTEX
  5
1FA
  8
SSS
 10
634.5541025986566
 20
1159.050036083276
 30
0.0
  0
VERTEX
  5
1FB
  8
SSS
 10
705.0541025986557
 20
1159.050036083289
 30
0.0
  0
VERTEX
  5
1FC
  8
SSS
 10
705.0541025986639
 20
1165.250036082904
 30
0.0
  0
SEQEND
  5
663
  8
SSS
  0
POLYLINE
  5
8B
  8
SSS
 66
     1
 10
0.0
 20
0.0
 30
0.0
 70
     1
  0
VERTEX
  5
1FD
  8
SSS
 10
731.0541025986477
 20
1094.541975713718
 30
0.0
  0
VERTEX
  5
1FE
  8
SSS
 10
931.054102598686
 20
1094.541975713718
 30
0.0
  0
VERTEX
  5
1FF
  8
SSS
 10
931.054102598686
 20
1154.541975713678
 30
0.0
  0
VERTEX
  5
200
  8
SSS
 10
731.0541025986477
 20
1154.541975713678
 30
0.0
  0
SEQEND
  5
664
  8
SSS
  0
POLYLINE
  5
8C
  8
SSS
 66
     1
 10
0.0
 20
0.0
 30
0.0
 70
     1
  0
VERTEX
  5
201
  8
SSS
 10
791.0538417291432
 20
929.5531309133414
 30
0.0
  0
VERTEX
  5
202
  8
SSS
 10
871.0538417291423
 20
929.5531309133585
 30
0.0
 42
-0.453768226591751
  0
VERTEX
  5
203
  8
SSS
 10
891.053841729135
 20
912.0531309133576
 30
0.0
 42
-0.4537682265917541
  0
VERTEX
  5
204
  8
SSS
 10
871.0538417291377
 20
894.5531309133582
 30
0.0
  0
VERTEX
  5
205
  8
SSS
 10
791.0538417291386
 20
894.5531309133403
 30
0.0
 42
-0.4537682265919399
  0
VERTEX
  5
206
  8
SSS
 10
771.0538417291332
 20
912.0531309133403
 30
0.0
 42
-0.4537682265919429
  0
SEQEND
  5
665
  8
SSS
  0
POLYLINE
  5
8D
  8
SSS
 66
     1
 10
0.0
 20
0.0
 30
0.0
 70
     1
  0
VERTEX
  5
207
  8
SSS
 10
831.0538417291041
 20
978.3904502279274
 30
0.0
 42
0.4142135623730951
  0
VERTEX
  5
208
  8
SSS
 10
819.6094620451045
 20
966.9460705439274
 30
0.0
 42
0.4142135623730951
  0
VERTEX
  5
209
  8
SSS
 10
831.0538417291041
 20
955.5016908599275
 30
0.0
 42
0.4142135623730951
  0
VERTEX
  5
20A
  8
SSS
 10
842.4982214131037
 20
966.9460705439274
 30
0.0
 42
0.4142135623730951
  0
SEQEND
  5
666
  8
SSS
  0
POLYLINE
  5
8E
  8
SSS
 66
     1
 10
0.0
 20
0.0
 30
0.0
 70
     1
  0
VERTEX
  5
20B
  8
SSS
 10
561.0538417291117
 20
996.4281309132914
 30
0.0
  0
VERTEX
  5
20C
  8
SSS
 10
573.0538417291119
 20
996.4281309132953
 30
0.0
  0
VERTEX
  5
20D
  8
SSS
 10
573.0538417291062
 20
1014.553130913293
 30
0.0
  0
VERTEX
  5
20E
  8
SSS
 10
579.0538417291062
 20
1014.553130913297
 30
0.0
  0
VERTEX
  5
20F
  8
SSS
 10
586.7266863853018
 20
1020.753130913299
 30
0.0
  0
VERTEX
  5
210
  8
SSS
 10
1075.381051458562
 20
1020.753130913392
 30
0.0
  0
VERTEX
  5
211
  8
SSS
 10
1083.053841729107
 20
1014.553130913394
 30
0.0
  0
VERTEX
  5
212
  8
SSS
 10
1089.053841729109
 20
1014.553130913399
 30
0.0
  0
VERTEX
  5
213
  8
SSS
 10
1089.053841729113
 20
996.4281309134037
 30
0.0
  0
VERTEX
  5
214
  8
SSS
 10
1101.053841729109
 20
996.4281309133992
 30
0.0
  0
VERTEX
  5
215
  8
SSS
 10
1101.053841729139
 20
978.3031309133983
 30
0.0
  0
VERTEX
  5
216
  8
SSS
 10
1089.053841729148
 20
978.3031309133903
 30
0.0
  0
VERTEX
  5
217
  8
SSS
 10
1089.05384172914
 20
960.178130913383
 30
0.0
  0
VERTEX
  5
218
  8
SSS
 10
1101.053841729145
 20
960.1781309133992
 30
0.0
  0
VERTEX
  5
219
  8
SSS
 10
1101.05384172914
 20
923.9281309133983
 30
0.0
  0
VERTEX
  5
21A
  8
SSS
 10
1089.053841729153
 20
923.9281309134008
 30
0.0
  0
VERTEX
  5
21B
  8
SSS
 10
1089.053841729145
 20
905.8031309133969
 30
0.0
  0
VERTEX
  5
21C
  8
SSS
 10
1101.053841729143
 20
905.8031309133983
 30
0.0
  0
VERTEX
  5
21D
  8
SSS
 10
1101.05384172916
 20
887.6781309133992
 30
0.0
  0
VERTEX
  5
21E
  8
SSS
 10
1089.053841729161
 20
887.6781309134014
 30
0.0
  0
VERTEX
  5
21F
  8
SSS
 10
1089.05384172916
 20
869.5556309134033
 30
0.0
  0
VERTEX
  5
220
  8
SSS
 10
573.0538417291548
 20
869.5556309132985
 30
0.0
  0
VERTEX
  5
221
  8
SSS
 10
573.0538417291547
 20
887.6781309132946
 30
0.0
  0
VERTEX
  5
222
  8
SSS
 10
561.0538417291548
 20
887.6781309132923
 30
0.0
  0
VERTEX
  5
223
  8
SSS
 10
561.0538417291554
 20
905.8031309132923
 30
0.0
  0
VERTEX
  5
224
  8
SSS
 10
573.0538417291554
 20
905.8031309132973
 30
0.0
  0
VERTEX
  5
225
  8
SSS
 10
573.0538417291399
 20
923.9281309132955
 30
0.0
  0
VERTEX
  5
226
  8
SSS
 10
561.0538417291426
 20
923.9281309132923
 30
0.0
  0
VERTEX
  5
227
  8
SSS
 10
561.0538417291381
 20
960.1781309132905
 30
0.0
  0
VERTEX
  5
228
  8
SSS
 10
573.0538417291381
 20
960.1781309132957
 30
0.0
  0
VERTEX
  5
229
  8
SSS
 10
573.0538417291297
 20
978.3031309132939
 30
0.0
  0
VERTEX
  5
22A
  8
SSS
 10
561.053841729129
 20
978.3031309132905
 30
0.0
  0
SEQEND
  5
667
  8
SSS
  0
POLYLINE
  5
8F
  8
SSS
 66
     1
 10
0.0
 20
0.0
 30
0.0
 70
     1
  0
VERTEX
  5
22B
  8
SSS
 10
957.0538417291199
 20
1001.45413091357
 30
0.0
  0
VERTEX
  5
22C
  8
SSS
 10
957.0538417291262
 20
1007.654130913187
 30
0.0
  0
VERTEX
  5
22D
  8
SSS
 10
1027.553841729125
 20
1007.654130913199
 30
0.0
  0
VERTEX
  5
22E
  8
SSS
 10
1027.55384172911
 20
1001.454130913582
 30
0.0
  0
SEQEND
  5
668
  8
SSS
  0
POLYLINE
  5
90
  8
SSS
 66
     1
 10
0.0
 20
0.0
 30
0.0
 70
     1
  0
VERTEX
  5
22F
  8
SSS
 10
783.5538417291235
 20
1007.654130913148
 30
0.0
  0
VERTEX
  5
230
  8
SSS
 10
783.553841729109
 20
1001.454130913533
 30
0.0
  0
VERTEX
  5
231
  8
SSS
 10
878.5538417291081
 20
1001.454130913557
 30
0.0
  0
VERTEX
  5
232
  8
SSS
 10
878.5538417291226
 20
1007.654130913174
 30
0.0
  0
SEQEND
  5
669
  8
SSS
  0
POLYLINE
  5
91
  8
SSS
 66
     1
 10
0.0
 20
0.0
 30
0.0
 70
     1
  0
VERTEX
  5
233
  8
SSS
 10
634.5538417291244
 20
1007.654130913123
 30
0.0
  0
VERTEX
  5
234
  8
SSS
 10
634.5538417291153
 20
1001.454130913508
 30
0.0
  0
VERTEX
  5
235
  8
SSS
 10
705.0538417291144
 20
1001.45413091352
 30
0.0
  0
VERTEX
  5
236
  8
SSS
 10
705.0538417291226
 20
1007.654130913136
 30
0.0
  0
SEQEND
  5
66A
  8
SSS
  0
POLYLINE
  5
92
  8
SSS
 66
     1
 10
0.0
 20
0.0
 30
0.0
 70
     1
  0
VERTEX
  5
237
  8
SSS
 10
731.0538417291064
 20
936.9460705439494
 30
0.0
  0
VERTEX
  5
238
  8
SSS
 10
931.0538417291447
 20
936.9460705439494
 30
0.0
  0
VERTEX
  5
239
  8
SSS
 10
931.0538417291447
 20
996.9460705439096
 30
0.0
  0
VERTEX
  5
23A
  8
SSS
 10
731.0538417291064
 20
996.9460705439096
 30
0.0
  0
SEQEND
  5
66B
  8
SSS
  0
POLYLINE
  5
93
  8
SSS
 66
     1
 10
0.0
 20
0.0
 30
0.0
 70
     1
  0
VERTEX
  5
23B
  8
SSS
 10
1337.354102598682
 20
1087.149036083218
 30
0.0
  0
VERTEX
  5
23C
  8
SSS
 10
1417.354102598681
 20
1087.149036083235
 30
0.0
 42
-0.453768226591751
  0
VERTEX
  5
23D
  8
SSS
 10
1437.354102598674
 20
1069.649036083234
 30
0.0
 42
-0.4537682265917541
  0
VERTEX
  5
23E
  8
SSS
 10
1417.354102598676
 20
1052.149036083234
 30
0.0
  0
VERTEX
  5
23F
  8
SSS
 10
1337.354102598677
 20
1052.149036083217
 30
0.0
 42
-0.4537682265919399
  0
VERTEX
  5
240
  8
SSS
 10
1317.354102598672
 20
1069.649036083217
 30
0.0
 42
-0.4537682265919429
  0
SEQEND
  5
66C
  8
SSS
  0
POLYLINE
  5
94
  8
SSS
 66
     1
 10
0.0
 20
0.0
 30
0.0
 70
     1
  0
VERTEX
  5
241
  8
SSS
 10
1377.354102598643
 20
1135.986355397804
 30
0.0
 42
0.4142135623730951
  0
VERTEX
  5
242
  8
SSS
 10
1365.909722914643
 20
1124.541975713804
 30
0.0
 42
0.4142135623730951
  0
VERTEX
  5
243
  8
SSS
 10
1377.354102598643
 20
1113.097596029804
 30
0.0
 42
0.4142135623730951
  0
VERTEX
  5
244
  8
SSS
 10
1388.798482282642
 20
1124.541975713804
 30
0.0
 42
0.4142135623730951
  0
SEQEND
  5
66D
  8
SSS
  0
POLYLINE
  5
95
  8
SSS
 66
     1
 10
0.0
 20
0.0
 30
0.0
 70
     1
  0
VERTEX
  5
245
  8
SSS
 10
1107.35410259865
 20
1154.024036083168
 30
0.0
  0
VERTEX
  5
246
  8
SSS
 10
1119.354102598651
 20
1154.024036083171
 30
0.0
  0
VERTEX
  5
247
  8
SSS
 10
1119.354102598645
 20
1172.149036083169
 30
0.0
  0
VERTEX
  5
248
  8
SSS
 10
1125.354102598645
 20
1172.149036083174
 30
0.0
  0
VERTEX
  5
249
  8
SSS
 10
1133.02694725484
 20
1178.349036083176
 30
0.0
  0
VERTEX
  5
24A
  8
SSS
 10
1621.6813123281
 20
1178.349036083268
 30
0.0
  0
VERTEX
  5
24B
  8
SSS
 10
1629.354102598645
 20
1172.14903608327
 30
0.0
  0
VERTEX
  5
24C
  8
SSS
 10
1635.354102598647
 20
1172.149036083275
 30
0.0
  0
VERTEX
  5
24D
  8
SSS
 10
1635.354102598652
 20
1154.02403608328
 30
0.0
  0
VERTEX
  5
24E
  8
SSS
 10
1647.354102598647
 20
1154.024036083275
 30
0.0
  0
VERTEX
  5
24F
  8
SSS
 10
1647.354102598677
 20
1135.899036083274
 30
0.0
  0
VERTEX
  5
250
  8
SSS
 10
1635.354102598686
 20
1135.899036083267
 30
0.0
  0
VERTEX
  5
251
  8
SSS
 10
1635.354102598679
 20
1117.774036083259
 30
0.0
  0
VERTEX
  5
252
  8
SSS
 10
1647.354102598684
 20
1117.774036083275
 30
0.0
  0
VERTEX
  5
253
  8
SSS
 10
1647.354102598679
 20
1081.524036083274
 30
0.0
  0
VERTEX
  5
254
  8
SSS
 10
1635.354102598691
 20
1081.524036083277
 30
0.0
  0
VERTEX
  5
255
  8
SSS
 10
1635.354102598684
 20
1063.399036083273
 30
0.0
  0
VERTEX
  5
256
  8
SSS
 10
1647.354102598682
 20
1063.399036083274
 30
0.0
  0
VERTEX
  5
257
  8
SSS
 10
1647.354102598698
 20
1045.274036083275
 30
0.0
  0
VERTEX
  5
258
  8
SSS
 10
1635.354102598699
 20
1045.274036083278
 30
0.0
  0
VERTEX
  5
259
  8
SSS
 10
1635.354102598698
 20
1027.15153608328
 30
0.0
  0
VERTEX
  5
25A
  8
SSS
 10
1119.354102598693
 20
1027.151536083175
 30
0.0
  0
VERTEX
  5
25B
  8
SSS
 10
1119.354102598693
 20
1045.274036083171
 30
0.0
  0
VERTEX
  5
25C
  8
SSS
 10
1107.354102598693
 20
1045.274036083169
 30
0.0
  0
VERTEX
  5
25D
  8
SSS
 10
1107.354102598694
 20
1063.399036083169
 30
0.0
  0
VERTEX
  5
25E
  8
SSS
 10
1119.354102598694
 20
1063.399036083174
 30
0.0
  0
VERTEX
  5
25F
  8
SSS
 10
1119.354102598679
 20
1081.524036083172
 30
0.0
  0
VERTEX
  5
260
  8
SSS
 10
1107.354102598681
 20
1081.524036083169
 30
0.0
  0
VERTEX
  5
261
  8
SSS
 10
1107.354102598676
 20
1117.774036083167
 30
0.0
  0
VERTEX
  5
262
  8
SSS
 10
1119.354102598676
 20
1117.774036083172
 30
0.0
  0
VERTEX
  5
263
  8
SSS
 10
1119.354102598668
 20
1135.89903608317
 30
0.0
  0
VERTEX
  5
264
  8
SSS
 10
1107.354102598667
 20
1135.899036083167
 30
0.0
  0
SEQEND
  5
66E
  8
SSS
  0
POLYLINE
  5
96
  8
SSS
 66
     1
 10
0.0
 20
0.0
 30
0.0
 70
     1
  0
VERTEX
  5
265
  8
SSS
 10
1503.354102598658
 20
1159.050036083446
 30
0.0
  0
VERTEX
  5
266
  8
SSS
 10
1503.354102598665
 20
1165.250036083063
 30
0.0
  0
VERTEX
  5
267
  8
SSS
 10
1573.854102598663
 20
1165.250036083076
 30
0.0
  0
VERTEX
  5
268
  8
SSS
 10
1573.854102598648
 20
1159.050036083458
 30
0.0
  0
SEQEND
  5
66F
  8
SSS
  0
POLYLINE
  5
97
  8
SSS
 66
     1
 10
0.0
 20
0.0
 30
0.0
 70
     1
  0
VERTEX
  5
269
  8
SSS
 10
1329.854102598662
 20
1165.250036083024
 30
0.0
  0
VERTEX
  5
26A
  8
SSS
 10
1329.854102598647
 20
1159.050036083409
 30
0.0
  0
VERTEX
  5
26B
  8
SSS
 10
1424.854102598646
 20
1159.050036083433
 30
0.0
  0
VERTEX
  5
26C
  8
SSS
 10
1424.854102598661
 20
1165.25003608305
 30
0.0
  0
SEQEND
  5
670
  8
SSS
  0
POLYLINE
  5
98
  8
SSS
 66
     1
 10
0.0
 20
0.0
 30
0.0
 70
     1
  0
VERTEX
  5
26D
  8
SSS
 10
1180.854102598663
 20
1165.250036083
 30
0.0
  0
VERTEX
  5
26E
  8
SSS
 10
1180.854102598654
 20
1159.050036083384
 30
0.0
  0
VERTEX
  5
26F
  8
SSS
 10
1251.354102598653
 20
1159.050036083396
 30
0.0
  0
VERTEX
  5
270
  8
SSS
 10
1251.354102598661
 20
1165.250036083012
 30
0.0
  0
SEQEND
  5
671
  8
SSS
  0
POLYLINE
  5
99
  8
SSS
 66
     1
 10
0.0
 20
0.0
 30
0.0
 70
     1
  0
VERTEX
  5
271
  8
SSS
 10
1277.354102598645
 20
1094.541975713826
 30
0.0
  0
VERTEX
  5
272
  8
SSS
 10
1477.354102598683
 20
1094.541975713826
 30
0.0
  0
VERTEX
  5
273
  8
SSS
 10
1477.354102598683
 20
1154.541975713786
 30
0.0
  0
VERTEX
  5
274
  8
SSS
 10
1277.354102598645
 20
1154.541975713786
 30
0.0
  0
SEQEND
  5
672
  8
SSS
  0
POLYLINE
  5
9A
  8
SSS
 66
     1
 10
0.0
 20
0.0
 30
0.0
 70
     1
  0
VERTEX
  5
275
  8
SSS
 10
1337.35384172914
 20
929.5531309134492
 30
0.0
  0
VERTEX
  5
276
  8
SSS
 10
1417.35384172914
 20
929.5531309134662
 30
0.0
 42
-0.453768226591751
  0
VERTEX
  5
277
  8
SSS
 10
1437.353841729132
 20
912.0531309134653
 30
0.0
 42
-0.4537682265917541
  0
VERTEX
  5
278
  8
SSS
 10
1417.353841729135
 20
894.553130913466
 30
0.0
  0
VERTEX
  5
279
  8
SSS
 10
1337.353841729136
 20
894.5531309134481
 30
0.0
 42
-0.4537682265919399
  0
VERTEX
  5
27A
  8
SSS
 10
1317.35384172913
 20
912.0531309134481
 30
0.0
 42
-0.4537682265919429
  0
SEQEND
  5
673
  8
SSS
  0
POLYLINE
  5
9B
  8
SSS
 66
     1
 10
0.0
 20
0.0
 30
0.0
 70
     1
  0
VERTEX
  5
27B
  8
SSS
 10
1377.353841729101
 20
978.3904502280352
 30
0.0
 42
0.4142135623730951
  0
VERTEX
  5
27C
  8
SSS
 10
1365.909462045102
 20
966.9460705440351
 30
0.0
 42
0.4142135623730951
  0
VERTEX
  5
27D
  8
SSS
 10
1377.353841729101
 20
955.5016908600353
 30
0.0
 42
0.4142135623730951
  0
VERTEX
  5
27E
  8
SSS
 10
1388.798221413101
 20
966.9460705440351
 30
0.0
 42
0.4142135623730951
  0
SEQEND
  5
674
  8
SSS
  0
POLYLINE
  5
9C
  8
SSS
 66
     1
 10
0.0
 20
0.0
 30
0.0
 70
     1
  0
VERTEX
  5
27F
  8
SSS
 10
1107.353841729109
 20
996.4281309133992
 30
0.0
  0
VERTEX
  5
280
  8
SSS
 10
1119.353841729109
 20
996.428130913403
 30
0.0
  0
VERTEX
  5
281
  8
SSS
 10
1119.353841729103
 20
1014.553130913401
 30
0.0
  0
VERTEX
  5
282
  8
SSS
 10
1125.353841729103
 20
1014.553130913405
 30
0.0
  0
VERTEX
  5
283
  8
SSS
 10
1133.026686385299
 20
1020.753130913407
 30
0.0
  0
VERTEX
  5
284
  8
SSS
 10
1621.681051458559
 20
1020.7531309135
 30
0.0
  0
VERTEX
  5
285
  8
SSS
 10
1629.353841729104
 20
1014.553130913502
 30
0.0
  0
VERTEX
  5
286
  8
SSS
 10
1635.353841729106
 20
1014.553130913507
 30
0.0
  0
VERTEX
  5
287
  8
SSS
 10
1635.353841729111
 20
996.4281309135115
 30
0.0
  0
VERTEX
  5
288
  8
SSS
 10
1647.353841729106
 20
996.428130913507
 30
0.0
  0
VERTEX
  5
289
  8
SSS
 10
1647.353841729136
 20
978.303130913506
 30
0.0
  0
VERTEX
  5
28A
  8
SSS
 10
1635.353841729145
 20
978.3031309134981
 30
0.0
  0
VERTEX
  5
28B
  8
SSS
 10
1635.353841729137
 20
960.1781309134908
 30
0.0
  0
VERTEX
  5
28C
  8
SSS
 10
1647.353841729142
 20
960.178130913507
 30
0.0
  0
VERTEX
  5
28D
  8
SSS
 10
1647.353841729138
 20
923.928130913506
 30
0.0
  0
VERTEX
  5
28E
  8
SSS
 10
1635.35384172915
 20
923.9281309135085
 30
0.0
  0
VERTEX
  5
28F
  8
SSS
 10
1635.353841729143
 20
905.8031309135047
 30
0.0
  0
VERTEX
  5
290
  8
SSS
 10
1647.35384172914
 20
905.803130913506
 30
0.0
  0
VERTEX
  5
291
  8
SSS
 10
1647.353841729157
 20
887.678130913507
 30
0.0
  0
VERTEX
  5
292
  8
SSS
 10
1635.353841729158
 20
887.6781309135092
 30
0.0
  0
VERTEX
  5
293
  8
SSS
 10
1635.353841729157
 20
869.5556309135111
 30
0.0
  0
VERTEX
  5
294
  8
SSS
 10
1119.353841729152
 20
869.5556309134063
 30
0.0
  0
VERTEX
  5
295
  8
SSS
 10
1119.353841729152
 20
887.6781309134024
 30
0.0
  0
VERTEX
  5
296
  8
SSS
 10
1107.353841729152
 20
887.6781309134001
 30
0.0
  0
VERTEX
  5
297
  8
SSS
 10
1107.353841729152
 20
905.8031309134001
 30
0.0
  0
VERTEX
  5
298
  8
SSS
 10
1119.353841729152
 20
905.8031309134051
 30
0.0
  0
VERTEX
  5
299
  8
SSS
 10
1119.353841729137
 20
923.9281309134033
 30
0.0
  0
VERTEX
  5
29A
  8
SSS
 10
1107.35384172914
 20
923.9281309134001
 30
0.0
  0
VERTEX
  5
29B
  8
SSS
 10
1107.353841729135
 20
960.1781309133983
 30
0.0
  0
VERTEX
  5
29C
  8
SSS
 10
1119.353841729135
 20
960.1781309134035
 30
0.0
  0
VERTEX
  5
29D
  8
SSS
 10
1119.353841729127
 20
978.3031309134017
 30
0.0
  0
VERTEX
  5
29E
  8
SSS
 10
1107.353841729126
 20
978.3031309133983
 30
0.0
  0
SEQEND
  5
675
  8
SSS
  0
POLYLINE
  5
9D
  8
SSS
 66
     1
 10
0.0
 20
0.0
 30
0.0
 70
     1
  0
VERTEX
  5
29F
  8
SSS
 10
1503.353841729117
 20
1001.454130913678
 30
0.0
  0
VERTEX
  5
2A0
  8
SSS
 10
1503.353841729123
 20
1007.654130913295
 30
0.0
  0
VERTEX
  5
2A1
  8
SSS
 10
1573.853841729122
 20
1007.654130913307
 30
0.0
  0
VERTEX
  5
2A2
  8
SSS
 10
1573.853841729107
 20
1001.45413091369
 30
0.0
  0
SEQEND
  5
676
  8
SSS
  0
POLYLINE
  5
9E
  8
SSS
 66
     1
 10
0.0
 20
0.0
 30
0.0
 70
     1
  0
VERTEX
  5
2A3
  8
SSS
 10
1329.853841729121
 20
1007.654130913256
 30
0.0
  0
VERTEX
  5
2A4
  8
SSS
 10
1329.853841729106
 20
1001.45413091364
 30
0.0
  0
VERTEX
  5
2A5
  8
SSS
 10
1424.853841729105
 20
1001.454130913665
 30
0.0
  0
VERTEX
  5
2A6
  8
SSS
 10
1424.85384172912
 20
1007.654130913282
 30
0.0
  0
SEQEND
  5
677
  8
SSS
  0
POLYLINE
  5
9F
  8
SSS
 66
     1
 10
0.0
 20
0.0
 30
0.0
 70
     1
  0
VERTEX
  5
2A7
  8
SSS
 10
1180.853841729122
 20
1007.654130913231
 30
0.0
  0
VERTEX
  5
2A8
  8
SSS
 10
1180.853841729112
 20
1001.454130913616
 30
0.0
  0
VERTEX
  5
2A9
  8
SSS
 10
1251.353841729112
 20
1001.454130913628
 30
0.0
  0
VERTEX
  5
2AA
  8
SSS
 10
1251.35384172912
 20
1007.654130913244
 30
0.0
  0
SEQEND
  5
678
  8
SSS
  0
POLYLINE
  5
A0
  8
SSS
 66
     1
 10
0.0
 20
0.0
 30
0.0
 70
     1
  0
VERTEX
  5
2AB
  8
SSS
 10
1277.353841729104
 20
936.9460705440572
 30
0.0
  0
VERTEX
  5
2AC
  8
SSS
 10
1477.353841729142
 20
936.9460705440572
 30
0.0
  0
VERTEX
  5
2AD
  8
SSS
 10
1477.353841729142
 20
996.9460705440174
 30
0.0
  0
VERTEX
  5
2AE
  8
SSS
 10
1277.353841729104
 20
996.9460705440174
 30
0.0
  0
SEQEND
  5
679
  8
SSS
  0
POLYLINE
  5
A1
  8
SSS
 66
     1
 10
0.0
 20
0.0
 30
0.0
 70
     1
  0
VERTEX
  5
2AF
  8
SSS
 10
1883.654102598678
 20
1087.149036083325
 30
0.0
  0
VERTEX
  5
2B0
  8
SSS
 10
1963.654102598678
 20
1087.149036083342
 30
0.0
 42
-0.453768226591751
  0
VERTEX
  5
2B1
  8
SSS
 10
1983.65410259867
 20
1069.649036083342
 30
0.0
 42
-0.4537682265917541
  0
VERTEX
  5
2B2
  8
SSS
 10
1963.654102598673
 20
1052.149036083342
 30
0.0
  0
VERTEX
  5
2B3
  8
SSS
 10
1883.654102598674
 20
1052.149036083324
 30
0.0
 42
-0.4537682265919399
  0
VERTEX
  5
2B4
  8
SSS
 10
1863.654102598668
 20
1069.649036083324
 30
0.0
 42
-0.4537682265919429
  0
SEQEND
  5
67A
  8
SSS
  0
POLYLINE
  5
A2
  8
SSS
 66
     1
 10
0.0
 20
0.0
 30
0.0
 70
     1
  0
VERTEX
  5
2B5
  8
SSS
 10
1923.654102598639
 20
1135.986355397911
 30
0.0
 42
0.4142135623730951
  0
VERTEX
  5
2B6
  8
SSS
 10
1912.20972291464
 20
1124.541975713911
 30
0.0
 42
0.4142135623730951
  0
VERTEX
  5
2B7
  8
SSS
 10
1923.654102598639
 20
1113.097596029912
 30
0.0
 42
0.4142135623730951
  0
VERTEX
  5
2B8
  8
SSS
 10
1935.098482282639
 20
1124.541975713911
 30
0.0
 42
0.4142135623730951
  0
SEQEND
  5
67B
  8
SSS
  0
POLYLINE
  5
A3
  8
SSS
 66
     1
 10
0.0
 20
0.0
 30
0.0
 70
     1
  0
VERTEX
  5
2B9
  8
SSS
 10
1653.654102598647
 20
1154.024036083275
 30
0.0
  0
VERTEX
  5
2BA
  8
SSS
 10
1665.654102598647
 20
1154.024036083279
 30
0.0
  0
VERTEX
  5
2BB
  8
SSS
 10
1665.654102598642
 20
1172.149036083277
 30
0.0
  0
VERTEX
  5
2BC
  8
SSS
 10
1671.654102598642
 20
1172.149036083281
 30
0.0
  0
VERTEX
  5
2BD
  8
SSS
 10
1679.326947254837
 20
1178.349036083283
 30
0.0
  0
VERTEX
  5
2BE
  8
SSS
 10
2167.981312328097
 20
1178.349036083376
 30
0.0
  0
VERTEX
  5
2BF
  8
SSS
 10
2175.654102598642
 20
1172.149036083378
 30
0.0
  0
VERTEX
  5
2C0
  8
SSS
 10
2181.654102598644
 20
1172.149036083383
 30
0.0
  0
VERTEX
  5
2C1
  8
SSS
 10
2181.654102598649
 20
1154.024036083388
 30
0.0
  0
VERTEX
  5
2C2
  8
SSS
 10
2193.654102598644
 20
1154.024036083383
 30
0.0
  0
VERTEX
  5
2C3
  8
SSS
 10
2193.654102598674
 20
1135.899036083382
 30
0.0
  0
VERTEX
  5
2C4
  8
SSS
 10
2181.654102598683
 20
1135.899036083374
 30
0.0
  0
VERTEX
  5
2C5
  8
SSS
 10
2181.654102598676
 20
1117.774036083367
 30
0.0
  0
VERTEX
  5
2C6
  8
SSS
 10
2193.65410259868
 20
1117.774036083383
 30
0.0
  0
VERTEX
  5
2C7
  8
SSS
 10
2193.654102598676
 20
1081.524036083382
 30
0.0
  0
VERTEX
  5
2C8
  8
SSS
 10
2181.654102598688
 20
1081.524036083385
 30
0.0
  0
VERTEX
  5
2C9
  8
SSS
 10
2181.654102598681
 20
1063.399036083381
 30
0.0
  0
VERTEX
  5
2CA
  8
SSS
 10
2193.654102598678
 20
1063.399036083382
 30
0.0
  0
VERTEX
  5
2CB
  8
SSS
 10
2193.654102598695
 20
1045.274036083383
 30
0.0
  0
VERTEX
  5
2CC
  8
SSS
 10
2181.654102598696
 20
1045.274036083385
 30
0.0
  0
VERTEX
  5
2CD
  8
SSS
 10
2181.654102598695
 20
1027.151536083387
 30
0.0
  0
VERTEX
  5
2CE
  8
SSS
 10
1665.65410259869
 20
1027.151536083283
 30
0.0
  0
VERTEX
  5
2CF
  8
SSS
 10
1665.65410259869
 20
1045.274036083279
 30
0.0
  0
VERTEX
  5
2D0
  8
SSS
 10
1653.65410259869
 20
1045.274036083276
 30
0.0
  0
VERTEX
  5
2D1
  8
SSS
 10
1653.654102598691
 20
1063.399036083276
 30
0.0
  0
VERTEX
  5
2D2
  8
SSS
 10
1665.654102598691
 20
1063.399036083281
 30
0.0
  0
VERTEX
  5
2D3
  8
SSS
 10
1665.654102598675
 20
1081.524036083279
 30
0.0
  0
VERTEX
  5
2D4
  8
SSS
 10
1653.654102598678
 20
1081.524036083276
 30
0.0
  0
VERTEX
  5
2D5
  8
SSS
 10
1653.654102598673
 20
1117.774036083274
 30
0.0
  0
VERTEX
  5
2D6
  8
SSS
 10
1665.654102598673
 20
1117.77403608328
 30
0.0
  0
VERTEX
  5
2D7
  8
SSS
 10
1665.654102598665
 20
1135.899036083278
 30
0.0
  0
VERTEX
  5
2D8
  8
SSS
 10
1653.654102598664
 20
1135.899036083274
 30
0.0
  0
SEQEND
  5
67C
  8
SSS
  0
POLYLINE
  5
A4
  8
SSS
 66
     1
 10
0.0
 20
0.0
 30
0.0
 70
     1
  0
VERTEX
  5
2D9
  8
SSS
 10
2049.654102598655
 20
1159.050036083554
 30
0.0
  0
VERTEX
  5
2DA
  8
SSS
 10
2049.654102598662
 20
1165.250036083171
 30
0.0
  0
VERTEX
  5
2DB
  8
SSS
 10
2120.15410259866
 20
1165.250036083183
 30
0.0
  0
VERTEX
  5
2DC
  8
SSS
 10
2120.154102598645
 20
1159.050036083566
 30
0.0
  0
SEQEND
  5
67D
  8
SSS
  0
POLYLINE
  5
A5
  8
SSS
 66
     1
 10
0.0
 20
0.0
 30
0.0
 70
     1
  0
VERTEX
  5
2DD
  8
SSS
 10
1876.154102598659
 20
1165.250036083132
 30
0.0
  0
VERTEX
  5
2DE
  8
SSS
 10
1876.154102598644
 20
1159.050036083517
 30
0.0
  0
VERTEX
  5
2DF
  8
SSS
 10
1971.154102598643
 20
1159.050036083541
 30
0.0
  0
VERTEX
  5
2E0
  8
SSS
 10
1971.154102598658
 20
1165.250036083158
 30
0.0
  0
SEQEND
  5
67E
  8
SSS
  0
POLYLINE
  5
A6
  8
SSS
 66
     1
 10
0.0
 20
0.0
 30
0.0
 70
     1
  0
VERTEX
  5
2E1
  8
SSS
 10
1727.15410259866
 20
1165.250036083107
 30
0.0
  0
VERTEX
  5
2E2
  8
SSS
 10
1727.154102598651
 20
1159.050036083492
 30
0.0
  0
VERTEX
  5
2E3
  8
SSS
 10
1797.65410259865
 20
1159.050036083504
 30
0.0
  0
VERTEX
  5
2E4
  8
SSS
 10
1797.654102598658
 20
1165.25003608312
 30
0.0
  0
SEQEND
  5
67F
  8
SSS
  0
POLYLINE
  5
A7
  8
SSS
 66
     1
 10
0.0
 20
0.0
 30
0.0
 70
     1
  0
VERTEX
  5
2E5
  8
SSS
 10
1823.654102598642
 20
1094.541975713933
 30
0.0
  0
VERTEX
  5
2E6
  8
SSS
 10
2023.65410259868
 20
1094.541975713933
 30
0.0
  0
VERTEX
  5
2E7
  8
SSS
 10
2023.65410259868
 20
1154.541975713894
 30
0.0
  0
VERTEX
  5
2E8
  8
SSS
 10
1823.654102598642
 20
1154.541975713894
 30
0.0
  0
SEQEND
  5
680
  8
SSS
  0
POLYLINE
  5
A8
  8
SSS
 66
     1
 10
0.0
 20
0.0
 30
0.0
 70
     1
  0
VERTEX
  5
2E9
  8
SSS
 10
1883.653841729137
 20
929.553130913557
 30
0.0
  0
VERTEX
  5
2EA
  8
SSS
 10
1963.653841729136
 20
929.553130913574
 30
0.0
 42
-0.453768226591751
  0
VERTEX
  5
2EB
  8
SSS
 10
1983.653841729129
 20
912.0531309135731
 30
0.0
 42
-0.4537682265917541
  0
VERTEX
  5
2EC
  8
SSS
 10
1963.653841729132
 20
894.5531309135738
 30
0.0
  0
VERTEX
  5
2ED
  8
SSS
 10
1883.653841729133
 20
894.5531309135558
 30
0.0
 42
-0.4537682265919399
  0
VERTEX
  5
2EE
  8
SSS
 10
1863.653841729127
 20
912.0531309135558
 30
0.0
 42
-0.4537682265919429
  0
SEQEND
  5
681
  8
SSS
  0
POLYLINE
  5
A9
  8
SSS
 66
     1
 10
0.0
 20
0.0
 30
0.0
 70
     1
  0
VERTEX
  5
2EF
  8
SSS
 10
1923.653841729098
 20
978.390450228143
 30
0.0
 42
0.4142135623730951
  0
VERTEX
  5
2F0
  8
SSS
 10
1912.209462045098
 20
966.9460705441429
 30
0.0
 42
0.4142135623730951
  0
VERTEX
  5
2F1
  8
SSS
 10
1923.653841729098
 20
955.5016908601431
 30
0.0
 42
0.4142135623730951
  0
VERTEX
  5
2F2
  8
SSS
 10
1935.098221413098
 20
966.9460705441429
 30
0.0
 42
0.4142135623730951
  0
SEQEND
  5
682
  8
SSS
  0
POLYLINE
  5
AA
  8
SSS
 66
     1
 10
0.0
 20
0.0
 30
0.0
 70
     1
  0
VERTEX
  5
2F3
  8
SSS
 10
1653.653841729106
 20
996.428130913507
 30
0.0
  0
VERTEX
  5
2F4
  8
SSS
 10
1665.653841729106
 20
996.4281309135108
 30
0.0
  0
VERTEX
  5
2F5
  8
SSS
 10
1665.6538417291
 20
1014.553130913509
 30
0.0
  0
VERTEX
  5
2F6
  8
SSS
 10
1671.6538417291
 20
1014.553130913513
 30
0.0
  0
VERTEX
  5
2F7
  8
SSS
 10
1679.326686385296
 20
1020.753130913515
 30
0.0
  0
VERTEX
  5
2F8
  8
SSS
 10
2167.981051458556
 20
1020.753130913608
 30
0.0
  0
VERTEX
  5
2F9
  8
SSS
 10
2175.653841729101
 20
1014.55313091361
 30
0.0
  0
VERTEX
  5
2FA
  8
SSS
 10
2181.653841729103
 20
1014.553130913615
 30
0.0
  0
VERTEX
  5
2FB
  8
SSS
 10
2181.653841729108
 20
996.4281309136193
 30
0.0
  0
VERTEX
  5
2FC
  8
SSS
 10
2193.653841729103
 20
996.4281309136147
 30
0.0
  0
VERTEX
  5
2FD
  8
SSS
 10
2193.653841729133
 20
978.3031309136138
 30
0.0
  0
VERTEX
  5
2FE
  8
SSS
 10
2181.653841729142
 20
978.3031309136059
 30
0.0
  0
VERTEX
  5
2FF
  8
SSS
 10
2181.653841729134
 20
960.1781309135986
 30
0.0
  0
VERTEX
  5
300
  8
SSS
 10
2193.653841729139
 20
960.1781309136147
 30
0.0
  0
VERTEX
  5
301
  8
SSS
 10
2193.653841729134
 20
923.9281309136138
 30
0.0
  0
VERTEX
  5
302
  8
SSS
 10
2181.653841729147
 20
923.9281309136163
 30
0.0
  0
VERTEX
  5
303
  8
SSS
 10
2181.653841729139
 20
905.8031309136124
 30
0.0
  0
VERTEX
  5
304
  8
SSS
 10
2193.653841729137
 20
905.8031309136138
 30
0.0
  0
VERTEX
  5
305
  8
SSS
 10
2193.653841729154
 20
887.6781309136147
 30
0.0
  0
VERTEX
  5
306
  8
SSS
 10
2181.653841729155
 20
887.678130913617
 30
0.0
  0
VERTEX
  5
307
  8
SSS
 10
2181.653841729154
 20
869.5556309136189
 30
0.0
  0
VERTEX
  5
308
  8
SSS
 10
1665.653841729149
 20
869.555630913514
 30
0.0
  0
VERTEX
  5
309
  8
SSS
 10
1665.653841729149
 20
887.6781309135101
 30
0.0
  0
VERTEX
  5
30A
  8
SSS
 10
1653.653841729149
 20
887.6781309135079
 30
0.0
  0
VERTEX
  5
30B
  8
SSS
 10
1653.653841729149
 20
905.8031309135079
 30
0.0
  0
VERTEX
  5
30C
  8
SSS
 10
1665.653841729149
 20
905.8031309135129
 30
0.0
  0
VERTEX
  5
30D
  8
SSS
 10
1665.653841729134
 20
923.928130913511
 30
0.0
  0
VERTEX
  5
30E
  8
SSS
 10
1653.653841729137
 20
923.9281309135079
 30
0.0
  0
VERTEX
  5
30F
  8
SSS
 10
1653.653841729132
 20
960.178130913506
 30
0.0
  0
VERTEX
  5
310
  8
SSS
 10
1665.653841729132
 20
960.1781309135113
 30
0.0
  0
VERTEX
  5
311
  8
SSS
 10
1665.653841729124
 20
978.3031309135094
 30
0.0
  0
VERTEX
  5
312
  8
SSS
 10
1653.653841729123
 20
978.303130913506
 30
0.0
  0
SEQEND
  5
683
  8
SSS
  0
POLYLINE
  5
AB
  8
SSS
 66
     1
 10
0.0
 20
0.0
 30
0.0
 70
     1
  0
VERTEX
  5
313
  8
SSS
 10
2049.653841729114
 20
1001.454130913785
 30
0.0
  0
VERTEX
  5
314
  8
SSS
 10
2049.65384172912
 20
1007.654130913403
 30
0.0
  0
VERTEX
  5
315
  8
SSS
 10
2120.153841729119
 20
1007.654130913415
 30
0.0
  0
VERTEX
  5
316
  8
SSS
 10
2120.153841729104
 20
1001.454130913798
 30
0.0
  0
SEQEND
  5
684
  8
SSS
  0
POLYLINE
  5
AC
  8
SSS
 66
     1
 10
0.0
 20
0.0
 30
0.0
 70
     1
  0
VERTEX
  5
317
  8
SSS
 10
1876.153841729118
 20
1007.654130913364
 30
0.0
  0
VERTEX
  5
318
  8
SSS
 10
1876.153841729103
 20
1001.454130913748
 30
0.0
  0
VERTEX
  5
319
  8
SSS
 10
1971.153841729102
 20
1001.454130913773
 30
0.0
  0
VERTEX
  5
31A
  8
SSS
 10
1971.153841729117
 20
1007.654130913389
 30
0.0
  0
SEQEND
  5
685
  8
SSS
  0
POLYLINE
  5
AD
  8
SSS
 66
     1
 10
0.0
 20
0.0
 30
0.0
 70
     1
  0
VERTEX
  5
31B
  8
SSS
 10
1727.153841729119
 20
1007.654130913339
 30
0.0
  0
VERTEX
  5
31C
  8
SSS
 10
1727.153841729109
 20
1001.454130913723
 30
0.0
  0
VERTEX
  5
31D
  8
SSS
 10
1797.653841729109
 20
1001.454130913736
 30
0.0
  0
VERTEX
  5
31E
  8
SSS
 10
1797.653841729117
 20
1007.654130913351
 30
0.0
  0
SEQEND
  5
686
  8
SSS
  0
POLYLINE
  5
AE
  8
SSS
 66
     1
 10
0.0
 20
0.0
 30
0.0
 70
     1
  0
VERTEX
  5
31F
  8
SSS
 10
1823.6538417291
 20
936.946070544165
 30
0.0
  0
VERTEX
  5
320
  8
SSS
 10
2023.653841729139
 20
936.946070544165
 30
0.0
  0
VERTEX
  5
321
  8
SSS
 10
2023.653841729139
 20
996.9460705441252
 30
0.0
  0
VERTEX
  5
322
  8
SSS
 10
1823.6538417291
 20
996.9460705441252
 30
0.0
  0
SEQEND
  5
687
  8
SSS
  0
POLYLINE
  5
AF
  8
SSS
 66
     1
 10
0.0
 20
0.0
 30
0.0
 70
     1
  0
VERTEX
  5
323
  8
SSS
 10
1632.692508195476
 20
565.5847226159269
 30
0.0
  0
VERTEX
  5
324
  8
SSS
 10
1632.692508195493
 20
485.5847226159278
 30
0.0
 42
-0.453768226591751
  0
VERTEX
  5
325
  8
SSS
 10
1615.192508195492
 20
465.5847226159351
 30
0.0
 42
-0.4537682265917541
  0
VERTEX
  5
326
  8
SSS
 10
1597.692508195492
 20
485.5847226159324
 30
0.0
  0
VERTEX
  5
327
  8
SSS
 10
1597.692508195474
 20
565.5847226159315
 30
0.0
 42
-0.4537682265919399
  0
VERTEX
  5
328
  8
SSS
 10
1615.192508195474
 20
585.5847226159369
 30
0.0
 42
-0.4537682265919429
  0
SEQEND
  5
688
  8
SSS
  0
POLYLINE
  5
B0
  8
SSS
 66
     1
 10
0.0
 20
0.0
 30
0.0
 70
     1
  0
VERTEX
  5
329
  8
SSS
 10
1681.529827510062
 20
525.584722615966
 30
0.0
 42
0.4142135623730951
  0
VERTEX
  5
32A
  8
SSS
 10
1670.085447826061
 20
537.0291022999656
 30
0.0
 42
0.4142135623730951
  0
VERTEX
  5
32B
  8
SSS
 10
1658.641068142062
 20
525.584722615966
 30
0.0
 42
0.4142135623730951
  0
VERTEX
  5
32C
  8
SSS
 10
1670.085447826061
 20
514.1403429319664
 30
0.0
 42
0.4142135623730951
  0
SEQEND
  5
689
  8
SSS
  0
POLYLINE
  5
B1
  8
SSS
 66
     1
 10
0.0
 20
0.0
 30
0.0
 70
     1
  0
VERTEX
  5
32D
  8
SSS
 10
1699.567508195425
 20
795.5847226159583
 30
0.0
  0
VERTEX
  5
32E
  8
SSS
 10
1699.567508195429
 20
783.5847226159583
 30
0.0
  0
VERTEX
  5
32F
  8
SSS
 10
1717.692508195427
 20
783.5847226159638
 30
0.0
  0
VERTEX
  5
330
  8
SSS
 10
1717.692508195431
 20
777.5847226159638
 30
0.0
  0
VERTEX
  5
331
  8
SSS
 10
1723.892508195433
 20
769.9118779597682
 30
0.0
  0
VERTEX
  5
332
  8
SSS
 10
1723.892508195526
 20
281.2575128865087
 30
0.0
  0
VERTEX
  5
333
  8
SSS
 10
1717.692508195528
 20
273.5847226159635
 30
0.0
  0
VERTEX
  5
334
  8
SSS
 10
1717.692508195533
 20
267.5847226159617
 30
0.0
  0
VERTEX
  5
335
  8
SSS
 10
1699.567508195538
 20
267.5847226159567
 30
0.0
  0
VERTEX
  5
336
  8
SSS
 10
1699.567508195533
 20
255.5847226159617
 30
0.0
  0
VERTEX
  5
337
  8
SSS
 10
1681.442508195532
 20
255.5847226159317
 30
0.0
  0
VERTEX
  5
338
  8
SSS
 10
1681.442508195524
 20
267.5847226159226
 30
0.0
  0
VERTEX
  5
339
  8
SSS
 10
1663.317508195517
 20
267.5847226159299
 30
0.0
  0
VERTEX
  5
33A
  8
SSS
 10
1663.317508195533
 20
255.5847226159253
 30
0.0
  0
VERTEX
  5
33B
  8
SSS
 10
1627.067508195532
 20
255.5847226159299
 30
0.0
  0
VERTEX
  5
33C
  8
SSS
 10
1627.067508195535
 20
267.5847226159176
 30
0.0
  0
VERTEX
  5
33D
  8
SSS
 10
1608.942508195531
 20
267.5847226159249
 30
0.0
  0
VERTEX
  5
33E
  8
SSS
 10
1608.942508195532
 20
255.5847226159271
 30
0.0
  0
VERTEX
  5
33F
  8
SSS
 10
1590.817508195533
 20
255.5847226159108
 30
0.0
  0
VERTEX
  5
340
  8
SSS
 10
1590.817508195535
 20
267.5847226159094
 30
0.0
  0
VERTEX
  5
341
  8
SSS
 10
1572.695008195537
 20
267.5847226159108
 30
0.0
  0
VERTEX
  5
342
  8
SSS
 10
1572.695008195433
 20
783.5847226159153
 30
0.0
  0
VERTEX
  5
343
  8
SSS
 10
1590.817508195429
 20
783.5847226159156
 30
0.0
  0
VERTEX
  5
344
  8
SSS
 10
1590.817508195426
 20
795.5847226159153
 30
0.0
  0
VERTEX
  5
345
  8
SSS
 10
1608.942508195426
 20
795.5847226159146
 30
0.0
  0
VERTEX
  5
346
  8
SSS
 10
1608.942508195431
 20
783.5847226159146
 30
0.0
  0
VERTEX
  5
347
  8
SSS
 10
1627.06750819543
 20
783.5847226159301
 30
0.0
  0
VERTEX
  5
348
  8
SSS
 10
1627.067508195426
 20
795.5847226159274
 30
0.0
  0
VERTEX
  5
349
  8
SSS
 10
1663.317508195425
 20
795.5847226159319
 30
0.0
  0
VERTEX
  5
34A
  8
SSS
 10
1663.31750819543
 20
783.5847226159319
 30
0.0
  0
VERTEX
  5
34B
  8
SSS
 10
1681.442508195428
 20
783.5847226159406
 30
0.0
  0
VERTEX
  5
34C
  8
SSS
 10
1681.442508195425
 20
795.584722615941
 30
0.0
  0
SEQEND
  5
68A
  8
SSS
  0
POLYLINE
  5
B2
  8
SSS
 66
     1
 10
0.0
 20
0.0
 30
0.0
 70
     1
  0
VERTEX
  5
34D
  8
SSS
 10
1704.593508195704
 20
399.5847226159503
 30
0.0
  0
VERTEX
  5
34E
  8
SSS
 10
1710.793508195321
 20
399.584722615944
 30
0.0
  0
VERTEX
  5
34F
  8
SSS
 10
1710.793508195334
 20
329.0847226159458
 30
0.0
  0
VERTEX
  5
350
  8
SSS
 10
1704.593508195716
 20
329.0847226159603
 30
0.0
  0
SEQEND
  5
68B
  8
SSS
  0
POLYLINE
  5
B3
  8
SSS
 66
     1
 10
0.0
 20
0.0
 30
0.0
 70
     1
  0
VERTEX
  5
351
  8
SSS
 10
1710.793508195282
 20
573.0847226159465
 30
0.0
  0
VERTEX
  5
352
  8
SSS
 10
1704.593508195667
 20
573.084722615961
 30
0.0
  0
VERTEX
  5
353
  8
SSS
 10
1704.593508195691
 20
478.0847226159619
 30
0.0
  0
VERTEX
  5
354
  8
SSS
 10
1710.793508195308
 20
478.0847226159474
 30
0.0
  0
SEQEND
  5
68C
  8
SSS
  0
POLYLINE
  5
B4
  8
SSS
 66
     1
 10
0.0
 20
0.0
 30
0.0
 70
     1
  0
VERTEX
  5
355
  8
SSS
 10
1710.793508195258
 20
722.0847226159456
 30
0.0
  0
VERTEX
  5
356
  8
SSS
 10
1704.593508195642
 20
722.0847226159547
 30
0.0
  0
VERTEX
  5
357
  8
SSS
 10
1704.593508195654
 20
651.5847226159556
 30
0.0
  0
VERTEX
  5
358
  8
SSS
 10
1710.79350819527
 20
651.5847226159474
 30
0.0
  0
SEQEND
  5
68D
  8
SSS
  0
POLYLINE
  5
B5
  8
SSS
 66
     1
 10
0.0
 20
0.0
 30
0.0
 70
     1
  0
VERTEX
  5
359
  8
SSS
 10
1640.085447826084
 20
625.5847226159638
 30
0.0
  0
VERTEX
  5
35A
  8
SSS
 10
1640.085447826084
 20
425.5847226159256
 30
0.0
  0
VERTEX
  5
35B
  8
SSS
 10
1700.085447826044
 20
425.5847226159256
 30
0.0
  0
VERTEX
  5
35C
  8
SSS
 10
1700.085447826044
 20
625.5847226159638
 30
0.0
  0
SEQEND
  5
68E
  8
SSS
  0
POLYLINE
  5
B6
  8
SSS
 66
     1
 10
0.0
 20
0.0
 30
0.0
 70
     1
  0
VERTEX
  5
35D
  8
SSS
 10
1790.288413365244
 20
565.5844617463856
 30
0.0
  0
VERTEX
  5
35E
  8
SSS
 10
1790.288413365261
 20
485.5844617463865
 30
0.0
 42
-0.453768226591751
  0
VERTEX
  5
35F
  8
SSS
 10
1772.78841336526
 20
465.5844617463938
 30
0.0
 42
-0.4537682265917541
  0
VERTEX
  5
360
  8
SSS
 10
1755.288413365261
 20
485.584461746391
 30
0.0
  0
VERTEX
  5
361
  8
SSS
 10
1755.288413365243
 20
565.5844617463902
 30
0.0
 42
-0.4537682265919399
  0
VERTEX
  5
362
  8
SSS
 10
1772.788413365243
 20
585.5844617463956
 30
0.0
 42
-0.4537682265919429
  0
SEQEND
  5
68F
  8
SSS
  0
POLYLINE
  5
B7
  8
SSS
 66
     1
 10
0.0
 20
0.0
 30
0.0
 70
     1
  0
VERTEX
  5
363
  8
SSS
 10
1839.12573267983
 20
525.5844617464247
 30
0.0
 42
0.4142135623730951
  0
VERTEX
  5
364
  8
SSS
 10
1827.68135299583
 20
537.0288414304243
 30
0.0
 42
0.4142135623730951
  0
VERTEX
  5
365
  8
SSS
 10
1816.23697331183
 20
525.5844617464247
 30
0.0
 42
0.4142135623730951
  0
VERTEX
  5
366
  8
SSS
 10
1827.68135299583
 20
514.1400820624251
 30
0.0
 42
0.4142135623730951
  0
SEQEND
  5
690
  8
SSS
  0
POLYLINE
  5
B8
  8
SSS
 66
     1
 10
0.0
 20
0.0
 30
0.0
 70
     1
  0
VERTEX
  5
367
  8
SSS
 10
1857.163413365194
 20
795.584461746417
 30
0.0
  0
VERTEX
  5
368
  8
SSS
 10
1857.163413365198
 20
783.584461746417
 30
0.0
  0
VERTEX
  5
369
  8
SSS
 10
1875.288413365196
 20
783.5844617464224
 30
0.0
  0
VERTEX
  5
36A
  8
SSS
 10
1875.2884133652
 20
777.5844617464224
 30
0.0
  0
VERTEX
  5
36B
  8
SSS
 10
1881.488413365202
 20
769.9116170902269
 30
0.0
  0
VERTEX
  5
36C
  8
SSS
 10
1881.488413365294
 20
281.2572520169674
 30
0.0
  0
VERTEX
  5
36D
  8
SSS
 10
1875.288413365296
 20
273.5844617464222
 30
0.0
  0
VERTEX
  5
36E
  8
SSS
 10
1875.288413365301
 20
267.5844617464204
 30
0.0
  0
VERTEX
  5
36F
  8
SSS
 10
1857.163413365306
 20
267.5844617464154
 30
0.0
  0
VERTEX
  5
370
  8
SSS
 10
1857.163413365301
 20
255.5844617464204
 30
0.0
  0
VERTEX
  5
371
  8
SSS
 10
1839.038413365301
 20
255.5844617463904
 30
0.0
  0
VERTEX
  5
372
  8
SSS
 10
1839.038413365293
 20
267.5844617463813
 30
0.0
  0
VERTEX
  5
373
  8
SSS
 10
1820.913413365286
 20
267.5844617463886
 30
0.0
  0
VERTEX
  5
374
  8
SSS
 10
1820.913413365301
 20
255.584461746384
 30
0.0
  0
VERTEX
  5
375
  8
SSS
 10
1784.663413365301
 20
255.5844617463886
 30
0.0
  0
VERTEX
  5
376
  8
SSS
 10
1784.663413365303
 20
267.5844617463763
 30
0.0
  0
VERTEX
  5
377
  8
SSS
 10
1766.538413365299
 20
267.5844617463836
 30
0.0
  0
VERTEX
  5
378
  8
SSS
 10
1766.538413365301
 20
255.5844617463858
 30
0.0
  0
VERTEX
  5
379
  8
SSS
 10
1748.413413365301
 20
255.5844617463695
 30
0.0
  0
VERTEX
  5
37A
  8
SSS
 10
1748.413413365304
 20
267.5844617463681
 30
0.0
  0
VERTEX
  5
37B
  8
SSS
 10
1730.290913365306
 20
267.5844617463695
 30
0.0
  0
VERTEX
  5
37C
  8
SSS
 10
1730.290913365201
 20
783.584461746374
 30
0.0
  0
VERTEX
  5
37D
  8
SSS
 10
1748.413413365197
 20
783.5844617463742
 30
0.0
  0
VERTEX
  5
37E
  8
SSS
 10
1748.413413365195
 20
795.584461746374
 30
0.0
  0
VERTEX
  5
37F
  8
SSS
 10
1766.538413365195
 20
795.5844617463733
 30
0.0
  0
VERTEX
  5
380
  8
SSS
 10
1766.5384133652
 20
783.5844617463733
 30
0.0
  0
VERTEX
  5
381
  8
SSS
 10
1784.663413365198
 20
783.5844617463888
 30
0.0
  0
VERTEX
  5
382
  8
SSS
 10
1784.663413365195
 20
795.5844617463861
 30
0.0
  0
VERTEX
  5
383
  8
SSS
 10
1820.913413365193
 20
795.5844617463906
 30
0.0
  0
VERTEX
  5
384
  8
SSS
 10
1820.913413365198
 20
783.5844617463906
 30
0.0
  0
VERTEX
  5
385
  8
SSS
 10
1839.038413365196
 20
783.5844617463993
 30
0.0
  0
VERTEX
  5
386
  8
SSS
 10
1839.038413365193
 20
795.5844617463997
 30
0.0
  0
SEQEND
  5
691
  8
SSS
  0
POLYLINE
  5
B9
  8
SSS
 66
     1
 10
0.0
 20
0.0
 30
0.0
 70
     1
  0
VERTEX
  5
387
  8
SSS
 10
1862.189413365472
 20
399.584461746409
 30
0.0
  0
VERTEX
  5
388
  8
SSS
 10
1868.38941336509
 20
399.5844617464027
 30
0.0
  0
VERTEX
  5
389
  8
SSS
 10
1868.389413365102
 20
329.0844617464045
 30
0.0
  0
VERTEX
  5
38A
  8
SSS
 10
1862.189413365485
 20
329.084461746419
 30
0.0
  0
SEQEND
  5
692
  8
SSS
  0
POLYLINE
  5
BA
  8
SSS
 66
     1
 10
0.0
 20
0.0
 30
0.0
 70
     1
  0
VERTEX
  5
38B
  8
SSS
 10
1868.389413365051
 20
573.0844617464052
 30
0.0
  0
VERTEX
  5
38C
  8
SSS
 10
1862.189413365435
 20
573.0844617464197
 30
0.0
  0
VERTEX
  5
38D
  8
SSS
 10
1862.18941336546
 20
478.0844617464206
 30
0.0
  0
VERTEX
  5
38E
  8
SSS
 10
1868.389413365076
 20
478.084461746406
 30
0.0
  0
SEQEND
  5
693
  8
SSS
  0
POLYLINE
  5
BB
  8
SSS
 66
     1
 10
0.0
 20
0.0
 30
0.0
 70
     1
  0
VERTEX
  5
38F
  8
SSS
 10
1868.389413365026
 20
722.0844617464043
 30
0.0
  0
VERTEX
  5
390
  8
SSS
 10
1862.18941336541
 20
722.0844617464134
 30
0.0
  0
VERTEX
  5
391
  8
SSS
 10
1862.189413365423
 20
651.5844617464143
 30
0.0
  0
VERTEX
  5
392
  8
SSS
 10
1868.389413365038
 20
651.5844617464061
 30
0.0
  0
SEQEND
  5
694
  8
SSS
  0
POLYLINE
  5
BC
  8
SSS
 66
     1
 10
0.0
 20
0.0
 30
0.0
 70
     1
  0
VERTEX
  5
393
  8
SSS
 10
1797.681352995852
 20
625.5844617464224
 30
0.0
  0
VERTEX
  5
394
  8
SSS
 10
1797.681352995852
 20
425.5844617463842
 30
0.0
  0
VERTEX
  5
395
  8
SSS
 10
1857.681352995812
 20
425.5844617463842
 30
0.0
  0
VERTEX
  5
396
  8
SSS
 10
1857.681352995812
 20
625.5844617464224
 30
0.0
  0
SEQEND
  5
695
  8
SSS
  0
POLYLINE
  5
BD
  8
SSS
 66
     1
 10
0.0
 20
0.0
 30
0.0
 70
     1
  0
VERTEX
  5
397
  8
SSS
 10
1948.606924659413
 20
565.5847226159269
 30
0.0
  0
VERTEX
  5
398
  8
SSS
 10
1948.60692465943
 20
485.5847226159278
 30
0.0
 42
-0.453768226591751
  0
VERTEX
  5
399
  8
SSS
 10
1931.106924659429
 20
465.5847226159351
 30
0.0
 42
-0.4537682265917541
  0
VERTEX
  5
39A
  8
SSS
 10
1913.60692465943
 20
485.5847226159324
 30
0.0
  0
VERTEX
  5
39B
  8
SSS
 10
1913.606924659412
 20
565.5847226159315
 30
0.0
 42
-0.4537682265919399
  0
VERTEX
  5
39C
  8
SSS
 10
1931.106924659412
 20
585.5847226159369
 30
0.0
 42
-0.4537682265919429
  0
SEQEND
  5
696
  8
SSS
  0
POLYLINE
  5
BE
  8
SSS
 66
     1
 10
0.0
 20
0.0
 30
0.0
 70
     1
  0
VERTEX
  5
39D
  8
SSS
 10
1997.444243973999
 20
525.584722615966
 30
0.0
 42
0.4142135623730951
  0
VERTEX
  5
39E
  8
SSS
 10
1985.999864289999
 20
537.0291022999656
 30
0.0
 42
0.4142135623730951
  0
VERTEX
  5
39F
  8
SSS
 10
1974.555484605999
 20
525.584722615966
 30
0.0
 42
0.4142135623730951
  0
VERTEX
  5
3A0
  8
SSS
 10
1985.999864289999
 20
514.1403429319664
 30
0.0
 42
0.4142135623730951
  0
SEQEND
  5
697
  8
SSS
  0
POLYLINE
  5
BF
  8
SSS
 66
     1
 10
0.0
 20
0.0
 30
0.0
 70
     1
  0
VERTEX
  5
3A1
  8
SSS
 10
2015.481924659363
 20
795.5847226159583
 30
0.0
  0
VERTEX
  5
3A2
  8
SSS
 10
2015.481924659367
 20
783.5847226159583
 30
0.0
  0
VERTEX
  5
3A3
  8
SSS
 10
2033.606924659364
 20
783.5847226159638
 30
0.0
  0
VERTEX
  5
3A4
  8
SSS
 10
2033.606924659369
 20
777.5847226159638
 30
0.0
  0
VERTEX
  5
3A5
  8
SSS
 10
2039.806924659371
 20
769.9118779597682
 30
0.0
  0
VERTEX
  5
3A6
  8
SSS
 10
2039.806924659463
 20
281.2575128865087
 30
0.0
  0
VERTEX
  5
3A7
  8
SSS
 10
2033.606924659465
 20
273.5847226159635
 30
0.0
  0
VERTEX
  5
3A8
  8
SSS
 10
2033.60692465947
 20
267.5847226159617
 30
0.0
  0
VERTEX
  5
3A9
  8
SSS
 10
2015.481924659475
 20
267.5847226159567
 30
0.0
  0
VERTEX
  5
3AA
  8
SSS
 10
2015.48192465947
 20
255.5847226159617
 30
0.0
  0
VERTEX
  5
3AB
  8
SSS
 10
1997.356924659469
 20
255.5847226159317
 30
0.0
  0
VERTEX
  5
3AC
  8
SSS
 10
1997.356924659462
 20
267.5847226159226
 30
0.0
  0
VERTEX
  5
3AD
  8
SSS
 10
1979.231924659454
 20
267.5847226159299
 30
0.0
  0
VERTEX
  5
3AE
  8
SSS
 10
1979.23192465947
 20
255.5847226159253
 30
0.0
  0
VERTEX
  5
3AF
  8
SSS
 10
1942.981924659469
 20
255.5847226159299
 30
0.0
  0
VERTEX
  5
3B0
  8
SSS
 10
1942.981924659472
 20
267.5847226159176
 30
0.0
  0
VERTEX
  5
3B1
  8
SSS
 10
1924.856924659468
 20
267.5847226159249
 30
0.0
  0
VERTEX
  5
3B2
  8
SSS
 10
1924.856924659469
 20
255.5847226159271
 30
0.0
  0
VERTEX
  5
3B3
  8
SSS
 10
1906.73192465947
 20
255.5847226159108
 30
0.0
  0
VERTEX
  5
3B4
  8
SSS
 10
1906.731924659472
 20
267.5847226159094
 30
0.0
  0
VERTEX
  5
3B5
  8
SSS
 10
1888.609424659474
 20
267.5847226159108
 30
0.0
  0
VERTEX
  5
3B6
  8
SSS
 10
1888.60942465937
 20
783.5847226159153
 30
0.0
  0
VERTEX
  5
3B7
  8
SSS
 10
1906.731924659366
 20
783.5847226159156
 30
0.0
  0
VERTEX
  5
3B8
  8
SSS
 10
1906.731924659364
 20
795.5847226159153
 30
0.0
  0
VERTEX
  5
3B9
  8
SSS
 10
1924.856924659364
 20
795.5847226159146
 30
0.0
  0
VERTEX
  5
3BA
  8
SSS
 10
1924.856924659369
 20
783.5847226159146
 30
0.0
  0
VERTEX
  5
3BB
  8
SSS
 10
1942.981924659367
 20
783.5847226159301
 30
0.0
  0
VERTEX
  5
3BC
  8
SSS
 10
1942.981924659364
 20
795.5847226159274
 30
0.0
  0
VERTEX
  5
3BD
  8
SSS
 10
1979.231924659362
 20
795.5847226159319
 30
0.0
  0
VERTEX
  5
3BE
  8
SSS
 10
1979.231924659367
 20
783.5847226159319
 30
0.0
  0
VERTEX
  5
3BF
  8
SSS
 10
1997.356924659365
 20
783.5847226159406
 30
0.0
  0
VERTEX
  5
3C0
  8
SSS
 10
1997.356924659362
 20
795.584722615941
 30
0.0
  0
SEQEND
  5
698
  8
SSS
  0
POLYLINE
  5
C0
  8
SSS
 66
     1
 10
0.0
 20
0.0
 30
0.0
 70
     1
  0
VERTEX
  5
3C1
  8
SSS
 10
2020.507924659641
 20
399.5847226159503
 30
0.0
  0
VERTEX
  5
3C2
  8
SSS
 10
2026.707924659258
 20
399.584722615944
 30
0.0
  0
VERTEX
  5
3C3
  8
SSS
 10
2026.707924659271
 20
329.0847226159458
 30
0.0
  0
VERTEX
  5
3C4
  8
SSS
 10
2020.507924659653
 20
329.0847226159603
 30
0.0
  0
SEQEND
  5
699
  8
SSS
  0
POLYLINE
  5
C1
  8
SSS
 66
     1
 10
0.0
 20
0.0
 30
0.0
 70
     1
  0
VERTEX
  5
3C5
  8
SSS
 10
2026.707924659219
 20
573.0847226159465
 30
0.0
  0
VERTEX
  5
3C6
  8
SSS
 10
2020.507924659604
 20
573.084722615961
 30
0.0
  0
VERTEX
  5
3C7
  8
SSS
 10
2020.507924659629
 20
478.0847226159619
 30
0.0
  0
VERTEX
  5
3C8
  8
SSS
 10
2026.707924659245
 20
478.0847226159474
 30
0.0
  0
SEQEND
  5
69A
  8
SSS
  0
POLYLINE
  5
C2
  8
SSS
 66
     1
 10
0.0
 20
0.0
 30
0.0
 70
     1
  0
VERTEX
  5
3C9
  8
SSS
 10
2026.707924659195
 20
722.0847226159456
 30
0.0
  0
VERTEX
  5
3CA
  8
SSS
 10
2020.507924659579
 20
722.0847226159547
 30
0.0
  0
VERTEX
  5
3CB
  8
SSS
 10
2020.507924659591
 20
651.5847226159556
 30
0.0
  0
VERTEX
  5
3CC
  8
SSS
 10
2026.707924659207
 20
651.5847226159474
 30
0.0
  0
SEQEND
  5
69B
  8
SSS
  0
POLYLINE
  5
C3
  8
SSS
 66
     1
 10
0.0
 20
0.0
 30
0.0
 70
     1
  0
VERTEX
  5
3CD
  8
SSS
 10
1955.999864290021
 20
625.5847226159638
 30
0.0
  0
VERTEX
  5
3CE
  8
SSS
 10
1955.999864290021
 20
425.5847226159256
 30
0.0
  0
VERTEX
  5
3CF
  8
SSS
 10
2015.999864289981
 20
425.5847226159256
 30
0.0
  0
VERTEX
  5
3D0
  8
SSS
 10
2015.999864289981
 20
625.5847226159638
 30
0.0
  0
SEQEND
  5
69C
  8
SSS
  0
POLYLINE
  5
C4
  8
SSS
 66
     1
 10
0.0
 20
0.0
 30
0.0
 70
     1
  0
VERTEX
  5
3D1
  8
SSS
 10
2106.202829829181
 20
565.5844617463856
 30
0.0
  0
VERTEX
  5
3D2
  8
SSS
 10
2106.202829829198
 20
485.5844617463865
 30
0.0
 42
-0.453768226591751
  0
VERTEX
  5
3D3
  8
SSS
 10
2088.702829829197
 20
465.5844617463938
 30
0.0
 42
-0.4537682265917541
  0
VERTEX
  5
3D4
  8
SSS
 10
2071.202829829198
 20
485.584461746391
 30
0.0
  0
VERTEX
  5
3D5
  8
SSS
 10
2071.20282982918
 20
565.5844617463902
 30
0.0
 42
-0.4537682265919399
  0
VERTEX
  5
3D6
  8
SSS
 10
2088.70282982918
 20
585.5844617463956
 30
0.0
 42
-0.4537682265919429
  0
SEQEND
  5
69D
  8
SSS
  0
POLYLINE
  5
C5
  8
SSS
 66
     1
 10
0.0
 20
0.0
 30
0.0
 70
     1
  0
VERTEX
  5
3D7
  8
SSS
 10
2155.040149143767
 20
525.5844617464247
 30
0.0
 42
0.4142135623730951
  0
VERTEX
  5
3D8
  8
SSS
 10
2143.595769459767
 20
537.0288414304243
 30
0.0
 42
0.4142135623730951
  0
VERTEX
  5
3D9
  8
SSS
 10
2132.151389775767
 20
525.5844617464247
 30
0.0
 42
0.4142135623730951
  0
VERTEX
  5
3DA
  8
SSS
 10
2143.595769459767
 20
514.1400820624251
 30
0.0
 42
0.4142135623730951
  0
SEQEND
  5
69E
  8
SSS
  0
POLYLINE
  5
C6
  8
SSS
 66
     1
 10
0.0
 20
0.0
 30
0.0
 70
     1
  0
VERTEX
  5
3DB
  8
SSS
 10
2173.077829829131
 20
795.584461746417
 30
0.0
  0
VERTEX
  5
3DC
  8
SSS
 10
2173.077829829135
 20
783.584461746417
 30
0.0
  0
VERTEX
  5
3DD
  8
SSS
 10
2191.202829829133
 20
783.5844617464224
 30
0.0
  0
VERTEX
  5
3DE
  8
SSS
 10
2191.202829829137
 20
777.5844617464224
 30
0.0
  0
VERTEX
  5
3DF
  8
SSS
 10
2197.402829829139
 20
769.9116170902269
 30
0.0
  0
VERTEX
  5
3E0
  8
SSS
 10
2197.402829829231
 20
281.2572520169674
 30
0.0
  0
VERTEX
  5
3E1
  8
SSS
 10
2191.202829829233
 20
273.5844617464222
 30
0.0
  0
VERTEX
  5
3E2
  8
SSS
 10
2191.202829829239
 20
267.5844617464204
 30
0.0
  0
VERTEX
  5
3E3
  8
SSS
 10
2173.077829829243
 20
267.5844617464154
 30
0.0
  0
VERTEX
  5
3E4
  8
SSS
 10
2173.077829829239
 20
255.5844617464204
 30
0.0
  0
VERTEX
  5
3E5
  8
SSS
 10
2154.952829829238
 20
255.5844617463904
 30
0.0
  0
VERTEX
  5
3E6
  8
SSS
 10
2154.95282982923
 20
267.5844617463813
 30
0.0
  0
VERTEX
  5
3E7
  8
SSS
 10
2136.827829829223
 20
267.5844617463886
 30
0.0
  0
VERTEX
  5
3E8
  8
SSS
 10
2136.827829829239
 20
255.584461746384
 30
0.0
  0
VERTEX
  5
3E9
  8
SSS
 10
2100.577829829238
 20
255.5844617463886
 30
0.0
  0
VERTEX
  5
3EA
  8
SSS
 10
2100.577829829241
 20
267.5844617463763
 30
0.0
  0
VERTEX
  5
3EB
  8
SSS
 10
2082.452829829236
 20
267.5844617463836
 30
0.0
  0
VERTEX
  5
3EC
  8
SSS
 10
2082.452829829238
 20
255.5844617463858
 30
0.0
  0
VERTEX
  5
3ED
  8
SSS
 10
2064.327829829239
 20
255.5844617463695
 30
0.0
  0
VERTEX
  5
3EE
  8
SSS
 10
2064.327829829241
 20
267.5844617463681
 30
0.0
  0
VERTEX
  5
3EF
  8
SSS
 10
2046.205329829243
 20
267.5844617463695
 30
0.0
  0
VERTEX
  5
3F0
  8
SSS
 10
2046.205329829138
 20
783.584461746374
 30
0.0
  0
VERTEX
  5
3F1
  8
SSS
 10
2064.327829829134
 20
783.5844617463742
 30
0.0
  0
VERTEX
  5
3F2
  8
SSS
 10
2064.327829829132
 20
795.584461746374
 30
0.0
  0
VERTEX
  5
3F3
  8
SSS
 10
2082.452829829132
 20
795.5844617463733
 30
0.0
  0
VERTEX
  5
3F4
  8
SSS
 10
2082.452829829137
 20
783.5844617463733
 30
0.0
  0
VERTEX
  5
3F5
  8
SSS
 10
2100.577829829135
 20
783.5844617463888
 30
0.0
  0
VERTEX
  5
3F6
  8
SSS
 10
2100.577829829132
 20
795.5844617463861
 30
0.0
  0
VERTEX
  5
3F7
  8
SSS
 10
2136.82782982913
 20
795.5844617463906
 30
0.0
  0
VERTEX
  5
3F8
  8
SSS
 10
2136.827829829135
 20
783.5844617463906
 30
0.0
  0
VERTEX
  5
3F9
  8
SSS
 10
2154.952829829133
 20
783.5844617463993
 30
0.0
  0
VERTEX
  5
3FA
  8
SSS
 10
2154.95282982913
 20
795.5844617463997
 30
0.0
  0
SEQEND
  5
69F
  8
SSS
  0
POLYLINE
  5
C7
  8
SSS
 66
     1
 10
0.0
 20
0.0
 30
0.0
 70
     1
  0
VERTEX
  5
3FB
  8
SSS
 10
2178.10382982941
 20
399.584461746409
 30
0.0
  0
VERTEX
  5
3FC
  8
SSS
 10
2184.303829829027
 20
399.5844617464027
 30
0.0
  0
VERTEX
  5
3FD
  8
SSS
 10
2184.303829829039
 20
329.0844617464045
 30
0.0
  0
VERTEX
  5
3FE
  8
SSS
 10
2178.103829829422
 20
329.084461746419
 30
0.0
  0
SEQEND
  5
6A0
  8
SSS
  0
POLYLINE
  5
C8
  8
SSS
 66
     1
 10
0.0
 20
0.0
 30
0.0
 70
     1
  0
VERTEX
  5
3FF
  8
SSS
 10
2184.303829828988
 20
573.0844617464052
 30
0.0
  0
VERTEX
  5
400
  8
SSS
 10
2178.103829829372
 20
573.0844617464197
 30
0.0
  0
VERTEX
  5
401
  8
SSS
 10
2178.103829829397
 20
478.0844617464206
 30
0.0
  0
VERTEX
  5
402
  8
SSS
 10
2184.303829829013
 20
478.084461746406
 30
0.0
  0
SEQEND
  5
6A1
  8
SSS
  0
POLYLINE
  5
C9
  8
SSS
 66
     1
 10
0.0
 20
0.0
 30
0.0
 70
     1
  0
VERTEX
  5
403
  8
SSS
 10
2184.303829828963
 20
722.0844617464043
 30
0.0
  0
VERTEX
  5
404
  8
SSS
 10
2178.103829829348
 20
722.0844617464134
 30
0.0
  0
VERTEX
  5
405
  8
SSS
 10
2178.10382982936
 20
651.5844617464143
 30
0.0
  0
VERTEX
  5
406
  8
SSS
 10
2184.303829828976
 20
651.5844617464061
 30
0.0
  0
SEQEND
  5
6A2
  8
SSS
  0
POLYLINE
  5
CA
  8
SSS
 66
     1
 10
0.0
 20
0.0
 30
0.0
 70
     1
  0
VERTEX
  5
407
  8
SSS
 10
2113.595769459789
 20
625.5844617464224
 30
0.0
  0
VERTEX
  5
408
  8
SSS
 10
2113.595769459789
 20
425.5844617463842
 30
0.0
  0
VERTEX
  5
409
  8
SSS
 10
2173.595769459749
 20
425.5844617463842
 30
0.0
  0
VERTEX
  5
40A
  8
SSS
 10
2173.595769459749
 20
625.5844617464224
 30
0.0
  0
SEQEND
  5
6A3
  8
SSS
  0
POLYLINE
  5
CB
  8
SSS
 66
     1
 10
0.0
 20
0.0
 30
0.0
 70
     1
  0
VERTEX
  5
40B
  8
SSS
 10
12.87044835671577
 20
533.6912874889758
 30
0.0
  0
VERTEX
  5
40C
  8
SSS
 10
12.87044835671577
 20
564.3762874889735
 30
0.0
  0
VERTEX
  5
40D
  8
SSS
 10
24.8704483567171
 20
564.3762874889736
 30
0.0
  0
VERTEX
  5
40E
  8
SSS
 10
24.87044835671696
 20
582.5012874889743
 30
0.0
  0
VERTEX
  5
40F
  8
SSS
 10
12.87044835671577
 20
582.5012874889744
 30
0.0
  0
VERTEX
  5
410
  8
SSS
 10
12.87044835671577
 20
600.6262874889753
 30
0.0
  0
VERTEX
  5
411
  8
SSS
 10
24.87044835671692
 20
600.6262874889755
 30
0.0
  0
VERTEX
  5
412
  8
SSS
 10
24.87044835671698
 20
636.8762874889746
 30
0.0
  0
VERTEX
  5
413
  8
SSS
 10
12.87044835671577
 20
636.8762874889746
 30
0.0
  0
VERTEX
  5
414
  8
SSS
 10
12.87044835671577
 20
655.0012874889746
 30
0.0
  0
VERTEX
  5
415
  8
SSS
 10
24.87044835671699
 20
655.0012874889746
 30
0.0
  0
VERTEX
  5
416
  8
SSS
 10
24.87044835671675
 20
673.1262874889736
 30
0.0
  0
VERTEX
  5
417
  8
SSS
 10
12.87044835671577
 20
673.1262874889737
 30
0.0
  0
VERTEX
  5
418
  8
SSS
 10
12.87044835671577
 20
691.2512874889746
 30
0.0
  0
VERTEX
  5
419
  8
SSS
 10
772.8704483567158
 20
691.2512874889746
 30
0.0
  0
VERTEX
  5
41A
  8
SSS
 10
772.8704483567158
 20
673.1262874889737
 30
0.0
  0
VERTEX
  5
41B
  8
SSS
 10
760.8704483567064
 20
673.1262874889684
 30
0.0
  0
VERTEX
  5
41C
  8
SSS
 10
760.8704483567197
 20
655.0012874889762
 30
0.0
  0
VERTEX
  5
41D
  8
SSS
 10
772.8704483567158
 20
655.0012874889746
 30
0.0
  0
VERTEX
  5
41E
  8
SSS
 10
772.8704483567158
 20
636.8762874889746
 30
0.0
  0
VERTEX
  5
41F
  8
SSS
 10
760.8704483567149
 20
636.8762874889691
 30
0.0
  0
VERTEX
  5
420
  8
SSS
 10
760.8704483567151
 20
600.6262874889698
 30
0.0
  0
VERTEX
  5
421
  8
SSS
 10
772.8704483567158
 20
600.6262874889755
 30
0.0
  0
VERTEX
  5
422
  8
SSS
 10
772.8704483567158
 20
582.5012874889746
 30
0.0
  0
VERTEX
  5
423
  8
SSS
 10
760.8704483567078
 20
582.5012874889776
 30
0.0
  0
VERTEX
  5
424
  8
SSS
 10
760.8704483567142
 20
564.3762874889704
 30
0.0
  0
VERTEX
  5
425
  8
SSS
 10
772.8704483567158
 20
564.3762874889737
 30
0.0
  0
VERTEX
  5
426
  8
SSS
 10
772.8704483567158
 20
533.6912874889761
 30
0.0
  0
SEQEND
  5
6A4
  8
SSS
  0
POLYLINE
  5
CC
  8
SSS
 66
     1
 10
0.0
 20
0.0
 30
0.0
 70
     1
  0
VERTEX
  5
427
  8
SSS
 10
670.370448356716
 20
678.651287488977
 30
0.0
  0
VERTEX
  5
428
  8
SSS
 10
743.8704483567153
 20
678.651287488977
 30
0.0
  0
VERTEX
  5
429
  8
SSS
 10
743.8704483567153
 20
684.8512874889768
 30
0.0
  0
VERTEX
  5
42A
  8
SSS
 10
670.370448356716
 20
684.8512874889768
 30
0.0
  0
SEQEND
  5
6A5
  8
SSS
  0
POLYLINE
  5
CD
  8
SSS
 66
     1
 10
0.0
 20
0.0
 30
0.0
 70
     1
  0
VERTEX
  5
42B
  8
SSS
 10
483.3704483567162
 20
678.651287488977
 30
0.0
  0
VERTEX
  5
42C
  8
SSS
 10
582.8704483567158
 20
678.651287488977
 30
0.0
  0
VERTEX
  5
42D
  8
SSS
 10
582.8704483567158
 20
684.8512874889768
 30
0.0
  0
VERTEX
  5
42E
  8
SSS
 10
483.3704483567162
 20
684.8512874889768
 30
0.0
  0
SEQEND
  5
6A6
  8
SSS
  0
POLYLINE
  5
CE
  8
SSS
 66
     1
 10
0.0
 20
0.0
 30
0.0
 70
     1
  0
VERTEX
  5
42F
  8
SSS
 10
343.1204483567135
 20
678.651287488977
 30
0.0
  0
VERTEX
  5
430
  8
SSS
 10
442.6204483567153
 20
678.651287488977
 30
0.0
  0
VERTEX
  5
431
  8
SSS
 10
442.6204483567153
 20
684.8512874889768
 30
0.0
  0
VERTEX
  5
432
  8
SSS
 10
343.1204483567135
 20
684.8512874889768
 30
0.0
  0
SEQEND
  5
6A7
  8
SSS
  0
POLYLINE
  5
CF
  8
SSS
 66
     1
 10
0.0
 20
0.0
 30
0.0
 70
     1
  0
VERTEX
  5
433
  8
SSS
 10
202.870448356714
 20
678.651287488977
 30
0.0
  0
VERTEX
  5
434
  8
SSS
 10
302.3704483567144
 20
678.651287488977
 30
0.0
  0
VERTEX
  5
435
  8
SSS
 10
302.3704483567144
 20
684.8512874889768
 30
0.0
  0
VERTEX
  5
436
  8
SSS
 10
202.870448356714
 20
684.8512874889768
 30
0.0
  0
SEQEND
  5
6A8
  8
SSS
  0
POLYLINE
  5
D0
  8
SSS
 66
     1
 10
0.0
 20
0.0
 30
0.0
 70
     1
  0
VERTEX
  5
437
  8
SSS
 10
41.87044835671531
 20
678.6512874889771
 30
0.0
  0
VERTEX
  5
438
  8
SSS
 10
115.3704483567144
 20
678.6512874889771
 30
0.0
  0
VERTEX
  5
439
  8
SSS
 10
115.3704483567144
 20
684.8512874889767
 30
0.0
  0
VERTEX
  5
43A
  8
SSS
 10
41.87044835671531
 20
684.8512874889767
 30
0.0
  0
SEQEND
  5
6A9
  8
SSS
  0
POLYLINE
  5
D1
  8
SSS
 66
     1
 10
0.0
 20
0.0
 30
0.0
 70
     1
  0
VERTEX
  5
43B
  8
SSS
 10
9.87044835671577
 20
539.2537874889695
 30
0.0
  0
VERTEX
  5
43C
  8
SSS
 10
9.87044835671577
 20
546.2537874889695
 30
0.0
  0
VERTEX
  5
43D
  8
SSS
 10
775.8704483567158
 20
546.2537874889697
 30
0.0
  0
VERTEX
  5
43E
  8
SSS
 10
775.8704483567158
 20
539.2537874889697
 30
0.0
  0
SEQEND
  5
6AA
  8
SSS
  0
POLYLINE
  5
D2
  8
SSS
 66
     1
 10
0.0
 20
0.0
 30
0.0
 70
     1
  0
VERTEX
  5
43F
  8
SSS
 10
9.87044835671577
 20
375.3937874889709
 30
0.0
  0
VERTEX
  5
440
  8
SSS
 10
9.87044835671577
 20
382.3937874889709
 30
0.0
  0
VERTEX
  5
441
  8
SSS
 10
775.8704483567158
 20
382.3937874889712
 30
0.0
  0
VERTEX
  5
442
  8
SSS
 10
775.8704483567158
 20
375.3937874889712
 30
0.0
  0
SEQEND
  5
6AB
  8
SSS
  0
POLYLINE
  5
D3
  8
SSS
 66
     1
 10
0.0
 20
0.0
 30
0.0
 70
     1
  0
VERTEX
  5
443
  8
SSS
 10
12.87044835671577
 20
369.8312874889773
 30
0.0
  0
VERTEX
  5
444
  8
SSS
 10
12.87044835671577
 20
400.516287488975
 30
0.0
  0
VERTEX
  5
445
  8
SSS
 10
24.8704483567171
 20
400.5162874889751
 30
0.0
  0
VERTEX
  5
446
  8
SSS
 10
24.87044835671696
 20
418.6412874889758
 30
0.0
  0
VERTEX
  5
447
  8
SSS
 10
12.87044835671577
 20
418.6412874889759
 30
0.0
  0
VERTEX
  5
448
  8
SSS
 10
12.87044835671577
 20
436.7662874889768
 30
0.0
  0
VERTEX
  5
449
  8
SSS
 10
24.87044835671692
 20
436.766287488977
 30
0.0
  0
VERTEX
  5
44A
  8
SSS
 10
24.87044835671698
 20
473.0162874889761
 30
0.0
  0
VERTEX
  5
44B
  8
SSS
 10
12.87044835671577
 20
473.0162874889761
 30
0.0
  0
VERTEX
  5
44C
  8
SSS
 10
12.87044835671577
 20
491.1412874889761
 30
0.0
  0
VERTEX
  5
44D
  8
SSS
 10
24.87044835671699
 20
491.1412874889761
 30
0.0
  0
VERTEX
  5
44E
  8
SSS
 10
24.87044835671675
 20
509.2662874889751
 30
0.0
  0
VERTEX
  5
44F
  8
SSS
 10
12.87044835671577
 20
509.2662874889752
 30
0.0
  0
VERTEX
  5
450
  8
SSS
 10
12.87044835671577
 20
527.3912874889761
 30
0.0
  0
VERTEX
  5
451
  8
SSS
 10
772.8704483567158
 20
527.3912874889761
 30
0.0
  0
VERTEX
  5
452
  8
SSS
 10
772.8704483567158
 20
509.2662874889752
 30
0.0
  0
VERTEX
  5
453
  8
SSS
 10
760.8704483567064
 20
509.2662874889699
 30
0.0
  0
VERTEX
  5
454
  8
SSS
 10
760.8704483567197
 20
491.1412874889777
 30
0.0
  0
VERTEX
  5
455
  8
SSS
 10
772.8704483567158
 20
491.1412874889761
 30
0.0
  0
VERTEX
  5
456
  8
SSS
 10
772.8704483567158
 20
473.0162874889761
 30
0.0
  0
VERTEX
  5
457
  8
SSS
 10
760.8704483567149
 20
473.0162874889705
 30
0.0
  0
VERTEX
  5
458
  8
SSS
 10
760.8704483567151
 20
436.7662874889712
 30
0.0
  0
VERTEX
  5
459
  8
SSS
 10
772.8704483567158
 20
436.766287488977
 30
0.0
  0
VERTEX
  5
45A
  8
SSS
 10
772.8704483567158
 20
418.6412874889761
 30
0.0
  0
VERTEX
  5
45B
  8
SSS
 10
760.8704483567078
 20
418.6412874889791
 30
0.0
  0
VERTEX
  5
45C
  8
SSS
 10
760.8704483567142
 20
400.5162874889719
 30
0.0
  0
VERTEX
  5
45D
  8
SSS
 10
772.8704483567158
 20
400.5162874889752
 30
0.0
  0
VERTEX
  5
45E
  8
SSS
 10
772.8704483567158
 20
369.8312874889775
 30
0.0
  0
SEQEND
  5
6AC
  8
SSS
  0
POLYLINE
  5
D4
  8
SSS
 66
     1
 10
0.0
 20
0.0
 30
0.0
 70
     1
  0
VERTEX
  5
45F
  8
SSS
 10
670.370448356716
 20
514.7912874889785
 30
0.0
  0
VERTEX
  5
460
  8
SSS
 10
743.8704483567153
 20
514.7912874889785
 30
0.0
  0
VERTEX
  5
461
  8
SSS
 10
743.8704483567153
 20
520.9912874889783
 30
0.0
  0
VERTEX
  5
462
  8
SSS
 10
670.370448356716
 20
520.9912874889783
 30
0.0
  0
SEQEND
  5
6AD
  8
SSS
  0
POLYLINE
  5
D5
  8
SSS
 66
     1
 10
0.0
 20
0.0
 30
0.0
 70
     1
  0
VERTEX
  5
463
  8
SSS
 10
483.3704483567162
 20
514.7912874889785
 30
0.0
  0
VERTEX
  5
464
  8
SSS
 10
582.8704483567158
 20
514.7912874889785
 30
0.0
  0
VERTEX
  5
465
  8
SSS
 10
582.8704483567158
 20
520.9912874889783
 30
0.0
  0
VERTEX
  5
466
  8
SSS
 10
483.3704483567162
 20
520.9912874889783
 30
0.0
  0
SEQEND
  5
6AE
  8
SSS
  0
POLYLINE
  5
D6
  8
SSS
 66
     1
 10
0.0
 20
0.0
 30
0.0
 70
     1
  0
VERTEX
  5
467
  8
SSS
 10
343.1204483567135
 20
514.7912874889785
 30
0.0
  0
VERTEX
  5
468
  8
SSS
 10
442.6204483567153
 20
514.7912874889785
 30
0.0
  0
VERTEX
  5
469
  8
SSS
 10
442.6204483567153
 20
520.9912874889783
 30
0.0
  0
VERTEX
  5
46A
  8
SSS
 10
343.1204483567135
 20
520.9912874889783
 30
0.0
  0
SEQEND
  5
6AF
  8
SSS
  0
POLYLINE
  5
D7
  8
SSS
 66
     1
 10
0.0
 20
0.0
 30
0.0
 70
     1
  0
VERTEX
  5
46B
  8
SSS
 10
202.870448356714
 20
514.7912874889785
 30
0.0
  0
VERTEX
  5
46C
  8
SSS
 10
302.3704483567144
 20
514.7912874889785
 30
0.0
  0
VERTEX
  5
46D
  8
SSS
 10
302.3704483567144
 20
520.9912874889783
 30
0.0
  0
VERTEX
  5
46E
  8
SSS
 10
202.870448356714
 20
520.9912874889783
 30
0.0
  0
SEQEND
  5
6B0
  8
SSS
  0
POLYLINE
  5
D8
  8
SSS
 66
     1
 10
0.0
 20
0.0
 30
0.0
 70
     1
  0
VERTEX
  5
46F
  8
SSS
 10
41.87044835671531
 20
514.7912874889786
 30
0.0
  0
VERTEX
  5
470
  8
SSS
 10
115.3704483567144
 20
514.7912874889786
 30
0.0
  0
VERTEX
  5
471
  8
SSS
 10
115.3704483567144
 20
520.9912874889782
 30
0.0
  0
VERTEX
  5
472
  8
SSS
 10
41.87044835671531
 20
520.9912874889782
 30
0.0
  0
SEQEND
  5
6B1
  8
SSS
  0
POLYLINE
  5
D9
  8
SSS
 66
     1
 10
0.0
 20
0.0
 30
0.0
 70
     1
  0
VERTEX
  5
473
  8
SSS
 10
670.370448356716
 20
342.7869440647623
 30
0.0
  0
VERTEX
  5
474
  8
SSS
 10
743.8704483567153
 20
342.7869440647623
 30
0.0
  0
VERTEX
  5
475
  8
SSS
 10
743.8704483567153
 20
348.9869440647622
 30
0.0
  0
VERTEX
  5
476
  8
SSS
 10
670.370448356716
 20
348.9869440647622
 30
0.0
  0
SEQEND
  5
6B2
  8
SSS
  0
POLYLINE
  5
DA
  8
SSS
 66
     1
 10
0.0
 20
0.0
 30
0.0
 70
     1
  0
VERTEX
  5
477
  8
SSS
 10
483.3704483567162
 20
342.7869440647623
 30
0.0
  0
VERTEX
  5
478
  8
SSS
 10
582.8704483567158
 20
342.7869440647623
 30
0.0
  0
VERTEX
  5
479
  8
SSS
 10
582.8704483567158
 20
348.9869440647622
 30
0.0
  0
VERTEX
  5
47A
  8
SSS
 10
483.3704483567162
 20
348.9869440647622
 30
0.0
  0
SEQEND
  5
6B3
  8
SSS
  0
POLYLINE
  5
DB
  8
SSS
 66
     1
 10
0.0
 20
0.0
 30
0.0
 70
     1
  0
VERTEX
  5
47B
  8
SSS
 10
343.1204483567135
 20
342.7869440647623
 30
0.0
  0
VERTEX
  5
47C
  8
SSS
 10
442.6204483567153
 20
342.7869440647623
 30
0.0
  0
VERTEX
  5
47D
  8
SSS
 10
442.6204483567153
 20
348.9869440647622
 30
0.0
  0
VERTEX
  5
47E
  8
SSS
 10
343.1204483567135
 20
348.9869440647622
 30
0.0
  0
SEQEND
  5
6B4
  8
SSS
  0
POLYLINE
  5
DC
  8
SSS
 66
     1
 10
0.0
 20
0.0
 30
0.0
 70
     1
  0
VERTEX
  5
47F
  8
SSS
 10
202.870448356714
 20
342.7869440647623
 30
0.0
  0
VERTEX
  5
480
  8
SSS
 10
302.3704483567144
 20
342.7869440647623
 30
0.0
  0
VERTEX
  5
481
  8
SSS
 10
302.3704483567144
 20
348.9869440647622
 30
0.0
  0
VERTEX
  5
482
  8
SSS
 10
202.870448356714
 20
348.9869440647622
 30
0.0
  0
SEQEND
  5
6B5
  8
SSS
  0
POLYLINE
  5
DD
  8
SSS
 66
     1
 10
0.0
 20
0.0
 30
0.0
 70
     1
  0
VERTEX
  5
483
  8
SSS
 10
41.87044835671531
 20
342.7869440647625
 30
0.0
  0
VERTEX
  5
484
  8
SSS
 10
115.3704483567144
 20
342.7869440647625
 30
0.0
  0
VERTEX
  5
485
  8
SSS
 10
115.3704483567144
 20
348.986944064762
 30
0.0
  0
VERTEX
  5
486
  8
SSS
 10
41.87044835671531
 20
348.986944064762
 30
0.0
  0
SEQEND
  5
6B6
  8
SSS
  0
POLYLINE
  5
DE
  8
SSS
 66
     1
 10
0.0
 20
0.0
 30
0.0
 70
     1
  0
VERTEX
  5
487
  8
SSS
 10
9.87044835671577
 20
203.3894440647548
 30
0.0
  0
VERTEX
  5
488
  8
SSS
 10
9.87044835671577
 20
210.3894440647548
 30
0.0
  0
VERTEX
  5
489
  8
SSS
 10
775.8704483567158
 20
210.389444064755
 30
0.0
  0
VERTEX
  5
48A
  8
SSS
 10
775.8704483567158
 20
203.389444064755
 30
0.0
  0
SEQEND
  5
6B7
  8
SSS
  0
POLYLINE
  5
DF
  8
SSS
 66
     1
 10
0.0
 20
0.0
 30
0.0
 70
     1
  0
VERTEX
  5
48B
  8
SSS
 10
12.87044835671577
 20
197.8269440647612
 30
0.0
  0
VERTEX
  5
48C
  8
SSS
 10
12.87044835671577
 20
228.5119440647588
 30
0.0
  0
VERTEX
  5
48D
  8
SSS
 10
24.8704483567171
 20
228.5119440647589
 30
0.0
  0
VERTEX
  5
48E
  8
SSS
 10
24.87044835671696
 20
246.6369440647596
 30
0.0
  0
VERTEX
  5
48F
  8
SSS
 10
12.87044835671577
 20
246.6369440647597
 30
0.0
  0
VERTEX
  5
490
  8
SSS
 10
12.87044835671577
 20
264.7619440647607
 30
0.0
  0
VERTEX
  5
491
  8
SSS
 10
24.87044835671692
 20
264.7619440647609
 30
0.0
  0
VERTEX
  5
492
  8
SSS
 10
24.87044835671698
 20
301.01194406476
 30
0.0
  0
VERTEX
  5
493
  8
SSS
 10
12.87044835671577
 20
301.01194406476
 30
0.0
  0
VERTEX
  5
494
  8
SSS
 10
12.87044835671577
 20
319.13694406476
 30
0.0
  0
VERTEX
  5
495
  8
SSS
 10
24.87044835671699
 20
319.13694406476
 30
0.0
  0
VERTEX
  5
496
  8
SSS
 10
24.87044835671675
 20
337.2619440647589
 30
0.0
  0
VERTEX
  5
497
  8
SSS
 10
12.87044835671577
 20
337.2619440647591
 30
0.0
  0
VERTEX
  5
498
  8
SSS
 10
12.87044835671577
 20
355.38694406476
 30
0.0
  0
VERTEX
  5
499
  8
SSS
 10
772.8704483567158
 20
355.38694406476
 30
0.0
  0
VERTEX
  5
49A
  8
SSS
 10
772.8704483567158
 20
337.2619440647591
 30
0.0
  0
VERTEX
  5
49B
  8
SSS
 10
760.8704483567064
 20
337.2619440647537
 30
0.0
  0
VERTEX
  5
49C
  8
SSS
 10
760.8704483567197
 20
319.1369440647616
 30
0.0
  0
VERTEX
  5
49D
  8
SSS
 10
772.8704483567158
 20
319.13694406476
 30
0.0
  0
VERTEX
  5
49E
  8
SSS
 10
772.8704483567158
 20
301.01194406476
 30
0.0
  0
VERTEX
  5
49F
  8
SSS
 10
760.8704483567149
 20
301.0119440647544
 30
0.0
  0
VERTEX
  5
4A0
  8
SSS
 10
760.8704483567151
 20
264.7619440647551
 30
0.0
  0
VERTEX
  5
4A1
  8
SSS
 10
772.8704483567158
 20
264.7619440647609
 30
0.0
  0
VERTEX
  5
4A2
  8
SSS
 10
772.8704483567158
 20
246.63694406476
 30
0.0
  0
VERTEX
  5
4A3
  8
SSS
 10
760.8704483567078
 20
246.6369440647629
 30
0.0
  0
VERTEX
  5
4A4
  8
SSS
 10
760.8704483567142
 20
228.5119440647558
 30
0.0
  0
VERTEX
  5
4A5
  8
SSS
 10
772.8704483567158
 20
228.5119440647591
 30
0.0
  0
VERTEX
  5
4A6
  8
SSS
 10
772.8704483567158
 20
197.8269440647614
 30
0.0
  0
SEQEND
  5
6B8
  8
SSS
  0
POLYLINE
  5
E0
  8
SSS
 66
     1
 10
0.0
 20
0.0
 30
0.0
 70
     1
  0
VERTEX
  5
4A7
  8
SSS
 10
670.370448356716
 20
167.8297967658674
 30
0.0
  0
VERTEX
  5
4A8
  8
SSS
 10
743.8704483567153
 20
167.8297967658674
 30
0.0
  0
VERTEX
  5
4A9
  8
SSS
 10
743.8704483567153
 20
174.0297967658672
 30
0.0
  0
VERTEX
  5
4AA
  8
SSS
 10
670.370448356716
 20
174.0297967658672
 30
0.0
  0
SEQEND
  5
6B9
  8
SSS
  0
POLYLINE
  5
E1
  8
SSS
 66
     1
 10
0.0
 20
0.0
 30
0.0
 70
     1
  0
VERTEX
  5
4AB
  8
SSS
 10
483.3704483567162
 20
167.8297967658674
 30
0.0
  0
VERTEX
  5
4AC
  8
SSS
 10
582.8704483567158
 20
167.8297967658674
 30
0.0
  0
VERTEX
  5
4AD
  8
SSS
 10
582.8704483567158
 20
174.0297967658672
 30
0.0
  0
VERTEX
  5
4AE
  8
SSS
 10
483.3704483567162
 20
174.0297967658672
 30
0.0
  0
SEQEND
  5
6BA
  8
SSS
  0
POLYLINE
  5
E2
  8
SSS
 66
     1
 10
0.0
 20
0.0
 30
0.0
 70
     1
  0
VERTEX
  5
4AF
  8
SSS
 10
343.1204483567135
 20
167.8297967658674
 30
0.0
  0
VERTEX
  5
4B0
  8
SSS
 10
442.6204483567153
 20
167.8297967658674
 30
0.0
  0
VERTEX
  5
4B1
  8
SSS
 10
442.6204483567153
 20
174.0297967658672
 30
0.0
  0
VERTEX
  5
4B2
  8
SSS
 10
343.1204483567135
 20
174.0297967658672
 30
0.0
  0
SEQEND
  5
6BB
  8
SSS
  0
POLYLINE
  5
E3
  8
SSS
 66
     1
 10
0.0
 20
0.0
 30
0.0
 70
     1
  0
VERTEX
  5
4B3
  8
SSS
 10
202.870448356714
 20
167.8297967658674
 30
0.0
  0
VERTEX
  5
4B4
  8
SSS
 10
302.3704483567144
 20
167.8297967658674
 30
0.0
  0
VERTEX
  5
4B5
  8
SSS
 10
302.3704483567144
 20
174.0297967658672
 30
0.0
  0
VERTEX
  5
4B6
  8
SSS
 10
202.870448356714
 20
174.0297967658672
 30
0.0
  0
SEQEND
  5
6BC
  8
SSS
  0
POLYLINE
  5
E4
  8
SSS
 66
     1
 10
0.0
 20
0.0
 30
0.0
 70
     1
  0
VERTEX
  5
4B7
  8
SSS
 10
41.87044835671531
 20
167.8297967658675
 30
0.0
  0
VERTEX
  5
4B8
  8
SSS
 10
115.3704483567144
 20
167.8297967658675
 30
0.0
  0
VERTEX
  5
4B9
  8
SSS
 10
115.3704483567144
 20
174.0297967658671
 30
0.0
  0
VERTEX
  5
4BA
  8
SSS
 10
41.87044835671531
 20
174.0297967658671
 30
0.0
  0
SEQEND
  5
6BD
  8
SSS
  0
POLYLINE
  5
E5
  8
SSS
 66
     1
 10
0.0
 20
0.0
 30
0.0
 70
     1
  0
VERTEX
  5
4BB
  8
SSS
 10
9.87044835671577
 20
28.43229676585986
 30
0.0
  0
VERTEX
  5
4BC
  8
SSS
 10
9.87044835671577
 20
35.43229676585986
 30
0.0
  0
VERTEX
  5
4BD
  8
SSS
 10
775.8704483567158
 20
35.43229676586009
 30
0.0
  0
VERTEX
  5
4BE
  8
SSS
 10
775.8704483567158
 20
28.43229676586009
 30
0.0
  0
SEQEND
  5
6BE
  8
SSS
  0
POLYLINE
  5
E6
  8
SSS
 66
     1
 10
0.0
 20
0.0
 30
0.0
 70
     1
  0
VERTEX
  5
4BF
  8
SSS
 10
12.87044835671577
 20
22.86979676586623
 30
0.0
  0
VERTEX
  5
4C0
  8
SSS
 10
12.87044835671577
 20
53.5547967658639
 30
0.0
  0
VERTEX
  5
4C1
  8
SSS
 10
24.8704483567171
 20
53.55479676586401
 30
0.0
  0
VERTEX
  5
4C2
  8
SSS
 10
24.87044835671696
 20
71.6797967658647
 30
0.0
  0
VERTEX
  5
4C3
  8
SSS
 10
12.87044835671577
 20
71.67979676586481
 30
0.0
  0
VERTEX
  5
4C4
  8
SSS
 10
12.87044835671577
 20
89.80479676586572
 30
0.0
  0
VERTEX
  5
4C5
  8
SSS
 10
24.87044835671692
 20
89.80479676586594
 30
0.0
  0
VERTEX
  5
4C6
  8
SSS
 10
24.87044835671698
 20
126.054796765865
 30
0.0
  0
VERTEX
  5
4C7
  8
SSS
 10
12.87044835671577
 20
126.054796765865
 30
0.0
  0
VERTEX
  5
4C8
  8
SSS
 10
12.87044835671577
 20
144.179796765865
 30
0.0
  0
VERTEX
  5
4C9
  8
SSS
 10
24.87044835671699
 20
144.179796765865
 30
0.0
  0
VERTEX
  5
4CA
  8
SSS
 10
24.87044835671675
 20
162.304796765864
 30
0.0
  0
VERTEX
  5
4CB
  8
SSS
 10
12.87044835671577
 20
162.3047967658641
 30
0.0
  0
VERTEX
  5
4CC
  8
SSS
 10
12.87044835671577
 20
180.429796765865
 30
0.0
  0
VERTEX
  5
4CD
  8
SSS
 10
772.8704483567158
 20
180.429796765865
 30
0.0
  0
VERTEX
  5
4CE
  8
SSS
 10
772.8704483567158
 20
162.3047967658641
 30
0.0
  0
VERTEX
  5
4CF
  8
SSS
 10
760.8704483567064
 20
162.3047967658588
 30
0.0
  0
VERTEX
  5
4D0
  8
SSS
 10
760.8704483567197
 20
144.1797967658666
 30
0.0
  0
VERTEX
  5
4D1
  8
SSS
 10
772.8704483567158
 20
144.179796765865
 30
0.0
  0
VERTEX
  5
4D2
  8
SSS
 10
772.8704483567158
 20
126.054796765865
 30
0.0
  0
VERTEX
  5
4D3
  8
SSS
 10
760.8704483567149
 20
126.0547967658595
 30
0.0
  0
VERTEX
  5
4D4
  8
SSS
 10
760.8704483567151
 20
89.80479676586015
 30
0.0
  0
VERTEX
  5
4D5
  8
SSS
 10
772.8704483567158
 20
89.80479676586594
 30
0.0
  0
VERTEX
  5
4D6
  8
SSS
 10
772.8704483567158
 20
71.67979676586504
 30
0.0
  0
VERTEX
  5
4D7
  8
SSS
 10
760.8704483567078
 20
71.67979676586799
 30
0.0
  0
VERTEX
  5
4D8
  8
SSS
 10
760.8704483567142
 20
53.55479676586083
 30
0.0
  0
VERTEX
  5
4D9
  8
SSS
 10
772.8704483567158
 20
53.55479676586413
 30
0.0
  0
VERTEX
  5
4DA
  8
SSS
 10
772.8704483567158
 20
22.86979676586645
 30
0.0
  0
SEQEND
  5
6BF
  8
SSS
  0
POLYLINE
  5
E7
  8
SSS
 66
     1
 10
0.0
 20
0.0
 30
0.0
 70
     1
  0
VERTEX
  5
4DB
  8
SSS
 10
790.6740454790176
 20
711.2581309131856
 30
0.0
  0
VERTEX
  5
4DC
  8
SSS
 10
790.6740454790176
 20
718.2581309131856
 30
0.0
  0
VERTEX
  5
4DD
  8
SSS
 10
1556.674045479018
 20
718.2581309131858
 30
0.0
  0
VERTEX
  5
4DE
  8
SSS
 10
1556.674045479018
 20
711.2581309131858
 30
0.0
  0
SEQEND
  5
6C0
  8
SSS
  0
POLYLINE
  5
E8
  8
SSS
 66
     1
 10
0.0
 20
0.0
 30
0.0
 70
     1
  0
VERTEX
  5
4DF
  8
SSS
 10
793.6740454790176
 20
705.695630913192
 30
0.0
  0
VERTEX
  5
4E0
  8
SSS
 10
793.6740454790176
 20
736.3806309131896
 30
0.0
  0
VERTEX
  5
4E1
  8
SSS
 10
805.674045479019
 20
736.3806309131897
 30
0.0
  0
VERTEX
  5
4E2
  8
SSS
 10
805.6740454790188
 20
754.5056309131904
 30
0.0
  0
VERTEX
  5
4E3
  8
SSS
 10
793.6740454790176
 20
754.5056309131905
 30
0.0
  0
VERTEX
  5
4E4
  8
SSS
 10
793.6740454790176
 20
772.6306309131915
 30
0.0
  0
VERTEX
  5
4E5
  8
SSS
 10
805.6740454790188
 20
772.6306309131917
 30
0.0
  0
VERTEX
  5
4E6
  8
SSS
 10
805.6740454790189
 20
808.8806309131908
 30
0.0
  0
VERTEX
  5
4E7
  8
SSS
 10
793.6740454790176
 20
808.8806309131908
 30
0.0
  0
VERTEX
  5
4E8
  8
SSS
 10
793.6740454790176
 20
827.0056309131908
 30
0.0
  0
VERTEX
  5
4E9
  8
SSS
 10
805.6740454790189
 20
827.0056309131908
 30
0.0
  0
VERTEX
  5
4EA
  8
SSS
 10
805.6740454790187
 20
845.1306309131897
 30
0.0
  0
VERTEX
  5
4EB
  8
SSS
 10
793.6740454790176
 20
845.1306309131899
 30
0.0
  0
VERTEX
  5
4EC
  8
SSS
 10
793.6740454790176
 20
863.2556309131908
 30
0.0
  0
VERTEX
  5
4ED
  8
SSS
 10
1553.674045479018
 20
863.2556309131908
 30
0.0
  0
VERTEX
  5
4EE
  8
SSS
 10
1553.674045479018
 20
845.1306309131899
 30
0.0
  0
VERTEX
  5
4EF
  8
SSS
 10
1541.674045479008
 20
845.1306309131845
 30
0.0
  0
VERTEX
  5
4F0
  8
SSS
 10
1541.674045479022
 20
827.0056309131924
 30
0.0
  0
VERTEX
  5
4F1
  8
SSS
 10
1553.674045479018
 20
827.0056309131908
 30
0.0
  0
VERTEX
  5
4F2
  8
SSS
 10
1553.674045479018
 20
808.8806309131908
 30
0.0
  0
VERTEX
  5
4F3
  8
SSS
 10
1541.674045479017
 20
808.8806309131852
 30
0.0
  0
VERTEX
  5
4F4
  8
SSS
 10
1541.674045479017
 20
772.6306309131859
 30
0.0
  0
VERTEX
  5
4F5
  8
SSS
 10
1553.674045479018
 20
772.6306309131917
 30
0.0
  0
VERTEX
  5
4F6
  8
SSS
 10
1553.674045479018
 20
754.5056309131908
 30
0.0
  0
VERTEX
  5
4F7
  8
SSS
 10
1541.67404547901
 20
754.5056309131937
 30
0.0
  0
VERTEX
  5
4F8
  8
SSS
 10
1541.674045479016
 20
736.3806309131866
 30
0.0
  0
VERTEX
  5
4F9
  8
SSS
 10
1553.674045479018
 20
736.3806309131899
 30
0.0
  0
VERTEX
  5
4FA
  8
SSS
 10
1553.674045479018
 20
705.6956309131922
 30
0.0
  0
SEQEND
  5
6C1
  8
SSS
  0
POLYLINE
  5
E9
  8
SSS
 66
     1
 10
0.0
 20
0.0
 30
0.0
 70
     1
  0
VERTEX
  5
4FB
  8
SSS
 10
1451.174045479018
 20
850.6556309131931
 30
0.0
  0
VERTEX
  5
4FC
  8
SSS
 10
1524.674045479017
 20
850.6556309131931
 30
0.0
  0
VERTEX
  5
4FD
  8
SSS
 10
1524.674045479017
 20
856.855630913193
 30
0.0
  0
VERTEX
  5
4FE
  8
SSS
 10
1451.174045479018
 20
856.855630913193
 30
0.0
  0
SEQEND
  5
6C2
  8
SSS
  0
POLYLINE
  5
EA
  8
SSS
 66
     1
 10
0.0
 20
0.0
 30
0.0
 70
     1
  0
VERTEX
  5
4FF
  8
SSS
 10
1264.174045479018
 20
850.6556309131931
 30
0.0
  0
VERTEX
  5
500
  8
SSS
 10
1363.674045479018
 20
850.6556309131931
 30
0.0
  0
VERTEX
  5
501
  8
SSS
 10
1363.674045479018
 20
856.855630913193
 30
0.0
  0
VERTEX
  5
502
  8
SSS
 10
1264.174045479018
 20
856.855630913193
 30
0.0
  0
SEQEND
  5
6C3
  8
SSS
  0
POLYLINE
  5
EB
  8
SSS
 66
     1
 10
0.0
 20
0.0
 30
0.0
 70
     1
  0
VERTEX
  5
503
  8
SSS
 10
1123.924045479015
 20
850.6556309131931
 30
0.0
  0
VERTEX
  5
504
  8
SSS
 10
1223.424045479017
 20
850.6556309131931
 30
0.0
  0
VERTEX
  5
505
  8
SSS
 10
1223.424045479017
 20
856.855630913193
 30
0.0
  0
VERTEX
  5
506
  8
SSS
 10
1123.924045479015
 20
856.855630913193
 30
0.0
  0
SEQEND
  5
6C4
  8
SSS
  0
POLYLINE
  5
EC
  8
SSS
 66
     1
 10
0.0
 20
0.0
 30
0.0
 70
     1
  0
VERTEX
  5
507
  8
SSS
 10
983.6740454790158
 20
850.6556309131931
 30
0.0
  0
VERTEX
  5
508
  8
SSS
 10
1083.174045479016
 20
850.6556309131931
 30
0.0
  0
VERTEX
  5
509
  8
SSS
 10
1083.174045479016
 20
856.855630913193
 30
0.0
  0
VERTEX
  5
50A
  8
SSS
 10
983.6740454790158
 20
856.855630913193
 30
0.0
  0
SEQEND
  5
6C5
  8
SSS
  0
POLYLINE
  5
ED
  8
SSS
 66
     1
 10
0.0
 20
0.0
 30
0.0
 70
     1
  0
VERTEX
  5
50B
  8
SSS
 10
822.6740454790172
 20
850.6556309131932
 30
0.0
  0
VERTEX
  5
50C
  8
SSS
 10
896.1740454790163
 20
850.6556309131932
 30
0.0
  0
VERTEX
  5
50D
  8
SSS
 10
896.1740454790163
 20
856.8556309131928
 30
0.0
  0
VERTEX
  5
50E
  8
SSS
 10
822.6740454790172
 20
856.8556309131928
 30
0.0
  0
SEQEND
  5
6C6
  8
SSS
  0
POLYLINE
  5
EE
  8
SSS
 66
     1
 10
0.0
 20
0.0
 30
0.0
 70
     1
  0
VERTEX
  5
50F
  8
SSS
 10
793.6740454790176
 20
533.6912874889758
 30
0.0
  0
VERTEX
  5
510
  8
SSS
 10
793.6740454790176
 20
564.3762874889735
 30
0.0
  0
VERTEX
  5
511
  8
SSS
 10
805.674045479019
 20
564.3762874889736
 30
0.0
  0
VERTEX
  5
512
  8
SSS
 10
805.6740454790188
 20
582.5012874889743
 30
0.0
  0
VERTEX
  5
513
  8
SSS
 10
793.6740454790176
 20
582.5012874889744
 30
0.0
  0
VERTEX
  5
514
  8
SSS
 10
793.6740454790176
 20
600.6262874889753
 30
0.0
  0
VERTEX
  5
515
  8
SSS
 10
805.6740454790188
 20
600.6262874889755
 30
0.0
  0
VERTEX
  5
516
  8
SSS
 10
805.6740454790189
 20
636.8762874889746
 30
0.0
  0
VERTEX
  5
517
  8
SSS
 10
793.6740454790176
 20
636.8762874889746
 30
0.0
  0
VERTEX
  5
518
  8
SSS
 10
793.6740454790176
 20
655.0012874889746
 30
0.0
  0
VERTEX
  5
519
  8
SSS
 10
805.6740454790189
 20
655.0012874889746
 30
0.0
  0
VERTEX
  5
51A
  8
SSS
 10
805.6740454790187
 20
673.1262874889736
 30
0.0
  0
VERTEX
  5
51B
  8
SSS
 10
793.6740454790176
 20
673.1262874889737
 30
0.0
  0
VERTEX
  5
51C
  8
SSS
 10
793.6740454790176
 20
691.2512874889746
 30
0.0
  0
VERTEX
  5
51D
  8
SSS
 10
1553.674045479018
 20
691.2512874889746
 30
0.0
  0
VERTEX
  5
51E
  8
SSS
 10
1553.674045479018
 20
673.1262874889737
 30
0.0
  0
VERTEX
  5
51F
  8
SSS
 10
1541.674045479008
 20
673.1262874889684
 30
0.0
  0
VERTEX
  5
520
  8
SSS
 10
1541.674045479022
 20
655.0012874889762
 30
0.0
  0
VERTEX
  5
521
  8
SSS
 10
1553.674045479018
 20
655.0012874889746
 30
0.0
  0
VERTEX
  5
522
  8
SSS
 10
1553.674045479018
 20
636.8762874889746
 30
0.0
  0
VERTEX
  5
523
  8
SSS
 10
1541.674045479017
 20
636.8762874889691
 30
0.0
  0
VERTEX
  5
524
  8
SSS
 10
1541.674045479017
 20
600.6262874889698
 30
0.0
  0
VERTEX
  5
525
  8
SSS
 10
1553.674045479018
 20
600.6262874889755
 30
0.0
  0
VERTEX
  5
526
  8
SSS
 10
1553.674045479018
 20
582.5012874889746
 30
0.0
  0
VERTEX
  5
527
  8
SSS
 10
1541.67404547901
 20
582.5012874889776
 30
0.0
  0
VERTEX
  5
528
  8
SSS
 10
1541.674045479016
 20
564.3762874889704
 30
0.0
  0
VERTEX
  5
529
  8
SSS
 10
1553.674045479018
 20
564.3762874889737
 30
0.0
  0
VERTEX
  5
52A
  8
SSS
 10
1553.674045479018
 20
533.6912874889761
 30
0.0
  0
SEQEND
  5
6C7
  8
SSS
  0
POLYLINE
  5
EF
  8
SSS
 66
     1
 10
0.0
 20
0.0
 30
0.0
 70
     1
  0
VERTEX
  5
52B
  8
SSS
 10
1451.174045479018
 20
678.651287488977
 30
0.0
  0
VERTEX
  5
52C
  8
SSS
 10
1524.674045479017
 20
678.651287488977
 30
0.0
  0
VERTEX
  5
52D
  8
SSS
 10
1524.674045479017
 20
684.8512874889768
 30
0.0
  0
VERTEX
  5
52E
  8
SSS
 10
1451.174045479018
 20
684.8512874889768
 30
0.0
  0
SEQEND
  5
6C8
  8
SSS
  0
POLYLINE
  5
F0
  8
SSS
 66
     1
 10
0.0
 20
0.0
 30
0.0
 70
     1
  0
VERTEX
  5
52F
  8
SSS
 10
1264.174045479018
 20
678.651287488977
 30
0.0
  0
VERTEX
  5
530
  8
SSS
 10
1363.674045479018
 20
678.651287488977
 30
0.0
  0
VERTEX
  5
531
  8
SSS
 10
1363.674045479018
 20
684.8512874889768
 30
0.0
  0
VERTEX
  5
532
  8
SSS
 10
1264.174045479018
 20
684.8512874889768
 30
0.0
  0
SEQEND
  5
6C9
  8
SSS
  0
POLYLINE
  5
F1
  8
SSS
 66
     1
 10
0.0
 20
0.0
 30
0.0
 70
     1
  0
VERTEX
  5
533
  8
SSS
 10
1123.924045479015
 20
678.651287488977
 30
0.0
  0
VERTEX
  5
534
  8
SSS
 10
1223.424045479017
 20
678.651287488977
 30
0.0
  0
VERTEX
  5
535
  8
SSS
 10
1223.424045479017
 20
684.8512874889768
 30
0.0
  0
VERTEX
  5
536
  8
SSS
 10
1123.924045479015
 20
684.8512874889768
 30
0.0
  0
SEQEND
  5
6CA
  8
SSS
  0
POLYLINE
  5
F2
  8
SSS
 66
     1
 10
0.0
 20
0.0
 30
0.0
 70
     1
  0
VERTEX
  5
537
  8
SSS
 10
983.6740454790158
 20
678.651287488977
 30
0.0
  0
VERTEX
  5
538
  8
SSS
 10
1083.174045479016
 20
678.651287488977
 30
0.0
  0
VERTEX
  5
539
  8
SSS
 10
1083.174045479016
 20
684.8512874889768
 30
0.0
  0
VERTEX
  5
53A
  8
SSS
 10
983.6740454790158
 20
684.8512874889768
 30
0.0
  0
SEQEND
  5
6CB
  8
SSS
  0
POLYLINE
  5
F3
  8
SSS
 66
     1
 10
0.0
 20
0.0
 30
0.0
 70
     1
  0
VERTEX
  5
53B
  8
SSS
 10
822.6740454790172
 20
678.6512874889771
 30
0.0
  0
VERTEX
  5
53C
  8
SSS
 10
896.1740454790163
 20
678.6512874889771
 30
0.0
  0
VERTEX
  5
53D
  8
SSS
 10
896.1740454790163
 20
684.8512874889767
 30
0.0
  0
VERTEX
  5
53E
  8
SSS
 10
822.6740454790172
 20
684.8512874889767
 30
0.0
  0
SEQEND
  5
6CC
  8
SSS
  0
POLYLINE
  5
F4
  8
SSS
 66
     1
 10
0.0
 20
0.0
 30
0.0
 70
     1
  0
VERTEX
  5
53F
  8
SSS
 10
790.6740454790176
 20
539.2537874889695
 30
0.0
  0
VERTEX
  5
540
  8
SSS
 10
790.6740454790176
 20
546.2537874889695
 30
0.0
  0
VERTEX
  5
541
  8
SSS
 10
1556.674045479018
 20
546.2537874889697
 30
0.0
  0
VERTEX
  5
542
  8
SSS
 10
1556.674045479018
 20
539.2537874889697
 30
0.0
  0
SEQEND
  5
6CD
  8
SSS
  0
POLYLINE
  5
F5
  8
SSS
 66
     1
 10
0.0
 20
0.0
 30
0.0
 70
     1
  0
VERTEX
  5
543
  8
SSS
 10
790.6740454790176
 20
375.3937874889709
 30
0.0
  0
VERTEX
  5
544
  8
SSS
 10
790.6740454790176
 20
382.3937874889709
 30
0.0
  0
VERTEX
  5
545
  8
SSS
 10
1556.674045479018
 20
382.3937874889712
 30
0.0
  0
VERTEX
  5
546
  8
SSS
 10
1556.674045479018
 20
375.3937874889712
 30
0.0
  0
SEQEND
  5
6CE
  8
SSS
  0
POLYLINE
  5
F6
  8
SSS
 66
     1
 10
0.0
 20
0.0
 30
0.0
 70
     1
  0
VERTEX
  5
547
  8
SSS
 10
793.6740454790176
 20
369.8312874889773
 30
0.0
  0
VERTEX
  5
548
  8
SSS
 10
793.6740454790176
 20
400.516287488975
 30
0.0
  0
VERTEX
  5
549
  8
SSS
 10
805.674045479019
 20
400.5162874889751
 30
0.0
  0
VERTEX
  5
54A
  8
SSS
 10
805.6740454790188
 20
418.6412874889758
 30
0.0
  0
VERTEX
  5
54B
  8
SSS
 10
793.6740454790176
 20
418.6412874889759
 30
0.0
  0
VERTEX
  5
54C
  8
SSS
 10
793.6740454790176
 20
436.7662874889768
 30
0.0
  0
VERTEX
  5
54D
  8
SSS
 10
805.6740454790188
 20
436.766287488977
 30
0.0
  0
VERTEX
  5
54E
  8
SSS
 10
805.6740454790189
 20
473.0162874889761
 30
0.0
  0
VERTEX
  5
54F
  8
SSS
 10
793.6740454790176
 20
473.0162874889761
 30
0.0
  0
VERTEX
  5
550
  8
SSS
 10
793.6740454790176
 20
491.1412874889761
 30
0.0
  0
VERTEX
  5
551
  8
SSS
 10
805.6740454790189
 20
491.1412874889761
 30
0.0
  0
VERTEX
  5
552
  8
SSS
 10
805.6740454790187
 20
509.2662874889751
 30
0.0
  0
VERTEX
  5
553
  8
SSS
 10
793.6740454790176
 20
509.2662874889752
 30
0.0
  0
VERTEX
  5
554
  8
SSS
 10
793.6740454790176
 20
527.3912874889761
 30
0.0
  0
VERTEX
  5
555
  8
SSS
 10
1553.674045479018
 20
527.3912874889761
 30
0.0
  0
VERTEX
  5
556
  8
SSS
 10
1553.674045479018
 20
509.2662874889752
 30
0.0
  0
VERTEX
  5
557
  8
SSS
 10
1541.674045479008
 20
509.2662874889699
 30
0.0
  0
VERTEX
  5
558
  8
SSS
 10
1541.674045479022
 20
491.1412874889777
 30
0.0
  0
VERTEX
  5
559
  8
SSS
 10
1553.674045479018
 20
491.1412874889761
 30
0.0
  0
VERTEX
  5
55A
  8
SSS
 10
1553.674045479018
 20
473.0162874889761
 30
0.0
  0
VERTEX
  5
55B
  8
SSS
 10
1541.674045479017
 20
473.0162874889705
 30
0.0
  0
VERTEX
  5
55C
  8
SSS
 10
1541.674045479017
 20
436.7662874889712
 30
0.0
  0
VERTEX
  5
55D
  8
SSS
 10
1553.674045479018
 20
436.766287488977
 30
0.0
  0
VERTEX
  5
55E
  8
SSS
 10
1553.674045479018
 20
418.6412874889761
 30
0.0
  0
VERTEX
  5
55F
  8
SSS
 10
1541.67404547901
 20
418.6412874889791
 30
0.0
  0
VERTEX
  5
560
  8
SSS
 10
1541.674045479016
 20
400.5162874889719
 30
0.0
  0
VERTEX
  5
561
  8
SSS
 10
1553.674045479018
 20
400.5162874889752
 30
0.0
  0
VERTEX
  5
562
  8
SSS
 10
1553.674045479018
 20
369.8312874889775
 30
0.0
  0
SEQEND
  5
6CF
  8
SSS
  0
POLYLINE
  5
F7
  8
SSS
 66
     1
 10
0.0
 20
0.0
 30
0.0
 70
     1
  0
VERTEX
  5
563
  8
SSS
 10
1451.174045479018
 20
514.7912874889785
 30
0.0
  0
VERTEX
  5
564
  8
SSS
 10
1524.674045479017
 20
514.7912874889785
 30
0.0
  0
VERTEX
  5
565
  8
SSS
 10
1524.674045479017
 20
520.9912874889783
 30
0.0
  0
VERTEX
  5
566
  8
SSS
 10
1451.174045479018
 20
520.9912874889783
 30
0.0
  0
SEQEND
  5
6D0
  8
SSS
  0
POLYLINE
  5
F8
  8
SSS
 66
     1
 10
0.0
 20
0.0
 30
0.0
 70
     1
  0
VERTEX
  5
567
  8
SSS
 10
1264.174045479018
 20
514.7912874889785
 30
0.0
  0
VERTEX
  5
568
  8
SSS
 10
1363.674045479018
 20
514.7912874889785
 30
0.0
  0
VERTEX
  5
569
  8
SSS
 10
1363.674045479018
 20
520.9912874889783
 30
0.0
  0
VERTEX
  5
56A
  8
SSS
 10
1264.174045479018
 20
520.9912874889783
 30
0.0
  0
SEQEND
  5
6D1
  8
SSS
  0
POLYLINE
  5
F9
  8
SSS
 66
     1
 10
0.0
 20
0.0
 30
0.0
 70
     1
  0
VERTEX
  5
56B
  8
SSS
 10
1123.924045479015
 20
514.7912874889785
 30
0.0
  0
VERTEX
  5
56C
  8
SSS
 10
1223.424045479017
 20
514.7912874889785
 30
0.0
  0
VERTEX
  5
56D
  8
SSS
 10
1223.424045479017
 20
520.9912874889783
 30
0.0
  0
VERTEX
  5
56E
  8
SSS
 10
1123.924045479015
 20
520.9912874889783
 30
0.0
  0
SEQEND
  5
6D2
  8
SSS
  0
POLYLINE
  5
FA
  8
SSS
 66
     1
 10
0.0
 20
0.0
 30
0.0
 70
     1
  0
VERTEX
  5
56F
  8
SSS
 10
983.6740454790158
 20
514.7912874889785
 30
0.0
  0
VERTEX
  5
570
  8
SSS
 10
1083.174045479016
 20
514.7912874889785
 30
0.0
  0
VERTEX
  5
571
  8
SSS
 10
1083.174045479016
 20
520.9912874889783
 30
0.0
  0
VERTEX
  5
572
  8
SSS
 10
983.6740454790158
 20
520.9912874889783
 30
0.0
  0
SEQEND
  5
6D3
  8
SSS
  0
POLYLINE
  5
FB
  8
SSS
 66
     1
 10
0.0
 20
0.0
 30
0.0
 70
     1
  0
VERTEX
  5
573
  8
SSS
 10
822.6740454790172
 20
514.7912874889786
 30
0.0
  0
VERTEX
  5
574
  8
SSS
 10
896.1740454790163
 20
514.7912874889786
 30
0.0
  0
VERTEX
  5
575
  8
SSS
 10
896.1740454790163
 20
520.9912874889782
 30
0.0
  0
VERTEX
  5
576
  8
SSS
 10
822.6740454790172
 20
520.9912874889782
 30
0.0
  0
SEQEND
  5
6D4
  8
SSS
  0
POLYLINE
  5
FC
  8
SSS
 66
     1
 10
0.0
 20
0.0
 30
0.0
 70
     1
  0
VERTEX
  5
577
  8
SSS
 10
1451.174045479018
 20
342.7869440647623
 30
0.0
  0
VERTEX
  5
578
  8
SSS
 10
1524.674045479017
 20
342.7869440647623
 30
0.0
  0
VERTEX
  5
579
  8
SSS
 10
1524.674045479017
 20
348.9869440647622
 30
0.0
  0
VERTEX
  5
57A
  8
SSS
 10
1451.174045479018
 20
348.9869440647622
 30
0.0
  0
SEQEND
  5
6D5
  8
SSS
  0
POLYLINE
  5
FD
  8
SSS
 66
     1
 10
0.0
 20
0.0
 30
0.0
 70
     1
  0
VERTEX
  5
57B
  8
SSS
 10
1264.174045479018
 20
342.7869440647623
 30
0.0
  0
VERTEX
  5
57C
  8
SSS
 10
1363.674045479018
 20
342.7869440647623
 30
0.0
  0
VERTEX
  5
57D
  8
SSS
 10
1363.674045479018
 20
348.9869440647622
 30
0.0
  0
VERTEX
  5
57E
  8
SSS
 10
1264.174045479018
 20
348.9869440647622
 30
0.0
  0
SEQEND
  5
6D6
  8
SSS
  0
POLYLINE
  5
FE
  8
SSS
 66
     1
 10
0.0
 20
0.0
 30
0.0
 70
     1
  0
VERTEX
  5
57F
  8
SSS
 10
1123.924045479015
 20
342.7869440647623
 30
0.0
  0
VERTEX
  5
580
  8
SSS
 10
1223.424045479017
 20
342.7869440647623
 30
0.0
  0
VERTEX
  5
581
  8
SSS
 10
1223.424045479017
 20
348.9869440647622
 30
0.0
  0
VERTEX
  5
582
  8
SSS
 10
1123.924045479015
 20
348.9869440647622
 30
0.0
  0
SEQEND
  5
6D7
  8
SSS
  0
POLYLINE
  5
FF
  8
SSS
 66
     1
 10
0.0
 20
0.0
 30
0.0
 70
     1
  0
VERTEX
  5
583
  8
SSS
 10
983.6740454790158
 20
342.7869440647623
 30
0.0
  0
VERTEX
  5
584
  8
SSS
 10
1083.174045479016
 20
342.7869440647623
 30
0.0
  0
VERTEX
  5
585
  8
SSS
 10
1083.174045479016
 20
348.9869440647622
 30
0.0
  0
VERTEX
  5
586
  8
SSS
 10
983.6740454790158
 20
348.9869440647622
 30
0.0
  0
SEQEND
  5
6D8
  8
SSS
  0
POLYLINE
  5
100
  8
SSS
 66
     1
 10
0.0
 20
0.0
 30
0.0
 70
     1
  0
VERTEX
  5
587
  8
SSS
 10
822.6740454790172
 20
342.7869440647625
 30
0.0
  0
VERTEX
  5
588
  8
SSS
 10
896.1740454790163
 20
342.7869440647625
 30
0.0
  0
VERTEX
  5
589
  8
SSS
 10
896.1740454790163
 20
348.986944064762
 30
0.0
  0
VERTEX
  5
58A
  8
SSS
 10
822.6740454790172
 20
348.986944064762
 30
0.0
  0
SEQEND
  5
6D9
  8
SSS
  0
POLYLINE
  5
101
  8
SSS
 66
     1
 10
0.0
 20
0.0
 30
0.0
 70
     1
  0
VERTEX
  5
58B
  8
SSS
 10
790.6740454790176
 20
203.3894440647548
 30
0.0
  0
VERTEX
  5
58C
  8
SSS
 10
790.6740454790176
 20
210.3894440647548
 30
0.0
  0
VERTEX
  5
58D
  8
SSS
 10
1556.674045479018
 20
210.389444064755
 30
0.0
  0
VERTEX
  5
58E
  8
SSS
 10
1556.674045479018
 20
203.389444064755
 30
0.0
  0
SEQEND
  5
6DA
  8
SSS
  0
POLYLINE
  5
102
  8
SSS
 66
     1
 10
0.0
 20
0.0
 30
0.0
 70
     1
  0
VERTEX
  5
58F
  8
SSS
 10
793.6740454790176
 20
197.8269440647612
 30
0.0
  0
VERTEX
  5
590
  8
SSS
 10
793.6740454790176
 20
228.5119440647588
 30
0.0
  0
VERTEX
  5
591
  8
SSS
 10
805.674045479019
 20
228.5119440647589
 30
0.0
  0
VERTEX
  5
592
  8
SSS
 10
805.6740454790188
 20
246.6369440647596
 30
0.0
  0
VERTEX
  5
593
  8
SSS
 10
793.6740454790176
 20
246.6369440647597
 30
0.0
  0
VERTEX
  5
594
  8
SSS
 10
793.6740454790176
 20
264.7619440647607
 30
0.0
  0
VERTEX
  5
595
  8
SSS
 10
805.6740454790188
 20
264.7619440647609
 30
0.0
  0
VERTEX
  5
596
  8
SSS
 10
805.6740454790189
 20
301.01194406476
 30
0.0
  0
VERTEX
  5
597
  8
SSS
 10
793.6740454790176
 20
301.01194406476
 30
0.0
  0
VERTEX
  5
598
  8
SSS
 10
793.6740454790176
 20
319.13694406476
 30
0.0
  0
VERTEX
  5
599
  8
SSS
 10
805.6740454790189
 20
319.13694406476
 30
0.0
  0
VERTEX
  5
59A
  8
SSS
 10
805.6740454790187
 20
337.2619440647589
 30
0.0
  0
VERTEX
  5
59B
  8
SSS
 10
793.6740454790176
 20
337.2619440647591
 30
0.0
  0
VERTEX
  5
59C
  8
SSS
 10
793.6740454790176
 20
355.38694406476
 30
0.0
  0
VERTEX
  5
59D
  8
SSS
 10
1553.674045479018
 20
355.38694406476
 30
0.0
  0
VERTEX
  5
59E
  8
SSS
 10
1553.674045479018
 20
337.2619440647591
 30
0.0
  0
VERTEX
  5
59F
  8
SSS
 10
1541.674045479008
 20
337.2619440647537
 30
0.0
  0
VERTEX
  5
5A0
  8
SSS
 10
1541.674045479022
 20
319.1369440647616
 30
0.0
  0
VERTEX
  5
5A1
  8
SSS
 10
1553.674045479018
 20
319.13694406476
 30
0.0
  0
VERTEX
  5
5A2
  8
SSS
 10
1553.674045479018
 20
301.01194406476
 30
0.0
  0
VERTEX
  5
5A3
  8
SSS
 10
1541.674045479017
 20
301.0119440647544
 30
0.0
  0
VERTEX
  5
5A4
  8
SSS
 10
1541.674045479017
 20
264.7619440647551
 30
0.0
  0
VERTEX
  5
5A5
  8
SSS
 10
1553.674045479018
 20
264.7619440647609
 30
0.0
  0
VERTEX
  5
5A6
  8
SSS
 10
1553.674045479018
 20
246.63694406476
 30
0.0
  0
VERTEX
  5
5A7
  8
SSS
 10
1541.67404547901
 20
246.6369440647629
 30
0.0
  0
VERTEX
  5
5A8
  8
SSS
 10
1541.674045479016
 20
228.5119440647558
 30
0.0
  0
VERTEX
  5
5A9
  8
SSS
 10
1553.674045479018
 20
228.5119440647591
 30
0.0
  0
VERTEX
  5
5AA
  8
SSS
 10
1553.674045479018
 20
197.8269440647614
 30
0.0
  0
SEQEND
  5
6DB
  8
SSS
  0
POLYLINE
  5
103
  8
SSS
 66
     1
 10
0.0
 20
0.0
 30
0.0
 70
     1
  0
VERTEX
  5
5AB
  8
SSS
 10
1451.174045479018
 20
167.8297967658674
 30
0.0
  0
VERTEX
  5
5AC
  8
SSS
 10
1524.674045479017
 20
167.8297967658674
 30
0.0
  0
VERTEX
  5
5AD
  8
SSS
 10
1524.674045479017
 20
174.0297967658672
 30
0.0
  0
VERTEX
  5
5AE
  8
SSS
 10
1451.174045479018
 20
174.0297967658672
 30
0.0
  0
SEQEND
  5
6DC
  8
SSS
  0
POLYLINE
  5
104
  8
SSS
 66
     1
 10
0.0
 20
0.0
 30
0.0
 70
     1
  0
VERTEX
  5
5AF
  8
SSS
 10
1264.174045479018
 20
167.8297967658674
 30
0.0
  0
VERTEX
  5
5B0
  8
SSS
 10
1363.674045479018
 20
167.8297967658674
 30
0.0
  0
VERTEX
  5
5B1
  8
SSS
 10
1363.674045479018
 20
174.0297967658672
 30
0.0
  0
VERTEX
  5
5B2
  8
SSS
 10
1264.174045479018
 20
174.0297967658672
 30
0.0
  0
SEQEND
  5
6DD
  8
SSS
  0
POLYLINE
  5
105
  8
SSS
 66
     1
 10
0.0
 20
0.0
 30
0.0
 70
     1
  0
VERTEX
  5
5B3
  8
SSS
 10
1123.924045479015
 20
167.8297967658674
 30
0.0
  0
VERTEX
  5
5B4
  8
SSS
 10
1223.424045479017
 20
167.8297967658674
 30
0.0
  0
VERTEX
  5
5B5
  8
SSS
 10
1223.424045479017
 20
174.0297967658672
 30
0.0
  0
VERTEX
  5
5B6
  8
SSS
 10
1123.924045479015
 20
174.0297967658672
 30
0.0
  0
SEQEND
  5
6DE
  8
SSS
  0
POLYLINE
  5
106
  8
SSS
 66
     1
 10
0.0
 20
0.0
 30
0.0
 70
     1
  0
VERTEX
  5
5B7
  8
SSS
 10
983.6740454790158
 20
167.8297967658674
 30
0.0
  0
VERTEX
  5
5B8
  8
SSS
 10
1083.174045479016
 20
167.8297967658674
 30
0.0
  0
VERTEX
  5
5B9
  8
SSS
 10
1083.174045479016
 20
174.0297967658672
 30
0.0
  0
VERTEX
  5
5BA
  8
SSS
 10
983.6740454790158
 20
174.0297967658672
 30
0.0
  0
SEQEND
  5
6DF
  8
SSS
  0
POLYLINE
  5
107
  8
SSS
 66
     1
 10
0.0
 20
0.0
 30
0.0
 70
     1
  0
VERTEX
  5
5BB
  8
SSS
 10
822.6740454790172
 20
167.8297967658675
 30
0.0
  0
VERTEX
  5
5BC
  8
SSS
 10
896.1740454790163
 20
167.8297967658675
 30
0.0
  0
VERTEX
  5
5BD
  8
SSS
 10
896.1740454790163
 20
174.0297967658671
 30
0.0
  0
VERTEX
  5
5BE
  8
SSS
 10
822.6740454790172
 20
174.0297967658671
 30
0.0
  0
SEQEND
  5
6E0
  8
SSS
  0
POLYLINE
  5
108
  8
SSS
 66
     1
 10
0.0
 20
0.0
 30
0.0
 70
     1
  0
VERTEX
  5
5BF
  8
SSS
 10
790.6740454790176
 20
28.43229676585986
 30
0.0
  0
VERTEX
  5
5C0
  8
SSS
 10
790.6740454790176
 20
35.43229676585986
 30
0.0
  0
VERTEX
  5
5C1
  8
SSS
 10
1556.674045479018
 20
35.43229676586009
 30
0.0
  0
VERTEX
  5
5C2
  8
SSS
 10
1556.674045479018
 20
28.43229676586009
 30
0.0
  0
SEQEND
  5
6E1
  8
SSS
  0
POLYLINE
  5
109
  8
SSS
 66
     1
 10
0.0
 20
0.0
 30
0.0
 70
     1
  0
VERTEX
  5
5C3
  8
SSS
 10
793.6740454790176
 20
22.86979676586623
 30
0.0
  0
VERTEX
  5
5C4
  8
SSS
 10
793.6740454790176
 20
53.5547967658639
 30
0.0
  0
VERTEX
  5
5C5
  8
SSS
 10
805.674045479019
 20
53.55479676586401
 30
0.0
  0
VERTEX
  5
5C6
  8
SSS
 10
805.6740454790188
 20
71.6797967658647
 30
0.0
  0
VERTEX
  5
5C7
  8
SSS
 10
793.6740454790176
 20
71.67979676586481
 30
0.0
  0
VERTEX
  5
5C8
  8
SSS
 10
793.6740454790176
 20
89.80479676586572
 30
0.0
  0
VERTEX
  5
5C9
  8
SSS
 10
805.6740454790188
 20
89.80479676586594
 30
0.0
  0
VERTEX
  5
5CA
  8
SSS
 10
805.6740454790189
 20
126.054796765865
 30
0.0
  0
VERTEX
  5
5CB
  8
SSS
 10
793.6740454790176
 20
126.054796765865
 30
0.0
  0
VERTEX
  5
5CC
  8
SSS
 10
793.6740454790176
 20
144.179796765865
 30
0.0
  0
VERTEX
  5
5CD
  8
SSS
 10
805.6740454790189
 20
144.179796765865
 30
0.0
  0
VERTEX
  5
5CE
  8
SSS
 10
805.6740454790187
 20
162.304796765864
 30
0.0
  0
VERTEX
  5
5CF
  8
SSS
 10
793.6740454790176
 20
162.3047967658641
 30
0.0
  0
VERTEX
  5
5D0
  8
SSS
 10
793.6740454790176
 20
180.429796765865
 30
0.0
  0
VERTEX
  5
5D1
  8
SSS
 10
1553.674045479018
 20
180.429796765865
 30
0.0
  0
VERTEX
  5
5D2
  8
SSS
 10
1553.674045479018
 20
162.3047967658641
 30
0.0
  0
VERTEX
  5
5D3
  8
SSS
 10
1541.674045479008
 20
162.3047967658588
 30
0.0
  0
VERTEX
  5
5D4
  8
SSS
 10
1541.674045479022
 20
144.1797967658666
 30
0.0
  0
VERTEX
  5
5D5
  8
SSS
 10
1553.674045479018
 20
144.179796765865
 30
0.0
  0
VERTEX
  5
5D6
  8
SSS
 10
1553.674045479018
 20
126.054796765865
 30
0.0
  0
VERTEX
  5
5D7
  8
SSS
 10
1541.674045479017
 20
126.0547967658595
 30
0.0
  0
VERTEX
  5
5D8
  8
SSS
 10
1541.674045479017
 20
89.80479676586015
 30
0.0
  0
VERTEX
  5
5D9
  8
SSS
 10
1553.674045479018
 20
89.80479676586594
 30
0.0
  0
VERTEX
  5
5DA
  8
SSS
 10
1553.674045479018
 20
71.67979676586504
 30
0.0
  0
VERTEX
  5
5DB
  8
SSS
 10
1541.67404547901
 20
71.67979676586799
 30
0.0
  0
VERTEX
  5
5DC
  8
SSS
 10
1541.674045479016
 20
53.55479676586083
 30
0.0
  0
VERTEX
  5
5DD
  8
SSS
 10
1553.674045479018
 20
53.55479676586413
 30
0.0
  0
VERTEX
  5
5DE
  8
SSS
 10
1553.674045479018
 20
22.86979676586645
 30
0.0
  0
SEQEND
  5
6E2
  8
SSS
  0
POLYLINE
  5
10A
  8
SSS
 66
     1
 10
0.0
 20
0.0
 30
0.0
 70
     1
  0
VERTEX
  5
5DF
  8
SSS
 10
2224.899887205636
 20
167.8297967658672
 30
0.0
  0
VERTEX
  5
5E0
  8
SSS
 10
2298.399887205635
 20
167.8297967658672
 30
0.0
  0
VERTEX
  5
5E1
  8
SSS
 10
2298.399887205635
 20
174.029796765867
 30
0.0
  0
VERTEX
  5
5E2
  8
SSS
 10
2224.899887205636
 20
174.029796765867
 30
0.0
  0
SEQEND
  5
6E3
  8
SSS
  0
POLYLINE
  5
10B
  8
SSS
 66
     1
 10
0.0
 20
0.0
 30
0.0
 70
     1
  0
VERTEX
  5
5E3
  8
SSS
 10
2037.899887205637
 20
167.8297967658672
 30
0.0
  0
VERTEX
  5
5E4
  8
SSS
 10
2137.399887205636
 20
167.8297967658672
 30
0.0
  0
VERTEX
  5
5E5
  8
SSS
 10
2137.399887205636
 20
174.029796765867
 30
0.0
  0
VERTEX
  5
5E6
  8
SSS
 10
2037.899887205637
 20
174.029796765867
 30
0.0
  0
SEQEND
  5
6E4
  8
SSS
  0
POLYLINE
  5
10C
  8
SSS
 66
     1
 10
0.0
 20
0.0
 30
0.0
 70
     1
  0
VERTEX
  5
5E7
  8
SSS
 10
1897.649887205634
 20
167.8297967658672
 30
0.0
  0
VERTEX
  5
5E8
  8
SSS
 10
1997.149887205636
 20
167.8297967658672
 30
0.0
  0
VERTEX
  5
5E9
  8
SSS
 10
1997.149887205636
 20
174.029796765867
 30
0.0
  0
VERTEX
  5
5EA
  8
SSS
 10
1897.649887205634
 20
174.029796765867
 30
0.0
  0
SEQEND
  5
6E5
  8
SSS
  0
POLYLINE
  5
10D
  8
SSS
 66
     1
 10
0.0
 20
0.0
 30
0.0
 70
     1
  0
VERTEX
  5
5EB
  8
SSS
 10
1757.399887205634
 20
167.8297967658672
 30
0.0
  0
VERTEX
  5
5EC
  8
SSS
 10
1856.899887205635
 20
167.8297967658672
 30
0.0
  0
VERTEX
  5
5ED
  8
SSS
 10
1856.899887205635
 20
174.029796765867
 30
0.0
  0
VERTEX
  5
5EE
  8
SSS
 10
1757.399887205634
 20
174.029796765867
 30
0.0
  0
SEQEND
  5
6E6
  8
SSS
  0
POLYLINE
  5
10E
  8
SSS
 66
     1
 10
0.0
 20
0.0
 30
0.0
 70
     1
  0
VERTEX
  5
5EF
  8
SSS
 10
1596.399887205636
 20
167.8297967658673
 30
0.0
  0
VERTEX
  5
5F0
  8
SSS
 10
1669.899887205635
 20
167.8297967658673
 30
0.0
  0
VERTEX
  5
5F1
  8
SSS
 10
1669.899887205635
 20
174.0297967658669
 30
0.0
  0
VERTEX
  5
5F2
  8
SSS
 10
1596.399887205636
 20
174.0297967658669
 30
0.0
  0
SEQEND
  5
6E7
  8
SSS
  0
POLYLINE
  5
10F
  8
SSS
 66
     1
 10
0.0
 20
0.0
 30
0.0
 70
     1
  0
VERTEX
  5
5F3
  8
SSS
 10
1564.399887205636
 20
28.43229676585963
 30
0.0
  0
VERTEX
  5
5F4
  8
SSS
 10
1564.399887205636
 20
35.43229676585963
 30
0.0
  0
VERTEX
  5
5F5
  8
SSS
 10
2330.399887205636
 20
35.43229676585986
 30
0.0
  0
VERTEX
  5
5F6
  8
SSS
 10
2330.399887205636
 20
28.43229676585986
 30
0.0
  0
SEQEND
  5
6E8
  8
SSS
  0
POLYLINE
  5
110
  8
SSS
 66
     1
 10
0.0
 20
0.0
 30
0.0
 70
     1
  0
VERTEX
  5
5F7
  8
SSS
 10
1567.399887205636
 20
22.869796765866
 30
0.0
  0
VERTEX
  5
5F8
  8
SSS
 10
1567.399887205636
 20
53.55479676586367
 30
0.0
  0
VERTEX
  5
5F9
  8
SSS
 10
1579.399887205637
 20
53.55479676586378
 30
0.0
  0
VERTEX
  5
5FA
  8
SSS
 10
1579.399887205637
 20
71.67979676586447
 30
0.0
  0
VERTEX
  5
5FB
  8
SSS
 10
1567.399887205636
 20
71.67979676586458
 30
0.0
  0
VERTEX
  5
5FC
  8
SSS
 10
1567.399887205636
 20
89.80479676586549
 30
0.0
  0
VERTEX
  5
5FD
  8
SSS
 10
1579.399887205637
 20
89.80479676586572
 30
0.0
  0
VERTEX
  5
5FE
  8
SSS
 10
1579.399887205637
 20
126.0547967658648
 30
0.0
  0
VERTEX
  5
5FF
  8
SSS
 10
1567.399887205636
 20
126.0547967658648
 30
0.0
  0
VERTEX
  5
600
  8
SSS
 10
1567.399887205636
 20
144.1797967658648
 30
0.0
  0
VERTEX
  5
601
  8
SSS
 10
1579.399887205637
 20
144.1797967658648
 30
0.0
  0
VERTEX
  5
602
  8
SSS
 10
1579.399887205637
 20
162.3047967658638
 30
0.0
  0
VERTEX
  5
603
  8
SSS
 10
1567.399887205636
 20
162.3047967658639
 30
0.0
  0
VERTEX
  5
604
  8
SSS
 10
1567.399887205636
 20
180.4297967658648
 30
0.0
  0
VERTEX
  5
605
  8
SSS
 10
2327.399887205636
 20
180.4297967658648
 30
0.0
  0
VERTEX
  5
606
  8
SSS
 10
2327.399887205636
 20
162.3047967658639
 30
0.0
  0
VERTEX
  5
607
  8
SSS
 10
2315.399887205627
 20
162.3047967658586
 30
0.0
  0
VERTEX
  5
608
  8
SSS
 10
2315.39988720564
 20
144.1797967658664
 30
0.0
  0
VERTEX
  5
609
  8
SSS
 10
2327.399887205636
 20
144.1797967658648
 30
0.0
  0
VERTEX
  5
60A
  8
SSS
 10
2327.399887205636
 20
126.0547967658648
 30
0.0
  0
VERTEX
  5
60B
  8
SSS
 10
2315.399887205635
 20
126.0547967658592
 30
0.0
  0
VERTEX
  5
60C
  8
SSS
 10
2315.399887205635
 20
89.80479676585992
 30
0.0
  0
VERTEX
  5
60D
  8
SSS
 10
2327.399887205636
 20
89.80479676586572
 30
0.0
  0
VERTEX
  5
60E
  8
SSS
 10
2327.399887205636
 20
71.67979676586481
 30
0.0
  0
VERTEX
  5
60F
  8
SSS
 10
2315.399887205628
 20
71.67979676586776
 30
0.0
  0
VERTEX
  5
610
  8
SSS
 10
2315.399887205635
 20
53.5547967658606
 30
0.0
  0
VERTEX
  5
611
  8
SSS
 10
2327.399887205636
 20
53.5547967658639
 30
0.0
  0
VERTEX
  5
612
  8
SSS
 10
2327.399887205636
 20
22.86979676586623
 30
0.0
  0
SEQEND
  5
6E9
  8
SSS
  0
POLYLINE
  5
111
  8
SSS
 66
     1
 10
0.0
 20
0.0
 30
0.0
 70
     1
  0
VERTEX
  5
613
  8
SSS
 10
2354.609695834728
 20
301.6085092764073
 30
0.0
  0
VERTEX
  5
614
  8
SSS
 10
2354.609695834728
 20
228.1085092764082
 30
0.0
  0
VERTEX
  5
615
  8
SSS
 10
2360.809695834728
 20
228.1085092764082
 30
0.0
  0
VERTEX
  5
616
  8
SSS
 10
2360.809695834728
 20
301.6085092764073
 30
0.0
  0
SEQEND
  5
6EA
  8
SSS
  0
POLYLINE
  5
112
  8
SSS
 66
     1
 10
0.0
 20
0.0
 30
0.0
 70
     1
  0
VERTEX
  5
617
  8
SSS
 10
2354.609695834728
 20
488.6085092764071
 30
0.0
  0
VERTEX
  5
618
  8
SSS
 10
2354.609695834728
 20
389.1085092764073
 30
0.0
  0
VERTEX
  5
619
  8
SSS
 10
2360.809695834728
 20
389.1085092764073
 30
0.0
  0
VERTEX
  5
61A
  8
SSS
 10
2360.809695834728
 20
488.6085092764071
 30
0.0
  0
SEQEND
  5
6EB
  8
SSS
  0
POLYLINE
  5
113
  8
SSS
 66
     1
 10
0.0
 20
0.0
 30
0.0
 70
     1
  0
VERTEX
  5
61B
  8
SSS
 10
2354.609695834728
 20
628.8585092764098
 30
0.0
  0
VERTEX
  5
61C
  8
SSS
 10
2354.609695834728
 20
529.358509276408
 30
0.0
  0
VERTEX
  5
61D
  8
SSS
 10
2360.809695834728
 20
529.358509276408
 30
0.0
  0
VERTEX
  5
61E
  8
SSS
 10
2360.809695834728
 20
628.8585092764098
 30
0.0
  0
SEQEND
  5
6EC
  8
SSS
  0
POLYLINE
  5
114
  8
SSS
 66
     1
 10
0.0
 20
0.0
 30
0.0
 70
     1
  0
VERTEX
  5
61F
  8
SSS
 10
2354.609695834728
 20
769.1085092764093
 30
0.0
  0
VERTEX
  5
620
  8
SSS
 10
2354.609695834728
 20
669.6085092764089
 30
0.0
  0
VERTEX
  5
621
  8
SSS
 10
2360.809695834728
 20
669.6085092764089
 30
0.0
  0
VERTEX
  5
622
  8
SSS
 10
2360.809695834728
 20
769.1085092764093
 30
0.0
  0
SEQEND
  5
6ED
  8
SSS
  0
POLYLINE
  5
115
  8
SSS
 66
     1
 10
0.0
 20
0.0
 30
0.0
 70
     1
  0
VERTEX
  5
623
  8
SSS
 10
2354.609695834729
 20
930.108509276408
 30
0.0
  0
VERTEX
  5
624
  8
SSS
 10
2354.609695834729
 20
856.6085092764089
 30
0.0
  0
VERTEX
  5
625
  8
SSS
 10
2360.809695834728
 20
856.6085092764089
 30
0.0
  0
VERTEX
  5
626
  8
SSS
 10
2360.809695834728
 20
930.108509276408
 30
0.0
  0
SEQEND
  5
6EE
  8
SSS
  0
POLYLINE
  5
116
  8
SSS
 66
     1
 10
0.0
 20
0.0
 30
0.0
 70
     1
  0
VERTEX
  5
627
  8
SSS
 10
2215.212195834721
 20
962.1085092764075
 30
0.0
  0
VERTEX
  5
628
  8
SSS
 10
2222.212195834721
 20
962.1085092764075
 30
0.0
  0
VERTEX
  5
629
  8
SSS
 10
2222.212195834721
 20
196.1085092764073
 30
0.0
  0
VERTEX
  5
62A
  8
SSS
 10
2215.212195834721
 20
196.1085092764073
 30
0.0
  0
SEQEND
  5
6EF
  8
SSS
  0
POLYLINE
  5
117
  8
SSS
 66
     1
 10
0.0
 20
0.0
 30
0.0
 70
     1
  0
VERTEX
  5
62B
  8
SSS
 10
2209.649695834727
 20
959.1085092764075
 30
0.0
  0
VERTEX
  5
62C
  8
SSS
 10
2240.334695834725
 20
959.1085092764075
 30
0.0
  0
VERTEX
  5
62D
  8
SSS
 10
2240.334695834725
 20
947.1085092764062
 30
0.0
  0
VERTEX
  5
62E
  8
SSS
 10
2258.459695834726
 20
947.1085092764064
 30
0.0
  0
VERTEX
  5
62F
  8
SSS
 10
2258.459695834726
 20
959.1085092764075
 30
0.0
  0
VERTEX
  5
630
  8
SSS
 10
2276.584695834727
 20
959.1085092764075
 30
0.0
  0
VERTEX
  5
631
  8
SSS
 10
2276.584695834727
 20
947.1085092764064
 30
0.0
  0
VERTEX
  5
632
  8
SSS
 10
2312.834695834726
 20
947.1085092764064
 30
0.0
  0
VERTEX
  5
633
  8
SSS
 10
2312.834695834726
 20
959.1085092764075
 30
0.0
  0
VERTEX
  5
634
  8
SSS
 10
2330.959695834726
 20
959.1085092764075
 30
0.0
  0
VERTEX
  5
635
  8
SSS
 10
2330.959695834726
 20
947.1085092764064
 30
0.0
  0
VERTEX
  5
636
  8
SSS
 10
2349.084695834725
 20
947.1085092764064
 30
0.0
  0
VERTEX
  5
637
  8
SSS
 10
2349.084695834725
 20
959.1085092764075
 30
0.0
  0
VERTEX
  5
638
  8
SSS
 10
2367.209695834726
 20
959.1085092764075
 30
0.0
  0
VERTEX
  5
639
  8
SSS
 10
2367.209695834726
 20
199.1085092764073
 30
0.0
  0
VERTEX
  5
63A
  8
SSS
 10
2349.084695834725
 20
199.1085092764073
 30
0.0
  0
VERTEX
  5
63B
  8
SSS
 10
2349.08469583472
 20
211.1085092764168
 30
0.0
  0
VERTEX
  5
63C
  8
SSS
 10
2330.959695834727
 20
211.1085092764037
 30
0.0
  0
VERTEX
  5
63D
  8
SSS
 10
2330.959695834726
 20
199.1085092764073
 30
0.0
  0
VERTEX
  5
63E
  8
SSS
 10
2312.834695834726
 20
199.1085092764073
 30
0.0
  0
VERTEX
  5
63F
  8
SSS
 10
2312.83469583472
 20
211.1085092764082
 30
0.0
  0
VERTEX
  5
640
  8
SSS
 10
2276.584695834721
 20
211.1085092764082
 30
0.0
  0
VERTEX
  5
641
  8
SSS
 10
2276.584695834727
 20
199.1085092764073
 30
0.0
  0
VERTEX
  5
642
  8
SSS
 10
2258.459695834726
 20
199.1085092764073
 30
0.0
  0
VERTEX
  5
643
  8
SSS
 10
2258.459695834729
 20
211.1085092764155
 30
0.0
  0
VERTEX
  5
644
  8
SSS
 10
2240.334695834722
 20
211.1085092764091
 30
0.0
  0
VERTEX
  5
645
  8
SSS
 10
2240.334695834725
 20
199.1085092764073
 30
0.0
  0
VERTEX
  5
646
  8
SSS
 10
2209.649695834727
 20
199.1085092764073
 30
0.0
  0
SEQEND
  5
6F0
  8
SSS
  0
ENDSEC
  0
EOF
