  0
SECTION
  2
HEADER
  9
$ACADVER
  1
AC1009
  9
$DWGCODEPAGE
  3
ansi_1252
  9
$INSBASE
 10
0.0
 20
0.0
 30
0.0
  9
$EXTMIN
 10
21.49349655013092
 20
19.06740677653681
 30
0.0
  9
$EXTMAX
 10
2228.567619516881
 20
1179.067406776537
 30
0.0
  9
$LIMMIN
 10
0.0
 20
0.0
  9
$LIMMAX
 10
12.0
 20
9.0
  9
$ORTHOMODE
 70
     0
  9
$REGENMODE
 70
     1
  9
$FILLMODE
 70
     1
  9
$QTEXTMODE
 70
     0
  9
$MIRRTEXT
 70
     1
  9
$DRAGMODE
 70
     2
  9
$LTSCALE
 40
1.0
  9
$OSMODE
 70
    37
  9
$ATTMODE
 70
     1
  9
$TEXTSIZE
 40
0.2
  9
$TRACEWID
 40
0.05
  9
$TEXTSTYLE
  7
STANDARD
  9
$CLAYER
  8
0
  9
$CELTYPE
  6
BYLAYER
  9
$CECOLOR
 62
   256
  9
$DIMSCALE
 40
1.0
  9
$DIMASZ
 40
0.18
  9
$DIMEXO
 40
0.0625
  9
$DIMDLI
 40
0.38
  9
$DIMRND
 40
0.0
  9
$DIMDLE
 40
0.0
  9
$DIMEXE
 40
0.18
  9
$DIMTP
 40
0.0
  9
$DIMTM
 40
0.0
  9
$DIMTXT
 40
0.18
  9
$DIMCEN
 40
0.09
  9
$DIMTSZ
 40
0.0
  9
$DIMTOL
 70
     0
  9
$DIMLIM
 70
     0
  9
$DIMTIH
 70
     1
  9
$DIMTOH
 70
     1
  9
$DIMSE1
 70
     0
  9
$DIMSE2
 70
     0
  9
$DIMTAD
 70
     0
  9
$DIMZIN
 70
     0
  9
$DIMBLK
  1

  9
$DIMASO
 70
     1
  9
$DIMSHO
 70
     1
  9
$DIMPOST
  1

  9
$DIMAPOST
  1

  9
$DIMALT
 70
     0
  9
$DIMALTD
 70
     2
  9
$DIMALTF
 40
25.4
  9
$DIMLFAC
 40
1.0
  9
$DIMTOFL
 70
     0
  9
$DIMTVP
 40
0.0
  9
$DIMTIX
 70
     0
  9
$DIMSOXD
 70
     0
  9
$DIMSAH
 70
     0
  9
$DIMBLK1
  1

  9
$DIMBLK2
  1

  9
$DIMSTYLE
  2
STANDARD
  9
$DIMCLRD
 70
     0
  9
$DIMCLRE
 70
     0
  9
$DIMCLRT
 70
     0
  9
$DIMTFAC
 40
1.0
  9
$DIMGAP
 40
0.09
  9
$LUNITS
 70
     2
  9
$LUPREC
 70
     4
  9
$SKETCHINC
 40
0.1
  9
$FILLETRAD
 40
0.5
  9
$AUNITS
 70
     0
  9
$AUPREC
 70
     0
  9
$MENU
  1
.
  9
$ELEVATION
 40
0.0
  9
$PELEVATION
 40
0.0
  9
$THICKNESS
 40
0.0
  9
$LIMCHECK
 70
     0
  9
$CHAMFERA
 40
0.0
  9
$CHAMFERB
 40
0.0
  9
$SKPOLY
 70
     0
  9
$TDCREATE
 40
2454910.5
  9
$TDUPDATE
 40
2457410.798781111
  9
$TDINDWG
 40
0.0000000116
  9
$TDUSRTIMER
 40
0.0000000116
  9
$USRTIMER
 70
     1
  9
$ANGBASE
 50
0.0
  9
$ANGDIR
 70
     0
  9
$PDMODE
 70
     0
  9
$PDSIZE
 40
0.0
  9
$PLINEWID
 40
0.0
  9
$COORDS
 70
     1
  9
$SPLFRAME
 70
     0
  9
$SPLINETYPE
 70
     6
  9
$SPLINESEGS
 70
     8
  9
$ATTDIA
 70
     0
  9
$ATTREQ
 70
     1
  9
$HANDLING
 70
     1
  9
$HANDSEED
  5
1BF
  9
$SURFTAB1
 70
     6
  9
$SURFTAB2
 70
     6
  9
$SURFTYPE
 70
     6
  9
$SURFU
 70
     6
  9
$SURFV
 70
     6
  9
$UCSNAME
  2

  9
$UCSORG
 10
0.0
 20
0.0
 30
0.0
  9
$UCSXDIR
 10
1.0
 20
0.0
 30
0.0
  9
$UCSYDIR
 10
0.0
 20
1.0
 30
0.0
  9
$PUCSNAME
  2

  9
$PUCSORG
 10
0.0
 20
0.0
 30
0.0
  9
$PUCSXDIR
 10
1.0
 20
0.0
 30
0.0
  9
$PUCSYDIR
 10
0.0
 20
1.0
 30
0.0
  9
$USERI1
 70
     0
  9
$USERI2
 70
     0
  9
$USERI3
 70
     0
  9
$USERI4
 70
     0
  9
$USERI5
 70
     0
  9
$USERR1
 40
0.0
  9
$USERR2
 40
0.0
  9
$USERR3
 40
0.0
  9
$USERR4
 40
0.0
  9
$USERR5
 40
0.0
  9
$WORLDVIEW
 70
     1
  9
$SHADEDGE
 70
     3
  9
$SHADEDIF
 70
    70
  9
$TILEMODE
 70
     1
  9
$MAXACTVP
 70
    64
  9
$PLIMCHECK
 70
     0
  9
$PEXTMIN
 10
1.000000000000000E+20
 20
1.000000000000000E+20
 30
1.000000000000000E+20
  9
$PEXTMAX
 10
-1.000000000000000E+20
 20
-1.000000000000000E+20
 30
-1.000000000000000E+20
  9
$PLIMMIN
 10
0.0
 20
0.0
  9
$PLIMMAX
 10
12.0
 20
9.0
  9
$UNITMODE
 70
     0
  9
$VISRETAIN
 70
     1
  9
$PLINEGEN
 70
     0
  9
$PSLTSCALE
 70
     1
  0
ENDSEC
  0
SECTION
  2
TABLES
  0
TABLE
  2
VPORT
 70
     1
  0
VPORT
  2
*ACTIVE
 70
     0
 10
0.0
 20
0.0
 11
1.0
 21
1.0
 12
10.42990654205607
 22
4.5
 13
0.0
 23
0.0
 14
0.5
 24
0.5
 15
0.5
 25
0.5
 16
0.0
 26
0.0
 36
1.0
 17
0.0
 27
0.0
 37
0.0
 40
9.0
 41
1.972972972850329
 42
50.0
 43
0.0
 44
0.0
 50
0.0
 51
0.0
 71
     0
 72
   100
 73
     1
 74
     3
 75
     0
 76
     0
 77
     0
 78
     0
  0
ENDTAB
  0
TABLE
  2
LTYPE
 70
     2
  0
LTYPE
  2
CONTINUOUS
 70
     0
  3
Solid line
 72
    65
 73
     0
 40
0.0
  0
LTYPE
  2
CONTINUOUS2
 70
     0
  3
Solid Line
 72
    65
 73
     0
 40
0.0
  0
ENDTAB
  0
TABLE
  2
LAYER
 70
     2
  0
LAYER
  2
0
 70
     0
 62
     7
  6
CONTINUOUS
  0
LAYER
  2
LAYER0
 70
     0
 62
    18
  6
CONTINUOUS
  0
ENDTAB
  0
TABLE
  2
STYLE
 70
     1
  0
STYLE
  2
STANDARD
 70
     0
 40
0.0
 41
1.0
 50
0.0
 71
     0
 42
0.2
  3
txt
  4

  0
ENDTAB
  0
TABLE
  2
VIEW
 70
     0
  0
ENDTAB
  0
TABLE
  2
UCS
 70
     0
  0
ENDTAB
  0
TABLE
  2
APPID
 70
     1
  0
APPID
  2
ACAD
 70
     0
  0
ENDTAB
  0
TABLE
  2
DIMSTYLE
 70
     1
  0
DIMSTYLE
  2
STANDARD
 70
     0
  3

  4

  5

  6

  7

 40
1.0
 41
0.18
 42
0.0625
 43
0.38
 44
0.18
 45
0.0
 46
0.0
 47
0.0
 48
0.0
140
0.18
141
0.09
142
0.0
143
25.4
144
1.0
145
0.0
146
1.0
147
0.09
 71
     0
 72
     0
 73
     1
 74
     1
 75
     0
 76
     0
 77
     0
 78
     0
170
     0
171
     2
172
     0
173
     0
174
     0
175
     0
176
     0
177
     0
178
     0
  0
ENDTAB
  0
ENDSEC
  0
SECTION
  2
BLOCKS
  0
BLOCK
  8
0
  2
$MODEL_SPACE
 70
     0
 10
0.0
 20
0.0
 30
0.0
  3
$MODEL_SPACE
  1

  0
ENDBLK
  5
21
  8
0
  0
BLOCK
 67
     1
  8
0
  2
$PAPER_SPACE
 70
     0
 10
0.0
 20
0.0
 30
0.0
  3
$PAPER_SPACE
  1

  0
ENDBLK
  5
1D
 67
     1
  8
0
  0
ENDSEC
  0
SECTION
  2
ENTITIES
  0
POLYLINE
  5
70
  8
LAYER0
 66
     1
 10
0.0
 20
0.0
 30
0.0
 70
     1
  0
VERTEX
  5
88
  8
LAYER0
 10
2228.567619516881
 20
1070.048482270991
 30
0.0
  0
VERTEX
  5
89
  8
LAYER0
 10
2214.810260204
 20
1070.048482270991
 30
0.0
 42
-1.0
  0
VERTEX
  5
8A
  8
LAYER0
 10
2210.567619516881
 20
1074.29112295811
 30
0.0
  0
VERTEX
  5
8B
  8
LAYER0
 10
2210.567619516881
 20
1170.048482270991
 30
0.0
  0
VERTEX
  5
8C
  8
LAYER0
 10
1666.567619516881
 20
1170.048482270991
 30
0.0
  0
VERTEX
  5
8D
  8
LAYER0
 10
1666.567619516881
 20
1074.29112295811
 30
0.0
 42
-1.0
  0
VERTEX
  5
8E
  8
LAYER0
 10
1662.324978829762
 20
1070.048482270991
 30
0.0
  0
VERTEX
  5
8F
  8
LAYER0
 10
1648.567619516881
 20
1070.048482270991
 30
0.0
  0
VERTEX
  5
90
  8
LAYER0
 10
1648.567619516881
 20
970.0484822709907
 30
0.0
  0
VERTEX
  5
91
  8
LAYER0
 10
1662.324978829762
 20
970.0484822709907
 30
0.0
 42
-1.0
  0
VERTEX
  5
92
  8
LAYER0
 10
1666.567619516881
 20
965.8058415838714
 30
0.0
  0
VERTEX
  5
93
  8
LAYER0
 10
1666.567619516881
 20
824.2911229581105
 30
0.0
 42
-1.0
  0
VERTEX
  5
94
  8
LAYER0
 10
1662.324978829762
 20
820.0484822709911
 30
0.0
  0
VERTEX
  5
95
  8
LAYER0
 10
1648.567619516881
 20
820.0484822709911
 30
0.0
  0
VERTEX
  5
96
  8
LAYER0
 10
1648.567619516881
 20
720.0484822709907
 30
0.0
  0
VERTEX
  5
97
  8
LAYER0
 10
1662.324978829762
 20
720.0484822709907
 30
0.0
 42
-1.0
  0
VERTEX
  5
98
  8
LAYER0
 10
1666.567619516881
 20
715.8058415838714
 30
0.0
  0
VERTEX
  5
99
  8
LAYER0
 10
1666.567619516881
 20
574.29112295811
 30
0.0
 42
-1.0
  0
VERTEX
  5
9A
  8
LAYER0
 10
1662.324978829762
 20
570.0484822709907
 30
0.0
  0
VERTEX
  5
9B
  8
LAYER0
 10
1648.567619516881
 20
570.0484822709907
 30
0.0
  0
VERTEX
  5
9C
  8
LAYER0
 10
1648.567619516881
 20
470.0484822709907
 30
0.0
  0
VERTEX
  5
9D
  8
LAYER0
 10
1662.324978829762
 20
470.0484822709907
 30
0.0
 42
-1.0
  0
VERTEX
  5
9E
  8
LAYER0
 10
1666.567619516881
 20
465.8058415838714
 30
0.0
  0
VERTEX
  5
9F
  8
LAYER0
 10
1666.567619516881
 20
370.0484822709907
 30
0.0
  0
VERTEX
  5
A0
  8
LAYER0
 10
2210.567619516881
 20
370.0484822709907
 30
0.0
  0
VERTEX
  5
A1
  8
LAYER0
 10
2210.567619516881
 20
465.8058415838714
 30
0.0
 42
-1.0
  0
VERTEX
  5
A2
  8
LAYER0
 10
2214.810260204
 20
470.0484822709907
 30
0.0
  0
VERTEX
  5
A3
  8
LAYER0
 10
2228.567619516881
 20
470.0484822709907
 30
0.0
  0
VERTEX
  5
A4
  8
LAYER0
 10
2228.567619516881
 20
570.0484822709907
 30
0.0
  0
VERTEX
  5
A5
  8
LAYER0
 10
2214.810260204
 20
570.0484822709907
 30
0.0
 42
-1.0
  0
VERTEX
  5
A6
  8
LAYER0
 10
2210.567619516881
 20
574.29112295811
 30
0.0
  0
VERTEX
  5
A7
  8
LAYER0
 10
2210.567619516881
 20
715.8058415838714
 30
0.0
 42
-1.0
  0
VERTEX
  5
A8
  8
LAYER0
 10
2214.810260204
 20
720.0484822709907
 30
0.0
  0
VERTEX
  5
A9
  8
LAYER0
 10
2228.567619516881
 20
720.0484822709907
 30
0.0
  0
VERTEX
  5
AA
  8
LAYER0
 10
2228.567619516881
 20
820.0484822709911
 30
0.0
  0
VERTEX
  5
AB
  8
LAYER0
 10
2214.810260204
 20
820.0484822709911
 30
0.0
 42
-1.0
  0
VERTEX
  5
AC
  8
LAYER0
 10
2210.567619516881
 20
824.2911229581105
 30
0.0
  0
VERTEX
  5
AD
  8
LAYER0
 10
2210.567619516881
 20
965.8058415838714
 30
0.0
 42
-1.0
  0
VERTEX
  5
AE
  8
LAYER0
 10
2214.810260204
 20
970.0484822709907
 30
0.0
  0
VERTEX
  5
AF
  8
LAYER0
 10
2228.567619516881
 20
970.0484822709907
 30
0.0
  0
SEQEND
  5
1AE
  8
LAYER0
  0
POLYLINE
  5
71
  8
LAYER0
 66
     1
 10
0.0
 20
0.0
 30
0.0
 70
     1
  0
VERTEX
  5
B0
  8
LAYER0
 10
26.61473286964985
 20
1049.817406776536
 30
0.0
  0
VERTEX
  5
B1
  8
LAYER0
 10
818.1294514954112
 20
1049.817406776536
 30
0.0
 42
-1.0
  0
VERTEX
  5
B2
  8
LAYER0
 10
822.3720921825305
 20
1045.574766089417
 30
0.0
  0
VERTEX
  5
B3
  8
LAYER0
 10
822.3720921825305
 20
1039.060047463656
 30
0.0
 42
-1.0
  0
VERTEX
  5
B4
  8
LAYER0
 10
818.1294514954112
 20
1034.817406776536
 30
0.0
  0
VERTEX
  5
B5
  8
LAYER0
 10
26.61473286964985
 20
1034.817406776536
 30
0.0
 42
-1.0
  0
VERTEX
  5
B6
  8
LAYER0
 10
22.37209218253057
 20
1039.060047463656
 30
0.0
  0
VERTEX
  5
B7
  8
LAYER0
 10
22.37209218253057
 20
1045.574766089417
 30
0.0
 42
-1.0
  0
SEQEND
  5
1AF
  8
LAYER0
  0
POLYLINE
  5
72
  8
LAYER0
 66
     1
 10
0.0
 20
0.0
 30
0.0
 70
     1
  0
VERTEX
  5
B8
  8
LAYER0
 10
818.1294514954112
 20
887.0674067765361
 30
0.0
  0
VERTEX
  5
B9
  8
LAYER0
 10
26.61473286964985
 20
887.0674067765361
 30
0.0
 42
-1.0
  0
VERTEX
  5
BA
  8
LAYER0
 10
22.37209218253057
 20
891.3100474636555
 30
0.0
  0
VERTEX
  5
BB
  8
LAYER0
 10
22.37209218253057
 20
897.824766089417
 30
0.0
 42
-1.0
  0
VERTEX
  5
BC
  8
LAYER0
 10
26.61473286964985
 20
902.0674067765364
 30
0.0
  0
VERTEX
  5
BD
  8
LAYER0
 10
818.1294514954112
 20
902.0674067765364
 30
0.0
 42
-1.0
  0
VERTEX
  5
BE
  8
LAYER0
 10
822.3720921825305
 20
897.824766089417
 30
0.0
  0
VERTEX
  5
BF
  8
LAYER0
 10
822.3720921825305
 20
891.3100474636555
 30
0.0
 42
-1.0
  0
SEQEND
  5
1B0
  8
LAYER0
  0
POLYLINE
  5
73
  8
LAYER0
 66
     1
 10
0.0
 20
0.0
 30
0.0
 70
     1
  0
VERTEX
  5
C0
  8
LAYER0
 10
26.61473286964985
 20
754.3174067765364
 30
0.0
  0
VERTEX
  5
C1
  8
LAYER0
 10
818.1294514954105
 20
754.3174067765364
 30
0.0
 42
-1.0
  0
VERTEX
  5
C2
  8
LAYER0
 10
822.3720921825299
 20
750.074766089417
 30
0.0
  0
VERTEX
  5
C3
  8
LAYER0
 10
822.3720921825299
 20
743.5600474636555
 30
0.0
 42
-1.0
  0
VERTEX
  5
C4
  8
LAYER0
 10
818.1294514954105
 20
739.3174067765361
 30
0.0
  0
VERTEX
  5
C5
  8
LAYER0
 10
26.61473286964985
 20
739.3174067765361
 30
0.0
 42
-1.0
  0
VERTEX
  5
C6
  8
LAYER0
 10
22.37209218253057
 20
743.5600474636555
 30
0.0
  0
VERTEX
  5
C7
  8
LAYER0
 10
22.37209218253057
 20
750.074766089417
 30
0.0
 42
-1.0
  0
SEQEND
  5
1B1
  8
LAYER0
  0
POLYLINE
  5
74
  8
LAYER0
 66
     1
 10
0.0
 20
0.0
 30
0.0
 70
     1
  0
VERTEX
  5
C8
  8
LAYER0
 10
822.3720921825312
 20
591.5674067765366
 30
0.0
  0
VERTEX
  5
C9
  8
LAYER0
 10
26.61473286964985
 20
591.5674067765366
 30
0.0
 42
-1.0
  0
VERTEX
  5
CA
  8
LAYER0
 10
22.37209218253057
 20
595.8100474636559
 30
0.0
  0
VERTEX
  5
CB
  8
LAYER0
 10
22.37209218253057
 20
602.3247660894175
 30
0.0
 42
-1.0
  0
VERTEX
  5
CC
  8
LAYER0
 10
26.61473286964985
 20
606.5674067765368
 30
0.0
  0
VERTEX
  5
CD
  8
LAYER0
 10
822.3720921825312
 20
606.5674067765368
 30
0.0
  0
SEQEND
  5
1B2
  8
LAYER0
  0
POLYLINE
  5
75
  8
LAYER0
 66
     1
 10
0.0
 20
0.0
 30
0.0
 70
     1
  0
VERTEX
  5
CE
  8
LAYER0
 10
818.1294514954112
 20
443.8174067765368
 30
0.0
  0
VERTEX
  5
CF
  8
LAYER0
 10
26.61473286964985
 20
443.8174067765368
 30
0.0
 42
-1.0
  0
VERTEX
  5
D0
  8
LAYER0
 10
22.37209218253057
 20
448.0600474636561
 30
0.0
  0
VERTEX
  5
D1
  8
LAYER0
 10
22.37209218253057
 20
454.5747660894176
 30
0.0
 42
-1.0
  0
VERTEX
  5
D2
  8
LAYER0
 10
26.61473286964985
 20
458.8174067765368
 30
0.0
  0
VERTEX
  5
D3
  8
LAYER0
 10
818.1294514954112
 20
458.8174067765368
 30
0.0
 42
-1.0
  0
VERTEX
  5
D4
  8
LAYER0
 10
822.3720921825305
 20
454.5747660894176
 30
0.0
  0
VERTEX
  5
D5
  8
LAYER0
 10
822.3720921825305
 20
448.0600474636561
 30
0.0
 42
-1.0
  0
SEQEND
  5
1B3
  8
LAYER0
  0
POLYLINE
  5
76
  8
LAYER0
 66
     1
 10
0.0
 20
0.0
 30
0.0
 70
     1
  0
VERTEX
  5
D6
  8
LAYER0
 10
818.1294514954112
 20
296.0674067765381
 30
0.0
  0
VERTEX
  5
D7
  8
LAYER0
 10
26.61473286964986
 20
296.0674067765366
 30
0.0
 42
-1.0
  0
VERTEX
  5
D8
  8
LAYER0
 10
22.37209218253057
 20
300.3100474636559
 30
0.0
  0
VERTEX
  5
D9
  8
LAYER0
 10
22.37209218253057
 20
306.8247660894176
 30
0.0
 42
-1.0
  0
VERTEX
  5
DA
  8
LAYER0
 10
26.61473286964984
 20
311.0674067765368
 30
0.0
  0
VERTEX
  5
DB
  8
LAYER0
 10
818.1294514954112
 20
311.0674067765383
 30
0.0
 42
-1.0
  0
VERTEX
  5
DC
  8
LAYER0
 10
822.3720921825305
 20
306.824766089419
 30
0.0
  0
VERTEX
  5
DD
  8
LAYER0
 10
822.3720921825305
 20
300.3100474636573
 30
0.0
 42
-1.0
  0
SEQEND
  5
1B4
  8
LAYER0
  0
POLYLINE
  5
77
  8
LAYER0
 66
     1
 10
0.0
 20
0.0
 30
0.0
 70
     1
  0
VERTEX
  5
DE
  8
LAYER0
 10
22.3720921825313
 20
19.06740677653681
 30
0.0
  0
VERTEX
  5
DF
  8
LAYER0
 10
22.37209218253022
 20
37.06740677653704
 30
0.0
  0
VERTEX
  5
E0
  8
LAYER0
 10
22.37209218253022
 20
148.317406776537
 30
0.0
  0
VERTEX
  5
E1
  8
LAYER0
 10
22.37209218253022
 20
163.3174067765372
 30
0.0
  0
VERTEX
  5
E2
  8
LAYER0
 10
22.37209218253057
 20
296.0674067765366
 30
0.0
  0
VERTEX
  5
E3
  8
LAYER0
 10
22.37209218253057
 20
311.0674067765368
 30
0.0
  0
VERTEX
  5
E4
  8
LAYER0
 10
22.37209218253057
 20
443.8174067765368
 30
0.0
  0
VERTEX
  5
E5
  8
LAYER0
 10
22.37209218253057
 20
458.8174067765368
 30
0.0
  0
VERTEX
  5
E6
  8
LAYER0
 10
22.37209218253057
 20
591.5674067765366
 30
0.0
  0
VERTEX
  5
E7
  8
LAYER0
 10
22.37209218253057
 20
606.5674067765368
 30
0.0
  0
VERTEX
  5
E8
  8
LAYER0
 10
22.37209218253057
 20
739.3174067765361
 30
0.0
  0
VERTEX
  5
E9
  8
LAYER0
 10
22.37209218253057
 20
754.3174067765364
 30
0.0
  0
VERTEX
  5
EA
  8
LAYER0
 10
22.37209218253057
 20
887.0674067765361
 30
0.0
  0
VERTEX
  5
EB
  8
LAYER0
 10
22.37209218253057
 20
902.0674067765364
 30
0.0
  0
VERTEX
  5
EC
  8
LAYER0
 10
22.37209218253057
 20
1034.817406776536
 30
0.0
  0
VERTEX
  5
ED
  8
LAYER0
 10
22.37209218253057
 20
1049.817406776536
 30
0.0
  0
VERTEX
  5
EE
  8
LAYER0
 10
22.37209218253057
 20
1161.067406776537
 30
0.0
  0
VERTEX
  5
EF
  8
LAYER0
 10
22.37209218253093
 20
1179.067406776537
 30
0.0
  0
VERTEX
  5
F0
  8
LAYER0
 10
122.3720921825306
 20
1179.067406776537
 30
0.0
  0
VERTEX
  5
F1
  8
LAYER0
 10
122.3720921825306
 20
1165.310047463656
 30
0.0
 42
1.0
  0
VERTEX
  5
F2
  8
LAYER0
 10
126.6147328696499
 20
1161.067406776537
 30
0.0
  0
VERTEX
  5
F3
  8
LAYER0
 10
218.1294514954113
 20
1161.067406776537
 30
0.0
 42
1.0
  0
VERTEX
  5
F4
  8
LAYER0
 10
222.3720921825306
 20
1165.310047463656
 30
0.0
  0
VERTEX
  5
F5
  8
LAYER0
 10
222.3720921825306
 20
1179.067406776537
 30
0.0
  0
VERTEX
  5
F6
  8
LAYER0
 10
372.3720921825304
 20
1179.067406776537
 30
0.0
  0
VERTEX
  5
F7
  8
LAYER0
 10
372.3720921825304
 20
1165.310047463656
 30
0.0
 42
1.0
  0
VERTEX
  5
F8
  8
LAYER0
 10
376.6147328696496
 20
1161.067406776537
 30
0.0
  0
VERTEX
  5
F9
  8
LAYER0
 10
468.1294514954115
 20
1161.067406776537
 30
0.0
 42
1.0
  0
VERTEX
  5
FA
  8
LAYER0
 10
472.3720921825308
 20
1165.310047463656
 30
0.0
  0
VERTEX
  5
FB
  8
LAYER0
 10
472.3720921825308
 20
1179.067406776537
 30
0.0
  0
VERTEX
  5
FC
  8
LAYER0
 10
622.3720921825305
 20
1179.067406776537
 30
0.0
  0
VERTEX
  5
FD
  8
LAYER0
 10
622.3720921825305
 20
1165.310047463656
 30
0.0
 42
1.0
  0
VERTEX
  5
FE
  8
LAYER0
 10
626.6147328696499
 20
1161.067406776537
 30
0.0
  0
VERTEX
  5
FF
  8
LAYER0
 10
718.1294514954112
 20
1161.067406776537
 30
0.0
 42
1.0
  0
VERTEX
  5
100
  8
LAYER0
 10
722.3720921825305
 20
1165.310047463656
 30
0.0
  0
VERTEX
  5
101
  8
LAYER0
 10
722.3720921825305
 20
1179.067406776537
 30
0.0
  0
VERTEX
  5
102
  8
LAYER0
 10
822.3720921825305
 20
1179.067406776537
 30
0.0
  0
VERTEX
  5
103
  8
LAYER0
 10
822.3720921825305
 20
1161.067406776537
 30
0.0
  0
VERTEX
  5
104
  8
LAYER0
 10
822.3720921825305
 20
1049.817406776536
 30
0.0
  0
VERTEX
  5
105
  8
LAYER0
 10
822.3720921825305
 20
1034.817406776536
 30
0.0
  0
VERTEX
  5
106
  8
LAYER0
 10
822.3720921825305
 20
902.0674067765364
 30
0.0
  0
VERTEX
  5
107
  8
LAYER0
 10
822.3720921825305
 20
887.0674067765361
 30
0.0
  0
VERTEX
  5
108
  8
LAYER0
 10
822.3720921825299
 20
754.3174067765364
 30
0.0
  0
VERTEX
  5
109
  8
LAYER0
 10
822.3720921825299
 20
739.3174067765361
 30
0.0
  0
VERTEX
  5
10A
  8
LAYER0
 10
822.3720921825312
 20
606.5674067765368
 30
0.0
  0
VERTEX
  5
10B
  8
LAYER0
 10
822.3720921825312
 20
591.5674067765366
 30
0.0
  0
VERTEX
  5
10C
  8
LAYER0
 10
822.3720921825305
 20
458.8174067765368
 30
0.0
  0
VERTEX
  5
10D
  8
LAYER0
 10
822.3720921825305
 20
443.8174067765368
 30
0.0
  0
VERTEX
  5
10E
  8
LAYER0
 10
822.3720921825305
 20
311.0674067765383
 30
0.0
  0
VERTEX
  5
10F
  8
LAYER0
 10
822.3720921825305
 20
296.0674067765381
 30
0.0
  0
VERTEX
  5
110
  8
LAYER0
 10
822.3720921825302
 20
163.3174067765386
 30
0.0
  0
VERTEX
  5
111
  8
LAYER0
 10
822.3720921825302
 20
148.3174067765384
 30
0.0
  0
VERTEX
  5
112
  8
LAYER0
 10
822.3720921825302
 20
37.06740677653772
 30
0.0
  0
VERTEX
  5
113
  8
LAYER0
 10
822.3720921825302
 20
19.0674067765375
 30
0.0
  0
VERTEX
  5
114
  8
LAYER0
 10
722.3720921825302
 20
19.06740677653681
 30
0.0
  0
VERTEX
  5
115
  8
LAYER0
 10
722.3720921825302
 20
32.82476608941776
 30
0.0
 42
1.0
  0
VERTEX
  5
116
  8
LAYER0
 10
718.1294514954109
 20
37.06740677653704
 30
0.0
  0
VERTEX
  5
117
  8
LAYER0
 10
626.6147328696495
 20
37.06740677653704
 30
0.0
 42
1.0
  0
VERTEX
  5
118
  8
LAYER0
 10
622.3720921825302
 20
32.82476608941776
 30
0.0
  0
VERTEX
  5
119
  8
LAYER0
 10
622.3720921825302
 20
19.06740677653681
 30
0.0
  0
VERTEX
  5
11A
  8
LAYER0
 10
472.3720921825304
 20
19.06740677653681
 30
0.0
  0
VERTEX
  5
11B
  8
LAYER0
 10
472.3720921825304
 20
32.82476608941776
 30
0.0
 42
1.0
  0
VERTEX
  5
11C
  8
LAYER0
 10
468.1294514954112
 20
37.06740677653704
 30
0.0
  0
VERTEX
  5
11D
  8
LAYER0
 10
376.6147328696493
 20
37.06740677653704
 30
0.0
 42
1.0
  0
VERTEX
  5
11E
  8
LAYER0
 10
372.37209218253
 20
32.82476608941776
 30
0.0
  0
VERTEX
  5
11F
  8
LAYER0
 10
372.37209218253
 20
19.06740677653681
 30
0.0
  0
VERTEX
  5
120
  8
LAYER0
 10
222.3720921825302
 20
19.0674067765375
 30
0.0
  0
VERTEX
  5
121
  8
LAYER0
 10
222.3720921825302
 20
32.82476608941841
 30
0.0
 42
1.0
  0
VERTEX
  5
122
  8
LAYER0
 10
218.1294514954109
 20
37.06740677653769
 30
0.0
  0
VERTEX
  5
123
  8
LAYER0
 10
126.6147328696495
 20
37.06740677653707
 30
0.0
 42
1.0
  0
VERTEX
  5
124
  8
LAYER0
 10
122.3720921825302
 20
32.82476608941779
 30
0.0
  0
VERTEX
  5
125
  8
LAYER0
 10
122.3720921825302
 20
19.06740677653681
 30
0.0
  0
SEQEND
  5
1B5
  8
LAYER0
  0
POLYLINE
  5
78
  8
LAYER0
 66
     1
 10
0.0
 20
0.0
 30
0.0
 70
     1
  0
VERTEX
  5
126
  8
LAYER0
 10
26.6147328696495
 20
163.3174067765372
 30
0.0
  0
VERTEX
  5
127
  8
LAYER0
 10
818.1294514954109
 20
163.3174067765386
 30
0.0
 42
-1.0
  0
VERTEX
  5
128
  8
LAYER0
 10
822.3720921825302
 20
159.0747660894193
 30
0.0
  0
VERTEX
  5
129
  8
LAYER0
 10
822.3720921825302
 20
152.5600474636577
 30
0.0
 42
-1.0
  0
VERTEX
  5
12A
  8
LAYER0
 10
818.1294514954109
 20
148.3174067765384
 30
0.0
  0
VERTEX
  5
12B
  8
LAYER0
 10
26.61473286964952
 20
148.317406776537
 30
0.0
 42
-1.0
  0
VERTEX
  5
12C
  8
LAYER0
 10
22.37209218253022
 20
152.5600474636563
 30
0.0
  0
VERTEX
  5
12D
  8
LAYER0
 10
22.37209218253022
 20
159.0747660894179
 30
0.0
 42
-1.0
  0
SEQEND
  5
1B6
  8
LAYER0
  0
POLYLINE
  5
79
  8
LAYER0
 66
     1
 10
0.0
 20
0.0
 30
0.0
 70
     1
  0
VERTEX
  5
12E
  8
LAYER0
 10
839.0783658323622
 20
1049.817406776536
 30
0.0
  0
VERTEX
  5
12F
  8
LAYER0
 10
1630.593084458123
 20
1049.817406776536
 30
0.0
 42
-1.0
  0
VERTEX
  5
130
  8
LAYER0
 10
1634.835725145243
 20
1045.574766089417
 30
0.0
  0
VERTEX
  5
131
  8
LAYER0
 10
1634.835725145243
 20
1039.060047463656
 30
0.0
 42
-1.0
  0
VERTEX
  5
132
  8
LAYER0
 10
1630.593084458123
 20
1034.817406776536
 30
0.0
  0
VERTEX
  5
133
  8
LAYER0
 10
839.0783658323622
 20
1034.817406776536
 30
0.0
 42
-1.0
  0
VERTEX
  5
134
  8
LAYER0
 10
834.8357251452429
 20
1039.060047463656
 30
0.0
  0
VERTEX
  5
135
  8
LAYER0
 10
834.8357251452429
 20
1045.574766089417
 30
0.0
 42
-1.0
  0
SEQEND
  5
1B7
  8
LAYER0
  0
POLYLINE
  5
7A
  8
LAYER0
 66
     1
 10
0.0
 20
0.0
 30
0.0
 70
     1
  0
VERTEX
  5
136
  8
LAYER0
 10
1630.593084458123
 20
887.0674067765361
 30
0.0
  0
VERTEX
  5
137
  8
LAYER0
 10
839.0783658323622
 20
887.0674067765361
 30
0.0
 42
-1.0
  0
VERTEX
  5
138
  8
LAYER0
 10
834.8357251452429
 20
891.3100474636555
 30
0.0
  0
VERTEX
  5
139
  8
LAYER0
 10
834.8357251452429
 20
897.824766089417
 30
0.0
 42
-1.0
  0
VERTEX
  5
13A
  8
LAYER0
 10
839.0783658323622
 20
902.0674067765364
 30
0.0
  0
VERTEX
  5
13B
  8
LAYER0
 10
1630.593084458123
 20
902.0674067765364
 30
0.0
 42
-1.0
  0
VERTEX
  5
13C
  8
LAYER0
 10
1634.835725145243
 20
897.824766089417
 30
0.0
  0
VERTEX
  5
13D
  8
LAYER0
 10
1634.835725145243
 20
891.3100474636555
 30
0.0
 42
-1.0
  0
SEQEND
  5
1B8
  8
LAYER0
  0
POLYLINE
  5
7B
  8
LAYER0
 66
     1
 10
0.0
 20
0.0
 30
0.0
 70
     1
  0
VERTEX
  5
13E
  8
LAYER0
 10
839.0783658323622
 20
754.3174067765364
 30
0.0
  0
VERTEX
  5
13F
  8
LAYER0
 10
1630.593084458123
 20
754.3174067765364
 30
0.0
 42
-1.0
  0
VERTEX
  5
140
  8
LAYER0
 10
1634.835725145242
 20
750.074766089417
 30
0.0
  0
VERTEX
  5
141
  8
LAYER0
 10
1634.835725145242
 20
743.5600474636555
 30
0.0
 42
-1.0
  0
VERTEX
  5
142
  8
LAYER0
 10
1630.593084458123
 20
739.3174067765361
 30
0.0
  0
VERTEX
  5
143
  8
LAYER0
 10
839.0783658323622
 20
739.3174067765361
 30
0.0
 42
-1.0
  0
VERTEX
  5
144
  8
LAYER0
 10
834.8357251452429
 20
743.5600474636555
 30
0.0
  0
VERTEX
  5
145
  8
LAYER0
 10
834.8357251452429
 20
750.074766089417
 30
0.0
 42
-1.0
  0
SEQEND
  5
1B9
  8
LAYER0
  0
POLYLINE
  5
7C
  8
LAYER0
 66
     1
 10
0.0
 20
0.0
 30
0.0
 70
     1
  0
VERTEX
  5
146
  8
LAYER0
 10
1634.835725145243
 20
591.5674067765366
 30
0.0
  0
VERTEX
  5
147
  8
LAYER0
 10
839.0783658323622
 20
591.5674067765366
 30
0.0
 42
-1.0
  0
VERTEX
  5
148
  8
LAYER0
 10
834.8357251452429
 20
595.8100474636559
 30
0.0
  0
VERTEX
  5
149
  8
LAYER0
 10
834.8357251452429
 20
602.3247660894175
 30
0.0
 42
-1.0
  0
VERTEX
  5
14A
  8
LAYER0
 10
839.0783658323622
 20
606.5674067765368
 30
0.0
  0
VERTEX
  5
14B
  8
LAYER0
 10
1634.835725145243
 20
606.5674067765368
 30
0.0
  0
SEQEND
  5
1BA
  8
LAYER0
  0
POLYLINE
  5
7D
  8
LAYER0
 66
     1
 10
0.0
 20
0.0
 30
0.0
 70
     1
  0
VERTEX
  5
14C
  8
LAYER0
 10
1630.593084458123
 20
443.8174067765368
 30
0.0
  0
VERTEX
  5
14D
  8
LAYER0
 10
839.0783658323622
 20
443.8174067765368
 30
0.0
 42
-1.0
  0
VERTEX
  5
14E
  8
LAYER0
 10
834.8357251452429
 20
448.0600474636561
 30
0.0
  0
VERTEX
  5
14F
  8
LAYER0
 10
834.8357251452429
 20
454.5747660894176
 30
0.0
 42
-1.0
  0
VERTEX
  5
150
  8
LAYER0
 10
839.0783658323622
 20
458.8174067765368
 30
0.0
  0
VERTEX
  5
151
  8
LAYER0
 10
1630.593084458123
 20
458.8174067765368
 30
0.0
 42
-1.0
  0
VERTEX
  5
152
  8
LAYER0
 10
1634.835725145243
 20
454.5747660894176
 30
0.0
  0
VERTEX
  5
153
  8
LAYER0
 10
1634.835725145243
 20
448.0600474636561
 30
0.0
 42
-1.0
  0
SEQEND
  5
1BB
  8
LAYER0
  0
POLYLINE
  5
7E
  8
LAYER0
 66
     1
 10
0.0
 20
0.0
 30
0.0
 70
     1
  0
VERTEX
  5
154
  8
LAYER0
 10
1630.593084458123
 20
296.0674067765381
 30
0.0
  0
VERTEX
  5
155
  8
LAYER0
 10
839.0783658323622
 20
296.0674067765366
 30
0.0
 42
-1.0
  0
VERTEX
  5
156
  8
LAYER0
 10
834.8357251452429
 20
300.3100474636559
 30
0.0
  0
VERTEX
  5
157
  8
LAYER0
 10
834.8357251452429
 20
306.8247660894176
 30
0.0
 42
-1.0
  0
VERTEX
  5
158
  8
LAYER0
 10
839.0783658323622
 20
311.0674067765368
 30
0.0
  0
VERTEX
  5
159
  8
LAYER0
 10
1630.593084458123
 20
311.0674067765383
 30
0.0
 42
-1.0
  0
VERTEX
  5
15A
  8
LAYER0
 10
1634.835725145243
 20
306.824766089419
 30
0.0
  0
VERTEX
  5
15B
  8
LAYER0
 10
1634.835725145243
 20
300.3100474636573
 30
0.0
 42
-1.0
  0
SEQEND
  5
1BC
  8
LAYER0
  0
POLYLINE
  5
7F
  8
LAYER0
 66
     1
 10
0.0
 20
0.0
 30
0.0
 70
     1
  0
VERTEX
  5
15C
  8
LAYER0
 10
834.8357251452437
 20
19.06740677653681
 30
0.0
  0
VERTEX
  5
15D
  8
LAYER0
 10
834.8357251452426
 20
37.06740677653704
 30
0.0
  0
VERTEX
  5
15E
  8
LAYER0
 10
834.8357251452426
 20
148.317406776537
 30
0.0
  0
VERTEX
  5
15F
  8
LAYER0
 10
834.8357251452426
 20
163.3174067765372
 30
0.0
  0
VERTEX
  5
160
  8
LAYER0
 10
834.8357251452429
 20
296.0674067765366
 30
0.0
  0
VERTEX
  5
161
  8
LAYER0
 10
834.8357251452429
 20
311.0674067765368
 30
0.0
  0
VERTEX
  5
162
  8
LAYER0
 10
834.8357251452429
 20
443.8174067765368
 30
0.0
  0
VERTEX
  5
163
  8
LAYER0
 10
834.8357251452429
 20
458.8174067765368
 30
0.0
  0
VERTEX
  5
164
  8
LAYER0
 10
834.8357251452429
 20
591.5674067765366
 30
0.0
  0
VERTEX
  5
165
  8
LAYER0
 10
834.8357251452429
 20
606.5674067765368
 30
0.0
  0
VERTEX
  5
166
  8
LAYER0
 10
834.8357251452429
 20
739.3174067765361
 30
0.0
  0
VERTEX
  5
167
  8
LAYER0
 10
834.8357251452429
 20
754.3174067765364
 30
0.0
  0
VERTEX
  5
168
  8
LAYER0
 10
834.8357251452429
 20
887.0674067765361
 30
0.0
  0
VERTEX
  5
169
  8
LAYER0
 10
834.8357251452429
 20
902.0674067765364
 30
0.0
  0
VERTEX
  5
16A
  8
LAYER0
 10
834.8357251452429
 20
1034.817406776536
 30
0.0
  0
VERTEX
  5
16B
  8
LAYER0
 10
834.8357251452429
 20
1049.817406776536
 30
0.0
  0
VERTEX
  5
16C
  8
LAYER0
 10
834.8357251452429
 20
1161.067406776537
 30
0.0
  0
VERTEX
  5
16D
  8
LAYER0
 10
834.8357251452433
 20
1179.067406776537
 30
0.0
  0
VERTEX
  5
16E
  8
LAYER0
 10
934.8357251452429
 20
1179.067406776537
 30
0.0
  0
VERTEX
  5
16F
  8
LAYER0
 10
934.8357251452429
 20
1165.310047463656
 30
0.0
 42
1.0
  0
VERTEX
  5
170
  8
LAYER0
 10
939.0783658323622
 20
1161.067406776537
 30
0.0
  0
VERTEX
  5
171
  8
LAYER0
 10
1030.593084458124
 20
1161.067406776537
 30
0.0
 42
1.0
  0
VERTEX
  5
172
  8
LAYER0
 10
1034.835725145243
 20
1165.310047463656
 30
0.0
  0
VERTEX
  5
173
  8
LAYER0
 10
1034.835725145243
 20
1179.067406776537
 30
0.0
  0
VERTEX
  5
174
  8
LAYER0
 10
1184.835725145243
 20
1179.067406776537
 30
0.0
  0
VERTEX
  5
175
  8
LAYER0
 10
1184.835725145243
 20
1165.310047463656
 30
0.0
 42
1.0
  0
VERTEX
  5
176
  8
LAYER0
 10
1189.078365832362
 20
1161.067406776537
 30
0.0
  0
VERTEX
  5
177
  8
LAYER0
 10
1280.593084458124
 20
1161.067406776537
 30
0.0
 42
1.0
  0
VERTEX
  5
178
  8
LAYER0
 10
1284.835725145243
 20
1165.310047463656
 30
0.0
  0
VERTEX
  5
179
  8
LAYER0
 10
1284.835725145243
 20
1179.067406776537
 30
0.0
  0
VERTEX
  5
17A
  8
LAYER0
 10
1434.835725145243
 20
1179.067406776537
 30
0.0
  0
VERTEX
  5
17B
  8
LAYER0
 10
1434.835725145243
 20
1165.310047463656
 30
0.0
 42
1.0
  0
VERTEX
  5
17C
  8
LAYER0
 10
1439.078365832362
 20
1161.067406776537
 30
0.0
  0
VERTEX
  5
17D
  8
LAYER0
 10
1530.593084458123
 20
1161.067406776537
 30
0.0
 42
1.0
  0
VERTEX
  5
17E
  8
LAYER0
 10
1534.835725145243
 20
1165.310047463656
 30
0.0
  0
VERTEX
  5
17F
  8
LAYER0
 10
1534.835725145243
 20
1179.067406776537
 30
0.0
  0
VERTEX
  5
180
  8
LAYER0
 10
1634.835725145243
 20
1179.067406776537
 30
0.0
  0
VERTEX
  5
181
  8
LAYER0
 10
1634.835725145243
 20
1161.067406776537
 30
0.0
  0
VERTEX
  5
182
  8
LAYER0
 10
1634.835725145243
 20
1049.817406776536
 30
0.0
  0
VERTEX
  5
183
  8
LAYER0
 10
1634.835725145243
 20
1034.817406776536
 30
0.0
  0
VERTEX
  5
184
  8
LAYER0
 10
1634.835725145243
 20
902.0674067765364
 30
0.0
  0
VERTEX
  5
185
  8
LAYER0
 10
1634.835725145243
 20
887.0674067765361
 30
0.0
  0
VERTEX
  5
186
  8
LAYER0
 10
1634.835725145242
 20
754.3174067765364
 30
0.0
  0
VERTEX
  5
187
  8
LAYER0
 10
1634.835725145242
 20
739.3174067765361
 30
0.0
  0
VERTEX
  5
188
  8
LAYER0
 10
1634.835725145243
 20
606.5674067765368
 30
0.0
  0
VERTEX
  5
189
  8
LAYER0
 10
1634.835725145243
 20
591.5674067765366
 30
0.0
  0
VERTEX
  5
18A
  8
LAYER0
 10
1634.835725145243
 20
458.8174067765368
 30
0.0
  0
VERTEX
  5
18B
  8
LAYER0
 10
1634.835725145243
 20
443.8174067765368
 30
0.0
  0
VERTEX
  5
18C
  8
LAYER0
 10
1634.835725145243
 20
311.0674067765383
 30
0.0
  0
VERTEX
  5
18D
  8
LAYER0
 10
1634.835725145243
 20
296.0674067765381
 30
0.0
  0
VERTEX
  5
18E
  8
LAYER0
 10
1634.835725145243
 20
163.3174067765386
 30
0.0
  0
VERTEX
  5
18F
  8
LAYER0
 10
1634.835725145243
 20
148.3174067765384
 30
0.0
  0
VERTEX
  5
190
  8
LAYER0
 10
1634.835725145243
 20
37.06740677653772
 30
0.0
  0
VERTEX
  5
191
  8
LAYER0
 10
1634.835725145243
 20
19.0674067765375
 30
0.0
  0
VERTEX
  5
192
  8
LAYER0
 10
1534.835725145243
 20
19.06740677653681
 30
0.0
  0
VERTEX
  5
193
  8
LAYER0
 10
1534.835725145243
 20
32.82476608941776
 30
0.0
 42
1.0
  0
VERTEX
  5
194
  8
LAYER0
 10
1530.593084458123
 20
37.06740677653704
 30
0.0
  0
VERTEX
  5
195
  8
LAYER0
 10
1439.078365832362
 20
37.06740677653704
 30
0.0
 42
1.0
  0
VERTEX
  5
196
  8
LAYER0
 10
1434.835725145243
 20
32.82476608941776
 30
0.0
  0
VERTEX
  5
197
  8
LAYER0
 10
1434.835725145243
 20
19.06740677653681
 30
0.0
  0
VERTEX
  5
198
  8
LAYER0
 10
1284.835725145243
 20
19.06740677653681
 30
0.0
  0
VERTEX
  5
199
  8
LAYER0
 10
1284.835725145243
 20
32.82476608941776
 30
0.0
 42
1.0
  0
VERTEX
  5
19A
  8
LAYER0
 10
1280.593084458123
 20
37.06740677653704
 30
0.0
  0
VERTEX
  5
19B
  8
LAYER0
 10
1189.078365832362
 20
37.06740677653704
 30
0.0
 42
1.0
  0
VERTEX
  5
19C
  8
LAYER0
 10
1184.835725145242
 20
32.82476608941776
 30
0.0
  0
VERTEX
  5
19D
  8
LAYER0
 10
1184.835725145242
 20
19.06740677653681
 30
0.0
  0
VERTEX
  5
19E
  8
LAYER0
 10
1034.835725145243
 20
19.0674067765375
 30
0.0
  0
VERTEX
  5
19F
  8
LAYER0
 10
1034.835725145243
 20
32.82476608941841
 30
0.0
 42
1.0
  0
VERTEX
  5
1A0
  8
LAYER0
 10
1030.593084458123
 20
37.06740677653769
 30
0.0
  0
VERTEX
  5
1A1
  8
LAYER0
 10
939.0783658323619
 20
37.06740677653707
 30
0.0
 42
1.0
  0
VERTEX
  5
1A2
  8
LAYER0
 10
934.8357251452426
 20
32.82476608941779
 30
0.0
  0
VERTEX
  5
1A3
  8
LAYER0
 10
934.8357251452426
 20
19.06740677653681
 30
0.0
  0
SEQEND
  5
1BD
  8
LAYER0
  0
POLYLINE
  5
80
  8
LAYER0
 66
     1
 10
0.0
 20
0.0
 30
0.0
 70
     1
  0
VERTEX
  5
1A4
  8
LAYER0
 10
839.0783658323619
 20
163.3174067765372
 30
0.0
  0
VERTEX
  5
1A5
  8
LAYER0
 10
1630.593084458123
 20
163.3174067765386
 30
0.0
 42
-1.0
  0
VERTEX
  5
1A6
  8
LAYER0
 10
1634.835725145243
 20
159.0747660894193
 30
0.0
  0
VERTEX
  5
1A7
  8
LAYER0
 10
1634.835725145243
 20
152.5600474636577
 30
0.0
 42
-1.0
  0
VERTEX
  5
1A8
  8
LAYER0
 10
1630.593084458123
 20
148.3174067765384
 30
0.0
  0
VERTEX
  5
1A9
  8
LAYER0
 10
839.0783658323619
 20
148.317406776537
 30
0.0
 42
-1.0
  0
VERTEX
  5
1AA
  8
LAYER0
 10
834.8357251452426
 20
152.5600474636563
 30
0.0
  0
VERTEX
  5
1AB
  8
LAYER0
 10
834.8357251452426
 20
159.0747660894179
 30
0.0
 42
-1.0
  0
SEQEND
  5
1BE
  8
LAYER0
  0
ENDSEC
  0
EOF
