  0
SECTION
  2
HEADER
  9
$ACADVER
  1
AC1009
  9
$DWGCODEPAGE
  3
ansi_1252
  9
$INSBASE
 10
0.0
 20
0.0
 30
0.0
  9
$EXTMIN
 10
61.55041862352937
 20
39.70159090821295
 30
0.0
  9
$EXTMAX
 10
2279.466838260038
 20
1166.128051987768
 30
0.0
  9
$LIMMIN
 10
0.0
 20
0.0
  9
$LIMMAX
 10
12.0
 20
9.0
  9
$ORTHOMODE
 70
     0
  9
$REGENMODE
 70
     1
  9
$FILLMODE
 70
     1
  9
$QTEXTMODE
 70
     0
  9
$MIRRTEXT
 70
     1
  9
$DRAGMODE
 70
     2
  9
$LTSCALE
 40
1.0
  9
$OSMODE
 70
    37
  9
$ATTMODE
 70
     1
  9
$TEXTSIZE
 40
0.2
  9
$TRACEWID
 40
0.05
  9
$TEXTSTYLE
  7
STANDARD
  9
$CLAYER
  8
0
  9
$CELTYPE
  6
BYLAYER
  9
$CECOLOR
 62
   256
  9
$DIMSCALE
 40
1.0
  9
$DIMASZ
 40
0.18
  9
$DIMEXO
 40
0.0625
  9
$DIMDLI
 40
0.38
  9
$DIMRND
 40
0.0
  9
$DIMDLE
 40
0.0
  9
$DIMEXE
 40
0.18
  9
$DIMTP
 40
0.0
  9
$DIMTM
 40
0.0
  9
$DIMTXT
 40
0.18
  9
$DIMCEN
 40
0.09
  9
$DIMTSZ
 40
0.0
  9
$DIMTOL
 70
     0
  9
$DIMLIM
 70
     0
  9
$DIMTIH
 70
     1
  9
$DIMTOH
 70
     1
  9
$DIMSE1
 70
     0
  9
$DIMSE2
 70
     0
  9
$DIMTAD
 70
     0
  9
$DIMZIN
 70
     0
  9
$DIMBLK
  1

  9
$DIMASO
 70
     1
  9
$DIMSHO
 70
     1
  9
$DIMPOST
  1

  9
$DIMAPOST
  1

  9
$DIMALT
 70
     0
  9
$DIMALTD
 70
     2
  9
$DIMALTF
 40
25.4
  9
$DIMLFAC
 40
1.0
  9
$DIMTOFL
 70
     0
  9
$DIMTVP
 40
0.0
  9
$DIMTIX
 70
     0
  9
$DIMSOXD
 70
     0
  9
$DIMSAH
 70
     0
  9
$DIMBLK1
  1

  9
$DIMBLK2
  1

  9
$DIMSTYLE
  2
STANDARD
  9
$DIMCLRD
 70
     0
  9
$DIMCLRE
 70
     0
  9
$DIMCLRT
 70
     0
  9
$DIMTFAC
 40
1.0
  9
$DIMGAP
 40
0.09
  9
$LUNITS
 70
     2
  9
$LUPREC
 70
     4
  9
$SKETCHINC
 40
0.1
  9
$FILLETRAD
 40
0.5
  9
$AUNITS
 70
     0
  9
$AUPREC
 70
     0
  9
$MENU
  1
.
  9
$ELEVATION
 40
0.0
  9
$PELEVATION
 40
0.0
  9
$THICKNESS
 40
0.0
  9
$LIMCHECK
 70
     0
  9
$CHAMFERA
 40
0.0
  9
$CHAMFERB
 40
0.0
  9
$SKPOLY
 70
     0
  9
$TDCREATE
 40
2454910.5
  9
$TDUPDATE
 40
2457374.58529316
  9
$TDINDWG
 40
0.0000000116
  9
$TDUSRTIMER
 40
0.0000000116
  9
$USRTIMER
 70
     1
  9
$ANGBASE
 50
0.0
  9
$ANGDIR
 70
     0
  9
$PDMODE
 70
     0
  9
$PDSIZE
 40
0.0
  9
$PLINEWID
 40
0.0
  9
$COORDS
 70
     1
  9
$SPLFRAME
 70
     0
  9
$SPLINETYPE
 70
     6
  9
$SPLINESEGS
 70
     8
  9
$ATTDIA
 70
     0
  9
$ATTREQ
 70
     1
  9
$HANDLING
 70
     1
  9
$HANDSEED
  5
83D
  9
$SURFTAB1
 70
     6
  9
$SURFTAB2
 70
     6
  9
$SURFTYPE
 70
     6
  9
$SURFU
 70
     6
  9
$SURFV
 70
     6
  9
$UCSNAME
  2

  9
$UCSORG
 10
0.0
 20
0.0
 30
0.0
  9
$UCSXDIR
 10
1.0
 20
0.0
 30
0.0
  9
$UCSYDIR
 10
0.0
 20
1.0
 30
0.0
  9
$PUCSNAME
  2

  9
$PUCSORG
 10
0.0
 20
0.0
 30
0.0
  9
$PUCSXDIR
 10
1.0
 20
0.0
 30
0.0
  9
$PUCSYDIR
 10
0.0
 20
1.0
 30
0.0
  9
$USERI1
 70
     0
  9
$USERI2
 70
     0
  9
$USERI3
 70
     0
  9
$USERI4
 70
     0
  9
$USERI5
 70
     0
  9
$USERR1
 40
0.0
  9
$USERR2
 40
0.0
  9
$USERR3
 40
0.0
  9
$USERR4
 40
0.0
  9
$USERR5
 40
0.0
  9
$WORLDVIEW
 70
     1
  9
$SHADEDGE
 70
     3
  9
$SHADEDIF
 70
    70
  9
$TILEMODE
 70
     1
  9
$MAXACTVP
 70
    64
  9
$PLIMCHECK
 70
     0
  9
$PEXTMIN
 10
1.000000000000000E+20
 20
1.000000000000000E+20
 30
1.000000000000000E+20
  9
$PEXTMAX
 10
-1.000000000000000E+20
 20
-1.000000000000000E+20
 30
-1.000000000000000E+20
  9
$PLIMMIN
 10
0.0
 20
0.0
  9
$PLIMMAX
 10
12.0
 20
9.0
  9
$UNITMODE
 70
     0
  9
$VISRETAIN
 70
     1
  9
$PLINEGEN
 70
     0
  9
$PSLTSCALE
 70
     1
  0
ENDSEC
  0
SECTION
  2
TABLES
  0
TABLE
  2
VPORT
 70
     1
  0
VPORT
  2
*ACTIVE
 70
     0
 10
0.0
 20
0.0
 11
1.0
 21
1.0
 12
10.42990654205607
 22
4.5
 13
0.0
 23
0.0
 14
0.5
 24
0.5
 15
0.5
 25
0.5
 16
0.0
 26
0.0
 36
1.0
 17
0.0
 27
0.0
 37
0.0
 40
9.0
 41
1.972972972850329
 42
50.0
 43
0.0
 44
0.0
 50
0.0
 51
0.0
 71
     0
 72
   100
 73
     1
 74
     3
 75
     0
 76
     0
 77
     0
 78
     0
  0
ENDTAB
  0
TABLE
  2
LTYPE
 70
     2
  0
LTYPE
  2
CONTINUOUS
 70
     0
  3
Solid line
 72
    65
 73
     0
 40
0.0
  0
LTYPE
  2
CONTINUOUS2
 70
     0
  3
Solid Line
 72
    65
 73
     0
 40
0.0
  0
ENDTAB
  0
TABLE
  2
LAYER
 70
     2
  0
LAYER
  2
0
 70
     0
 62
     7
  6
CONTINUOUS
  0
LAYER
  2
BIG_DRAWERS
 70
     0
 62
    18
  6
CONTINUOUS
  0
ENDTAB
  0
TABLE
  2
STYLE
 70
     1
  0
STYLE
  2
STANDARD
 70
     0
 40
0.0
 41
1.0
 50
0.0
 71
     0
 42
0.2
  3
txt
  4

  0
ENDTAB
  0
TABLE
  2
VIEW
 70
     0
  0
ENDTAB
  0
TABLE
  2
UCS
 70
     0
  0
ENDTAB
  0
TABLE
  2
APPID
 70
     1
  0
APPID
  2
ACAD
 70
     0
  0
ENDTAB
  0
TABLE
  2
DIMSTYLE
 70
     1
  0
DIMSTYLE
  2
STANDARD
 70
     0
  3

  4

  5

  6

  7

 40
1.0
 41
0.18
 42
0.0625
 43
0.38
 44
0.18
 45
0.0
 46
0.0
 47
0.0
 48
0.0
140
0.18
141
0.09
142
0.0
143
25.4
144
1.0
145
0.0
146
1.0
147
0.09
 71
     0
 72
     0
 73
     1
 74
     1
 75
     0
 76
     0
 77
     0
 78
     0
170
     0
171
     2
172
     0
173
     0
174
     0
175
     0
176
     0
177
     0
178
     0
  0
ENDTAB
  0
ENDSEC
  0
SECTION
  2
BLOCKS
  0
BLOCK
  8
0
  2
$MODEL_SPACE
 70
     0
 10
0.0
 20
0.0
 30
0.0
  3
$MODEL_SPACE
  1

  0
ENDBLK
  5
21
  8
0
  0
BLOCK
 67
     1
  8
0
  2
$PAPER_SPACE
 70
     0
 10
0.0
 20
0.0
 30
0.0
  3
$PAPER_SPACE
  1

  0
ENDBLK
  5
1D
 67
     1
  8
0
  0
ENDSEC
  0
SECTION
  2
ENTITIES
  0
POLYLINE
  5
70
  8
BIG_DRAWERS
 66
     1
 10
0.0
 20
0.0
 30
0.0
 70
     1
  0
VERTEX
  5
E5
  8
BIG_DRAWERS
 10
318.1080956390074
 20
565.034552787704
 30
0.0
  0
VERTEX
  5
E6
  8
BIG_DRAWERS
 10
317.0728194585995
 20
565.1708494825479
 30
0.0
  0
VERTEX
  5
E7
  8
BIG_DRAWERS
 10
316.0375432781898
 20
565.034552787704
 30
0.0
  0
VERTEX
  5
E8
  8
BIG_DRAWERS
 10
315.0728194585995
 20
564.6349510976848
 30
0.0
  0
VERTEX
  5
E9
  8
BIG_DRAWERS
 10
314.2443923338546
 20
563.9992766072945
 30
0.0
  0
VERTEX
  5
EA
  8
BIG_DRAWERS
 10
313.6087178434632
 20
563.1708494825469
 30
0.0
  0
VERTEX
  5
EB
  8
BIG_DRAWERS
 10
313.2091161534413
 20
562.2061256629582
 30
0.0
  0
VERTEX
  5
EC
  8
BIG_DRAWERS
 10
313.0728194585995
 20
561.1708494825474
 30
0.0
  0
VERTEX
  5
ED
  8
BIG_DRAWERS
 10
313.2091161534413
 20
560.1355733021379
 30
0.0
  0
VERTEX
  5
EE
  8
BIG_DRAWERS
 10
313.6087178434632
 20
559.1708494825479
 30
0.0
  0
VERTEX
  5
EF
  8
BIG_DRAWERS
 10
314.2443923338546
 20
558.3424223578016
 30
0.0
  0
VERTEX
  5
F0
  8
BIG_DRAWERS
 10
315.0728194585995
 20
557.70674786741
 30
0.0
  0
VERTEX
  5
F1
  8
BIG_DRAWERS
 10
316.0375432781898
 20
557.3071461773924
 30
0.0
  0
VERTEX
  5
F2
  8
BIG_DRAWERS
 10
317.0728194585995
 20
557.1708494825483
 30
0.0
  0
VERTEX
  5
F3
  8
BIG_DRAWERS
 10
318.1080956390074
 20
557.3071461773924
 30
0.0
  0
VERTEX
  5
F4
  8
BIG_DRAWERS
 10
319.0728194585977
 20
557.70674786741
 30
0.0
  0
VERTEX
  5
F5
  8
BIG_DRAWERS
 10
319.9012465833462
 20
558.3424223578016
 30
0.0
  0
VERTEX
  5
F6
  8
BIG_DRAWERS
 10
320.5369210737376
 20
559.1708494825479
 30
0.0
  0
VERTEX
  5
F7
  8
BIG_DRAWERS
 10
320.9365227637559
 20
560.1355733021379
 30
0.0
  0
VERTEX
  5
F8
  8
BIG_DRAWERS
 10
321.0728194585977
 20
561.1708494825474
 30
0.0
  0
VERTEX
  5
F9
  8
BIG_DRAWERS
 10
320.9365227637559
 20
562.2061256629582
 30
0.0
  0
VERTEX
  5
FA
  8
BIG_DRAWERS
 10
320.5369210737376
 20
563.1708494825483
 30
0.0
  0
VERTEX
  5
FB
  8
BIG_DRAWERS
 10
319.9012465833462
 20
563.9992766072945
 30
0.0
  0
VERTEX
  5
FC
  8
BIG_DRAWERS
 10
319.0728194585977
 20
564.6349510976848
 30
0.0
  0
SEQEND
  5
7CF
  8
BIG_DRAWERS
  0
POLYLINE
  5
71
  8
BIG_DRAWERS
 66
     1
 10
0.0
 20
0.0
 30
0.0
 70
     1
  0
VERTEX
  5
FD
  8
BIG_DRAWERS
 10
122.4775432781903
 20
1008.948957798141
 30
0.0
  0
VERTEX
  5
FE
  8
BIG_DRAWERS
 10
121.5128194586019
 20
1008.549356108122
 30
0.0
  0
VERTEX
  5
FF
  8
BIG_DRAWERS
 10
120.684392333857
 20
1007.913681617731
 30
0.0
  0
VERTEX
  5
100
  8
BIG_DRAWERS
 10
120.0487178434637
 20
1007.085254492984
 30
0.0
  0
VERTEX
  5
101
  8
BIG_DRAWERS
 10
119.6491161534437
 20
1006.120530673395
 30
0.0
  0
VERTEX
  5
102
  8
BIG_DRAWERS
 10
119.5128194586019
 20
1005.085254492984
 30
0.0
  0
VERTEX
  5
103
  8
BIG_DRAWERS
 10
119.6491161534437
 20
1004.049978312575
 30
0.0
  0
VERTEX
  5
104
  8
BIG_DRAWERS
 10
120.0487178434637
 20
1003.085254492985
 30
0.0
  0
VERTEX
  5
105
  8
BIG_DRAWERS
 10
120.684392333857
 20
1002.256827368239
 30
0.0
  0
VERTEX
  5
106
  8
BIG_DRAWERS
 10
121.5128194586019
 20
1001.621152877847
 30
0.0
  0
VERTEX
  5
107
  8
BIG_DRAWERS
 10
122.4775432781903
 20
1001.221551187829
 30
0.0
  0
VERTEX
  5
108
  8
BIG_DRAWERS
 10
123.5128194586
 20
1001.085254492985
 30
0.0
  0
VERTEX
  5
109
  8
BIG_DRAWERS
 10
124.5480956390097
 20
1001.221551187829
 30
0.0
  0
VERTEX
  5
10A
  8
BIG_DRAWERS
 10
125.5128194586
 20
1001.621152877847
 30
0.0
  0
VERTEX
  5
10B
  8
BIG_DRAWERS
 10
126.3412465833485
 20
1002.256827368239
 30
0.0
  0
VERTEX
  5
10C
  8
BIG_DRAWERS
 10
126.97692107374
 20
1003.085254492985
 30
0.0
  0
VERTEX
  5
10D
  8
BIG_DRAWERS
 10
127.3765227637564
 20
1004.049978312575
 30
0.0
  0
VERTEX
  5
10E
  8
BIG_DRAWERS
 10
127.5128194586
 20
1005.085254492984
 30
0.0
  0
VERTEX
  5
10F
  8
BIG_DRAWERS
 10
127.3765227637564
 20
1006.120530673395
 30
0.0
  0
VERTEX
  5
110
  8
BIG_DRAWERS
 10
126.97692107374
 20
1007.085254492985
 30
0.0
  0
VERTEX
  5
111
  8
BIG_DRAWERS
 10
126.3412465833485
 20
1007.913681617731
 30
0.0
  0
VERTEX
  5
112
  8
BIG_DRAWERS
 10
125.5128194586
 20
1008.549356108122
 30
0.0
  0
VERTEX
  5
113
  8
BIG_DRAWERS
 10
124.5480956390097
 20
1008.948957798141
 30
0.0
  0
VERTEX
  5
114
  8
BIG_DRAWERS
 10
123.5128194586
 20
1009.085254492985
 30
0.0
  0
SEQEND
  5
7D0
  8
BIG_DRAWERS
  0
POLYLINE
  5
72
  8
BIG_DRAWERS
 66
     1
 10
0.0
 20
0.0
 30
0.0
 70
     1
  0
VERTEX
  5
115
  8
BIG_DRAWERS
 10
124.5480956390097
 20
565.034552787704
 30
0.0
  0
VERTEX
  5
116
  8
BIG_DRAWERS
 10
123.5128194586
 20
565.1708494825479
 30
0.0
  0
VERTEX
  5
117
  8
BIG_DRAWERS
 10
122.4775432781903
 20
565.034552787704
 30
0.0
  0
VERTEX
  5
118
  8
BIG_DRAWERS
 10
121.5128194586019
 20
564.6349510976848
 30
0.0
  0
VERTEX
  5
119
  8
BIG_DRAWERS
 10
120.684392333857
 20
563.9992766072945
 30
0.0
  0
VERTEX
  5
11A
  8
BIG_DRAWERS
 10
120.0487178434637
 20
563.1708494825469
 30
0.0
  0
VERTEX
  5
11B
  8
BIG_DRAWERS
 10
119.6491161534437
 20
562.2061256629582
 30
0.0
  0
VERTEX
  5
11C
  8
BIG_DRAWERS
 10
119.5128194586019
 20
561.1708494825474
 30
0.0
  0
VERTEX
  5
11D
  8
BIG_DRAWERS
 10
119.6491161534437
 20
560.1355733021379
 30
0.0
  0
VERTEX
  5
11E
  8
BIG_DRAWERS
 10
120.0487178434637
 20
559.1708494825479
 30
0.0
  0
VERTEX
  5
11F
  8
BIG_DRAWERS
 10
120.684392333857
 20
558.3424223578016
 30
0.0
  0
VERTEX
  5
120
  8
BIG_DRAWERS
 10
121.5128194586019
 20
557.70674786741
 30
0.0
  0
VERTEX
  5
121
  8
BIG_DRAWERS
 10
122.4775432781903
 20
557.3071461773924
 30
0.0
  0
VERTEX
  5
122
  8
BIG_DRAWERS
 10
123.5128194586
 20
557.1708494825483
 30
0.0
  0
VERTEX
  5
123
  8
BIG_DRAWERS
 10
124.5480956390097
 20
557.3071461773924
 30
0.0
  0
VERTEX
  5
124
  8
BIG_DRAWERS
 10
125.5128194586
 20
557.70674786741
 30
0.0
  0
VERTEX
  5
125
  8
BIG_DRAWERS
 10
126.3412465833485
 20
558.3424223578016
 30
0.0
  0
VERTEX
  5
126
  8
BIG_DRAWERS
 10
126.97692107374
 20
559.1708494825479
 30
0.0
  0
VERTEX
  5
127
  8
BIG_DRAWERS
 10
127.3765227637564
 20
560.1355733021379
 30
0.0
  0
VERTEX
  5
128
  8
BIG_DRAWERS
 10
127.5128194586
 20
561.1708494825474
 30
0.0
  0
VERTEX
  5
129
  8
BIG_DRAWERS
 10
127.3765227637564
 20
562.2061256629582
 30
0.0
  0
VERTEX
  5
12A
  8
BIG_DRAWERS
 10
126.97692107374
 20
563.1708494825483
 30
0.0
  0
VERTEX
  5
12B
  8
BIG_DRAWERS
 10
126.3412465833485
 20
563.9992766072945
 30
0.0
  0
VERTEX
  5
12C
  8
BIG_DRAWERS
 10
125.5128194586
 20
564.6349510976848
 30
0.0
  0
SEQEND
  5
7D1
  8
BIG_DRAWERS
  0
POLYLINE
  5
73
  8
BIG_DRAWERS
 66
     1
 10
0.0
 20
0.0
 30
0.0
 70
     1
  0
VERTEX
  5
12D
  8
BIG_DRAWERS
 10
331.4350250904907
 20
277.2634266461866
 30
0.0
  0
VERTEX
  5
12E
  8
BIG_DRAWERS
 10
333.8281977089724
 20
279.051826668425
 30
0.0
  0
VERTEX
  5
12F
  8
BIG_DRAWERS
 10
336.6026969339517
 20
280.1598897857568
 30
0.0
  0
VERTEX
  5
130
  8
BIG_DRAWERS
 10
339.5694452283142
 20
280.5121033279012
 30
0.0
  0
VERTEX
  5
131
  8
BIG_DRAWERS
 10
342.5262635985889
 20
280.0844645240215
 30
0.0
  0
VERTEX
  5
132
  8
BIG_DRAWERS
 10
345.2716497592094
 20
278.9061162518903
 30
0.0
  0
VERTEX
  5
133
  8
BIG_DRAWERS
 10
347.6185101803042
 20
277.0573609989535
 30
0.0
  0
VERTEX
  5
134
  8
BIG_DRAWERS
 10
349.4069102025428
 20
274.6641883804716
 30
0.0
  0
VERTEX
  5
135
  8
BIG_DRAWERS
 10
350.514973319869
 20
271.8896891554961
 30
0.0
  0
VERTEX
  5
136
  8
BIG_DRAWERS
 10
350.8671868620128
 20
268.9229408611338
 30
0.0
  0
VERTEX
  5
137
  8
BIG_DRAWERS
 10
350.4395480581221
 20
265.9661224908597
 30
0.0
  0
VERTEX
  5
138
  8
BIG_DRAWERS
 10
349.2611997860082
 20
263.2207363302334
 30
0.0
  0
VERTEX
  5
139
  8
BIG_DRAWERS
 10
347.4124445330667
 20
260.8738759091413
 30
0.0
  0
VERTEX
  5
13A
  8
BIG_DRAWERS
 10
345.0192719145884
 20
259.0854758869029
 30
0.0
  0
VERTEX
  5
13B
  8
BIG_DRAWERS
 10
342.2447726896092
 20
257.9774127695729
 30
0.0
  0
VERTEX
  5
13C
  8
BIG_DRAWERS
 10
339.2780243952463
 20
257.6251992274248
 30
0.0
  0
VERTEX
  5
13D
  8
BIG_DRAWERS
 10
336.321206024972
 20
258.0528380313064
 30
0.0
  0
VERTEX
  5
13E
  8
BIG_DRAWERS
 10
333.5758198643512
 20
259.2311863034376
 30
0.0
  0
VERTEX
  5
13F
  8
BIG_DRAWERS
 10
331.2289594432563
 20
261.0799415563744
 30
0.0
  0
VERTEX
  5
140
  8
BIG_DRAWERS
 10
329.4405594210192
 20
263.4731141748582
 30
0.0
  0
VERTEX
  5
141
  8
BIG_DRAWERS
 10
328.3324963036889
 20
266.2476133998318
 30
0.0
  0
VERTEX
  5
142
  8
BIG_DRAWERS
 10
327.9802827615454
 20
269.2143616941941
 30
0.0
  0
VERTEX
  5
143
  8
BIG_DRAWERS
 10
328.4079215654215
 20
272.1711800644682
 30
0.0
  0
VERTEX
  5
144
  8
BIG_DRAWERS
 10
329.5862698375552
 20
274.9165662250963
 30
0.0
  0
SEQEND
  5
7D2
  8
BIG_DRAWERS
  0
POLYLINE
  5
74
  8
BIG_DRAWERS
 66
     1
 10
0.0
 20
0.0
 30
0.0
 70
     1
  0
VERTEX
  5
145
  8
BIG_DRAWERS
 10
316.0375432781898
 20
1008.948957798141
 30
0.0
  0
VERTEX
  5
146
  8
BIG_DRAWERS
 10
315.0728194585995
 20
1008.549356108122
 30
0.0
  0
VERTEX
  5
147
  8
BIG_DRAWERS
 10
314.2443923338546
 20
1007.913681617731
 30
0.0
  0
VERTEX
  5
148
  8
BIG_DRAWERS
 10
313.6087178434632
 20
1007.085254492984
 30
0.0
  0
VERTEX
  5
149
  8
BIG_DRAWERS
 10
313.2091161534413
 20
1006.120530673395
 30
0.0
  0
VERTEX
  5
14A
  8
BIG_DRAWERS
 10
313.0728194585995
 20
1005.085254492984
 30
0.0
  0
VERTEX
  5
14B
  8
BIG_DRAWERS
 10
313.2091161534413
 20
1004.049978312575
 30
0.0
  0
VERTEX
  5
14C
  8
BIG_DRAWERS
 10
313.6087178434632
 20
1003.085254492985
 30
0.0
  0
VERTEX
  5
14D
  8
BIG_DRAWERS
 10
314.2443923338546
 20
1002.256827368239
 30
0.0
  0
VERTEX
  5
14E
  8
BIG_DRAWERS
 10
315.0728194585995
 20
1001.621152877847
 30
0.0
  0
VERTEX
  5
14F
  8
BIG_DRAWERS
 10
316.0375432781898
 20
1001.221551187829
 30
0.0
  0
VERTEX
  5
150
  8
BIG_DRAWERS
 10
317.0728194585995
 20
1001.085254492985
 30
0.0
  0
VERTEX
  5
151
  8
BIG_DRAWERS
 10
318.1080956390074
 20
1001.221551187829
 30
0.0
  0
VERTEX
  5
152
  8
BIG_DRAWERS
 10
319.0728194585977
 20
1001.621152877847
 30
0.0
  0
VERTEX
  5
153
  8
BIG_DRAWERS
 10
319.9012465833462
 20
1002.256827368239
 30
0.0
  0
VERTEX
  5
154
  8
BIG_DRAWERS
 10
320.5369210737376
 20
1003.085254492985
 30
0.0
  0
VERTEX
  5
155
  8
BIG_DRAWERS
 10
320.9365227637559
 20
1004.049978312575
 30
0.0
  0
VERTEX
  5
156
  8
BIG_DRAWERS
 10
321.0728194585977
 20
1005.085254492984
 30
0.0
  0
VERTEX
  5
157
  8
BIG_DRAWERS
 10
320.9365227637559
 20
1006.120530673395
 30
0.0
  0
VERTEX
  5
158
  8
BIG_DRAWERS
 10
320.5369210737376
 20
1007.085254492985
 30
0.0
  0
VERTEX
  5
159
  8
BIG_DRAWERS
 10
319.9012465833462
 20
1007.913681617731
 30
0.0
  0
VERTEX
  5
15A
  8
BIG_DRAWERS
 10
319.0728194585977
 20
1008.549356108122
 30
0.0
  0
VERTEX
  5
15B
  8
BIG_DRAWERS
 10
318.1080956390074
 20
1008.948957798141
 30
0.0
  0
VERTEX
  5
15C
  8
BIG_DRAWERS
 10
317.0728194585995
 20
1009.085254492985
 30
0.0
  0
SEQEND
  5
7D3
  8
BIG_DRAWERS
  0
POLYLINE
  5
75
  8
BIG_DRAWERS
 66
     1
 10
0.0
 20
0.0
 30
0.0
 70
     1
  0
VERTEX
  5
15D
  8
BIG_DRAWERS
 10
381.4704186235276
 20
1060.628051987766
 30
0.0
  0
VERTEX
  5
15E
  8
BIG_DRAWERS
 10
381.4704186235276
 20
1134.128051987765
 30
0.0
  0
VERTEX
  5
15F
  8
BIG_DRAWERS
 10
388.6704186235265
 20
1134.128051987765
 30
0.0
  0
VERTEX
  5
160
  8
BIG_DRAWERS
 10
388.6704186235265
 20
1060.628051987766
 30
0.0
  0
SEQEND
  5
7D4
  8
BIG_DRAWERS
  0
POLYLINE
  5
76
  8
BIG_DRAWERS
 66
     1
 10
0.0
 20
0.0
 30
0.0
 70
     1
  0
VERTEX
  5
161
  8
BIG_DRAWERS
 10
381.4704186235276
 20
873.628051987767
 30
0.0
  0
VERTEX
  5
162
  8
BIG_DRAWERS
 10
387.6704186235265
 20
873.628051987767
 30
0.0
  0
VERTEX
  5
163
  8
BIG_DRAWERS
 10
387.6704186235265
 20
973.1280519877672
 30
0.0
  0
VERTEX
  5
164
  8
BIG_DRAWERS
 10
381.4704186235276
 20
973.1280519877672
 30
0.0
  0
SEQEND
  5
7D5
  8
BIG_DRAWERS
  0
POLYLINE
  5
77
  8
BIG_DRAWERS
 66
     1
 10
0.0
 20
0.0
 30
0.0
 70
     1
  0
VERTEX
  5
165
  8
BIG_DRAWERS
 10
381.4704186235276
 20
733.3780519877672
 30
0.0
  0
VERTEX
  5
166
  8
BIG_DRAWERS
 10
387.6704186235265
 20
733.3780519877672
 30
0.0
  0
VERTEX
  5
167
  8
BIG_DRAWERS
 10
387.6704186235265
 20
832.8780519877677
 30
0.0
  0
VERTEX
  5
168
  8
BIG_DRAWERS
 10
381.4704186235276
 20
832.8780519877677
 30
0.0
  0
SEQEND
  5
7D6
  8
BIG_DRAWERS
  0
POLYLINE
  5
78
  8
BIG_DRAWERS
 66
     1
 10
0.0
 20
0.0
 30
0.0
 70
     1
  0
VERTEX
  5
169
  8
BIG_DRAWERS
 10
381.4704186235276
 20
593.1280519877672
 30
0.0
  0
VERTEX
  5
16A
  8
BIG_DRAWERS
 10
381.4704186235276
 20
692.6280519877663
 30
0.0
  0
VERTEX
  5
16B
  8
BIG_DRAWERS
 10
387.6704186235265
 20
692.6280519877663
 30
0.0
  0
VERTEX
  5
16C
  8
BIG_DRAWERS
 10
387.6704186235265
 20
593.1280519877672
 30
0.0
  0
SEQEND
  5
7D7
  8
BIG_DRAWERS
  0
POLYLINE
  5
79
  8
BIG_DRAWERS
 66
     1
 10
0.0
 20
0.0
 30
0.0
 70
     1
  0
VERTEX
  5
16D
  8
BIG_DRAWERS
 10
381.4704186235276
 20
432.128051987768
 30
0.0
  0
VERTEX
  5
16E
  8
BIG_DRAWERS
 10
387.6704186235265
 20
432.128051987768
 30
0.0
  0
VERTEX
  5
16F
  8
BIG_DRAWERS
 10
387.6704186235265
 20
505.628051987767
 30
0.0
  0
VERTEX
  5
170
  8
BIG_DRAWERS
 10
381.4704186235276
 20
505.628051987767
 30
0.0
  0
SEQEND
  5
7D8
  8
BIG_DRAWERS
  0
POLYLINE
  5
7A
  8
BIG_DRAWERS
 66
     1
 10
0.0
 20
0.0
 30
0.0
 70
     1
  0
VERTEX
  5
171
  8
BIG_DRAWERS
 10
465.4237348117607
 20
59.10159090823089
 30
0.0
  0
VERTEX
  5
172
  8
BIG_DRAWERS
 10
535.9237348117589
 20
59.10159090822179
 30
0.0
  0
VERTEX
  5
173
  8
BIG_DRAWERS
 10
535.923734811748
 20
52.90159090822107
 30
0.0
  0
VERTEX
  5
174
  8
BIG_DRAWERS
 10
465.42373481175
 20
52.90159090823016
 30
0.0
  0
SEQEND
  5
7D9
  8
BIG_DRAWERS
  0
POLYLINE
  5
7B
  8
BIG_DRAWERS
 66
     1
 10
0.0
 20
0.0
 30
0.0
 70
     1
  0
VERTEX
  5
175
  8
BIG_DRAWERS
 10
291.923734811767
 20
59.10159090824908
 30
0.0
  0
VERTEX
  5
176
  8
BIG_DRAWERS
 10
291.9237348117505
 20
52.90159090824653
 30
0.0
  0
VERTEX
  5
177
  8
BIG_DRAWERS
 10
386.9237348117491
 20
52.90159090824653
 30
0.0
  0
VERTEX
  5
178
  8
BIG_DRAWERS
 10
386.9237348117655
 20
59.10159090824544
 30
0.0
  0
SEQEND
  5
7DA
  8
BIG_DRAWERS
  0
POLYLINE
  5
7C
  8
BIG_DRAWERS
 66
     1
 10
0.0
 20
0.0
 30
0.0
 70
     1
  0
VERTEX
  5
179
  8
BIG_DRAWERS
 10
282.1959314891666
 20
333.4593864815544
 30
0.0
  0
VERTEX
  5
17A
  8
BIG_DRAWERS
 10
285.4532628290767
 20
337.2492731741715
 30
0.0
  0
VERTEX
  5
17B
  8
BIG_DRAWERS
 10
289.6419998173179
 20
339.9746962687079
 30
0.0
  0
VERTEX
  5
17C
  8
BIG_DRAWERS
 10
294.4265867146331
 20
341.4173247112323
 30
0.0
  0
VERTEX
  5
17D
  8
BIG_DRAWERS
 10
299.423734811773
 20
341.461590908246
 30
0.0
  0
VERTEX
  5
17E
  8
BIG_DRAWERS
 10
379.4237348117721
 20
341.4615909082387
 30
0.0
  0
VERTEX
  5
17F
  8
BIG_DRAWERS
 10
384.4208829089118
 20
341.4173247112159
 30
0.0
  0
VERTEX
  5
180
  8
BIG_DRAWERS
 10
389.2054698061828
 20
339.9746962686915
 30
0.0
  0
VERTEX
  5
181
  8
BIG_DRAWERS
 10
393.3942067944337
 20
337.2492731741551
 30
0.0
  0
VERTEX
  5
182
  8
BIG_DRAWERS
 10
396.6515381343817
 20
333.459386481538
 30
0.0
  0
VERTEX
  5
183
  8
BIG_DRAWERS
 10
398.7165221080128
 20
328.90864041199
 30
0.0
  0
VERTEX
  5
184
  8
BIG_DRAWERS
 10
399.4237348117716
 20
323.9615909082369
 30
0.0
  0
VERTEX
  5
185
  8
BIG_DRAWERS
 10
398.7165221080181
 20
319.014541404482
 30
0.0
  0
VERTEX
  5
186
  8
BIG_DRAWERS
 10
396.6515381343811
 20
314.4637953349285
 30
0.0
  0
VERTEX
  5
187
  8
BIG_DRAWERS
 10
393.3942067944491
 20
310.6739086423151
 30
0.0
  0
VERTEX
  5
188
  8
BIG_DRAWERS
 10
389.2054698061921
 20
307.9484855477769
 30
0.0
  0
VERTEX
  5
189
  8
BIG_DRAWERS
 10
384.4208829088955
 20
306.5058571052543
 30
0.0
  0
VERTEX
  5
18A
  8
BIG_DRAWERS
 10
379.4237348117559
 20
306.4615909082369
 30
0.0
  0
VERTEX
  5
18B
  8
BIG_DRAWERS
 10
299.4237348117567
 20
306.461590908246
 30
0.0
  0
VERTEX
  5
18C
  8
BIG_DRAWERS
 10
294.4265867146167
 20
306.505857105267
 30
0.0
  0
VERTEX
  5
18D
  8
BIG_DRAWERS
 10
289.6419998173272
 20
307.9484855477933
 30
0.0
  0
VERTEX
  5
18E
  8
BIG_DRAWERS
 10
285.4532628290922
 20
310.6739086423315
 30
0.0
  0
VERTEX
  5
18F
  8
BIG_DRAWERS
 10
282.1959314891659
 20
314.4637953349431
 30
0.0
  0
VERTEX
  5
190
  8
BIG_DRAWERS
 10
280.1309475155055
 20
319.0145414044966
 30
0.0
  0
VERTEX
  5
191
  8
BIG_DRAWERS
 10
279.42373481177
 20
323.9615909082497
 30
0.0
  0
VERTEX
  5
192
  8
BIG_DRAWERS
 10
280.1309475155002
 20
328.9086404120082
 30
0.0
  0
SEQEND
  5
7DB
  8
BIG_DRAWERS
  0
POLYLINE
  5
7D
  8
BIG_DRAWERS
 66
     1
 10
0.0
 20
0.0
 30
0.0
 70
     1
  0
VERTEX
  5
193
  8
BIG_DRAWERS
 10
142.9237348117648
 20
59.10159090827273
 30
0.0
  0
VERTEX
  5
194
  8
BIG_DRAWERS
 10
142.9237348117479
 20
52.901590908272
 30
0.0
  0
VERTEX
  5
195
  8
BIG_DRAWERS
 10
213.4237348117466
 20
52.90159090826472
 30
0.0
  0
VERTEX
  5
196
  8
BIG_DRAWERS
 10
213.4237348117545
 20
59.10159090826545
 30
0.0
  0
SEQEND
  5
7DC
  8
BIG_DRAWERS
  0
POLYLINE
  5
7E
  8
BIG_DRAWERS
 66
     1
 10
0.0
 20
0.0
 30
0.0
 70
     1
  0
VERTEX
  5
197
  8
BIG_DRAWERS
 10
69.42373481175366
 20
348.3365909082806
 30
0.0
  0
VERTEX
  5
198
  8
BIG_DRAWERS
 10
81.42373481175372
 20
348.3365909082802
 30
0.0
  0
VERTEX
  5
199
  8
BIG_DRAWERS
 10
81.42373481176003
 20
366.4590909082764
 30
0.0
  0
VERTEX
  5
19A
  8
BIG_DRAWERS
 10
597.4237348117637
 20
366.4590909082036
 30
0.0
  0
VERTEX
  5
19B
  8
BIG_DRAWERS
 10
597.4237348117576
 20
348.3365909082106
 30
0.0
  0
VERTEX
  5
19C
  8
BIG_DRAWERS
 10
609.4237348117575
 20
348.3365909082041
 30
0.0
  0
VERTEX
  5
19D
  8
BIG_DRAWERS
 10
609.4237348117584
 20
312.0865909082041
 30
0.0
  0
VERTEX
  5
19E
  8
BIG_DRAWERS
 10
597.4237348117614
 20
312.086590908209
 30
0.0
  0
VERTEX
  5
19F
  8
BIG_DRAWERS
 10
597.4237348117503
 20
275.8365909082048
 30
0.0
  0
VERTEX
  5
1A0
  8
BIG_DRAWERS
 10
609.4237348117505
 20
275.8365909082059
 30
0.0
  0
VERTEX
  5
1A1
  8
BIG_DRAWERS
 10
609.4237348117662
 20
239.5865909082059
 30
0.0
  0
VERTEX
  5
1A2
  8
BIG_DRAWERS
 10
597.4237348117658
 20
239.5865909082078
 30
0.0
  0
VERTEX
  5
1A3
  8
BIG_DRAWERS
 10
597.4237348117654
 20
172.7765909082096
 30
0.0
  0
VERTEX
  5
1A4
  8
BIG_DRAWERS
 10
609.4237348117657
 20
172.7765909082082
 30
0.0
  0
VERTEX
  5
1A5
  8
BIG_DRAWERS
 10
609.4237348117584
 20
136.5265909082119
 30
0.0
  0
VERTEX
  5
1A6
  8
BIG_DRAWERS
 10
597.4237348117614
 20
136.526590908209
 30
0.0
  0
VERTEX
  5
1A7
  8
BIG_DRAWERS
 10
597.4237348117501
 20
100.2765909082079
 30
0.0
  0
VERTEX
  5
1A8
  8
BIG_DRAWERS
 10
609.4237348117505
 20
100.2765909082119
 30
0.0
  0
VERTEX
  5
1A9
  8
BIG_DRAWERS
 10
609.4237348117662
 20
64.02659090821004
 30
0.0
  0
VERTEX
  5
1AA
  8
BIG_DRAWERS
 10
597.4237348117659
 20
64.02659090821044
 30
0.0
  0
VERTEX
  5
1AB
  8
BIG_DRAWERS
 10
597.4237348117634
 20
45.90159090821186
 30
0.0
  0
VERTEX
  5
1AC
  8
BIG_DRAWERS
 10
591.4237348117634
 20
45.90159090821186
 30
0.0
  0
VERTEX
  5
1AD
  8
BIG_DRAWERS
 10
583.7508901555658
 20
39.70159090821295
 30
0.0
  0
VERTEX
  5
1AE
  8
BIG_DRAWERS
 10
95.09652508230607
 20
39.70159090828218
 30
0.0
  0
VERTEX
  5
1AF
  8
BIG_DRAWERS
 10
87.42373481176281
 20
45.90159090828291
 30
0.0
  0
VERTEX
  5
1B0
  8
BIG_DRAWERS
 10
81.42373481176134
 20
45.90159090828291
 30
0.0
  0
VERTEX
  5
1B1
  8
BIG_DRAWERS
 10
81.42373481176747
 20
64.0265909082847
 30
0.0
  0
VERTEX
  5
1B2
  8
BIG_DRAWERS
 10
69.42373481176725
 20
64.02659090828291
 30
0.0
  0
VERTEX
  5
1B3
  8
BIG_DRAWERS
 10
69.42373481174343
 20
100.2765909082829
 30
0.0
  0
VERTEX
  5
1B4
  8
BIG_DRAWERS
 10
81.42373481174066
 20
100.2765909082848
 30
0.0
  0
VERTEX
  5
1B5
  8
BIG_DRAWERS
 10
81.42373481175447
 20
136.5265909082848
 30
0.0
  0
VERTEX
  5
1B6
  8
BIG_DRAWERS
 10
69.4237348117598
 20
136.5265909082847
 30
0.0
  0
VERTEX
  5
1B7
  8
BIG_DRAWERS
 10
69.42373481176185
 20
172.7765909082847
 30
0.0
  0
VERTEX
  5
1B8
  8
BIG_DRAWERS
 10
81.42373481176189
 20
172.7765909082845
 30
0.0
  0
VERTEX
  5
1B9
  8
BIG_DRAWERS
 10
81.42373481176753
 20
239.5865909082826
 30
0.0
  0
VERTEX
  5
1BA
  8
BIG_DRAWERS
 10
69.4237348117673
 20
239.5865909082788
 30
0.0
  0
VERTEX
  5
1BB
  8
BIG_DRAWERS
 10
69.42373481174343
 20
275.8365909082806
 30
0.0
  0
VERTEX
  5
1BC
  8
BIG_DRAWERS
 10
81.42373481174074
 20
275.8365909082805
 30
0.0
  0
VERTEX
  5
1BD
  8
BIG_DRAWERS
 10
81.42373481175431
 20
312.0865909082826
 30
0.0
  0
VERTEX
  5
1BE
  8
BIG_DRAWERS
 10
69.42373481176003
 20
312.0865909082824
 30
0.0
  0
SEQEND
  5
7DD
  8
BIG_DRAWERS
  0
POLYLINE
  5
7F
  8
BIG_DRAWERS
 66
     1
 10
0.0
 20
0.0
 30
0.0
 70
     1
  0
VERTEX
  5
1BF
  8
BIG_DRAWERS
 10
439.4237348117653
 20
299.0686512776485
 30
0.0
  0
VERTEX
  5
1C0
  8
BIG_DRAWERS
 10
239.4237348117645
 20
299.0686512776776
 30
0.0
  0
VERTEX
  5
1C1
  8
BIG_DRAWERS
 10
239.4237348117748
 20
239.0686512776794
 30
0.0
  0
VERTEX
  5
1C2
  8
BIG_DRAWERS
 10
439.4237348117756
 20
239.0686512776467
 30
0.0
  0
SEQEND
  5
7DE
  8
BIG_DRAWERS
  0
POLYLINE
  5
80
  8
BIG_DRAWERS
 66
     1
 10
0.0
 20
0.0
 30
0.0
 70
     1
  0
VERTEX
  5
1C3
  8
BIG_DRAWERS
 10
160.7874378747519
 20
105.4403957152063
 30
0.0
  0
VERTEX
  5
1C4
  8
BIG_DRAWERS
 10
160.9237345695958
 20
106.4756718956141
 30
0.0
  0
VERTEX
  5
1C5
  8
BIG_DRAWERS
 10
160.7874378747519
 20
107.5109480760239
 30
0.0
  0
VERTEX
  5
1C6
  8
BIG_DRAWERS
 10
160.3878361847327
 20
108.4756718956141
 30
0.0
  0
VERTEX
  5
1C7
  8
BIG_DRAWERS
 10
159.7521616943424
 20
109.304099020359
 30
0.0
  0
VERTEX
  5
1C8
  8
BIG_DRAWERS
 10
158.9237345695948
 20
109.9397735107505
 30
0.0
  0
VERTEX
  5
1C9
  8
BIG_DRAWERS
 10
157.9590107500061
 20
110.3393752007723
 30
0.0
  0
VERTEX
  5
1CA
  8
BIG_DRAWERS
 10
156.9237345695953
 20
110.4756718956141
 30
0.0
  0
VERTEX
  5
1CB
  8
BIG_DRAWERS
 10
155.8884583891858
 20
110.3393752007723
 30
0.0
  0
VERTEX
  5
1CC
  8
BIG_DRAWERS
 10
154.9237345695958
 20
109.9397735107505
 30
0.0
  0
VERTEX
  5
1CD
  8
BIG_DRAWERS
 10
154.0953074448495
 20
109.304099020359
 30
0.0
  0
VERTEX
  5
1CE
  8
BIG_DRAWERS
 10
153.4596329544578
 20
108.4756718956141
 30
0.0
  0
VERTEX
  5
1CF
  8
BIG_DRAWERS
 10
153.0600312644403
 20
107.5109480760239
 30
0.0
  0
VERTEX
  5
1D0
  8
BIG_DRAWERS
 10
152.9237345695962
 20
106.4756718956141
 30
0.0
  0
VERTEX
  5
1D1
  8
BIG_DRAWERS
 10
153.0600312644403
 20
105.4403957152063
 30
0.0
  0
VERTEX
  5
1D2
  8
BIG_DRAWERS
 10
153.4596329544578
 20
104.475671895616
 30
0.0
  0
VERTEX
  5
1D3
  8
BIG_DRAWERS
 10
154.0953074448495
 20
103.6472447708675
 30
0.0
  0
VERTEX
  5
1D4
  8
BIG_DRAWERS
 10
154.9237345695958
 20
103.011570280476
 30
0.0
  0
VERTEX
  5
1D5
  8
BIG_DRAWERS
 10
155.8884583891858
 20
102.6119685904578
 30
0.0
  0
VERTEX
  5
1D6
  8
BIG_DRAWERS
 10
156.9237345695953
 20
102.475671895616
 30
0.0
  0
VERTEX
  5
1D7
  8
BIG_DRAWERS
 10
157.9590107500061
 20
102.6119685904578
 30
0.0
  0
VERTEX
  5
1D8
  8
BIG_DRAWERS
 10
158.9237345695962
 20
103.011570280476
 30
0.0
  0
VERTEX
  5
1D9
  8
BIG_DRAWERS
 10
159.7521616943424
 20
103.6472447708675
 30
0.0
  0
VERTEX
  5
1DA
  8
BIG_DRAWERS
 10
160.3878361847327
 20
104.475671895616
 30
0.0
  0
SEQEND
  5
7DF
  8
BIG_DRAWERS
  0
POLYLINE
  5
81
  8
BIG_DRAWERS
 66
     1
 10
0.0
 20
0.0
 30
0.0
 70
     1
  0
VERTEX
  5
1DB
  8
BIG_DRAWERS
 10
525.7874378747508
 20
301.0709480760232
 30
0.0
  0
VERTEX
  5
1DC
  8
BIG_DRAWERS
 10
525.3878361847319
 20
302.0356718956117
 30
0.0
  0
VERTEX
  5
1DD
  8
BIG_DRAWERS
 10
524.7521616943413
 20
302.8640990203565
 30
0.0
  0
VERTEX
  5
1DE
  8
BIG_DRAWERS
 10
523.9237345695938
 20
303.4997735107498
 30
0.0
  0
VERTEX
  5
1DF
  8
BIG_DRAWERS
 10
522.9590107500051
 20
303.8993752007699
 30
0.0
  0
VERTEX
  5
1E0
  8
BIG_DRAWERS
 10
521.9237345695942
 20
304.0356718956117
 30
0.0
  0
VERTEX
  5
1E1
  8
BIG_DRAWERS
 10
520.888458389185
 20
303.8993752007699
 30
0.0
  0
VERTEX
  5
1E2
  8
BIG_DRAWERS
 10
519.9237345695947
 20
303.4997735107498
 30
0.0
  0
VERTEX
  5
1E3
  8
BIG_DRAWERS
 10
519.0953074448487
 20
302.8640990203565
 30
0.0
  0
VERTEX
  5
1E4
  8
BIG_DRAWERS
 10
518.4596329544568
 20
302.0356718956117
 30
0.0
  0
VERTEX
  5
1E5
  8
BIG_DRAWERS
 10
518.0600312644392
 20
301.0709480760232
 30
0.0
  0
VERTEX
  5
1E6
  8
BIG_DRAWERS
 10
517.9237345695951
 20
300.0356718956135
 30
0.0
  0
VERTEX
  5
1E7
  8
BIG_DRAWERS
 10
518.0600312644392
 20
299.0003957152038
 30
0.0
  0
VERTEX
  5
1E8
  8
BIG_DRAWERS
 10
518.4596329544568
 20
298.0356718956135
 30
0.0
  0
VERTEX
  5
1E9
  8
BIG_DRAWERS
 10
519.0953074448487
 20
297.207244770865
 30
0.0
  0
VERTEX
  5
1EA
  8
BIG_DRAWERS
 10
519.9237345695947
 20
296.5715702804736
 30
0.0
  0
VERTEX
  5
1EB
  8
BIG_DRAWERS
 10
520.888458389185
 20
296.1719685904571
 30
0.0
  0
VERTEX
  5
1EC
  8
BIG_DRAWERS
 10
521.9237345695942
 20
296.0356718956135
 30
0.0
  0
VERTEX
  5
1ED
  8
BIG_DRAWERS
 10
522.9590107500051
 20
296.1719685904571
 30
0.0
  0
VERTEX
  5
1EE
  8
BIG_DRAWERS
 10
523.9237345695954
 20
296.5715702804736
 30
0.0
  0
VERTEX
  5
1EF
  8
BIG_DRAWERS
 10
524.7521616943413
 20
297.207244770865
 30
0.0
  0
VERTEX
  5
1F0
  8
BIG_DRAWERS
 10
525.3878361847319
 20
298.0356718956135
 30
0.0
  0
VERTEX
  5
1F1
  8
BIG_DRAWERS
 10
525.7874378747508
 20
299.0003957152038
 30
0.0
  0
VERTEX
  5
1F2
  8
BIG_DRAWERS
 10
525.9237345695949
 20
300.0356718956135
 30
0.0
  0
SEQEND
  5
7E0
  8
BIG_DRAWERS
  0
POLYLINE
  5
82
  8
BIG_DRAWERS
 66
     1
 10
0.0
 20
0.0
 30
0.0
 70
     1
  0
VERTEX
  5
1F3
  8
BIG_DRAWERS
 10
160.7874378747519
 20
299.0003957152039
 30
0.0
  0
VERTEX
  5
1F4
  8
BIG_DRAWERS
 10
160.9237345695958
 20
300.0356718956136
 30
0.0
  0
VERTEX
  5
1F5
  8
BIG_DRAWERS
 10
160.7874378747519
 20
301.0709480760233
 30
0.0
  0
VERTEX
  5
1F6
  8
BIG_DRAWERS
 10
160.3878361847327
 20
302.0356718956118
 30
0.0
  0
VERTEX
  5
1F7
  8
BIG_DRAWERS
 10
159.7521616943424
 20
302.8640990203567
 30
0.0
  0
VERTEX
  5
1F8
  8
BIG_DRAWERS
 10
158.9237345695948
 20
303.4997735107499
 30
0.0
  0
VERTEX
  5
1F9
  8
BIG_DRAWERS
 10
157.9590107500061
 20
303.89937520077
 30
0.0
  0
VERTEX
  5
1FA
  8
BIG_DRAWERS
 10
156.9237345695953
 20
304.0356718956118
 30
0.0
  0
VERTEX
  5
1FB
  8
BIG_DRAWERS
 10
155.8884583891858
 20
303.89937520077
 30
0.0
  0
VERTEX
  5
1FC
  8
BIG_DRAWERS
 10
154.9237345695958
 20
303.4997735107499
 30
0.0
  0
VERTEX
  5
1FD
  8
BIG_DRAWERS
 10
154.0953074448495
 20
302.8640990203567
 30
0.0
  0
VERTEX
  5
1FE
  8
BIG_DRAWERS
 10
153.4596329544578
 20
302.0356718956118
 30
0.0
  0
VERTEX
  5
1FF
  8
BIG_DRAWERS
 10
153.0600312644403
 20
301.0709480760233
 30
0.0
  0
VERTEX
  5
200
  8
BIG_DRAWERS
 10
152.9237345695962
 20
300.0356718956136
 30
0.0
  0
VERTEX
  5
201
  8
BIG_DRAWERS
 10
153.0600312644403
 20
299.0003957152039
 30
0.0
  0
VERTEX
  5
202
  8
BIG_DRAWERS
 10
153.4596329544578
 20
298.0356718956136
 30
0.0
  0
VERTEX
  5
203
  8
BIG_DRAWERS
 10
154.0953074448495
 20
297.2072447708651
 30
0.0
  0
VERTEX
  5
204
  8
BIG_DRAWERS
 10
154.9237345695958
 20
296.5715702804737
 30
0.0
  0
VERTEX
  5
205
  8
BIG_DRAWERS
 10
155.8884583891858
 20
296.1719685904573
 30
0.0
  0
VERTEX
  5
206
  8
BIG_DRAWERS
 10
156.9237345695953
 20
296.0356718956136
 30
0.0
  0
VERTEX
  5
207
  8
BIG_DRAWERS
 10
157.9590107500061
 20
296.1719685904573
 30
0.0
  0
VERTEX
  5
208
  8
BIG_DRAWERS
 10
158.9237345695962
 20
296.5715702804737
 30
0.0
  0
VERTEX
  5
209
  8
BIG_DRAWERS
 10
159.7521616943424
 20
297.2072447708651
 30
0.0
  0
VERTEX
  5
20A
  8
BIG_DRAWERS
 10
160.3878361847327
 20
298.0356718956136
 30
0.0
  0
SEQEND
  5
7E1
  8
BIG_DRAWERS
  0
POLYLINE
  5
83
  8
BIG_DRAWERS
 66
     1
 10
0.0
 20
0.0
 30
0.0
 70
     1
  0
VERTEX
  5
20B
  8
BIG_DRAWERS
 10
525.7874378747508
 20
107.5109480760239
 30
0.0
  0
VERTEX
  5
20C
  8
BIG_DRAWERS
 10
525.3878361847319
 20
108.4756718956141
 30
0.0
  0
VERTEX
  5
20D
  8
BIG_DRAWERS
 10
524.7521616943413
 20
109.304099020359
 30
0.0
  0
VERTEX
  5
20E
  8
BIG_DRAWERS
 10
523.9237345695938
 20
109.9397735107505
 30
0.0
  0
VERTEX
  5
20F
  8
BIG_DRAWERS
 10
522.9590107500051
 20
110.3393752007723
 30
0.0
  0
VERTEX
  5
210
  8
BIG_DRAWERS
 10
521.9237345695942
 20
110.4756718956141
 30
0.0
  0
VERTEX
  5
211
  8
BIG_DRAWERS
 10
520.888458389185
 20
110.3393752007723
 30
0.0
  0
VERTEX
  5
212
  8
BIG_DRAWERS
 10
519.9237345695947
 20
109.9397735107505
 30
0.0
  0
VERTEX
  5
213
  8
BIG_DRAWERS
 10
519.0953074448487
 20
109.304099020359
 30
0.0
  0
VERTEX
  5
214
  8
BIG_DRAWERS
 10
518.4596329544568
 20
108.4756718956141
 30
0.0
  0
VERTEX
  5
215
  8
BIG_DRAWERS
 10
518.0600312644392
 20
107.5109480760239
 30
0.0
  0
VERTEX
  5
216
  8
BIG_DRAWERS
 10
517.9237345695951
 20
106.4756718956141
 30
0.0
  0
VERTEX
  5
217
  8
BIG_DRAWERS
 10
518.0600312644392
 20
105.4403957152063
 30
0.0
  0
VERTEX
  5
218
  8
BIG_DRAWERS
 10
518.4596329544568
 20
104.475671895616
 30
0.0
  0
VERTEX
  5
219
  8
BIG_DRAWERS
 10
519.0953074448487
 20
103.6472447708675
 30
0.0
  0
VERTEX
  5
21A
  8
BIG_DRAWERS
 10
519.9237345695947
 20
103.011570280476
 30
0.0
  0
VERTEX
  5
21B
  8
BIG_DRAWERS
 10
520.888458389185
 20
102.6119685904578
 30
0.0
  0
VERTEX
  5
21C
  8
BIG_DRAWERS
 10
521.9237345695942
 20
102.475671895616
 30
0.0
  0
VERTEX
  5
21D
  8
BIG_DRAWERS
 10
522.9590107500051
 20
102.6119685904578
 30
0.0
  0
VERTEX
  5
21E
  8
BIG_DRAWERS
 10
523.9237345695954
 20
103.011570280476
 30
0.0
  0
VERTEX
  5
21F
  8
BIG_DRAWERS
 10
524.7521616943413
 20
103.6472447708675
 30
0.0
  0
VERTEX
  5
220
  8
BIG_DRAWERS
 10
525.3878361847319
 20
104.475671895616
 30
0.0
  0
VERTEX
  5
221
  8
BIG_DRAWERS
 10
525.7874378747508
 20
105.4403957152063
 30
0.0
  0
VERTEX
  5
222
  8
BIG_DRAWERS
 10
525.9237345695949
 20
106.4756718956141
 30
0.0
  0
SEQEND
  5
7E2
  8
BIG_DRAWERS
  0
POLYLINE
  5
84
  8
BIG_DRAWERS
 66
     1
 10
0.0
 20
0.0
 30
0.0
 70
     1
  0
VERTEX
  5
223
  8
BIG_DRAWERS
 10
67.11291862352391
 20
400.1280519877664
 30
0.0
  0
VERTEX
  5
224
  8
BIG_DRAWERS
 10
74.11291862352391
 20
400.1280519877664
 30
0.0
  0
VERTEX
  5
225
  8
BIG_DRAWERS
 10
74.11291862352391
 20
1166.128051987767
 30
0.0
  0
VERTEX
  5
226
  8
BIG_DRAWERS
 10
67.11291862352391
 20
1166.128051987767
 30
0.0
  0
SEQEND
  5
7E3
  8
BIG_DRAWERS
  0
POLYLINE
  5
85
  8
BIG_DRAWERS
 66
     1
 10
0.0
 20
0.0
 30
0.0
 70
     1
  0
VERTEX
  5
227
  8
BIG_DRAWERS
 10
67.11291862352937
 20
1163.128051987767
 30
0.0
  0
VERTEX
  5
228
  8
BIG_DRAWERS
 10
74.11291862352755
 20
1163.128051987767
 30
0.0
  0
VERTEX
  5
229
  8
BIG_DRAWERS
 10
92.23541862352704
 20
1163.128051987767
 30
0.0
  0
VERTEX
  5
22A
  8
BIG_DRAWERS
 10
92.23541862352707
 20
1151.128051987765
 30
0.0
  0
VERTEX
  5
22B
  8
BIG_DRAWERS
 10
128.4854186235293
 20
1151.128051987765
 30
0.0
  0
VERTEX
  5
22C
  8
BIG_DRAWERS
 10
128.4854186235289
 20
1163.128051987767
 30
0.0
  0
VERTEX
  5
22D
  8
BIG_DRAWERS
 10
164.735418623527
 20
1163.128051987766
 30
0.0
  0
VERTEX
  5
22E
  8
BIG_DRAWERS
 10
164.7354186235244
 20
1151.128051987765
 30
0.0
  0
VERTEX
  5
22F
  8
BIG_DRAWERS
 10
200.9854186235269
 20
1151.128051987765
 30
0.0
  0
VERTEX
  5
230
  8
BIG_DRAWERS
 10
200.985418623527
 20
1163.128051987766
 30
0.0
  0
VERTEX
  5
231
  8
BIG_DRAWERS
 10
267.7954186235247
 20
1163.128051987766
 30
0.0
  0
VERTEX
  5
232
  8
BIG_DRAWERS
 10
267.79541862352
 20
1151.128051987763
 30
0.0
  0
VERTEX
  5
233
  8
BIG_DRAWERS
 10
304.0454186235301
 20
1151.128051987764
 30
0.0
  0
VERTEX
  5
234
  8
BIG_DRAWERS
 10
304.0454186235265
 20
1163.128051987766
 30
0.0
  0
VERTEX
  5
235
  8
BIG_DRAWERS
 10
340.2954186235247
 20
1163.128051987766
 30
0.0
  0
VERTEX
  5
236
  8
BIG_DRAWERS
 10
340.2954186235251
 20
1151.128051987764
 30
0.0
  0
VERTEX
  5
237
  8
BIG_DRAWERS
 10
376.5454186235276
 20
1151.128051987766
 30
0.0
  0
VERTEX
  5
238
  8
BIG_DRAWERS
 10
376.5454186235247
 20
1163.128051987766
 30
0.0
  0
VERTEX
  5
239
  8
BIG_DRAWERS
 10
394.6704186235247
 20
1163.128051987766
 30
0.0
  0
VERTEX
  5
23A
  8
BIG_DRAWERS
 10
394.6704186235247
 20
403.1280519877664
 30
0.0
  0
VERTEX
  5
23B
  8
BIG_DRAWERS
 10
376.5454186235247
 20
403.1280519877664
 30
0.0
  0
VERTEX
  5
23C
  8
BIG_DRAWERS
 10
376.545418623527
 20
415.1280519877684
 30
0.0
  0
VERTEX
  5
23D
  8
BIG_DRAWERS
 10
340.2954186235264
 20
415.1280519877682
 30
0.0
  0
VERTEX
  5
23E
  8
BIG_DRAWERS
 10
340.2954186235247
 20
403.1280519877664
 30
0.0
  0
VERTEX
  5
23F
  8
BIG_DRAWERS
 10
304.0454186235265
 20
403.1280519877664
 30
0.0
  0
VERTEX
  5
240
  8
BIG_DRAWERS
 10
304.0454186235276
 20
415.1280519877681
 30
0.0
  0
VERTEX
  5
241
  8
BIG_DRAWERS
 10
267.7954186235253
 20
415.1280519877685
 30
0.0
  0
VERTEX
  5
242
  8
BIG_DRAWERS
 10
267.7954186235247
 20
403.1280519877665
 30
0.0
  0
VERTEX
  5
243
  8
BIG_DRAWERS
 10
200.985418623527
 20
403.1280519877665
 30
0.0
  0
VERTEX
  5
244
  8
BIG_DRAWERS
 10
200.985418623527
 20
415.1280519877679
 30
0.0
  0
VERTEX
  5
245
  8
BIG_DRAWERS
 10
164.7354186235272
 20
415.1280519877681
 30
0.0
  0
VERTEX
  5
246
  8
BIG_DRAWERS
 10
164.735418623527
 20
403.1280519877664
 30
0.0
  0
VERTEX
  5
247
  8
BIG_DRAWERS
 10
128.4854186235289
 20
403.1280519877664
 30
0.0
  0
VERTEX
  5
248
  8
BIG_DRAWERS
 10
128.4854186235293
 20
415.1280519877682
 30
0.0
  0
VERTEX
  5
249
  8
BIG_DRAWERS
 10
92.2354186235268
 20
415.1280519877681
 30
0.0
  0
VERTEX
  5
24A
  8
BIG_DRAWERS
 10
92.23541862352704
 20
403.1280519877664
 30
0.0
  0
VERTEX
  5
24B
  8
BIG_DRAWERS
 10
74.11291862352755
 20
403.1280519877664
 30
0.0
  0
VERTEX
  5
24C
  8
BIG_DRAWERS
 10
67.11291862352937
 20
403.1280519877664
 30
0.0
  0
VERTEX
  5
24D
  8
BIG_DRAWERS
 10
61.55041862352937
 20
403.1280519877664
 30
0.0
  0
VERTEX
  5
24E
  8
BIG_DRAWERS
 10
61.55041862352937
 20
1163.128051987767
 30
0.0
  0
SEQEND
  5
7E4
  8
BIG_DRAWERS
  0
POLYLINE
  5
86
  8
BIG_DRAWERS
 66
     1
 10
0.0
 20
0.0
 30
0.0
 70
     1
  0
VERTEX
  5
24F
  8
BIG_DRAWERS
 10
669.2921014824069
 20
565.034552787704
 30
0.0
  0
VERTEX
  5
250
  8
BIG_DRAWERS
 10
668.256825301999
 20
565.1708494825479
 30
0.0
  0
VERTEX
  5
251
  8
BIG_DRAWERS
 10
667.2215491215893
 20
565.034552787704
 30
0.0
  0
VERTEX
  5
252
  8
BIG_DRAWERS
 10
666.256825301999
 20
564.6349510976848
 30
0.0
  0
VERTEX
  5
253
  8
BIG_DRAWERS
 10
665.4283981772542
 20
563.9992766072945
 30
0.0
  0
VERTEX
  5
254
  8
BIG_DRAWERS
 10
664.7927236868627
 20
563.1708494825469
 30
0.0
  0
VERTEX
  5
255
  8
BIG_DRAWERS
 10
664.3931219968408
 20
562.2061256629582
 30
0.0
  0
VERTEX
  5
256
  8
BIG_DRAWERS
 10
664.256825301999
 20
561.1708494825474
 30
0.0
  0
VERTEX
  5
257
  8
BIG_DRAWERS
 10
664.3931219968408
 20
560.1355733021379
 30
0.0
  0
VERTEX
  5
258
  8
BIG_DRAWERS
 10
664.7927236868627
 20
559.1708494825479
 30
0.0
  0
VERTEX
  5
259
  8
BIG_DRAWERS
 10
665.4283981772542
 20
558.3424223578016
 30
0.0
  0
VERTEX
  5
25A
  8
BIG_DRAWERS
 10
666.256825301999
 20
557.70674786741
 30
0.0
  0
VERTEX
  5
25B
  8
BIG_DRAWERS
 10
667.2215491215893
 20
557.3071461773924
 30
0.0
  0
VERTEX
  5
25C
  8
BIG_DRAWERS
 10
668.256825301999
 20
557.1708494825483
 30
0.0
  0
VERTEX
  5
25D
  8
BIG_DRAWERS
 10
669.2921014824069
 20
557.3071461773924
 30
0.0
  0
VERTEX
  5
25E
  8
BIG_DRAWERS
 10
670.2568253019972
 20
557.70674786741
 30
0.0
  0
VERTEX
  5
25F
  8
BIG_DRAWERS
 10
671.0852524267457
 20
558.3424223578016
 30
0.0
  0
VERTEX
  5
260
  8
BIG_DRAWERS
 10
671.7209269171371
 20
559.1708494825479
 30
0.0
  0
VERTEX
  5
261
  8
BIG_DRAWERS
 10
672.1205286071554
 20
560.1355733021379
 30
0.0
  0
VERTEX
  5
262
  8
BIG_DRAWERS
 10
672.2568253019972
 20
561.1708494825474
 30
0.0
  0
VERTEX
  5
263
  8
BIG_DRAWERS
 10
672.1205286071554
 20
562.2061256629582
 30
0.0
  0
VERTEX
  5
264
  8
BIG_DRAWERS
 10
671.7209269171371
 20
563.1708494825483
 30
0.0
  0
VERTEX
  5
265
  8
BIG_DRAWERS
 10
671.0852524267457
 20
563.9992766072945
 30
0.0
  0
VERTEX
  5
266
  8
BIG_DRAWERS
 10
670.2568253019972
 20
564.6349510976848
 30
0.0
  0
SEQEND
  5
7E5
  8
BIG_DRAWERS
  0
POLYLINE
  5
87
  8
BIG_DRAWERS
 66
     1
 10
0.0
 20
0.0
 30
0.0
 70
     1
  0
VERTEX
  5
267
  8
BIG_DRAWERS
 10
473.6615491215899
 20
1008.948957798141
 30
0.0
  0
VERTEX
  5
268
  8
BIG_DRAWERS
 10
472.6968253020015
 20
1008.549356108122
 30
0.0
  0
VERTEX
  5
269
  8
BIG_DRAWERS
 10
471.8683981772566
 20
1007.913681617731
 30
0.0
  0
VERTEX
  5
26A
  8
BIG_DRAWERS
 10
471.2327236868633
 20
1007.085254492984
 30
0.0
  0
VERTEX
  5
26B
  8
BIG_DRAWERS
 10
470.8331219968433
 20
1006.120530673395
 30
0.0
  0
VERTEX
  5
26C
  8
BIG_DRAWERS
 10
470.6968253020015
 20
1005.085254492984
 30
0.0
  0
VERTEX
  5
26D
  8
BIG_DRAWERS
 10
470.8331219968433
 20
1004.049978312575
 30
0.0
  0
VERTEX
  5
26E
  8
BIG_DRAWERS
 10
471.2327236868633
 20
1003.085254492985
 30
0.0
  0
VERTEX
  5
26F
  8
BIG_DRAWERS
 10
471.8683981772566
 20
1002.256827368239
 30
0.0
  0
VERTEX
  5
270
  8
BIG_DRAWERS
 10
472.6968253020015
 20
1001.621152877847
 30
0.0
  0
VERTEX
  5
271
  8
BIG_DRAWERS
 10
473.6615491215899
 20
1001.221551187829
 30
0.0
  0
VERTEX
  5
272
  8
BIG_DRAWERS
 10
474.6968253019996
 20
1001.085254492985
 30
0.0
  0
VERTEX
  5
273
  8
BIG_DRAWERS
 10
475.7321014824093
 20
1001.221551187829
 30
0.0
  0
VERTEX
  5
274
  8
BIG_DRAWERS
 10
476.6968253019996
 20
1001.621152877847
 30
0.0
  0
VERTEX
  5
275
  8
BIG_DRAWERS
 10
477.5252524267481
 20
1002.256827368239
 30
0.0
  0
VERTEX
  5
276
  8
BIG_DRAWERS
 10
478.1609269171396
 20
1003.085254492985
 30
0.0
  0
VERTEX
  5
277
  8
BIG_DRAWERS
 10
478.560528607156
 20
1004.049978312575
 30
0.0
  0
VERTEX
  5
278
  8
BIG_DRAWERS
 10
478.6968253019996
 20
1005.085254492984
 30
0.0
  0
VERTEX
  5
279
  8
BIG_DRAWERS
 10
478.560528607156
 20
1006.120530673395
 30
0.0
  0
VERTEX
  5
27A
  8
BIG_DRAWERS
 10
478.1609269171396
 20
1007.085254492985
 30
0.0
  0
VERTEX
  5
27B
  8
BIG_DRAWERS
 10
477.5252524267481
 20
1007.913681617731
 30
0.0
  0
VERTEX
  5
27C
  8
BIG_DRAWERS
 10
476.6968253019996
 20
1008.549356108122
 30
0.0
  0
VERTEX
  5
27D
  8
BIG_DRAWERS
 10
475.7321014824093
 20
1008.948957798141
 30
0.0
  0
VERTEX
  5
27E
  8
BIG_DRAWERS
 10
474.6968253019996
 20
1009.085254492985
 30
0.0
  0
SEQEND
  5
7E6
  8
BIG_DRAWERS
  0
POLYLINE
  5
88
  8
BIG_DRAWERS
 66
     1
 10
0.0
 20
0.0
 30
0.0
 70
     1
  0
VERTEX
  5
27F
  8
BIG_DRAWERS
 10
475.7321014824093
 20
565.034552787704
 30
0.0
  0
VERTEX
  5
280
  8
BIG_DRAWERS
 10
474.6968253019996
 20
565.1708494825479
 30
0.0
  0
VERTEX
  5
281
  8
BIG_DRAWERS
 10
473.6615491215899
 20
565.034552787704
 30
0.0
  0
VERTEX
  5
282
  8
BIG_DRAWERS
 10
472.6968253020015
 20
564.6349510976848
 30
0.0
  0
VERTEX
  5
283
  8
BIG_DRAWERS
 10
471.8683981772566
 20
563.9992766072945
 30
0.0
  0
VERTEX
  5
284
  8
BIG_DRAWERS
 10
471.2327236868633
 20
563.1708494825469
 30
0.0
  0
VERTEX
  5
285
  8
BIG_DRAWERS
 10
470.8331219968433
 20
562.2061256629582
 30
0.0
  0
VERTEX
  5
286
  8
BIG_DRAWERS
 10
470.6968253020015
 20
561.1708494825474
 30
0.0
  0
VERTEX
  5
287
  8
BIG_DRAWERS
 10
470.8331219968433
 20
560.1355733021379
 30
0.0
  0
VERTEX
  5
288
  8
BIG_DRAWERS
 10
471.2327236868633
 20
559.1708494825479
 30
0.0
  0
VERTEX
  5
289
  8
BIG_DRAWERS
 10
471.8683981772566
 20
558.3424223578016
 30
0.0
  0
VERTEX
  5
28A
  8
BIG_DRAWERS
 10
472.6968253020015
 20
557.70674786741
 30
0.0
  0
VERTEX
  5
28B
  8
BIG_DRAWERS
 10
473.6615491215899
 20
557.3071461773924
 30
0.0
  0
VERTEX
  5
28C
  8
BIG_DRAWERS
 10
474.6968253019996
 20
557.1708494825483
 30
0.0
  0
VERTEX
  5
28D
  8
BIG_DRAWERS
 10
475.7321014824093
 20
557.3071461773924
 30
0.0
  0
VERTEX
  5
28E
  8
BIG_DRAWERS
 10
476.6968253019996
 20
557.70674786741
 30
0.0
  0
VERTEX
  5
28F
  8
BIG_DRAWERS
 10
477.5252524267481
 20
558.3424223578016
 30
0.0
  0
VERTEX
  5
290
  8
BIG_DRAWERS
 10
478.1609269171396
 20
559.1708494825479
 30
0.0
  0
VERTEX
  5
291
  8
BIG_DRAWERS
 10
478.560528607156
 20
560.1355733021379
 30
0.0
  0
VERTEX
  5
292
  8
BIG_DRAWERS
 10
478.6968253019996
 20
561.1708494825474
 30
0.0
  0
VERTEX
  5
293
  8
BIG_DRAWERS
 10
478.560528607156
 20
562.2061256629582
 30
0.0
  0
VERTEX
  5
294
  8
BIG_DRAWERS
 10
478.1609269171396
 20
563.1708494825483
 30
0.0
  0
VERTEX
  5
295
  8
BIG_DRAWERS
 10
477.5252524267481
 20
563.9992766072945
 30
0.0
  0
VERTEX
  5
296
  8
BIG_DRAWERS
 10
476.6968253019996
 20
564.6349510976848
 30
0.0
  0
SEQEND
  5
7E7
  8
BIG_DRAWERS
  0
POLYLINE
  5
89
  8
BIG_DRAWERS
 66
     1
 10
0.0
 20
0.0
 30
0.0
 70
     1
  0
VERTEX
  5
297
  8
BIG_DRAWERS
 10
667.2215491215893
 20
1008.948957798141
 30
0.0
  0
VERTEX
  5
298
  8
BIG_DRAWERS
 10
666.256825301999
 20
1008.549356108122
 30
0.0
  0
VERTEX
  5
299
  8
BIG_DRAWERS
 10
665.4283981772542
 20
1007.913681617731
 30
0.0
  0
VERTEX
  5
29A
  8
BIG_DRAWERS
 10
664.7927236868627
 20
1007.085254492984
 30
0.0
  0
VERTEX
  5
29B
  8
BIG_DRAWERS
 10
664.3931219968408
 20
1006.120530673395
 30
0.0
  0
VERTEX
  5
29C
  8
BIG_DRAWERS
 10
664.256825301999
 20
1005.085254492984
 30
0.0
  0
VERTEX
  5
29D
  8
BIG_DRAWERS
 10
664.3931219968408
 20
1004.049978312575
 30
0.0
  0
VERTEX
  5
29E
  8
BIG_DRAWERS
 10
664.7927236868627
 20
1003.085254492985
 30
0.0
  0
VERTEX
  5
29F
  8
BIG_DRAWERS
 10
665.4283981772542
 20
1002.256827368239
 30
0.0
  0
VERTEX
  5
2A0
  8
BIG_DRAWERS
 10
666.256825301999
 20
1001.621152877847
 30
0.0
  0
VERTEX
  5
2A1
  8
BIG_DRAWERS
 10
667.2215491215893
 20
1001.221551187829
 30
0.0
  0
VERTEX
  5
2A2
  8
BIG_DRAWERS
 10
668.256825301999
 20
1001.085254492985
 30
0.0
  0
VERTEX
  5
2A3
  8
BIG_DRAWERS
 10
669.2921014824069
 20
1001.221551187829
 30
0.0
  0
VERTEX
  5
2A4
  8
BIG_DRAWERS
 10
670.2568253019972
 20
1001.621152877847
 30
0.0
  0
VERTEX
  5
2A5
  8
BIG_DRAWERS
 10
671.0852524267457
 20
1002.256827368239
 30
0.0
  0
VERTEX
  5
2A6
  8
BIG_DRAWERS
 10
671.7209269171371
 20
1003.085254492985
 30
0.0
  0
VERTEX
  5
2A7
  8
BIG_DRAWERS
 10
672.1205286071554
 20
1004.049978312575
 30
0.0
  0
VERTEX
  5
2A8
  8
BIG_DRAWERS
 10
672.2568253019972
 20
1005.085254492984
 30
0.0
  0
VERTEX
  5
2A9
  8
BIG_DRAWERS
 10
672.1205286071554
 20
1006.120530673395
 30
0.0
  0
VERTEX
  5
2AA
  8
BIG_DRAWERS
 10
671.7209269171371
 20
1007.085254492985
 30
0.0
  0
VERTEX
  5
2AB
  8
BIG_DRAWERS
 10
671.0852524267457
 20
1007.913681617731
 30
0.0
  0
VERTEX
  5
2AC
  8
BIG_DRAWERS
 10
670.2568253019972
 20
1008.549356108122
 30
0.0
  0
VERTEX
  5
2AD
  8
BIG_DRAWERS
 10
669.2921014824069
 20
1008.948957798141
 30
0.0
  0
VERTEX
  5
2AE
  8
BIG_DRAWERS
 10
668.256825301999
 20
1009.085254492985
 30
0.0
  0
SEQEND
  5
7E8
  8
BIG_DRAWERS
  0
POLYLINE
  5
8A
  8
BIG_DRAWERS
 66
     1
 10
0.0
 20
0.0
 30
0.0
 70
     1
  0
VERTEX
  5
2AF
  8
BIG_DRAWERS
 10
732.6544244669271
 20
1060.628051987766
 30
0.0
  0
VERTEX
  5
2B0
  8
BIG_DRAWERS
 10
732.6544244669271
 20
1134.128051987765
 30
0.0
  0
VERTEX
  5
2B1
  8
BIG_DRAWERS
 10
739.854424466926
 20
1134.128051987765
 30
0.0
  0
VERTEX
  5
2B2
  8
BIG_DRAWERS
 10
739.854424466926
 20
1060.628051987766
 30
0.0
  0
SEQEND
  5
7E9
  8
BIG_DRAWERS
  0
POLYLINE
  5
8B
  8
BIG_DRAWERS
 66
     1
 10
0.0
 20
0.0
 30
0.0
 70
     1
  0
VERTEX
  5
2B3
  8
BIG_DRAWERS
 10
732.6544244669271
 20
873.628051987767
 30
0.0
  0
VERTEX
  5
2B4
  8
BIG_DRAWERS
 10
738.854424466926
 20
873.628051987767
 30
0.0
  0
VERTEX
  5
2B5
  8
BIG_DRAWERS
 10
738.854424466926
 20
973.1280519877672
 30
0.0
  0
VERTEX
  5
2B6
  8
BIG_DRAWERS
 10
732.6544244669271
 20
973.1280519877672
 30
0.0
  0
SEQEND
  5
7EA
  8
BIG_DRAWERS
  0
POLYLINE
  5
8C
  8
BIG_DRAWERS
 66
     1
 10
0.0
 20
0.0
 30
0.0
 70
     1
  0
VERTEX
  5
2B7
  8
BIG_DRAWERS
 10
732.6544244669271
 20
733.3780519877672
 30
0.0
  0
VERTEX
  5
2B8
  8
BIG_DRAWERS
 10
738.854424466926
 20
733.3780519877672
 30
0.0
  0
VERTEX
  5
2B9
  8
BIG_DRAWERS
 10
738.854424466926
 20
832.8780519877677
 30
0.0
  0
VERTEX
  5
2BA
  8
BIG_DRAWERS
 10
732.6544244669271
 20
832.8780519877677
 30
0.0
  0
SEQEND
  5
7EB
  8
BIG_DRAWERS
  0
POLYLINE
  5
8D
  8
BIG_DRAWERS
 66
     1
 10
0.0
 20
0.0
 30
0.0
 70
     1
  0
VERTEX
  5
2BB
  8
BIG_DRAWERS
 10
732.6544244669271
 20
593.1280519877672
 30
0.0
  0
VERTEX
  5
2BC
  8
BIG_DRAWERS
 10
732.6544244669271
 20
692.6280519877663
 30
0.0
  0
VERTEX
  5
2BD
  8
BIG_DRAWERS
 10
738.854424466926
 20
692.6280519877663
 30
0.0
  0
VERTEX
  5
2BE
  8
BIG_DRAWERS
 10
738.854424466926
 20
593.1280519877672
 30
0.0
  0
SEQEND
  5
7EC
  8
BIG_DRAWERS
  0
POLYLINE
  5
8E
  8
BIG_DRAWERS
 66
     1
 10
0.0
 20
0.0
 30
0.0
 70
     1
  0
VERTEX
  5
2BF
  8
BIG_DRAWERS
 10
732.6544244669271
 20
432.128051987768
 30
0.0
  0
VERTEX
  5
2C0
  8
BIG_DRAWERS
 10
738.854424466926
 20
432.128051987768
 30
0.0
  0
VERTEX
  5
2C1
  8
BIG_DRAWERS
 10
738.854424466926
 20
505.628051987767
 30
0.0
  0
VERTEX
  5
2C2
  8
BIG_DRAWERS
 10
732.6544244669271
 20
505.628051987767
 30
0.0
  0
SEQEND
  5
7ED
  8
BIG_DRAWERS
  0
POLYLINE
  5
8F
  8
BIG_DRAWERS
 66
     1
 10
0.0
 20
0.0
 30
0.0
 70
     1
  0
VERTEX
  5
2C3
  8
BIG_DRAWERS
 10
418.2969244669235
 20
400.1280519877664
 30
0.0
  0
VERTEX
  5
2C4
  8
BIG_DRAWERS
 10
425.2969244669235
 20
400.1280519877664
 30
0.0
  0
VERTEX
  5
2C5
  8
BIG_DRAWERS
 10
425.2969244669235
 20
1166.128051987767
 30
0.0
  0
VERTEX
  5
2C6
  8
BIG_DRAWERS
 10
418.2969244669235
 20
1166.128051987767
 30
0.0
  0
SEQEND
  5
7EE
  8
BIG_DRAWERS
  0
POLYLINE
  5
90
  8
BIG_DRAWERS
 66
     1
 10
0.0
 20
0.0
 30
0.0
 70
     1
  0
VERTEX
  5
2C7
  8
BIG_DRAWERS
 10
418.2969244669289
 20
1163.128051987767
 30
0.0
  0
VERTEX
  5
2C8
  8
BIG_DRAWERS
 10
425.2969244669271
 20
1163.128051987767
 30
0.0
  0
VERTEX
  5
2C9
  8
BIG_DRAWERS
 10
443.4194244669266
 20
1163.128051987767
 30
0.0
  0
VERTEX
  5
2CA
  8
BIG_DRAWERS
 10
443.4194244669267
 20
1151.128051987765
 30
0.0
  0
VERTEX
  5
2CB
  8
BIG_DRAWERS
 10
479.6694244669289
 20
1151.128051987765
 30
0.0
  0
VERTEX
  5
2CC
  8
BIG_DRAWERS
 10
479.6694244669284
 20
1163.128051987767
 30
0.0
  0
VERTEX
  5
2CD
  8
BIG_DRAWERS
 10
515.9194244669266
 20
1163.128051987766
 30
0.0
  0
VERTEX
  5
2CE
  8
BIG_DRAWERS
 10
515.9194244669239
 20
1151.128051987765
 30
0.0
  0
VERTEX
  5
2CF
  8
BIG_DRAWERS
 10
552.1694244669264
 20
1151.128051987765
 30
0.0
  0
VERTEX
  5
2D0
  8
BIG_DRAWERS
 10
552.1694244669266
 20
1163.128051987766
 30
0.0
  0
VERTEX
  5
2D1
  8
BIG_DRAWERS
 10
618.9794244669242
 20
1163.128051987766
 30
0.0
  0
VERTEX
  5
2D2
  8
BIG_DRAWERS
 10
618.9794244669197
 20
1151.128051987763
 30
0.0
  0
VERTEX
  5
2D3
  8
BIG_DRAWERS
 10
655.2294244669297
 20
1151.128051987764
 30
0.0
  0
VERTEX
  5
2D4
  8
BIG_DRAWERS
 10
655.229424466926
 20
1163.128051987766
 30
0.0
  0
VERTEX
  5
2D5
  8
BIG_DRAWERS
 10
691.4794244669242
 20
1163.128051987766
 30
0.0
  0
VERTEX
  5
2D6
  8
BIG_DRAWERS
 10
691.4794244669247
 20
1151.128051987764
 30
0.0
  0
VERTEX
  5
2D7
  8
BIG_DRAWERS
 10
727.7294244669272
 20
1151.128051987766
 30
0.0
  0
VERTEX
  5
2D8
  8
BIG_DRAWERS
 10
727.7294244669242
 20
1163.128051987766
 30
0.0
  0
VERTEX
  5
2D9
  8
BIG_DRAWERS
 10
745.8544244669242
 20
1163.128051987766
 30
0.0
  0
VERTEX
  5
2DA
  8
BIG_DRAWERS
 10
745.8544244669242
 20
403.1280519877664
 30
0.0
  0
VERTEX
  5
2DB
  8
BIG_DRAWERS
 10
727.7294244669242
 20
403.1280519877664
 30
0.0
  0
VERTEX
  5
2DC
  8
BIG_DRAWERS
 10
727.7294244669266
 20
415.1280519877684
 30
0.0
  0
VERTEX
  5
2DD
  8
BIG_DRAWERS
 10
691.4794244669259
 20
415.1280519877682
 30
0.0
  0
VERTEX
  5
2DE
  8
BIG_DRAWERS
 10
691.4794244669242
 20
403.1280519877664
 30
0.0
  0
VERTEX
  5
2DF
  8
BIG_DRAWERS
 10
655.229424466926
 20
403.1280519877664
 30
0.0
  0
VERTEX
  5
2E0
  8
BIG_DRAWERS
 10
655.2294244669272
 20
415.1280519877681
 30
0.0
  0
VERTEX
  5
2E1
  8
BIG_DRAWERS
 10
618.9794244669249
 20
415.1280519877685
 30
0.0
  0
VERTEX
  5
2E2
  8
BIG_DRAWERS
 10
618.9794244669242
 20
403.1280519877665
 30
0.0
  0
VERTEX
  5
2E3
  8
BIG_DRAWERS
 10
552.1694244669266
 20
403.1280519877665
 30
0.0
  0
VERTEX
  5
2E4
  8
BIG_DRAWERS
 10
552.1694244669266
 20
415.1280519877679
 30
0.0
  0
VERTEX
  5
2E5
  8
BIG_DRAWERS
 10
515.9194244669268
 20
415.1280519877681
 30
0.0
  0
VERTEX
  5
2E6
  8
BIG_DRAWERS
 10
515.9194244669266
 20
403.1280519877664
 30
0.0
  0
VERTEX
  5
2E7
  8
BIG_DRAWERS
 10
479.6694244669284
 20
403.1280519877664
 30
0.0
  0
VERTEX
  5
2E8
  8
BIG_DRAWERS
 10
479.6694244669289
 20
415.1280519877682
 30
0.0
  0
VERTEX
  5
2E9
  8
BIG_DRAWERS
 10
443.4194244669264
 20
415.1280519877681
 30
0.0
  0
VERTEX
  5
2EA
  8
BIG_DRAWERS
 10
443.4194244669266
 20
403.1280519877664
 30
0.0
  0
VERTEX
  5
2EB
  8
BIG_DRAWERS
 10
425.2969244669271
 20
403.1280519877664
 30
0.0
  0
VERTEX
  5
2EC
  8
BIG_DRAWERS
 10
418.2969244669289
 20
403.1280519877664
 30
0.0
  0
VERTEX
  5
2ED
  8
BIG_DRAWERS
 10
412.7344244669289
 20
403.1280519877664
 30
0.0
  0
VERTEX
  5
2EE
  8
BIG_DRAWERS
 10
412.7344244669289
 20
1163.128051987767
 30
0.0
  0
SEQEND
  5
7EF
  8
BIG_DRAWERS
  0
POLYLINE
  5
91
  8
BIG_DRAWERS
 66
     1
 10
0.0
 20
0.0
 30
0.0
 70
     1
  0
VERTEX
  5
2EF
  8
BIG_DRAWERS
 10
1022.309342861716
 20
565.034552787704
 30
0.0
  0
VERTEX
  5
2F0
  8
BIG_DRAWERS
 10
1021.274066681308
 20
565.1708494825479
 30
0.0
  0
VERTEX
  5
2F1
  8
BIG_DRAWERS
 10
1020.238790500899
 20
565.034552787704
 30
0.0
  0
VERTEX
  5
2F2
  8
BIG_DRAWERS
 10
1019.274066681308
 20
564.6349510976848
 30
0.0
  0
VERTEX
  5
2F3
  8
BIG_DRAWERS
 10
1018.445639556563
 20
563.9992766072945
 30
0.0
  0
VERTEX
  5
2F4
  8
BIG_DRAWERS
 10
1017.809965066172
 20
563.1708494825469
 30
0.0
  0
VERTEX
  5
2F5
  8
BIG_DRAWERS
 10
1017.41036337615
 20
562.2061256629582
 30
0.0
  0
VERTEX
  5
2F6
  8
BIG_DRAWERS
 10
1017.274066681308
 20
561.1708494825474
 30
0.0
  0
VERTEX
  5
2F7
  8
BIG_DRAWERS
 10
1017.41036337615
 20
560.1355733021379
 30
0.0
  0
VERTEX
  5
2F8
  8
BIG_DRAWERS
 10
1017.809965066172
 20
559.1708494825479
 30
0.0
  0
VERTEX
  5
2F9
  8
BIG_DRAWERS
 10
1018.445639556563
 20
558.3424223578016
 30
0.0
  0
VERTEX
  5
2FA
  8
BIG_DRAWERS
 10
1019.274066681308
 20
557.70674786741
 30
0.0
  0
VERTEX
  5
2FB
  8
BIG_DRAWERS
 10
1020.238790500899
 20
557.3071461773924
 30
0.0
  0
VERTEX
  5
2FC
  8
BIG_DRAWERS
 10
1021.274066681308
 20
557.1708494825483
 30
0.0
  0
VERTEX
  5
2FD
  8
BIG_DRAWERS
 10
1022.309342861716
 20
557.3071461773924
 30
0.0
  0
VERTEX
  5
2FE
  8
BIG_DRAWERS
 10
1023.274066681307
 20
557.70674786741
 30
0.0
  0
VERTEX
  5
2FF
  8
BIG_DRAWERS
 10
1024.102493806055
 20
558.3424223578016
 30
0.0
  0
VERTEX
  5
300
  8
BIG_DRAWERS
 10
1024.738168296446
 20
559.1708494825479
 30
0.0
  0
VERTEX
  5
301
  8
BIG_DRAWERS
 10
1025.137769986465
 20
560.1355733021379
 30
0.0
  0
VERTEX
  5
302
  8
BIG_DRAWERS
 10
1025.274066681307
 20
561.1708494825474
 30
0.0
  0
VERTEX
  5
303
  8
BIG_DRAWERS
 10
1025.137769986465
 20
562.2061256629582
 30
0.0
  0
VERTEX
  5
304
  8
BIG_DRAWERS
 10
1024.738168296446
 20
563.1708494825483
 30
0.0
  0
VERTEX
  5
305
  8
BIG_DRAWERS
 10
1024.102493806055
 20
563.9992766072945
 30
0.0
  0
VERTEX
  5
306
  8
BIG_DRAWERS
 10
1023.274066681307
 20
564.6349510976848
 30
0.0
  0
SEQEND
  5
7F0
  8
BIG_DRAWERS
  0
POLYLINE
  5
92
  8
BIG_DRAWERS
 66
     1
 10
0.0
 20
0.0
 30
0.0
 70
     1
  0
VERTEX
  5
307
  8
BIG_DRAWERS
 10
826.6787905008993
 20
1008.948957798141
 30
0.0
  0
VERTEX
  5
308
  8
BIG_DRAWERS
 10
825.7140666813108
 20
1008.549356108122
 30
0.0
  0
VERTEX
  5
309
  8
BIG_DRAWERS
 10
824.8856395565659
 20
1007.913681617731
 30
0.0
  0
VERTEX
  5
30A
  8
BIG_DRAWERS
 10
824.2499650661726
 20
1007.085254492984
 30
0.0
  0
VERTEX
  5
30B
  8
BIG_DRAWERS
 10
823.8503633761526
 20
1006.120530673395
 30
0.0
  0
VERTEX
  5
30C
  8
BIG_DRAWERS
 10
823.7140666813108
 20
1005.085254492984
 30
0.0
  0
VERTEX
  5
30D
  8
BIG_DRAWERS
 10
823.8503633761526
 20
1004.049978312575
 30
0.0
  0
VERTEX
  5
30E
  8
BIG_DRAWERS
 10
824.2499650661726
 20
1003.085254492985
 30
0.0
  0
VERTEX
  5
30F
  8
BIG_DRAWERS
 10
824.8856395565659
 20
1002.256827368239
 30
0.0
  0
VERTEX
  5
310
  8
BIG_DRAWERS
 10
825.7140666813108
 20
1001.621152877847
 30
0.0
  0
VERTEX
  5
311
  8
BIG_DRAWERS
 10
826.6787905008993
 20
1001.221551187829
 30
0.0
  0
VERTEX
  5
312
  8
BIG_DRAWERS
 10
827.714066681309
 20
1001.085254492985
 30
0.0
  0
VERTEX
  5
313
  8
BIG_DRAWERS
 10
828.7493428617187
 20
1001.221551187829
 30
0.0
  0
VERTEX
  5
314
  8
BIG_DRAWERS
 10
829.714066681309
 20
1001.621152877847
 30
0.0
  0
VERTEX
  5
315
  8
BIG_DRAWERS
 10
830.5424938060575
 20
1002.256827368239
 30
0.0
  0
VERTEX
  5
316
  8
BIG_DRAWERS
 10
831.1781682964489
 20
1003.085254492985
 30
0.0
  0
VERTEX
  5
317
  8
BIG_DRAWERS
 10
831.5777699864653
 20
1004.049978312575
 30
0.0
  0
VERTEX
  5
318
  8
BIG_DRAWERS
 10
831.714066681309
 20
1005.085254492984
 30
0.0
  0
VERTEX
  5
319
  8
BIG_DRAWERS
 10
831.5777699864653
 20
1006.120530673395
 30
0.0
  0
VERTEX
  5
31A
  8
BIG_DRAWERS
 10
831.1781682964489
 20
1007.085254492985
 30
0.0
  0
VERTEX
  5
31B
  8
BIG_DRAWERS
 10
830.5424938060575
 20
1007.913681617731
 30
0.0
  0
VERTEX
  5
31C
  8
BIG_DRAWERS
 10
829.714066681309
 20
1008.549356108122
 30
0.0
  0
VERTEX
  5
31D
  8
BIG_DRAWERS
 10
828.7493428617187
 20
1008.948957798141
 30
0.0
  0
VERTEX
  5
31E
  8
BIG_DRAWERS
 10
827.714066681309
 20
1009.085254492985
 30
0.0
  0
SEQEND
  5
7F1
  8
BIG_DRAWERS
  0
POLYLINE
  5
93
  8
BIG_DRAWERS
 66
     1
 10
0.0
 20
0.0
 30
0.0
 70
     1
  0
VERTEX
  5
31F
  8
BIG_DRAWERS
 10
828.7493428617187
 20
565.034552787704
 30
0.0
  0
VERTEX
  5
320
  8
BIG_DRAWERS
 10
827.714066681309
 20
565.1708494825479
 30
0.0
  0
VERTEX
  5
321
  8
BIG_DRAWERS
 10
826.6787905008993
 20
565.034552787704
 30
0.0
  0
VERTEX
  5
322
  8
BIG_DRAWERS
 10
825.7140666813108
 20
564.6349510976848
 30
0.0
  0
VERTEX
  5
323
  8
BIG_DRAWERS
 10
824.8856395565659
 20
563.9992766072945
 30
0.0
  0
VERTEX
  5
324
  8
BIG_DRAWERS
 10
824.2499650661726
 20
563.1708494825469
 30
0.0
  0
VERTEX
  5
325
  8
BIG_DRAWERS
 10
823.8503633761526
 20
562.2061256629582
 30
0.0
  0
VERTEX
  5
326
  8
BIG_DRAWERS
 10
823.7140666813108
 20
561.1708494825474
 30
0.0
  0
VERTEX
  5
327
  8
BIG_DRAWERS
 10
823.8503633761526
 20
560.1355733021379
 30
0.0
  0
VERTEX
  5
328
  8
BIG_DRAWERS
 10
824.2499650661726
 20
559.1708494825479
 30
0.0
  0
VERTEX
  5
329
  8
BIG_DRAWERS
 10
824.8856395565659
 20
558.3424223578016
 30
0.0
  0
VERTEX
  5
32A
  8
BIG_DRAWERS
 10
825.7140666813108
 20
557.70674786741
 30
0.0
  0
VERTEX
  5
32B
  8
BIG_DRAWERS
 10
826.6787905008993
 20
557.3071461773924
 30
0.0
  0
VERTEX
  5
32C
  8
BIG_DRAWERS
 10
827.714066681309
 20
557.1708494825483
 30
0.0
  0
VERTEX
  5
32D
  8
BIG_DRAWERS
 10
828.7493428617187
 20
557.3071461773924
 30
0.0
  0
VERTEX
  5
32E
  8
BIG_DRAWERS
 10
829.714066681309
 20
557.70674786741
 30
0.0
  0
VERTEX
  5
32F
  8
BIG_DRAWERS
 10
830.5424938060575
 20
558.3424223578016
 30
0.0
  0
VERTEX
  5
330
  8
BIG_DRAWERS
 10
831.1781682964489
 20
559.1708494825479
 30
0.0
  0
VERTEX
  5
331
  8
BIG_DRAWERS
 10
831.5777699864653
 20
560.1355733021379
 30
0.0
  0
VERTEX
  5
332
  8
BIG_DRAWERS
 10
831.714066681309
 20
561.1708494825474
 30
0.0
  0
VERTEX
  5
333
  8
BIG_DRAWERS
 10
831.5777699864653
 20
562.2061256629582
 30
0.0
  0
VERTEX
  5
334
  8
BIG_DRAWERS
 10
831.1781682964489
 20
563.1708494825483
 30
0.0
  0
VERTEX
  5
335
  8
BIG_DRAWERS
 10
830.5424938060575
 20
563.9992766072945
 30
0.0
  0
VERTEX
  5
336
  8
BIG_DRAWERS
 10
829.714066681309
 20
564.6349510976848
 30
0.0
  0
SEQEND
  5
7F2
  8
BIG_DRAWERS
  0
POLYLINE
  5
94
  8
BIG_DRAWERS
 66
     1
 10
0.0
 20
0.0
 30
0.0
 70
     1
  0
VERTEX
  5
337
  8
BIG_DRAWERS
 10
1020.238790500899
 20
1008.948957798141
 30
0.0
  0
VERTEX
  5
338
  8
BIG_DRAWERS
 10
1019.274066681308
 20
1008.549356108122
 30
0.0
  0
VERTEX
  5
339
  8
BIG_DRAWERS
 10
1018.445639556563
 20
1007.913681617731
 30
0.0
  0
VERTEX
  5
33A
  8
BIG_DRAWERS
 10
1017.809965066172
 20
1007.085254492984
 30
0.0
  0
VERTEX
  5
33B
  8
BIG_DRAWERS
 10
1017.41036337615
 20
1006.120530673395
 30
0.0
  0
VERTEX
  5
33C
  8
BIG_DRAWERS
 10
1017.274066681308
 20
1005.085254492984
 30
0.0
  0
VERTEX
  5
33D
  8
BIG_DRAWERS
 10
1017.41036337615
 20
1004.049978312575
 30
0.0
  0
VERTEX
  5
33E
  8
BIG_DRAWERS
 10
1017.809965066172
 20
1003.085254492985
 30
0.0
  0
VERTEX
  5
33F
  8
BIG_DRAWERS
 10
1018.445639556563
 20
1002.256827368239
 30
0.0
  0
VERTEX
  5
340
  8
BIG_DRAWERS
 10
1019.274066681308
 20
1001.621152877847
 30
0.0
  0
VERTEX
  5
341
  8
BIG_DRAWERS
 10
1020.238790500899
 20
1001.221551187829
 30
0.0
  0
VERTEX
  5
342
  8
BIG_DRAWERS
 10
1021.274066681308
 20
1001.085254492985
 30
0.0
  0
VERTEX
  5
343
  8
BIG_DRAWERS
 10
1022.309342861716
 20
1001.221551187829
 30
0.0
  0
VERTEX
  5
344
  8
BIG_DRAWERS
 10
1023.274066681307
 20
1001.621152877847
 30
0.0
  0
VERTEX
  5
345
  8
BIG_DRAWERS
 10
1024.102493806055
 20
1002.256827368239
 30
0.0
  0
VERTEX
  5
346
  8
BIG_DRAWERS
 10
1024.738168296446
 20
1003.085254492985
 30
0.0
  0
VERTEX
  5
347
  8
BIG_DRAWERS
 10
1025.137769986465
 20
1004.049978312575
 30
0.0
  0
VERTEX
  5
348
  8
BIG_DRAWERS
 10
1025.274066681307
 20
1005.085254492984
 30
0.0
  0
VERTEX
  5
349
  8
BIG_DRAWERS
 10
1025.137769986465
 20
1006.120530673395
 30
0.0
  0
VERTEX
  5
34A
  8
BIG_DRAWERS
 10
1024.738168296446
 20
1007.085254492985
 30
0.0
  0
VERTEX
  5
34B
  8
BIG_DRAWERS
 10
1024.102493806055
 20
1007.913681617731
 30
0.0
  0
VERTEX
  5
34C
  8
BIG_DRAWERS
 10
1023.274066681307
 20
1008.549356108122
 30
0.0
  0
VERTEX
  5
34D
  8
BIG_DRAWERS
 10
1022.309342861716
 20
1008.948957798141
 30
0.0
  0
VERTEX
  5
34E
  8
BIG_DRAWERS
 10
1021.274066681308
 20
1009.085254492985
 30
0.0
  0
SEQEND
  5
7F3
  8
BIG_DRAWERS
  0
POLYLINE
  5
95
  8
BIG_DRAWERS
 66
     1
 10
0.0
 20
0.0
 30
0.0
 70
     1
  0
VERTEX
  5
34F
  8
BIG_DRAWERS
 10
1085.671665846236
 20
1060.628051987766
 30
0.0
  0
VERTEX
  5
350
  8
BIG_DRAWERS
 10
1085.671665846236
 20
1134.128051987765
 30
0.0
  0
VERTEX
  5
351
  8
BIG_DRAWERS
 10
1092.871665846235
 20
1134.128051987765
 30
0.0
  0
VERTEX
  5
352
  8
BIG_DRAWERS
 10
1092.871665846235
 20
1060.628051987766
 30
0.0
  0
SEQEND
  5
7F4
  8
BIG_DRAWERS
  0
POLYLINE
  5
96
  8
BIG_DRAWERS
 66
     1
 10
0.0
 20
0.0
 30
0.0
 70
     1
  0
VERTEX
  5
353
  8
BIG_DRAWERS
 10
1085.671665846236
 20
873.628051987767
 30
0.0
  0
VERTEX
  5
354
  8
BIG_DRAWERS
 10
1091.871665846235
 20
873.628051987767
 30
0.0
  0
VERTEX
  5
355
  8
BIG_DRAWERS
 10
1091.871665846235
 20
973.1280519877672
 30
0.0
  0
VERTEX
  5
356
  8
BIG_DRAWERS
 10
1085.671665846236
 20
973.1280519877672
 30
0.0
  0
SEQEND
  5
7F5
  8
BIG_DRAWERS
  0
POLYLINE
  5
97
  8
BIG_DRAWERS
 66
     1
 10
0.0
 20
0.0
 30
0.0
 70
     1
  0
VERTEX
  5
357
  8
BIG_DRAWERS
 10
1085.671665846236
 20
733.3780519877672
 30
0.0
  0
VERTEX
  5
358
  8
BIG_DRAWERS
 10
1091.871665846235
 20
733.3780519877672
 30
0.0
  0
VERTEX
  5
359
  8
BIG_DRAWERS
 10
1091.871665846235
 20
832.8780519877677
 30
0.0
  0
VERTEX
  5
35A
  8
BIG_DRAWERS
 10
1085.671665846236
 20
832.8780519877677
 30
0.0
  0
SEQEND
  5
7F6
  8
BIG_DRAWERS
  0
POLYLINE
  5
98
  8
BIG_DRAWERS
 66
     1
 10
0.0
 20
0.0
 30
0.0
 70
     1
  0
VERTEX
  5
35B
  8
BIG_DRAWERS
 10
1085.671665846236
 20
593.1280519877672
 30
0.0
  0
VERTEX
  5
35C
  8
BIG_DRAWERS
 10
1085.671665846236
 20
692.6280519877663
 30
0.0
  0
VERTEX
  5
35D
  8
BIG_DRAWERS
 10
1091.871665846235
 20
692.6280519877663
 30
0.0
  0
VERTEX
  5
35E
  8
BIG_DRAWERS
 10
1091.871665846235
 20
593.1280519877672
 30
0.0
  0
SEQEND
  5
7F7
  8
BIG_DRAWERS
  0
POLYLINE
  5
99
  8
BIG_DRAWERS
 66
     1
 10
0.0
 20
0.0
 30
0.0
 70
     1
  0
VERTEX
  5
35F
  8
BIG_DRAWERS
 10
1085.671665846236
 20
432.128051987768
 30
0.0
  0
VERTEX
  5
360
  8
BIG_DRAWERS
 10
1091.871665846235
 20
432.128051987768
 30
0.0
  0
VERTEX
  5
361
  8
BIG_DRAWERS
 10
1091.871665846235
 20
505.628051987767
 30
0.0
  0
VERTEX
  5
362
  8
BIG_DRAWERS
 10
1085.671665846236
 20
505.628051987767
 30
0.0
  0
SEQEND
  5
7F8
  8
BIG_DRAWERS
  0
POLYLINE
  5
9A
  8
BIG_DRAWERS
 66
     1
 10
0.0
 20
0.0
 30
0.0
 70
     1
  0
VERTEX
  5
363
  8
BIG_DRAWERS
 10
771.3141658462328
 20
400.1280519877664
 30
0.0
  0
VERTEX
  5
364
  8
BIG_DRAWERS
 10
778.3141658462328
 20
400.1280519877664
 30
0.0
  0
VERTEX
  5
365
  8
BIG_DRAWERS
 10
778.3141658462328
 20
1166.128051987767
 30
0.0
  0
VERTEX
  5
366
  8
BIG_DRAWERS
 10
771.3141658462328
 20
1166.128051987767
 30
0.0
  0
SEQEND
  5
7F9
  8
BIG_DRAWERS
  0
POLYLINE
  5
9B
  8
BIG_DRAWERS
 66
     1
 10
0.0
 20
0.0
 30
0.0
 70
     1
  0
VERTEX
  5
367
  8
BIG_DRAWERS
 10
771.3141658462382
 20
1163.128051987767
 30
0.0
  0
VERTEX
  5
368
  8
BIG_DRAWERS
 10
778.3141658462364
 20
1163.128051987767
 30
0.0
  0
VERTEX
  5
369
  8
BIG_DRAWERS
 10
796.4366658462359
 20
1163.128051987767
 30
0.0
  0
VERTEX
  5
36A
  8
BIG_DRAWERS
 10
796.436665846236
 20
1151.128051987765
 30
0.0
  0
VERTEX
  5
36B
  8
BIG_DRAWERS
 10
832.6866658462383
 20
1151.128051987765
 30
0.0
  0
VERTEX
  5
36C
  8
BIG_DRAWERS
 10
832.6866658462377
 20
1163.128051987767
 30
0.0
  0
VERTEX
  5
36D
  8
BIG_DRAWERS
 10
868.9366658462359
 20
1163.128051987766
 30
0.0
  0
VERTEX
  5
36E
  8
BIG_DRAWERS
 10
868.9366658462333
 20
1151.128051987765
 30
0.0
  0
VERTEX
  5
36F
  8
BIG_DRAWERS
 10
905.1866658462358
 20
1151.128051987765
 30
0.0
  0
VERTEX
  5
370
  8
BIG_DRAWERS
 10
905.1866658462359
 20
1163.128051987766
 30
0.0
  0
VERTEX
  5
371
  8
BIG_DRAWERS
 10
971.9966658462336
 20
1163.128051987766
 30
0.0
  0
VERTEX
  5
372
  8
BIG_DRAWERS
 10
971.996665846229
 20
1151.128051987763
 30
0.0
  0
VERTEX
  5
373
  8
BIG_DRAWERS
 10
1008.246665846239
 20
1151.128051987764
 30
0.0
  0
VERTEX
  5
374
  8
BIG_DRAWERS
 10
1008.246665846235
 20
1163.128051987766
 30
0.0
  0
VERTEX
  5
375
  8
BIG_DRAWERS
 10
1044.496665846234
 20
1163.128051987766
 30
0.0
  0
VERTEX
  5
376
  8
BIG_DRAWERS
 10
1044.496665846234
 20
1151.128051987764
 30
0.0
  0
VERTEX
  5
377
  8
BIG_DRAWERS
 10
1080.746665846237
 20
1151.128051987766
 30
0.0
  0
VERTEX
  5
378
  8
BIG_DRAWERS
 10
1080.746665846234
 20
1163.128051987766
 30
0.0
  0
VERTEX
  5
379
  8
BIG_DRAWERS
 10
1098.871665846234
 20
1163.128051987766
 30
0.0
  0
VERTEX
  5
37A
  8
BIG_DRAWERS
 10
1098.871665846234
 20
403.1280519877664
 30
0.0
  0
VERTEX
  5
37B
  8
BIG_DRAWERS
 10
1080.746665846234
 20
403.1280519877664
 30
0.0
  0
VERTEX
  5
37C
  8
BIG_DRAWERS
 10
1080.746665846236
 20
415.1280519877684
 30
0.0
  0
VERTEX
  5
37D
  8
BIG_DRAWERS
 10
1044.496665846235
 20
415.1280519877682
 30
0.0
  0
VERTEX
  5
37E
  8
BIG_DRAWERS
 10
1044.496665846234
 20
403.1280519877664
 30
0.0
  0
VERTEX
  5
37F
  8
BIG_DRAWERS
 10
1008.246665846235
 20
403.1280519877664
 30
0.0
  0
VERTEX
  5
380
  8
BIG_DRAWERS
 10
1008.246665846237
 20
415.1280519877681
 30
0.0
  0
VERTEX
  5
381
  8
BIG_DRAWERS
 10
971.9966658462342
 20
415.1280519877685
 30
0.0
  0
VERTEX
  5
382
  8
BIG_DRAWERS
 10
971.9966658462336
 20
403.1280519877665
 30
0.0
  0
VERTEX
  5
383
  8
BIG_DRAWERS
 10
905.1866658462359
 20
403.1280519877665
 30
0.0
  0
VERTEX
  5
384
  8
BIG_DRAWERS
 10
905.1866658462359
 20
415.1280519877679
 30
0.0
  0
VERTEX
  5
385
  8
BIG_DRAWERS
 10
868.9366658462361
 20
415.1280519877681
 30
0.0
  0
VERTEX
  5
386
  8
BIG_DRAWERS
 10
868.9366658462359
 20
403.1280519877664
 30
0.0
  0
VERTEX
  5
387
  8
BIG_DRAWERS
 10
832.6866658462377
 20
403.1280519877664
 30
0.0
  0
VERTEX
  5
388
  8
BIG_DRAWERS
 10
832.6866658462383
 20
415.1280519877682
 30
0.0
  0
VERTEX
  5
389
  8
BIG_DRAWERS
 10
796.4366658462357
 20
415.1280519877681
 30
0.0
  0
VERTEX
  5
38A
  8
BIG_DRAWERS
 10
796.4366658462359
 20
403.1280519877664
 30
0.0
  0
VERTEX
  5
38B
  8
BIG_DRAWERS
 10
778.3141658462364
 20
403.1280519877664
 30
0.0
  0
VERTEX
  5
38C
  8
BIG_DRAWERS
 10
771.3141658462382
 20
403.1280519877664
 30
0.0
  0
VERTEX
  5
38D
  8
BIG_DRAWERS
 10
765.7516658462382
 20
403.1280519877664
 30
0.0
  0
VERTEX
  5
38E
  8
BIG_DRAWERS
 10
765.7516658462382
 20
1163.128051987767
 30
0.0
  0
SEQEND
  5
7FA
  8
BIG_DRAWERS
  0
POLYLINE
  5
9C
  8
BIG_DRAWERS
 66
     1
 10
0.0
 20
0.0
 30
0.0
 70
     1
  0
VERTEX
  5
38F
  8
BIG_DRAWERS
 10
1375.326584241026
 20
565.034552787704
 30
0.0
  0
VERTEX
  5
390
  8
BIG_DRAWERS
 10
1374.291308060618
 20
565.1708494825479
 30
0.0
  0
VERTEX
  5
391
  8
BIG_DRAWERS
 10
1373.256031880208
 20
565.034552787704
 30
0.0
  0
VERTEX
  5
392
  8
BIG_DRAWERS
 10
1372.291308060618
 20
564.6349510976848
 30
0.0
  0
VERTEX
  5
393
  8
BIG_DRAWERS
 10
1371.462880935873
 20
563.9992766072945
 30
0.0
  0
VERTEX
  5
394
  8
BIG_DRAWERS
 10
1370.827206445481
 20
563.1708494825469
 30
0.0
  0
VERTEX
  5
395
  8
BIG_DRAWERS
 10
1370.427604755459
 20
562.2061256629582
 30
0.0
  0
VERTEX
  5
396
  8
BIG_DRAWERS
 10
1370.291308060618
 20
561.1708494825474
 30
0.0
  0
VERTEX
  5
397
  8
BIG_DRAWERS
 10
1370.427604755459
 20
560.1355733021379
 30
0.0
  0
VERTEX
  5
398
  8
BIG_DRAWERS
 10
1370.827206445481
 20
559.1708494825479
 30
0.0
  0
VERTEX
  5
399
  8
BIG_DRAWERS
 10
1371.462880935873
 20
558.3424223578016
 30
0.0
  0
VERTEX
  5
39A
  8
BIG_DRAWERS
 10
1372.291308060618
 20
557.70674786741
 30
0.0
  0
VERTEX
  5
39B
  8
BIG_DRAWERS
 10
1373.256031880208
 20
557.3071461773924
 30
0.0
  0
VERTEX
  5
39C
  8
BIG_DRAWERS
 10
1374.291308060618
 20
557.1708494825483
 30
0.0
  0
VERTEX
  5
39D
  8
BIG_DRAWERS
 10
1375.326584241026
 20
557.3071461773924
 30
0.0
  0
VERTEX
  5
39E
  8
BIG_DRAWERS
 10
1376.291308060616
 20
557.70674786741
 30
0.0
  0
VERTEX
  5
39F
  8
BIG_DRAWERS
 10
1377.119735185364
 20
558.3424223578016
 30
0.0
  0
VERTEX
  5
3A0
  8
BIG_DRAWERS
 10
1377.755409675756
 20
559.1708494825479
 30
0.0
  0
VERTEX
  5
3A1
  8
BIG_DRAWERS
 10
1378.155011365774
 20
560.1355733021379
 30
0.0
  0
VERTEX
  5
3A2
  8
BIG_DRAWERS
 10
1378.291308060616
 20
561.1708494825474
 30
0.0
  0
VERTEX
  5
3A3
  8
BIG_DRAWERS
 10
1378.155011365774
 20
562.2061256629582
 30
0.0
  0
VERTEX
  5
3A4
  8
BIG_DRAWERS
 10
1377.755409675756
 20
563.1708494825483
 30
0.0
  0
VERTEX
  5
3A5
  8
BIG_DRAWERS
 10
1377.119735185364
 20
563.9992766072945
 30
0.0
  0
VERTEX
  5
3A6
  8
BIG_DRAWERS
 10
1376.291308060616
 20
564.6349510976848
 30
0.0
  0
SEQEND
  5
7FB
  8
BIG_DRAWERS
  0
POLYLINE
  5
9D
  8
BIG_DRAWERS
 66
     1
 10
0.0
 20
0.0
 30
0.0
 70
     1
  0
VERTEX
  5
3A7
  8
BIG_DRAWERS
 10
1179.696031880208
 20
1008.948957798141
 30
0.0
  0
VERTEX
  5
3A8
  8
BIG_DRAWERS
 10
1178.73130806062
 20
1008.549356108122
 30
0.0
  0
VERTEX
  5
3A9
  8
BIG_DRAWERS
 10
1177.902880935875
 20
1007.913681617731
 30
0.0
  0
VERTEX
  5
3AA
  8
BIG_DRAWERS
 10
1177.267206445482
 20
1007.085254492984
 30
0.0
  0
VERTEX
  5
3AB
  8
BIG_DRAWERS
 10
1176.867604755462
 20
1006.120530673395
 30
0.0
  0
VERTEX
  5
3AC
  8
BIG_DRAWERS
 10
1176.73130806062
 20
1005.085254492984
 30
0.0
  0
VERTEX
  5
3AD
  8
BIG_DRAWERS
 10
1176.867604755462
 20
1004.049978312575
 30
0.0
  0
VERTEX
  5
3AE
  8
BIG_DRAWERS
 10
1177.267206445482
 20
1003.085254492985
 30
0.0
  0
VERTEX
  5
3AF
  8
BIG_DRAWERS
 10
1177.902880935875
 20
1002.256827368239
 30
0.0
  0
VERTEX
  5
3B0
  8
BIG_DRAWERS
 10
1178.73130806062
 20
1001.621152877847
 30
0.0
  0
VERTEX
  5
3B1
  8
BIG_DRAWERS
 10
1179.696031880208
 20
1001.221551187829
 30
0.0
  0
VERTEX
  5
3B2
  8
BIG_DRAWERS
 10
1180.731308060618
 20
1001.085254492985
 30
0.0
  0
VERTEX
  5
3B3
  8
BIG_DRAWERS
 10
1181.766584241028
 20
1001.221551187829
 30
0.0
  0
VERTEX
  5
3B4
  8
BIG_DRAWERS
 10
1182.731308060618
 20
1001.621152877847
 30
0.0
  0
VERTEX
  5
3B5
  8
BIG_DRAWERS
 10
1183.559735185367
 20
1002.256827368239
 30
0.0
  0
VERTEX
  5
3B6
  8
BIG_DRAWERS
 10
1184.195409675758
 20
1003.085254492985
 30
0.0
  0
VERTEX
  5
3B7
  8
BIG_DRAWERS
 10
1184.595011365775
 20
1004.049978312575
 30
0.0
  0
VERTEX
  5
3B8
  8
BIG_DRAWERS
 10
1184.731308060618
 20
1005.085254492984
 30
0.0
  0
VERTEX
  5
3B9
  8
BIG_DRAWERS
 10
1184.595011365775
 20
1006.120530673395
 30
0.0
  0
VERTEX
  5
3BA
  8
BIG_DRAWERS
 10
1184.195409675758
 20
1007.085254492985
 30
0.0
  0
VERTEX
  5
3BB
  8
BIG_DRAWERS
 10
1183.559735185367
 20
1007.913681617731
 30
0.0
  0
VERTEX
  5
3BC
  8
BIG_DRAWERS
 10
1182.731308060618
 20
1008.549356108122
 30
0.0
  0
VERTEX
  5
3BD
  8
BIG_DRAWERS
 10
1181.766584241028
 20
1008.948957798141
 30
0.0
  0
VERTEX
  5
3BE
  8
BIG_DRAWERS
 10
1180.731308060618
 20
1009.085254492985
 30
0.0
  0
SEQEND
  5
7FC
  8
BIG_DRAWERS
  0
POLYLINE
  5
9E
  8
BIG_DRAWERS
 66
     1
 10
0.0
 20
0.0
 30
0.0
 70
     1
  0
VERTEX
  5
3BF
  8
BIG_DRAWERS
 10
1181.766584241028
 20
565.034552787704
 30
0.0
  0
VERTEX
  5
3C0
  8
BIG_DRAWERS
 10
1180.731308060618
 20
565.1708494825479
 30
0.0
  0
VERTEX
  5
3C1
  8
BIG_DRAWERS
 10
1179.696031880208
 20
565.034552787704
 30
0.0
  0
VERTEX
  5
3C2
  8
BIG_DRAWERS
 10
1178.73130806062
 20
564.6349510976848
 30
0.0
  0
VERTEX
  5
3C3
  8
BIG_DRAWERS
 10
1177.902880935875
 20
563.9992766072945
 30
0.0
  0
VERTEX
  5
3C4
  8
BIG_DRAWERS
 10
1177.267206445482
 20
563.1708494825469
 30
0.0
  0
VERTEX
  5
3C5
  8
BIG_DRAWERS
 10
1176.867604755462
 20
562.2061256629582
 30
0.0
  0
VERTEX
  5
3C6
  8
BIG_DRAWERS
 10
1176.73130806062
 20
561.1708494825474
 30
0.0
  0
VERTEX
  5
3C7
  8
BIG_DRAWERS
 10
1176.867604755462
 20
560.1355733021379
 30
0.0
  0
VERTEX
  5
3C8
  8
BIG_DRAWERS
 10
1177.267206445482
 20
559.1708494825479
 30
0.0
  0
VERTEX
  5
3C9
  8
BIG_DRAWERS
 10
1177.902880935875
 20
558.3424223578016
 30
0.0
  0
VERTEX
  5
3CA
  8
BIG_DRAWERS
 10
1178.73130806062
 20
557.70674786741
 30
0.0
  0
VERTEX
  5
3CB
  8
BIG_DRAWERS
 10
1179.696031880208
 20
557.3071461773924
 30
0.0
  0
VERTEX
  5
3CC
  8
BIG_DRAWERS
 10
1180.731308060618
 20
557.1708494825483
 30
0.0
  0
VERTEX
  5
3CD
  8
BIG_DRAWERS
 10
1181.766584241028
 20
557.3071461773924
 30
0.0
  0
VERTEX
  5
3CE
  8
BIG_DRAWERS
 10
1182.731308060618
 20
557.70674786741
 30
0.0
  0
VERTEX
  5
3CF
  8
BIG_DRAWERS
 10
1183.559735185367
 20
558.3424223578016
 30
0.0
  0
VERTEX
  5
3D0
  8
BIG_DRAWERS
 10
1184.195409675758
 20
559.1708494825479
 30
0.0
  0
VERTEX
  5
3D1
  8
BIG_DRAWERS
 10
1184.595011365775
 20
560.1355733021379
 30
0.0
  0
VERTEX
  5
3D2
  8
BIG_DRAWERS
 10
1184.731308060618
 20
561.1708494825474
 30
0.0
  0
VERTEX
  5
3D3
  8
BIG_DRAWERS
 10
1184.595011365775
 20
562.2061256629582
 30
0.0
  0
VERTEX
  5
3D4
  8
BIG_DRAWERS
 10
1184.195409675758
 20
563.1708494825483
 30
0.0
  0
VERTEX
  5
3D5
  8
BIG_DRAWERS
 10
1183.559735185367
 20
563.9992766072945
 30
0.0
  0
VERTEX
  5
3D6
  8
BIG_DRAWERS
 10
1182.731308060618
 20
564.6349510976848
 30
0.0
  0
SEQEND
  5
7FD
  8
BIG_DRAWERS
  0
POLYLINE
  5
9F
  8
BIG_DRAWERS
 66
     1
 10
0.0
 20
0.0
 30
0.0
 70
     1
  0
VERTEX
  5
3D7
  8
BIG_DRAWERS
 10
1373.256031880208
 20
1008.948957798141
 30
0.0
  0
VERTEX
  5
3D8
  8
BIG_DRAWERS
 10
1372.291308060618
 20
1008.549356108122
 30
0.0
  0
VERTEX
  5
3D9
  8
BIG_DRAWERS
 10
1371.462880935873
 20
1007.913681617731
 30
0.0
  0
VERTEX
  5
3DA
  8
BIG_DRAWERS
 10
1370.827206445481
 20
1007.085254492984
 30
0.0
  0
VERTEX
  5
3DB
  8
BIG_DRAWERS
 10
1370.427604755459
 20
1006.120530673395
 30
0.0
  0
VERTEX
  5
3DC
  8
BIG_DRAWERS
 10
1370.291308060618
 20
1005.085254492984
 30
0.0
  0
VERTEX
  5
3DD
  8
BIG_DRAWERS
 10
1370.427604755459
 20
1004.049978312575
 30
0.0
  0
VERTEX
  5
3DE
  8
BIG_DRAWERS
 10
1370.827206445481
 20
1003.085254492985
 30
0.0
  0
VERTEX
  5
3DF
  8
BIG_DRAWERS
 10
1371.462880935873
 20
1002.256827368239
 30
0.0
  0
VERTEX
  5
3E0
  8
BIG_DRAWERS
 10
1372.291308060618
 20
1001.621152877847
 30
0.0
  0
VERTEX
  5
3E1
  8
BIG_DRAWERS
 10
1373.256031880208
 20
1001.221551187829
 30
0.0
  0
VERTEX
  5
3E2
  8
BIG_DRAWERS
 10
1374.291308060618
 20
1001.085254492985
 30
0.0
  0
VERTEX
  5
3E3
  8
BIG_DRAWERS
 10
1375.326584241026
 20
1001.221551187829
 30
0.0
  0
VERTEX
  5
3E4
  8
BIG_DRAWERS
 10
1376.291308060616
 20
1001.621152877847
 30
0.0
  0
VERTEX
  5
3E5
  8
BIG_DRAWERS
 10
1377.119735185364
 20
1002.256827368239
 30
0.0
  0
VERTEX
  5
3E6
  8
BIG_DRAWERS
 10
1377.755409675756
 20
1003.085254492985
 30
0.0
  0
VERTEX
  5
3E7
  8
BIG_DRAWERS
 10
1378.155011365774
 20
1004.049978312575
 30
0.0
  0
VERTEX
  5
3E8
  8
BIG_DRAWERS
 10
1378.291308060616
 20
1005.085254492984
 30
0.0
  0
VERTEX
  5
3E9
  8
BIG_DRAWERS
 10
1378.155011365774
 20
1006.120530673395
 30
0.0
  0
VERTEX
  5
3EA
  8
BIG_DRAWERS
 10
1377.755409675756
 20
1007.085254492985
 30
0.0
  0
VERTEX
  5
3EB
  8
BIG_DRAWERS
 10
1377.119735185364
 20
1007.913681617731
 30
0.0
  0
VERTEX
  5
3EC
  8
BIG_DRAWERS
 10
1376.291308060616
 20
1008.549356108122
 30
0.0
  0
VERTEX
  5
3ED
  8
BIG_DRAWERS
 10
1375.326584241026
 20
1008.948957798141
 30
0.0
  0
VERTEX
  5
3EE
  8
BIG_DRAWERS
 10
1374.291308060618
 20
1009.085254492985
 30
0.0
  0
SEQEND
  5
7FE
  8
BIG_DRAWERS
  0
POLYLINE
  5
A0
  8
BIG_DRAWERS
 66
     1
 10
0.0
 20
0.0
 30
0.0
 70
     1
  0
VERTEX
  5
3EF
  8
BIG_DRAWERS
 10
1438.688907225546
 20
1060.628051987766
 30
0.0
  0
VERTEX
  5
3F0
  8
BIG_DRAWERS
 10
1438.688907225546
 20
1134.128051987765
 30
0.0
  0
VERTEX
  5
3F1
  8
BIG_DRAWERS
 10
1445.888907225545
 20
1134.128051987765
 30
0.0
  0
VERTEX
  5
3F2
  8
BIG_DRAWERS
 10
1445.888907225545
 20
1060.628051987766
 30
0.0
  0
SEQEND
  5
7FF
  8
BIG_DRAWERS
  0
POLYLINE
  5
A1
  8
BIG_DRAWERS
 66
     1
 10
0.0
 20
0.0
 30
0.0
 70
     1
  0
VERTEX
  5
3F3
  8
BIG_DRAWERS
 10
1438.688907225546
 20
873.628051987767
 30
0.0
  0
VERTEX
  5
3F4
  8
BIG_DRAWERS
 10
1444.888907225545
 20
873.628051987767
 30
0.0
  0
VERTEX
  5
3F5
  8
BIG_DRAWERS
 10
1444.888907225545
 20
973.1280519877672
 30
0.0
  0
VERTEX
  5
3F6
  8
BIG_DRAWERS
 10
1438.688907225546
 20
973.1280519877672
 30
0.0
  0
SEQEND
  5
800
  8
BIG_DRAWERS
  0
POLYLINE
  5
A2
  8
BIG_DRAWERS
 66
     1
 10
0.0
 20
0.0
 30
0.0
 70
     1
  0
VERTEX
  5
3F7
  8
BIG_DRAWERS
 10
1438.688907225546
 20
733.3780519877672
 30
0.0
  0
VERTEX
  5
3F8
  8
BIG_DRAWERS
 10
1444.888907225545
 20
733.3780519877672
 30
0.0
  0
VERTEX
  5
3F9
  8
BIG_DRAWERS
 10
1444.888907225545
 20
832.8780519877677
 30
0.0
  0
VERTEX
  5
3FA
  8
BIG_DRAWERS
 10
1438.688907225546
 20
832.8780519877677
 30
0.0
  0
SEQEND
  5
801
  8
BIG_DRAWERS
  0
POLYLINE
  5
A3
  8
BIG_DRAWERS
 66
     1
 10
0.0
 20
0.0
 30
0.0
 70
     1
  0
VERTEX
  5
3FB
  8
BIG_DRAWERS
 10
1438.688907225546
 20
593.1280519877672
 30
0.0
  0
VERTEX
  5
3FC
  8
BIG_DRAWERS
 10
1438.688907225546
 20
692.6280519877663
 30
0.0
  0
VERTEX
  5
3FD
  8
BIG_DRAWERS
 10
1444.888907225545
 20
692.6280519877663
 30
0.0
  0
VERTEX
  5
3FE
  8
BIG_DRAWERS
 10
1444.888907225545
 20
593.1280519877672
 30
0.0
  0
SEQEND
  5
802
  8
BIG_DRAWERS
  0
POLYLINE
  5
A4
  8
BIG_DRAWERS
 66
     1
 10
0.0
 20
0.0
 30
0.0
 70
     1
  0
VERTEX
  5
3FF
  8
BIG_DRAWERS
 10
1438.688907225546
 20
432.128051987768
 30
0.0
  0
VERTEX
  5
400
  8
BIG_DRAWERS
 10
1444.888907225545
 20
432.128051987768
 30
0.0
  0
VERTEX
  5
401
  8
BIG_DRAWERS
 10
1444.888907225545
 20
505.628051987767
 30
0.0
  0
VERTEX
  5
402
  8
BIG_DRAWERS
 10
1438.688907225546
 20
505.628051987767
 30
0.0
  0
SEQEND
  5
803
  8
BIG_DRAWERS
  0
POLYLINE
  5
A5
  8
BIG_DRAWERS
 66
     1
 10
0.0
 20
0.0
 30
0.0
 70
     1
  0
VERTEX
  5
403
  8
BIG_DRAWERS
 10
1124.331407225542
 20
400.1280519877664
 30
0.0
  0
VERTEX
  5
404
  8
BIG_DRAWERS
 10
1131.331407225542
 20
400.1280519877664
 30
0.0
  0
VERTEX
  5
405
  8
BIG_DRAWERS
 10
1131.331407225542
 20
1166.128051987767
 30
0.0
  0
VERTEX
  5
406
  8
BIG_DRAWERS
 10
1124.331407225542
 20
1166.128051987767
 30
0.0
  0
SEQEND
  5
804
  8
BIG_DRAWERS
  0
POLYLINE
  5
A6
  8
BIG_DRAWERS
 66
     1
 10
0.0
 20
0.0
 30
0.0
 70
     1
  0
VERTEX
  5
407
  8
BIG_DRAWERS
 10
1124.331407225548
 20
1163.128051987767
 30
0.0
  0
VERTEX
  5
408
  8
BIG_DRAWERS
 10
1131.331407225546
 20
1163.128051987767
 30
0.0
  0
VERTEX
  5
409
  8
BIG_DRAWERS
 10
1149.453907225545
 20
1163.128051987767
 30
0.0
  0
VERTEX
  5
40A
  8
BIG_DRAWERS
 10
1149.453907225545
 20
1151.128051987765
 30
0.0
  0
VERTEX
  5
40B
  8
BIG_DRAWERS
 10
1185.703907225547
 20
1151.128051987765
 30
0.0
  0
VERTEX
  5
40C
  8
BIG_DRAWERS
 10
1185.703907225547
 20
1163.128051987767
 30
0.0
  0
VERTEX
  5
40D
  8
BIG_DRAWERS
 10
1221.953907225545
 20
1163.128051987766
 30
0.0
  0
VERTEX
  5
40E
  8
BIG_DRAWERS
 10
1221.953907225542
 20
1151.128051987765
 30
0.0
  0
VERTEX
  5
40F
  8
BIG_DRAWERS
 10
1258.203907225545
 20
1151.128051987765
 30
0.0
  0
VERTEX
  5
410
  8
BIG_DRAWERS
 10
1258.203907225545
 20
1163.128051987766
 30
0.0
  0
VERTEX
  5
411
  8
BIG_DRAWERS
 10
1325.013907225543
 20
1163.128051987766
 30
0.0
  0
VERTEX
  5
412
  8
BIG_DRAWERS
 10
1325.013907225538
 20
1151.128051987763
 30
0.0
  0
VERTEX
  5
413
  8
BIG_DRAWERS
 10
1361.263907225548
 20
1151.128051987764
 30
0.0
  0
VERTEX
  5
414
  8
BIG_DRAWERS
 10
1361.263907225545
 20
1163.128051987766
 30
0.0
  0
VERTEX
  5
415
  8
BIG_DRAWERS
 10
1397.513907225543
 20
1163.128051987766
 30
0.0
  0
VERTEX
  5
416
  8
BIG_DRAWERS
 10
1397.513907225543
 20
1151.128051987764
 30
0.0
  0
VERTEX
  5
417
  8
BIG_DRAWERS
 10
1433.763907225546
 20
1151.128051987766
 30
0.0
  0
VERTEX
  5
418
  8
BIG_DRAWERS
 10
1433.763907225543
 20
1163.128051987766
 30
0.0
  0
VERTEX
  5
419
  8
BIG_DRAWERS
 10
1451.888907225543
 20
1163.128051987766
 30
0.0
  0
VERTEX
  5
41A
  8
BIG_DRAWERS
 10
1451.888907225543
 20
403.1280519877664
 30
0.0
  0
VERTEX
  5
41B
  8
BIG_DRAWERS
 10
1433.763907225543
 20
403.1280519877664
 30
0.0
  0
VERTEX
  5
41C
  8
BIG_DRAWERS
 10
1433.763907225545
 20
415.1280519877684
 30
0.0
  0
VERTEX
  5
41D
  8
BIG_DRAWERS
 10
1397.513907225545
 20
415.1280519877682
 30
0.0
  0
VERTEX
  5
41E
  8
BIG_DRAWERS
 10
1397.513907225543
 20
403.1280519877664
 30
0.0
  0
VERTEX
  5
41F
  8
BIG_DRAWERS
 10
1361.263907225545
 20
403.1280519877664
 30
0.0
  0
VERTEX
  5
420
  8
BIG_DRAWERS
 10
1361.263907225546
 20
415.1280519877681
 30
0.0
  0
VERTEX
  5
421
  8
BIG_DRAWERS
 10
1325.013907225543
 20
415.1280519877685
 30
0.0
  0
VERTEX
  5
422
  8
BIG_DRAWERS
 10
1325.013907225543
 20
403.1280519877665
 30
0.0
  0
VERTEX
  5
423
  8
BIG_DRAWERS
 10
1258.203907225545
 20
403.1280519877665
 30
0.0
  0
VERTEX
  5
424
  8
BIG_DRAWERS
 10
1258.203907225545
 20
415.1280519877679
 30
0.0
  0
VERTEX
  5
425
  8
BIG_DRAWERS
 10
1221.953907225545
 20
415.1280519877681
 30
0.0
  0
VERTEX
  5
426
  8
BIG_DRAWERS
 10
1221.953907225545
 20
403.1280519877664
 30
0.0
  0
VERTEX
  5
427
  8
BIG_DRAWERS
 10
1185.703907225547
 20
403.1280519877664
 30
0.0
  0
VERTEX
  5
428
  8
BIG_DRAWERS
 10
1185.703907225547
 20
415.1280519877682
 30
0.0
  0
VERTEX
  5
429
  8
BIG_DRAWERS
 10
1149.453907225545
 20
415.1280519877681
 30
0.0
  0
VERTEX
  5
42A
  8
BIG_DRAWERS
 10
1149.453907225545
 20
403.1280519877664
 30
0.0
  0
VERTEX
  5
42B
  8
BIG_DRAWERS
 10
1131.331407225546
 20
403.1280519877664
 30
0.0
  0
VERTEX
  5
42C
  8
BIG_DRAWERS
 10
1124.331407225548
 20
403.1280519877664
 30
0.0
  0
VERTEX
  5
42D
  8
BIG_DRAWERS
 10
1118.768907225548
 20
403.1280519877664
 30
0.0
  0
VERTEX
  5
42E
  8
BIG_DRAWERS
 10
1118.768907225548
 20
1163.128051987767
 30
0.0
  0
SEQEND
  5
805
  8
BIG_DRAWERS
  0
POLYLINE
  5
A7
  8
BIG_DRAWERS
 66
     1
 10
0.0
 20
0.0
 30
0.0
 70
     1
  0
VERTEX
  5
42F
  8
BIG_DRAWERS
 10
1732.869687689305
 20
565.0345527877054
 30
0.0
  0
VERTEX
  5
430
  8
BIG_DRAWERS
 10
1731.834411508897
 20
565.1708494825492
 30
0.0
  0
VERTEX
  5
431
  8
BIG_DRAWERS
 10
1730.799135328487
 20
565.0345527877054
 30
0.0
  0
VERTEX
  5
432
  8
BIG_DRAWERS
 10
1729.834411508897
 20
564.6349510976862
 30
0.0
  0
VERTEX
  5
433
  8
BIG_DRAWERS
 10
1729.005984384152
 20
563.9992766072959
 30
0.0
  0
VERTEX
  5
434
  8
BIG_DRAWERS
 10
1728.370309893761
 20
563.1708494825483
 30
0.0
  0
VERTEX
  5
435
  8
BIG_DRAWERS
 10
1727.970708203739
 20
562.2061256629596
 30
0.0
  0
VERTEX
  5
436
  8
BIG_DRAWERS
 10
1727.834411508897
 20
561.1708494825488
 30
0.0
  0
VERTEX
  5
437
  8
BIG_DRAWERS
 10
1727.970708203739
 20
560.1355733021393
 30
0.0
  0
VERTEX
  5
438
  8
BIG_DRAWERS
 10
1728.370309893761
 20
559.1708494825492
 30
0.0
  0
VERTEX
  5
439
  8
BIG_DRAWERS
 10
1729.005984384152
 20
558.342422357803
 30
0.0
  0
VERTEX
  5
43A
  8
BIG_DRAWERS
 10
1729.834411508897
 20
557.7067478674113
 30
0.0
  0
VERTEX
  5
43B
  8
BIG_DRAWERS
 10
1730.799135328487
 20
557.3071461773937
 30
0.0
  0
VERTEX
  5
43C
  8
BIG_DRAWERS
 10
1731.834411508897
 20
557.1708494825497
 30
0.0
  0
VERTEX
  5
43D
  8
BIG_DRAWERS
 10
1732.869687689305
 20
557.3071461773937
 30
0.0
  0
VERTEX
  5
43E
  8
BIG_DRAWERS
 10
1733.834411508895
 20
557.7067478674113
 30
0.0
  0
VERTEX
  5
43F
  8
BIG_DRAWERS
 10
1734.662838633644
 20
558.342422357803
 30
0.0
  0
VERTEX
  5
440
  8
BIG_DRAWERS
 10
1735.298513124035
 20
559.1708494825492
 30
0.0
  0
VERTEX
  5
441
  8
BIG_DRAWERS
 10
1735.698114814053
 20
560.1355733021393
 30
0.0
  0
VERTEX
  5
442
  8
BIG_DRAWERS
 10
1735.834411508895
 20
561.1708494825488
 30
0.0
  0
VERTEX
  5
443
  8
BIG_DRAWERS
 10
1735.698114814053
 20
562.2061256629596
 30
0.0
  0
VERTEX
  5
444
  8
BIG_DRAWERS
 10
1735.298513124035
 20
563.1708494825497
 30
0.0
  0
VERTEX
  5
445
  8
BIG_DRAWERS
 10
1734.662838633644
 20
563.9992766072959
 30
0.0
  0
VERTEX
  5
446
  8
BIG_DRAWERS
 10
1733.834411508895
 20
564.6349510976862
 30
0.0
  0
SEQEND
  5
806
  8
BIG_DRAWERS
  0
POLYLINE
  5
A8
  8
BIG_DRAWERS
 66
     1
 10
0.0
 20
0.0
 30
0.0
 70
     1
  0
VERTEX
  5
447
  8
BIG_DRAWERS
 10
1537.239135328488
 20
1008.948957798142
 30
0.0
  0
VERTEX
  5
448
  8
BIG_DRAWERS
 10
1536.274411508899
 20
1008.549356108123
 30
0.0
  0
VERTEX
  5
449
  8
BIG_DRAWERS
 10
1535.445984384155
 20
1007.913681617733
 30
0.0
  0
VERTEX
  5
44A
  8
BIG_DRAWERS
 10
1534.810309893761
 20
1007.085254492985
 30
0.0
  0
VERTEX
  5
44B
  8
BIG_DRAWERS
 10
1534.410708203741
 20
1006.120530673396
 30
0.0
  0
VERTEX
  5
44C
  8
BIG_DRAWERS
 10
1534.274411508899
 20
1005.085254492985
 30
0.0
  0
VERTEX
  5
44D
  8
BIG_DRAWERS
 10
1534.410708203741
 20
1004.049978312576
 30
0.0
  0
VERTEX
  5
44E
  8
BIG_DRAWERS
 10
1534.810309893761
 20
1003.085254492986
 30
0.0
  0
VERTEX
  5
44F
  8
BIG_DRAWERS
 10
1535.445984384155
 20
1002.25682736824
 30
0.0
  0
VERTEX
  5
450
  8
BIG_DRAWERS
 10
1536.274411508899
 20
1001.621152877848
 30
0.0
  0
VERTEX
  5
451
  8
BIG_DRAWERS
 10
1537.239135328488
 20
1001.22155118783
 30
0.0
  0
VERTEX
  5
452
  8
BIG_DRAWERS
 10
1538.274411508898
 20
1001.085254492986
 30
0.0
  0
VERTEX
  5
453
  8
BIG_DRAWERS
 10
1539.309687689307
 20
1001.22155118783
 30
0.0
  0
VERTEX
  5
454
  8
BIG_DRAWERS
 10
1540.274411508898
 20
1001.621152877848
 30
0.0
  0
VERTEX
  5
455
  8
BIG_DRAWERS
 10
1541.102838633646
 20
1002.25682736824
 30
0.0
  0
VERTEX
  5
456
  8
BIG_DRAWERS
 10
1541.738513124038
 20
1003.085254492986
 30
0.0
  0
VERTEX
  5
457
  8
BIG_DRAWERS
 10
1542.138114814054
 20
1004.049978312576
 30
0.0
  0
VERTEX
  5
458
  8
BIG_DRAWERS
 10
1542.274411508898
 20
1005.085254492985
 30
0.0
  0
VERTEX
  5
459
  8
BIG_DRAWERS
 10
1542.138114814054
 20
1006.120530673396
 30
0.0
  0
VERTEX
  5
45A
  8
BIG_DRAWERS
 10
1541.738513124038
 20
1007.085254492987
 30
0.0
  0
VERTEX
  5
45B
  8
BIG_DRAWERS
 10
1541.102838633646
 20
1007.913681617733
 30
0.0
  0
VERTEX
  5
45C
  8
BIG_DRAWERS
 10
1540.274411508898
 20
1008.549356108123
 30
0.0
  0
VERTEX
  5
45D
  8
BIG_DRAWERS
 10
1539.309687689307
 20
1008.948957798142
 30
0.0
  0
VERTEX
  5
45E
  8
BIG_DRAWERS
 10
1538.274411508898
 20
1009.085254492986
 30
0.0
  0
SEQEND
  5
807
  8
BIG_DRAWERS
  0
POLYLINE
  5
A9
  8
BIG_DRAWERS
 66
     1
 10
0.0
 20
0.0
 30
0.0
 70
     1
  0
VERTEX
  5
45F
  8
BIG_DRAWERS
 10
1539.309687689307
 20
565.0345527877054
 30
0.0
  0
VERTEX
  5
460
  8
BIG_DRAWERS
 10
1538.274411508898
 20
565.1708494825492
 30
0.0
  0
VERTEX
  5
461
  8
BIG_DRAWERS
 10
1537.239135328488
 20
565.0345527877054
 30
0.0
  0
VERTEX
  5
462
  8
BIG_DRAWERS
 10
1536.274411508899
 20
564.6349510976862
 30
0.0
  0
VERTEX
  5
463
  8
BIG_DRAWERS
 10
1535.445984384155
 20
563.9992766072959
 30
0.0
  0
VERTEX
  5
464
  8
BIG_DRAWERS
 10
1534.810309893761
 20
563.1708494825483
 30
0.0
  0
VERTEX
  5
465
  8
BIG_DRAWERS
 10
1534.410708203741
 20
562.2061256629596
 30
0.0
  0
VERTEX
  5
466
  8
BIG_DRAWERS
 10
1534.274411508899
 20
561.1708494825488
 30
0.0
  0
VERTEX
  5
467
  8
BIG_DRAWERS
 10
1534.410708203741
 20
560.1355733021393
 30
0.0
  0
VERTEX
  5
468
  8
BIG_DRAWERS
 10
1534.810309893761
 20
559.1708494825492
 30
0.0
  0
VERTEX
  5
469
  8
BIG_DRAWERS
 10
1535.445984384155
 20
558.342422357803
 30
0.0
  0
VERTEX
  5
46A
  8
BIG_DRAWERS
 10
1536.274411508899
 20
557.7067478674113
 30
0.0
  0
VERTEX
  5
46B
  8
BIG_DRAWERS
 10
1537.239135328488
 20
557.3071461773937
 30
0.0
  0
VERTEX
  5
46C
  8
BIG_DRAWERS
 10
1538.274411508898
 20
557.1708494825497
 30
0.0
  0
VERTEX
  5
46D
  8
BIG_DRAWERS
 10
1539.309687689307
 20
557.3071461773937
 30
0.0
  0
VERTEX
  5
46E
  8
BIG_DRAWERS
 10
1540.274411508898
 20
557.7067478674113
 30
0.0
  0
VERTEX
  5
46F
  8
BIG_DRAWERS
 10
1541.102838633646
 20
558.342422357803
 30
0.0
  0
VERTEX
  5
470
  8
BIG_DRAWERS
 10
1541.738513124038
 20
559.1708494825492
 30
0.0
  0
VERTEX
  5
471
  8
BIG_DRAWERS
 10
1542.138114814054
 20
560.1355733021393
 30
0.0
  0
VERTEX
  5
472
  8
BIG_DRAWERS
 10
1542.274411508898
 20
561.1708494825488
 30
0.0
  0
VERTEX
  5
473
  8
BIG_DRAWERS
 10
1542.138114814054
 20
562.2061256629596
 30
0.0
  0
VERTEX
  5
474
  8
BIG_DRAWERS
 10
1541.738513124038
 20
563.1708494825497
 30
0.0
  0
VERTEX
  5
475
  8
BIG_DRAWERS
 10
1541.102838633646
 20
563.9992766072959
 30
0.0
  0
VERTEX
  5
476
  8
BIG_DRAWERS
 10
1540.274411508898
 20
564.6349510976862
 30
0.0
  0
SEQEND
  5
808
  8
BIG_DRAWERS
  0
POLYLINE
  5
AA
  8
BIG_DRAWERS
 66
     1
 10
0.0
 20
0.0
 30
0.0
 70
     1
  0
VERTEX
  5
477
  8
BIG_DRAWERS
 10
1730.799135328487
 20
1008.948957798142
 30
0.0
  0
VERTEX
  5
478
  8
BIG_DRAWERS
 10
1729.834411508897
 20
1008.549356108123
 30
0.0
  0
VERTEX
  5
479
  8
BIG_DRAWERS
 10
1729.005984384152
 20
1007.913681617733
 30
0.0
  0
VERTEX
  5
47A
  8
BIG_DRAWERS
 10
1728.370309893761
 20
1007.085254492985
 30
0.0
  0
VERTEX
  5
47B
  8
BIG_DRAWERS
 10
1727.970708203739
 20
1006.120530673396
 30
0.0
  0
VERTEX
  5
47C
  8
BIG_DRAWERS
 10
1727.834411508897
 20
1005.085254492985
 30
0.0
  0
VERTEX
  5
47D
  8
BIG_DRAWERS
 10
1727.970708203739
 20
1004.049978312576
 30
0.0
  0
VERTEX
  5
47E
  8
BIG_DRAWERS
 10
1728.370309893761
 20
1003.085254492986
 30
0.0
  0
VERTEX
  5
47F
  8
BIG_DRAWERS
 10
1729.005984384152
 20
1002.25682736824
 30
0.0
  0
VERTEX
  5
480
  8
BIG_DRAWERS
 10
1729.834411508897
 20
1001.621152877848
 30
0.0
  0
VERTEX
  5
481
  8
BIG_DRAWERS
 10
1730.799135328487
 20
1001.22155118783
 30
0.0
  0
VERTEX
  5
482
  8
BIG_DRAWERS
 10
1731.834411508897
 20
1001.085254492986
 30
0.0
  0
VERTEX
  5
483
  8
BIG_DRAWERS
 10
1732.869687689305
 20
1001.22155118783
 30
0.0
  0
VERTEX
  5
484
  8
BIG_DRAWERS
 10
1733.834411508895
 20
1001.621152877848
 30
0.0
  0
VERTEX
  5
485
  8
BIG_DRAWERS
 10
1734.662838633644
 20
1002.25682736824
 30
0.0
  0
VERTEX
  5
486
  8
BIG_DRAWERS
 10
1735.298513124035
 20
1003.085254492986
 30
0.0
  0
VERTEX
  5
487
  8
BIG_DRAWERS
 10
1735.698114814053
 20
1004.049978312576
 30
0.0
  0
VERTEX
  5
488
  8
BIG_DRAWERS
 10
1735.834411508895
 20
1005.085254492985
 30
0.0
  0
VERTEX
  5
489
  8
BIG_DRAWERS
 10
1735.698114814053
 20
1006.120530673396
 30
0.0
  0
VERTEX
  5
48A
  8
BIG_DRAWERS
 10
1735.298513124035
 20
1007.085254492987
 30
0.0
  0
VERTEX
  5
48B
  8
BIG_DRAWERS
 10
1734.662838633644
 20
1007.913681617733
 30
0.0
  0
VERTEX
  5
48C
  8
BIG_DRAWERS
 10
1733.834411508895
 20
1008.549356108123
 30
0.0
  0
VERTEX
  5
48D
  8
BIG_DRAWERS
 10
1732.869687689305
 20
1008.948957798142
 30
0.0
  0
VERTEX
  5
48E
  8
BIG_DRAWERS
 10
1731.834411508897
 20
1009.085254492986
 30
0.0
  0
SEQEND
  5
809
  8
BIG_DRAWERS
  0
POLYLINE
  5
AB
  8
BIG_DRAWERS
 66
     1
 10
0.0
 20
0.0
 30
0.0
 70
     1
  0
VERTEX
  5
48F
  8
BIG_DRAWERS
 10
1796.232010673825
 20
1060.628051987767
 30
0.0
  0
VERTEX
  5
490
  8
BIG_DRAWERS
 10
1796.232010673825
 20
1134.128051987766
 30
0.0
  0
VERTEX
  5
491
  8
BIG_DRAWERS
 10
1803.432010673824
 20
1134.128051987766
 30
0.0
  0
VERTEX
  5
492
  8
BIG_DRAWERS
 10
1803.432010673824
 20
1060.628051987767
 30
0.0
  0
SEQEND
  5
80A
  8
BIG_DRAWERS
  0
POLYLINE
  5
AC
  8
BIG_DRAWERS
 66
     1
 10
0.0
 20
0.0
 30
0.0
 70
     1
  0
VERTEX
  5
493
  8
BIG_DRAWERS
 10
1796.232010673825
 20
873.6280519877683
 30
0.0
  0
VERTEX
  5
494
  8
BIG_DRAWERS
 10
1802.432010673824
 20
873.6280519877683
 30
0.0
  0
VERTEX
  5
495
  8
BIG_DRAWERS
 10
1802.432010673824
 20
973.1280519877686
 30
0.0
  0
VERTEX
  5
496
  8
BIG_DRAWERS
 10
1796.232010673825
 20
973.1280519877686
 30
0.0
  0
SEQEND
  5
80B
  8
BIG_DRAWERS
  0
POLYLINE
  5
AD
  8
BIG_DRAWERS
 66
     1
 10
0.0
 20
0.0
 30
0.0
 70
     1
  0
VERTEX
  5
497
  8
BIG_DRAWERS
 10
1796.232010673825
 20
733.3780519877686
 30
0.0
  0
VERTEX
  5
498
  8
BIG_DRAWERS
 10
1802.432010673824
 20
733.3780519877686
 30
0.0
  0
VERTEX
  5
499
  8
BIG_DRAWERS
 10
1802.432010673824
 20
832.878051987769
 30
0.0
  0
VERTEX
  5
49A
  8
BIG_DRAWERS
 10
1796.232010673825
 20
832.878051987769
 30
0.0
  0
SEQEND
  5
80C
  8
BIG_DRAWERS
  0
POLYLINE
  5
AE
  8
BIG_DRAWERS
 66
     1
 10
0.0
 20
0.0
 30
0.0
 70
     1
  0
VERTEX
  5
49B
  8
BIG_DRAWERS
 10
1796.232010673825
 20
593.1280519877686
 30
0.0
  0
VERTEX
  5
49C
  8
BIG_DRAWERS
 10
1796.232010673825
 20
692.6280519877677
 30
0.0
  0
VERTEX
  5
49D
  8
BIG_DRAWERS
 10
1802.432010673824
 20
692.6280519877677
 30
0.0
  0
VERTEX
  5
49E
  8
BIG_DRAWERS
 10
1802.432010673824
 20
593.1280519877686
 30
0.0
  0
SEQEND
  5
80D
  8
BIG_DRAWERS
  0
POLYLINE
  5
AF
  8
BIG_DRAWERS
 66
     1
 10
0.0
 20
0.0
 30
0.0
 70
     1
  0
VERTEX
  5
49F
  8
BIG_DRAWERS
 10
1796.232010673825
 20
432.1280519877694
 30
0.0
  0
VERTEX
  5
4A0
  8
BIG_DRAWERS
 10
1802.432010673824
 20
432.1280519877694
 30
0.0
  0
VERTEX
  5
4A1
  8
BIG_DRAWERS
 10
1802.432010673824
 20
505.6280519877683
 30
0.0
  0
VERTEX
  5
4A2
  8
BIG_DRAWERS
 10
1796.232010673825
 20
505.6280519877683
 30
0.0
  0
SEQEND
  5
80E
  8
BIG_DRAWERS
  0
POLYLINE
  5
B0
  8
BIG_DRAWERS
 66
     1
 10
0.0
 20
0.0
 30
0.0
 70
     1
  0
VERTEX
  5
4A3
  8
BIG_DRAWERS
 10
1481.874510673821
 20
400.1280519877678
 30
0.0
  0
VERTEX
  5
4A4
  8
BIG_DRAWERS
 10
1488.874510673821
 20
400.1280519877678
 30
0.0
  0
VERTEX
  5
4A5
  8
BIG_DRAWERS
 10
1488.874510673821
 20
1166.128051987768
 30
0.0
  0
VERTEX
  5
4A6
  8
BIG_DRAWERS
 10
1481.874510673821
 20
1166.128051987768
 30
0.0
  0
SEQEND
  5
80F
  8
BIG_DRAWERS
  0
POLYLINE
  5
B1
  8
BIG_DRAWERS
 66
     1
 10
0.0
 20
0.0
 30
0.0
 70
     1
  0
VERTEX
  5
4A7
  8
BIG_DRAWERS
 10
1481.874510673827
 20
1163.128051987768
 30
0.0
  0
VERTEX
  5
4A8
  8
BIG_DRAWERS
 10
1488.874510673825
 20
1163.128051987768
 30
0.0
  0
VERTEX
  5
4A9
  8
BIG_DRAWERS
 10
1506.997010673824
 20
1163.128051987768
 30
0.0
  0
VERTEX
  5
4AA
  8
BIG_DRAWERS
 10
1506.997010673825
 20
1151.128051987766
 30
0.0
  0
VERTEX
  5
4AB
  8
BIG_DRAWERS
 10
1543.247010673827
 20
1151.128051987766
 30
0.0
  0
VERTEX
  5
4AC
  8
BIG_DRAWERS
 10
1543.247010673826
 20
1163.128051987768
 30
0.0
  0
VERTEX
  5
4AD
  8
BIG_DRAWERS
 10
1579.497010673824
 20
1163.128051987767
 30
0.0
  0
VERTEX
  5
4AE
  8
BIG_DRAWERS
 10
1579.497010673822
 20
1151.128051987766
 30
0.0
  0
VERTEX
  5
4AF
  8
BIG_DRAWERS
 10
1615.747010673824
 20
1151.128051987766
 30
0.0
  0
VERTEX
  5
4B0
  8
BIG_DRAWERS
 10
1615.747010673824
 20
1163.128051987767
 30
0.0
  0
VERTEX
  5
4B1
  8
BIG_DRAWERS
 10
1682.557010673822
 20
1163.128051987767
 30
0.0
  0
VERTEX
  5
4B2
  8
BIG_DRAWERS
 10
1682.557010673818
 20
1151.128051987764
 30
0.0
  0
VERTEX
  5
4B3
  8
BIG_DRAWERS
 10
1718.807010673828
 20
1151.128051987765
 30
0.0
  0
VERTEX
  5
4B4
  8
BIG_DRAWERS
 10
1718.807010673824
 20
1163.128051987767
 30
0.0
  0
VERTEX
  5
4B5
  8
BIG_DRAWERS
 10
1755.057010673822
 20
1163.128051987767
 30
0.0
  0
VERTEX
  5
4B6
  8
BIG_DRAWERS
 10
1755.057010673823
 20
1151.128051987765
 30
0.0
  0
VERTEX
  5
4B7
  8
BIG_DRAWERS
 10
1791.307010673825
 20
1151.128051987767
 30
0.0
  0
VERTEX
  5
4B8
  8
BIG_DRAWERS
 10
1791.307010673822
 20
1163.128051987768
 30
0.0
  0
VERTEX
  5
4B9
  8
BIG_DRAWERS
 10
1809.432010673822
 20
1163.128051987768
 30
0.0
  0
VERTEX
  5
4BA
  8
BIG_DRAWERS
 10
1809.432010673822
 20
403.1280519877678
 30
0.0
  0
VERTEX
  5
4BB
  8
BIG_DRAWERS
 10
1791.307010673822
 20
403.1280519877678
 30
0.0
  0
VERTEX
  5
4BC
  8
BIG_DRAWERS
 10
1791.307010673824
 20
415.1280519877698
 30
0.0
  0
VERTEX
  5
4BD
  8
BIG_DRAWERS
 10
1755.057010673824
 20
415.1280519877695
 30
0.0
  0
VERTEX
  5
4BE
  8
BIG_DRAWERS
 10
1755.057010673822
 20
403.1280519877678
 30
0.0
  0
VERTEX
  5
4BF
  8
BIG_DRAWERS
 10
1718.807010673824
 20
403.1280519877678
 30
0.0
  0
VERTEX
  5
4C0
  8
BIG_DRAWERS
 10
1718.807010673825
 20
415.1280519877694
 30
0.0
  0
VERTEX
  5
4C1
  8
BIG_DRAWERS
 10
1682.557010673823
 20
415.1280519877698
 30
0.0
  0
VERTEX
  5
4C2
  8
BIG_DRAWERS
 10
1682.557010673822
 20
403.1280519877679
 30
0.0
  0
VERTEX
  5
4C3
  8
BIG_DRAWERS
 10
1615.747010673824
 20
403.1280519877679
 30
0.0
  0
VERTEX
  5
4C4
  8
BIG_DRAWERS
 10
1615.747010673824
 20
415.1280519877693
 30
0.0
  0
VERTEX
  5
4C5
  8
BIG_DRAWERS
 10
1579.497010673825
 20
415.1280519877694
 30
0.0
  0
VERTEX
  5
4C6
  8
BIG_DRAWERS
 10
1579.497010673824
 20
403.1280519877678
 30
0.0
  0
VERTEX
  5
4C7
  8
BIG_DRAWERS
 10
1543.247010673826
 20
403.1280519877678
 30
0.0
  0
VERTEX
  5
4C8
  8
BIG_DRAWERS
 10
1543.247010673827
 20
415.1280519877695
 30
0.0
  0
VERTEX
  5
4C9
  8
BIG_DRAWERS
 10
1506.997010673824
 20
415.1280519877695
 30
0.0
  0
VERTEX
  5
4CA
  8
BIG_DRAWERS
 10
1506.997010673824
 20
403.1280519877678
 30
0.0
  0
VERTEX
  5
4CB
  8
BIG_DRAWERS
 10
1488.874510673825
 20
403.1280519877678
 30
0.0
  0
VERTEX
  5
4CC
  8
BIG_DRAWERS
 10
1481.874510673827
 20
403.1280519877678
 30
0.0
  0
VERTEX
  5
4CD
  8
BIG_DRAWERS
 10
1476.312010673827
 20
403.1280519877678
 30
0.0
  0
VERTEX
  5
4CE
  8
BIG_DRAWERS
 10
1476.312010673827
 20
1163.128051987768
 30
0.0
  0
SEQEND
  5
810
  8
BIG_DRAWERS
  0
POLYLINE
  5
B2
  8
BIG_DRAWERS
 66
     1
 10
0.0
 20
0.0
 30
0.0
 70
     1
  0
VERTEX
  5
4CF
  8
BIG_DRAWERS
 10
2085.886929068614
 20
565.0345527877054
 30
0.0
  0
VERTEX
  5
4D0
  8
BIG_DRAWERS
 10
2084.851652888206
 20
565.1708494825492
 30
0.0
  0
VERTEX
  5
4D1
  8
BIG_DRAWERS
 10
2083.816376707797
 20
565.0345527877054
 30
0.0
  0
VERTEX
  5
4D2
  8
BIG_DRAWERS
 10
2082.851652888206
 20
564.6349510976862
 30
0.0
  0
VERTEX
  5
4D3
  8
BIG_DRAWERS
 10
2082.023225763462
 20
563.9992766072959
 30
0.0
  0
VERTEX
  5
4D4
  8
BIG_DRAWERS
 10
2081.38755127307
 20
563.1708494825483
 30
0.0
  0
VERTEX
  5
4D5
  8
BIG_DRAWERS
 10
2080.987949583048
 20
562.2061256629596
 30
0.0
  0
VERTEX
  5
4D6
  8
BIG_DRAWERS
 10
2080.851652888206
 20
561.1708494825488
 30
0.0
  0
VERTEX
  5
4D7
  8
BIG_DRAWERS
 10
2080.987949583048
 20
560.1355733021393
 30
0.0
  0
VERTEX
  5
4D8
  8
BIG_DRAWERS
 10
2081.38755127307
 20
559.1708494825492
 30
0.0
  0
VERTEX
  5
4D9
  8
BIG_DRAWERS
 10
2082.023225763462
 20
558.342422357803
 30
0.0
  0
VERTEX
  5
4DA
  8
BIG_DRAWERS
 10
2082.851652888206
 20
557.7067478674113
 30
0.0
  0
VERTEX
  5
4DB
  8
BIG_DRAWERS
 10
2083.816376707797
 20
557.3071461773937
 30
0.0
  0
VERTEX
  5
4DC
  8
BIG_DRAWERS
 10
2084.851652888206
 20
557.1708494825497
 30
0.0
  0
VERTEX
  5
4DD
  8
BIG_DRAWERS
 10
2085.886929068614
 20
557.3071461773937
 30
0.0
  0
VERTEX
  5
4DE
  8
BIG_DRAWERS
 10
2086.851652888205
 20
557.7067478674113
 30
0.0
  0
VERTEX
  5
4DF
  8
BIG_DRAWERS
 10
2087.680080012953
 20
558.342422357803
 30
0.0
  0
VERTEX
  5
4E0
  8
BIG_DRAWERS
 10
2088.315754503345
 20
559.1708494825492
 30
0.0
  0
VERTEX
  5
4E1
  8
BIG_DRAWERS
 10
2088.715356193363
 20
560.1355733021393
 30
0.0
  0
VERTEX
  5
4E2
  8
BIG_DRAWERS
 10
2088.851652888205
 20
561.1708494825488
 30
0.0
  0
VERTEX
  5
4E3
  8
BIG_DRAWERS
 10
2088.715356193363
 20
562.2061256629596
 30
0.0
  0
VERTEX
  5
4E4
  8
BIG_DRAWERS
 10
2088.315754503345
 20
563.1708494825497
 30
0.0
  0
VERTEX
  5
4E5
  8
BIG_DRAWERS
 10
2087.680080012953
 20
563.9992766072959
 30
0.0
  0
VERTEX
  5
4E6
  8
BIG_DRAWERS
 10
2086.851652888205
 20
564.6349510976862
 30
0.0
  0
SEQEND
  5
811
  8
BIG_DRAWERS
  0
POLYLINE
  5
B3
  8
BIG_DRAWERS
 66
     1
 10
0.0
 20
0.0
 30
0.0
 70
     1
  0
VERTEX
  5
4E7
  8
BIG_DRAWERS
 10
1890.256376707797
 20
1008.948957798142
 30
0.0
  0
VERTEX
  5
4E8
  8
BIG_DRAWERS
 10
1889.291652888209
 20
1008.549356108123
 30
0.0
  0
VERTEX
  5
4E9
  8
BIG_DRAWERS
 10
1888.463225763464
 20
1007.913681617733
 30
0.0
  0
VERTEX
  5
4EA
  8
BIG_DRAWERS
 10
1887.82755127307
 20
1007.085254492985
 30
0.0
  0
VERTEX
  5
4EB
  8
BIG_DRAWERS
 10
1887.42794958305
 20
1006.120530673396
 30
0.0
  0
VERTEX
  5
4EC
  8
BIG_DRAWERS
 10
1887.291652888209
 20
1005.085254492985
 30
0.0
  0
VERTEX
  5
4ED
  8
BIG_DRAWERS
 10
1887.42794958305
 20
1004.049978312576
 30
0.0
  0
VERTEX
  5
4EE
  8
BIG_DRAWERS
 10
1887.82755127307
 20
1003.085254492986
 30
0.0
  0
VERTEX
  5
4EF
  8
BIG_DRAWERS
 10
1888.463225763464
 20
1002.25682736824
 30
0.0
  0
VERTEX
  5
4F0
  8
BIG_DRAWERS
 10
1889.291652888209
 20
1001.621152877848
 30
0.0
  0
VERTEX
  5
4F1
  8
BIG_DRAWERS
 10
1890.256376707797
 20
1001.22155118783
 30
0.0
  0
VERTEX
  5
4F2
  8
BIG_DRAWERS
 10
1891.291652888207
 20
1001.085254492986
 30
0.0
  0
VERTEX
  5
4F3
  8
BIG_DRAWERS
 10
1892.326929068616
 20
1001.22155118783
 30
0.0
  0
VERTEX
  5
4F4
  8
BIG_DRAWERS
 10
1893.291652888207
 20
1001.621152877848
 30
0.0
  0
VERTEX
  5
4F5
  8
BIG_DRAWERS
 10
1894.120080012955
 20
1002.25682736824
 30
0.0
  0
VERTEX
  5
4F6
  8
BIG_DRAWERS
 10
1894.755754503347
 20
1003.085254492986
 30
0.0
  0
VERTEX
  5
4F7
  8
BIG_DRAWERS
 10
1895.155356193363
 20
1004.049978312576
 30
0.0
  0
VERTEX
  5
4F8
  8
BIG_DRAWERS
 10
1895.291652888207
 20
1005.085254492985
 30
0.0
  0
VERTEX
  5
4F9
  8
BIG_DRAWERS
 10
1895.155356193363
 20
1006.120530673396
 30
0.0
  0
VERTEX
  5
4FA
  8
BIG_DRAWERS
 10
1894.755754503347
 20
1007.085254492987
 30
0.0
  0
VERTEX
  5
4FB
  8
BIG_DRAWERS
 10
1894.120080012955
 20
1007.913681617733
 30
0.0
  0
VERTEX
  5
4FC
  8
BIG_DRAWERS
 10
1893.291652888207
 20
1008.549356108123
 30
0.0
  0
VERTEX
  5
4FD
  8
BIG_DRAWERS
 10
1892.326929068616
 20
1008.948957798142
 30
0.0
  0
VERTEX
  5
4FE
  8
BIG_DRAWERS
 10
1891.291652888207
 20
1009.085254492986
 30
0.0
  0
SEQEND
  5
812
  8
BIG_DRAWERS
  0
POLYLINE
  5
B4
  8
BIG_DRAWERS
 66
     1
 10
0.0
 20
0.0
 30
0.0
 70
     1
  0
VERTEX
  5
4FF
  8
BIG_DRAWERS
 10
1892.326929068616
 20
565.0345527877054
 30
0.0
  0
VERTEX
  5
500
  8
BIG_DRAWERS
 10
1891.291652888207
 20
565.1708494825492
 30
0.0
  0
VERTEX
  5
501
  8
BIG_DRAWERS
 10
1890.256376707797
 20
565.0345527877054
 30
0.0
  0
VERTEX
  5
502
  8
BIG_DRAWERS
 10
1889.291652888209
 20
564.6349510976862
 30
0.0
  0
VERTEX
  5
503
  8
BIG_DRAWERS
 10
1888.463225763464
 20
563.9992766072959
 30
0.0
  0
VERTEX
  5
504
  8
BIG_DRAWERS
 10
1887.82755127307
 20
563.1708494825483
 30
0.0
  0
VERTEX
  5
505
  8
BIG_DRAWERS
 10
1887.42794958305
 20
562.2061256629596
 30
0.0
  0
VERTEX
  5
506
  8
BIG_DRAWERS
 10
1887.291652888209
 20
561.1708494825488
 30
0.0
  0
VERTEX
  5
507
  8
BIG_DRAWERS
 10
1887.42794958305
 20
560.1355733021393
 30
0.0
  0
VERTEX
  5
508
  8
BIG_DRAWERS
 10
1887.82755127307
 20
559.1708494825492
 30
0.0
  0
VERTEX
  5
509
  8
BIG_DRAWERS
 10
1888.463225763464
 20
558.342422357803
 30
0.0
  0
VERTEX
  5
50A
  8
BIG_DRAWERS
 10
1889.291652888209
 20
557.7067478674113
 30
0.0
  0
VERTEX
  5
50B
  8
BIG_DRAWERS
 10
1890.256376707797
 20
557.3071461773937
 30
0.0
  0
VERTEX
  5
50C
  8
BIG_DRAWERS
 10
1891.291652888207
 20
557.1708494825497
 30
0.0
  0
VERTEX
  5
50D
  8
BIG_DRAWERS
 10
1892.326929068616
 20
557.3071461773937
 30
0.0
  0
VERTEX
  5
50E
  8
BIG_DRAWERS
 10
1893.291652888207
 20
557.7067478674113
 30
0.0
  0
VERTEX
  5
50F
  8
BIG_DRAWERS
 10
1894.120080012955
 20
558.342422357803
 30
0.0
  0
VERTEX
  5
510
  8
BIG_DRAWERS
 10
1894.755754503347
 20
559.1708494825492
 30
0.0
  0
VERTEX
  5
511
  8
BIG_DRAWERS
 10
1895.155356193363
 20
560.1355733021393
 30
0.0
  0
VERTEX
  5
512
  8
BIG_DRAWERS
 10
1895.291652888207
 20
561.1708494825488
 30
0.0
  0
VERTEX
  5
513
  8
BIG_DRAWERS
 10
1895.155356193363
 20
562.2061256629596
 30
0.0
  0
VERTEX
  5
514
  8
BIG_DRAWERS
 10
1894.755754503347
 20
563.1708494825497
 30
0.0
  0
VERTEX
  5
515
  8
BIG_DRAWERS
 10
1894.120080012955
 20
563.9992766072959
 30
0.0
  0
VERTEX
  5
516
  8
BIG_DRAWERS
 10
1893.291652888207
 20
564.6349510976862
 30
0.0
  0
SEQEND
  5
813
  8
BIG_DRAWERS
  0
POLYLINE
  5
B5
  8
BIG_DRAWERS
 66
     1
 10
0.0
 20
0.0
 30
0.0
 70
     1
  0
VERTEX
  5
517
  8
BIG_DRAWERS
 10
2083.816376707797
 20
1008.948957798142
 30
0.0
  0
VERTEX
  5
518
  8
BIG_DRAWERS
 10
2082.851652888206
 20
1008.549356108123
 30
0.0
  0
VERTEX
  5
519
  8
BIG_DRAWERS
 10
2082.023225763462
 20
1007.913681617733
 30
0.0
  0
VERTEX
  5
51A
  8
BIG_DRAWERS
 10
2081.38755127307
 20
1007.085254492985
 30
0.0
  0
VERTEX
  5
51B
  8
BIG_DRAWERS
 10
2080.987949583048
 20
1006.120530673396
 30
0.0
  0
VERTEX
  5
51C
  8
BIG_DRAWERS
 10
2080.851652888206
 20
1005.085254492985
 30
0.0
  0
VERTEX
  5
51D
  8
BIG_DRAWERS
 10
2080.987949583048
 20
1004.049978312576
 30
0.0
  0
VERTEX
  5
51E
  8
BIG_DRAWERS
 10
2081.38755127307
 20
1003.085254492986
 30
0.0
  0
VERTEX
  5
51F
  8
BIG_DRAWERS
 10
2082.023225763462
 20
1002.25682736824
 30
0.0
  0
VERTEX
  5
520
  8
BIG_DRAWERS
 10
2082.851652888206
 20
1001.621152877848
 30
0.0
  0
VERTEX
  5
521
  8
BIG_DRAWERS
 10
2083.816376707797
 20
1001.22155118783
 30
0.0
  0
VERTEX
  5
522
  8
BIG_DRAWERS
 10
2084.851652888206
 20
1001.085254492986
 30
0.0
  0
VERTEX
  5
523
  8
BIG_DRAWERS
 10
2085.886929068614
 20
1001.22155118783
 30
0.0
  0
VERTEX
  5
524
  8
BIG_DRAWERS
 10
2086.851652888205
 20
1001.621152877848
 30
0.0
  0
VERTEX
  5
525
  8
BIG_DRAWERS
 10
2087.680080012953
 20
1002.25682736824
 30
0.0
  0
VERTEX
  5
526
  8
BIG_DRAWERS
 10
2088.315754503345
 20
1003.085254492986
 30
0.0
  0
VERTEX
  5
527
  8
BIG_DRAWERS
 10
2088.715356193363
 20
1004.049978312576
 30
0.0
  0
VERTEX
  5
528
  8
BIG_DRAWERS
 10
2088.851652888205
 20
1005.085254492985
 30
0.0
  0
VERTEX
  5
529
  8
BIG_DRAWERS
 10
2088.715356193363
 20
1006.120530673396
 30
0.0
  0
VERTEX
  5
52A
  8
BIG_DRAWERS
 10
2088.315754503345
 20
1007.085254492987
 30
0.0
  0
VERTEX
  5
52B
  8
BIG_DRAWERS
 10
2087.680080012953
 20
1007.913681617733
 30
0.0
  0
VERTEX
  5
52C
  8
BIG_DRAWERS
 10
2086.851652888205
 20
1008.549356108123
 30
0.0
  0
VERTEX
  5
52D
  8
BIG_DRAWERS
 10
2085.886929068614
 20
1008.948957798142
 30
0.0
  0
VERTEX
  5
52E
  8
BIG_DRAWERS
 10
2084.851652888206
 20
1009.085254492986
 30
0.0
  0
SEQEND
  5
814
  8
BIG_DRAWERS
  0
POLYLINE
  5
B6
  8
BIG_DRAWERS
 66
     1
 10
0.0
 20
0.0
 30
0.0
 70
     1
  0
VERTEX
  5
52F
  8
BIG_DRAWERS
 10
2149.249252053134
 20
1060.628051987767
 30
0.0
  0
VERTEX
  5
530
  8
BIG_DRAWERS
 10
2149.249252053134
 20
1134.128051987766
 30
0.0
  0
VERTEX
  5
531
  8
BIG_DRAWERS
 10
2156.449252053133
 20
1134.128051987766
 30
0.0
  0
VERTEX
  5
532
  8
BIG_DRAWERS
 10
2156.449252053133
 20
1060.628051987767
 30
0.0
  0
SEQEND
  5
815
  8
BIG_DRAWERS
  0
POLYLINE
  5
B7
  8
BIG_DRAWERS
 66
     1
 10
0.0
 20
0.0
 30
0.0
 70
     1
  0
VERTEX
  5
533
  8
BIG_DRAWERS
 10
2149.249252053134
 20
873.6280519877683
 30
0.0
  0
VERTEX
  5
534
  8
BIG_DRAWERS
 10
2155.449252053133
 20
873.6280519877683
 30
0.0
  0
VERTEX
  5
535
  8
BIG_DRAWERS
 10
2155.449252053133
 20
973.1280519877686
 30
0.0
  0
VERTEX
  5
536
  8
BIG_DRAWERS
 10
2149.249252053134
 20
973.1280519877686
 30
0.0
  0
SEQEND
  5
816
  8
BIG_DRAWERS
  0
POLYLINE
  5
B8
  8
BIG_DRAWERS
 66
     1
 10
0.0
 20
0.0
 30
0.0
 70
     1
  0
VERTEX
  5
537
  8
BIG_DRAWERS
 10
2149.249252053134
 20
733.3780519877686
 30
0.0
  0
VERTEX
  5
538
  8
BIG_DRAWERS
 10
2155.449252053133
 20
733.3780519877686
 30
0.0
  0
VERTEX
  5
539
  8
BIG_DRAWERS
 10
2155.449252053133
 20
832.878051987769
 30
0.0
  0
VERTEX
  5
53A
  8
BIG_DRAWERS
 10
2149.249252053134
 20
832.878051987769
 30
0.0
  0
SEQEND
  5
817
  8
BIG_DRAWERS
  0
POLYLINE
  5
B9
  8
BIG_DRAWERS
 66
     1
 10
0.0
 20
0.0
 30
0.0
 70
     1
  0
VERTEX
  5
53B
  8
BIG_DRAWERS
 10
2149.249252053134
 20
593.1280519877686
 30
0.0
  0
VERTEX
  5
53C
  8
BIG_DRAWERS
 10
2149.249252053134
 20
692.6280519877677
 30
0.0
  0
VERTEX
  5
53D
  8
BIG_DRAWERS
 10
2155.449252053133
 20
692.6280519877677
 30
0.0
  0
VERTEX
  5
53E
  8
BIG_DRAWERS
 10
2155.449252053133
 20
593.1280519877686
 30
0.0
  0
SEQEND
  5
818
  8
BIG_DRAWERS
  0
POLYLINE
  5
BA
  8
BIG_DRAWERS
 66
     1
 10
0.0
 20
0.0
 30
0.0
 70
     1
  0
VERTEX
  5
53F
  8
BIG_DRAWERS
 10
2149.249252053134
 20
432.1280519877694
 30
0.0
  0
VERTEX
  5
540
  8
BIG_DRAWERS
 10
2155.449252053133
 20
432.1280519877694
 30
0.0
  0
VERTEX
  5
541
  8
BIG_DRAWERS
 10
2155.449252053133
 20
505.6280519877683
 30
0.0
  0
VERTEX
  5
542
  8
BIG_DRAWERS
 10
2149.249252053134
 20
505.6280519877683
 30
0.0
  0
SEQEND
  5
819
  8
BIG_DRAWERS
  0
POLYLINE
  5
BB
  8
BIG_DRAWERS
 66
     1
 10
0.0
 20
0.0
 30
0.0
 70
     1
  0
VERTEX
  5
543
  8
BIG_DRAWERS
 10
1834.891752053131
 20
400.1280519877678
 30
0.0
  0
VERTEX
  5
544
  8
BIG_DRAWERS
 10
1841.891752053131
 20
400.1280519877678
 30
0.0
  0
VERTEX
  5
545
  8
BIG_DRAWERS
 10
1841.891752053131
 20
1166.128051987768
 30
0.0
  0
VERTEX
  5
546
  8
BIG_DRAWERS
 10
1834.891752053131
 20
1166.128051987768
 30
0.0
  0
SEQEND
  5
81A
  8
BIG_DRAWERS
  0
POLYLINE
  5
BC
  8
BIG_DRAWERS
 66
     1
 10
0.0
 20
0.0
 30
0.0
 70
     1
  0
VERTEX
  5
547
  8
BIG_DRAWERS
 10
1834.891752053136
 20
1163.128051987768
 30
0.0
  0
VERTEX
  5
548
  8
BIG_DRAWERS
 10
1841.891752053134
 20
1163.128051987768
 30
0.0
  0
VERTEX
  5
549
  8
BIG_DRAWERS
 10
1860.014252053134
 20
1163.128051987768
 30
0.0
  0
VERTEX
  5
54A
  8
BIG_DRAWERS
 10
1860.014252053134
 20
1151.128051987766
 30
0.0
  0
VERTEX
  5
54B
  8
BIG_DRAWERS
 10
1896.264252053136
 20
1151.128051987766
 30
0.0
  0
VERTEX
  5
54C
  8
BIG_DRAWERS
 10
1896.264252053136
 20
1163.128051987768
 30
0.0
  0
VERTEX
  5
54D
  8
BIG_DRAWERS
 10
1932.514252053134
 20
1163.128051987767
 30
0.0
  0
VERTEX
  5
54E
  8
BIG_DRAWERS
 10
1932.514252053131
 20
1151.128051987766
 30
0.0
  0
VERTEX
  5
54F
  8
BIG_DRAWERS
 10
1968.764252053134
 20
1151.128051987766
 30
0.0
  0
VERTEX
  5
550
  8
BIG_DRAWERS
 10
1968.764252053134
 20
1163.128051987767
 30
0.0
  0
VERTEX
  5
551
  8
BIG_DRAWERS
 10
2035.574252053131
 20
1163.128051987767
 30
0.0
  0
VERTEX
  5
552
  8
BIG_DRAWERS
 10
2035.574252053127
 20
1151.128051987764
 30
0.0
  0
VERTEX
  5
553
  8
BIG_DRAWERS
 10
2071.824252053137
 20
1151.128051987765
 30
0.0
  0
VERTEX
  5
554
  8
BIG_DRAWERS
 10
2071.824252053133
 20
1163.128051987767
 30
0.0
  0
VERTEX
  5
555
  8
BIG_DRAWERS
 10
2108.074252053131
 20
1163.128051987767
 30
0.0
  0
VERTEX
  5
556
  8
BIG_DRAWERS
 10
2108.074252053132
 20
1151.128051987765
 30
0.0
  0
VERTEX
  5
557
  8
BIG_DRAWERS
 10
2144.324252053134
 20
1151.128051987767
 30
0.0
  0
VERTEX
  5
558
  8
BIG_DRAWERS
 10
2144.324252053131
 20
1163.128051987768
 30
0.0
  0
VERTEX
  5
559
  8
BIG_DRAWERS
 10
2162.449252053131
 20
1163.128051987768
 30
0.0
  0
VERTEX
  5
55A
  8
BIG_DRAWERS
 10
2162.449252053131
 20
403.1280519877678
 30
0.0
  0
VERTEX
  5
55B
  8
BIG_DRAWERS
 10
2144.324252053131
 20
403.1280519877678
 30
0.0
  0
VERTEX
  5
55C
  8
BIG_DRAWERS
 10
2144.324252053134
 20
415.1280519877698
 30
0.0
  0
VERTEX
  5
55D
  8
BIG_DRAWERS
 10
2108.074252053133
 20
415.1280519877695
 30
0.0
  0
VERTEX
  5
55E
  8
BIG_DRAWERS
 10
2108.074252053131
 20
403.1280519877678
 30
0.0
  0
VERTEX
  5
55F
  8
BIG_DRAWERS
 10
2071.824252053133
 20
403.1280519877678
 30
0.0
  0
VERTEX
  5
560
  8
BIG_DRAWERS
 10
2071.824252053134
 20
415.1280519877694
 30
0.0
  0
VERTEX
  5
561
  8
BIG_DRAWERS
 10
2035.574252053132
 20
415.1280519877698
 30
0.0
  0
VERTEX
  5
562
  8
BIG_DRAWERS
 10
2035.574252053131
 20
403.1280519877679
 30
0.0
  0
VERTEX
  5
563
  8
BIG_DRAWERS
 10
1968.764252053134
 20
403.1280519877679
 30
0.0
  0
VERTEX
  5
564
  8
BIG_DRAWERS
 10
1968.764252053134
 20
415.1280519877693
 30
0.0
  0
VERTEX
  5
565
  8
BIG_DRAWERS
 10
1932.514252053134
 20
415.1280519877694
 30
0.0
  0
VERTEX
  5
566
  8
BIG_DRAWERS
 10
1932.514252053134
 20
403.1280519877678
 30
0.0
  0
VERTEX
  5
567
  8
BIG_DRAWERS
 10
1896.264252053136
 20
403.1280519877678
 30
0.0
  0
VERTEX
  5
568
  8
BIG_DRAWERS
 10
1896.264252053136
 20
415.1280519877695
 30
0.0
  0
VERTEX
  5
569
  8
BIG_DRAWERS
 10
1860.014252053133
 20
415.1280519877695
 30
0.0
  0
VERTEX
  5
56A
  8
BIG_DRAWERS
 10
1860.014252053134
 20
403.1280519877678
 30
0.0
  0
VERTEX
  5
56B
  8
BIG_DRAWERS
 10
1841.891752053134
 20
403.1280519877678
 30
0.0
  0
VERTEX
  5
56C
  8
BIG_DRAWERS
 10
1834.891752053136
 20
403.1280519877678
 30
0.0
  0
VERTEX
  5
56D
  8
BIG_DRAWERS
 10
1829.329252053136
 20
403.1280519877678
 30
0.0
  0
VERTEX
  5
56E
  8
BIG_DRAWERS
 10
1829.329252053136
 20
1163.128051987768
 30
0.0
  0
SEQEND
  5
81B
  8
BIG_DRAWERS
  0
POLYLINE
  5
BD
  8
BIG_DRAWERS
 66
     1
 10
0.0
 20
0.0
 30
0.0
 70
     1
  0
VERTEX
  5
56F
  8
BIG_DRAWERS
 10
888.1160595732479
 20
277.2634266461866
 30
0.0
  0
VERTEX
  5
570
  8
BIG_DRAWERS
 10
890.5092321917296
 20
279.051826668425
 30
0.0
  0
VERTEX
  5
571
  8
BIG_DRAWERS
 10
893.2837314167089
 20
280.1598897857568
 30
0.0
  0
VERTEX
  5
572
  8
BIG_DRAWERS
 10
896.2504797110713
 20
280.5121033279012
 30
0.0
  0
VERTEX
  5
573
  8
BIG_DRAWERS
 10
899.207298081346
 20
280.0844645240215
 30
0.0
  0
VERTEX
  5
574
  8
BIG_DRAWERS
 10
901.9526842419665
 20
278.9061162518903
 30
0.0
  0
VERTEX
  5
575
  8
BIG_DRAWERS
 10
904.2995446630613
 20
277.0573609989535
 30
0.0
  0
VERTEX
  5
576
  8
BIG_DRAWERS
 10
906.0879446852999
 20
274.6641883804716
 30
0.0
  0
VERTEX
  5
577
  8
BIG_DRAWERS
 10
907.1960078026261
 20
271.8896891554961
 30
0.0
  0
VERTEX
  5
578
  8
BIG_DRAWERS
 10
907.5482213447699
 20
268.9229408611338
 30
0.0
  0
VERTEX
  5
579
  8
BIG_DRAWERS
 10
907.1205825408792
 20
265.9661224908597
 30
0.0
  0
VERTEX
  5
57A
  8
BIG_DRAWERS
 10
905.9422342687653
 20
263.2207363302334
 30
0.0
  0
VERTEX
  5
57B
  8
BIG_DRAWERS
 10
904.0934790158238
 20
260.8738759091413
 30
0.0
  0
VERTEX
  5
57C
  8
BIG_DRAWERS
 10
901.7003063973456
 20
259.0854758869029
 30
0.0
  0
VERTEX
  5
57D
  8
BIG_DRAWERS
 10
898.9258071723664
 20
257.9774127695729
 30
0.0
  0
VERTEX
  5
57E
  8
BIG_DRAWERS
 10
895.9590588780035
 20
257.6251992274248
 30
0.0
  0
VERTEX
  5
57F
  8
BIG_DRAWERS
 10
893.0022405077291
 20
258.0528380313064
 30
0.0
  0
VERTEX
  5
580
  8
BIG_DRAWERS
 10
890.2568543471083
 20
259.2311863034376
 30
0.0
  0
VERTEX
  5
581
  8
BIG_DRAWERS
 10
887.9099939260134
 20
261.0799415563744
 30
0.0
  0
VERTEX
  5
582
  8
BIG_DRAWERS
 10
886.1215939037763
 20
263.4731141748582
 30
0.0
  0
VERTEX
  5
583
  8
BIG_DRAWERS
 10
885.013530786446
 20
266.2476133998318
 30
0.0
  0
VERTEX
  5
584
  8
BIG_DRAWERS
 10
884.6613172443025
 20
269.2143616941941
 30
0.0
  0
VERTEX
  5
585
  8
BIG_DRAWERS
 10
885.0889560481786
 20
272.1711800644682
 30
0.0
  0
VERTEX
  5
586
  8
BIG_DRAWERS
 10
886.2673043203123
 20
274.9165662250963
 30
0.0
  0
SEQEND
  5
81C
  8
BIG_DRAWERS
  0
POLYLINE
  5
BE
  8
BIG_DRAWERS
 66
     1
 10
0.0
 20
0.0
 30
0.0
 70
     1
  0
VERTEX
  5
587
  8
BIG_DRAWERS
 10
1022.104769294518
 20
59.10159090823089
 30
0.0
  0
VERTEX
  5
588
  8
BIG_DRAWERS
 10
1092.604769294516
 20
59.10159090822179
 30
0.0
  0
VERTEX
  5
589
  8
BIG_DRAWERS
 10
1092.604769294505
 20
52.90159090822107
 30
0.0
  0
VERTEX
  5
58A
  8
BIG_DRAWERS
 10
1022.104769294507
 20
52.90159090823016
 30
0.0
  0
SEQEND
  5
81D
  8
BIG_DRAWERS
  0
POLYLINE
  5
BF
  8
BIG_DRAWERS
 66
     1
 10
0.0
 20
0.0
 30
0.0
 70
     1
  0
VERTEX
  5
58B
  8
BIG_DRAWERS
 10
848.6047692945241
 20
59.10159090824908
 30
0.0
  0
VERTEX
  5
58C
  8
BIG_DRAWERS
 10
848.6047692945076
 20
52.90159090824653
 30
0.0
  0
VERTEX
  5
58D
  8
BIG_DRAWERS
 10
943.6047692945062
 20
52.90159090824653
 30
0.0
  0
VERTEX
  5
58E
  8
BIG_DRAWERS
 10
943.6047692945226
 20
59.10159090824544
 30
0.0
  0
SEQEND
  5
81E
  8
BIG_DRAWERS
  0
POLYLINE
  5
C0
  8
BIG_DRAWERS
 66
     1
 10
0.0
 20
0.0
 30
0.0
 70
     1
  0
VERTEX
  5
58F
  8
BIG_DRAWERS
 10
838.8769659719237
 20
333.4593864815544
 30
0.0
  0
VERTEX
  5
590
  8
BIG_DRAWERS
 10
842.1342973118338
 20
337.2492731741715
 30
0.0
  0
VERTEX
  5
591
  8
BIG_DRAWERS
 10
846.323034300075
 20
339.9746962687079
 30
0.0
  0
VERTEX
  5
592
  8
BIG_DRAWERS
 10
851.1076211973902
 20
341.4173247112323
 30
0.0
  0
VERTEX
  5
593
  8
BIG_DRAWERS
 10
856.1047692945301
 20
341.461590908246
 30
0.0
  0
VERTEX
  5
594
  8
BIG_DRAWERS
 10
936.1047692945292
 20
341.4615909082387
 30
0.0
  0
VERTEX
  5
595
  8
BIG_DRAWERS
 10
941.101917391669
 20
341.4173247112159
 30
0.0
  0
VERTEX
  5
596
  8
BIG_DRAWERS
 10
945.8865042889399
 20
339.9746962686915
 30
0.0
  0
VERTEX
  5
597
  8
BIG_DRAWERS
 10
950.0752412771908
 20
337.2492731741551
 30
0.0
  0
VERTEX
  5
598
  8
BIG_DRAWERS
 10
953.3325726171388
 20
333.459386481538
 30
0.0
  0
VERTEX
  5
599
  8
BIG_DRAWERS
 10
955.3975565907699
 20
328.90864041199
 30
0.0
  0
VERTEX
  5
59A
  8
BIG_DRAWERS
 10
956.1047692945288
 20
323.9615909082369
 30
0.0
  0
VERTEX
  5
59B
  8
BIG_DRAWERS
 10
955.3975565907753
 20
319.014541404482
 30
0.0
  0
VERTEX
  5
59C
  8
BIG_DRAWERS
 10
953.3325726171382
 20
314.4637953349285
 30
0.0
  0
VERTEX
  5
59D
  8
BIG_DRAWERS
 10
950.0752412772063
 20
310.6739086423151
 30
0.0
  0
VERTEX
  5
59E
  8
BIG_DRAWERS
 10
945.8865042889493
 20
307.9484855477769
 30
0.0
  0
VERTEX
  5
59F
  8
BIG_DRAWERS
 10
941.1019173916526
 20
306.5058571052543
 30
0.0
  0
VERTEX
  5
5A0
  8
BIG_DRAWERS
 10
936.1047692945131
 20
306.4615909082369
 30
0.0
  0
VERTEX
  5
5A1
  8
BIG_DRAWERS
 10
856.1047692945139
 20
306.461590908246
 30
0.0
  0
VERTEX
  5
5A2
  8
BIG_DRAWERS
 10
851.1076211973739
 20
306.505857105267
 30
0.0
  0
VERTEX
  5
5A3
  8
BIG_DRAWERS
 10
846.3230343000844
 20
307.9484855477933
 30
0.0
  0
VERTEX
  5
5A4
  8
BIG_DRAWERS
 10
842.1342973118493
 20
310.6739086423315
 30
0.0
  0
VERTEX
  5
5A5
  8
BIG_DRAWERS
 10
838.876965971923
 20
314.4637953349431
 30
0.0
  0
VERTEX
  5
5A6
  8
BIG_DRAWERS
 10
836.8119819982626
 20
319.0145414044966
 30
0.0
  0
VERTEX
  5
5A7
  8
BIG_DRAWERS
 10
836.1047692945272
 20
323.9615909082497
 30
0.0
  0
VERTEX
  5
5A8
  8
BIG_DRAWERS
 10
836.8119819982574
 20
328.9086404120082
 30
0.0
  0
SEQEND
  5
81F
  8
BIG_DRAWERS
  0
POLYLINE
  5
C1
  8
BIG_DRAWERS
 66
     1
 10
0.0
 20
0.0
 30
0.0
 70
     1
  0
VERTEX
  5
5A9
  8
BIG_DRAWERS
 10
699.6047692945219
 20
59.10159090827273
 30
0.0
  0
VERTEX
  5
5AA
  8
BIG_DRAWERS
 10
699.604769294505
 20
52.901590908272
 30
0.0
  0
VERTEX
  5
5AB
  8
BIG_DRAWERS
 10
770.1047692945037
 20
52.90159090826472
 30
0.0
  0
VERTEX
  5
5AC
  8
BIG_DRAWERS
 10
770.1047692945116
 20
59.10159090826545
 30
0.0
  0
SEQEND
  5
820
  8
BIG_DRAWERS
  0
POLYLINE
  5
C2
  8
BIG_DRAWERS
 66
     1
 10
0.0
 20
0.0
 30
0.0
 70
     1
  0
VERTEX
  5
5AD
  8
BIG_DRAWERS
 10
626.1047692945108
 20
348.3365909082806
 30
0.0
  0
VERTEX
  5
5AE
  8
BIG_DRAWERS
 10
638.1047692945108
 20
348.3365909082802
 30
0.0
  0
VERTEX
  5
5AF
  8
BIG_DRAWERS
 10
638.1047692945172
 20
366.4590909082764
 30
0.0
  0
VERTEX
  5
5B0
  8
BIG_DRAWERS
 10
1154.104769294521
 20
366.4590909082036
 30
0.0
  0
VERTEX
  5
5B1
  8
BIG_DRAWERS
 10
1154.104769294515
 20
348.3365909082106
 30
0.0
  0
VERTEX
  5
5B2
  8
BIG_DRAWERS
 10
1166.104769294515
 20
348.3365909082041
 30
0.0
  0
VERTEX
  5
5B3
  8
BIG_DRAWERS
 10
1166.104769294516
 20
312.0865909082041
 30
0.0
  0
VERTEX
  5
5B4
  8
BIG_DRAWERS
 10
1154.104769294519
 20
312.086590908209
 30
0.0
  0
VERTEX
  5
5B5
  8
BIG_DRAWERS
 10
1154.104769294507
 20
275.8365909082048
 30
0.0
  0
VERTEX
  5
5B6
  8
BIG_DRAWERS
 10
1166.104769294508
 20
275.8365909082059
 30
0.0
  0
VERTEX
  5
5B7
  8
BIG_DRAWERS
 10
1166.104769294523
 20
239.5865909082059
 30
0.0
  0
VERTEX
  5
5B8
  8
BIG_DRAWERS
 10
1154.104769294523
 20
239.5865909082078
 30
0.0
  0
VERTEX
  5
5B9
  8
BIG_DRAWERS
 10
1154.104769294523
 20
172.7765909082096
 30
0.0
  0
VERTEX
  5
5BA
  8
BIG_DRAWERS
 10
1166.104769294523
 20
172.7765909082082
 30
0.0
  0
VERTEX
  5
5BB
  8
BIG_DRAWERS
 10
1166.104769294516
 20
136.5265909082119
 30
0.0
  0
VERTEX
  5
5BC
  8
BIG_DRAWERS
 10
1154.104769294519
 20
136.526590908209
 30
0.0
  0
VERTEX
  5
5BD
  8
BIG_DRAWERS
 10
1154.104769294507
 20
100.2765909082079
 30
0.0
  0
VERTEX
  5
5BE
  8
BIG_DRAWERS
 10
1166.104769294508
 20
100.2765909082119
 30
0.0
  0
VERTEX
  5
5BF
  8
BIG_DRAWERS
 10
1166.104769294523
 20
64.02659090821004
 30
0.0
  0
VERTEX
  5
5C0
  8
BIG_DRAWERS
 10
1154.104769294523
 20
64.02659090821044
 30
0.0
  0
VERTEX
  5
5C1
  8
BIG_DRAWERS
 10
1154.104769294521
 20
45.90159090821186
 30
0.0
  0
VERTEX
  5
5C2
  8
BIG_DRAWERS
 10
1148.104769294521
 20
45.90159090821186
 30
0.0
  0
VERTEX
  5
5C3
  8
BIG_DRAWERS
 10
1140.431924638323
 20
39.70159090821295
 30
0.0
  0
VERTEX
  5
5C4
  8
BIG_DRAWERS
 10
651.7775595650633
 20
39.70159090828218
 30
0.0
  0
VERTEX
  5
5C5
  8
BIG_DRAWERS
 10
644.1047692945199
 20
45.90159090828291
 30
0.0
  0
VERTEX
  5
5C6
  8
BIG_DRAWERS
 10
638.1047692945185
 20
45.90159090828291
 30
0.0
  0
VERTEX
  5
5C7
  8
BIG_DRAWERS
 10
638.1047692945247
 20
64.0265909082847
 30
0.0
  0
VERTEX
  5
5C8
  8
BIG_DRAWERS
 10
626.1047692945244
 20
64.02659090828291
 30
0.0
  0
VERTEX
  5
5C9
  8
BIG_DRAWERS
 10
626.1047692945006
 20
100.2765909082829
 30
0.0
  0
VERTEX
  5
5CA
  8
BIG_DRAWERS
 10
638.1047692944978
 20
100.2765909082848
 30
0.0
  0
VERTEX
  5
5CB
  8
BIG_DRAWERS
 10
638.1047692945116
 20
136.5265909082848
 30
0.0
  0
VERTEX
  5
5CC
  8
BIG_DRAWERS
 10
626.1047692945169
 20
136.5265909082847
 30
0.0
  0
VERTEX
  5
5CD
  8
BIG_DRAWERS
 10
626.104769294519
 20
172.7765909082847
 30
0.0
  0
VERTEX
  5
5CE
  8
BIG_DRAWERS
 10
638.104769294519
 20
172.7765909082845
 30
0.0
  0
VERTEX
  5
5CF
  8
BIG_DRAWERS
 10
638.1047692945247
 20
239.5865909082826
 30
0.0
  0
VERTEX
  5
5D0
  8
BIG_DRAWERS
 10
626.1047692945244
 20
239.5865909082788
 30
0.0
  0
VERTEX
  5
5D1
  8
BIG_DRAWERS
 10
626.1047692945006
 20
275.8365909082806
 30
0.0
  0
VERTEX
  5
5D2
  8
BIG_DRAWERS
 10
638.1047692944978
 20
275.8365909082805
 30
0.0
  0
VERTEX
  5
5D3
  8
BIG_DRAWERS
 10
638.1047692945115
 20
312.0865909082826
 30
0.0
  0
VERTEX
  5
5D4
  8
BIG_DRAWERS
 10
626.1047692945172
 20
312.0865909082824
 30
0.0
  0
SEQEND
  5
821
  8
BIG_DRAWERS
  0
POLYLINE
  5
C3
  8
BIG_DRAWERS
 66
     1
 10
0.0
 20
0.0
 30
0.0
 70
     1
  0
VERTEX
  5
5D5
  8
BIG_DRAWERS
 10
996.1047692945224
 20
299.0686512776485
 30
0.0
  0
VERTEX
  5
5D6
  8
BIG_DRAWERS
 10
796.1047692945217
 20
299.0686512776776
 30
0.0
  0
VERTEX
  5
5D7
  8
BIG_DRAWERS
 10
796.1047692945319
 20
239.0686512776794
 30
0.0
  0
VERTEX
  5
5D8
  8
BIG_DRAWERS
 10
996.1047692945327
 20
239.0686512776467
 30
0.0
  0
SEQEND
  5
822
  8
BIG_DRAWERS
  0
POLYLINE
  5
C4
  8
BIG_DRAWERS
 66
     1
 10
0.0
 20
0.0
 30
0.0
 70
     1
  0
VERTEX
  5
5D9
  8
BIG_DRAWERS
 10
717.468472357509
 20
105.4403957152063
 30
0.0
  0
VERTEX
  5
5DA
  8
BIG_DRAWERS
 10
717.6047690523528
 20
106.4756718956141
 30
0.0
  0
VERTEX
  5
5DB
  8
BIG_DRAWERS
 10
717.468472357509
 20
107.5109480760239
 30
0.0
  0
VERTEX
  5
5DC
  8
BIG_DRAWERS
 10
717.0688706674898
 20
108.4756718956141
 30
0.0
  0
VERTEX
  5
5DD
  8
BIG_DRAWERS
 10
716.4331961770995
 20
109.304099020359
 30
0.0
  0
VERTEX
  5
5DE
  8
BIG_DRAWERS
 10
715.6047690523519
 20
109.9397735107505
 30
0.0
  0
VERTEX
  5
5DF
  8
BIG_DRAWERS
 10
714.6400452327632
 20
110.3393752007723
 30
0.0
  0
VERTEX
  5
5E0
  8
BIG_DRAWERS
 10
713.6047690523524
 20
110.4756718956141
 30
0.0
  0
VERTEX
  5
5E1
  8
BIG_DRAWERS
 10
712.5694928719429
 20
110.3393752007723
 30
0.0
  0
VERTEX
  5
5E2
  8
BIG_DRAWERS
 10
711.6047690523528
 20
109.9397735107505
 30
0.0
  0
VERTEX
  5
5E3
  8
BIG_DRAWERS
 10
710.7763419276066
 20
109.304099020359
 30
0.0
  0
VERTEX
  5
5E4
  8
BIG_DRAWERS
 10
710.1406674372149
 20
108.4756718956141
 30
0.0
  0
VERTEX
  5
5E5
  8
BIG_DRAWERS
 10
709.7410657471974
 20
107.5109480760239
 30
0.0
  0
VERTEX
  5
5E6
  8
BIG_DRAWERS
 10
709.6047690523533
 20
106.4756718956141
 30
0.0
  0
VERTEX
  5
5E7
  8
BIG_DRAWERS
 10
709.7410657471974
 20
105.4403957152063
 30
0.0
  0
VERTEX
  5
5E8
  8
BIG_DRAWERS
 10
710.1406674372149
 20
104.475671895616
 30
0.0
  0
VERTEX
  5
5E9
  8
BIG_DRAWERS
 10
710.7763419276066
 20
103.6472447708675
 30
0.0
  0
VERTEX
  5
5EA
  8
BIG_DRAWERS
 10
711.6047690523528
 20
103.011570280476
 30
0.0
  0
VERTEX
  5
5EB
  8
BIG_DRAWERS
 10
712.5694928719429
 20
102.6119685904578
 30
0.0
  0
VERTEX
  5
5EC
  8
BIG_DRAWERS
 10
713.6047690523524
 20
102.475671895616
 30
0.0
  0
VERTEX
  5
5ED
  8
BIG_DRAWERS
 10
714.6400452327632
 20
102.6119685904578
 30
0.0
  0
VERTEX
  5
5EE
  8
BIG_DRAWERS
 10
715.6047690523533
 20
103.011570280476
 30
0.0
  0
VERTEX
  5
5EF
  8
BIG_DRAWERS
 10
716.4331961770995
 20
103.6472447708675
 30
0.0
  0
VERTEX
  5
5F0
  8
BIG_DRAWERS
 10
717.0688706674898
 20
104.475671895616
 30
0.0
  0
SEQEND
  5
823
  8
BIG_DRAWERS
  0
POLYLINE
  5
C5
  8
BIG_DRAWERS
 66
     1
 10
0.0
 20
0.0
 30
0.0
 70
     1
  0
VERTEX
  5
5F1
  8
BIG_DRAWERS
 10
1082.468472357508
 20
301.0709480760232
 30
0.0
  0
VERTEX
  5
5F2
  8
BIG_DRAWERS
 10
1082.068870667489
 20
302.0356718956117
 30
0.0
  0
VERTEX
  5
5F3
  8
BIG_DRAWERS
 10
1081.433196177099
 20
302.8640990203565
 30
0.0
  0
VERTEX
  5
5F4
  8
BIG_DRAWERS
 10
1080.604769052351
 20
303.4997735107498
 30
0.0
  0
VERTEX
  5
5F5
  8
BIG_DRAWERS
 10
1079.640045232762
 20
303.8993752007699
 30
0.0
  0
VERTEX
  5
5F6
  8
BIG_DRAWERS
 10
1078.604769052351
 20
304.0356718956117
 30
0.0
  0
VERTEX
  5
5F7
  8
BIG_DRAWERS
 10
1077.569492871942
 20
303.8993752007699
 30
0.0
  0
VERTEX
  5
5F8
  8
BIG_DRAWERS
 10
1076.604769052352
 20
303.4997735107498
 30
0.0
  0
VERTEX
  5
5F9
  8
BIG_DRAWERS
 10
1075.776341927606
 20
302.8640990203565
 30
0.0
  0
VERTEX
  5
5FA
  8
BIG_DRAWERS
 10
1075.140667437214
 20
302.0356718956117
 30
0.0
  0
VERTEX
  5
5FB
  8
BIG_DRAWERS
 10
1074.741065747196
 20
301.0709480760232
 30
0.0
  0
VERTEX
  5
5FC
  8
BIG_DRAWERS
 10
1074.604769052352
 20
300.0356718956135
 30
0.0
  0
VERTEX
  5
5FD
  8
BIG_DRAWERS
 10
1074.741065747196
 20
299.0003957152038
 30
0.0
  0
VERTEX
  5
5FE
  8
BIG_DRAWERS
 10
1075.140667437214
 20
298.0356718956135
 30
0.0
  0
VERTEX
  5
5FF
  8
BIG_DRAWERS
 10
1075.776341927606
 20
297.207244770865
 30
0.0
  0
VERTEX
  5
600
  8
BIG_DRAWERS
 10
1076.604769052352
 20
296.5715702804736
 30
0.0
  0
VERTEX
  5
601
  8
BIG_DRAWERS
 10
1077.569492871942
 20
296.1719685904571
 30
0.0
  0
VERTEX
  5
602
  8
BIG_DRAWERS
 10
1078.604769052351
 20
296.0356718956135
 30
0.0
  0
VERTEX
  5
603
  8
BIG_DRAWERS
 10
1079.640045232762
 20
296.1719685904571
 30
0.0
  0
VERTEX
  5
604
  8
BIG_DRAWERS
 10
1080.604769052352
 20
296.5715702804736
 30
0.0
  0
VERTEX
  5
605
  8
BIG_DRAWERS
 10
1081.433196177099
 20
297.207244770865
 30
0.0
  0
VERTEX
  5
606
  8
BIG_DRAWERS
 10
1082.068870667489
 20
298.0356718956135
 30
0.0
  0
VERTEX
  5
607
  8
BIG_DRAWERS
 10
1082.468472357508
 20
299.0003957152038
 30
0.0
  0
VERTEX
  5
608
  8
BIG_DRAWERS
 10
1082.604769052352
 20
300.0356718956135
 30
0.0
  0
SEQEND
  5
824
  8
BIG_DRAWERS
  0
POLYLINE
  5
C6
  8
BIG_DRAWERS
 66
     1
 10
0.0
 20
0.0
 30
0.0
 70
     1
  0
VERTEX
  5
609
  8
BIG_DRAWERS
 10
717.468472357509
 20
299.0003957152039
 30
0.0
  0
VERTEX
  5
60A
  8
BIG_DRAWERS
 10
717.6047690523528
 20
300.0356718956136
 30
0.0
  0
VERTEX
  5
60B
  8
BIG_DRAWERS
 10
717.468472357509
 20
301.0709480760233
 30
0.0
  0
VERTEX
  5
60C
  8
BIG_DRAWERS
 10
717.0688706674898
 20
302.0356718956118
 30
0.0
  0
VERTEX
  5
60D
  8
BIG_DRAWERS
 10
716.4331961770995
 20
302.8640990203567
 30
0.0
  0
VERTEX
  5
60E
  8
BIG_DRAWERS
 10
715.6047690523519
 20
303.4997735107499
 30
0.0
  0
VERTEX
  5
60F
  8
BIG_DRAWERS
 10
714.6400452327632
 20
303.89937520077
 30
0.0
  0
VERTEX
  5
610
  8
BIG_DRAWERS
 10
713.6047690523524
 20
304.0356718956118
 30
0.0
  0
VERTEX
  5
611
  8
BIG_DRAWERS
 10
712.5694928719429
 20
303.89937520077
 30
0.0
  0
VERTEX
  5
612
  8
BIG_DRAWERS
 10
711.6047690523528
 20
303.4997735107499
 30
0.0
  0
VERTEX
  5
613
  8
BIG_DRAWERS
 10
710.7763419276066
 20
302.8640990203567
 30
0.0
  0
VERTEX
  5
614
  8
BIG_DRAWERS
 10
710.1406674372149
 20
302.0356718956118
 30
0.0
  0
VERTEX
  5
615
  8
BIG_DRAWERS
 10
709.7410657471974
 20
301.0709480760233
 30
0.0
  0
VERTEX
  5
616
  8
BIG_DRAWERS
 10
709.6047690523533
 20
300.0356718956136
 30
0.0
  0
VERTEX
  5
617
  8
BIG_DRAWERS
 10
709.7410657471974
 20
299.0003957152039
 30
0.0
  0
VERTEX
  5
618
  8
BIG_DRAWERS
 10
710.1406674372149
 20
298.0356718956136
 30
0.0
  0
VERTEX
  5
619
  8
BIG_DRAWERS
 10
710.7763419276066
 20
297.2072447708651
 30
0.0
  0
VERTEX
  5
61A
  8
BIG_DRAWERS
 10
711.6047690523528
 20
296.5715702804737
 30
0.0
  0
VERTEX
  5
61B
  8
BIG_DRAWERS
 10
712.5694928719429
 20
296.1719685904573
 30
0.0
  0
VERTEX
  5
61C
  8
BIG_DRAWERS
 10
713.6047690523524
 20
296.0356718956136
 30
0.0
  0
VERTEX
  5
61D
  8
BIG_DRAWERS
 10
714.6400452327632
 20
296.1719685904573
 30
0.0
  0
VERTEX
  5
61E
  8
BIG_DRAWERS
 10
715.6047690523533
 20
296.5715702804737
 30
0.0
  0
VERTEX
  5
61F
  8
BIG_DRAWERS
 10
716.4331961770995
 20
297.2072447708651
 30
0.0
  0
VERTEX
  5
620
  8
BIG_DRAWERS
 10
717.0688706674898
 20
298.0356718956136
 30
0.0
  0
SEQEND
  5
825
  8
BIG_DRAWERS
  0
POLYLINE
  5
C7
  8
BIG_DRAWERS
 66
     1
 10
0.0
 20
0.0
 30
0.0
 70
     1
  0
VERTEX
  5
621
  8
BIG_DRAWERS
 10
1082.468472357508
 20
107.5109480760239
 30
0.0
  0
VERTEX
  5
622
  8
BIG_DRAWERS
 10
1082.068870667489
 20
108.4756718956141
 30
0.0
  0
VERTEX
  5
623
  8
BIG_DRAWERS
 10
1081.433196177099
 20
109.304099020359
 30
0.0
  0
VERTEX
  5
624
  8
BIG_DRAWERS
 10
1080.604769052351
 20
109.9397735107505
 30
0.0
  0
VERTEX
  5
625
  8
BIG_DRAWERS
 10
1079.640045232762
 20
110.3393752007723
 30
0.0
  0
VERTEX
  5
626
  8
BIG_DRAWERS
 10
1078.604769052351
 20
110.4756718956141
 30
0.0
  0
VERTEX
  5
627
  8
BIG_DRAWERS
 10
1077.569492871942
 20
110.3393752007723
 30
0.0
  0
VERTEX
  5
628
  8
BIG_DRAWERS
 10
1076.604769052352
 20
109.9397735107505
 30
0.0
  0
VERTEX
  5
629
  8
BIG_DRAWERS
 10
1075.776341927606
 20
109.304099020359
 30
0.0
  0
VERTEX
  5
62A
  8
BIG_DRAWERS
 10
1075.140667437214
 20
108.4756718956141
 30
0.0
  0
VERTEX
  5
62B
  8
BIG_DRAWERS
 10
1074.741065747196
 20
107.5109480760239
 30
0.0
  0
VERTEX
  5
62C
  8
BIG_DRAWERS
 10
1074.604769052352
 20
106.4756718956141
 30
0.0
  0
VERTEX
  5
62D
  8
BIG_DRAWERS
 10
1074.741065747196
 20
105.4403957152063
 30
0.0
  0
VERTEX
  5
62E
  8
BIG_DRAWERS
 10
1075.140667437214
 20
104.475671895616
 30
0.0
  0
VERTEX
  5
62F
  8
BIG_DRAWERS
 10
1075.776341927606
 20
103.6472447708675
 30
0.0
  0
VERTEX
  5
630
  8
BIG_DRAWERS
 10
1076.604769052352
 20
103.011570280476
 30
0.0
  0
VERTEX
  5
631
  8
BIG_DRAWERS
 10
1077.569492871942
 20
102.6119685904578
 30
0.0
  0
VERTEX
  5
632
  8
BIG_DRAWERS
 10
1078.604769052351
 20
102.475671895616
 30
0.0
  0
VERTEX
  5
633
  8
BIG_DRAWERS
 10
1079.640045232762
 20
102.6119685904578
 30
0.0
  0
VERTEX
  5
634
  8
BIG_DRAWERS
 10
1080.604769052352
 20
103.011570280476
 30
0.0
  0
VERTEX
  5
635
  8
BIG_DRAWERS
 10
1081.433196177099
 20
103.6472447708675
 30
0.0
  0
VERTEX
  5
636
  8
BIG_DRAWERS
 10
1082.068870667489
 20
104.475671895616
 30
0.0
  0
VERTEX
  5
637
  8
BIG_DRAWERS
 10
1082.468472357508
 20
105.4403957152063
 30
0.0
  0
VERTEX
  5
638
  8
BIG_DRAWERS
 10
1082.604769052352
 20
106.4756718956141
 30
0.0
  0
SEQEND
  5
826
  8
BIG_DRAWERS
  0
POLYLINE
  5
C8
  8
BIG_DRAWERS
 66
     1
 10
0.0
 20
0.0
 30
0.0
 70
     1
  0
VERTEX
  5
639
  8
BIG_DRAWERS
 10
1440.271231987039
 20
277.2634266461866
 30
0.0
  0
VERTEX
  5
63A
  8
BIG_DRAWERS
 10
1442.664404605521
 20
279.051826668425
 30
0.0
  0
VERTEX
  5
63B
  8
BIG_DRAWERS
 10
1445.4389038305
 20
280.1598897857568
 30
0.0
  0
VERTEX
  5
63C
  8
BIG_DRAWERS
 10
1448.405652124863
 20
280.5121033279012
 30
0.0
  0
VERTEX
  5
63D
  8
BIG_DRAWERS
 10
1451.362470495138
 20
280.0844645240215
 30
0.0
  0
VERTEX
  5
63E
  8
BIG_DRAWERS
 10
1454.107856655758
 20
278.9061162518903
 30
0.0
  0
VERTEX
  5
63F
  8
BIG_DRAWERS
 10
1456.454717076853
 20
277.0573609989535
 30
0.0
  0
VERTEX
  5
640
  8
BIG_DRAWERS
 10
1458.243117099091
 20
274.6641883804716
 30
0.0
  0
VERTEX
  5
641
  8
BIG_DRAWERS
 10
1459.351180216418
 20
271.8896891554961
 30
0.0
  0
VERTEX
  5
642
  8
BIG_DRAWERS
 10
1459.703393758561
 20
268.9229408611338
 30
0.0
  0
VERTEX
  5
643
  8
BIG_DRAWERS
 10
1459.275754954671
 20
265.9661224908597
 30
0.0
  0
VERTEX
  5
644
  8
BIG_DRAWERS
 10
1458.097406682557
 20
263.2207363302334
 30
0.0
  0
VERTEX
  5
645
  8
BIG_DRAWERS
 10
1456.248651429615
 20
260.8738759091413
 30
0.0
  0
VERTEX
  5
646
  8
BIG_DRAWERS
 10
1453.855478811137
 20
259.0854758869029
 30
0.0
  0
VERTEX
  5
647
  8
BIG_DRAWERS
 10
1451.080979586158
 20
257.9774127695729
 30
0.0
  0
VERTEX
  5
648
  8
BIG_DRAWERS
 10
1448.114231291795
 20
257.6251992274248
 30
0.0
  0
VERTEX
  5
649
  8
BIG_DRAWERS
 10
1445.157412921521
 20
258.0528380313064
 30
0.0
  0
VERTEX
  5
64A
  8
BIG_DRAWERS
 10
1442.4120267609
 20
259.2311863034376
 30
0.0
  0
VERTEX
  5
64B
  8
BIG_DRAWERS
 10
1440.065166339805
 20
261.0799415563744
 30
0.0
  0
VERTEX
  5
64C
  8
BIG_DRAWERS
 10
1438.276766317568
 20
263.4731141748582
 30
0.0
  0
VERTEX
  5
64D
  8
BIG_DRAWERS
 10
1437.168703200237
 20
266.2476133998318
 30
0.0
  0
VERTEX
  5
64E
  8
BIG_DRAWERS
 10
1436.816489658094
 20
269.2143616941941
 30
0.0
  0
VERTEX
  5
64F
  8
BIG_DRAWERS
 10
1437.24412846197
 20
272.1711800644682
 30
0.0
  0
VERTEX
  5
650
  8
BIG_DRAWERS
 10
1438.422476734104
 20
274.9165662250963
 30
0.0
  0
SEQEND
  5
827
  8
BIG_DRAWERS
  0
POLYLINE
  5
C9
  8
BIG_DRAWERS
 66
     1
 10
0.0
 20
0.0
 30
0.0
 70
     1
  0
VERTEX
  5
651
  8
BIG_DRAWERS
 10
1574.259941708309
 20
59.10159090823089
 30
0.0
  0
VERTEX
  5
652
  8
BIG_DRAWERS
 10
1644.759941708307
 20
59.10159090822179
 30
0.0
  0
VERTEX
  5
653
  8
BIG_DRAWERS
 10
1644.759941708297
 20
52.90159090822107
 30
0.0
  0
VERTEX
  5
654
  8
BIG_DRAWERS
 10
1574.259941708299
 20
52.90159090823016
 30
0.0
  0
SEQEND
  5
828
  8
BIG_DRAWERS
  0
POLYLINE
  5
CA
  8
BIG_DRAWERS
 66
     1
 10
0.0
 20
0.0
 30
0.0
 70
     1
  0
VERTEX
  5
655
  8
BIG_DRAWERS
 10
1400.759941708316
 20
59.10159090824908
 30
0.0
  0
VERTEX
  5
656
  8
BIG_DRAWERS
 10
1400.759941708299
 20
52.90159090824653
 30
0.0
  0
VERTEX
  5
657
  8
BIG_DRAWERS
 10
1495.759941708298
 20
52.90159090824653
 30
0.0
  0
VERTEX
  5
658
  8
BIG_DRAWERS
 10
1495.759941708314
 20
59.10159090824544
 30
0.0
  0
SEQEND
  5
829
  8
BIG_DRAWERS
  0
POLYLINE
  5
CB
  8
BIG_DRAWERS
 66
     1
 10
0.0
 20
0.0
 30
0.0
 70
     1
  0
VERTEX
  5
659
  8
BIG_DRAWERS
 10
1391.032138385715
 20
333.4593864815544
 30
0.0
  0
VERTEX
  5
65A
  8
BIG_DRAWERS
 10
1394.289469725625
 20
337.2492731741715
 30
0.0
  0
VERTEX
  5
65B
  8
BIG_DRAWERS
 10
1398.478206713866
 20
339.9746962687079
 30
0.0
  0
VERTEX
  5
65C
  8
BIG_DRAWERS
 10
1403.262793611182
 20
341.4173247112323
 30
0.0
  0
VERTEX
  5
65D
  8
BIG_DRAWERS
 10
1408.259941708322
 20
341.461590908246
 30
0.0
  0
VERTEX
  5
65E
  8
BIG_DRAWERS
 10
1488.259941708321
 20
341.4615909082387
 30
0.0
  0
VERTEX
  5
65F
  8
BIG_DRAWERS
 10
1493.257089805461
 20
341.4173247112159
 30
0.0
  0
VERTEX
  5
660
  8
BIG_DRAWERS
 10
1498.041676702731
 20
339.9746962686915
 30
0.0
  0
VERTEX
  5
661
  8
BIG_DRAWERS
 10
1502.230413690982
 20
337.2492731741551
 30
0.0
  0
VERTEX
  5
662
  8
BIG_DRAWERS
 10
1505.48774503093
 20
333.459386481538
 30
0.0
  0
VERTEX
  5
663
  8
BIG_DRAWERS
 10
1507.552729004561
 20
328.90864041199
 30
0.0
  0
VERTEX
  5
664
  8
BIG_DRAWERS
 10
1508.25994170832
 20
323.9615909082369
 30
0.0
  0
VERTEX
  5
665
  8
BIG_DRAWERS
 10
1507.552729004567
 20
319.014541404482
 30
0.0
  0
VERTEX
  5
666
  8
BIG_DRAWERS
 10
1505.48774503093
 20
314.4637953349285
 30
0.0
  0
VERTEX
  5
667
  8
BIG_DRAWERS
 10
1502.230413690998
 20
310.6739086423151
 30
0.0
  0
VERTEX
  5
668
  8
BIG_DRAWERS
 10
1498.041676702741
 20
307.9484855477769
 30
0.0
  0
VERTEX
  5
669
  8
BIG_DRAWERS
 10
1493.257089805444
 20
306.5058571052543
 30
0.0
  0
VERTEX
  5
66A
  8
BIG_DRAWERS
 10
1488.259941708304
 20
306.4615909082369
 30
0.0
  0
VERTEX
  5
66B
  8
BIG_DRAWERS
 10
1408.259941708305
 20
306.461590908246
 30
0.0
  0
VERTEX
  5
66C
  8
BIG_DRAWERS
 10
1403.262793611165
 20
306.505857105267
 30
0.0
  0
VERTEX
  5
66D
  8
BIG_DRAWERS
 10
1398.478206713876
 20
307.9484855477933
 30
0.0
  0
VERTEX
  5
66E
  8
BIG_DRAWERS
 10
1394.289469725641
 20
310.6739086423315
 30
0.0
  0
VERTEX
  5
66F
  8
BIG_DRAWERS
 10
1391.032138385714
 20
314.4637953349431
 30
0.0
  0
VERTEX
  5
670
  8
BIG_DRAWERS
 10
1388.967154412054
 20
319.0145414044966
 30
0.0
  0
VERTEX
  5
671
  8
BIG_DRAWERS
 10
1388.259941708319
 20
323.9615909082497
 30
0.0
  0
VERTEX
  5
672
  8
BIG_DRAWERS
 10
1388.967154412049
 20
328.9086404120082
 30
0.0
  0
SEQEND
  5
82A
  8
BIG_DRAWERS
  0
POLYLINE
  5
CC
  8
BIG_DRAWERS
 66
     1
 10
0.0
 20
0.0
 30
0.0
 70
     1
  0
VERTEX
  5
673
  8
BIG_DRAWERS
 10
1251.759941708313
 20
59.10159090827273
 30
0.0
  0
VERTEX
  5
674
  8
BIG_DRAWERS
 10
1251.759941708297
 20
52.901590908272
 30
0.0
  0
VERTEX
  5
675
  8
BIG_DRAWERS
 10
1322.259941708295
 20
52.90159090826472
 30
0.0
  0
VERTEX
  5
676
  8
BIG_DRAWERS
 10
1322.259941708303
 20
59.10159090826545
 30
0.0
  0
SEQEND
  5
82B
  8
BIG_DRAWERS
  0
POLYLINE
  5
CD
  8
BIG_DRAWERS
 66
     1
 10
0.0
 20
0.0
 30
0.0
 70
     1
  0
VERTEX
  5
677
  8
BIG_DRAWERS
 10
1178.259941708302
 20
348.3365909082806
 30
0.0
  0
VERTEX
  5
678
  8
BIG_DRAWERS
 10
1190.259941708302
 20
348.3365909082802
 30
0.0
  0
VERTEX
  5
679
  8
BIG_DRAWERS
 10
1190.259941708309
 20
366.4590909082764
 30
0.0
  0
VERTEX
  5
67A
  8
BIG_DRAWERS
 10
1706.259941708312
 20
366.4590909082036
 30
0.0
  0
VERTEX
  5
67B
  8
BIG_DRAWERS
 10
1706.259941708306
 20
348.3365909082106
 30
0.0
  0
VERTEX
  5
67C
  8
BIG_DRAWERS
 10
1718.259941708306
 20
348.3365909082041
 30
0.0
  0
VERTEX
  5
67D
  8
BIG_DRAWERS
 10
1718.259941708307
 20
312.0865909082041
 30
0.0
  0
VERTEX
  5
67E
  8
BIG_DRAWERS
 10
1706.25994170831
 20
312.086590908209
 30
0.0
  0
VERTEX
  5
67F
  8
BIG_DRAWERS
 10
1706.259941708299
 20
275.8365909082048
 30
0.0
  0
VERTEX
  5
680
  8
BIG_DRAWERS
 10
1718.259941708299
 20
275.8365909082059
 30
0.0
  0
VERTEX
  5
681
  8
BIG_DRAWERS
 10
1718.259941708315
 20
239.5865909082059
 30
0.0
  0
VERTEX
  5
682
  8
BIG_DRAWERS
 10
1706.259941708314
 20
239.5865909082078
 30
0.0
  0
VERTEX
  5
683
  8
BIG_DRAWERS
 10
1706.259941708314
 20
172.7765909082096
 30
0.0
  0
VERTEX
  5
684
  8
BIG_DRAWERS
 10
1718.259941708314
 20
172.7765909082082
 30
0.0
  0
VERTEX
  5
685
  8
BIG_DRAWERS
 10
1718.259941708307
 20
136.5265909082119
 30
0.0
  0
VERTEX
  5
686
  8
BIG_DRAWERS
 10
1706.25994170831
 20
136.526590908209
 30
0.0
  0
VERTEX
  5
687
  8
BIG_DRAWERS
 10
1706.259941708299
 20
100.2765909082079
 30
0.0
  0
VERTEX
  5
688
  8
BIG_DRAWERS
 10
1718.259941708299
 20
100.2765909082119
 30
0.0
  0
VERTEX
  5
689
  8
BIG_DRAWERS
 10
1718.259941708315
 20
64.02659090821004
 30
0.0
  0
VERTEX
  5
68A
  8
BIG_DRAWERS
 10
1706.259941708314
 20
64.02659090821044
 30
0.0
  0
VERTEX
  5
68B
  8
BIG_DRAWERS
 10
1706.259941708312
 20
45.90159090821186
 30
0.0
  0
VERTEX
  5
68C
  8
BIG_DRAWERS
 10
1700.259941708312
 20
45.90159090821186
 30
0.0
  0
VERTEX
  5
68D
  8
BIG_DRAWERS
 10
1692.587097052114
 20
39.70159090821295
 30
0.0
  0
VERTEX
  5
68E
  8
BIG_DRAWERS
 10
1203.932731978855
 20
39.70159090828218
 30
0.0
  0
VERTEX
  5
68F
  8
BIG_DRAWERS
 10
1196.259941708311
 20
45.90159090828291
 30
0.0
  0
VERTEX
  5
690
  8
BIG_DRAWERS
 10
1190.25994170831
 20
45.90159090828291
 30
0.0
  0
VERTEX
  5
691
  8
BIG_DRAWERS
 10
1190.259941708316
 20
64.0265909082847
 30
0.0
  0
VERTEX
  5
692
  8
BIG_DRAWERS
 10
1178.259941708316
 20
64.02659090828291
 30
0.0
  0
VERTEX
  5
693
  8
BIG_DRAWERS
 10
1178.259941708292
 20
100.2765909082829
 30
0.0
  0
VERTEX
  5
694
  8
BIG_DRAWERS
 10
1190.259941708289
 20
100.2765909082848
 30
0.0
  0
VERTEX
  5
695
  8
BIG_DRAWERS
 10
1190.259941708303
 20
136.5265909082848
 30
0.0
  0
VERTEX
  5
696
  8
BIG_DRAWERS
 10
1178.259941708308
 20
136.5265909082847
 30
0.0
  0
VERTEX
  5
697
  8
BIG_DRAWERS
 10
1178.25994170831
 20
172.7765909082847
 30
0.0
  0
VERTEX
  5
698
  8
BIG_DRAWERS
 10
1190.25994170831
 20
172.7765909082845
 30
0.0
  0
VERTEX
  5
699
  8
BIG_DRAWERS
 10
1190.259941708316
 20
239.5865909082826
 30
0.0
  0
VERTEX
  5
69A
  8
BIG_DRAWERS
 10
1178.259941708316
 20
239.5865909082788
 30
0.0
  0
VERTEX
  5
69B
  8
BIG_DRAWERS
 10
1178.259941708292
 20
275.8365909082806
 30
0.0
  0
VERTEX
  5
69C
  8
BIG_DRAWERS
 10
1190.259941708289
 20
275.8365909082805
 30
0.0
  0
VERTEX
  5
69D
  8
BIG_DRAWERS
 10
1190.259941708303
 20
312.0865909082826
 30
0.0
  0
VERTEX
  5
69E
  8
BIG_DRAWERS
 10
1178.259941708309
 20
312.0865909082824
 30
0.0
  0
SEQEND
  5
82C
  8
BIG_DRAWERS
  0
POLYLINE
  5
CE
  8
BIG_DRAWERS
 66
     1
 10
0.0
 20
0.0
 30
0.0
 70
     1
  0
VERTEX
  5
69F
  8
BIG_DRAWERS
 10
1548.259941708314
 20
299.0686512776485
 30
0.0
  0
VERTEX
  5
6A0
  8
BIG_DRAWERS
 10
1348.259941708313
 20
299.0686512776776
 30
0.0
  0
VERTEX
  5
6A1
  8
BIG_DRAWERS
 10
1348.259941708323
 20
239.0686512776794
 30
0.0
  0
VERTEX
  5
6A2
  8
BIG_DRAWERS
 10
1548.259941708324
 20
239.0686512776467
 30
0.0
  0
SEQEND
  5
82D
  8
BIG_DRAWERS
  0
POLYLINE
  5
CF
  8
BIG_DRAWERS
 66
     1
 10
0.0
 20
0.0
 30
0.0
 70
     1
  0
VERTEX
  5
6A3
  8
BIG_DRAWERS
 10
1269.6236447713
 20
105.4403957152063
 30
0.0
  0
VERTEX
  5
6A4
  8
BIG_DRAWERS
 10
1269.759941466144
 20
106.4756718956141
 30
0.0
  0
VERTEX
  5
6A5
  8
BIG_DRAWERS
 10
1269.6236447713
 20
107.5109480760239
 30
0.0
  0
VERTEX
  5
6A6
  8
BIG_DRAWERS
 10
1269.224043081281
 20
108.4756718956141
 30
0.0
  0
VERTEX
  5
6A7
  8
BIG_DRAWERS
 10
1268.588368590891
 20
109.304099020359
 30
0.0
  0
VERTEX
  5
6A8
  8
BIG_DRAWERS
 10
1267.759941466143
 20
109.9397735107505
 30
0.0
  0
VERTEX
  5
6A9
  8
BIG_DRAWERS
 10
1266.795217646555
 20
110.3393752007723
 30
0.0
  0
VERTEX
  5
6AA
  8
BIG_DRAWERS
 10
1265.759941466144
 20
110.4756718956141
 30
0.0
  0
VERTEX
  5
6AB
  8
BIG_DRAWERS
 10
1264.724665285734
 20
110.3393752007723
 30
0.0
  0
VERTEX
  5
6AC
  8
BIG_DRAWERS
 10
1263.759941466144
 20
109.9397735107505
 30
0.0
  0
VERTEX
  5
6AD
  8
BIG_DRAWERS
 10
1262.931514341398
 20
109.304099020359
 30
0.0
  0
VERTEX
  5
6AE
  8
BIG_DRAWERS
 10
1262.295839851006
 20
108.4756718956141
 30
0.0
  0
VERTEX
  5
6AF
  8
BIG_DRAWERS
 10
1261.896238160989
 20
107.5109480760239
 30
0.0
  0
VERTEX
  5
6B0
  8
BIG_DRAWERS
 10
1261.759941466145
 20
106.4756718956141
 30
0.0
  0
VERTEX
  5
6B1
  8
BIG_DRAWERS
 10
1261.896238160989
 20
105.4403957152063
 30
0.0
  0
VERTEX
  5
6B2
  8
BIG_DRAWERS
 10
1262.295839851006
 20
104.475671895616
 30
0.0
  0
VERTEX
  5
6B3
  8
BIG_DRAWERS
 10
1262.931514341398
 20
103.6472447708675
 30
0.0
  0
VERTEX
  5
6B4
  8
BIG_DRAWERS
 10
1263.759941466144
 20
103.011570280476
 30
0.0
  0
VERTEX
  5
6B5
  8
BIG_DRAWERS
 10
1264.724665285734
 20
102.6119685904578
 30
0.0
  0
VERTEX
  5
6B6
  8
BIG_DRAWERS
 10
1265.759941466144
 20
102.475671895616
 30
0.0
  0
VERTEX
  5
6B7
  8
BIG_DRAWERS
 10
1266.795217646555
 20
102.6119685904578
 30
0.0
  0
VERTEX
  5
6B8
  8
BIG_DRAWERS
 10
1267.759941466145
 20
103.011570280476
 30
0.0
  0
VERTEX
  5
6B9
  8
BIG_DRAWERS
 10
1268.588368590891
 20
103.6472447708675
 30
0.0
  0
VERTEX
  5
6BA
  8
BIG_DRAWERS
 10
1269.224043081281
 20
104.475671895616
 30
0.0
  0
SEQEND
  5
82E
  8
BIG_DRAWERS
  0
POLYLINE
  5
D0
  8
BIG_DRAWERS
 66
     1
 10
0.0
 20
0.0
 30
0.0
 70
     1
  0
VERTEX
  5
6BB
  8
BIG_DRAWERS
 10
1634.623644771299
 20
301.0709480760232
 30
0.0
  0
VERTEX
  5
6BC
  8
BIG_DRAWERS
 10
1634.224043081281
 20
302.0356718956117
 30
0.0
  0
VERTEX
  5
6BD
  8
BIG_DRAWERS
 10
1633.58836859089
 20
302.8640990203565
 30
0.0
  0
VERTEX
  5
6BE
  8
BIG_DRAWERS
 10
1632.759941466142
 20
303.4997735107498
 30
0.0
  0
VERTEX
  5
6BF
  8
BIG_DRAWERS
 10
1631.795217646554
 20
303.8993752007699
 30
0.0
  0
VERTEX
  5
6C0
  8
BIG_DRAWERS
 10
1630.759941466143
 20
304.0356718956117
 30
0.0
  0
VERTEX
  5
6C1
  8
BIG_DRAWERS
 10
1629.724665285734
 20
303.8993752007699
 30
0.0
  0
VERTEX
  5
6C2
  8
BIG_DRAWERS
 10
1628.759941466143
 20
303.4997735107498
 30
0.0
  0
VERTEX
  5
6C3
  8
BIG_DRAWERS
 10
1627.931514341397
 20
302.8640990203565
 30
0.0
  0
VERTEX
  5
6C4
  8
BIG_DRAWERS
 10
1627.295839851005
 20
302.0356718956117
 30
0.0
  0
VERTEX
  5
6C5
  8
BIG_DRAWERS
 10
1626.896238160988
 20
301.0709480760232
 30
0.0
  0
VERTEX
  5
6C6
  8
BIG_DRAWERS
 10
1626.759941466144
 20
300.0356718956135
 30
0.0
  0
VERTEX
  5
6C7
  8
BIG_DRAWERS
 10
1626.896238160988
 20
299.0003957152038
 30
0.0
  0
VERTEX
  5
6C8
  8
BIG_DRAWERS
 10
1627.295839851005
 20
298.0356718956135
 30
0.0
  0
VERTEX
  5
6C9
  8
BIG_DRAWERS
 10
1627.931514341397
 20
297.207244770865
 30
0.0
  0
VERTEX
  5
6CA
  8
BIG_DRAWERS
 10
1628.759941466143
 20
296.5715702804736
 30
0.0
  0
VERTEX
  5
6CB
  8
BIG_DRAWERS
 10
1629.724665285734
 20
296.1719685904571
 30
0.0
  0
VERTEX
  5
6CC
  8
BIG_DRAWERS
 10
1630.759941466143
 20
296.0356718956135
 30
0.0
  0
VERTEX
  5
6CD
  8
BIG_DRAWERS
 10
1631.795217646554
 20
296.1719685904571
 30
0.0
  0
VERTEX
  5
6CE
  8
BIG_DRAWERS
 10
1632.759941466144
 20
296.5715702804736
 30
0.0
  0
VERTEX
  5
6CF
  8
BIG_DRAWERS
 10
1633.58836859089
 20
297.207244770865
 30
0.0
  0
VERTEX
  5
6D0
  8
BIG_DRAWERS
 10
1634.224043081281
 20
298.0356718956135
 30
0.0
  0
VERTEX
  5
6D1
  8
BIG_DRAWERS
 10
1634.623644771299
 20
299.0003957152038
 30
0.0
  0
VERTEX
  5
6D2
  8
BIG_DRAWERS
 10
1634.759941466143
 20
300.0356718956135
 30
0.0
  0
SEQEND
  5
82F
  8
BIG_DRAWERS
  0
POLYLINE
  5
D1
  8
BIG_DRAWERS
 66
     1
 10
0.0
 20
0.0
 30
0.0
 70
     1
  0
VERTEX
  5
6D3
  8
BIG_DRAWERS
 10
1269.6236447713
 20
299.0003957152039
 30
0.0
  0
VERTEX
  5
6D4
  8
BIG_DRAWERS
 10
1269.759941466144
 20
300.0356718956136
 30
0.0
  0
VERTEX
  5
6D5
  8
BIG_DRAWERS
 10
1269.6236447713
 20
301.0709480760233
 30
0.0
  0
VERTEX
  5
6D6
  8
BIG_DRAWERS
 10
1269.224043081281
 20
302.0356718956118
 30
0.0
  0
VERTEX
  5
6D7
  8
BIG_DRAWERS
 10
1268.588368590891
 20
302.8640990203567
 30
0.0
  0
VERTEX
  5
6D8
  8
BIG_DRAWERS
 10
1267.759941466143
 20
303.4997735107499
 30
0.0
  0
VERTEX
  5
6D9
  8
BIG_DRAWERS
 10
1266.795217646555
 20
303.89937520077
 30
0.0
  0
VERTEX
  5
6DA
  8
BIG_DRAWERS
 10
1265.759941466144
 20
304.0356718956118
 30
0.0
  0
VERTEX
  5
6DB
  8
BIG_DRAWERS
 10
1264.724665285734
 20
303.89937520077
 30
0.0
  0
VERTEX
  5
6DC
  8
BIG_DRAWERS
 10
1263.759941466144
 20
303.4997735107499
 30
0.0
  0
VERTEX
  5
6DD
  8
BIG_DRAWERS
 10
1262.931514341398
 20
302.8640990203567
 30
0.0
  0
VERTEX
  5
6DE
  8
BIG_DRAWERS
 10
1262.295839851006
 20
302.0356718956118
 30
0.0
  0
VERTEX
  5
6DF
  8
BIG_DRAWERS
 10
1261.896238160989
 20
301.0709480760233
 30
0.0
  0
VERTEX
  5
6E0
  8
BIG_DRAWERS
 10
1261.759941466145
 20
300.0356718956136
 30
0.0
  0
VERTEX
  5
6E1
  8
BIG_DRAWERS
 10
1261.896238160989
 20
299.0003957152039
 30
0.0
  0
VERTEX
  5
6E2
  8
BIG_DRAWERS
 10
1262.295839851006
 20
298.0356718956136
 30
0.0
  0
VERTEX
  5
6E3
  8
BIG_DRAWERS
 10
1262.931514341398
 20
297.2072447708651
 30
0.0
  0
VERTEX
  5
6E4
  8
BIG_DRAWERS
 10
1263.759941466144
 20
296.5715702804737
 30
0.0
  0
VERTEX
  5
6E5
  8
BIG_DRAWERS
 10
1264.724665285734
 20
296.1719685904573
 30
0.0
  0
VERTEX
  5
6E6
  8
BIG_DRAWERS
 10
1265.759941466144
 20
296.0356718956136
 30
0.0
  0
VERTEX
  5
6E7
  8
BIG_DRAWERS
 10
1266.795217646555
 20
296.1719685904573
 30
0.0
  0
VERTEX
  5
6E8
  8
BIG_DRAWERS
 10
1267.759941466145
 20
296.5715702804737
 30
0.0
  0
VERTEX
  5
6E9
  8
BIG_DRAWERS
 10
1268.588368590891
 20
297.2072447708651
 30
0.0
  0
VERTEX
  5
6EA
  8
BIG_DRAWERS
 10
1269.224043081281
 20
298.0356718956136
 30
0.0
  0
SEQEND
  5
830
  8
BIG_DRAWERS
  0
POLYLINE
  5
D2
  8
BIG_DRAWERS
 66
     1
 10
0.0
 20
0.0
 30
0.0
 70
     1
  0
VERTEX
  5
6EB
  8
BIG_DRAWERS
 10
1634.623644771299
 20
107.5109480760239
 30
0.0
  0
VERTEX
  5
6EC
  8
BIG_DRAWERS
 10
1634.224043081281
 20
108.4756718956141
 30
0.0
  0
VERTEX
  5
6ED
  8
BIG_DRAWERS
 10
1633.58836859089
 20
109.304099020359
 30
0.0
  0
VERTEX
  5
6EE
  8
BIG_DRAWERS
 10
1632.759941466142
 20
109.9397735107505
 30
0.0
  0
VERTEX
  5
6EF
  8
BIG_DRAWERS
 10
1631.795217646554
 20
110.3393752007723
 30
0.0
  0
VERTEX
  5
6F0
  8
BIG_DRAWERS
 10
1630.759941466143
 20
110.4756718956141
 30
0.0
  0
VERTEX
  5
6F1
  8
BIG_DRAWERS
 10
1629.724665285734
 20
110.3393752007723
 30
0.0
  0
VERTEX
  5
6F2
  8
BIG_DRAWERS
 10
1628.759941466143
 20
109.9397735107505
 30
0.0
  0
VERTEX
  5
6F3
  8
BIG_DRAWERS
 10
1627.931514341397
 20
109.304099020359
 30
0.0
  0
VERTEX
  5
6F4
  8
BIG_DRAWERS
 10
1627.295839851005
 20
108.4756718956141
 30
0.0
  0
VERTEX
  5
6F5
  8
BIG_DRAWERS
 10
1626.896238160988
 20
107.5109480760239
 30
0.0
  0
VERTEX
  5
6F6
  8
BIG_DRAWERS
 10
1626.759941466144
 20
106.4756718956141
 30
0.0
  0
VERTEX
  5
6F7
  8
BIG_DRAWERS
 10
1626.896238160988
 20
105.4403957152063
 30
0.0
  0
VERTEX
  5
6F8
  8
BIG_DRAWERS
 10
1627.295839851005
 20
104.475671895616
 30
0.0
  0
VERTEX
  5
6F9
  8
BIG_DRAWERS
 10
1627.931514341397
 20
103.6472447708675
 30
0.0
  0
VERTEX
  5
6FA
  8
BIG_DRAWERS
 10
1628.759941466143
 20
103.011570280476
 30
0.0
  0
VERTEX
  5
6FB
  8
BIG_DRAWERS
 10
1629.724665285734
 20
102.6119685904578
 30
0.0
  0
VERTEX
  5
6FC
  8
BIG_DRAWERS
 10
1630.759941466143
 20
102.475671895616
 30
0.0
  0
VERTEX
  5
6FD
  8
BIG_DRAWERS
 10
1631.795217646554
 20
102.6119685904578
 30
0.0
  0
VERTEX
  5
6FE
  8
BIG_DRAWERS
 10
1632.759941466144
 20
103.011570280476
 30
0.0
  0
VERTEX
  5
6FF
  8
BIG_DRAWERS
 10
1633.58836859089
 20
103.6472447708675
 30
0.0
  0
VERTEX
  5
700
  8
BIG_DRAWERS
 10
1634.224043081281
 20
104.475671895616
 30
0.0
  0
VERTEX
  5
701
  8
BIG_DRAWERS
 10
1634.623644771299
 20
105.4403957152063
 30
0.0
  0
VERTEX
  5
702
  8
BIG_DRAWERS
 10
1634.759941466143
 20
106.4756718956141
 30
0.0
  0
SEQEND
  5
831
  8
BIG_DRAWERS
  0
POLYLINE
  5
D3
  8
BIG_DRAWERS
 66
     1
 10
0.0
 20
0.0
 30
0.0
 70
     1
  0
VERTEX
  5
703
  8
BIG_DRAWERS
 10
2001.478128538762
 20
277.2634266461866
 30
0.0
  0
VERTEX
  5
704
  8
BIG_DRAWERS
 10
2003.871301157244
 20
279.051826668425
 30
0.0
  0
VERTEX
  5
705
  8
BIG_DRAWERS
 10
2006.645800382223
 20
280.1598897857568
 30
0.0
  0
VERTEX
  5
706
  8
BIG_DRAWERS
 10
2009.612548676585
 20
280.5121033279012
 30
0.0
  0
VERTEX
  5
707
  8
BIG_DRAWERS
 10
2012.56936704686
 20
280.0844645240215
 30
0.0
  0
VERTEX
  5
708
  8
BIG_DRAWERS
 10
2015.314753207481
 20
278.9061162518903
 30
0.0
  0
VERTEX
  5
709
  8
BIG_DRAWERS
 10
2017.661613628575
 20
277.0573609989535
 30
0.0
  0
VERTEX
  5
70A
  8
BIG_DRAWERS
 10
2019.450013650814
 20
274.6641883804716
 30
0.0
  0
VERTEX
  5
70B
  8
BIG_DRAWERS
 10
2020.55807676814
 20
271.8896891554961
 30
0.0
  0
VERTEX
  5
70C
  8
BIG_DRAWERS
 10
2020.910290310284
 20
268.9229408611338
 30
0.0
  0
VERTEX
  5
70D
  8
BIG_DRAWERS
 10
2020.482651506393
 20
265.9661224908597
 30
0.0
  0
VERTEX
  5
70E
  8
BIG_DRAWERS
 10
2019.304303234279
 20
263.2207363302334
 30
0.0
  0
VERTEX
  5
70F
  8
BIG_DRAWERS
 10
2017.455547981338
 20
260.8738759091413
 30
0.0
  0
VERTEX
  5
710
  8
BIG_DRAWERS
 10
2015.062375362859
 20
259.0854758869029
 30
0.0
  0
VERTEX
  5
711
  8
BIG_DRAWERS
 10
2012.28787613788
 20
257.9774127695729
 30
0.0
  0
VERTEX
  5
712
  8
BIG_DRAWERS
 10
2009.321127843518
 20
257.6251992274248
 30
0.0
  0
VERTEX
  5
713
  8
BIG_DRAWERS
 10
2006.364309473243
 20
258.0528380313064
 30
0.0
  0
VERTEX
  5
714
  8
BIG_DRAWERS
 10
2003.618923312622
 20
259.2311863034376
 30
0.0
  0
VERTEX
  5
715
  8
BIG_DRAWERS
 10
2001.272062891527
 20
261.0799415563744
 30
0.0
  0
VERTEX
  5
716
  8
BIG_DRAWERS
 10
1999.48366286929
 20
263.4731141748582
 30
0.0
  0
VERTEX
  5
717
  8
BIG_DRAWERS
 10
1998.37559975196
 20
266.2476133998318
 30
0.0
  0
VERTEX
  5
718
  8
BIG_DRAWERS
 10
1998.023386209816
 20
269.2143616941941
 30
0.0
  0
VERTEX
  5
719
  8
BIG_DRAWERS
 10
1998.451025013693
 20
272.1711800644682
 30
0.0
  0
VERTEX
  5
71A
  8
BIG_DRAWERS
 10
1999.629373285826
 20
274.9165662250963
 30
0.0
  0
SEQEND
  5
832
  8
BIG_DRAWERS
  0
POLYLINE
  5
D4
  8
BIG_DRAWERS
 66
     1
 10
0.0
 20
0.0
 30
0.0
 70
     1
  0
VERTEX
  5
71B
  8
BIG_DRAWERS
 10
2135.466838260032
 20
59.10159090823089
 30
0.0
  0
VERTEX
  5
71C
  8
BIG_DRAWERS
 10
2205.96683826003
 20
59.10159090822179
 30
0.0
  0
VERTEX
  5
71D
  8
BIG_DRAWERS
 10
2205.966838260019
 20
52.90159090822107
 30
0.0
  0
VERTEX
  5
71E
  8
BIG_DRAWERS
 10
2135.466838260021
 20
52.90159090823016
 30
0.0
  0
SEQEND
  5
833
  8
BIG_DRAWERS
  0
POLYLINE
  5
D5
  8
BIG_DRAWERS
 66
     1
 10
0.0
 20
0.0
 30
0.0
 70
     1
  0
VERTEX
  5
71F
  8
BIG_DRAWERS
 10
1961.966838260038
 20
59.10159090824908
 30
0.0
  0
VERTEX
  5
720
  8
BIG_DRAWERS
 10
1961.966838260022
 20
52.90159090824653
 30
0.0
  0
VERTEX
  5
721
  8
BIG_DRAWERS
 10
2056.96683826002
 20
52.90159090824653
 30
0.0
  0
VERTEX
  5
722
  8
BIG_DRAWERS
 10
2056.966838260037
 20
59.10159090824544
 30
0.0
  0
SEQEND
  5
834
  8
BIG_DRAWERS
  0
POLYLINE
  5
D6
  8
BIG_DRAWERS
 66
     1
 10
0.0
 20
0.0
 30
0.0
 70
     1
  0
VERTEX
  5
723
  8
BIG_DRAWERS
 10
1952.239034937438
 20
333.4593864815544
 30
0.0
  0
VERTEX
  5
724
  8
BIG_DRAWERS
 10
1955.496366277348
 20
337.2492731741715
 30
0.0
  0
VERTEX
  5
725
  8
BIG_DRAWERS
 10
1959.685103265589
 20
339.9746962687079
 30
0.0
  0
VERTEX
  5
726
  8
BIG_DRAWERS
 10
1964.469690162904
 20
341.4173247112323
 30
0.0
  0
VERTEX
  5
727
  8
BIG_DRAWERS
 10
1969.466838260044
 20
341.461590908246
 30
0.0
  0
VERTEX
  5
728
  8
BIG_DRAWERS
 10
2049.466838260043
 20
341.4615909082387
 30
0.0
  0
VERTEX
  5
729
  8
BIG_DRAWERS
 10
2054.463986357183
 20
341.4173247112159
 30
0.0
  0
VERTEX
  5
72A
  8
BIG_DRAWERS
 10
2059.248573254454
 20
339.9746962686915
 30
0.0
  0
VERTEX
  5
72B
  8
BIG_DRAWERS
 10
2063.437310242705
 20
337.2492731741551
 30
0.0
  0
VERTEX
  5
72C
  8
BIG_DRAWERS
 10
2066.694641582653
 20
333.459386481538
 30
0.0
  0
VERTEX
  5
72D
  8
BIG_DRAWERS
 10
2068.759625556284
 20
328.90864041199
 30
0.0
  0
VERTEX
  5
72E
  8
BIG_DRAWERS
 10
2069.466838260043
 20
323.9615909082369
 30
0.0
  0
VERTEX
  5
72F
  8
BIG_DRAWERS
 10
2068.759625556289
 20
319.014541404482
 30
0.0
  0
VERTEX
  5
730
  8
BIG_DRAWERS
 10
2066.694641582652
 20
314.4637953349285
 30
0.0
  0
VERTEX
  5
731
  8
BIG_DRAWERS
 10
2063.43731024272
 20
310.6739086423151
 30
0.0
  0
VERTEX
  5
732
  8
BIG_DRAWERS
 10
2059.248573254463
 20
307.9484855477769
 30
0.0
  0
VERTEX
  5
733
  8
BIG_DRAWERS
 10
2054.463986357167
 20
306.5058571052543
 30
0.0
  0
VERTEX
  5
734
  8
BIG_DRAWERS
 10
2049.466838260027
 20
306.4615909082369
 30
0.0
  0
VERTEX
  5
735
  8
BIG_DRAWERS
 10
1969.466838260028
 20
306.461590908246
 30
0.0
  0
VERTEX
  5
736
  8
BIG_DRAWERS
 10
1964.469690162888
 20
306.505857105267
 30
0.0
  0
VERTEX
  5
737
  8
BIG_DRAWERS
 10
1959.685103265598
 20
307.9484855477933
 30
0.0
  0
VERTEX
  5
738
  8
BIG_DRAWERS
 10
1955.496366277363
 20
310.6739086423315
 30
0.0
  0
VERTEX
  5
739
  8
BIG_DRAWERS
 10
1952.239034937437
 20
314.4637953349431
 30
0.0
  0
VERTEX
  5
73A
  8
BIG_DRAWERS
 10
1950.174050963777
 20
319.0145414044966
 30
0.0
  0
VERTEX
  5
73B
  8
BIG_DRAWERS
 10
1949.466838260041
 20
323.9615909082497
 30
0.0
  0
VERTEX
  5
73C
  8
BIG_DRAWERS
 10
1950.174050963771
 20
328.9086404120082
 30
0.0
  0
SEQEND
  5
835
  8
BIG_DRAWERS
  0
POLYLINE
  5
D7
  8
BIG_DRAWERS
 66
     1
 10
0.0
 20
0.0
 30
0.0
 70
     1
  0
VERTEX
  5
73D
  8
BIG_DRAWERS
 10
1812.966838260036
 20
59.10159090827273
 30
0.0
  0
VERTEX
  5
73E
  8
BIG_DRAWERS
 10
1812.966838260019
 20
52.901590908272
 30
0.0
  0
VERTEX
  5
73F
  8
BIG_DRAWERS
 10
1883.466838260018
 20
52.90159090826472
 30
0.0
  0
VERTEX
  5
740
  8
BIG_DRAWERS
 10
1883.466838260025
 20
59.10159090826545
 30
0.0
  0
SEQEND
  5
836
  8
BIG_DRAWERS
  0
POLYLINE
  5
D8
  8
BIG_DRAWERS
 66
     1
 10
0.0
 20
0.0
 30
0.0
 70
     1
  0
VERTEX
  5
741
  8
BIG_DRAWERS
 10
1739.466838260025
 20
348.3365909082806
 30
0.0
  0
VERTEX
  5
742
  8
BIG_DRAWERS
 10
1751.466838260025
 20
348.3365909082802
 30
0.0
  0
VERTEX
  5
743
  8
BIG_DRAWERS
 10
1751.466838260031
 20
366.4590909082764
 30
0.0
  0
VERTEX
  5
744
  8
BIG_DRAWERS
 10
2267.466838260035
 20
366.4590909082036
 30
0.0
  0
VERTEX
  5
745
  8
BIG_DRAWERS
 10
2267.466838260029
 20
348.3365909082106
 30
0.0
  0
VERTEX
  5
746
  8
BIG_DRAWERS
 10
2279.466838260028
 20
348.3365909082041
 30
0.0
  0
VERTEX
  5
747
  8
BIG_DRAWERS
 10
2279.466838260029
 20
312.0865909082041
 30
0.0
  0
VERTEX
  5
748
  8
BIG_DRAWERS
 10
2267.466838260033
 20
312.086590908209
 30
0.0
  0
VERTEX
  5
749
  8
BIG_DRAWERS
 10
2267.466838260021
 20
275.8365909082048
 30
0.0
  0
VERTEX
  5
74A
  8
BIG_DRAWERS
 10
2279.466838260022
 20
275.8365909082059
 30
0.0
  0
VERTEX
  5
74B
  8
BIG_DRAWERS
 10
2279.466838260038
 20
239.5865909082059
 30
0.0
  0
VERTEX
  5
74C
  8
BIG_DRAWERS
 10
2267.466838260037
 20
239.5865909082078
 30
0.0
  0
VERTEX
  5
74D
  8
BIG_DRAWERS
 10
2267.466838260037
 20
172.7765909082096
 30
0.0
  0
VERTEX
  5
74E
  8
BIG_DRAWERS
 10
2279.466838260037
 20
172.7765909082082
 30
0.0
  0
VERTEX
  5
74F
  8
BIG_DRAWERS
 10
2279.466838260029
 20
136.5265909082119
 30
0.0
  0
VERTEX
  5
750
  8
BIG_DRAWERS
 10
2267.466838260033
 20
136.526590908209
 30
0.0
  0
VERTEX
  5
751
  8
BIG_DRAWERS
 10
2267.466838260021
 20
100.2765909082079
 30
0.0
  0
VERTEX
  5
752
  8
BIG_DRAWERS
 10
2279.466838260022
 20
100.2765909082119
 30
0.0
  0
VERTEX
  5
753
  8
BIG_DRAWERS
 10
2279.466838260038
 20
64.02659090821004
 30
0.0
  0
VERTEX
  5
754
  8
BIG_DRAWERS
 10
2267.466838260037
 20
64.02659090821044
 30
0.0
  0
VERTEX
  5
755
  8
BIG_DRAWERS
 10
2267.466838260035
 20
45.90159090821186
 30
0.0
  0
VERTEX
  5
756
  8
BIG_DRAWERS
 10
2261.466838260035
 20
45.90159090821186
 30
0.0
  0
VERTEX
  5
757
  8
BIG_DRAWERS
 10
2253.793993603837
 20
39.70159090821295
 30
0.0
  0
VERTEX
  5
758
  8
BIG_DRAWERS
 10
1765.139628530577
 20
39.70159090828218
 30
0.0
  0
VERTEX
  5
759
  8
BIG_DRAWERS
 10
1757.466838260034
 20
45.90159090828291
 30
0.0
  0
VERTEX
  5
75A
  8
BIG_DRAWERS
 10
1751.466838260033
 20
45.90159090828291
 30
0.0
  0
VERTEX
  5
75B
  8
BIG_DRAWERS
 10
1751.466838260039
 20
64.0265909082847
 30
0.0
  0
VERTEX
  5
75C
  8
BIG_DRAWERS
 10
1739.466838260038
 20
64.02659090828291
 30
0.0
  0
VERTEX
  5
75D
  8
BIG_DRAWERS
 10
1739.466838260015
 20
100.2765909082829
 30
0.0
  0
VERTEX
  5
75E
  8
BIG_DRAWERS
 10
1751.466838260012
 20
100.2765909082848
 30
0.0
  0
VERTEX
  5
75F
  8
BIG_DRAWERS
 10
1751.466838260025
 20
136.5265909082848
 30
0.0
  0
VERTEX
  5
760
  8
BIG_DRAWERS
 10
1739.466838260031
 20
136.5265909082847
 30
0.0
  0
VERTEX
  5
761
  8
BIG_DRAWERS
 10
1739.466838260033
 20
172.7765909082847
 30
0.0
  0
VERTEX
  5
762
  8
BIG_DRAWERS
 10
1751.466838260033
 20
172.7765909082845
 30
0.0
  0
VERTEX
  5
763
  8
BIG_DRAWERS
 10
1751.466838260039
 20
239.5865909082826
 30
0.0
  0
VERTEX
  5
764
  8
BIG_DRAWERS
 10
1739.466838260038
 20
239.5865909082788
 30
0.0
  0
VERTEX
  5
765
  8
BIG_DRAWERS
 10
1739.466838260015
 20
275.8365909082806
 30
0.0
  0
VERTEX
  5
766
  8
BIG_DRAWERS
 10
1751.466838260012
 20
275.8365909082805
 30
0.0
  0
VERTEX
  5
767
  8
BIG_DRAWERS
 10
1751.466838260025
 20
312.0865909082826
 30
0.0
  0
VERTEX
  5
768
  8
BIG_DRAWERS
 10
1739.466838260031
 20
312.0865909082824
 30
0.0
  0
SEQEND
  5
837
  8
BIG_DRAWERS
  0
POLYLINE
  5
D9
  8
BIG_DRAWERS
 66
     1
 10
0.0
 20
0.0
 30
0.0
 70
     1
  0
VERTEX
  5
769
  8
BIG_DRAWERS
 10
2109.466838260037
 20
299.0686512776485
 30
0.0
  0
VERTEX
  5
76A
  8
BIG_DRAWERS
 10
1909.466838260036
 20
299.0686512776776
 30
0.0
  0
VERTEX
  5
76B
  8
BIG_DRAWERS
 10
1909.466838260046
 20
239.0686512776794
 30
0.0
  0
VERTEX
  5
76C
  8
BIG_DRAWERS
 10
2109.466838260047
 20
239.0686512776467
 30
0.0
  0
SEQEND
  5
838
  8
BIG_DRAWERS
  0
POLYLINE
  5
DA
  8
BIG_DRAWERS
 66
     1
 10
0.0
 20
0.0
 30
0.0
 70
     1
  0
VERTEX
  5
76D
  8
BIG_DRAWERS
 10
1830.830541323023
 20
105.4403957152063
 30
0.0
  0
VERTEX
  5
76E
  8
BIG_DRAWERS
 10
1830.966838017867
 20
106.4756718956141
 30
0.0
  0
VERTEX
  5
76F
  8
BIG_DRAWERS
 10
1830.830541323023
 20
107.5109480760239
 30
0.0
  0
VERTEX
  5
770
  8
BIG_DRAWERS
 10
1830.430939633004
 20
108.4756718956141
 30
0.0
  0
VERTEX
  5
771
  8
BIG_DRAWERS
 10
1829.795265142614
 20
109.304099020359
 30
0.0
  0
VERTEX
  5
772
  8
BIG_DRAWERS
 10
1828.966838017866
 20
109.9397735107505
 30
0.0
  0
VERTEX
  5
773
  8
BIG_DRAWERS
 10
1828.002114198277
 20
110.3393752007723
 30
0.0
  0
VERTEX
  5
774
  8
BIG_DRAWERS
 10
1826.966838017866
 20
110.4756718956141
 30
0.0
  0
VERTEX
  5
775
  8
BIG_DRAWERS
 10
1825.931561837457
 20
110.3393752007723
 30
0.0
  0
VERTEX
  5
776
  8
BIG_DRAWERS
 10
1824.966838017867
 20
109.9397735107505
 30
0.0
  0
VERTEX
  5
777
  8
BIG_DRAWERS
 10
1824.138410893121
 20
109.304099020359
 30
0.0
  0
VERTEX
  5
778
  8
BIG_DRAWERS
 10
1823.502736402729
 20
108.4756718956141
 30
0.0
  0
VERTEX
  5
779
  8
BIG_DRAWERS
 10
1823.103134712711
 20
107.5109480760239
 30
0.0
  0
VERTEX
  5
77A
  8
BIG_DRAWERS
 10
1822.966838017867
 20
106.4756718956141
 30
0.0
  0
VERTEX
  5
77B
  8
BIG_DRAWERS
 10
1823.103134712711
 20
105.4403957152063
 30
0.0
  0
VERTEX
  5
77C
  8
BIG_DRAWERS
 10
1823.502736402729
 20
104.475671895616
 30
0.0
  0
VERTEX
  5
77D
  8
BIG_DRAWERS
 10
1824.138410893121
 20
103.6472447708675
 30
0.0
  0
VERTEX
  5
77E
  8
BIG_DRAWERS
 10
1824.966838017867
 20
103.011570280476
 30
0.0
  0
VERTEX
  5
77F
  8
BIG_DRAWERS
 10
1825.931561837457
 20
102.6119685904578
 30
0.0
  0
VERTEX
  5
780
  8
BIG_DRAWERS
 10
1826.966838017866
 20
102.475671895616
 30
0.0
  0
VERTEX
  5
781
  8
BIG_DRAWERS
 10
1828.002114198277
 20
102.6119685904578
 30
0.0
  0
VERTEX
  5
782
  8
BIG_DRAWERS
 10
1828.966838017867
 20
103.011570280476
 30
0.0
  0
VERTEX
  5
783
  8
BIG_DRAWERS
 10
1829.795265142614
 20
103.6472447708675
 30
0.0
  0
VERTEX
  5
784
  8
BIG_DRAWERS
 10
1830.430939633004
 20
104.475671895616
 30
0.0
  0
SEQEND
  5
839
  8
BIG_DRAWERS
  0
POLYLINE
  5
DB
  8
BIG_DRAWERS
 66
     1
 10
0.0
 20
0.0
 30
0.0
 70
     1
  0
VERTEX
  5
785
  8
BIG_DRAWERS
 10
2195.830541323022
 20
301.0709480760232
 30
0.0
  0
VERTEX
  5
786
  8
BIG_DRAWERS
 10
2195.430939633003
 20
302.0356718956117
 30
0.0
  0
VERTEX
  5
787
  8
BIG_DRAWERS
 10
2194.795265142613
 20
302.8640990203565
 30
0.0
  0
VERTEX
  5
788
  8
BIG_DRAWERS
 10
2193.966838017865
 20
303.4997735107498
 30
0.0
  0
VERTEX
  5
789
  8
BIG_DRAWERS
 10
2193.002114198276
 20
303.8993752007699
 30
0.0
  0
VERTEX
  5
78A
  8
BIG_DRAWERS
 10
2191.966838017865
 20
304.0356718956117
 30
0.0
  0
VERTEX
  5
78B
  8
BIG_DRAWERS
 10
2190.931561837456
 20
303.8993752007699
 30
0.0
  0
VERTEX
  5
78C
  8
BIG_DRAWERS
 10
2189.966838017866
 20
303.4997735107498
 30
0.0
  0
VERTEX
  5
78D
  8
BIG_DRAWERS
 10
2189.13841089312
 20
302.8640990203565
 30
0.0
  0
VERTEX
  5
78E
  8
BIG_DRAWERS
 10
2188.502736402728
 20
302.0356718956117
 30
0.0
  0
VERTEX
  5
78F
  8
BIG_DRAWERS
 10
2188.10313471271
 20
301.0709480760232
 30
0.0
  0
VERTEX
  5
790
  8
BIG_DRAWERS
 10
2187.966838017866
 20
300.0356718956135
 30
0.0
  0
VERTEX
  5
791
  8
BIG_DRAWERS
 10
2188.10313471271
 20
299.0003957152038
 30
0.0
  0
VERTEX
  5
792
  8
BIG_DRAWERS
 10
2188.502736402728
 20
298.0356718956135
 30
0.0
  0
VERTEX
  5
793
  8
BIG_DRAWERS
 10
2189.13841089312
 20
297.207244770865
 30
0.0
  0
VERTEX
  5
794
  8
BIG_DRAWERS
 10
2189.966838017866
 20
296.5715702804736
 30
0.0
  0
VERTEX
  5
795
  8
BIG_DRAWERS
 10
2190.931561837456
 20
296.1719685904571
 30
0.0
  0
VERTEX
  5
796
  8
BIG_DRAWERS
 10
2191.966838017865
 20
296.0356718956135
 30
0.0
  0
VERTEX
  5
797
  8
BIG_DRAWERS
 10
2193.002114198276
 20
296.1719685904571
 30
0.0
  0
VERTEX
  5
798
  8
BIG_DRAWERS
 10
2193.966838017866
 20
296.5715702804736
 30
0.0
  0
VERTEX
  5
799
  8
BIG_DRAWERS
 10
2194.795265142613
 20
297.207244770865
 30
0.0
  0
VERTEX
  5
79A
  8
BIG_DRAWERS
 10
2195.430939633003
 20
298.0356718956135
 30
0.0
  0
VERTEX
  5
79B
  8
BIG_DRAWERS
 10
2195.830541323022
 20
299.0003957152038
 30
0.0
  0
VERTEX
  5
79C
  8
BIG_DRAWERS
 10
2195.966838017866
 20
300.0356718956135
 30
0.0
  0
SEQEND
  5
83A
  8
BIG_DRAWERS
  0
POLYLINE
  5
DC
  8
BIG_DRAWERS
 66
     1
 10
0.0
 20
0.0
 30
0.0
 70
     1
  0
VERTEX
  5
79D
  8
BIG_DRAWERS
 10
1830.830541323023
 20
299.0003957152039
 30
0.0
  0
VERTEX
  5
79E
  8
BIG_DRAWERS
 10
1830.966838017867
 20
300.0356718956136
 30
0.0
  0
VERTEX
  5
79F
  8
BIG_DRAWERS
 10
1830.830541323023
 20
301.0709480760233
 30
0.0
  0
VERTEX
  5
7A0
  8
BIG_DRAWERS
 10
1830.430939633004
 20
302.0356718956118
 30
0.0
  0
VERTEX
  5
7A1
  8
BIG_DRAWERS
 10
1829.795265142614
 20
302.8640990203567
 30
0.0
  0
VERTEX
  5
7A2
  8
BIG_DRAWERS
 10
1828.966838017866
 20
303.4997735107499
 30
0.0
  0
VERTEX
  5
7A3
  8
BIG_DRAWERS
 10
1828.002114198277
 20
303.89937520077
 30
0.0
  0
VERTEX
  5
7A4
  8
BIG_DRAWERS
 10
1826.966838017866
 20
304.0356718956118
 30
0.0
  0
VERTEX
  5
7A5
  8
BIG_DRAWERS
 10
1825.931561837457
 20
303.89937520077
 30
0.0
  0
VERTEX
  5
7A6
  8
BIG_DRAWERS
 10
1824.966838017867
 20
303.4997735107499
 30
0.0
  0
VERTEX
  5
7A7
  8
BIG_DRAWERS
 10
1824.138410893121
 20
302.8640990203567
 30
0.0
  0
VERTEX
  5
7A8
  8
BIG_DRAWERS
 10
1823.502736402729
 20
302.0356718956118
 30
0.0
  0
VERTEX
  5
7A9
  8
BIG_DRAWERS
 10
1823.103134712711
 20
301.0709480760233
 30
0.0
  0
VERTEX
  5
7AA
  8
BIG_DRAWERS
 10
1822.966838017867
 20
300.0356718956136
 30
0.0
  0
VERTEX
  5
7AB
  8
BIG_DRAWERS
 10
1823.103134712711
 20
299.0003957152039
 30
0.0
  0
VERTEX
  5
7AC
  8
BIG_DRAWERS
 10
1823.502736402729
 20
298.0356718956136
 30
0.0
  0
VERTEX
  5
7AD
  8
BIG_DRAWERS
 10
1824.138410893121
 20
297.2072447708651
 30
0.0
  0
VERTEX
  5
7AE
  8
BIG_DRAWERS
 10
1824.966838017867
 20
296.5715702804737
 30
0.0
  0
VERTEX
  5
7AF
  8
BIG_DRAWERS
 10
1825.931561837457
 20
296.1719685904573
 30
0.0
  0
VERTEX
  5
7B0
  8
BIG_DRAWERS
 10
1826.966838017866
 20
296.0356718956136
 30
0.0
  0
VERTEX
  5
7B1
  8
BIG_DRAWERS
 10
1828.002114198277
 20
296.1719685904573
 30
0.0
  0
VERTEX
  5
7B2
  8
BIG_DRAWERS
 10
1828.966838017867
 20
296.5715702804737
 30
0.0
  0
VERTEX
  5
7B3
  8
BIG_DRAWERS
 10
1829.795265142614
 20
297.2072447708651
 30
0.0
  0
VERTEX
  5
7B4
  8
BIG_DRAWERS
 10
1830.430939633004
 20
298.0356718956136
 30
0.0
  0
SEQEND
  5
83B
  8
BIG_DRAWERS
  0
POLYLINE
  5
DD
  8
BIG_DRAWERS
 66
     1
 10
0.0
 20
0.0
 30
0.0
 70
     1
  0
VERTEX
  5
7B5
  8
BIG_DRAWERS
 10
2195.830541323022
 20
107.5109480760239
 30
0.0
  0
VERTEX
  5
7B6
  8
BIG_DRAWERS
 10
2195.430939633003
 20
108.4756718956141
 30
0.0
  0
VERTEX
  5
7B7
  8
BIG_DRAWERS
 10
2194.795265142613
 20
109.304099020359
 30
0.0
  0
VERTEX
  5
7B8
  8
BIG_DRAWERS
 10
2193.966838017865
 20
109.9397735107505
 30
0.0
  0
VERTEX
  5
7B9
  8
BIG_DRAWERS
 10
2193.002114198276
 20
110.3393752007723
 30
0.0
  0
VERTEX
  5
7BA
  8
BIG_DRAWERS
 10
2191.966838017865
 20
110.4756718956141
 30
0.0
  0
VERTEX
  5
7BB
  8
BIG_DRAWERS
 10
2190.931561837456
 20
110.3393752007723
 30
0.0
  0
VERTEX
  5
7BC
  8
BIG_DRAWERS
 10
2189.966838017866
 20
109.9397735107505
 30
0.0
  0
VERTEX
  5
7BD
  8
BIG_DRAWERS
 10
2189.13841089312
 20
109.304099020359
 30
0.0
  0
VERTEX
  5
7BE
  8
BIG_DRAWERS
 10
2188.502736402728
 20
108.4756718956141
 30
0.0
  0
VERTEX
  5
7BF
  8
BIG_DRAWERS
 10
2188.10313471271
 20
107.5109480760239
 30
0.0
  0
VERTEX
  5
7C0
  8
BIG_DRAWERS
 10
2187.966838017866
 20
106.4756718956141
 30
0.0
  0
VERTEX
  5
7C1
  8
BIG_DRAWERS
 10
2188.10313471271
 20
105.4403957152063
 30
0.0
  0
VERTEX
  5
7C2
  8
BIG_DRAWERS
 10
2188.502736402728
 20
104.475671895616
 30
0.0
  0
VERTEX
  5
7C3
  8
BIG_DRAWERS
 10
2189.13841089312
 20
103.6472447708675
 30
0.0
  0
VERTEX
  5
7C4
  8
BIG_DRAWERS
 10
2189.966838017866
 20
103.011570280476
 30
0.0
  0
VERTEX
  5
7C5
  8
BIG_DRAWERS
 10
2190.931561837456
 20
102.6119685904578
 30
0.0
  0
VERTEX
  5
7C6
  8
BIG_DRAWERS
 10
2191.966838017865
 20
102.475671895616
 30
0.0
  0
VERTEX
  5
7C7
  8
BIG_DRAWERS
 10
2193.002114198276
 20
102.6119685904578
 30
0.0
  0
VERTEX
  5
7C8
  8
BIG_DRAWERS
 10
2193.966838017866
 20
103.011570280476
 30
0.0
  0
VERTEX
  5
7C9
  8
BIG_DRAWERS
 10
2194.795265142613
 20
103.6472447708675
 30
0.0
  0
VERTEX
  5
7CA
  8
BIG_DRAWERS
 10
2195.430939633003
 20
104.475671895616
 30
0.0
  0
VERTEX
  5
7CB
  8
BIG_DRAWERS
 10
2195.830541323022
 20
105.4403957152063
 30
0.0
  0
VERTEX
  5
7CC
  8
BIG_DRAWERS
 10
2195.966838017866
 20
106.4756718956141
 30
0.0
  0
SEQEND
  5
83C
  8
BIG_DRAWERS
  0
ENDSEC
  0
EOF
