  0
SECTION
  2
HEADER
  9
$ACADVER
  1
AC1009
  9
$DWGCODEPAGE
  3
ansi_1252
  9
$INSBASE
 10
0.0
 20
0.0
 30
0.0
  9
$EXTMIN
 10
46.85873790832738
 20
192.8078322913839
 30
0.0
  9
$EXTMAX
 10
418.8587379083292
 20
1030.807832291383
 30
0.0
  9
$LIMMIN
 10
0.0
 20
0.0
  9
$LIMMAX
 10
12.0
 20
9.0
  9
$ORTHOMODE
 70
     0
  9
$REGENMODE
 70
     1
  9
$FILLMODE
 70
     1
  9
$QTEXTMODE
 70
     0
  9
$MIRRTEXT
 70
     1
  9
$DRAGMODE
 70
     2
  9
$LTSCALE
 40
1.0
  9
$OSMODE
 70
    37
  9
$ATTMODE
 70
     1
  9
$TEXTSIZE
 40
0.2
  9
$TRACEWID
 40
0.05
  9
$TEXTSTYLE
  7
STANDARD
  9
$CLAYER
  8
0
  9
$CELTYPE
  6
BYLAYER
  9
$CECOLOR
 62
   256
  9
$DIMSCALE
 40
1.0
  9
$DIMASZ
 40
0.18
  9
$DIMEXO
 40
0.0625
  9
$DIMDLI
 40
0.38
  9
$DIMRND
 40
0.0
  9
$DIMDLE
 40
0.0
  9
$DIMEXE
 40
0.18
  9
$DIMTP
 40
0.0
  9
$DIMTM
 40
0.0
  9
$DIMTXT
 40
0.18
  9
$DIMCEN
 40
0.09
  9
$DIMTSZ
 40
0.0
  9
$DIMTOL
 70
     0
  9
$DIMLIM
 70
     0
  9
$DIMTIH
 70
     1
  9
$DIMTOH
 70
     1
  9
$DIMSE1
 70
     0
  9
$DIMSE2
 70
     0
  9
$DIMTAD
 70
     0
  9
$DIMZIN
 70
     0
  9
$DIMBLK
  1

  9
$DIMASO
 70
     1
  9
$DIMSHO
 70
     1
  9
$DIMPOST
  1

  9
$DIMAPOST
  1

  9
$DIMALT
 70
     0
  9
$DIMALTD
 70
     2
  9
$DIMALTF
 40
25.4
  9
$DIMLFAC
 40
1.0
  9
$DIMTOFL
 70
     0
  9
$DIMTVP
 40
0.0
  9
$DIMTIX
 70
     0
  9
$DIMSOXD
 70
     0
  9
$DIMSAH
 70
     0
  9
$DIMBLK1
  1

  9
$DIMBLK2
  1

  9
$DIMSTYLE
  2
STANDARD
  9
$DIMCLRD
 70
     0
  9
$DIMCLRE
 70
     0
  9
$DIMCLRT
 70
     0
  9
$DIMTFAC
 40
1.0
  9
$DIMGAP
 40
0.09
  9
$LUNITS
 70
     2
  9
$LUPREC
 70
     4
  9
$SKETCHINC
 40
0.1
  9
$FILLETRAD
 40
0.5
  9
$AUNITS
 70
     0
  9
$AUPREC
 70
     0
  9
$MENU
  1
.
  9
$ELEVATION
 40
0.0
  9
$PELEVATION
 40
0.0
  9
$THICKNESS
 40
0.0
  9
$LIMCHECK
 70
     0
  9
$CHAMFERA
 40
0.0
  9
$CHAMFERB
 40
0.0
  9
$SKPOLY
 70
     0
  9
$TDCREATE
 40
2454910.5
  9
$TDUPDATE
 40
2457374.588456007
  9
$TDINDWG
 40
0.0000000116
  9
$TDUSRTIMER
 40
0.0000000116
  9
$USRTIMER
 70
     1
  9
$ANGBASE
 50
0.0
  9
$ANGDIR
 70
     0
  9
$PDMODE
 70
     0
  9
$PDSIZE
 40
0.0
  9
$PLINEWID
 40
0.0
  9
$COORDS
 70
     1
  9
$SPLFRAME
 70
     0
  9
$SPLINETYPE
 70
     6
  9
$SPLINESEGS
 70
     8
  9
$ATTDIA
 70
     0
  9
$ATTREQ
 70
     1
  9
$HANDLING
 70
     1
  9
$HANDSEED
  5
11B
  9
$SURFTAB1
 70
     6
  9
$SURFTAB2
 70
     6
  9
$SURFTYPE
 70
     6
  9
$SURFU
 70
     6
  9
$SURFV
 70
     6
  9
$UCSNAME
  2

  9
$UCSORG
 10
0.0
 20
0.0
 30
0.0
  9
$UCSXDIR
 10
1.0
 20
0.0
 30
0.0
  9
$UCSYDIR
 10
0.0
 20
1.0
 30
0.0
  9
$PUCSNAME
  2

  9
$PUCSORG
 10
0.0
 20
0.0
 30
0.0
  9
$PUCSXDIR
 10
1.0
 20
0.0
 30
0.0
  9
$PUCSYDIR
 10
0.0
 20
1.0
 30
0.0
  9
$USERI1
 70
     0
  9
$USERI2
 70
     0
  9
$USERI3
 70
     0
  9
$USERI4
 70
     0
  9
$USERI5
 70
     0
  9
$USERR1
 40
0.0
  9
$USERR2
 40
0.0
  9
$USERR3
 40
0.0
  9
$USERR4
 40
0.0
  9
$USERR5
 40
0.0
  9
$WORLDVIEW
 70
     1
  9
$SHADEDGE
 70
     3
  9
$SHADEDIF
 70
    70
  9
$TILEMODE
 70
     1
  9
$MAXACTVP
 70
    64
  9
$PLIMCHECK
 70
     0
  9
$PEXTMIN
 10
1.000000000000000E+20
 20
1.000000000000000E+20
 30
1.000000000000000E+20
  9
$PEXTMAX
 10
-1.000000000000000E+20
 20
-1.000000000000000E+20
 30
-1.000000000000000E+20
  9
$PLIMMIN
 10
0.0
 20
0.0
  9
$PLIMMAX
 10
12.0
 20
9.0
  9
$UNITMODE
 70
     0
  9
$VISRETAIN
 70
     1
  9
$PLINEGEN
 70
     0
  9
$PSLTSCALE
 70
     1
  0
ENDSEC
  0
SECTION
  2
TABLES
  0
TABLE
  2
VPORT
 70
     1
  0
VPORT
  2
*ACTIVE
 70
     0
 10
0.0
 20
0.0
 11
1.0
 21
1.0
 12
10.42990654205607
 22
4.5
 13
0.0
 23
0.0
 14
0.5
 24
0.5
 15
0.5
 25
0.5
 16
0.0
 26
0.0
 36
1.0
 17
0.0
 27
0.0
 37
0.0
 40
9.0
 41
1.972972972850329
 42
50.0
 43
0.0
 44
0.0
 50
0.0
 51
0.0
 71
     0
 72
   100
 73
     1
 74
     3
 75
     0
 76
     0
 77
     0
 78
     0
  0
ENDTAB
  0
TABLE
  2
LTYPE
 70
     2
  0
LTYPE
  2
CONTINUOUS
 70
     0
  3
Solid line
 72
    65
 73
     0
 40
0.0
  0
LTYPE
  2
CONTINUOUS2
 70
     0
  3
Solid Line
 72
    65
 73
     0
 40
0.0
  0
ENDTAB
  0
TABLE
  2
LAYER
 70
     2
  0
LAYER
  2
0
 70
     0
 62
     7
  6
CONTINUOUS
  0
LAYER
  2
BRIDGE_SHEET_2
 70
     0
 62
    18
  6
CONTINUOUS
  0
ENDTAB
  0
TABLE
  2
STYLE
 70
     1
  0
STYLE
  2
STANDARD
 70
     0
 40
0.0
 41
1.0
 50
0.0
 71
     0
 42
0.2
  3
txt
  4

  0
ENDTAB
  0
TABLE
  2
VIEW
 70
     0
  0
ENDTAB
  0
TABLE
  2
UCS
 70
     0
  0
ENDTAB
  0
TABLE
  2
APPID
 70
     1
  0
APPID
  2
ACAD
 70
     0
  0
ENDTAB
  0
TABLE
  2
DIMSTYLE
 70
     1
  0
DIMSTYLE
  2
STANDARD
 70
     0
  3

  4

  5

  6

  7

 40
1.0
 41
0.18
 42
0.0625
 43
0.38
 44
0.18
 45
0.0
 46
0.0
 47
0.0
 48
0.0
140
0.18
141
0.09
142
0.0
143
25.4
144
1.0
145
0.0
146
1.0
147
0.09
 71
     0
 72
     0
 73
     1
 74
     1
 75
     0
 76
     0
 77
     0
 78
     0
170
     0
171
     2
172
     0
173
     0
174
     0
175
     0
176
     0
177
     0
178
     0
  0
ENDTAB
  0
ENDSEC
  0
SECTION
  2
BLOCKS
  0
BLOCK
  8
0
  2
$MODEL_SPACE
 70
     0
 10
0.0
 20
0.0
 30
0.0
  3
$MODEL_SPACE
  1

  0
ENDBLK
  5
21
  8
0
  0
BLOCK
 67
     1
  8
0
  2
$PAPER_SPACE
 70
     0
 10
0.0
 20
0.0
 30
0.0
  3
$PAPER_SPACE
  1

  0
ENDBLK
  5
1D
 67
     1
  8
0
  0
ENDSEC
  0
SECTION
  2
ENTITIES
  0
POLYLINE
  5
70
  8
BRIDGE_SHEET_2
 66
     1
 10
0.0
 20
0.0
 30
0.0
 70
     1
  0
VERTEX
  5
7C
  8
BRIDGE_SHEET_2
 10
82.85873790833057
 20
192.8078322913848
 30
0.0
  0
VERTEX
  5
7D
  8
BRIDGE_SHEET_2
 10
82.85873790833239
 20
992.8078322913827
 30
0.0
  0
VERTEX
  5
7E
  8
BRIDGE_SHEET_2
 10
64.85873790833193
 20
992.8078322913827
 30
0.0
  0
VERTEX
  5
7F
  8
BRIDGE_SHEET_2
 10
64.85873790833284
 20
948.3053990450453
 30
0.0
  0
VERTEX
  5
80
  8
BRIDGE_SHEET_2
 10
46.85873790833239
 20
948.3053990450439
 30
0.0
  0
VERTEX
  5
81
  8
BRIDGE_SHEET_2
 10
46.85873790833512
 20
930.3053990450439
 30
0.0
  0
VERTEX
  5
82
  8
BRIDGE_SHEET_2
 10
64.85873790833557
 20
930.3053990450451
 30
0.0
  0
VERTEX
  5
83
  8
BRIDGE_SHEET_2
 10
64.8587379083333
 20
820.293608780979
 30
0.0
  0
VERTEX
  5
84
  8
BRIDGE_SHEET_2
 10
46.8587379083333
 20
820.2936087809785
 30
0.0
  0
VERTEX
  5
85
  8
BRIDGE_SHEET_2
 10
46.85873790833011
 20
802.293608780978
 30
0.0
  0
VERTEX
  5
86
  8
BRIDGE_SHEET_2
 10
64.85873790833057
 20
802.2936087809785
 30
0.0
  0
VERTEX
  5
87
  8
BRIDGE_SHEET_2
 10
64.85873790833284
 20
678.2507205361812
 30
0.0
  0
VERTEX
  5
88
  8
BRIDGE_SHEET_2
 10
46.85873790833239
 20
678.2507205361806
 30
0.0
  0
VERTEX
  5
89
  8
BRIDGE_SHEET_2
 10
46.85873790832875
 20
660.2507205361803
 30
0.0
  0
VERTEX
  5
8A
  8
BRIDGE_SHEET_2
 10
64.85873790832966
 20
660.2507205361808
 30
0.0
  0
VERTEX
  5
8B
  8
BRIDGE_SHEET_2
 10
64.85873790833057
 20
525.3649440465867
 30
0.0
  0
VERTEX
  5
8C
  8
BRIDGE_SHEET_2
 10
46.85873790833011
 20
525.3649440465867
 30
0.0
  0
VERTEX
  5
8D
  8
BRIDGE_SHEET_2
 10
46.85873790832738
 20
507.3649440465863
 30
0.0
  0
VERTEX
  5
8E
  8
BRIDGE_SHEET_2
 10
64.85873790832738
 20
507.3649440465863
 30
0.0
  0
VERTEX
  5
8F
  8
BRIDGE_SHEET_2
 10
64.85873790833102
 20
383.3220558017897
 30
0.0
  0
VERTEX
  5
90
  8
BRIDGE_SHEET_2
 10
46.85873790833239
 20
383.3220558017892
 30
0.0
  0
VERTEX
  5
91
  8
BRIDGE_SHEET_2
 10
46.85873790832966
 20
365.3220558017888
 30
0.0
  0
VERTEX
  5
92
  8
BRIDGE_SHEET_2
 10
64.8587379083283
 20
365.3220558017897
 30
0.0
  0
VERTEX
  5
93
  8
BRIDGE_SHEET_2
 10
64.85873790833057
 20
255.3102655377215
 30
0.0
  0
VERTEX
  5
94
  8
BRIDGE_SHEET_2
 10
46.8587379083333
 20
255.3102655377215
 30
0.0
  0
VERTEX
  5
95
  8
BRIDGE_SHEET_2
 10
46.8587379083333
 20
237.3102655377211
 30
0.0
  0
VERTEX
  5
96
  8
BRIDGE_SHEET_2
 10
64.85873790833057
 20
237.3102655377211
 30
0.0
  0
VERTEX
  5
97
  8
BRIDGE_SHEET_2
 10
64.85873790833057
 20
192.8078322913839
 30
0.0
  0
SEQEND
  5
116
  8
BRIDGE_SHEET_2
  0
POLYLINE
  5
71
  8
BRIDGE_SHEET_2
 66
     1
 10
0.0
 20
0.0
 30
0.0
 70
     1
  0
VERTEX
  5
98
  8
BRIDGE_SHEET_2
 10
107.8587379083251
 20
192.8078322913839
 30
0.0
  0
VERTEX
  5
99
  8
BRIDGE_SHEET_2
 10
89.85873790832466
 20
192.8078322913848
 30
0.0
  0
VERTEX
  5
9A
  8
BRIDGE_SHEET_2
 10
89.85873790833148
 20
992.807832291383
 30
0.0
  0
VERTEX
  5
9B
  8
BRIDGE_SHEET_2
 10
107.8587379083315
 20
992.807832291383
 30
0.0
  0
VERTEX
  5
9C
  8
BRIDGE_SHEET_2
 10
107.858737908331
 20
948.3053990450455
 30
0.0
  0
VERTEX
  5
9D
  8
BRIDGE_SHEET_2
 10
125.858737908331
 20
948.3053990450439
 30
0.0
  0
VERTEX
  5
9E
  8
BRIDGE_SHEET_2
 10
125.8587379083283
 20
930.3053990450437
 30
0.0
  0
VERTEX
  5
9F
  8
BRIDGE_SHEET_2
 10
107.8587379083278
 20
930.3053990450453
 30
0.0
  0
VERTEX
  5
A0
  8
BRIDGE_SHEET_2
 10
107.8587379083287
 20
820.293608780979
 30
0.0
  0
VERTEX
  5
A1
  8
BRIDGE_SHEET_2
 10
125.8587379083287
 20
820.2936087809783
 30
0.0
  0
VERTEX
  5
A2
  8
BRIDGE_SHEET_2
 10
125.8587379083319
 20
802.293608780978
 30
0.0
  0
VERTEX
  5
A3
  8
BRIDGE_SHEET_2
 10
107.8587379083315
 20
802.2936087809787
 30
0.0
  0
VERTEX
  5
A4
  8
BRIDGE_SHEET_2
 10
107.8587379083278
 20
678.2507205361812
 30
0.0
  0
VERTEX
  5
A5
  8
BRIDGE_SHEET_2
 10
125.8587379083283
 20
678.2507205361803
 30
0.0
  0
VERTEX
  5
A6
  8
BRIDGE_SHEET_2
 10
125.8587379083319
 20
660.2507205361803
 30
0.0
  0
VERTEX
  5
A7
  8
BRIDGE_SHEET_2
 10
107.858737908331
 20
660.2507205361812
 30
0.0
  0
VERTEX
  5
A8
  8
BRIDGE_SHEET_2
 10
107.8587379083287
 20
525.3649440465867
 30
0.0
  0
VERTEX
  5
A9
  8
BRIDGE_SHEET_2
 10
125.8587379083287
 20
525.3649440465867
 30
0.0
  0
VERTEX
  5
AA
  8
BRIDGE_SHEET_2
 10
125.8587379083319
 20
507.3649440465863
 30
0.0
  0
VERTEX
  5
AB
  8
BRIDGE_SHEET_2
 10
107.8587379083315
 20
507.3649440465863
 30
0.0
  0
VERTEX
  5
AC
  8
BRIDGE_SHEET_2
 10
107.8587379083265
 20
383.3220558017897
 30
0.0
  0
VERTEX
  5
AD
  8
BRIDGE_SHEET_2
 10
125.8587379083251
 20
383.3220558017892
 30
0.0
  0
VERTEX
  5
AE
  8
BRIDGE_SHEET_2
 10
125.8587379083283
 20
365.3220558017888
 30
0.0
  0
VERTEX
  5
AF
  8
BRIDGE_SHEET_2
 10
107.8587379083292
 20
365.3220558017897
 30
0.0
  0
VERTEX
  5
B0
  8
BRIDGE_SHEET_2
 10
107.8587379083256
 20
255.3102655377215
 30
0.0
  0
VERTEX
  5
B1
  8
BRIDGE_SHEET_2
 10
125.8587379083233
 20
255.3102655377215
 30
0.0
  0
VERTEX
  5
B2
  8
BRIDGE_SHEET_2
 10
125.8587379083233
 20
237.3102655377211
 30
0.0
  0
VERTEX
  5
B3
  8
BRIDGE_SHEET_2
 10
107.8587379083256
 20
237.3102655377211
 30
0.0
  0
SEQEND
  5
117
  8
BRIDGE_SHEET_2
  0
POLYLINE
  5
72
  8
BRIDGE_SHEET_2
 66
     1
 10
0.0
 20
0.0
 30
0.0
 70
     1
  0
VERTEX
  5
B4
  8
BRIDGE_SHEET_2
 10
150.8587379083269
 20
230.8078322913848
 30
0.0
  0
VERTEX
  5
B5
  8
BRIDGE_SHEET_2
 10
150.8587379083283
 20
1030.807832291383
 30
0.0
  0
VERTEX
  5
B6
  8
BRIDGE_SHEET_2
 10
132.8587379083278
 20
1030.807832291383
 30
0.0
  0
VERTEX
  5
B7
  8
BRIDGE_SHEET_2
 10
132.8587379083287
 20
986.3053990450453
 30
0.0
  0
VERTEX
  5
B8
  8
BRIDGE_SHEET_2
 10
114.8587379083283
 20
986.3053990450439
 30
0.0
  0
VERTEX
  5
B9
  8
BRIDGE_SHEET_2
 10
114.8587379083315
 20
968.3053990450437
 30
0.0
  0
VERTEX
  5
BA
  8
BRIDGE_SHEET_2
 10
132.8587379083315
 20
968.3053990450451
 30
0.0
  0
VERTEX
  5
BB
  8
BRIDGE_SHEET_2
 10
132.8587379083297
 20
858.293608780979
 30
0.0
  0
VERTEX
  5
BC
  8
BRIDGE_SHEET_2
 10
114.8587379083292
 20
858.2936087809783
 30
0.0
  0
VERTEX
  5
BD
  8
BRIDGE_SHEET_2
 10
114.8587379083265
 20
840.293608780978
 30
0.0
  0
VERTEX
  5
BE
  8
BRIDGE_SHEET_2
 10
132.8587379083265
 20
840.2936087809785
 30
0.0
  0
VERTEX
  5
BF
  8
BRIDGE_SHEET_2
 10
132.8587379083287
 20
716.2507205361812
 30
0.0
  0
VERTEX
  5
C0
  8
BRIDGE_SHEET_2
 10
114.8587379083283
 20
716.2507205361806
 30
0.0
  0
VERTEX
  5
C1
  8
BRIDGE_SHEET_2
 10
114.8587379083251
 20
698.2507205361803
 30
0.0
  0
VERTEX
  5
C2
  8
BRIDGE_SHEET_2
 10
132.858737908326
 20
698.2507205361808
 30
0.0
  0
VERTEX
  5
C3
  8
BRIDGE_SHEET_2
 10
132.8587379083265
 20
563.3649440465867
 30
0.0
  0
VERTEX
  5
C4
  8
BRIDGE_SHEET_2
 10
114.8587379083265
 20
563.3649440465867
 30
0.0
  0
VERTEX
  5
C5
  8
BRIDGE_SHEET_2
 10
114.8587379083233
 20
545.3649440465863
 30
0.0
  0
VERTEX
  5
C6
  8
BRIDGE_SHEET_2
 10
132.8587379083237
 20
545.3649440465863
 30
0.0
  0
VERTEX
  5
C7
  8
BRIDGE_SHEET_2
 10
132.8587379083274
 20
421.3220558017895
 30
0.0
  0
VERTEX
  5
C8
  8
BRIDGE_SHEET_2
 10
114.8587379083283
 20
421.322055801789
 30
0.0
  0
VERTEX
  5
C9
  8
BRIDGE_SHEET_2
 10
114.8587379083256
 20
403.3220558017888
 30
0.0
  0
VERTEX
  5
CA
  8
BRIDGE_SHEET_2
 10
132.8587379083242
 20
403.3220558017897
 30
0.0
  0
VERTEX
  5
CB
  8
BRIDGE_SHEET_2
 10
132.8587379083265
 20
293.3102655377215
 30
0.0
  0
VERTEX
  5
CC
  8
BRIDGE_SHEET_2
 10
114.8587379083292
 20
293.3102655377215
 30
0.0
  0
VERTEX
  5
CD
  8
BRIDGE_SHEET_2
 10
114.8587379083292
 20
275.3102655377215
 30
0.0
  0
VERTEX
  5
CE
  8
BRIDGE_SHEET_2
 10
132.8587379083265
 20
275.3102655377215
 30
0.0
  0
VERTEX
  5
CF
  8
BRIDGE_SHEET_2
 10
132.8587379083265
 20
230.8078322913839
 30
0.0
  0
SEQEND
  5
118
  8
BRIDGE_SHEET_2
  0
POLYLINE
  5
73
  8
BRIDGE_SHEET_2
 66
     1
 10
0.0
 20
0.0
 30
0.0
 70
     1
  0
VERTEX
  5
D0
  8
BRIDGE_SHEET_2
 10
175.858737908321
 20
230.8078322913839
 30
0.0
  0
VERTEX
  5
D1
  8
BRIDGE_SHEET_2
 10
175.8587379083219
 20
275.3102655377215
 30
0.0
  0
VERTEX
  5
D2
  8
BRIDGE_SHEET_2
 10
193.8587379083192
 20
275.3102655377215
 30
0.0
  0
VERTEX
  5
D3
  8
BRIDGE_SHEET_2
 10
193.8587379083192
 20
293.3102655377215
 30
0.0
  0
VERTEX
  5
D4
  8
BRIDGE_SHEET_2
 10
175.8587379083219
 20
293.3102655377215
 30
0.0
  0
VERTEX
  5
D5
  8
BRIDGE_SHEET_2
 10
175.8587379083256
 20
403.3220558017897
 30
0.0
  0
VERTEX
  5
D6
  8
BRIDGE_SHEET_2
 10
193.8587379083242
 20
403.3220558017888
 30
0.0
  0
VERTEX
  5
D7
  8
BRIDGE_SHEET_2
 10
193.8587379083215
 20
421.322055801789
 30
0.0
  0
VERTEX
  5
D8
  8
BRIDGE_SHEET_2
 10
175.8587379083224
 20
421.3220558017895
 30
0.0
  0
VERTEX
  5
D9
  8
BRIDGE_SHEET_2
 10
175.8587379083278
 20
545.3649440465863
 30
0.0
  0
VERTEX
  5
DA
  8
BRIDGE_SHEET_2
 10
193.8587379083278
 20
545.3649440465863
 30
0.0
  0
VERTEX
  5
DB
  8
BRIDGE_SHEET_2
 10
193.8587379083251
 20
563.3649440465867
 30
0.0
  0
VERTEX
  5
DC
  8
BRIDGE_SHEET_2
 10
175.8587379083247
 20
563.3649440465867
 30
0.0
  0
VERTEX
  5
DD
  8
BRIDGE_SHEET_2
 10
175.8587379083269
 20
698.2507205361812
 30
0.0
  0
VERTEX
  5
DE
  8
BRIDGE_SHEET_2
 10
193.8587379083278
 20
698.2507205361803
 30
0.0
  0
VERTEX
  5
DF
  8
BRIDGE_SHEET_2
 10
193.8587379083242
 20
716.2507205361806
 30
0.0
  0
VERTEX
  5
E0
  8
BRIDGE_SHEET_2
 10
175.8587379083242
 20
716.2507205361812
 30
0.0
  0
VERTEX
  5
E1
  8
BRIDGE_SHEET_2
 10
175.8587379083278
 20
840.2936087809787
 30
0.0
  0
VERTEX
  5
E2
  8
BRIDGE_SHEET_2
 10
193.8587379083278
 20
840.293608780978
 30
0.0
  0
VERTEX
  5
E3
  8
BRIDGE_SHEET_2
 10
193.8587379083251
 20
858.2936087809783
 30
0.0
  0
VERTEX
  5
E4
  8
BRIDGE_SHEET_2
 10
175.8587379083247
 20
858.293608780979
 30
0.0
  0
VERTEX
  5
E5
  8
BRIDGE_SHEET_2
 10
175.8587379083242
 20
968.3053990450453
 30
0.0
  0
VERTEX
  5
E6
  8
BRIDGE_SHEET_2
 10
193.8587379083242
 20
968.3053990450437
 30
0.0
  0
VERTEX
  5
E7
  8
BRIDGE_SHEET_2
 10
193.8587379083269
 20
986.3053990450439
 30
0.0
  0
VERTEX
  5
E8
  8
BRIDGE_SHEET_2
 10
175.8587379083269
 20
986.3053990450455
 30
0.0
  0
VERTEX
  5
E9
  8
BRIDGE_SHEET_2
 10
175.8587379083278
 20
1030.807832291383
 30
0.0
  0
VERTEX
  5
EA
  8
BRIDGE_SHEET_2
 10
157.8587379083274
 20
1030.807832291383
 30
0.0
  0
VERTEX
  5
EB
  8
BRIDGE_SHEET_2
 10
157.858737908321
 20
230.8078322913852
 30
0.0
  0
SEQEND
  5
119
  8
BRIDGE_SHEET_2
  0
POLYLINE
  5
74
  8
BRIDGE_SHEET_2
 66
     1
 10
0.0
 20
0.0
 30
0.0
 70
     1
  0
VERTEX
  5
EC
  8
BRIDGE_SHEET_2
 10
400.8587379083315
 20
230.8078322913825
 30
0.0
  0
VERTEX
  5
ED
  8
BRIDGE_SHEET_2
 10
218.8587379083315
 20
230.8078322913821
 30
0.0
  0
VERTEX
  5
EE
  8
BRIDGE_SHEET_2
 10
218.8587379083315
 20
275.310265537722
 30
0.0
  0
VERTEX
  5
EF
  8
BRIDGE_SHEET_2
 10
236.8587379083319
 20
275.310265537722
 30
0.0
  0
VERTEX
  5
F0
  8
BRIDGE_SHEET_2
 10
236.8587379083319
 20
293.310265537722
 30
0.0
  0
VERTEX
  5
F1
  8
BRIDGE_SHEET_2
 10
200.8587379083283
 20
293.310265537722
 30
0.0
  0
VERTEX
  5
F2
  8
BRIDGE_SHEET_2
 10
200.8587379083283
 20
403.3220558017874
 30
0.0
  0
VERTEX
  5
F3
  8
BRIDGE_SHEET_2
 10
236.8587379083324
 20
403.3220558017883
 30
0.0
  0
VERTEX
  5
F4
  8
BRIDGE_SHEET_2
 10
236.8587379083324
 20
421.3220558017883
 30
0.0
  0
VERTEX
  5
F5
  8
BRIDGE_SHEET_2
 10
218.8587379083328
 20
421.3220558017883
 30
0.0
  0
VERTEX
  5
F6
  8
BRIDGE_SHEET_2
 10
218.858737908331
 20
545.364944046584
 30
0.0
  0
VERTEX
  5
F7
  8
BRIDGE_SHEET_2
 10
236.858737908331
 20
545.364944046584
 30
0.0
  0
VERTEX
  5
F8
  8
BRIDGE_SHEET_2
 10
236.858737908331
 20
563.3649440465842
 30
0.0
  0
VERTEX
  5
F9
  8
BRIDGE_SHEET_2
 10
200.8587379083283
 20
563.3649440465849
 30
0.0
  0
VERTEX
  5
FA
  8
BRIDGE_SHEET_2
 10
200.8587379083278
 20
698.250720536178
 30
0.0
  0
VERTEX
  5
FB
  8
BRIDGE_SHEET_2
 10
236.8587379083324
 20
698.2507205361799
 30
0.0
  0
VERTEX
  5
FC
  8
BRIDGE_SHEET_2
 10
236.8587379083319
 20
716.2507205361801
 30
0.0
  0
VERTEX
  5
FD
  8
BRIDGE_SHEET_2
 10
218.8587379083324
 20
716.2507205361799
 30
0.0
  0
VERTEX
  5
FE
  8
BRIDGE_SHEET_2
 10
218.8587379083328
 20
840.2936087809749
 30
0.0
  0
VERTEX
  5
FF
  8
BRIDGE_SHEET_2
 10
236.8587379083333
 20
840.2936087809751
 30
0.0
  0
VERTEX
  5
100
  8
BRIDGE_SHEET_2
 10
236.8587379083333
 20
858.2936087809753
 30
0.0
  0
VERTEX
  5
101
  8
BRIDGE_SHEET_2
 10
200.8587379083278
 20
858.2936087809771
 30
0.0
  0
VERTEX
  5
102
  8
BRIDGE_SHEET_2
 10
200.8587379083269
 20
968.3053990450449
 30
0.0
  0
VERTEX
  5
103
  8
BRIDGE_SHEET_2
 10
236.8587379083306
 20
968.305399045043
 30
0.0
  0
VERTEX
  5
104
  8
BRIDGE_SHEET_2
 10
236.8587379083306
 20
986.305399045043
 30
0.0
  0
VERTEX
  5
105
  8
BRIDGE_SHEET_2
 10
218.8587379083301
 20
986.305399045043
 30
0.0
  0
VERTEX
  5
106
  8
BRIDGE_SHEET_2
 10
218.8587379083292
 20
1030.807832291383
 30
0.0
  0
VERTEX
  5
107
  8
BRIDGE_SHEET_2
 10
400.8587379083292
 20
1030.807832291383
 30
0.0
  0
VERTEX
  5
108
  8
BRIDGE_SHEET_2
 10
400.8587379083283
 20
968.3053990450439
 30
0.0
  0
VERTEX
  5
109
  8
BRIDGE_SHEET_2
 10
418.8587379083292
 20
968.3053990450439
 30
0.0
  0
VERTEX
  5
10A
  8
BRIDGE_SHEET_2
 10
418.8587379083292
 20
858.2936087809771
 30
0.0
  0
VERTEX
  5
10B
  8
BRIDGE_SHEET_2
 10
400.8587379083292
 20
858.2936087809771
 30
0.0
  0
VERTEX
  5
10C
  8
BRIDGE_SHEET_2
 10
400.8587379083283
 20
698.2507205361794
 30
0.0
  0
VERTEX
  5
10D
  8
BRIDGE_SHEET_2
 10
418.8587379083287
 20
698.2507205361794
 30
0.0
  0
VERTEX
  5
10E
  8
BRIDGE_SHEET_2
 10
418.8587379083292
 20
563.3649440465863
 30
0.0
  0
VERTEX
  5
10F
  8
BRIDGE_SHEET_2
 10
400.8587379083292
 20
563.3649440465863
 30
0.0
  0
VERTEX
  5
110
  8
BRIDGE_SHEET_2
 10
400.8587379083278
 20
403.3220558017888
 30
0.0
  0
VERTEX
  5
111
  8
BRIDGE_SHEET_2
 10
418.8587379083274
 20
403.3220558017888
 30
0.0
  0
VERTEX
  5
112
  8
BRIDGE_SHEET_2
 10
418.8587379083278
 20
293.3102655377234
 30
0.0
  0
VERTEX
  5
113
  8
BRIDGE_SHEET_2
 10
400.8587379083278
 20
293.3102655377234
 30
0.0
  0
SEQEND
  5
11A
  8
BRIDGE_SHEET_2
  0
ENDSEC
  0
EOF
