  0
SECTION
  2
HEADER
  9
$ACADVER
  1
AC1009
  9
$DWGCODEPAGE
  3
ansi_1252
  9
$INSBASE
 10
0.0
 20
0.0
 30
0.0
  9
$EXTMIN
 10
15.27199801803727
 20
19.9999999999859
 30
0.0
  9
$EXTMAX
 10
2384.728001981962
 20
1180.000000000014
 30
0.0
  9
$LIMMIN
 10
0.0
 20
0.0
  9
$LIMMAX
 10
12.0
 20
9.0
  9
$ORTHOMODE
 70
     0
  9
$REGENMODE
 70
     1
  9
$FILLMODE
 70
     1
  9
$QTEXTMODE
 70
     0
  9
$MIRRTEXT
 70
     1
  9
$DRAGMODE
 70
     2
  9
$LTSCALE
 40
1.0
  9
$OSMODE
 70
    37
  9
$ATTMODE
 70
     1
  9
$TEXTSIZE
 40
0.2
  9
$TRACEWID
 40
0.05
  9
$TEXTSTYLE
  7
STANDARD
  9
$CLAYER
  8
0
  9
$CELTYPE
  6
BYLAYER
  9
$CECOLOR
 62
   256
  9
$DIMSCALE
 40
1.0
  9
$DIMASZ
 40
0.18
  9
$DIMEXO
 40
0.0625
  9
$DIMDLI
 40
0.38
  9
$DIMRND
 40
0.0
  9
$DIMDLE
 40
0.0
  9
$DIMEXE
 40
0.18
  9
$DIMTP
 40
0.0
  9
$DIMTM
 40
0.0
  9
$DIMTXT
 40
0.18
  9
$DIMCEN
 40
0.09
  9
$DIMTSZ
 40
0.0
  9
$DIMTOL
 70
     0
  9
$DIMLIM
 70
     0
  9
$DIMTIH
 70
     1
  9
$DIMTOH
 70
     1
  9
$DIMSE1
 70
     0
  9
$DIMSE2
 70
     0
  9
$DIMTAD
 70
     0
  9
$DIMZIN
 70
     0
  9
$DIMBLK
  1

  9
$DIMASO
 70
     1
  9
$DIMSHO
 70
     1
  9
$DIMPOST
  1

  9
$DIMAPOST
  1

  9
$DIMALT
 70
     0
  9
$DIMALTD
 70
     2
  9
$DIMALTF
 40
25.4
  9
$DIMLFAC
 40
1.0
  9
$DIMTOFL
 70
     0
  9
$DIMTVP
 40
0.0
  9
$DIMTIX
 70
     0
  9
$DIMSOXD
 70
     0
  9
$DIMSAH
 70
     0
  9
$DIMBLK1
  1

  9
$DIMBLK2
  1

  9
$DIMSTYLE
  2
STANDARD
  9
$DIMCLRD
 70
     0
  9
$DIMCLRE
 70
     0
  9
$DIMCLRT
 70
     0
  9
$DIMTFAC
 40
1.0
  9
$DIMGAP
 40
0.09
  9
$LUNITS
 70
     2
  9
$LUPREC
 70
     4
  9
$SKETCHINC
 40
0.1
  9
$FILLETRAD
 40
0.5
  9
$AUNITS
 70
     0
  9
$AUPREC
 70
     0
  9
$MENU
  1
.
  9
$ELEVATION
 40
0.0
  9
$PELEVATION
 40
0.0
  9
$THICKNESS
 40
0.0
  9
$LIMCHECK
 70
     0
  9
$CHAMFERA
 40
0.0
  9
$CHAMFERB
 40
0.0
  9
$SKPOLY
 70
     0
  9
$TDCREATE
 40
2454910.5
  9
$TDUPDATE
 40
2457374.588160139
  9
$TDINDWG
 40
0.0000000116
  9
$TDUSRTIMER
 40
0.0000000116
  9
$USRTIMER
 70
     1
  9
$ANGBASE
 50
0.0
  9
$ANGDIR
 70
     0
  9
$PDMODE
 70
     0
  9
$PDSIZE
 40
0.0
  9
$PLINEWID
 40
0.0
  9
$COORDS
 70
     1
  9
$SPLFRAME
 70
     0
  9
$SPLINETYPE
 70
     6
  9
$SPLINESEGS
 70
     8
  9
$ATTDIA
 70
     0
  9
$ATTREQ
 70
     1
  9
$HANDLING
 70
     1
  9
$HANDSEED
  5
1DB
  9
$SURFTAB1
 70
     6
  9
$SURFTAB2
 70
     6
  9
$SURFTYPE
 70
     6
  9
$SURFU
 70
     6
  9
$SURFV
 70
     6
  9
$UCSNAME
  2

  9
$UCSORG
 10
0.0
 20
0.0
 30
0.0
  9
$UCSXDIR
 10
1.0
 20
0.0
 30
0.0
  9
$UCSYDIR
 10
0.0
 20
1.0
 30
0.0
  9
$PUCSNAME
  2

  9
$PUCSORG
 10
0.0
 20
0.0
 30
0.0
  9
$PUCSXDIR
 10
1.0
 20
0.0
 30
0.0
  9
$PUCSYDIR
 10
0.0
 20
1.0
 30
0.0
  9
$USERI1
 70
     0
  9
$USERI2
 70
     0
  9
$USERI3
 70
     0
  9
$USERI4
 70
     0
  9
$USERI5
 70
     0
  9
$USERR1
 40
0.0
  9
$USERR2
 40
0.0
  9
$USERR3
 40
0.0
  9
$USERR4
 40
0.0
  9
$USERR5
 40
0.0
  9
$WORLDVIEW
 70
     1
  9
$SHADEDGE
 70
     3
  9
$SHADEDIF
 70
    70
  9
$TILEMODE
 70
     1
  9
$MAXACTVP
 70
    64
  9
$PLIMCHECK
 70
     0
  9
$PEXTMIN
 10
1.000000000000000E+20
 20
1.000000000000000E+20
 30
1.000000000000000E+20
  9
$PEXTMAX
 10
-1.000000000000000E+20
 20
-1.000000000000000E+20
 30
-1.000000000000000E+20
  9
$PLIMMIN
 10
0.0
 20
0.0
  9
$PLIMMAX
 10
12.0
 20
9.0
  9
$UNITMODE
 70
     0
  9
$VISRETAIN
 70
     1
  9
$PLINEGEN
 70
     0
  9
$PSLTSCALE
 70
     1
  0
ENDSEC
  0
SECTION
  2
TABLES
  0
TABLE
  2
VPORT
 70
     1
  0
VPORT
  2
*ACTIVE
 70
     0
 10
0.0
 20
0.0
 11
1.0
 21
1.0
 12
10.42990654205607
 22
4.5
 13
0.0
 23
0.0
 14
0.5
 24
0.5
 15
0.5
 25
0.5
 16
0.0
 26
0.0
 36
1.0
 17
0.0
 27
0.0
 37
0.0
 40
9.0
 41
1.972972972850329
 42
50.0
 43
0.0
 44
0.0
 50
0.0
 51
0.0
 71
     0
 72
   100
 73
     1
 74
     3
 75
     0
 76
     0
 77
     0
 78
     0
  0
ENDTAB
  0
TABLE
  2
LTYPE
 70
     2
  0
LTYPE
  2
CONTINUOUS
 70
     0
  3
Solid line
 72
    65
 73
     0
 40
0.0
  0
LTYPE
  2
CONTINUOUS2
 70
     0
  3
Solid Line
 72
    65
 73
     0
 40
0.0
  0
ENDTAB
  0
TABLE
  2
LAYER
 70
     2
  0
LAYER
  2
0
 70
     0
 62
     7
  6
CONTINUOUS
  0
LAYER
  2
BRIDGE
 70
     0
 62
    18
  6
CONTINUOUS
  0
ENDTAB
  0
TABLE
  2
STYLE
 70
     1
  0
STYLE
  2
STANDARD
 70
     0
 40
0.0
 41
1.0
 50
0.0
 71
     0
 42
0.2
  3
txt
  4

  0
ENDTAB
  0
TABLE
  2
VIEW
 70
     0
  0
ENDTAB
  0
TABLE
  2
UCS
 70
     0
  0
ENDTAB
  0
TABLE
  2
APPID
 70
     1
  0
APPID
  2
ACAD
 70
     0
  0
ENDTAB
  0
TABLE
  2
DIMSTYLE
 70
     1
  0
DIMSTYLE
  2
STANDARD
 70
     0
  3

  4

  5

  6

  7

 40
1.0
 41
0.18
 42
0.0625
 43
0.38
 44
0.18
 45
0.0
 46
0.0
 47
0.0
 48
0.0
140
0.18
141
0.09
142
0.0
143
25.4
144
1.0
145
0.0
146
1.0
147
0.09
 71
     0
 72
     0
 73
     1
 74
     1
 75
     0
 76
     0
 77
     0
 78
     0
170
     0
171
     2
172
     0
173
     0
174
     0
175
     0
176
     0
177
     0
178
     0
  0
ENDTAB
  0
ENDSEC
  0
SECTION
  2
BLOCKS
  0
BLOCK
  8
0
  2
$MODEL_SPACE
 70
     0
 10
0.0
 20
0.0
 30
0.0
  3
$MODEL_SPACE
  1

  0
ENDBLK
  5
21
  8
0
  0
BLOCK
 67
     1
  8
0
  2
$PAPER_SPACE
 70
     0
 10
0.0
 20
0.0
 30
0.0
  3
$PAPER_SPACE
  1

  0
ENDBLK
  5
1D
 67
     1
  8
0
  0
ENDSEC
  0
SECTION
  2
ENTITIES
  0
POLYLINE
  5
70
  8
BRIDGE
 66
     1
 10
0.0
 20
0.0
 30
0.0
 70
     1
  0
VERTEX
  5
8C
  8
BRIDGE
 10
2326.978001982081
 20
110.2500000000773
 30
0.0
  0
VERTEX
  5
8D
  8
BRIDGE
 10
2344.978001982084
 20
110.2500000000809
 30
0.0
  0
VERTEX
  5
8E
  8
BRIDGE
 10
2344.978001982084
 20
92.25000000008185
 30
0.0
  0
VERTEX
  5
8F
  8
BRIDGE
 10
2326.978001982081
 20
92.25000000007913
 30
0.0
  0
SEQEND
  5
1C6
  8
BRIDGE
  0
POLYLINE
  5
71
  8
BRIDGE
 66
     1
 10
0.0
 20
0.0
 30
0.0
 70
     1
  0
VERTEX
  5
90
  8
BRIDGE
 10
2326.978001982034
 20
527.7500000000782
 30
0.0
  0
VERTEX
  5
91
  8
BRIDGE
 10
2344.978001982035
 20
527.7500000000782
 30
0.0
  0
VERTEX
  5
92
  8
BRIDGE
 10
2344.978001982037
 20
509.7500000000791
 30
0.0
  0
VERTEX
  5
93
  8
BRIDGE
 10
2326.978001982035
 20
509.7500000000791
 30
0.0
  0
SEQEND
  5
1C7
  8
BRIDGE
  0
POLYLINE
  5
72
  8
BRIDGE
 66
     1
 10
0.0
 20
0.0
 30
0.0
 70
     1
  0
VERTEX
  5
94
  8
BRIDGE
 10
2326.978001982015
 20
690.25000000008
 30
0.0
  0
VERTEX
  5
95
  8
BRIDGE
 10
2344.978001982017
 20
690.25000000008
 30
0.0
  0
VERTEX
  5
96
  8
BRIDGE
 10
2344.978001982017
 20
672.2500000000814
 30
0.0
  0
VERTEX
  5
97
  8
BRIDGE
 10
2326.978001982015
 20
672.2500000000814
 30
0.0
  0
SEQEND
  5
1C8
  8
BRIDGE
  0
POLYLINE
  5
73
  8
BRIDGE
 66
     1
 10
0.0
 20
0.0
 30
0.0
 70
     1
  0
VERTEX
  5
98
  8
BRIDGE
 10
2258.470440144254
 20
617.9999999999995
 30
0.0
  0
VERTEX
  5
99
  8
BRIDGE
 10
2258.470440144254
 20
582.0000000000045
 30
0.0
  0
VERTEX
  5
9A
  8
BRIDGE
 10
2275.968907062919
 20
582.0000000000045
 30
0.0
  0
VERTEX
  5
9B
  8
BRIDGE
 10
2275.968907062919
 20
617.9999999999995
 30
0.0
  0
SEQEND
  5
1C9
  8
BRIDGE
  0
POLYLINE
  5
74
  8
BRIDGE
 66
     1
 10
0.0
 20
0.0
 30
0.0
 70
     1
  0
VERTEX
  5
9C
  8
BRIDGE
 10
2326.978001981966
 20
1107.75000000008
 30
0.0
  0
VERTEX
  5
9D
  8
BRIDGE
 10
2344.978001981969
 20
1107.75000000008
 30
0.0
  0
VERTEX
  5
9E
  8
BRIDGE
 10
2344.978001981969
 20
1089.750000000082
 30
0.0
  0
VERTEX
  5
9F
  8
BRIDGE
 10
2326.978001981966
 20
1089.750000000082
 30
0.0
  0
SEQEND
  5
1CA
  8
BRIDGE
  0
POLYLINE
  5
75
  8
BRIDGE
 66
     1
 10
0.0
 20
0.0
 30
0.0
 70
     1
  0
VERTEX
  5
A0
  8
BRIDGE
 10
1975.978768522624
 20
618.0000000000132
 30
0.0
  0
VERTEX
  5
A1
  8
BRIDGE
 10
1975.978768522624
 20
582.0000000000173
 30
0.0
  0
VERTEX
  5
A2
  8
BRIDGE
 10
1993.477235441289
 20
582.0000000000173
 30
0.0
  0
VERTEX
  5
A3
  8
BRIDGE
 10
1993.477235441289
 20
618.0000000000132
 30
0.0
  0
SEQEND
  5
1CB
  8
BRIDGE
  0
POLYLINE
  5
76
  8
BRIDGE
 66
     1
 10
0.0
 20
0.0
 30
0.0
 70
     1
  0
VERTEX
  5
A4
  8
BRIDGE
 10
1624.478001982033
 20
110.2499999999995
 30
0.0
  0
VERTEX
  5
A5
  8
BRIDGE
 10
1642.478001982035
 20
110.2499999999995
 30
0.0
  0
VERTEX
  5
A6
  8
BRIDGE
 10
1642.478001982035
 20
92.25000000000136
 30
0.0
  0
VERTEX
  5
A7
  8
BRIDGE
 10
1624.478001982033
 20
92.25000000000136
 30
0.0
  0
SEQEND
  5
1CC
  8
BRIDGE
  0
POLYLINE
  5
77
  8
BRIDGE
 66
     1
 10
0.0
 20
0.0
 30
0.0
 70
     1
  0
VERTEX
  5
A8
  8
BRIDGE
 10
1693.487096900999
 20
618.0000000000082
 30
0.0
  0
VERTEX
  5
A9
  8
BRIDGE
 10
1693.487096900999
 20
582.000000000015
 30
0.0
  0
VERTEX
  5
AA
  8
BRIDGE
 10
1710.985563819665
 20
582.000000000015
 30
0.0
  0
VERTEX
  5
AB
  8
BRIDGE
 10
1710.985563819665
 20
618.0000000000082
 30
0.0
  0
SEQEND
  5
1CD
  8
BRIDGE
  0
POLYLINE
  5
78
  8
BRIDGE
 66
     1
 10
0.0
 20
0.0
 30
0.0
 70
     1
  0
VERTEX
  5
AC
  8
BRIDGE
 10
1624.478001982036
 20
527.7499999999995
 30
0.0
  0
VERTEX
  5
AD
  8
BRIDGE
 10
1642.478001982036
 20
527.7500000000005
 30
0.0
  0
VERTEX
  5
AE
  8
BRIDGE
 10
1642.478001982037
 20
509.7500000000014
 30
0.0
  0
VERTEX
  5
AF
  8
BRIDGE
 10
1624.478001982036
 20
509.7500000000014
 30
0.0
  0
SEQEND
  5
1CE
  8
BRIDGE
  0
POLYLINE
  5
79
  8
BRIDGE
 66
     1
 10
0.0
 20
0.0
 30
0.0
 70
     1
  0
VERTEX
  5
B0
  8
BRIDGE
 10
1624.478001981967
 20
690.2499999999989
 30
0.0
  0
VERTEX
  5
B1
  8
BRIDGE
 10
1642.478001981968
 20
690.2499999999989
 30
0.0
  0
VERTEX
  5
B2
  8
BRIDGE
 10
1642.478001981969
 20
672.25
 30
0.0
  0
VERTEX
  5
B3
  8
BRIDGE
 10
1624.478001981967
 20
672.25
 30
0.0
  0
SEQEND
  5
1CF
  8
BRIDGE
  0
POLYLINE
  5
7A
  8
BRIDGE
 66
     1
 10
0.0
 20
0.0
 30
0.0
 70
     1
  0
VERTEX
  5
B4
  8
BRIDGE
 10
1451.470440144253
 20
617.9999999999936
 30
0.0
  0
VERTEX
  5
B5
  8
BRIDGE
 10
1451.470440144253
 20
581.9999999999986
 30
0.0
  0
VERTEX
  5
B6
  8
BRIDGE
 10
1468.968907062919
 20
581.9999999999995
 30
0.0
  0
VERTEX
  5
B7
  8
BRIDGE
 10
1468.968907062919
 20
617.9999999999936
 30
0.0
  0
SEQEND
  5
1D0
  8
BRIDGE
  0
POLYLINE
  5
7B
  8
BRIDGE
 66
     1
 10
0.0
 20
0.0
 30
0.0
 70
     1
  0
VERTEX
  5
B8
  8
BRIDGE
 10
1624.478001981967
 20
1107.749999999999
 30
0.0
  0
VERTEX
  5
B9
  8
BRIDGE
 10
1642.478001981969
 20
1107.749999999999
 30
0.0
  0
VERTEX
  5
BA
  8
BRIDGE
 10
1642.47800198197
 20
1089.75
 30
0.0
  0
VERTEX
  5
BB
  8
BRIDGE
 10
1624.478001981968
 20
1089.75
 30
0.0
  0
SEQEND
  5
1D1
  8
BRIDGE
  0
POLYLINE
  5
7C
  8
BRIDGE
 66
     1
 10
0.0
 20
0.0
 30
0.0
 70
     1
  0
VERTEX
  5
BC
  8
BRIDGE
 10
1584.728001981958
 20
1179.999999999996
 30
0.0
  0
VERTEX
  5
BD
  8
BRIDGE
 10
1584.728001981961
 20
20.00000000000864
 30
0.0
  0
VERTEX
  5
BE
  8
BRIDGE
 10
1647.2304352283
 20
19.99999999999136
 30
0.0
  0
VERTEX
  5
BF
  8
BRIDGE
 10
1647.230435228301
 20
37.99999999999136
 30
0.0
  0
VERTEX
  5
C0
  8
BRIDGE
 10
1757.242225492366
 20
37.99999999999773
 30
0.0
  0
VERTEX
  5
C1
  8
BRIDGE
 10
1757.242225492366
 20
19.99999999999773
 30
0.0
  0
VERTEX
  5
C2
  8
BRIDGE
 10
1917.285113737164
 20
19.99999999998954
 30
0.0
  0
VERTEX
  5
C3
  8
BRIDGE
 10
1917.285113737164
 20
37.99999999998954
 30
0.0
  0
VERTEX
  5
C4
  8
BRIDGE
 10
2052.170890226758
 20
37.99999999999818
 30
0.0
  0
VERTEX
  5
C5
  8
BRIDGE
 10
2052.170890226758
 20
19.99999999999818
 30
0.0
  0
VERTEX
  5
C6
  8
BRIDGE
 10
2212.213778471556
 20
20.00000000001182
 30
0.0
  0
VERTEX
  5
C7
  8
BRIDGE
 10
2212.213778471553
 20
38.00000000001182
 30
0.0
  0
VERTEX
  5
C8
  8
BRIDGE
 10
2322.22556873562
 20
37.99999999999909
 30
0.0
  0
VERTEX
  5
C9
  8
BRIDGE
 10
2322.225568735623
 20
19.99999999999818
 30
0.0
  0
VERTEX
  5
CA
  8
BRIDGE
 10
2384.728001981962
 20
19.99999999999727
 30
0.0
  0
VERTEX
  5
CB
  8
BRIDGE
 10
2384.728001981959
 20
1179.999999999996
 30
0.0
  0
VERTEX
  5
CC
  8
BRIDGE
 10
2322.22556873562
 20
1179.999999999993
 30
0.0
  0
VERTEX
  5
CD
  8
BRIDGE
 10
2322.225568735619
 20
1161.999999999993
 30
0.0
  0
VERTEX
  5
CE
  8
BRIDGE
 10
2212.213778471552
 20
1161.999999999994
 30
0.0
  0
VERTEX
  5
CF
  8
BRIDGE
 10
2212.213778471552
 20
1179.999999999994
 30
0.0
  0
VERTEX
  5
D0
  8
BRIDGE
 10
2052.170890226754
 20
1180.000000000014
 30
0.0
  0
VERTEX
  5
D1
  8
BRIDGE
 10
2052.170890226754
 20
1162.000000000014
 30
0.0
  0
VERTEX
  5
D2
  8
BRIDGE
 10
1917.285113737161
 20
1161.999999999996
 30
0.0
  0
VERTEX
  5
D3
  8
BRIDGE
 10
1917.28511373716
 20
1179.999999999997
 30
0.0
  0
VERTEX
  5
D4
  8
BRIDGE
 10
1757.242225492363
 20
1179.999999999992
 30
0.0
  0
VERTEX
  5
D5
  8
BRIDGE
 10
1757.242225492364
 20
1161.999999999992
 30
0.0
  0
VERTEX
  5
D6
  8
BRIDGE
 10
1647.230435228298
 20
1161.999999999993
 30
0.0
  0
VERTEX
  5
D7
  8
BRIDGE
 10
1647.230435228298
 20
1179.999999999993
 30
0.0
  0
SEQEND
  5
1D2
  8
BRIDGE
  0
POLYLINE
  5
7D
  8
BRIDGE
 66
     1
 10
0.0
 20
0.0
 30
0.0
 70
     1
  0
VERTEX
  5
D8
  8
BRIDGE
 10
1168.978768522623
 20
618.000000000013
 30
0.0
  0
VERTEX
  5
D9
  8
BRIDGE
 10
1168.978768522623
 20
582.0000000000168
 30
0.0
  0
VERTEX
  5
DA
  8
BRIDGE
 10
1186.477235441289
 20
582.0000000000168
 30
0.0
  0
VERTEX
  5
DB
  8
BRIDGE
 10
1186.477235441289
 20
618.000000000013
 30
0.0
  0
SEQEND
  5
1D3
  8
BRIDGE
  0
POLYLINE
  5
7E
  8
BRIDGE
 66
     1
 10
0.0
 20
0.0
 30
0.0
 70
     1
  0
VERTEX
  5
DC
  8
BRIDGE
 10
886.4870969009985
 20
618.000000000008
 30
0.0
  0
VERTEX
  5
DD
  8
BRIDGE
 10
886.4870969009985
 20
582.000000000015
 30
0.0
  0
VERTEX
  5
DE
  8
BRIDGE
 10
903.9855638196641
 20
582.000000000015
 30
0.0
  0
VERTEX
  5
DF
  8
BRIDGE
 10
903.9855638196641
 20
618.000000000008
 30
0.0
  0
SEQEND
  5
1D4
  8
BRIDGE
  0
POLYLINE
  5
7F
  8
BRIDGE
 66
     1
 10
0.0
 20
0.0
 30
0.0
 70
     1
  0
VERTEX
  5
E0
  8
BRIDGE
 10
777.7280019819568
 20
1179.999999999995
 30
0.0
  0
VERTEX
  5
E1
  8
BRIDGE
 10
777.7280019819605
 20
20.00000000000773
 30
0.0
  0
VERTEX
  5
E2
  8
BRIDGE
 10
840.2304352282999
 20
19.99999999998772
 30
0.0
  0
VERTEX
  5
E3
  8
BRIDGE
 10
840.2304352283004
 20
37.99999999998772
 30
0.0
  0
VERTEX
  5
E4
  8
BRIDGE
 10
950.2422254923658
 20
37.99999999999682
 30
0.0
  0
VERTEX
  5
E5
  8
BRIDGE
 10
950.2422254923658
 20
19.99999999999682
 30
0.0
  0
VERTEX
  5
E6
  8
BRIDGE
 10
1110.285113737164
 20
19.9999999999859
 30
0.0
  0
VERTEX
  5
E7
  8
BRIDGE
 10
1110.285113737164
 20
37.9999999999859
 30
0.0
  0
VERTEX
  5
E8
  8
BRIDGE
 10
1245.170890226757
 20
37.99999999999773
 30
0.0
  0
VERTEX
  5
E9
  8
BRIDGE
 10
1245.170890226757
 20
19.99999999999773
 30
0.0
  0
VERTEX
  5
EA
  8
BRIDGE
 10
1405.213778471555
 20
20.00000000001228
 30
0.0
  0
VERTEX
  5
EB
  8
BRIDGE
 10
1405.213778471553
 20
38.00000000001228
 30
0.0
  0
VERTEX
  5
EC
  8
BRIDGE
 10
1515.22556873562
 20
37.99999999999864
 30
0.0
  0
VERTEX
  5
ED
  8
BRIDGE
 10
1515.225568735623
 20
19.99999999999864
 30
0.0
  0
VERTEX
  5
EE
  8
BRIDGE
 10
1577.728001981962
 20
19.99999999999409
 30
0.0
  0
VERTEX
  5
EF
  8
BRIDGE
 10
1577.728001981958
 20
1179.999999999996
 30
0.0
  0
VERTEX
  5
F0
  8
BRIDGE
 10
1515.225568735619
 20
1179.999999999987
 30
0.0
  0
VERTEX
  5
F1
  8
BRIDGE
 10
1515.225568735618
 20
1161.999999999987
 30
0.0
  0
VERTEX
  5
F2
  8
BRIDGE
 10
1405.213778471551
 20
1161.999999999994
 30
0.0
  0
VERTEX
  5
F3
  8
BRIDGE
 10
1405.213778471551
 20
1179.999999999994
 30
0.0
  0
VERTEX
  5
F4
  8
BRIDGE
 10
1245.170890226752
 20
1180.000000000014
 30
0.0
  0
VERTEX
  5
F5
  8
BRIDGE
 10
1245.170890226753
 20
1162.000000000014
 30
0.0
  0
VERTEX
  5
F6
  8
BRIDGE
 10
1110.28511373716
 20
1161.999999999996
 30
0.0
  0
VERTEX
  5
F7
  8
BRIDGE
 10
1110.285113737159
 20
1179.999999999996
 30
0.0
  0
VERTEX
  5
F8
  8
BRIDGE
 10
950.2422254923617
 20
1179.999999999985
 30
0.0
  0
VERTEX
  5
F9
  8
BRIDGE
 10
950.2422254923622
 20
1161.999999999985
 30
0.0
  0
VERTEX
  5
FA
  8
BRIDGE
 10
840.2304352282968
 20
1161.999999999992
 30
0.0
  0
VERTEX
  5
FB
  8
BRIDGE
 10
840.2304352282963
 20
1179.999999999992
 30
0.0
  0
SEQEND
  5
1D5
  8
BRIDGE
  0
POLYLINE
  5
80
  8
BRIDGE
 66
     1
 10
0.0
 20
0.0
 30
0.0
 70
     1
  0
VERTEX
  5
FC
  8
BRIDGE
 10
569.2719980180414
 20
1179.999999999997
 30
0.0
  0
VERTEX
  5
FD
  8
BRIDGE
 10
569.2719980180414
 20
1071.240905080957
 30
0.0
  0
VERTEX
  5
FE
  8
BRIDGE
 10
551.2719980180409
 20
1071.240905080956
 30
0.0
  0
VERTEX
  5
FF
  8
BRIDGE
 10
551.2719980180409
 20
1053.742438162292
 30
0.0
  0
VERTEX
  5
100
  8
BRIDGE
 10
569.2719980180414
 20
1053.742438162292
 30
0.0
  0
VERTEX
  5
101
  8
BRIDGE
 10
569.2719980180414
 20
788.7492334593312
 30
0.0
  0
VERTEX
  5
102
  8
BRIDGE
 10
551.2719980180409
 20
788.7492334593312
 30
0.0
  0
VERTEX
  5
103
  8
BRIDGE
 10
551.2719980180409
 20
771.2507665406667
 30
0.0
  0
VERTEX
  5
104
  8
BRIDGE
 10
569.2719980180414
 20
771.2507665406667
 30
0.0
  0
VERTEX
  5
105
  8
BRIDGE
 10
569.2719980180423
 20
506.2575618377018
 30
0.0
  0
VERTEX
  5
106
  8
BRIDGE
 10
551.2719980180418
 20
506.2575618377018
 30
0.0
  0
VERTEX
  5
107
  8
BRIDGE
 10
551.2719980180418
 20
488.7590949190367
 30
0.0
  0
VERTEX
  5
108
  8
BRIDGE
 10
569.2719980180423
 20
488.7590949190367
 30
0.0
  0
VERTEX
  5
109
  8
BRIDGE
 10
569.2719980180436
 20
379.9999999999959
 30
0.0
  0
VERTEX
  5
10A
  8
BRIDGE
 10
751.2719980180432
 20
379.9999999999968
 30
0.0
  0
VERTEX
  5
10B
  8
BRIDGE
 10
751.271998018045
 20
424.5024332463358
 30
0.0
  0
VERTEX
  5
10C
  8
BRIDGE
 10
733.271998018045
 20
424.5024332463358
 30
0.0
  0
VERTEX
  5
10D
  8
BRIDGE
 10
733.271998018045
 20
442.5024332463358
 30
0.0
  0
VERTEX
  5
10E
  8
BRIDGE
 10
751.271998018045
 20
442.5024332463358
 30
0.0
  0
VERTEX
  5
10F
  8
BRIDGE
 10
751.2719980180455
 20
488.7590949190385
 30
0.0
  0
VERTEX
  5
110
  8
BRIDGE
 10
769.2719980180455
 20
488.7590949190385
 30
0.0
  0
VERTEX
  5
111
  8
BRIDGE
 10
769.2719980180455
 20
506.2575618377018
 30
0.0
  0
VERTEX
  5
112
  8
BRIDGE
 10
751.2719980180455
 20
506.2575618377018
 30
0.0
  0
VERTEX
  5
113
  8
BRIDGE
 10
751.2719980180445
 20
552.5142235104026
 30
0.0
  0
VERTEX
  5
114
  8
BRIDGE
 10
733.271998018045
 20
552.5142235104026
 30
0.0
  0
VERTEX
  5
115
  8
BRIDGE
 10
733.271998018045
 20
570.5142235104026
 30
0.0
  0
VERTEX
  5
116
  8
BRIDGE
 10
751.2719980180445
 20
570.5142235104026
 30
0.0
  0
VERTEX
  5
117
  8
BRIDGE
 10
751.2719980180445
 20
694.5571117552015
 30
0.0
  0
VERTEX
  5
118
  8
BRIDGE
 10
733.271998018045
 20
694.5571117552015
 30
0.0
  0
VERTEX
  5
119
  8
BRIDGE
 10
733.2719980180445
 20
712.5571117552017
 30
0.0
  0
VERTEX
  5
11A
  8
BRIDGE
 10
751.2719980180445
 20
712.5571117552017
 30
0.0
  0
VERTEX
  5
11B
  8
BRIDGE
 10
751.2719980180445
 20
771.2507665406672
 30
0.0
  0
VERTEX
  5
11C
  8
BRIDGE
 10
769.2719980180445
 20
771.2507665406681
 30
0.0
  0
VERTEX
  5
11D
  8
BRIDGE
 10
769.2719980180445
 20
788.7492334593319
 30
0.0
  0
VERTEX
  5
11E
  8
BRIDGE
 10
751.2719980180445
 20
788.7492334593319
 30
0.0
  0
VERTEX
  5
11F
  8
BRIDGE
 10
751.2719980180445
 20
847.4428882447951
 30
0.0
  0
VERTEX
  5
120
  8
BRIDGE
 10
733.2719980180445
 20
847.4428882447949
 30
0.0
  0
VERTEX
  5
121
  8
BRIDGE
 10
733.2719980180445
 20
865.4428882447953
 30
0.0
  0
VERTEX
  5
122
  8
BRIDGE
 10
751.2719980180445
 20
865.4428882447953
 30
0.0
  0
VERTEX
  5
123
  8
BRIDGE
 10
751.2719980180445
 20
989.4857764895924
 30
0.0
  0
VERTEX
  5
124
  8
BRIDGE
 10
733.2719980180441
 20
989.4857764895924
 30
0.0
  0
VERTEX
  5
125
  8
BRIDGE
 10
733.2719980180441
 20
1007.485776489593
 30
0.0
  0
VERTEX
  5
126
  8
BRIDGE
 10
751.2719980180441
 20
1007.485776489593
 30
0.0
  0
VERTEX
  5
127
  8
BRIDGE
 10
751.2719980180445
 20
1053.742438162293
 30
0.0
  0
VERTEX
  5
128
  8
BRIDGE
 10
769.2719980180445
 20
1053.742438162293
 30
0.0
  0
VERTEX
  5
129
  8
BRIDGE
 10
769.2719980180445
 20
1071.240905080957
 30
0.0
  0
VERTEX
  5
12A
  8
BRIDGE
 10
751.2719980180445
 20
1071.240905080957
 30
0.0
  0
VERTEX
  5
12B
  8
BRIDGE
 10
751.2719980180441
 20
1117.497566753658
 30
0.0
  0
VERTEX
  5
12C
  8
BRIDGE
 10
733.2719980180436
 20
1117.497566753658
 30
0.0
  0
VERTEX
  5
12D
  8
BRIDGE
 10
733.2719980180436
 20
1135.497566753658
 30
0.0
  0
VERTEX
  5
12E
  8
BRIDGE
 10
751.2719980180441
 20
1135.497566753658
 30
0.0
  0
VERTEX
  5
12F
  8
BRIDGE
 10
751.2719980180409
 20
1179.999999999997
 30
0.0
  0
SEQEND
  5
1D6
  8
BRIDGE
  0
POLYLINE
  5
81
  8
BRIDGE
 66
     1
 10
0.0
 20
0.0
 30
0.0
 70
     1
  0
VERTEX
  5
130
  8
BRIDGE
 10
344.2719980180382
 20
1179.999999999995
 30
0.0
  0
VERTEX
  5
131
  8
BRIDGE
 10
526.2719980180382
 20
1179.999999999996
 30
0.0
  0
VERTEX
  5
132
  8
BRIDGE
 10
526.2719980180409
 20
1135.497566753657
 30
0.0
  0
VERTEX
  5
133
  8
BRIDGE
 10
508.2719980180409
 20
1135.497566753657
 30
0.0
  0
VERTEX
  5
134
  8
BRIDGE
 10
508.2719980180409
 20
1117.497566753657
 30
0.0
  0
VERTEX
  5
135
  8
BRIDGE
 10
526.2719980180409
 20
1117.497566753657
 30
0.0
  0
VERTEX
  5
136
  8
BRIDGE
 10
526.2719980180418
 20
1071.240905080956
 30
0.0
  0
VERTEX
  5
137
  8
BRIDGE
 10
544.2719980180414
 20
1071.240905080956
 30
0.0
  0
VERTEX
  5
138
  8
BRIDGE
 10
544.2719980180418
 20
1053.742438162291
 30
0.0
  0
VERTEX
  5
139
  8
BRIDGE
 10
526.2719980180418
 20
1053.742438162291
 30
0.0
  0
VERTEX
  5
13A
  8
BRIDGE
 10
526.2719980180409
 20
1007.485776489591
 30
0.0
  0
VERTEX
  5
13B
  8
BRIDGE
 10
508.2719980180414
 20
1007.485776489591
 30
0.0
  0
VERTEX
  5
13C
  8
BRIDGE
 10
508.2719980180414
 20
989.485776489591
 30
0.0
  0
VERTEX
  5
13D
  8
BRIDGE
 10
526.2719980180409
 20
989.485776489591
 30
0.0
  0
VERTEX
  5
13E
  8
BRIDGE
 10
526.2719980180418
 20
865.442888244794
 30
0.0
  0
VERTEX
  5
13F
  8
BRIDGE
 10
508.2719980180414
 20
865.4428882447937
 30
0.0
  0
VERTEX
  5
140
  8
BRIDGE
 10
508.2719980180414
 20
847.4428882447935
 30
0.0
  0
VERTEX
  5
141
  8
BRIDGE
 10
526.2719980180418
 20
847.4428882447935
 30
0.0
  0
VERTEX
  5
142
  8
BRIDGE
 10
526.2719980180418
 20
788.7492334593303
 30
0.0
  0
VERTEX
  5
143
  8
BRIDGE
 10
544.2719980180418
 20
788.7492334593305
 30
0.0
  0
VERTEX
  5
144
  8
BRIDGE
 10
544.2719980180418
 20
771.2507665406665
 30
0.0
  0
VERTEX
  5
145
  8
BRIDGE
 10
526.2719980180418
 20
771.2507665406658
 30
0.0
  0
VERTEX
  5
146
  8
BRIDGE
 10
526.2719980180418
 20
712.5571117552004
 30
0.0
  0
VERTEX
  5
147
  8
BRIDGE
 10
508.2719980180414
 20
712.5571117552001
 30
0.0
  0
VERTEX
  5
148
  8
BRIDGE
 10
508.2719980180414
 20
694.5571117551999
 30
0.0
  0
VERTEX
  5
149
  8
BRIDGE
 10
526.2719980180418
 20
694.5571117552001
 30
0.0
  0
VERTEX
  5
14A
  8
BRIDGE
 10
526.2719980180418
 20
570.5142235104017
 30
0.0
  0
VERTEX
  5
14B
  8
BRIDGE
 10
508.2719980180423
 20
570.5142235104017
 30
0.0
  0
VERTEX
  5
14C
  8
BRIDGE
 10
508.2719980180423
 20
552.5142235104008
 30
0.0
  0
VERTEX
  5
14D
  8
BRIDGE
 10
526.2719980180418
 20
552.5142235104017
 30
0.0
  0
VERTEX
  5
14E
  8
BRIDGE
 10
526.2719980180423
 20
506.2575618377009
 30
0.0
  0
VERTEX
  5
14F
  8
BRIDGE
 10
544.2719980180427
 20
506.2575618377009
 30
0.0
  0
VERTEX
  5
150
  8
BRIDGE
 10
544.2719980180427
 20
488.7590949190367
 30
0.0
  0
VERTEX
  5
151
  8
BRIDGE
 10
526.2719980180423
 20
488.7590949190367
 30
0.0
  0
VERTEX
  5
152
  8
BRIDGE
 10
526.2719980180423
 20
442.502433246334
 30
0.0
  0
VERTEX
  5
153
  8
BRIDGE
 10
508.2719980180423
 20
442.502433246334
 30
0.0
  0
VERTEX
  5
154
  8
BRIDGE
 10
508.2719980180423
 20
424.502433246334
 30
0.0
  0
VERTEX
  5
155
  8
BRIDGE
 10
526.2719980180423
 20
424.502433246334
 30
0.0
  0
VERTEX
  5
156
  8
BRIDGE
 10
526.2719980180404
 20
379.999999999995
 30
0.0
  0
VERTEX
  5
157
  8
BRIDGE
 10
344.2719980180404
 20
379.999999999995
 30
0.0
  0
VERTEX
  5
158
  8
BRIDGE
 10
344.2719980180391
 20
488.7590949190358
 30
0.0
  0
VERTEX
  5
159
  8
BRIDGE
 10
326.2719980180386
 20
488.7590949190358
 30
0.0
  0
VERTEX
  5
15A
  8
BRIDGE
 10
326.2719980180386
 20
506.2575618377
 30
0.0
  0
VERTEX
  5
15B
  8
BRIDGE
 10
344.2719980180391
 20
506.2575618377
 30
0.0
  0
VERTEX
  5
15C
  8
BRIDGE
 10
344.2719980180382
 20
771.2507665406652
 30
0.0
  0
VERTEX
  5
15D
  8
BRIDGE
 10
326.2719980180382
 20
771.2507665406652
 30
0.0
  0
VERTEX
  5
15E
  8
BRIDGE
 10
326.2719980180382
 20
788.7492334593298
 30
0.0
  0
VERTEX
  5
15F
  8
BRIDGE
 10
344.2719980180382
 20
788.7492334593298
 30
0.0
  0
VERTEX
  5
160
  8
BRIDGE
 10
344.2719980180382
 20
1053.742438162291
 30
0.0
  0
VERTEX
  5
161
  8
BRIDGE
 10
326.2719980180382
 20
1053.742438162291
 30
0.0
  0
VERTEX
  5
162
  8
BRIDGE
 10
326.2719980180382
 20
1071.240905080955
 30
0.0
  0
VERTEX
  5
163
  8
BRIDGE
 10
344.2719980180382
 20
1071.240905080955
 30
0.0
  0
SEQEND
  5
1D7
  8
BRIDGE
  0
POLYLINE
  5
82
  8
BRIDGE
 66
     1
 10
0.0
 20
0.0
 30
0.0
 70
     1
  0
VERTEX
  5
164
  8
BRIDGE
 10
119.2719980180354
 20
1179.999999999996
 30
0.0
  0
VERTEX
  5
165
  8
BRIDGE
 10
301.271998018035
 20
1179.999999999997
 30
0.0
  0
VERTEX
  5
166
  8
BRIDGE
 10
301.271998018035
 20
1135.497566753657
 30
0.0
  0
VERTEX
  5
167
  8
BRIDGE
 10
283.271998018035
 20
1135.497566753657
 30
0.0
  0
VERTEX
  5
168
  8
BRIDGE
 10
283.271998018035
 20
1117.497566753657
 30
0.0
  0
VERTEX
  5
169
  8
BRIDGE
 10
319.2719980180382
 20
1117.497566753657
 30
0.0
  0
VERTEX
  5
16A
  8
BRIDGE
 10
319.2719980180391
 20
1007.485776489591
 30
0.0
  0
VERTEX
  5
16B
  8
BRIDGE
 10
283.2719980180341
 20
1007.48577648959
 30
0.0
  0
VERTEX
  5
16C
  8
BRIDGE
 10
283.2719980180341
 20
989.4857764895903
 30
0.0
  0
VERTEX
  5
16D
  8
BRIDGE
 10
301.2719980180336
 20
989.4857764895903
 30
0.0
  0
VERTEX
  5
16E
  8
BRIDGE
 10
301.2719980180359
 20
865.4428882447946
 30
0.0
  0
VERTEX
  5
16F
  8
BRIDGE
 10
283.2719980180354
 20
865.4428882447944
 30
0.0
  0
VERTEX
  5
170
  8
BRIDGE
 10
283.2719980180354
 20
847.4428882447944
 30
0.0
  0
VERTEX
  5
171
  8
BRIDGE
 10
319.2719980180382
 20
847.4428882447935
 30
0.0
  0
VERTEX
  5
172
  8
BRIDGE
 10
319.2719980180391
 20
712.5571117552004
 30
0.0
  0
VERTEX
  5
173
  8
BRIDGE
 10
283.271998018035
 20
712.5571117551988
 30
0.0
  0
VERTEX
  5
174
  8
BRIDGE
 10
283.271998018035
 20
694.5571117551985
 30
0.0
  0
VERTEX
  5
175
  8
BRIDGE
 10
301.2719980180345
 20
694.5571117551985
 30
0.0
  0
VERTEX
  5
176
  8
BRIDGE
 10
301.2719980180336
 20
570.5142235104036
 30
0.0
  0
VERTEX
  5
177
  8
BRIDGE
 10
283.2719980180336
 20
570.5142235104036
 30
0.0
  0
VERTEX
  5
178
  8
BRIDGE
 10
283.2719980180336
 20
552.5142235104036
 30
0.0
  0
VERTEX
  5
179
  8
BRIDGE
 10
319.2719980180395
 20
552.5142235104017
 30
0.0
  0
VERTEX
  5
17A
  8
BRIDGE
 10
319.2719980180395
 20
442.502433246334
 30
0.0
  0
VERTEX
  5
17B
  8
BRIDGE
 10
283.2719980180364
 20
442.5024332463358
 30
0.0
  0
VERTEX
  5
17C
  8
BRIDGE
 10
283.2719980180373
 20
424.5024332463358
 30
0.0
  0
VERTEX
  5
17D
  8
BRIDGE
 10
301.2719980180373
 20
424.5024332463358
 30
0.0
  0
VERTEX
  5
17E
  8
BRIDGE
 10
301.2719980180373
 20
379.9999999999959
 30
0.0
  0
VERTEX
  5
17F
  8
BRIDGE
 10
119.2719980180377
 20
379.999999999995
 30
0.0
  0
VERTEX
  5
180
  8
BRIDGE
 10
119.2719980180382
 20
442.5024332463349
 30
0.0
  0
VERTEX
  5
181
  8
BRIDGE
 10
101.2719980180373
 20
442.5024332463349
 30
0.0
  0
VERTEX
  5
182
  8
BRIDGE
 10
101.2719980180373
 20
552.5142235104017
 30
0.0
  0
VERTEX
  5
183
  8
BRIDGE
 10
119.2719980180377
 20
552.5142235104017
 30
0.0
  0
VERTEX
  5
184
  8
BRIDGE
 10
119.2719980180382
 20
712.557111755199
 30
0.0
  0
VERTEX
  5
185
  8
BRIDGE
 10
101.2719980180382
 20
712.557111755199
 30
0.0
  0
VERTEX
  5
186
  8
BRIDGE
 10
101.2719980180373
 20
847.4428882447924
 30
0.0
  0
VERTEX
  5
187
  8
BRIDGE
 10
119.2719980180377
 20
847.4428882447924
 30
0.0
  0
VERTEX
  5
188
  8
BRIDGE
 10
119.2719980180391
 20
1007.48577648959
 30
0.0
  0
VERTEX
  5
189
  8
BRIDGE
 10
101.2719980180395
 20
1007.48577648959
 30
0.0
  0
VERTEX
  5
18A
  8
BRIDGE
 10
101.2719980180386
 20
1117.497566753655
 30
0.0
  0
VERTEX
  5
18B
  8
BRIDGE
 10
119.2719980180391
 20
1117.497566753656
 30
0.0
  0
SEQEND
  5
1D8
  8
BRIDGE
  0
POLYLINE
  5
83
  8
BRIDGE
 66
     1
 10
0.0
 20
0.0
 30
0.0
 70
     1
  0
VERTEX
  5
18C
  8
BRIDGE
 10
58.27199801803863
 20
1179.999999999994
 30
0.0
  0
VERTEX
  5
18D
  8
BRIDGE
 10
76.27199801803863
 20
1179.999999999995
 30
0.0
  0
VERTEX
  5
18E
  8
BRIDGE
 10
76.27199801803863
 20
1135.497566753658
 30
0.0
  0
VERTEX
  5
18F
  8
BRIDGE
 10
94.2719980180359
 20
1135.497566753657
 30
0.0
  0
VERTEX
  5
190
  8
BRIDGE
 10
94.2719980180359
 20
1117.497566753657
 30
0.0
  0
VERTEX
  5
191
  8
BRIDGE
 10
76.27199801803863
 20
1117.497566753658
 30
0.0
  0
VERTEX
  5
192
  8
BRIDGE
 10
76.2719980180409
 20
1007.485776489589
 30
0.0
  0
VERTEX
  5
193
  8
BRIDGE
 10
94.27199801803954
 20
1007.48577648959
 30
0.0
  0
VERTEX
  5
194
  8
BRIDGE
 10
94.27199801803681
 20
989.4857764895896
 30
0.0
  0
VERTEX
  5
195
  8
BRIDGE
 10
76.27199801803818
 20
989.4857764895892
 30
0.0
  0
VERTEX
  5
196
  8
BRIDGE
 10
76.27199801804136
 20
865.4428882447924
 30
0.0
  0
VERTEX
  5
197
  8
BRIDGE
 10
94.27199801804181
 20
865.4428882447921
 30
0.0
  0
VERTEX
  5
198
  8
BRIDGE
 10
94.27199801803908
 20
847.4428882447919
 30
0.0
  0
VERTEX
  5
199
  8
BRIDGE
 10
76.27199801803863
 20
847.4428882447924
 30
0.0
  0
VERTEX
  5
19A
  8
BRIDGE
 10
76.27199801803954
 20
712.5571117551979
 30
0.0
  0
VERTEX
  5
19B
  8
BRIDGE
 10
94.27199801804045
 20
712.5571117551983
 30
0.0
  0
VERTEX
  5
19C
  8
BRIDGE
 10
94.27199801803681
 20
694.5571117551981
 30
0.0
  0
VERTEX
  5
19D
  8
BRIDGE
 10
76.27199801803636
 20
694.5571117551976
 30
0.0
  0
VERTEX
  5
19E
  8
BRIDGE
 10
76.27199801803863
 20
570.5142235103999
 30
0.0
  0
VERTEX
  5
19F
  8
BRIDGE
 10
94.27199801803908
 20
570.5142235104008
 30
0.0
  0
VERTEX
  5
1A0
  8
BRIDGE
 10
94.2719980180359
 20
552.5142235104008
 30
0.0
  0
VERTEX
  5
1A1
  8
BRIDGE
 10
76.2719980180359
 20
552.5142235103999
 30
0.0
  0
VERTEX
  5
1A2
  8
BRIDGE
 10
76.27199801803363
 20
442.502433246334
 30
0.0
  0
VERTEX
  5
1A3
  8
BRIDGE
 10
94.27199801803363
 20
442.5024332463349
 30
0.0
  0
VERTEX
  5
1A4
  8
BRIDGE
 10
94.27199801803681
 20
424.5024332463349
 30
0.0
  0
VERTEX
  5
1A5
  8
BRIDGE
 10
76.27199801803636
 20
424.5024332463331
 30
0.0
  0
VERTEX
  5
1A6
  8
BRIDGE
 10
76.27199801803727
 20
379.9999999999959
 30
0.0
  0
VERTEX
  5
1A7
  8
BRIDGE
 10
58.27199801803681
 20
379.9999999999959
 30
0.0
  0
SEQEND
  5
1D9
  8
BRIDGE
  0
POLYLINE
  5
84
  8
BRIDGE
 66
     1
 10
0.0
 20
0.0
 30
0.0
 70
     1
  0
VERTEX
  5
1A8
  8
BRIDGE
 10
33.27199801804409
 20
1179.999999999995
 30
0.0
  0
VERTEX
  5
1A9
  8
BRIDGE
 10
33.27199801804318
 20
1135.497566753658
 30
0.0
  0
VERTEX
  5
1AA
  8
BRIDGE
 10
15.27199801804591
 20
1135.497566753658
 30
0.0
  0
VERTEX
  5
1AB
  8
BRIDGE
 10
15.27199801804591
 20
1117.497566753658
 30
0.0
  0
VERTEX
  5
1AC
  8
BRIDGE
 10
33.27199801804318
 20
1117.497566753657
 30
0.0
  0
VERTEX
  5
1AD
  8
BRIDGE
 10
33.27199801803999
 20
1007.485776489589
 30
0.0
  0
VERTEX
  5
1AE
  8
BRIDGE
 10
15.2719980180409
 20
1007.48577648959
 30
0.0
  0
VERTEX
  5
1AF
  8
BRIDGE
 10
15.27199801804409
 20
989.4857764895901
 30
0.0
  0
VERTEX
  5
1B0
  8
BRIDGE
 10
33.27199801804272
 20
989.4857764895892
 30
0.0
  0
VERTEX
  5
1B1
  8
BRIDGE
 10
33.27199801803772
 20
865.4428882447924
 30
0.0
  0
VERTEX
  5
1B2
  8
BRIDGE
 10
15.27199801803727
 20
865.4428882447924
 30
0.0
  0
VERTEX
  5
1B3
  8
BRIDGE
 10
15.27199801804045
 20
847.4428882447924
 30
0.0
  0
VERTEX
  5
1B4
  8
BRIDGE
 10
33.27199801804045
 20
847.4428882447921
 30
0.0
  0
VERTEX
  5
1B5
  8
BRIDGE
 10
33.27199801803818
 20
712.5571117551976
 30
0.0
  0
VERTEX
  5
1B6
  8
BRIDGE
 10
15.27199801803727
 20
712.5571117551985
 30
0.0
  0
VERTEX
  5
1B7
  8
BRIDGE
 10
15.2719980180409
 20
694.5571117551983
 30
0.0
  0
VERTEX
  5
1B8
  8
BRIDGE
 10
33.27199801804136
 20
694.5571117551976
 30
0.0
  0
VERTEX
  5
1B9
  8
BRIDGE
 10
33.27199801803772
 20
570.5142235103999
 30
0.0
  0
VERTEX
  5
1BA
  8
BRIDGE
 10
15.27199801803727
 20
570.5142235104008
 30
0.0
  0
VERTEX
  5
1BB
  8
BRIDGE
 10
15.27199801804045
 20
552.5142235104008
 30
0.0
  0
VERTEX
  5
1BC
  8
BRIDGE
 10
33.27199801804045
 20
552.5142235103999
 30
0.0
  0
VERTEX
  5
1BD
  8
BRIDGE
 10
33.27199801804136
 20
442.5024332463331
 30
0.0
  0
VERTEX
  5
1BE
  8
BRIDGE
 10
15.2719980180409
 20
442.5024332463349
 30
0.0
  0
VERTEX
  5
1BF
  8
BRIDGE
 10
15.27199801803818
 20
424.5024332463349
 30
0.0
  0
VERTEX
  5
1C0
  8
BRIDGE
 10
33.27199801803818
 20
424.5024332463331
 30
0.0
  0
VERTEX
  5
1C1
  8
BRIDGE
 10
33.27199801803772
 20
379.9999999999959
 30
0.0
  0
VERTEX
  5
1C2
  8
BRIDGE
 10
51.27199801803772
 20
379.9999999999959
 30
0.0
  0
VERTEX
  5
1C3
  8
BRIDGE
 10
51.27199801804454
 20
1179.999999999994
 30
0.0
  0
SEQEND
  5
1DA
  8
BRIDGE
  0
ENDSEC
  0
EOF
